G04 #@! TF.GenerationSoftware,KiCad,Pcbnew,(5.1.5)-3*
G04 #@! TF.CreationDate,2020-04-28T22:18:00+02:00*
G04 #@! TF.ProjectId,czujnikParkowania,637a756a-6e69-46b5-9061-726b6f77616e,rev?*
G04 #@! TF.SameCoordinates,Original*
G04 #@! TF.FileFunction,Paste,Top*
G04 #@! TF.FilePolarity,Positive*
%FSLAX46Y46*%
G04 Gerber Fmt 4.6, Leading zero omitted, Abs format (unit mm)*
G04 Created by KiCad (PCBNEW (5.1.5)-3) date 2020-04-28 22:18:00*
%MOMM*%
%LPD*%
G04 APERTURE LIST*
%ADD10R,1.500000X1.000000*%
%ADD11C,0.100000*%
%ADD12R,1.500000X2.500000*%
%ADD13R,1.600000X0.550000*%
%ADD14R,0.550000X1.600000*%
%ADD15R,0.900000X0.800000*%
%ADD16R,0.800000X0.900000*%
%ADD17R,1.550000X1.300000*%
G04 APERTURE END LIST*
D10*
X80354000Y-25578000D03*
X80354000Y-28778000D03*
X85254000Y-25578000D03*
X85254000Y-28778000D03*
X80354000Y-40564000D03*
X80354000Y-43764000D03*
X85254000Y-40564000D03*
X85254000Y-43764000D03*
X85254000Y-51384000D03*
X85254000Y-48184000D03*
X80354000Y-51384000D03*
X80354000Y-48184000D03*
D11*
G36*
X40257642Y-70611674D02*
G01*
X40281303Y-70615184D01*
X40304507Y-70620996D01*
X40327029Y-70629054D01*
X40348653Y-70639282D01*
X40369170Y-70651579D01*
X40388383Y-70665829D01*
X40406107Y-70681893D01*
X40422171Y-70699617D01*
X40436421Y-70718830D01*
X40448718Y-70739347D01*
X40458946Y-70760971D01*
X40467004Y-70783493D01*
X40472816Y-70806697D01*
X40476326Y-70830358D01*
X40477500Y-70854250D01*
X40477500Y-71766750D01*
X40476326Y-71790642D01*
X40472816Y-71814303D01*
X40467004Y-71837507D01*
X40458946Y-71860029D01*
X40448718Y-71881653D01*
X40436421Y-71902170D01*
X40422171Y-71921383D01*
X40406107Y-71939107D01*
X40388383Y-71955171D01*
X40369170Y-71969421D01*
X40348653Y-71981718D01*
X40327029Y-71991946D01*
X40304507Y-72000004D01*
X40281303Y-72005816D01*
X40257642Y-72009326D01*
X40233750Y-72010500D01*
X39746250Y-72010500D01*
X39722358Y-72009326D01*
X39698697Y-72005816D01*
X39675493Y-72000004D01*
X39652971Y-71991946D01*
X39631347Y-71981718D01*
X39610830Y-71969421D01*
X39591617Y-71955171D01*
X39573893Y-71939107D01*
X39557829Y-71921383D01*
X39543579Y-71902170D01*
X39531282Y-71881653D01*
X39521054Y-71860029D01*
X39512996Y-71837507D01*
X39507184Y-71814303D01*
X39503674Y-71790642D01*
X39502500Y-71766750D01*
X39502500Y-70854250D01*
X39503674Y-70830358D01*
X39507184Y-70806697D01*
X39512996Y-70783493D01*
X39521054Y-70760971D01*
X39531282Y-70739347D01*
X39543579Y-70718830D01*
X39557829Y-70699617D01*
X39573893Y-70681893D01*
X39591617Y-70665829D01*
X39610830Y-70651579D01*
X39631347Y-70639282D01*
X39652971Y-70629054D01*
X39675493Y-70620996D01*
X39698697Y-70615184D01*
X39722358Y-70611674D01*
X39746250Y-70610500D01*
X40233750Y-70610500D01*
X40257642Y-70611674D01*
G37*
G36*
X38382642Y-70611674D02*
G01*
X38406303Y-70615184D01*
X38429507Y-70620996D01*
X38452029Y-70629054D01*
X38473653Y-70639282D01*
X38494170Y-70651579D01*
X38513383Y-70665829D01*
X38531107Y-70681893D01*
X38547171Y-70699617D01*
X38561421Y-70718830D01*
X38573718Y-70739347D01*
X38583946Y-70760971D01*
X38592004Y-70783493D01*
X38597816Y-70806697D01*
X38601326Y-70830358D01*
X38602500Y-70854250D01*
X38602500Y-71766750D01*
X38601326Y-71790642D01*
X38597816Y-71814303D01*
X38592004Y-71837507D01*
X38583946Y-71860029D01*
X38573718Y-71881653D01*
X38561421Y-71902170D01*
X38547171Y-71921383D01*
X38531107Y-71939107D01*
X38513383Y-71955171D01*
X38494170Y-71969421D01*
X38473653Y-71981718D01*
X38452029Y-71991946D01*
X38429507Y-72000004D01*
X38406303Y-72005816D01*
X38382642Y-72009326D01*
X38358750Y-72010500D01*
X37871250Y-72010500D01*
X37847358Y-72009326D01*
X37823697Y-72005816D01*
X37800493Y-72000004D01*
X37777971Y-71991946D01*
X37756347Y-71981718D01*
X37735830Y-71969421D01*
X37716617Y-71955171D01*
X37698893Y-71939107D01*
X37682829Y-71921383D01*
X37668579Y-71902170D01*
X37656282Y-71881653D01*
X37646054Y-71860029D01*
X37637996Y-71837507D01*
X37632184Y-71814303D01*
X37628674Y-71790642D01*
X37627500Y-71766750D01*
X37627500Y-70854250D01*
X37628674Y-70830358D01*
X37632184Y-70806697D01*
X37637996Y-70783493D01*
X37646054Y-70760971D01*
X37656282Y-70739347D01*
X37668579Y-70718830D01*
X37682829Y-70699617D01*
X37698893Y-70681893D01*
X37716617Y-70665829D01*
X37735830Y-70651579D01*
X37756347Y-70639282D01*
X37777971Y-70629054D01*
X37800493Y-70620996D01*
X37823697Y-70615184D01*
X37847358Y-70611674D01*
X37871250Y-70610500D01*
X38358750Y-70610500D01*
X38382642Y-70611674D01*
G37*
D12*
X69215000Y-65890000D03*
X69215000Y-53490000D03*
D13*
X52315000Y-62191500D03*
X52315000Y-61391500D03*
X52315000Y-60591500D03*
X52315000Y-59791500D03*
X52315000Y-58991500D03*
X52315000Y-58191500D03*
X52315000Y-57391500D03*
X52315000Y-56591500D03*
D14*
X50865000Y-55141500D03*
X50065000Y-55141500D03*
X49265000Y-55141500D03*
X48465000Y-55141500D03*
X47665000Y-55141500D03*
X46865000Y-55141500D03*
X46065000Y-55141500D03*
X45265000Y-55141500D03*
D13*
X43815000Y-56591500D03*
X43815000Y-57391500D03*
X43815000Y-58191500D03*
X43815000Y-58991500D03*
X43815000Y-59791500D03*
X43815000Y-60591500D03*
X43815000Y-61391500D03*
X43815000Y-62191500D03*
D14*
X45265000Y-63641500D03*
X46065000Y-63641500D03*
X46865000Y-63641500D03*
X47665000Y-63641500D03*
X48465000Y-63641500D03*
X49265000Y-63641500D03*
X50065000Y-63641500D03*
X50865000Y-63641500D03*
D11*
G36*
X57630142Y-70936174D02*
G01*
X57653803Y-70939684D01*
X57677007Y-70945496D01*
X57699529Y-70953554D01*
X57721153Y-70963782D01*
X57741670Y-70976079D01*
X57760883Y-70990329D01*
X57778607Y-71006393D01*
X57794671Y-71024117D01*
X57808921Y-71043330D01*
X57821218Y-71063847D01*
X57831446Y-71085471D01*
X57839504Y-71107993D01*
X57845316Y-71131197D01*
X57848826Y-71154858D01*
X57850000Y-71178750D01*
X57850000Y-71666250D01*
X57848826Y-71690142D01*
X57845316Y-71713803D01*
X57839504Y-71737007D01*
X57831446Y-71759529D01*
X57821218Y-71781153D01*
X57808921Y-71801670D01*
X57794671Y-71820883D01*
X57778607Y-71838607D01*
X57760883Y-71854671D01*
X57741670Y-71868921D01*
X57721153Y-71881218D01*
X57699529Y-71891446D01*
X57677007Y-71899504D01*
X57653803Y-71905316D01*
X57630142Y-71908826D01*
X57606250Y-71910000D01*
X56693750Y-71910000D01*
X56669858Y-71908826D01*
X56646197Y-71905316D01*
X56622993Y-71899504D01*
X56600471Y-71891446D01*
X56578847Y-71881218D01*
X56558330Y-71868921D01*
X56539117Y-71854671D01*
X56521393Y-71838607D01*
X56505329Y-71820883D01*
X56491079Y-71801670D01*
X56478782Y-71781153D01*
X56468554Y-71759529D01*
X56460496Y-71737007D01*
X56454684Y-71713803D01*
X56451174Y-71690142D01*
X56450000Y-71666250D01*
X56450000Y-71178750D01*
X56451174Y-71154858D01*
X56454684Y-71131197D01*
X56460496Y-71107993D01*
X56468554Y-71085471D01*
X56478782Y-71063847D01*
X56491079Y-71043330D01*
X56505329Y-71024117D01*
X56521393Y-71006393D01*
X56539117Y-70990329D01*
X56558330Y-70976079D01*
X56578847Y-70963782D01*
X56600471Y-70953554D01*
X56622993Y-70945496D01*
X56646197Y-70939684D01*
X56669858Y-70936174D01*
X56693750Y-70935000D01*
X57606250Y-70935000D01*
X57630142Y-70936174D01*
G37*
G36*
X57630142Y-69061174D02*
G01*
X57653803Y-69064684D01*
X57677007Y-69070496D01*
X57699529Y-69078554D01*
X57721153Y-69088782D01*
X57741670Y-69101079D01*
X57760883Y-69115329D01*
X57778607Y-69131393D01*
X57794671Y-69149117D01*
X57808921Y-69168330D01*
X57821218Y-69188847D01*
X57831446Y-69210471D01*
X57839504Y-69232993D01*
X57845316Y-69256197D01*
X57848826Y-69279858D01*
X57850000Y-69303750D01*
X57850000Y-69791250D01*
X57848826Y-69815142D01*
X57845316Y-69838803D01*
X57839504Y-69862007D01*
X57831446Y-69884529D01*
X57821218Y-69906153D01*
X57808921Y-69926670D01*
X57794671Y-69945883D01*
X57778607Y-69963607D01*
X57760883Y-69979671D01*
X57741670Y-69993921D01*
X57721153Y-70006218D01*
X57699529Y-70016446D01*
X57677007Y-70024504D01*
X57653803Y-70030316D01*
X57630142Y-70033826D01*
X57606250Y-70035000D01*
X56693750Y-70035000D01*
X56669858Y-70033826D01*
X56646197Y-70030316D01*
X56622993Y-70024504D01*
X56600471Y-70016446D01*
X56578847Y-70006218D01*
X56558330Y-69993921D01*
X56539117Y-69979671D01*
X56521393Y-69963607D01*
X56505329Y-69945883D01*
X56491079Y-69926670D01*
X56478782Y-69906153D01*
X56468554Y-69884529D01*
X56460496Y-69862007D01*
X56454684Y-69838803D01*
X56451174Y-69815142D01*
X56450000Y-69791250D01*
X56450000Y-69303750D01*
X56451174Y-69279858D01*
X56454684Y-69256197D01*
X56460496Y-69232993D01*
X56468554Y-69210471D01*
X56478782Y-69188847D01*
X56491079Y-69168330D01*
X56505329Y-69149117D01*
X56521393Y-69131393D01*
X56539117Y-69115329D01*
X56558330Y-69101079D01*
X56578847Y-69088782D01*
X56600471Y-69078554D01*
X56622993Y-69070496D01*
X56646197Y-69064684D01*
X56669858Y-69061174D01*
X56693750Y-69060000D01*
X57606250Y-69060000D01*
X57630142Y-69061174D01*
G37*
G36*
X68164142Y-77152174D02*
G01*
X68187803Y-77155684D01*
X68211007Y-77161496D01*
X68233529Y-77169554D01*
X68255153Y-77179782D01*
X68275670Y-77192079D01*
X68294883Y-77206329D01*
X68312607Y-77222393D01*
X68328671Y-77240117D01*
X68342921Y-77259330D01*
X68355218Y-77279847D01*
X68365446Y-77301471D01*
X68373504Y-77323993D01*
X68379316Y-77347197D01*
X68382826Y-77370858D01*
X68384000Y-77394750D01*
X68384000Y-78307250D01*
X68382826Y-78331142D01*
X68379316Y-78354803D01*
X68373504Y-78378007D01*
X68365446Y-78400529D01*
X68355218Y-78422153D01*
X68342921Y-78442670D01*
X68328671Y-78461883D01*
X68312607Y-78479607D01*
X68294883Y-78495671D01*
X68275670Y-78509921D01*
X68255153Y-78522218D01*
X68233529Y-78532446D01*
X68211007Y-78540504D01*
X68187803Y-78546316D01*
X68164142Y-78549826D01*
X68140250Y-78551000D01*
X67652750Y-78551000D01*
X67628858Y-78549826D01*
X67605197Y-78546316D01*
X67581993Y-78540504D01*
X67559471Y-78532446D01*
X67537847Y-78522218D01*
X67517330Y-78509921D01*
X67498117Y-78495671D01*
X67480393Y-78479607D01*
X67464329Y-78461883D01*
X67450079Y-78442670D01*
X67437782Y-78422153D01*
X67427554Y-78400529D01*
X67419496Y-78378007D01*
X67413684Y-78354803D01*
X67410174Y-78331142D01*
X67409000Y-78307250D01*
X67409000Y-77394750D01*
X67410174Y-77370858D01*
X67413684Y-77347197D01*
X67419496Y-77323993D01*
X67427554Y-77301471D01*
X67437782Y-77279847D01*
X67450079Y-77259330D01*
X67464329Y-77240117D01*
X67480393Y-77222393D01*
X67498117Y-77206329D01*
X67517330Y-77192079D01*
X67537847Y-77179782D01*
X67559471Y-77169554D01*
X67581993Y-77161496D01*
X67605197Y-77155684D01*
X67628858Y-77152174D01*
X67652750Y-77151000D01*
X68140250Y-77151000D01*
X68164142Y-77152174D01*
G37*
G36*
X70039142Y-77152174D02*
G01*
X70062803Y-77155684D01*
X70086007Y-77161496D01*
X70108529Y-77169554D01*
X70130153Y-77179782D01*
X70150670Y-77192079D01*
X70169883Y-77206329D01*
X70187607Y-77222393D01*
X70203671Y-77240117D01*
X70217921Y-77259330D01*
X70230218Y-77279847D01*
X70240446Y-77301471D01*
X70248504Y-77323993D01*
X70254316Y-77347197D01*
X70257826Y-77370858D01*
X70259000Y-77394750D01*
X70259000Y-78307250D01*
X70257826Y-78331142D01*
X70254316Y-78354803D01*
X70248504Y-78378007D01*
X70240446Y-78400529D01*
X70230218Y-78422153D01*
X70217921Y-78442670D01*
X70203671Y-78461883D01*
X70187607Y-78479607D01*
X70169883Y-78495671D01*
X70150670Y-78509921D01*
X70130153Y-78522218D01*
X70108529Y-78532446D01*
X70086007Y-78540504D01*
X70062803Y-78546316D01*
X70039142Y-78549826D01*
X70015250Y-78551000D01*
X69527750Y-78551000D01*
X69503858Y-78549826D01*
X69480197Y-78546316D01*
X69456993Y-78540504D01*
X69434471Y-78532446D01*
X69412847Y-78522218D01*
X69392330Y-78509921D01*
X69373117Y-78495671D01*
X69355393Y-78479607D01*
X69339329Y-78461883D01*
X69325079Y-78442670D01*
X69312782Y-78422153D01*
X69302554Y-78400529D01*
X69294496Y-78378007D01*
X69288684Y-78354803D01*
X69285174Y-78331142D01*
X69284000Y-78307250D01*
X69284000Y-77394750D01*
X69285174Y-77370858D01*
X69288684Y-77347197D01*
X69294496Y-77323993D01*
X69302554Y-77301471D01*
X69312782Y-77279847D01*
X69325079Y-77259330D01*
X69339329Y-77240117D01*
X69355393Y-77222393D01*
X69373117Y-77206329D01*
X69392330Y-77192079D01*
X69412847Y-77179782D01*
X69434471Y-77169554D01*
X69456993Y-77161496D01*
X69480197Y-77155684D01*
X69503858Y-77152174D01*
X69527750Y-77151000D01*
X70015250Y-77151000D01*
X70039142Y-77152174D01*
G37*
G36*
X76680142Y-63473174D02*
G01*
X76703803Y-63476684D01*
X76727007Y-63482496D01*
X76749529Y-63490554D01*
X76771153Y-63500782D01*
X76791670Y-63513079D01*
X76810883Y-63527329D01*
X76828607Y-63543393D01*
X76844671Y-63561117D01*
X76858921Y-63580330D01*
X76871218Y-63600847D01*
X76881446Y-63622471D01*
X76889504Y-63644993D01*
X76895316Y-63668197D01*
X76898826Y-63691858D01*
X76900000Y-63715750D01*
X76900000Y-64203250D01*
X76898826Y-64227142D01*
X76895316Y-64250803D01*
X76889504Y-64274007D01*
X76881446Y-64296529D01*
X76871218Y-64318153D01*
X76858921Y-64338670D01*
X76844671Y-64357883D01*
X76828607Y-64375607D01*
X76810883Y-64391671D01*
X76791670Y-64405921D01*
X76771153Y-64418218D01*
X76749529Y-64428446D01*
X76727007Y-64436504D01*
X76703803Y-64442316D01*
X76680142Y-64445826D01*
X76656250Y-64447000D01*
X75743750Y-64447000D01*
X75719858Y-64445826D01*
X75696197Y-64442316D01*
X75672993Y-64436504D01*
X75650471Y-64428446D01*
X75628847Y-64418218D01*
X75608330Y-64405921D01*
X75589117Y-64391671D01*
X75571393Y-64375607D01*
X75555329Y-64357883D01*
X75541079Y-64338670D01*
X75528782Y-64318153D01*
X75518554Y-64296529D01*
X75510496Y-64274007D01*
X75504684Y-64250803D01*
X75501174Y-64227142D01*
X75500000Y-64203250D01*
X75500000Y-63715750D01*
X75501174Y-63691858D01*
X75504684Y-63668197D01*
X75510496Y-63644993D01*
X75518554Y-63622471D01*
X75528782Y-63600847D01*
X75541079Y-63580330D01*
X75555329Y-63561117D01*
X75571393Y-63543393D01*
X75589117Y-63527329D01*
X75608330Y-63513079D01*
X75628847Y-63500782D01*
X75650471Y-63490554D01*
X75672993Y-63482496D01*
X75696197Y-63476684D01*
X75719858Y-63473174D01*
X75743750Y-63472000D01*
X76656250Y-63472000D01*
X76680142Y-63473174D01*
G37*
G36*
X76680142Y-65348174D02*
G01*
X76703803Y-65351684D01*
X76727007Y-65357496D01*
X76749529Y-65365554D01*
X76771153Y-65375782D01*
X76791670Y-65388079D01*
X76810883Y-65402329D01*
X76828607Y-65418393D01*
X76844671Y-65436117D01*
X76858921Y-65455330D01*
X76871218Y-65475847D01*
X76881446Y-65497471D01*
X76889504Y-65519993D01*
X76895316Y-65543197D01*
X76898826Y-65566858D01*
X76900000Y-65590750D01*
X76900000Y-66078250D01*
X76898826Y-66102142D01*
X76895316Y-66125803D01*
X76889504Y-66149007D01*
X76881446Y-66171529D01*
X76871218Y-66193153D01*
X76858921Y-66213670D01*
X76844671Y-66232883D01*
X76828607Y-66250607D01*
X76810883Y-66266671D01*
X76791670Y-66280921D01*
X76771153Y-66293218D01*
X76749529Y-66303446D01*
X76727007Y-66311504D01*
X76703803Y-66317316D01*
X76680142Y-66320826D01*
X76656250Y-66322000D01*
X75743750Y-66322000D01*
X75719858Y-66320826D01*
X75696197Y-66317316D01*
X75672993Y-66311504D01*
X75650471Y-66303446D01*
X75628847Y-66293218D01*
X75608330Y-66280921D01*
X75589117Y-66266671D01*
X75571393Y-66250607D01*
X75555329Y-66232883D01*
X75541079Y-66213670D01*
X75528782Y-66193153D01*
X75518554Y-66171529D01*
X75510496Y-66149007D01*
X75504684Y-66125803D01*
X75501174Y-66102142D01*
X75500000Y-66078250D01*
X75500000Y-65590750D01*
X75501174Y-65566858D01*
X75504684Y-65543197D01*
X75510496Y-65519993D01*
X75518554Y-65497471D01*
X75528782Y-65475847D01*
X75541079Y-65455330D01*
X75555329Y-65436117D01*
X75571393Y-65418393D01*
X75589117Y-65402329D01*
X75608330Y-65388079D01*
X75628847Y-65375782D01*
X75650471Y-65365554D01*
X75672993Y-65357496D01*
X75696197Y-65351684D01*
X75719858Y-65348174D01*
X75743750Y-65347000D01*
X76656250Y-65347000D01*
X76680142Y-65348174D01*
G37*
G36*
X75657142Y-32448174D02*
G01*
X75680803Y-32451684D01*
X75704007Y-32457496D01*
X75726529Y-32465554D01*
X75748153Y-32475782D01*
X75768670Y-32488079D01*
X75787883Y-32502329D01*
X75805607Y-32518393D01*
X75821671Y-32536117D01*
X75835921Y-32555330D01*
X75848218Y-32575847D01*
X75858446Y-32597471D01*
X75866504Y-32619993D01*
X75872316Y-32643197D01*
X75875826Y-32666858D01*
X75877000Y-32690750D01*
X75877000Y-33603250D01*
X75875826Y-33627142D01*
X75872316Y-33650803D01*
X75866504Y-33674007D01*
X75858446Y-33696529D01*
X75848218Y-33718153D01*
X75835921Y-33738670D01*
X75821671Y-33757883D01*
X75805607Y-33775607D01*
X75787883Y-33791671D01*
X75768670Y-33805921D01*
X75748153Y-33818218D01*
X75726529Y-33828446D01*
X75704007Y-33836504D01*
X75680803Y-33842316D01*
X75657142Y-33845826D01*
X75633250Y-33847000D01*
X75145750Y-33847000D01*
X75121858Y-33845826D01*
X75098197Y-33842316D01*
X75074993Y-33836504D01*
X75052471Y-33828446D01*
X75030847Y-33818218D01*
X75010330Y-33805921D01*
X74991117Y-33791671D01*
X74973393Y-33775607D01*
X74957329Y-33757883D01*
X74943079Y-33738670D01*
X74930782Y-33718153D01*
X74920554Y-33696529D01*
X74912496Y-33674007D01*
X74906684Y-33650803D01*
X74903174Y-33627142D01*
X74902000Y-33603250D01*
X74902000Y-32690750D01*
X74903174Y-32666858D01*
X74906684Y-32643197D01*
X74912496Y-32619993D01*
X74920554Y-32597471D01*
X74930782Y-32575847D01*
X74943079Y-32555330D01*
X74957329Y-32536117D01*
X74973393Y-32518393D01*
X74991117Y-32502329D01*
X75010330Y-32488079D01*
X75030847Y-32475782D01*
X75052471Y-32465554D01*
X75074993Y-32457496D01*
X75098197Y-32451684D01*
X75121858Y-32448174D01*
X75145750Y-32447000D01*
X75633250Y-32447000D01*
X75657142Y-32448174D01*
G37*
G36*
X77532142Y-32448174D02*
G01*
X77555803Y-32451684D01*
X77579007Y-32457496D01*
X77601529Y-32465554D01*
X77623153Y-32475782D01*
X77643670Y-32488079D01*
X77662883Y-32502329D01*
X77680607Y-32518393D01*
X77696671Y-32536117D01*
X77710921Y-32555330D01*
X77723218Y-32575847D01*
X77733446Y-32597471D01*
X77741504Y-32619993D01*
X77747316Y-32643197D01*
X77750826Y-32666858D01*
X77752000Y-32690750D01*
X77752000Y-33603250D01*
X77750826Y-33627142D01*
X77747316Y-33650803D01*
X77741504Y-33674007D01*
X77733446Y-33696529D01*
X77723218Y-33718153D01*
X77710921Y-33738670D01*
X77696671Y-33757883D01*
X77680607Y-33775607D01*
X77662883Y-33791671D01*
X77643670Y-33805921D01*
X77623153Y-33818218D01*
X77601529Y-33828446D01*
X77579007Y-33836504D01*
X77555803Y-33842316D01*
X77532142Y-33845826D01*
X77508250Y-33847000D01*
X77020750Y-33847000D01*
X76996858Y-33845826D01*
X76973197Y-33842316D01*
X76949993Y-33836504D01*
X76927471Y-33828446D01*
X76905847Y-33818218D01*
X76885330Y-33805921D01*
X76866117Y-33791671D01*
X76848393Y-33775607D01*
X76832329Y-33757883D01*
X76818079Y-33738670D01*
X76805782Y-33718153D01*
X76795554Y-33696529D01*
X76787496Y-33674007D01*
X76781684Y-33650803D01*
X76778174Y-33627142D01*
X76777000Y-33603250D01*
X76777000Y-32690750D01*
X76778174Y-32666858D01*
X76781684Y-32643197D01*
X76787496Y-32619993D01*
X76795554Y-32597471D01*
X76805782Y-32575847D01*
X76818079Y-32555330D01*
X76832329Y-32536117D01*
X76848393Y-32518393D01*
X76866117Y-32502329D01*
X76885330Y-32488079D01*
X76905847Y-32475782D01*
X76927471Y-32465554D01*
X76949993Y-32457496D01*
X76973197Y-32451684D01*
X76996858Y-32448174D01*
X77020750Y-32447000D01*
X77508250Y-32447000D01*
X77532142Y-32448174D01*
G37*
D10*
X85254000Y-59004000D03*
X85254000Y-55804000D03*
X80354000Y-59004000D03*
X80354000Y-55804000D03*
X85254000Y-36398000D03*
X85254000Y-33198000D03*
X80354000Y-36398000D03*
X80354000Y-33198000D03*
D15*
X44751500Y-74485500D03*
X42751500Y-75435500D03*
X42751500Y-73535500D03*
D11*
G36*
X57251203Y-74338222D02*
G01*
X57265764Y-74340382D01*
X57280043Y-74343959D01*
X57293903Y-74348918D01*
X57307210Y-74355212D01*
X57319836Y-74362780D01*
X57331659Y-74371548D01*
X57342566Y-74381434D01*
X57352452Y-74392341D01*
X57361220Y-74404164D01*
X57368788Y-74416790D01*
X57375082Y-74430097D01*
X57380041Y-74443957D01*
X57383618Y-74458236D01*
X57385778Y-74472797D01*
X57386500Y-74487500D01*
X57386500Y-76137500D01*
X57385778Y-76152203D01*
X57383618Y-76166764D01*
X57380041Y-76181043D01*
X57375082Y-76194903D01*
X57368788Y-76208210D01*
X57361220Y-76220836D01*
X57352452Y-76232659D01*
X57342566Y-76243566D01*
X57331659Y-76253452D01*
X57319836Y-76262220D01*
X57307210Y-76269788D01*
X57293903Y-76276082D01*
X57280043Y-76281041D01*
X57265764Y-76284618D01*
X57251203Y-76286778D01*
X57236500Y-76287500D01*
X56936500Y-76287500D01*
X56921797Y-76286778D01*
X56907236Y-76284618D01*
X56892957Y-76281041D01*
X56879097Y-76276082D01*
X56865790Y-76269788D01*
X56853164Y-76262220D01*
X56841341Y-76253452D01*
X56830434Y-76243566D01*
X56820548Y-76232659D01*
X56811780Y-76220836D01*
X56804212Y-76208210D01*
X56797918Y-76194903D01*
X56792959Y-76181043D01*
X56789382Y-76166764D01*
X56787222Y-76152203D01*
X56786500Y-76137500D01*
X56786500Y-74487500D01*
X56787222Y-74472797D01*
X56789382Y-74458236D01*
X56792959Y-74443957D01*
X56797918Y-74430097D01*
X56804212Y-74416790D01*
X56811780Y-74404164D01*
X56820548Y-74392341D01*
X56830434Y-74381434D01*
X56841341Y-74371548D01*
X56853164Y-74362780D01*
X56865790Y-74355212D01*
X56879097Y-74348918D01*
X56892957Y-74343959D01*
X56907236Y-74340382D01*
X56921797Y-74338222D01*
X56936500Y-74337500D01*
X57236500Y-74337500D01*
X57251203Y-74338222D01*
G37*
G36*
X55981203Y-74338222D02*
G01*
X55995764Y-74340382D01*
X56010043Y-74343959D01*
X56023903Y-74348918D01*
X56037210Y-74355212D01*
X56049836Y-74362780D01*
X56061659Y-74371548D01*
X56072566Y-74381434D01*
X56082452Y-74392341D01*
X56091220Y-74404164D01*
X56098788Y-74416790D01*
X56105082Y-74430097D01*
X56110041Y-74443957D01*
X56113618Y-74458236D01*
X56115778Y-74472797D01*
X56116500Y-74487500D01*
X56116500Y-76137500D01*
X56115778Y-76152203D01*
X56113618Y-76166764D01*
X56110041Y-76181043D01*
X56105082Y-76194903D01*
X56098788Y-76208210D01*
X56091220Y-76220836D01*
X56082452Y-76232659D01*
X56072566Y-76243566D01*
X56061659Y-76253452D01*
X56049836Y-76262220D01*
X56037210Y-76269788D01*
X56023903Y-76276082D01*
X56010043Y-76281041D01*
X55995764Y-76284618D01*
X55981203Y-76286778D01*
X55966500Y-76287500D01*
X55666500Y-76287500D01*
X55651797Y-76286778D01*
X55637236Y-76284618D01*
X55622957Y-76281041D01*
X55609097Y-76276082D01*
X55595790Y-76269788D01*
X55583164Y-76262220D01*
X55571341Y-76253452D01*
X55560434Y-76243566D01*
X55550548Y-76232659D01*
X55541780Y-76220836D01*
X55534212Y-76208210D01*
X55527918Y-76194903D01*
X55522959Y-76181043D01*
X55519382Y-76166764D01*
X55517222Y-76152203D01*
X55516500Y-76137500D01*
X55516500Y-74487500D01*
X55517222Y-74472797D01*
X55519382Y-74458236D01*
X55522959Y-74443957D01*
X55527918Y-74430097D01*
X55534212Y-74416790D01*
X55541780Y-74404164D01*
X55550548Y-74392341D01*
X55560434Y-74381434D01*
X55571341Y-74371548D01*
X55583164Y-74362780D01*
X55595790Y-74355212D01*
X55609097Y-74348918D01*
X55622957Y-74343959D01*
X55637236Y-74340382D01*
X55651797Y-74338222D01*
X55666500Y-74337500D01*
X55966500Y-74337500D01*
X55981203Y-74338222D01*
G37*
G36*
X54711203Y-74338222D02*
G01*
X54725764Y-74340382D01*
X54740043Y-74343959D01*
X54753903Y-74348918D01*
X54767210Y-74355212D01*
X54779836Y-74362780D01*
X54791659Y-74371548D01*
X54802566Y-74381434D01*
X54812452Y-74392341D01*
X54821220Y-74404164D01*
X54828788Y-74416790D01*
X54835082Y-74430097D01*
X54840041Y-74443957D01*
X54843618Y-74458236D01*
X54845778Y-74472797D01*
X54846500Y-74487500D01*
X54846500Y-76137500D01*
X54845778Y-76152203D01*
X54843618Y-76166764D01*
X54840041Y-76181043D01*
X54835082Y-76194903D01*
X54828788Y-76208210D01*
X54821220Y-76220836D01*
X54812452Y-76232659D01*
X54802566Y-76243566D01*
X54791659Y-76253452D01*
X54779836Y-76262220D01*
X54767210Y-76269788D01*
X54753903Y-76276082D01*
X54740043Y-76281041D01*
X54725764Y-76284618D01*
X54711203Y-76286778D01*
X54696500Y-76287500D01*
X54396500Y-76287500D01*
X54381797Y-76286778D01*
X54367236Y-76284618D01*
X54352957Y-76281041D01*
X54339097Y-76276082D01*
X54325790Y-76269788D01*
X54313164Y-76262220D01*
X54301341Y-76253452D01*
X54290434Y-76243566D01*
X54280548Y-76232659D01*
X54271780Y-76220836D01*
X54264212Y-76208210D01*
X54257918Y-76194903D01*
X54252959Y-76181043D01*
X54249382Y-76166764D01*
X54247222Y-76152203D01*
X54246500Y-76137500D01*
X54246500Y-74487500D01*
X54247222Y-74472797D01*
X54249382Y-74458236D01*
X54252959Y-74443957D01*
X54257918Y-74430097D01*
X54264212Y-74416790D01*
X54271780Y-74404164D01*
X54280548Y-74392341D01*
X54290434Y-74381434D01*
X54301341Y-74371548D01*
X54313164Y-74362780D01*
X54325790Y-74355212D01*
X54339097Y-74348918D01*
X54352957Y-74343959D01*
X54367236Y-74340382D01*
X54381797Y-74338222D01*
X54396500Y-74337500D01*
X54696500Y-74337500D01*
X54711203Y-74338222D01*
G37*
G36*
X53441203Y-74338222D02*
G01*
X53455764Y-74340382D01*
X53470043Y-74343959D01*
X53483903Y-74348918D01*
X53497210Y-74355212D01*
X53509836Y-74362780D01*
X53521659Y-74371548D01*
X53532566Y-74381434D01*
X53542452Y-74392341D01*
X53551220Y-74404164D01*
X53558788Y-74416790D01*
X53565082Y-74430097D01*
X53570041Y-74443957D01*
X53573618Y-74458236D01*
X53575778Y-74472797D01*
X53576500Y-74487500D01*
X53576500Y-76137500D01*
X53575778Y-76152203D01*
X53573618Y-76166764D01*
X53570041Y-76181043D01*
X53565082Y-76194903D01*
X53558788Y-76208210D01*
X53551220Y-76220836D01*
X53542452Y-76232659D01*
X53532566Y-76243566D01*
X53521659Y-76253452D01*
X53509836Y-76262220D01*
X53497210Y-76269788D01*
X53483903Y-76276082D01*
X53470043Y-76281041D01*
X53455764Y-76284618D01*
X53441203Y-76286778D01*
X53426500Y-76287500D01*
X53126500Y-76287500D01*
X53111797Y-76286778D01*
X53097236Y-76284618D01*
X53082957Y-76281041D01*
X53069097Y-76276082D01*
X53055790Y-76269788D01*
X53043164Y-76262220D01*
X53031341Y-76253452D01*
X53020434Y-76243566D01*
X53010548Y-76232659D01*
X53001780Y-76220836D01*
X52994212Y-76208210D01*
X52987918Y-76194903D01*
X52982959Y-76181043D01*
X52979382Y-76166764D01*
X52977222Y-76152203D01*
X52976500Y-76137500D01*
X52976500Y-74487500D01*
X52977222Y-74472797D01*
X52979382Y-74458236D01*
X52982959Y-74443957D01*
X52987918Y-74430097D01*
X52994212Y-74416790D01*
X53001780Y-74404164D01*
X53010548Y-74392341D01*
X53020434Y-74381434D01*
X53031341Y-74371548D01*
X53043164Y-74362780D01*
X53055790Y-74355212D01*
X53069097Y-74348918D01*
X53082957Y-74343959D01*
X53097236Y-74340382D01*
X53111797Y-74338222D01*
X53126500Y-74337500D01*
X53426500Y-74337500D01*
X53441203Y-74338222D01*
G37*
G36*
X53441203Y-79288222D02*
G01*
X53455764Y-79290382D01*
X53470043Y-79293959D01*
X53483903Y-79298918D01*
X53497210Y-79305212D01*
X53509836Y-79312780D01*
X53521659Y-79321548D01*
X53532566Y-79331434D01*
X53542452Y-79342341D01*
X53551220Y-79354164D01*
X53558788Y-79366790D01*
X53565082Y-79380097D01*
X53570041Y-79393957D01*
X53573618Y-79408236D01*
X53575778Y-79422797D01*
X53576500Y-79437500D01*
X53576500Y-81087500D01*
X53575778Y-81102203D01*
X53573618Y-81116764D01*
X53570041Y-81131043D01*
X53565082Y-81144903D01*
X53558788Y-81158210D01*
X53551220Y-81170836D01*
X53542452Y-81182659D01*
X53532566Y-81193566D01*
X53521659Y-81203452D01*
X53509836Y-81212220D01*
X53497210Y-81219788D01*
X53483903Y-81226082D01*
X53470043Y-81231041D01*
X53455764Y-81234618D01*
X53441203Y-81236778D01*
X53426500Y-81237500D01*
X53126500Y-81237500D01*
X53111797Y-81236778D01*
X53097236Y-81234618D01*
X53082957Y-81231041D01*
X53069097Y-81226082D01*
X53055790Y-81219788D01*
X53043164Y-81212220D01*
X53031341Y-81203452D01*
X53020434Y-81193566D01*
X53010548Y-81182659D01*
X53001780Y-81170836D01*
X52994212Y-81158210D01*
X52987918Y-81144903D01*
X52982959Y-81131043D01*
X52979382Y-81116764D01*
X52977222Y-81102203D01*
X52976500Y-81087500D01*
X52976500Y-79437500D01*
X52977222Y-79422797D01*
X52979382Y-79408236D01*
X52982959Y-79393957D01*
X52987918Y-79380097D01*
X52994212Y-79366790D01*
X53001780Y-79354164D01*
X53010548Y-79342341D01*
X53020434Y-79331434D01*
X53031341Y-79321548D01*
X53043164Y-79312780D01*
X53055790Y-79305212D01*
X53069097Y-79298918D01*
X53082957Y-79293959D01*
X53097236Y-79290382D01*
X53111797Y-79288222D01*
X53126500Y-79287500D01*
X53426500Y-79287500D01*
X53441203Y-79288222D01*
G37*
G36*
X54711203Y-79288222D02*
G01*
X54725764Y-79290382D01*
X54740043Y-79293959D01*
X54753903Y-79298918D01*
X54767210Y-79305212D01*
X54779836Y-79312780D01*
X54791659Y-79321548D01*
X54802566Y-79331434D01*
X54812452Y-79342341D01*
X54821220Y-79354164D01*
X54828788Y-79366790D01*
X54835082Y-79380097D01*
X54840041Y-79393957D01*
X54843618Y-79408236D01*
X54845778Y-79422797D01*
X54846500Y-79437500D01*
X54846500Y-81087500D01*
X54845778Y-81102203D01*
X54843618Y-81116764D01*
X54840041Y-81131043D01*
X54835082Y-81144903D01*
X54828788Y-81158210D01*
X54821220Y-81170836D01*
X54812452Y-81182659D01*
X54802566Y-81193566D01*
X54791659Y-81203452D01*
X54779836Y-81212220D01*
X54767210Y-81219788D01*
X54753903Y-81226082D01*
X54740043Y-81231041D01*
X54725764Y-81234618D01*
X54711203Y-81236778D01*
X54696500Y-81237500D01*
X54396500Y-81237500D01*
X54381797Y-81236778D01*
X54367236Y-81234618D01*
X54352957Y-81231041D01*
X54339097Y-81226082D01*
X54325790Y-81219788D01*
X54313164Y-81212220D01*
X54301341Y-81203452D01*
X54290434Y-81193566D01*
X54280548Y-81182659D01*
X54271780Y-81170836D01*
X54264212Y-81158210D01*
X54257918Y-81144903D01*
X54252959Y-81131043D01*
X54249382Y-81116764D01*
X54247222Y-81102203D01*
X54246500Y-81087500D01*
X54246500Y-79437500D01*
X54247222Y-79422797D01*
X54249382Y-79408236D01*
X54252959Y-79393957D01*
X54257918Y-79380097D01*
X54264212Y-79366790D01*
X54271780Y-79354164D01*
X54280548Y-79342341D01*
X54290434Y-79331434D01*
X54301341Y-79321548D01*
X54313164Y-79312780D01*
X54325790Y-79305212D01*
X54339097Y-79298918D01*
X54352957Y-79293959D01*
X54367236Y-79290382D01*
X54381797Y-79288222D01*
X54396500Y-79287500D01*
X54696500Y-79287500D01*
X54711203Y-79288222D01*
G37*
G36*
X55981203Y-79288222D02*
G01*
X55995764Y-79290382D01*
X56010043Y-79293959D01*
X56023903Y-79298918D01*
X56037210Y-79305212D01*
X56049836Y-79312780D01*
X56061659Y-79321548D01*
X56072566Y-79331434D01*
X56082452Y-79342341D01*
X56091220Y-79354164D01*
X56098788Y-79366790D01*
X56105082Y-79380097D01*
X56110041Y-79393957D01*
X56113618Y-79408236D01*
X56115778Y-79422797D01*
X56116500Y-79437500D01*
X56116500Y-81087500D01*
X56115778Y-81102203D01*
X56113618Y-81116764D01*
X56110041Y-81131043D01*
X56105082Y-81144903D01*
X56098788Y-81158210D01*
X56091220Y-81170836D01*
X56082452Y-81182659D01*
X56072566Y-81193566D01*
X56061659Y-81203452D01*
X56049836Y-81212220D01*
X56037210Y-81219788D01*
X56023903Y-81226082D01*
X56010043Y-81231041D01*
X55995764Y-81234618D01*
X55981203Y-81236778D01*
X55966500Y-81237500D01*
X55666500Y-81237500D01*
X55651797Y-81236778D01*
X55637236Y-81234618D01*
X55622957Y-81231041D01*
X55609097Y-81226082D01*
X55595790Y-81219788D01*
X55583164Y-81212220D01*
X55571341Y-81203452D01*
X55560434Y-81193566D01*
X55550548Y-81182659D01*
X55541780Y-81170836D01*
X55534212Y-81158210D01*
X55527918Y-81144903D01*
X55522959Y-81131043D01*
X55519382Y-81116764D01*
X55517222Y-81102203D01*
X55516500Y-81087500D01*
X55516500Y-79437500D01*
X55517222Y-79422797D01*
X55519382Y-79408236D01*
X55522959Y-79393957D01*
X55527918Y-79380097D01*
X55534212Y-79366790D01*
X55541780Y-79354164D01*
X55550548Y-79342341D01*
X55560434Y-79331434D01*
X55571341Y-79321548D01*
X55583164Y-79312780D01*
X55595790Y-79305212D01*
X55609097Y-79298918D01*
X55622957Y-79293959D01*
X55637236Y-79290382D01*
X55651797Y-79288222D01*
X55666500Y-79287500D01*
X55966500Y-79287500D01*
X55981203Y-79288222D01*
G37*
G36*
X57251203Y-79288222D02*
G01*
X57265764Y-79290382D01*
X57280043Y-79293959D01*
X57293903Y-79298918D01*
X57307210Y-79305212D01*
X57319836Y-79312780D01*
X57331659Y-79321548D01*
X57342566Y-79331434D01*
X57352452Y-79342341D01*
X57361220Y-79354164D01*
X57368788Y-79366790D01*
X57375082Y-79380097D01*
X57380041Y-79393957D01*
X57383618Y-79408236D01*
X57385778Y-79422797D01*
X57386500Y-79437500D01*
X57386500Y-81087500D01*
X57385778Y-81102203D01*
X57383618Y-81116764D01*
X57380041Y-81131043D01*
X57375082Y-81144903D01*
X57368788Y-81158210D01*
X57361220Y-81170836D01*
X57352452Y-81182659D01*
X57342566Y-81193566D01*
X57331659Y-81203452D01*
X57319836Y-81212220D01*
X57307210Y-81219788D01*
X57293903Y-81226082D01*
X57280043Y-81231041D01*
X57265764Y-81234618D01*
X57251203Y-81236778D01*
X57236500Y-81237500D01*
X56936500Y-81237500D01*
X56921797Y-81236778D01*
X56907236Y-81234618D01*
X56892957Y-81231041D01*
X56879097Y-81226082D01*
X56865790Y-81219788D01*
X56853164Y-81212220D01*
X56841341Y-81203452D01*
X56830434Y-81193566D01*
X56820548Y-81182659D01*
X56811780Y-81170836D01*
X56804212Y-81158210D01*
X56797918Y-81144903D01*
X56792959Y-81131043D01*
X56789382Y-81116764D01*
X56787222Y-81102203D01*
X56786500Y-81087500D01*
X56786500Y-79437500D01*
X56787222Y-79422797D01*
X56789382Y-79408236D01*
X56792959Y-79393957D01*
X56797918Y-79380097D01*
X56804212Y-79366790D01*
X56811780Y-79354164D01*
X56820548Y-79342341D01*
X56830434Y-79331434D01*
X56841341Y-79321548D01*
X56853164Y-79312780D01*
X56865790Y-79305212D01*
X56879097Y-79298918D01*
X56892957Y-79293959D01*
X56907236Y-79290382D01*
X56921797Y-79288222D01*
X56936500Y-79287500D01*
X57236500Y-79287500D01*
X57251203Y-79288222D01*
G37*
D16*
X28577500Y-57197500D03*
X30477500Y-57197500D03*
X29527500Y-55197500D03*
D15*
X22812500Y-59883000D03*
X22812500Y-61783000D03*
X24812500Y-60833000D03*
X27194000Y-44069000D03*
X29194000Y-43119000D03*
X29194000Y-45019000D03*
D11*
G36*
X47978142Y-77443174D02*
G01*
X48001803Y-77446684D01*
X48025007Y-77452496D01*
X48047529Y-77460554D01*
X48069153Y-77470782D01*
X48089670Y-77483079D01*
X48108883Y-77497329D01*
X48126607Y-77513393D01*
X48142671Y-77531117D01*
X48156921Y-77550330D01*
X48169218Y-77570847D01*
X48179446Y-77592471D01*
X48187504Y-77614993D01*
X48193316Y-77638197D01*
X48196826Y-77661858D01*
X48198000Y-77685750D01*
X48198000Y-78173250D01*
X48196826Y-78197142D01*
X48193316Y-78220803D01*
X48187504Y-78244007D01*
X48179446Y-78266529D01*
X48169218Y-78288153D01*
X48156921Y-78308670D01*
X48142671Y-78327883D01*
X48126607Y-78345607D01*
X48108883Y-78361671D01*
X48089670Y-78375921D01*
X48069153Y-78388218D01*
X48047529Y-78398446D01*
X48025007Y-78406504D01*
X48001803Y-78412316D01*
X47978142Y-78415826D01*
X47954250Y-78417000D01*
X47041750Y-78417000D01*
X47017858Y-78415826D01*
X46994197Y-78412316D01*
X46970993Y-78406504D01*
X46948471Y-78398446D01*
X46926847Y-78388218D01*
X46906330Y-78375921D01*
X46887117Y-78361671D01*
X46869393Y-78345607D01*
X46853329Y-78327883D01*
X46839079Y-78308670D01*
X46826782Y-78288153D01*
X46816554Y-78266529D01*
X46808496Y-78244007D01*
X46802684Y-78220803D01*
X46799174Y-78197142D01*
X46798000Y-78173250D01*
X46798000Y-77685750D01*
X46799174Y-77661858D01*
X46802684Y-77638197D01*
X46808496Y-77614993D01*
X46816554Y-77592471D01*
X46826782Y-77570847D01*
X46839079Y-77550330D01*
X46853329Y-77531117D01*
X46869393Y-77513393D01*
X46887117Y-77497329D01*
X46906330Y-77483079D01*
X46926847Y-77470782D01*
X46948471Y-77460554D01*
X46970993Y-77452496D01*
X46994197Y-77446684D01*
X47017858Y-77443174D01*
X47041750Y-77442000D01*
X47954250Y-77442000D01*
X47978142Y-77443174D01*
G37*
G36*
X47978142Y-79318174D02*
G01*
X48001803Y-79321684D01*
X48025007Y-79327496D01*
X48047529Y-79335554D01*
X48069153Y-79345782D01*
X48089670Y-79358079D01*
X48108883Y-79372329D01*
X48126607Y-79388393D01*
X48142671Y-79406117D01*
X48156921Y-79425330D01*
X48169218Y-79445847D01*
X48179446Y-79467471D01*
X48187504Y-79489993D01*
X48193316Y-79513197D01*
X48196826Y-79536858D01*
X48198000Y-79560750D01*
X48198000Y-80048250D01*
X48196826Y-80072142D01*
X48193316Y-80095803D01*
X48187504Y-80119007D01*
X48179446Y-80141529D01*
X48169218Y-80163153D01*
X48156921Y-80183670D01*
X48142671Y-80202883D01*
X48126607Y-80220607D01*
X48108883Y-80236671D01*
X48089670Y-80250921D01*
X48069153Y-80263218D01*
X48047529Y-80273446D01*
X48025007Y-80281504D01*
X48001803Y-80287316D01*
X47978142Y-80290826D01*
X47954250Y-80292000D01*
X47041750Y-80292000D01*
X47017858Y-80290826D01*
X46994197Y-80287316D01*
X46970993Y-80281504D01*
X46948471Y-80273446D01*
X46926847Y-80263218D01*
X46906330Y-80250921D01*
X46887117Y-80236671D01*
X46869393Y-80220607D01*
X46853329Y-80202883D01*
X46839079Y-80183670D01*
X46826782Y-80163153D01*
X46816554Y-80141529D01*
X46808496Y-80119007D01*
X46802684Y-80095803D01*
X46799174Y-80072142D01*
X46798000Y-80048250D01*
X46798000Y-79560750D01*
X46799174Y-79536858D01*
X46802684Y-79513197D01*
X46808496Y-79489993D01*
X46816554Y-79467471D01*
X46826782Y-79445847D01*
X46839079Y-79425330D01*
X46853329Y-79406117D01*
X46869393Y-79388393D01*
X46887117Y-79372329D01*
X46906330Y-79358079D01*
X46926847Y-79345782D01*
X46948471Y-79335554D01*
X46970993Y-79327496D01*
X46994197Y-79321684D01*
X47017858Y-79318174D01*
X47041750Y-79317000D01*
X47954250Y-79317000D01*
X47978142Y-79318174D01*
G37*
G36*
X49655642Y-73786674D02*
G01*
X49679303Y-73790184D01*
X49702507Y-73795996D01*
X49725029Y-73804054D01*
X49746653Y-73814282D01*
X49767170Y-73826579D01*
X49786383Y-73840829D01*
X49804107Y-73856893D01*
X49820171Y-73874617D01*
X49834421Y-73893830D01*
X49846718Y-73914347D01*
X49856946Y-73935971D01*
X49865004Y-73958493D01*
X49870816Y-73981697D01*
X49874326Y-74005358D01*
X49875500Y-74029250D01*
X49875500Y-74941750D01*
X49874326Y-74965642D01*
X49870816Y-74989303D01*
X49865004Y-75012507D01*
X49856946Y-75035029D01*
X49846718Y-75056653D01*
X49834421Y-75077170D01*
X49820171Y-75096383D01*
X49804107Y-75114107D01*
X49786383Y-75130171D01*
X49767170Y-75144421D01*
X49746653Y-75156718D01*
X49725029Y-75166946D01*
X49702507Y-75175004D01*
X49679303Y-75180816D01*
X49655642Y-75184326D01*
X49631750Y-75185500D01*
X49144250Y-75185500D01*
X49120358Y-75184326D01*
X49096697Y-75180816D01*
X49073493Y-75175004D01*
X49050971Y-75166946D01*
X49029347Y-75156718D01*
X49008830Y-75144421D01*
X48989617Y-75130171D01*
X48971893Y-75114107D01*
X48955829Y-75096383D01*
X48941579Y-75077170D01*
X48929282Y-75056653D01*
X48919054Y-75035029D01*
X48910996Y-75012507D01*
X48905184Y-74989303D01*
X48901674Y-74965642D01*
X48900500Y-74941750D01*
X48900500Y-74029250D01*
X48901674Y-74005358D01*
X48905184Y-73981697D01*
X48910996Y-73958493D01*
X48919054Y-73935971D01*
X48929282Y-73914347D01*
X48941579Y-73893830D01*
X48955829Y-73874617D01*
X48971893Y-73856893D01*
X48989617Y-73840829D01*
X49008830Y-73826579D01*
X49029347Y-73814282D01*
X49050971Y-73804054D01*
X49073493Y-73795996D01*
X49096697Y-73790184D01*
X49120358Y-73786674D01*
X49144250Y-73785500D01*
X49631750Y-73785500D01*
X49655642Y-73786674D01*
G37*
G36*
X47780642Y-73786674D02*
G01*
X47804303Y-73790184D01*
X47827507Y-73795996D01*
X47850029Y-73804054D01*
X47871653Y-73814282D01*
X47892170Y-73826579D01*
X47911383Y-73840829D01*
X47929107Y-73856893D01*
X47945171Y-73874617D01*
X47959421Y-73893830D01*
X47971718Y-73914347D01*
X47981946Y-73935971D01*
X47990004Y-73958493D01*
X47995816Y-73981697D01*
X47999326Y-74005358D01*
X48000500Y-74029250D01*
X48000500Y-74941750D01*
X47999326Y-74965642D01*
X47995816Y-74989303D01*
X47990004Y-75012507D01*
X47981946Y-75035029D01*
X47971718Y-75056653D01*
X47959421Y-75077170D01*
X47945171Y-75096383D01*
X47929107Y-75114107D01*
X47911383Y-75130171D01*
X47892170Y-75144421D01*
X47871653Y-75156718D01*
X47850029Y-75166946D01*
X47827507Y-75175004D01*
X47804303Y-75180816D01*
X47780642Y-75184326D01*
X47756750Y-75185500D01*
X47269250Y-75185500D01*
X47245358Y-75184326D01*
X47221697Y-75180816D01*
X47198493Y-75175004D01*
X47175971Y-75166946D01*
X47154347Y-75156718D01*
X47133830Y-75144421D01*
X47114617Y-75130171D01*
X47096893Y-75114107D01*
X47080829Y-75096383D01*
X47066579Y-75077170D01*
X47054282Y-75056653D01*
X47044054Y-75035029D01*
X47035996Y-75012507D01*
X47030184Y-74989303D01*
X47026674Y-74965642D01*
X47025500Y-74941750D01*
X47025500Y-74029250D01*
X47026674Y-74005358D01*
X47030184Y-73981697D01*
X47035996Y-73958493D01*
X47044054Y-73935971D01*
X47054282Y-73914347D01*
X47066579Y-73893830D01*
X47080829Y-73874617D01*
X47096893Y-73856893D01*
X47114617Y-73840829D01*
X47133830Y-73826579D01*
X47154347Y-73814282D01*
X47175971Y-73804054D01*
X47198493Y-73795996D01*
X47221697Y-73790184D01*
X47245358Y-73786674D01*
X47269250Y-73785500D01*
X47756750Y-73785500D01*
X47780642Y-73786674D01*
G37*
G36*
X38382642Y-72834174D02*
G01*
X38406303Y-72837684D01*
X38429507Y-72843496D01*
X38452029Y-72851554D01*
X38473653Y-72861782D01*
X38494170Y-72874079D01*
X38513383Y-72888329D01*
X38531107Y-72904393D01*
X38547171Y-72922117D01*
X38561421Y-72941330D01*
X38573718Y-72961847D01*
X38583946Y-72983471D01*
X38592004Y-73005993D01*
X38597816Y-73029197D01*
X38601326Y-73052858D01*
X38602500Y-73076750D01*
X38602500Y-73989250D01*
X38601326Y-74013142D01*
X38597816Y-74036803D01*
X38592004Y-74060007D01*
X38583946Y-74082529D01*
X38573718Y-74104153D01*
X38561421Y-74124670D01*
X38547171Y-74143883D01*
X38531107Y-74161607D01*
X38513383Y-74177671D01*
X38494170Y-74191921D01*
X38473653Y-74204218D01*
X38452029Y-74214446D01*
X38429507Y-74222504D01*
X38406303Y-74228316D01*
X38382642Y-74231826D01*
X38358750Y-74233000D01*
X37871250Y-74233000D01*
X37847358Y-74231826D01*
X37823697Y-74228316D01*
X37800493Y-74222504D01*
X37777971Y-74214446D01*
X37756347Y-74204218D01*
X37735830Y-74191921D01*
X37716617Y-74177671D01*
X37698893Y-74161607D01*
X37682829Y-74143883D01*
X37668579Y-74124670D01*
X37656282Y-74104153D01*
X37646054Y-74082529D01*
X37637996Y-74060007D01*
X37632184Y-74036803D01*
X37628674Y-74013142D01*
X37627500Y-73989250D01*
X37627500Y-73076750D01*
X37628674Y-73052858D01*
X37632184Y-73029197D01*
X37637996Y-73005993D01*
X37646054Y-72983471D01*
X37656282Y-72961847D01*
X37668579Y-72941330D01*
X37682829Y-72922117D01*
X37698893Y-72904393D01*
X37716617Y-72888329D01*
X37735830Y-72874079D01*
X37756347Y-72861782D01*
X37777971Y-72851554D01*
X37800493Y-72843496D01*
X37823697Y-72837684D01*
X37847358Y-72834174D01*
X37871250Y-72833000D01*
X38358750Y-72833000D01*
X38382642Y-72834174D01*
G37*
G36*
X40257642Y-72834174D02*
G01*
X40281303Y-72837684D01*
X40304507Y-72843496D01*
X40327029Y-72851554D01*
X40348653Y-72861782D01*
X40369170Y-72874079D01*
X40388383Y-72888329D01*
X40406107Y-72904393D01*
X40422171Y-72922117D01*
X40436421Y-72941330D01*
X40448718Y-72961847D01*
X40458946Y-72983471D01*
X40467004Y-73005993D01*
X40472816Y-73029197D01*
X40476326Y-73052858D01*
X40477500Y-73076750D01*
X40477500Y-73989250D01*
X40476326Y-74013142D01*
X40472816Y-74036803D01*
X40467004Y-74060007D01*
X40458946Y-74082529D01*
X40448718Y-74104153D01*
X40436421Y-74124670D01*
X40422171Y-74143883D01*
X40406107Y-74161607D01*
X40388383Y-74177671D01*
X40369170Y-74191921D01*
X40348653Y-74204218D01*
X40327029Y-74214446D01*
X40304507Y-74222504D01*
X40281303Y-74228316D01*
X40257642Y-74231826D01*
X40233750Y-74233000D01*
X39746250Y-74233000D01*
X39722358Y-74231826D01*
X39698697Y-74228316D01*
X39675493Y-74222504D01*
X39652971Y-74214446D01*
X39631347Y-74204218D01*
X39610830Y-74191921D01*
X39591617Y-74177671D01*
X39573893Y-74161607D01*
X39557829Y-74143883D01*
X39543579Y-74124670D01*
X39531282Y-74104153D01*
X39521054Y-74082529D01*
X39512996Y-74060007D01*
X39507184Y-74036803D01*
X39503674Y-74013142D01*
X39502500Y-73989250D01*
X39502500Y-73076750D01*
X39503674Y-73052858D01*
X39507184Y-73029197D01*
X39512996Y-73005993D01*
X39521054Y-72983471D01*
X39531282Y-72961847D01*
X39543579Y-72941330D01*
X39557829Y-72922117D01*
X39573893Y-72904393D01*
X39591617Y-72888329D01*
X39610830Y-72874079D01*
X39631347Y-72861782D01*
X39652971Y-72851554D01*
X39675493Y-72843496D01*
X39698697Y-72837684D01*
X39722358Y-72834174D01*
X39746250Y-72833000D01*
X40233750Y-72833000D01*
X40257642Y-72834174D01*
G37*
G36*
X71600142Y-46836174D02*
G01*
X71623803Y-46839684D01*
X71647007Y-46845496D01*
X71669529Y-46853554D01*
X71691153Y-46863782D01*
X71711670Y-46876079D01*
X71730883Y-46890329D01*
X71748607Y-46906393D01*
X71764671Y-46924117D01*
X71778921Y-46943330D01*
X71791218Y-46963847D01*
X71801446Y-46985471D01*
X71809504Y-47007993D01*
X71815316Y-47031197D01*
X71818826Y-47054858D01*
X71820000Y-47078750D01*
X71820000Y-47566250D01*
X71818826Y-47590142D01*
X71815316Y-47613803D01*
X71809504Y-47637007D01*
X71801446Y-47659529D01*
X71791218Y-47681153D01*
X71778921Y-47701670D01*
X71764671Y-47720883D01*
X71748607Y-47738607D01*
X71730883Y-47754671D01*
X71711670Y-47768921D01*
X71691153Y-47781218D01*
X71669529Y-47791446D01*
X71647007Y-47799504D01*
X71623803Y-47805316D01*
X71600142Y-47808826D01*
X71576250Y-47810000D01*
X70663750Y-47810000D01*
X70639858Y-47808826D01*
X70616197Y-47805316D01*
X70592993Y-47799504D01*
X70570471Y-47791446D01*
X70548847Y-47781218D01*
X70528330Y-47768921D01*
X70509117Y-47754671D01*
X70491393Y-47738607D01*
X70475329Y-47720883D01*
X70461079Y-47701670D01*
X70448782Y-47681153D01*
X70438554Y-47659529D01*
X70430496Y-47637007D01*
X70424684Y-47613803D01*
X70421174Y-47590142D01*
X70420000Y-47566250D01*
X70420000Y-47078750D01*
X70421174Y-47054858D01*
X70424684Y-47031197D01*
X70430496Y-47007993D01*
X70438554Y-46985471D01*
X70448782Y-46963847D01*
X70461079Y-46943330D01*
X70475329Y-46924117D01*
X70491393Y-46906393D01*
X70509117Y-46890329D01*
X70528330Y-46876079D01*
X70548847Y-46863782D01*
X70570471Y-46853554D01*
X70592993Y-46845496D01*
X70616197Y-46839684D01*
X70639858Y-46836174D01*
X70663750Y-46835000D01*
X71576250Y-46835000D01*
X71600142Y-46836174D01*
G37*
G36*
X71600142Y-48711174D02*
G01*
X71623803Y-48714684D01*
X71647007Y-48720496D01*
X71669529Y-48728554D01*
X71691153Y-48738782D01*
X71711670Y-48751079D01*
X71730883Y-48765329D01*
X71748607Y-48781393D01*
X71764671Y-48799117D01*
X71778921Y-48818330D01*
X71791218Y-48838847D01*
X71801446Y-48860471D01*
X71809504Y-48882993D01*
X71815316Y-48906197D01*
X71818826Y-48929858D01*
X71820000Y-48953750D01*
X71820000Y-49441250D01*
X71818826Y-49465142D01*
X71815316Y-49488803D01*
X71809504Y-49512007D01*
X71801446Y-49534529D01*
X71791218Y-49556153D01*
X71778921Y-49576670D01*
X71764671Y-49595883D01*
X71748607Y-49613607D01*
X71730883Y-49629671D01*
X71711670Y-49643921D01*
X71691153Y-49656218D01*
X71669529Y-49666446D01*
X71647007Y-49674504D01*
X71623803Y-49680316D01*
X71600142Y-49683826D01*
X71576250Y-49685000D01*
X70663750Y-49685000D01*
X70639858Y-49683826D01*
X70616197Y-49680316D01*
X70592993Y-49674504D01*
X70570471Y-49666446D01*
X70548847Y-49656218D01*
X70528330Y-49643921D01*
X70509117Y-49629671D01*
X70491393Y-49613607D01*
X70475329Y-49595883D01*
X70461079Y-49576670D01*
X70448782Y-49556153D01*
X70438554Y-49534529D01*
X70430496Y-49512007D01*
X70424684Y-49488803D01*
X70421174Y-49465142D01*
X70420000Y-49441250D01*
X70420000Y-48953750D01*
X70421174Y-48929858D01*
X70424684Y-48906197D01*
X70430496Y-48882993D01*
X70438554Y-48860471D01*
X70448782Y-48838847D01*
X70461079Y-48818330D01*
X70475329Y-48799117D01*
X70491393Y-48781393D01*
X70509117Y-48765329D01*
X70528330Y-48751079D01*
X70548847Y-48738782D01*
X70570471Y-48728554D01*
X70592993Y-48720496D01*
X70616197Y-48714684D01*
X70639858Y-48711174D01*
X70663750Y-48710000D01*
X71576250Y-48710000D01*
X71600142Y-48711174D01*
G37*
G36*
X27841642Y-59689674D02*
G01*
X27865303Y-59693184D01*
X27888507Y-59698996D01*
X27911029Y-59707054D01*
X27932653Y-59717282D01*
X27953170Y-59729579D01*
X27972383Y-59743829D01*
X27990107Y-59759893D01*
X28006171Y-59777617D01*
X28020421Y-59796830D01*
X28032718Y-59817347D01*
X28042946Y-59838971D01*
X28051004Y-59861493D01*
X28056816Y-59884697D01*
X28060326Y-59908358D01*
X28061500Y-59932250D01*
X28061500Y-60844750D01*
X28060326Y-60868642D01*
X28056816Y-60892303D01*
X28051004Y-60915507D01*
X28042946Y-60938029D01*
X28032718Y-60959653D01*
X28020421Y-60980170D01*
X28006171Y-60999383D01*
X27990107Y-61017107D01*
X27972383Y-61033171D01*
X27953170Y-61047421D01*
X27932653Y-61059718D01*
X27911029Y-61069946D01*
X27888507Y-61078004D01*
X27865303Y-61083816D01*
X27841642Y-61087326D01*
X27817750Y-61088500D01*
X27330250Y-61088500D01*
X27306358Y-61087326D01*
X27282697Y-61083816D01*
X27259493Y-61078004D01*
X27236971Y-61069946D01*
X27215347Y-61059718D01*
X27194830Y-61047421D01*
X27175617Y-61033171D01*
X27157893Y-61017107D01*
X27141829Y-60999383D01*
X27127579Y-60980170D01*
X27115282Y-60959653D01*
X27105054Y-60938029D01*
X27096996Y-60915507D01*
X27091184Y-60892303D01*
X27087674Y-60868642D01*
X27086500Y-60844750D01*
X27086500Y-59932250D01*
X27087674Y-59908358D01*
X27091184Y-59884697D01*
X27096996Y-59861493D01*
X27105054Y-59838971D01*
X27115282Y-59817347D01*
X27127579Y-59796830D01*
X27141829Y-59777617D01*
X27157893Y-59759893D01*
X27175617Y-59743829D01*
X27194830Y-59729579D01*
X27215347Y-59717282D01*
X27236971Y-59707054D01*
X27259493Y-59698996D01*
X27282697Y-59693184D01*
X27306358Y-59689674D01*
X27330250Y-59688500D01*
X27817750Y-59688500D01*
X27841642Y-59689674D01*
G37*
G36*
X29716642Y-59689674D02*
G01*
X29740303Y-59693184D01*
X29763507Y-59698996D01*
X29786029Y-59707054D01*
X29807653Y-59717282D01*
X29828170Y-59729579D01*
X29847383Y-59743829D01*
X29865107Y-59759893D01*
X29881171Y-59777617D01*
X29895421Y-59796830D01*
X29907718Y-59817347D01*
X29917946Y-59838971D01*
X29926004Y-59861493D01*
X29931816Y-59884697D01*
X29935326Y-59908358D01*
X29936500Y-59932250D01*
X29936500Y-60844750D01*
X29935326Y-60868642D01*
X29931816Y-60892303D01*
X29926004Y-60915507D01*
X29917946Y-60938029D01*
X29907718Y-60959653D01*
X29895421Y-60980170D01*
X29881171Y-60999383D01*
X29865107Y-61017107D01*
X29847383Y-61033171D01*
X29828170Y-61047421D01*
X29807653Y-61059718D01*
X29786029Y-61069946D01*
X29763507Y-61078004D01*
X29740303Y-61083816D01*
X29716642Y-61087326D01*
X29692750Y-61088500D01*
X29205250Y-61088500D01*
X29181358Y-61087326D01*
X29157697Y-61083816D01*
X29134493Y-61078004D01*
X29111971Y-61069946D01*
X29090347Y-61059718D01*
X29069830Y-61047421D01*
X29050617Y-61033171D01*
X29032893Y-61017107D01*
X29016829Y-60999383D01*
X29002579Y-60980170D01*
X28990282Y-60959653D01*
X28980054Y-60938029D01*
X28971996Y-60915507D01*
X28966184Y-60892303D01*
X28962674Y-60868642D01*
X28961500Y-60844750D01*
X28961500Y-59932250D01*
X28962674Y-59908358D01*
X28966184Y-59884697D01*
X28971996Y-59861493D01*
X28980054Y-59838971D01*
X28990282Y-59817347D01*
X29002579Y-59796830D01*
X29016829Y-59777617D01*
X29032893Y-59759893D01*
X29050617Y-59743829D01*
X29069830Y-59729579D01*
X29090347Y-59717282D01*
X29111971Y-59707054D01*
X29134493Y-59698996D01*
X29157697Y-59693184D01*
X29181358Y-59689674D01*
X29205250Y-59688500D01*
X29692750Y-59688500D01*
X29716642Y-59689674D01*
G37*
G36*
X23030642Y-54673174D02*
G01*
X23054303Y-54676684D01*
X23077507Y-54682496D01*
X23100029Y-54690554D01*
X23121653Y-54700782D01*
X23142170Y-54713079D01*
X23161383Y-54727329D01*
X23179107Y-54743393D01*
X23195171Y-54761117D01*
X23209421Y-54780330D01*
X23221718Y-54800847D01*
X23231946Y-54822471D01*
X23240004Y-54844993D01*
X23245816Y-54868197D01*
X23249326Y-54891858D01*
X23250500Y-54915750D01*
X23250500Y-55828250D01*
X23249326Y-55852142D01*
X23245816Y-55875803D01*
X23240004Y-55899007D01*
X23231946Y-55921529D01*
X23221718Y-55943153D01*
X23209421Y-55963670D01*
X23195171Y-55982883D01*
X23179107Y-56000607D01*
X23161383Y-56016671D01*
X23142170Y-56030921D01*
X23121653Y-56043218D01*
X23100029Y-56053446D01*
X23077507Y-56061504D01*
X23054303Y-56067316D01*
X23030642Y-56070826D01*
X23006750Y-56072000D01*
X22519250Y-56072000D01*
X22495358Y-56070826D01*
X22471697Y-56067316D01*
X22448493Y-56061504D01*
X22425971Y-56053446D01*
X22404347Y-56043218D01*
X22383830Y-56030921D01*
X22364617Y-56016671D01*
X22346893Y-56000607D01*
X22330829Y-55982883D01*
X22316579Y-55963670D01*
X22304282Y-55943153D01*
X22294054Y-55921529D01*
X22285996Y-55899007D01*
X22280184Y-55875803D01*
X22276674Y-55852142D01*
X22275500Y-55828250D01*
X22275500Y-54915750D01*
X22276674Y-54891858D01*
X22280184Y-54868197D01*
X22285996Y-54844993D01*
X22294054Y-54822471D01*
X22304282Y-54800847D01*
X22316579Y-54780330D01*
X22330829Y-54761117D01*
X22346893Y-54743393D01*
X22364617Y-54727329D01*
X22383830Y-54713079D01*
X22404347Y-54700782D01*
X22425971Y-54690554D01*
X22448493Y-54682496D01*
X22471697Y-54676684D01*
X22495358Y-54673174D01*
X22519250Y-54672000D01*
X23006750Y-54672000D01*
X23030642Y-54673174D01*
G37*
G36*
X24905642Y-54673174D02*
G01*
X24929303Y-54676684D01*
X24952507Y-54682496D01*
X24975029Y-54690554D01*
X24996653Y-54700782D01*
X25017170Y-54713079D01*
X25036383Y-54727329D01*
X25054107Y-54743393D01*
X25070171Y-54761117D01*
X25084421Y-54780330D01*
X25096718Y-54800847D01*
X25106946Y-54822471D01*
X25115004Y-54844993D01*
X25120816Y-54868197D01*
X25124326Y-54891858D01*
X25125500Y-54915750D01*
X25125500Y-55828250D01*
X25124326Y-55852142D01*
X25120816Y-55875803D01*
X25115004Y-55899007D01*
X25106946Y-55921529D01*
X25096718Y-55943153D01*
X25084421Y-55963670D01*
X25070171Y-55982883D01*
X25054107Y-56000607D01*
X25036383Y-56016671D01*
X25017170Y-56030921D01*
X24996653Y-56043218D01*
X24975029Y-56053446D01*
X24952507Y-56061504D01*
X24929303Y-56067316D01*
X24905642Y-56070826D01*
X24881750Y-56072000D01*
X24394250Y-56072000D01*
X24370358Y-56070826D01*
X24346697Y-56067316D01*
X24323493Y-56061504D01*
X24300971Y-56053446D01*
X24279347Y-56043218D01*
X24258830Y-56030921D01*
X24239617Y-56016671D01*
X24221893Y-56000607D01*
X24205829Y-55982883D01*
X24191579Y-55963670D01*
X24179282Y-55943153D01*
X24169054Y-55921529D01*
X24160996Y-55899007D01*
X24155184Y-55875803D01*
X24151674Y-55852142D01*
X24150500Y-55828250D01*
X24150500Y-54915750D01*
X24151674Y-54891858D01*
X24155184Y-54868197D01*
X24160996Y-54844993D01*
X24169054Y-54822471D01*
X24179282Y-54800847D01*
X24191579Y-54780330D01*
X24205829Y-54761117D01*
X24221893Y-54743393D01*
X24239617Y-54727329D01*
X24258830Y-54713079D01*
X24279347Y-54700782D01*
X24300971Y-54690554D01*
X24323493Y-54682496D01*
X24346697Y-54676684D01*
X24370358Y-54673174D01*
X24394250Y-54672000D01*
X24881750Y-54672000D01*
X24905642Y-54673174D01*
G37*
G36*
X56106142Y-42645174D02*
G01*
X56129803Y-42648684D01*
X56153007Y-42654496D01*
X56175529Y-42662554D01*
X56197153Y-42672782D01*
X56217670Y-42685079D01*
X56236883Y-42699329D01*
X56254607Y-42715393D01*
X56270671Y-42733117D01*
X56284921Y-42752330D01*
X56297218Y-42772847D01*
X56307446Y-42794471D01*
X56315504Y-42816993D01*
X56321316Y-42840197D01*
X56324826Y-42863858D01*
X56326000Y-42887750D01*
X56326000Y-43375250D01*
X56324826Y-43399142D01*
X56321316Y-43422803D01*
X56315504Y-43446007D01*
X56307446Y-43468529D01*
X56297218Y-43490153D01*
X56284921Y-43510670D01*
X56270671Y-43529883D01*
X56254607Y-43547607D01*
X56236883Y-43563671D01*
X56217670Y-43577921D01*
X56197153Y-43590218D01*
X56175529Y-43600446D01*
X56153007Y-43608504D01*
X56129803Y-43614316D01*
X56106142Y-43617826D01*
X56082250Y-43619000D01*
X55169750Y-43619000D01*
X55145858Y-43617826D01*
X55122197Y-43614316D01*
X55098993Y-43608504D01*
X55076471Y-43600446D01*
X55054847Y-43590218D01*
X55034330Y-43577921D01*
X55015117Y-43563671D01*
X54997393Y-43547607D01*
X54981329Y-43529883D01*
X54967079Y-43510670D01*
X54954782Y-43490153D01*
X54944554Y-43468529D01*
X54936496Y-43446007D01*
X54930684Y-43422803D01*
X54927174Y-43399142D01*
X54926000Y-43375250D01*
X54926000Y-42887750D01*
X54927174Y-42863858D01*
X54930684Y-42840197D01*
X54936496Y-42816993D01*
X54944554Y-42794471D01*
X54954782Y-42772847D01*
X54967079Y-42752330D01*
X54981329Y-42733117D01*
X54997393Y-42715393D01*
X55015117Y-42699329D01*
X55034330Y-42685079D01*
X55054847Y-42672782D01*
X55076471Y-42662554D01*
X55098993Y-42654496D01*
X55122197Y-42648684D01*
X55145858Y-42645174D01*
X55169750Y-42644000D01*
X56082250Y-42644000D01*
X56106142Y-42645174D01*
G37*
G36*
X56106142Y-44520174D02*
G01*
X56129803Y-44523684D01*
X56153007Y-44529496D01*
X56175529Y-44537554D01*
X56197153Y-44547782D01*
X56217670Y-44560079D01*
X56236883Y-44574329D01*
X56254607Y-44590393D01*
X56270671Y-44608117D01*
X56284921Y-44627330D01*
X56297218Y-44647847D01*
X56307446Y-44669471D01*
X56315504Y-44691993D01*
X56321316Y-44715197D01*
X56324826Y-44738858D01*
X56326000Y-44762750D01*
X56326000Y-45250250D01*
X56324826Y-45274142D01*
X56321316Y-45297803D01*
X56315504Y-45321007D01*
X56307446Y-45343529D01*
X56297218Y-45365153D01*
X56284921Y-45385670D01*
X56270671Y-45404883D01*
X56254607Y-45422607D01*
X56236883Y-45438671D01*
X56217670Y-45452921D01*
X56197153Y-45465218D01*
X56175529Y-45475446D01*
X56153007Y-45483504D01*
X56129803Y-45489316D01*
X56106142Y-45492826D01*
X56082250Y-45494000D01*
X55169750Y-45494000D01*
X55145858Y-45492826D01*
X55122197Y-45489316D01*
X55098993Y-45483504D01*
X55076471Y-45475446D01*
X55054847Y-45465218D01*
X55034330Y-45452921D01*
X55015117Y-45438671D01*
X54997393Y-45422607D01*
X54981329Y-45404883D01*
X54967079Y-45385670D01*
X54954782Y-45365153D01*
X54944554Y-45343529D01*
X54936496Y-45321007D01*
X54930684Y-45297803D01*
X54927174Y-45274142D01*
X54926000Y-45250250D01*
X54926000Y-44762750D01*
X54927174Y-44738858D01*
X54930684Y-44715197D01*
X54936496Y-44691993D01*
X54944554Y-44669471D01*
X54954782Y-44647847D01*
X54967079Y-44627330D01*
X54981329Y-44608117D01*
X54997393Y-44590393D01*
X55015117Y-44574329D01*
X55034330Y-44560079D01*
X55054847Y-44547782D01*
X55076471Y-44537554D01*
X55098993Y-44529496D01*
X55122197Y-44523684D01*
X55145858Y-44520174D01*
X55169750Y-44519000D01*
X56082250Y-44519000D01*
X56106142Y-44520174D01*
G37*
G36*
X53058142Y-44520174D02*
G01*
X53081803Y-44523684D01*
X53105007Y-44529496D01*
X53127529Y-44537554D01*
X53149153Y-44547782D01*
X53169670Y-44560079D01*
X53188883Y-44574329D01*
X53206607Y-44590393D01*
X53222671Y-44608117D01*
X53236921Y-44627330D01*
X53249218Y-44647847D01*
X53259446Y-44669471D01*
X53267504Y-44691993D01*
X53273316Y-44715197D01*
X53276826Y-44738858D01*
X53278000Y-44762750D01*
X53278000Y-45250250D01*
X53276826Y-45274142D01*
X53273316Y-45297803D01*
X53267504Y-45321007D01*
X53259446Y-45343529D01*
X53249218Y-45365153D01*
X53236921Y-45385670D01*
X53222671Y-45404883D01*
X53206607Y-45422607D01*
X53188883Y-45438671D01*
X53169670Y-45452921D01*
X53149153Y-45465218D01*
X53127529Y-45475446D01*
X53105007Y-45483504D01*
X53081803Y-45489316D01*
X53058142Y-45492826D01*
X53034250Y-45494000D01*
X52121750Y-45494000D01*
X52097858Y-45492826D01*
X52074197Y-45489316D01*
X52050993Y-45483504D01*
X52028471Y-45475446D01*
X52006847Y-45465218D01*
X51986330Y-45452921D01*
X51967117Y-45438671D01*
X51949393Y-45422607D01*
X51933329Y-45404883D01*
X51919079Y-45385670D01*
X51906782Y-45365153D01*
X51896554Y-45343529D01*
X51888496Y-45321007D01*
X51882684Y-45297803D01*
X51879174Y-45274142D01*
X51878000Y-45250250D01*
X51878000Y-44762750D01*
X51879174Y-44738858D01*
X51882684Y-44715197D01*
X51888496Y-44691993D01*
X51896554Y-44669471D01*
X51906782Y-44647847D01*
X51919079Y-44627330D01*
X51933329Y-44608117D01*
X51949393Y-44590393D01*
X51967117Y-44574329D01*
X51986330Y-44560079D01*
X52006847Y-44547782D01*
X52028471Y-44537554D01*
X52050993Y-44529496D01*
X52074197Y-44523684D01*
X52097858Y-44520174D01*
X52121750Y-44519000D01*
X53034250Y-44519000D01*
X53058142Y-44520174D01*
G37*
G36*
X53058142Y-42645174D02*
G01*
X53081803Y-42648684D01*
X53105007Y-42654496D01*
X53127529Y-42662554D01*
X53149153Y-42672782D01*
X53169670Y-42685079D01*
X53188883Y-42699329D01*
X53206607Y-42715393D01*
X53222671Y-42733117D01*
X53236921Y-42752330D01*
X53249218Y-42772847D01*
X53259446Y-42794471D01*
X53267504Y-42816993D01*
X53273316Y-42840197D01*
X53276826Y-42863858D01*
X53278000Y-42887750D01*
X53278000Y-43375250D01*
X53276826Y-43399142D01*
X53273316Y-43422803D01*
X53267504Y-43446007D01*
X53259446Y-43468529D01*
X53249218Y-43490153D01*
X53236921Y-43510670D01*
X53222671Y-43529883D01*
X53206607Y-43547607D01*
X53188883Y-43563671D01*
X53169670Y-43577921D01*
X53149153Y-43590218D01*
X53127529Y-43600446D01*
X53105007Y-43608504D01*
X53081803Y-43614316D01*
X53058142Y-43617826D01*
X53034250Y-43619000D01*
X52121750Y-43619000D01*
X52097858Y-43617826D01*
X52074197Y-43614316D01*
X52050993Y-43608504D01*
X52028471Y-43600446D01*
X52006847Y-43590218D01*
X51986330Y-43577921D01*
X51967117Y-43563671D01*
X51949393Y-43547607D01*
X51933329Y-43529883D01*
X51919079Y-43510670D01*
X51906782Y-43490153D01*
X51896554Y-43468529D01*
X51888496Y-43446007D01*
X51882684Y-43422803D01*
X51879174Y-43399142D01*
X51878000Y-43375250D01*
X51878000Y-42887750D01*
X51879174Y-42863858D01*
X51882684Y-42840197D01*
X51888496Y-42816993D01*
X51896554Y-42794471D01*
X51906782Y-42772847D01*
X51919079Y-42752330D01*
X51933329Y-42733117D01*
X51949393Y-42715393D01*
X51967117Y-42699329D01*
X51986330Y-42685079D01*
X52006847Y-42672782D01*
X52028471Y-42662554D01*
X52050993Y-42654496D01*
X52074197Y-42648684D01*
X52097858Y-42645174D01*
X52121750Y-42644000D01*
X53034250Y-42644000D01*
X53058142Y-42645174D01*
G37*
G36*
X50010142Y-42645174D02*
G01*
X50033803Y-42648684D01*
X50057007Y-42654496D01*
X50079529Y-42662554D01*
X50101153Y-42672782D01*
X50121670Y-42685079D01*
X50140883Y-42699329D01*
X50158607Y-42715393D01*
X50174671Y-42733117D01*
X50188921Y-42752330D01*
X50201218Y-42772847D01*
X50211446Y-42794471D01*
X50219504Y-42816993D01*
X50225316Y-42840197D01*
X50228826Y-42863858D01*
X50230000Y-42887750D01*
X50230000Y-43375250D01*
X50228826Y-43399142D01*
X50225316Y-43422803D01*
X50219504Y-43446007D01*
X50211446Y-43468529D01*
X50201218Y-43490153D01*
X50188921Y-43510670D01*
X50174671Y-43529883D01*
X50158607Y-43547607D01*
X50140883Y-43563671D01*
X50121670Y-43577921D01*
X50101153Y-43590218D01*
X50079529Y-43600446D01*
X50057007Y-43608504D01*
X50033803Y-43614316D01*
X50010142Y-43617826D01*
X49986250Y-43619000D01*
X49073750Y-43619000D01*
X49049858Y-43617826D01*
X49026197Y-43614316D01*
X49002993Y-43608504D01*
X48980471Y-43600446D01*
X48958847Y-43590218D01*
X48938330Y-43577921D01*
X48919117Y-43563671D01*
X48901393Y-43547607D01*
X48885329Y-43529883D01*
X48871079Y-43510670D01*
X48858782Y-43490153D01*
X48848554Y-43468529D01*
X48840496Y-43446007D01*
X48834684Y-43422803D01*
X48831174Y-43399142D01*
X48830000Y-43375250D01*
X48830000Y-42887750D01*
X48831174Y-42863858D01*
X48834684Y-42840197D01*
X48840496Y-42816993D01*
X48848554Y-42794471D01*
X48858782Y-42772847D01*
X48871079Y-42752330D01*
X48885329Y-42733117D01*
X48901393Y-42715393D01*
X48919117Y-42699329D01*
X48938330Y-42685079D01*
X48958847Y-42672782D01*
X48980471Y-42662554D01*
X49002993Y-42654496D01*
X49026197Y-42648684D01*
X49049858Y-42645174D01*
X49073750Y-42644000D01*
X49986250Y-42644000D01*
X50010142Y-42645174D01*
G37*
G36*
X50010142Y-44520174D02*
G01*
X50033803Y-44523684D01*
X50057007Y-44529496D01*
X50079529Y-44537554D01*
X50101153Y-44547782D01*
X50121670Y-44560079D01*
X50140883Y-44574329D01*
X50158607Y-44590393D01*
X50174671Y-44608117D01*
X50188921Y-44627330D01*
X50201218Y-44647847D01*
X50211446Y-44669471D01*
X50219504Y-44691993D01*
X50225316Y-44715197D01*
X50228826Y-44738858D01*
X50230000Y-44762750D01*
X50230000Y-45250250D01*
X50228826Y-45274142D01*
X50225316Y-45297803D01*
X50219504Y-45321007D01*
X50211446Y-45343529D01*
X50201218Y-45365153D01*
X50188921Y-45385670D01*
X50174671Y-45404883D01*
X50158607Y-45422607D01*
X50140883Y-45438671D01*
X50121670Y-45452921D01*
X50101153Y-45465218D01*
X50079529Y-45475446D01*
X50057007Y-45483504D01*
X50033803Y-45489316D01*
X50010142Y-45492826D01*
X49986250Y-45494000D01*
X49073750Y-45494000D01*
X49049858Y-45492826D01*
X49026197Y-45489316D01*
X49002993Y-45483504D01*
X48980471Y-45475446D01*
X48958847Y-45465218D01*
X48938330Y-45452921D01*
X48919117Y-45438671D01*
X48901393Y-45422607D01*
X48885329Y-45404883D01*
X48871079Y-45385670D01*
X48858782Y-45365153D01*
X48848554Y-45343529D01*
X48840496Y-45321007D01*
X48834684Y-45297803D01*
X48831174Y-45274142D01*
X48830000Y-45250250D01*
X48830000Y-44762750D01*
X48831174Y-44738858D01*
X48834684Y-44715197D01*
X48840496Y-44691993D01*
X48848554Y-44669471D01*
X48858782Y-44647847D01*
X48871079Y-44627330D01*
X48885329Y-44608117D01*
X48901393Y-44590393D01*
X48919117Y-44574329D01*
X48938330Y-44560079D01*
X48958847Y-44547782D01*
X48980471Y-44537554D01*
X49002993Y-44529496D01*
X49026197Y-44523684D01*
X49049858Y-44520174D01*
X49073750Y-44519000D01*
X49986250Y-44519000D01*
X50010142Y-44520174D01*
G37*
G36*
X46708142Y-44520174D02*
G01*
X46731803Y-44523684D01*
X46755007Y-44529496D01*
X46777529Y-44537554D01*
X46799153Y-44547782D01*
X46819670Y-44560079D01*
X46838883Y-44574329D01*
X46856607Y-44590393D01*
X46872671Y-44608117D01*
X46886921Y-44627330D01*
X46899218Y-44647847D01*
X46909446Y-44669471D01*
X46917504Y-44691993D01*
X46923316Y-44715197D01*
X46926826Y-44738858D01*
X46928000Y-44762750D01*
X46928000Y-45250250D01*
X46926826Y-45274142D01*
X46923316Y-45297803D01*
X46917504Y-45321007D01*
X46909446Y-45343529D01*
X46899218Y-45365153D01*
X46886921Y-45385670D01*
X46872671Y-45404883D01*
X46856607Y-45422607D01*
X46838883Y-45438671D01*
X46819670Y-45452921D01*
X46799153Y-45465218D01*
X46777529Y-45475446D01*
X46755007Y-45483504D01*
X46731803Y-45489316D01*
X46708142Y-45492826D01*
X46684250Y-45494000D01*
X45771750Y-45494000D01*
X45747858Y-45492826D01*
X45724197Y-45489316D01*
X45700993Y-45483504D01*
X45678471Y-45475446D01*
X45656847Y-45465218D01*
X45636330Y-45452921D01*
X45617117Y-45438671D01*
X45599393Y-45422607D01*
X45583329Y-45404883D01*
X45569079Y-45385670D01*
X45556782Y-45365153D01*
X45546554Y-45343529D01*
X45538496Y-45321007D01*
X45532684Y-45297803D01*
X45529174Y-45274142D01*
X45528000Y-45250250D01*
X45528000Y-44762750D01*
X45529174Y-44738858D01*
X45532684Y-44715197D01*
X45538496Y-44691993D01*
X45546554Y-44669471D01*
X45556782Y-44647847D01*
X45569079Y-44627330D01*
X45583329Y-44608117D01*
X45599393Y-44590393D01*
X45617117Y-44574329D01*
X45636330Y-44560079D01*
X45656847Y-44547782D01*
X45678471Y-44537554D01*
X45700993Y-44529496D01*
X45724197Y-44523684D01*
X45747858Y-44520174D01*
X45771750Y-44519000D01*
X46684250Y-44519000D01*
X46708142Y-44520174D01*
G37*
G36*
X46708142Y-42645174D02*
G01*
X46731803Y-42648684D01*
X46755007Y-42654496D01*
X46777529Y-42662554D01*
X46799153Y-42672782D01*
X46819670Y-42685079D01*
X46838883Y-42699329D01*
X46856607Y-42715393D01*
X46872671Y-42733117D01*
X46886921Y-42752330D01*
X46899218Y-42772847D01*
X46909446Y-42794471D01*
X46917504Y-42816993D01*
X46923316Y-42840197D01*
X46926826Y-42863858D01*
X46928000Y-42887750D01*
X46928000Y-43375250D01*
X46926826Y-43399142D01*
X46923316Y-43422803D01*
X46917504Y-43446007D01*
X46909446Y-43468529D01*
X46899218Y-43490153D01*
X46886921Y-43510670D01*
X46872671Y-43529883D01*
X46856607Y-43547607D01*
X46838883Y-43563671D01*
X46819670Y-43577921D01*
X46799153Y-43590218D01*
X46777529Y-43600446D01*
X46755007Y-43608504D01*
X46731803Y-43614316D01*
X46708142Y-43617826D01*
X46684250Y-43619000D01*
X45771750Y-43619000D01*
X45747858Y-43617826D01*
X45724197Y-43614316D01*
X45700993Y-43608504D01*
X45678471Y-43600446D01*
X45656847Y-43590218D01*
X45636330Y-43577921D01*
X45617117Y-43563671D01*
X45599393Y-43547607D01*
X45583329Y-43529883D01*
X45569079Y-43510670D01*
X45556782Y-43490153D01*
X45546554Y-43468529D01*
X45538496Y-43446007D01*
X45532684Y-43422803D01*
X45529174Y-43399142D01*
X45528000Y-43375250D01*
X45528000Y-42887750D01*
X45529174Y-42863858D01*
X45532684Y-42840197D01*
X45538496Y-42816993D01*
X45546554Y-42794471D01*
X45556782Y-42772847D01*
X45569079Y-42752330D01*
X45583329Y-42733117D01*
X45599393Y-42715393D01*
X45617117Y-42699329D01*
X45636330Y-42685079D01*
X45656847Y-42672782D01*
X45678471Y-42662554D01*
X45700993Y-42654496D01*
X45724197Y-42648684D01*
X45747858Y-42645174D01*
X45771750Y-42644000D01*
X46684250Y-42644000D01*
X46708142Y-42645174D01*
G37*
G36*
X43152142Y-42645174D02*
G01*
X43175803Y-42648684D01*
X43199007Y-42654496D01*
X43221529Y-42662554D01*
X43243153Y-42672782D01*
X43263670Y-42685079D01*
X43282883Y-42699329D01*
X43300607Y-42715393D01*
X43316671Y-42733117D01*
X43330921Y-42752330D01*
X43343218Y-42772847D01*
X43353446Y-42794471D01*
X43361504Y-42816993D01*
X43367316Y-42840197D01*
X43370826Y-42863858D01*
X43372000Y-42887750D01*
X43372000Y-43375250D01*
X43370826Y-43399142D01*
X43367316Y-43422803D01*
X43361504Y-43446007D01*
X43353446Y-43468529D01*
X43343218Y-43490153D01*
X43330921Y-43510670D01*
X43316671Y-43529883D01*
X43300607Y-43547607D01*
X43282883Y-43563671D01*
X43263670Y-43577921D01*
X43243153Y-43590218D01*
X43221529Y-43600446D01*
X43199007Y-43608504D01*
X43175803Y-43614316D01*
X43152142Y-43617826D01*
X43128250Y-43619000D01*
X42215750Y-43619000D01*
X42191858Y-43617826D01*
X42168197Y-43614316D01*
X42144993Y-43608504D01*
X42122471Y-43600446D01*
X42100847Y-43590218D01*
X42080330Y-43577921D01*
X42061117Y-43563671D01*
X42043393Y-43547607D01*
X42027329Y-43529883D01*
X42013079Y-43510670D01*
X42000782Y-43490153D01*
X41990554Y-43468529D01*
X41982496Y-43446007D01*
X41976684Y-43422803D01*
X41973174Y-43399142D01*
X41972000Y-43375250D01*
X41972000Y-42887750D01*
X41973174Y-42863858D01*
X41976684Y-42840197D01*
X41982496Y-42816993D01*
X41990554Y-42794471D01*
X42000782Y-42772847D01*
X42013079Y-42752330D01*
X42027329Y-42733117D01*
X42043393Y-42715393D01*
X42061117Y-42699329D01*
X42080330Y-42685079D01*
X42100847Y-42672782D01*
X42122471Y-42662554D01*
X42144993Y-42654496D01*
X42168197Y-42648684D01*
X42191858Y-42645174D01*
X42215750Y-42644000D01*
X43128250Y-42644000D01*
X43152142Y-42645174D01*
G37*
G36*
X43152142Y-44520174D02*
G01*
X43175803Y-44523684D01*
X43199007Y-44529496D01*
X43221529Y-44537554D01*
X43243153Y-44547782D01*
X43263670Y-44560079D01*
X43282883Y-44574329D01*
X43300607Y-44590393D01*
X43316671Y-44608117D01*
X43330921Y-44627330D01*
X43343218Y-44647847D01*
X43353446Y-44669471D01*
X43361504Y-44691993D01*
X43367316Y-44715197D01*
X43370826Y-44738858D01*
X43372000Y-44762750D01*
X43372000Y-45250250D01*
X43370826Y-45274142D01*
X43367316Y-45297803D01*
X43361504Y-45321007D01*
X43353446Y-45343529D01*
X43343218Y-45365153D01*
X43330921Y-45385670D01*
X43316671Y-45404883D01*
X43300607Y-45422607D01*
X43282883Y-45438671D01*
X43263670Y-45452921D01*
X43243153Y-45465218D01*
X43221529Y-45475446D01*
X43199007Y-45483504D01*
X43175803Y-45489316D01*
X43152142Y-45492826D01*
X43128250Y-45494000D01*
X42215750Y-45494000D01*
X42191858Y-45492826D01*
X42168197Y-45489316D01*
X42144993Y-45483504D01*
X42122471Y-45475446D01*
X42100847Y-45465218D01*
X42080330Y-45452921D01*
X42061117Y-45438671D01*
X42043393Y-45422607D01*
X42027329Y-45404883D01*
X42013079Y-45385670D01*
X42000782Y-45365153D01*
X41990554Y-45343529D01*
X41982496Y-45321007D01*
X41976684Y-45297803D01*
X41973174Y-45274142D01*
X41972000Y-45250250D01*
X41972000Y-44762750D01*
X41973174Y-44738858D01*
X41976684Y-44715197D01*
X41982496Y-44691993D01*
X41990554Y-44669471D01*
X42000782Y-44647847D01*
X42013079Y-44627330D01*
X42027329Y-44608117D01*
X42043393Y-44590393D01*
X42061117Y-44574329D01*
X42080330Y-44560079D01*
X42100847Y-44547782D01*
X42122471Y-44537554D01*
X42144993Y-44529496D01*
X42168197Y-44523684D01*
X42191858Y-44520174D01*
X42215750Y-44519000D01*
X43128250Y-44519000D01*
X43152142Y-44520174D01*
G37*
G36*
X39850142Y-44520174D02*
G01*
X39873803Y-44523684D01*
X39897007Y-44529496D01*
X39919529Y-44537554D01*
X39941153Y-44547782D01*
X39961670Y-44560079D01*
X39980883Y-44574329D01*
X39998607Y-44590393D01*
X40014671Y-44608117D01*
X40028921Y-44627330D01*
X40041218Y-44647847D01*
X40051446Y-44669471D01*
X40059504Y-44691993D01*
X40065316Y-44715197D01*
X40068826Y-44738858D01*
X40070000Y-44762750D01*
X40070000Y-45250250D01*
X40068826Y-45274142D01*
X40065316Y-45297803D01*
X40059504Y-45321007D01*
X40051446Y-45343529D01*
X40041218Y-45365153D01*
X40028921Y-45385670D01*
X40014671Y-45404883D01*
X39998607Y-45422607D01*
X39980883Y-45438671D01*
X39961670Y-45452921D01*
X39941153Y-45465218D01*
X39919529Y-45475446D01*
X39897007Y-45483504D01*
X39873803Y-45489316D01*
X39850142Y-45492826D01*
X39826250Y-45494000D01*
X38913750Y-45494000D01*
X38889858Y-45492826D01*
X38866197Y-45489316D01*
X38842993Y-45483504D01*
X38820471Y-45475446D01*
X38798847Y-45465218D01*
X38778330Y-45452921D01*
X38759117Y-45438671D01*
X38741393Y-45422607D01*
X38725329Y-45404883D01*
X38711079Y-45385670D01*
X38698782Y-45365153D01*
X38688554Y-45343529D01*
X38680496Y-45321007D01*
X38674684Y-45297803D01*
X38671174Y-45274142D01*
X38670000Y-45250250D01*
X38670000Y-44762750D01*
X38671174Y-44738858D01*
X38674684Y-44715197D01*
X38680496Y-44691993D01*
X38688554Y-44669471D01*
X38698782Y-44647847D01*
X38711079Y-44627330D01*
X38725329Y-44608117D01*
X38741393Y-44590393D01*
X38759117Y-44574329D01*
X38778330Y-44560079D01*
X38798847Y-44547782D01*
X38820471Y-44537554D01*
X38842993Y-44529496D01*
X38866197Y-44523684D01*
X38889858Y-44520174D01*
X38913750Y-44519000D01*
X39826250Y-44519000D01*
X39850142Y-44520174D01*
G37*
G36*
X39850142Y-42645174D02*
G01*
X39873803Y-42648684D01*
X39897007Y-42654496D01*
X39919529Y-42662554D01*
X39941153Y-42672782D01*
X39961670Y-42685079D01*
X39980883Y-42699329D01*
X39998607Y-42715393D01*
X40014671Y-42733117D01*
X40028921Y-42752330D01*
X40041218Y-42772847D01*
X40051446Y-42794471D01*
X40059504Y-42816993D01*
X40065316Y-42840197D01*
X40068826Y-42863858D01*
X40070000Y-42887750D01*
X40070000Y-43375250D01*
X40068826Y-43399142D01*
X40065316Y-43422803D01*
X40059504Y-43446007D01*
X40051446Y-43468529D01*
X40041218Y-43490153D01*
X40028921Y-43510670D01*
X40014671Y-43529883D01*
X39998607Y-43547607D01*
X39980883Y-43563671D01*
X39961670Y-43577921D01*
X39941153Y-43590218D01*
X39919529Y-43600446D01*
X39897007Y-43608504D01*
X39873803Y-43614316D01*
X39850142Y-43617826D01*
X39826250Y-43619000D01*
X38913750Y-43619000D01*
X38889858Y-43617826D01*
X38866197Y-43614316D01*
X38842993Y-43608504D01*
X38820471Y-43600446D01*
X38798847Y-43590218D01*
X38778330Y-43577921D01*
X38759117Y-43563671D01*
X38741393Y-43547607D01*
X38725329Y-43529883D01*
X38711079Y-43510670D01*
X38698782Y-43490153D01*
X38688554Y-43468529D01*
X38680496Y-43446007D01*
X38674684Y-43422803D01*
X38671174Y-43399142D01*
X38670000Y-43375250D01*
X38670000Y-42887750D01*
X38671174Y-42863858D01*
X38674684Y-42840197D01*
X38680496Y-42816993D01*
X38688554Y-42794471D01*
X38698782Y-42772847D01*
X38711079Y-42752330D01*
X38725329Y-42733117D01*
X38741393Y-42715393D01*
X38759117Y-42699329D01*
X38778330Y-42685079D01*
X38798847Y-42672782D01*
X38820471Y-42662554D01*
X38842993Y-42654496D01*
X38866197Y-42648684D01*
X38889858Y-42645174D01*
X38913750Y-42644000D01*
X39826250Y-42644000D01*
X39850142Y-42645174D01*
G37*
G36*
X35786142Y-42645174D02*
G01*
X35809803Y-42648684D01*
X35833007Y-42654496D01*
X35855529Y-42662554D01*
X35877153Y-42672782D01*
X35897670Y-42685079D01*
X35916883Y-42699329D01*
X35934607Y-42715393D01*
X35950671Y-42733117D01*
X35964921Y-42752330D01*
X35977218Y-42772847D01*
X35987446Y-42794471D01*
X35995504Y-42816993D01*
X36001316Y-42840197D01*
X36004826Y-42863858D01*
X36006000Y-42887750D01*
X36006000Y-43375250D01*
X36004826Y-43399142D01*
X36001316Y-43422803D01*
X35995504Y-43446007D01*
X35987446Y-43468529D01*
X35977218Y-43490153D01*
X35964921Y-43510670D01*
X35950671Y-43529883D01*
X35934607Y-43547607D01*
X35916883Y-43563671D01*
X35897670Y-43577921D01*
X35877153Y-43590218D01*
X35855529Y-43600446D01*
X35833007Y-43608504D01*
X35809803Y-43614316D01*
X35786142Y-43617826D01*
X35762250Y-43619000D01*
X34849750Y-43619000D01*
X34825858Y-43617826D01*
X34802197Y-43614316D01*
X34778993Y-43608504D01*
X34756471Y-43600446D01*
X34734847Y-43590218D01*
X34714330Y-43577921D01*
X34695117Y-43563671D01*
X34677393Y-43547607D01*
X34661329Y-43529883D01*
X34647079Y-43510670D01*
X34634782Y-43490153D01*
X34624554Y-43468529D01*
X34616496Y-43446007D01*
X34610684Y-43422803D01*
X34607174Y-43399142D01*
X34606000Y-43375250D01*
X34606000Y-42887750D01*
X34607174Y-42863858D01*
X34610684Y-42840197D01*
X34616496Y-42816993D01*
X34624554Y-42794471D01*
X34634782Y-42772847D01*
X34647079Y-42752330D01*
X34661329Y-42733117D01*
X34677393Y-42715393D01*
X34695117Y-42699329D01*
X34714330Y-42685079D01*
X34734847Y-42672782D01*
X34756471Y-42662554D01*
X34778993Y-42654496D01*
X34802197Y-42648684D01*
X34825858Y-42645174D01*
X34849750Y-42644000D01*
X35762250Y-42644000D01*
X35786142Y-42645174D01*
G37*
G36*
X35786142Y-44520174D02*
G01*
X35809803Y-44523684D01*
X35833007Y-44529496D01*
X35855529Y-44537554D01*
X35877153Y-44547782D01*
X35897670Y-44560079D01*
X35916883Y-44574329D01*
X35934607Y-44590393D01*
X35950671Y-44608117D01*
X35964921Y-44627330D01*
X35977218Y-44647847D01*
X35987446Y-44669471D01*
X35995504Y-44691993D01*
X36001316Y-44715197D01*
X36004826Y-44738858D01*
X36006000Y-44762750D01*
X36006000Y-45250250D01*
X36004826Y-45274142D01*
X36001316Y-45297803D01*
X35995504Y-45321007D01*
X35987446Y-45343529D01*
X35977218Y-45365153D01*
X35964921Y-45385670D01*
X35950671Y-45404883D01*
X35934607Y-45422607D01*
X35916883Y-45438671D01*
X35897670Y-45452921D01*
X35877153Y-45465218D01*
X35855529Y-45475446D01*
X35833007Y-45483504D01*
X35809803Y-45489316D01*
X35786142Y-45492826D01*
X35762250Y-45494000D01*
X34849750Y-45494000D01*
X34825858Y-45492826D01*
X34802197Y-45489316D01*
X34778993Y-45483504D01*
X34756471Y-45475446D01*
X34734847Y-45465218D01*
X34714330Y-45452921D01*
X34695117Y-45438671D01*
X34677393Y-45422607D01*
X34661329Y-45404883D01*
X34647079Y-45385670D01*
X34634782Y-45365153D01*
X34624554Y-45343529D01*
X34616496Y-45321007D01*
X34610684Y-45297803D01*
X34607174Y-45274142D01*
X34606000Y-45250250D01*
X34606000Y-44762750D01*
X34607174Y-44738858D01*
X34610684Y-44715197D01*
X34616496Y-44691993D01*
X34624554Y-44669471D01*
X34634782Y-44647847D01*
X34647079Y-44627330D01*
X34661329Y-44608117D01*
X34677393Y-44590393D01*
X34695117Y-44574329D01*
X34714330Y-44560079D01*
X34734847Y-44547782D01*
X34756471Y-44537554D01*
X34778993Y-44529496D01*
X34802197Y-44523684D01*
X34825858Y-44520174D01*
X34849750Y-44519000D01*
X35762250Y-44519000D01*
X35786142Y-44520174D01*
G37*
G36*
X33500142Y-44520174D02*
G01*
X33523803Y-44523684D01*
X33547007Y-44529496D01*
X33569529Y-44537554D01*
X33591153Y-44547782D01*
X33611670Y-44560079D01*
X33630883Y-44574329D01*
X33648607Y-44590393D01*
X33664671Y-44608117D01*
X33678921Y-44627330D01*
X33691218Y-44647847D01*
X33701446Y-44669471D01*
X33709504Y-44691993D01*
X33715316Y-44715197D01*
X33718826Y-44738858D01*
X33720000Y-44762750D01*
X33720000Y-45250250D01*
X33718826Y-45274142D01*
X33715316Y-45297803D01*
X33709504Y-45321007D01*
X33701446Y-45343529D01*
X33691218Y-45365153D01*
X33678921Y-45385670D01*
X33664671Y-45404883D01*
X33648607Y-45422607D01*
X33630883Y-45438671D01*
X33611670Y-45452921D01*
X33591153Y-45465218D01*
X33569529Y-45475446D01*
X33547007Y-45483504D01*
X33523803Y-45489316D01*
X33500142Y-45492826D01*
X33476250Y-45494000D01*
X32563750Y-45494000D01*
X32539858Y-45492826D01*
X32516197Y-45489316D01*
X32492993Y-45483504D01*
X32470471Y-45475446D01*
X32448847Y-45465218D01*
X32428330Y-45452921D01*
X32409117Y-45438671D01*
X32391393Y-45422607D01*
X32375329Y-45404883D01*
X32361079Y-45385670D01*
X32348782Y-45365153D01*
X32338554Y-45343529D01*
X32330496Y-45321007D01*
X32324684Y-45297803D01*
X32321174Y-45274142D01*
X32320000Y-45250250D01*
X32320000Y-44762750D01*
X32321174Y-44738858D01*
X32324684Y-44715197D01*
X32330496Y-44691993D01*
X32338554Y-44669471D01*
X32348782Y-44647847D01*
X32361079Y-44627330D01*
X32375329Y-44608117D01*
X32391393Y-44590393D01*
X32409117Y-44574329D01*
X32428330Y-44560079D01*
X32448847Y-44547782D01*
X32470471Y-44537554D01*
X32492993Y-44529496D01*
X32516197Y-44523684D01*
X32539858Y-44520174D01*
X32563750Y-44519000D01*
X33476250Y-44519000D01*
X33500142Y-44520174D01*
G37*
G36*
X33500142Y-42645174D02*
G01*
X33523803Y-42648684D01*
X33547007Y-42654496D01*
X33569529Y-42662554D01*
X33591153Y-42672782D01*
X33611670Y-42685079D01*
X33630883Y-42699329D01*
X33648607Y-42715393D01*
X33664671Y-42733117D01*
X33678921Y-42752330D01*
X33691218Y-42772847D01*
X33701446Y-42794471D01*
X33709504Y-42816993D01*
X33715316Y-42840197D01*
X33718826Y-42863858D01*
X33720000Y-42887750D01*
X33720000Y-43375250D01*
X33718826Y-43399142D01*
X33715316Y-43422803D01*
X33709504Y-43446007D01*
X33701446Y-43468529D01*
X33691218Y-43490153D01*
X33678921Y-43510670D01*
X33664671Y-43529883D01*
X33648607Y-43547607D01*
X33630883Y-43563671D01*
X33611670Y-43577921D01*
X33591153Y-43590218D01*
X33569529Y-43600446D01*
X33547007Y-43608504D01*
X33523803Y-43614316D01*
X33500142Y-43617826D01*
X33476250Y-43619000D01*
X32563750Y-43619000D01*
X32539858Y-43617826D01*
X32516197Y-43614316D01*
X32492993Y-43608504D01*
X32470471Y-43600446D01*
X32448847Y-43590218D01*
X32428330Y-43577921D01*
X32409117Y-43563671D01*
X32391393Y-43547607D01*
X32375329Y-43529883D01*
X32361079Y-43510670D01*
X32348782Y-43490153D01*
X32338554Y-43468529D01*
X32330496Y-43446007D01*
X32324684Y-43422803D01*
X32321174Y-43399142D01*
X32320000Y-43375250D01*
X32320000Y-42887750D01*
X32321174Y-42863858D01*
X32324684Y-42840197D01*
X32330496Y-42816993D01*
X32338554Y-42794471D01*
X32348782Y-42772847D01*
X32361079Y-42752330D01*
X32375329Y-42733117D01*
X32391393Y-42715393D01*
X32409117Y-42699329D01*
X32428330Y-42685079D01*
X32448847Y-42672782D01*
X32470471Y-42662554D01*
X32492993Y-42654496D01*
X32516197Y-42648684D01*
X32539858Y-42645174D01*
X32563750Y-42644000D01*
X33476250Y-42644000D01*
X33500142Y-42645174D01*
G37*
G36*
X37945142Y-58520174D02*
G01*
X37968803Y-58523684D01*
X37992007Y-58529496D01*
X38014529Y-58537554D01*
X38036153Y-58547782D01*
X38056670Y-58560079D01*
X38075883Y-58574329D01*
X38093607Y-58590393D01*
X38109671Y-58608117D01*
X38123921Y-58627330D01*
X38136218Y-58647847D01*
X38146446Y-58669471D01*
X38154504Y-58691993D01*
X38160316Y-58715197D01*
X38163826Y-58738858D01*
X38165000Y-58762750D01*
X38165000Y-59250250D01*
X38163826Y-59274142D01*
X38160316Y-59297803D01*
X38154504Y-59321007D01*
X38146446Y-59343529D01*
X38136218Y-59365153D01*
X38123921Y-59385670D01*
X38109671Y-59404883D01*
X38093607Y-59422607D01*
X38075883Y-59438671D01*
X38056670Y-59452921D01*
X38036153Y-59465218D01*
X38014529Y-59475446D01*
X37992007Y-59483504D01*
X37968803Y-59489316D01*
X37945142Y-59492826D01*
X37921250Y-59494000D01*
X37008750Y-59494000D01*
X36984858Y-59492826D01*
X36961197Y-59489316D01*
X36937993Y-59483504D01*
X36915471Y-59475446D01*
X36893847Y-59465218D01*
X36873330Y-59452921D01*
X36854117Y-59438671D01*
X36836393Y-59422607D01*
X36820329Y-59404883D01*
X36806079Y-59385670D01*
X36793782Y-59365153D01*
X36783554Y-59343529D01*
X36775496Y-59321007D01*
X36769684Y-59297803D01*
X36766174Y-59274142D01*
X36765000Y-59250250D01*
X36765000Y-58762750D01*
X36766174Y-58738858D01*
X36769684Y-58715197D01*
X36775496Y-58691993D01*
X36783554Y-58669471D01*
X36793782Y-58647847D01*
X36806079Y-58627330D01*
X36820329Y-58608117D01*
X36836393Y-58590393D01*
X36854117Y-58574329D01*
X36873330Y-58560079D01*
X36893847Y-58547782D01*
X36915471Y-58537554D01*
X36937993Y-58529496D01*
X36961197Y-58523684D01*
X36984858Y-58520174D01*
X37008750Y-58519000D01*
X37921250Y-58519000D01*
X37945142Y-58520174D01*
G37*
G36*
X37945142Y-60395174D02*
G01*
X37968803Y-60398684D01*
X37992007Y-60404496D01*
X38014529Y-60412554D01*
X38036153Y-60422782D01*
X38056670Y-60435079D01*
X38075883Y-60449329D01*
X38093607Y-60465393D01*
X38109671Y-60483117D01*
X38123921Y-60502330D01*
X38136218Y-60522847D01*
X38146446Y-60544471D01*
X38154504Y-60566993D01*
X38160316Y-60590197D01*
X38163826Y-60613858D01*
X38165000Y-60637750D01*
X38165000Y-61125250D01*
X38163826Y-61149142D01*
X38160316Y-61172803D01*
X38154504Y-61196007D01*
X38146446Y-61218529D01*
X38136218Y-61240153D01*
X38123921Y-61260670D01*
X38109671Y-61279883D01*
X38093607Y-61297607D01*
X38075883Y-61313671D01*
X38056670Y-61327921D01*
X38036153Y-61340218D01*
X38014529Y-61350446D01*
X37992007Y-61358504D01*
X37968803Y-61364316D01*
X37945142Y-61367826D01*
X37921250Y-61369000D01*
X37008750Y-61369000D01*
X36984858Y-61367826D01*
X36961197Y-61364316D01*
X36937993Y-61358504D01*
X36915471Y-61350446D01*
X36893847Y-61340218D01*
X36873330Y-61327921D01*
X36854117Y-61313671D01*
X36836393Y-61297607D01*
X36820329Y-61279883D01*
X36806079Y-61260670D01*
X36793782Y-61240153D01*
X36783554Y-61218529D01*
X36775496Y-61196007D01*
X36769684Y-61172803D01*
X36766174Y-61149142D01*
X36765000Y-61125250D01*
X36765000Y-60637750D01*
X36766174Y-60613858D01*
X36769684Y-60590197D01*
X36775496Y-60566993D01*
X36783554Y-60544471D01*
X36793782Y-60522847D01*
X36806079Y-60502330D01*
X36820329Y-60483117D01*
X36836393Y-60465393D01*
X36854117Y-60449329D01*
X36873330Y-60435079D01*
X36893847Y-60422782D01*
X36915471Y-60412554D01*
X36937993Y-60404496D01*
X36961197Y-60398684D01*
X36984858Y-60395174D01*
X37008750Y-60394000D01*
X37921250Y-60394000D01*
X37945142Y-60395174D01*
G37*
G36*
X64197142Y-66801674D02*
G01*
X64220803Y-66805184D01*
X64244007Y-66810996D01*
X64266529Y-66819054D01*
X64288153Y-66829282D01*
X64308670Y-66841579D01*
X64327883Y-66855829D01*
X64345607Y-66871893D01*
X64361671Y-66889617D01*
X64375921Y-66908830D01*
X64388218Y-66929347D01*
X64398446Y-66950971D01*
X64406504Y-66973493D01*
X64412316Y-66996697D01*
X64415826Y-67020358D01*
X64417000Y-67044250D01*
X64417000Y-67956750D01*
X64415826Y-67980642D01*
X64412316Y-68004303D01*
X64406504Y-68027507D01*
X64398446Y-68050029D01*
X64388218Y-68071653D01*
X64375921Y-68092170D01*
X64361671Y-68111383D01*
X64345607Y-68129107D01*
X64327883Y-68145171D01*
X64308670Y-68159421D01*
X64288153Y-68171718D01*
X64266529Y-68181946D01*
X64244007Y-68190004D01*
X64220803Y-68195816D01*
X64197142Y-68199326D01*
X64173250Y-68200500D01*
X63685750Y-68200500D01*
X63661858Y-68199326D01*
X63638197Y-68195816D01*
X63614993Y-68190004D01*
X63592471Y-68181946D01*
X63570847Y-68171718D01*
X63550330Y-68159421D01*
X63531117Y-68145171D01*
X63513393Y-68129107D01*
X63497329Y-68111383D01*
X63483079Y-68092170D01*
X63470782Y-68071653D01*
X63460554Y-68050029D01*
X63452496Y-68027507D01*
X63446684Y-68004303D01*
X63443174Y-67980642D01*
X63442000Y-67956750D01*
X63442000Y-67044250D01*
X63443174Y-67020358D01*
X63446684Y-66996697D01*
X63452496Y-66973493D01*
X63460554Y-66950971D01*
X63470782Y-66929347D01*
X63483079Y-66908830D01*
X63497329Y-66889617D01*
X63513393Y-66871893D01*
X63531117Y-66855829D01*
X63550330Y-66841579D01*
X63570847Y-66829282D01*
X63592471Y-66819054D01*
X63614993Y-66810996D01*
X63638197Y-66805184D01*
X63661858Y-66801674D01*
X63685750Y-66800500D01*
X64173250Y-66800500D01*
X64197142Y-66801674D01*
G37*
G36*
X62322142Y-66801674D02*
G01*
X62345803Y-66805184D01*
X62369007Y-66810996D01*
X62391529Y-66819054D01*
X62413153Y-66829282D01*
X62433670Y-66841579D01*
X62452883Y-66855829D01*
X62470607Y-66871893D01*
X62486671Y-66889617D01*
X62500921Y-66908830D01*
X62513218Y-66929347D01*
X62523446Y-66950971D01*
X62531504Y-66973493D01*
X62537316Y-66996697D01*
X62540826Y-67020358D01*
X62542000Y-67044250D01*
X62542000Y-67956750D01*
X62540826Y-67980642D01*
X62537316Y-68004303D01*
X62531504Y-68027507D01*
X62523446Y-68050029D01*
X62513218Y-68071653D01*
X62500921Y-68092170D01*
X62486671Y-68111383D01*
X62470607Y-68129107D01*
X62452883Y-68145171D01*
X62433670Y-68159421D01*
X62413153Y-68171718D01*
X62391529Y-68181946D01*
X62369007Y-68190004D01*
X62345803Y-68195816D01*
X62322142Y-68199326D01*
X62298250Y-68200500D01*
X61810750Y-68200500D01*
X61786858Y-68199326D01*
X61763197Y-68195816D01*
X61739993Y-68190004D01*
X61717471Y-68181946D01*
X61695847Y-68171718D01*
X61675330Y-68159421D01*
X61656117Y-68145171D01*
X61638393Y-68129107D01*
X61622329Y-68111383D01*
X61608079Y-68092170D01*
X61595782Y-68071653D01*
X61585554Y-68050029D01*
X61577496Y-68027507D01*
X61571684Y-68004303D01*
X61568174Y-67980642D01*
X61567000Y-67956750D01*
X61567000Y-67044250D01*
X61568174Y-67020358D01*
X61571684Y-66996697D01*
X61577496Y-66973493D01*
X61585554Y-66950971D01*
X61595782Y-66929347D01*
X61608079Y-66908830D01*
X61622329Y-66889617D01*
X61638393Y-66871893D01*
X61656117Y-66855829D01*
X61675330Y-66841579D01*
X61695847Y-66829282D01*
X61717471Y-66819054D01*
X61739993Y-66810996D01*
X61763197Y-66805184D01*
X61786858Y-66801674D01*
X61810750Y-66800500D01*
X62298250Y-66800500D01*
X62322142Y-66801674D01*
G37*
G36*
X66449642Y-49656674D02*
G01*
X66473303Y-49660184D01*
X66496507Y-49665996D01*
X66519029Y-49674054D01*
X66540653Y-49684282D01*
X66561170Y-49696579D01*
X66580383Y-49710829D01*
X66598107Y-49726893D01*
X66614171Y-49744617D01*
X66628421Y-49763830D01*
X66640718Y-49784347D01*
X66650946Y-49805971D01*
X66659004Y-49828493D01*
X66664816Y-49851697D01*
X66668326Y-49875358D01*
X66669500Y-49899250D01*
X66669500Y-50811750D01*
X66668326Y-50835642D01*
X66664816Y-50859303D01*
X66659004Y-50882507D01*
X66650946Y-50905029D01*
X66640718Y-50926653D01*
X66628421Y-50947170D01*
X66614171Y-50966383D01*
X66598107Y-50984107D01*
X66580383Y-51000171D01*
X66561170Y-51014421D01*
X66540653Y-51026718D01*
X66519029Y-51036946D01*
X66496507Y-51045004D01*
X66473303Y-51050816D01*
X66449642Y-51054326D01*
X66425750Y-51055500D01*
X65938250Y-51055500D01*
X65914358Y-51054326D01*
X65890697Y-51050816D01*
X65867493Y-51045004D01*
X65844971Y-51036946D01*
X65823347Y-51026718D01*
X65802830Y-51014421D01*
X65783617Y-51000171D01*
X65765893Y-50984107D01*
X65749829Y-50966383D01*
X65735579Y-50947170D01*
X65723282Y-50926653D01*
X65713054Y-50905029D01*
X65704996Y-50882507D01*
X65699184Y-50859303D01*
X65695674Y-50835642D01*
X65694500Y-50811750D01*
X65694500Y-49899250D01*
X65695674Y-49875358D01*
X65699184Y-49851697D01*
X65704996Y-49828493D01*
X65713054Y-49805971D01*
X65723282Y-49784347D01*
X65735579Y-49763830D01*
X65749829Y-49744617D01*
X65765893Y-49726893D01*
X65783617Y-49710829D01*
X65802830Y-49696579D01*
X65823347Y-49684282D01*
X65844971Y-49674054D01*
X65867493Y-49665996D01*
X65890697Y-49660184D01*
X65914358Y-49656674D01*
X65938250Y-49655500D01*
X66425750Y-49655500D01*
X66449642Y-49656674D01*
G37*
G36*
X68324642Y-49656674D02*
G01*
X68348303Y-49660184D01*
X68371507Y-49665996D01*
X68394029Y-49674054D01*
X68415653Y-49684282D01*
X68436170Y-49696579D01*
X68455383Y-49710829D01*
X68473107Y-49726893D01*
X68489171Y-49744617D01*
X68503421Y-49763830D01*
X68515718Y-49784347D01*
X68525946Y-49805971D01*
X68534004Y-49828493D01*
X68539816Y-49851697D01*
X68543326Y-49875358D01*
X68544500Y-49899250D01*
X68544500Y-50811750D01*
X68543326Y-50835642D01*
X68539816Y-50859303D01*
X68534004Y-50882507D01*
X68525946Y-50905029D01*
X68515718Y-50926653D01*
X68503421Y-50947170D01*
X68489171Y-50966383D01*
X68473107Y-50984107D01*
X68455383Y-51000171D01*
X68436170Y-51014421D01*
X68415653Y-51026718D01*
X68394029Y-51036946D01*
X68371507Y-51045004D01*
X68348303Y-51050816D01*
X68324642Y-51054326D01*
X68300750Y-51055500D01*
X67813250Y-51055500D01*
X67789358Y-51054326D01*
X67765697Y-51050816D01*
X67742493Y-51045004D01*
X67719971Y-51036946D01*
X67698347Y-51026718D01*
X67677830Y-51014421D01*
X67658617Y-51000171D01*
X67640893Y-50984107D01*
X67624829Y-50966383D01*
X67610579Y-50947170D01*
X67598282Y-50926653D01*
X67588054Y-50905029D01*
X67579996Y-50882507D01*
X67574184Y-50859303D01*
X67570674Y-50835642D01*
X67569500Y-50811750D01*
X67569500Y-49899250D01*
X67570674Y-49875358D01*
X67574184Y-49851697D01*
X67579996Y-49828493D01*
X67588054Y-49805971D01*
X67598282Y-49784347D01*
X67610579Y-49763830D01*
X67624829Y-49744617D01*
X67640893Y-49726893D01*
X67658617Y-49710829D01*
X67677830Y-49696579D01*
X67698347Y-49684282D01*
X67719971Y-49674054D01*
X67742493Y-49665996D01*
X67765697Y-49660184D01*
X67789358Y-49656674D01*
X67813250Y-49655500D01*
X68300750Y-49655500D01*
X68324642Y-49656674D01*
G37*
G36*
X60170142Y-42660174D02*
G01*
X60193803Y-42663684D01*
X60217007Y-42669496D01*
X60239529Y-42677554D01*
X60261153Y-42687782D01*
X60281670Y-42700079D01*
X60300883Y-42714329D01*
X60318607Y-42730393D01*
X60334671Y-42748117D01*
X60348921Y-42767330D01*
X60361218Y-42787847D01*
X60371446Y-42809471D01*
X60379504Y-42831993D01*
X60385316Y-42855197D01*
X60388826Y-42878858D01*
X60390000Y-42902750D01*
X60390000Y-43390250D01*
X60388826Y-43414142D01*
X60385316Y-43437803D01*
X60379504Y-43461007D01*
X60371446Y-43483529D01*
X60361218Y-43505153D01*
X60348921Y-43525670D01*
X60334671Y-43544883D01*
X60318607Y-43562607D01*
X60300883Y-43578671D01*
X60281670Y-43592921D01*
X60261153Y-43605218D01*
X60239529Y-43615446D01*
X60217007Y-43623504D01*
X60193803Y-43629316D01*
X60170142Y-43632826D01*
X60146250Y-43634000D01*
X59233750Y-43634000D01*
X59209858Y-43632826D01*
X59186197Y-43629316D01*
X59162993Y-43623504D01*
X59140471Y-43615446D01*
X59118847Y-43605218D01*
X59098330Y-43592921D01*
X59079117Y-43578671D01*
X59061393Y-43562607D01*
X59045329Y-43544883D01*
X59031079Y-43525670D01*
X59018782Y-43505153D01*
X59008554Y-43483529D01*
X59000496Y-43461007D01*
X58994684Y-43437803D01*
X58991174Y-43414142D01*
X58990000Y-43390250D01*
X58990000Y-42902750D01*
X58991174Y-42878858D01*
X58994684Y-42855197D01*
X59000496Y-42831993D01*
X59008554Y-42809471D01*
X59018782Y-42787847D01*
X59031079Y-42767330D01*
X59045329Y-42748117D01*
X59061393Y-42730393D01*
X59079117Y-42714329D01*
X59098330Y-42700079D01*
X59118847Y-42687782D01*
X59140471Y-42677554D01*
X59162993Y-42669496D01*
X59186197Y-42663684D01*
X59209858Y-42660174D01*
X59233750Y-42659000D01*
X60146250Y-42659000D01*
X60170142Y-42660174D01*
G37*
G36*
X60170142Y-44535174D02*
G01*
X60193803Y-44538684D01*
X60217007Y-44544496D01*
X60239529Y-44552554D01*
X60261153Y-44562782D01*
X60281670Y-44575079D01*
X60300883Y-44589329D01*
X60318607Y-44605393D01*
X60334671Y-44623117D01*
X60348921Y-44642330D01*
X60361218Y-44662847D01*
X60371446Y-44684471D01*
X60379504Y-44706993D01*
X60385316Y-44730197D01*
X60388826Y-44753858D01*
X60390000Y-44777750D01*
X60390000Y-45265250D01*
X60388826Y-45289142D01*
X60385316Y-45312803D01*
X60379504Y-45336007D01*
X60371446Y-45358529D01*
X60361218Y-45380153D01*
X60348921Y-45400670D01*
X60334671Y-45419883D01*
X60318607Y-45437607D01*
X60300883Y-45453671D01*
X60281670Y-45467921D01*
X60261153Y-45480218D01*
X60239529Y-45490446D01*
X60217007Y-45498504D01*
X60193803Y-45504316D01*
X60170142Y-45507826D01*
X60146250Y-45509000D01*
X59233750Y-45509000D01*
X59209858Y-45507826D01*
X59186197Y-45504316D01*
X59162993Y-45498504D01*
X59140471Y-45490446D01*
X59118847Y-45480218D01*
X59098330Y-45467921D01*
X59079117Y-45453671D01*
X59061393Y-45437607D01*
X59045329Y-45419883D01*
X59031079Y-45400670D01*
X59018782Y-45380153D01*
X59008554Y-45358529D01*
X59000496Y-45336007D01*
X58994684Y-45312803D01*
X58991174Y-45289142D01*
X58990000Y-45265250D01*
X58990000Y-44777750D01*
X58991174Y-44753858D01*
X58994684Y-44730197D01*
X59000496Y-44706993D01*
X59008554Y-44684471D01*
X59018782Y-44662847D01*
X59031079Y-44642330D01*
X59045329Y-44623117D01*
X59061393Y-44605393D01*
X59079117Y-44589329D01*
X59098330Y-44575079D01*
X59118847Y-44562782D01*
X59140471Y-44552554D01*
X59162993Y-44544496D01*
X59186197Y-44538684D01*
X59209858Y-44535174D01*
X59233750Y-44534000D01*
X60146250Y-44534000D01*
X60170142Y-44535174D01*
G37*
D17*
X61125000Y-27650000D03*
X53175000Y-27650000D03*
X61125000Y-23150000D03*
X53175000Y-23150000D03*
D11*
G36*
X75481642Y-55181174D02*
G01*
X75505303Y-55184684D01*
X75528507Y-55190496D01*
X75551029Y-55198554D01*
X75572653Y-55208782D01*
X75593170Y-55221079D01*
X75612383Y-55235329D01*
X75630107Y-55251393D01*
X75646171Y-55269117D01*
X75660421Y-55288330D01*
X75672718Y-55308847D01*
X75682946Y-55330471D01*
X75691004Y-55352993D01*
X75696816Y-55376197D01*
X75700326Y-55399858D01*
X75701500Y-55423750D01*
X75701500Y-56336250D01*
X75700326Y-56360142D01*
X75696816Y-56383803D01*
X75691004Y-56407007D01*
X75682946Y-56429529D01*
X75672718Y-56451153D01*
X75660421Y-56471670D01*
X75646171Y-56490883D01*
X75630107Y-56508607D01*
X75612383Y-56524671D01*
X75593170Y-56538921D01*
X75572653Y-56551218D01*
X75551029Y-56561446D01*
X75528507Y-56569504D01*
X75505303Y-56575316D01*
X75481642Y-56578826D01*
X75457750Y-56580000D01*
X74970250Y-56580000D01*
X74946358Y-56578826D01*
X74922697Y-56575316D01*
X74899493Y-56569504D01*
X74876971Y-56561446D01*
X74855347Y-56551218D01*
X74834830Y-56538921D01*
X74815617Y-56524671D01*
X74797893Y-56508607D01*
X74781829Y-56490883D01*
X74767579Y-56471670D01*
X74755282Y-56451153D01*
X74745054Y-56429529D01*
X74736996Y-56407007D01*
X74731184Y-56383803D01*
X74727674Y-56360142D01*
X74726500Y-56336250D01*
X74726500Y-55423750D01*
X74727674Y-55399858D01*
X74731184Y-55376197D01*
X74736996Y-55352993D01*
X74745054Y-55330471D01*
X74755282Y-55308847D01*
X74767579Y-55288330D01*
X74781829Y-55269117D01*
X74797893Y-55251393D01*
X74815617Y-55235329D01*
X74834830Y-55221079D01*
X74855347Y-55208782D01*
X74876971Y-55198554D01*
X74899493Y-55190496D01*
X74922697Y-55184684D01*
X74946358Y-55181174D01*
X74970250Y-55180000D01*
X75457750Y-55180000D01*
X75481642Y-55181174D01*
G37*
G36*
X77356642Y-55181174D02*
G01*
X77380303Y-55184684D01*
X77403507Y-55190496D01*
X77426029Y-55198554D01*
X77447653Y-55208782D01*
X77468170Y-55221079D01*
X77487383Y-55235329D01*
X77505107Y-55251393D01*
X77521171Y-55269117D01*
X77535421Y-55288330D01*
X77547718Y-55308847D01*
X77557946Y-55330471D01*
X77566004Y-55352993D01*
X77571816Y-55376197D01*
X77575326Y-55399858D01*
X77576500Y-55423750D01*
X77576500Y-56336250D01*
X77575326Y-56360142D01*
X77571816Y-56383803D01*
X77566004Y-56407007D01*
X77557946Y-56429529D01*
X77547718Y-56451153D01*
X77535421Y-56471670D01*
X77521171Y-56490883D01*
X77505107Y-56508607D01*
X77487383Y-56524671D01*
X77468170Y-56538921D01*
X77447653Y-56551218D01*
X77426029Y-56561446D01*
X77403507Y-56569504D01*
X77380303Y-56575316D01*
X77356642Y-56578826D01*
X77332750Y-56580000D01*
X76845250Y-56580000D01*
X76821358Y-56578826D01*
X76797697Y-56575316D01*
X76774493Y-56569504D01*
X76751971Y-56561446D01*
X76730347Y-56551218D01*
X76709830Y-56538921D01*
X76690617Y-56524671D01*
X76672893Y-56508607D01*
X76656829Y-56490883D01*
X76642579Y-56471670D01*
X76630282Y-56451153D01*
X76620054Y-56429529D01*
X76611996Y-56407007D01*
X76606184Y-56383803D01*
X76602674Y-56360142D01*
X76601500Y-56336250D01*
X76601500Y-55423750D01*
X76602674Y-55399858D01*
X76606184Y-55376197D01*
X76611996Y-55352993D01*
X76620054Y-55330471D01*
X76630282Y-55308847D01*
X76642579Y-55288330D01*
X76656829Y-55269117D01*
X76672893Y-55251393D01*
X76690617Y-55235329D01*
X76709830Y-55221079D01*
X76730347Y-55208782D01*
X76751971Y-55198554D01*
X76774493Y-55190496D01*
X76797697Y-55184684D01*
X76821358Y-55181174D01*
X76845250Y-55180000D01*
X77332750Y-55180000D01*
X77356642Y-55181174D01*
G37*
G36*
X75530142Y-47561174D02*
G01*
X75553803Y-47564684D01*
X75577007Y-47570496D01*
X75599529Y-47578554D01*
X75621153Y-47588782D01*
X75641670Y-47601079D01*
X75660883Y-47615329D01*
X75678607Y-47631393D01*
X75694671Y-47649117D01*
X75708921Y-47668330D01*
X75721218Y-47688847D01*
X75731446Y-47710471D01*
X75739504Y-47732993D01*
X75745316Y-47756197D01*
X75748826Y-47779858D01*
X75750000Y-47803750D01*
X75750000Y-48716250D01*
X75748826Y-48740142D01*
X75745316Y-48763803D01*
X75739504Y-48787007D01*
X75731446Y-48809529D01*
X75721218Y-48831153D01*
X75708921Y-48851670D01*
X75694671Y-48870883D01*
X75678607Y-48888607D01*
X75660883Y-48904671D01*
X75641670Y-48918921D01*
X75621153Y-48931218D01*
X75599529Y-48941446D01*
X75577007Y-48949504D01*
X75553803Y-48955316D01*
X75530142Y-48958826D01*
X75506250Y-48960000D01*
X75018750Y-48960000D01*
X74994858Y-48958826D01*
X74971197Y-48955316D01*
X74947993Y-48949504D01*
X74925471Y-48941446D01*
X74903847Y-48931218D01*
X74883330Y-48918921D01*
X74864117Y-48904671D01*
X74846393Y-48888607D01*
X74830329Y-48870883D01*
X74816079Y-48851670D01*
X74803782Y-48831153D01*
X74793554Y-48809529D01*
X74785496Y-48787007D01*
X74779684Y-48763803D01*
X74776174Y-48740142D01*
X74775000Y-48716250D01*
X74775000Y-47803750D01*
X74776174Y-47779858D01*
X74779684Y-47756197D01*
X74785496Y-47732993D01*
X74793554Y-47710471D01*
X74803782Y-47688847D01*
X74816079Y-47668330D01*
X74830329Y-47649117D01*
X74846393Y-47631393D01*
X74864117Y-47615329D01*
X74883330Y-47601079D01*
X74903847Y-47588782D01*
X74925471Y-47578554D01*
X74947993Y-47570496D01*
X74971197Y-47564684D01*
X74994858Y-47561174D01*
X75018750Y-47560000D01*
X75506250Y-47560000D01*
X75530142Y-47561174D01*
G37*
G36*
X77405142Y-47561174D02*
G01*
X77428803Y-47564684D01*
X77452007Y-47570496D01*
X77474529Y-47578554D01*
X77496153Y-47588782D01*
X77516670Y-47601079D01*
X77535883Y-47615329D01*
X77553607Y-47631393D01*
X77569671Y-47649117D01*
X77583921Y-47668330D01*
X77596218Y-47688847D01*
X77606446Y-47710471D01*
X77614504Y-47732993D01*
X77620316Y-47756197D01*
X77623826Y-47779858D01*
X77625000Y-47803750D01*
X77625000Y-48716250D01*
X77623826Y-48740142D01*
X77620316Y-48763803D01*
X77614504Y-48787007D01*
X77606446Y-48809529D01*
X77596218Y-48831153D01*
X77583921Y-48851670D01*
X77569671Y-48870883D01*
X77553607Y-48888607D01*
X77535883Y-48904671D01*
X77516670Y-48918921D01*
X77496153Y-48931218D01*
X77474529Y-48941446D01*
X77452007Y-48949504D01*
X77428803Y-48955316D01*
X77405142Y-48958826D01*
X77381250Y-48960000D01*
X76893750Y-48960000D01*
X76869858Y-48958826D01*
X76846197Y-48955316D01*
X76822993Y-48949504D01*
X76800471Y-48941446D01*
X76778847Y-48931218D01*
X76758330Y-48918921D01*
X76739117Y-48904671D01*
X76721393Y-48888607D01*
X76705329Y-48870883D01*
X76691079Y-48851670D01*
X76678782Y-48831153D01*
X76668554Y-48809529D01*
X76660496Y-48787007D01*
X76654684Y-48763803D01*
X76651174Y-48740142D01*
X76650000Y-48716250D01*
X76650000Y-47803750D01*
X76651174Y-47779858D01*
X76654684Y-47756197D01*
X76660496Y-47732993D01*
X76668554Y-47710471D01*
X76678782Y-47688847D01*
X76691079Y-47668330D01*
X76705329Y-47649117D01*
X76721393Y-47631393D01*
X76739117Y-47615329D01*
X76758330Y-47601079D01*
X76778847Y-47588782D01*
X76800471Y-47578554D01*
X76822993Y-47570496D01*
X76846197Y-47564684D01*
X76869858Y-47561174D01*
X76893750Y-47560000D01*
X77381250Y-47560000D01*
X77405142Y-47561174D01*
G37*
G36*
X75657142Y-24955174D02*
G01*
X75680803Y-24958684D01*
X75704007Y-24964496D01*
X75726529Y-24972554D01*
X75748153Y-24982782D01*
X75768670Y-24995079D01*
X75787883Y-25009329D01*
X75805607Y-25025393D01*
X75821671Y-25043117D01*
X75835921Y-25062330D01*
X75848218Y-25082847D01*
X75858446Y-25104471D01*
X75866504Y-25126993D01*
X75872316Y-25150197D01*
X75875826Y-25173858D01*
X75877000Y-25197750D01*
X75877000Y-26110250D01*
X75875826Y-26134142D01*
X75872316Y-26157803D01*
X75866504Y-26181007D01*
X75858446Y-26203529D01*
X75848218Y-26225153D01*
X75835921Y-26245670D01*
X75821671Y-26264883D01*
X75805607Y-26282607D01*
X75787883Y-26298671D01*
X75768670Y-26312921D01*
X75748153Y-26325218D01*
X75726529Y-26335446D01*
X75704007Y-26343504D01*
X75680803Y-26349316D01*
X75657142Y-26352826D01*
X75633250Y-26354000D01*
X75145750Y-26354000D01*
X75121858Y-26352826D01*
X75098197Y-26349316D01*
X75074993Y-26343504D01*
X75052471Y-26335446D01*
X75030847Y-26325218D01*
X75010330Y-26312921D01*
X74991117Y-26298671D01*
X74973393Y-26282607D01*
X74957329Y-26264883D01*
X74943079Y-26245670D01*
X74930782Y-26225153D01*
X74920554Y-26203529D01*
X74912496Y-26181007D01*
X74906684Y-26157803D01*
X74903174Y-26134142D01*
X74902000Y-26110250D01*
X74902000Y-25197750D01*
X74903174Y-25173858D01*
X74906684Y-25150197D01*
X74912496Y-25126993D01*
X74920554Y-25104471D01*
X74930782Y-25082847D01*
X74943079Y-25062330D01*
X74957329Y-25043117D01*
X74973393Y-25025393D01*
X74991117Y-25009329D01*
X75010330Y-24995079D01*
X75030847Y-24982782D01*
X75052471Y-24972554D01*
X75074993Y-24964496D01*
X75098197Y-24958684D01*
X75121858Y-24955174D01*
X75145750Y-24954000D01*
X75633250Y-24954000D01*
X75657142Y-24955174D01*
G37*
G36*
X77532142Y-24955174D02*
G01*
X77555803Y-24958684D01*
X77579007Y-24964496D01*
X77601529Y-24972554D01*
X77623153Y-24982782D01*
X77643670Y-24995079D01*
X77662883Y-25009329D01*
X77680607Y-25025393D01*
X77696671Y-25043117D01*
X77710921Y-25062330D01*
X77723218Y-25082847D01*
X77733446Y-25104471D01*
X77741504Y-25126993D01*
X77747316Y-25150197D01*
X77750826Y-25173858D01*
X77752000Y-25197750D01*
X77752000Y-26110250D01*
X77750826Y-26134142D01*
X77747316Y-26157803D01*
X77741504Y-26181007D01*
X77733446Y-26203529D01*
X77723218Y-26225153D01*
X77710921Y-26245670D01*
X77696671Y-26264883D01*
X77680607Y-26282607D01*
X77662883Y-26298671D01*
X77643670Y-26312921D01*
X77623153Y-26325218D01*
X77601529Y-26335446D01*
X77579007Y-26343504D01*
X77555803Y-26349316D01*
X77532142Y-26352826D01*
X77508250Y-26354000D01*
X77020750Y-26354000D01*
X76996858Y-26352826D01*
X76973197Y-26349316D01*
X76949993Y-26343504D01*
X76927471Y-26335446D01*
X76905847Y-26325218D01*
X76885330Y-26312921D01*
X76866117Y-26298671D01*
X76848393Y-26282607D01*
X76832329Y-26264883D01*
X76818079Y-26245670D01*
X76805782Y-26225153D01*
X76795554Y-26203529D01*
X76787496Y-26181007D01*
X76781684Y-26157803D01*
X76778174Y-26134142D01*
X76777000Y-26110250D01*
X76777000Y-25197750D01*
X76778174Y-25173858D01*
X76781684Y-25150197D01*
X76787496Y-25126993D01*
X76795554Y-25104471D01*
X76805782Y-25082847D01*
X76818079Y-25062330D01*
X76832329Y-25043117D01*
X76848393Y-25025393D01*
X76866117Y-25009329D01*
X76885330Y-24995079D01*
X76905847Y-24982782D01*
X76927471Y-24972554D01*
X76949993Y-24964496D01*
X76973197Y-24958684D01*
X76996858Y-24955174D01*
X77020750Y-24954000D01*
X77508250Y-24954000D01*
X77532142Y-24955174D01*
G37*
G36*
X77532142Y-39687174D02*
G01*
X77555803Y-39690684D01*
X77579007Y-39696496D01*
X77601529Y-39704554D01*
X77623153Y-39714782D01*
X77643670Y-39727079D01*
X77662883Y-39741329D01*
X77680607Y-39757393D01*
X77696671Y-39775117D01*
X77710921Y-39794330D01*
X77723218Y-39814847D01*
X77733446Y-39836471D01*
X77741504Y-39858993D01*
X77747316Y-39882197D01*
X77750826Y-39905858D01*
X77752000Y-39929750D01*
X77752000Y-40842250D01*
X77750826Y-40866142D01*
X77747316Y-40889803D01*
X77741504Y-40913007D01*
X77733446Y-40935529D01*
X77723218Y-40957153D01*
X77710921Y-40977670D01*
X77696671Y-40996883D01*
X77680607Y-41014607D01*
X77662883Y-41030671D01*
X77643670Y-41044921D01*
X77623153Y-41057218D01*
X77601529Y-41067446D01*
X77579007Y-41075504D01*
X77555803Y-41081316D01*
X77532142Y-41084826D01*
X77508250Y-41086000D01*
X77020750Y-41086000D01*
X76996858Y-41084826D01*
X76973197Y-41081316D01*
X76949993Y-41075504D01*
X76927471Y-41067446D01*
X76905847Y-41057218D01*
X76885330Y-41044921D01*
X76866117Y-41030671D01*
X76848393Y-41014607D01*
X76832329Y-40996883D01*
X76818079Y-40977670D01*
X76805782Y-40957153D01*
X76795554Y-40935529D01*
X76787496Y-40913007D01*
X76781684Y-40889803D01*
X76778174Y-40866142D01*
X76777000Y-40842250D01*
X76777000Y-39929750D01*
X76778174Y-39905858D01*
X76781684Y-39882197D01*
X76787496Y-39858993D01*
X76795554Y-39836471D01*
X76805782Y-39814847D01*
X76818079Y-39794330D01*
X76832329Y-39775117D01*
X76848393Y-39757393D01*
X76866117Y-39741329D01*
X76885330Y-39727079D01*
X76905847Y-39714782D01*
X76927471Y-39704554D01*
X76949993Y-39696496D01*
X76973197Y-39690684D01*
X76996858Y-39687174D01*
X77020750Y-39686000D01*
X77508250Y-39686000D01*
X77532142Y-39687174D01*
G37*
G36*
X75657142Y-39687174D02*
G01*
X75680803Y-39690684D01*
X75704007Y-39696496D01*
X75726529Y-39704554D01*
X75748153Y-39714782D01*
X75768670Y-39727079D01*
X75787883Y-39741329D01*
X75805607Y-39757393D01*
X75821671Y-39775117D01*
X75835921Y-39794330D01*
X75848218Y-39814847D01*
X75858446Y-39836471D01*
X75866504Y-39858993D01*
X75872316Y-39882197D01*
X75875826Y-39905858D01*
X75877000Y-39929750D01*
X75877000Y-40842250D01*
X75875826Y-40866142D01*
X75872316Y-40889803D01*
X75866504Y-40913007D01*
X75858446Y-40935529D01*
X75848218Y-40957153D01*
X75835921Y-40977670D01*
X75821671Y-40996883D01*
X75805607Y-41014607D01*
X75787883Y-41030671D01*
X75768670Y-41044921D01*
X75748153Y-41057218D01*
X75726529Y-41067446D01*
X75704007Y-41075504D01*
X75680803Y-41081316D01*
X75657142Y-41084826D01*
X75633250Y-41086000D01*
X75145750Y-41086000D01*
X75121858Y-41084826D01*
X75098197Y-41081316D01*
X75074993Y-41075504D01*
X75052471Y-41067446D01*
X75030847Y-41057218D01*
X75010330Y-41044921D01*
X74991117Y-41030671D01*
X74973393Y-41014607D01*
X74957329Y-40996883D01*
X74943079Y-40977670D01*
X74930782Y-40957153D01*
X74920554Y-40935529D01*
X74912496Y-40913007D01*
X74906684Y-40889803D01*
X74903174Y-40866142D01*
X74902000Y-40842250D01*
X74902000Y-39929750D01*
X74903174Y-39905858D01*
X74906684Y-39882197D01*
X74912496Y-39858993D01*
X74920554Y-39836471D01*
X74930782Y-39814847D01*
X74943079Y-39794330D01*
X74957329Y-39775117D01*
X74973393Y-39757393D01*
X74991117Y-39741329D01*
X75010330Y-39727079D01*
X75030847Y-39714782D01*
X75052471Y-39704554D01*
X75074993Y-39696496D01*
X75098197Y-39690684D01*
X75121858Y-39687174D01*
X75145750Y-39686000D01*
X75633250Y-39686000D01*
X75657142Y-39687174D01*
G37*
M02*
