G04 #@! TF.GenerationSoftware,KiCad,Pcbnew,(5.1.5)-3*
G04 #@! TF.CreationDate,2020-04-28T22:18:00+02:00*
G04 #@! TF.ProjectId,czujnikParkowania,637a756a-6e69-46b5-9061-726b6f77616e,rev?*
G04 #@! TF.SameCoordinates,Original*
G04 #@! TF.FileFunction,Copper,L2,Bot*
G04 #@! TF.FilePolarity,Positive*
%FSLAX46Y46*%
G04 Gerber Fmt 4.6, Leading zero omitted, Abs format (unit mm)*
G04 Created by KiCad (PCBNEW (5.1.5)-3) date 2020-04-28 22:18:00*
%MOMM*%
%LPD*%
G04 APERTURE LIST*
%ADD10R,1.600000X1.600000*%
%ADD11O,1.600000X1.600000*%
%ADD12R,1.500000X1.500000*%
%ADD13C,1.500000*%
%ADD14C,1.524000*%
%ADD15R,1.524000X1.524000*%
%ADD16C,1.600000*%
%ADD17R,2.200000X2.200000*%
%ADD18O,2.200000X2.200000*%
%ADD19R,2.600000X2.600000*%
%ADD20C,2.600000*%
%ADD21R,1.905000X2.000000*%
%ADD22O,1.905000X2.000000*%
%ADD23C,0.800000*%
%ADD24C,0.250000*%
%ADD25C,0.500000*%
%ADD26C,0.254000*%
G04 APERTURE END LIST*
D10*
X56705500Y-51371500D03*
D11*
X23685500Y-66611500D03*
X54165500Y-51371500D03*
X26225500Y-66611500D03*
X51625500Y-51371500D03*
X28765500Y-66611500D03*
X49085500Y-51371500D03*
X31305500Y-66611500D03*
X46545500Y-51371500D03*
X33845500Y-66611500D03*
X44005500Y-51371500D03*
X36385500Y-66611500D03*
X41465500Y-51371500D03*
X38925500Y-66611500D03*
X38925500Y-51371500D03*
X41465500Y-66611500D03*
X36385500Y-51371500D03*
X44005500Y-66611500D03*
X33845500Y-51371500D03*
X46545500Y-66611500D03*
X31305500Y-51371500D03*
X49085500Y-66611500D03*
X28765500Y-51371500D03*
X51625500Y-66611500D03*
X26225500Y-51371500D03*
X54165500Y-66611500D03*
X23685500Y-51371500D03*
X56705500Y-66611500D03*
X21145500Y-51371500D03*
X21145500Y-66611500D03*
D12*
X25146000Y-38989000D03*
D13*
X27686000Y-38989000D03*
X30226000Y-38989000D03*
X32766000Y-38989000D03*
X35306000Y-38989000D03*
X37846000Y-38989000D03*
X40386000Y-38989000D03*
X42926000Y-38989000D03*
X45466000Y-38989000D03*
X45466000Y-23749000D03*
X42926000Y-23749000D03*
X40386000Y-23749000D03*
X37846000Y-23749000D03*
X35306000Y-23749000D03*
X32766000Y-23749000D03*
X30226000Y-23749000D03*
X27686000Y-23749000D03*
X25146000Y-23749000D03*
D14*
X60970000Y-37465000D03*
D15*
X68570000Y-37465000D03*
D10*
X61976000Y-77851000D03*
D16*
X61976000Y-79851000D03*
D10*
X75438000Y-76327000D03*
D16*
X75438000Y-78827000D03*
D17*
X53086000Y-84455000D03*
D18*
X42926000Y-84455000D03*
D16*
X42926000Y-80391000D03*
D11*
X37846000Y-80391000D03*
D19*
X28829000Y-83058000D03*
D20*
X28829000Y-77978000D03*
X28829000Y-72898000D03*
D21*
X63246000Y-72263000D03*
D22*
X65786000Y-72263000D03*
X68326000Y-72263000D03*
D14*
X69820000Y-20320000D03*
X72360000Y-20320000D03*
X74900000Y-20320000D03*
D15*
X67280000Y-20320000D03*
D23*
X54229000Y-64071500D03*
X83947000Y-57404000D03*
X65278000Y-47625000D03*
X61214000Y-47625000D03*
X57785000Y-63500000D03*
X55245000Y-53340000D03*
X51308000Y-76200000D03*
X38100000Y-28956000D03*
X46482000Y-36830000D03*
X53848000Y-36830000D03*
X50038000Y-30480000D03*
X76327000Y-69342000D03*
X72263000Y-69215000D03*
X47752000Y-61722000D03*
X31242000Y-64135000D03*
X18923000Y-64135000D03*
X30861000Y-59182000D03*
X30861000Y-42418000D03*
X24384000Y-42418000D03*
X56642000Y-55372000D03*
X56642000Y-58928000D03*
X52070000Y-53340000D03*
X65532000Y-56007000D03*
X62992000Y-53848000D03*
X45720000Y-69215000D03*
X50165000Y-69215000D03*
X50038000Y-25908000D03*
X51054000Y-36830000D03*
X38100000Y-32258000D03*
X51308000Y-72898000D03*
X50609500Y-61849000D03*
X55943500Y-60960000D03*
X47053500Y-48704500D03*
X54737000Y-60960000D03*
X49276000Y-56959500D03*
X48450500Y-57912000D03*
X47625000Y-58864500D03*
X26733500Y-52996000D03*
X46863000Y-57531000D03*
X46037500Y-59499500D03*
X24765000Y-56896000D03*
X25971500Y-54546500D03*
X22796500Y-46609000D03*
X21145500Y-49339500D03*
X53975000Y-33845500D03*
X42926000Y-33845500D03*
X33909000Y-30670500D03*
X32131000Y-58420000D03*
X33083500Y-46609000D03*
X25146000Y-26771600D03*
X33832800Y-26060400D03*
X53644800Y-40662800D03*
X51358800Y-40030400D03*
X41656000Y-22199600D03*
X37846000Y-22199600D03*
X40259000Y-34988500D03*
X37020500Y-34988500D03*
X28321000Y-36893500D03*
X31940500Y-36893500D03*
X39674800Y-41859200D03*
X37592000Y-41910000D03*
X57785000Y-41275000D03*
X59055000Y-60960000D03*
X59055000Y-55245000D03*
D24*
X54229000Y-51435000D02*
X54165500Y-51371500D01*
X67100501Y-64471499D02*
X67691000Y-63881000D01*
X54628999Y-64471499D02*
X67100501Y-64471499D01*
X54229000Y-64071500D02*
X54628999Y-64471499D01*
X67627500Y-64071500D02*
X67691000Y-63881000D01*
X67691000Y-63881000D02*
X73152000Y-58547000D01*
X54628999Y-63671501D02*
X54229000Y-64071500D01*
X56668501Y-61631999D02*
X54628999Y-63671501D01*
X56668501Y-60027503D02*
X56668501Y-61631999D01*
X54165500Y-57524502D02*
X56668501Y-60027503D01*
X54165500Y-51371500D02*
X54165500Y-57524502D01*
X73152000Y-58547000D02*
X82804000Y-58547000D01*
X82804000Y-58547000D02*
X83947000Y-57404000D01*
X65278000Y-47625000D02*
X61214000Y-47625000D01*
X55683002Y-53340000D02*
X55245000Y-53340000D01*
X57785000Y-63500000D02*
X57785000Y-55441998D01*
X57785000Y-55441998D02*
X55683002Y-53340000D01*
D25*
X72390000Y-69342000D02*
X72263000Y-69215000D01*
D24*
X54165500Y-66611500D02*
X50927000Y-63373000D01*
X50927000Y-63373000D02*
X49403000Y-63373000D01*
X49403000Y-63373000D02*
X47752000Y-61722000D01*
X30861000Y-63754000D02*
X31242000Y-64135000D01*
X30861000Y-59182000D02*
X30861000Y-63754000D01*
X30461001Y-42817999D02*
X30861000Y-42418000D01*
X24783999Y-42817999D02*
X30461001Y-42817999D01*
X24384000Y-42418000D02*
X24783999Y-42817999D01*
X56642000Y-58928000D02*
X56642000Y-55372000D01*
X45720000Y-69215000D02*
X50165000Y-69215000D01*
X51054000Y-36830000D02*
X53848000Y-36830000D01*
X51054000Y-36830000D02*
X46482000Y-36830000D01*
X51308000Y-72898000D02*
X51308000Y-76200000D01*
X46545500Y-53155998D02*
X46545500Y-51371500D01*
X50609500Y-61849000D02*
X50609500Y-57219998D01*
X50609500Y-57219998D02*
X46545500Y-53155998D01*
X55943500Y-60394315D02*
X50355500Y-54806315D01*
X55943500Y-60960000D02*
X55943500Y-60394315D01*
X50355500Y-54806315D02*
X50355500Y-50976498D01*
X50355500Y-50976498D02*
X50355500Y-49657000D01*
X50355500Y-49657000D02*
X49403000Y-48704500D01*
X49403000Y-48704500D02*
X47053500Y-48704500D01*
X41783000Y-49022000D02*
X41465500Y-49339500D01*
X54737000Y-60394315D02*
X47815500Y-53472815D01*
X54737000Y-60960000D02*
X54737000Y-60394315D01*
X41465500Y-49339500D02*
X41465500Y-51371500D01*
X45861002Y-49022000D02*
X41783000Y-49022000D01*
X47815500Y-53472815D02*
X47815500Y-50976498D01*
X47815500Y-50976498D02*
X45861002Y-49022000D01*
X48710315Y-56959500D02*
X44900315Y-53149500D01*
X49276000Y-56959500D02*
X48710315Y-56959500D01*
X35623500Y-53149500D02*
X33845500Y-51371500D01*
X44900315Y-53149500D02*
X35623500Y-53149500D01*
X48050501Y-57512001D02*
X48050501Y-57448501D01*
X48450500Y-57912000D02*
X48050501Y-57512001D01*
X48050501Y-57448501D02*
X44323000Y-53721000D01*
X33655000Y-53721000D02*
X31305500Y-51371500D01*
X44323000Y-53721000D02*
X33655000Y-53721000D01*
X47225001Y-58464501D02*
X44812001Y-58464501D01*
X47625000Y-58864500D02*
X47225001Y-58464501D01*
X44812001Y-58464501D02*
X42545000Y-56197500D01*
X42545000Y-56197500D02*
X27622500Y-56197500D01*
X27622500Y-56197500D02*
X26733500Y-55308500D01*
X26733500Y-55308500D02*
X26733500Y-52996000D01*
X28765500Y-48958500D02*
X28765500Y-51371500D01*
X29744501Y-47979499D02*
X28765500Y-48958500D01*
X49366001Y-47979499D02*
X29744501Y-47979499D01*
X56445030Y-40900470D02*
X49366001Y-47979499D01*
X72360000Y-21397630D02*
X72360000Y-20320000D01*
X72360000Y-22256410D02*
X72360000Y-21397630D01*
X56445030Y-38171380D02*
X72360000Y-22256410D01*
X56445030Y-40900470D02*
X56445030Y-38171380D01*
X46863000Y-57531000D02*
X43688000Y-54356000D01*
X29210000Y-54356000D02*
X26225500Y-51371500D01*
X43688000Y-54356000D02*
X29210000Y-54356000D01*
X26225500Y-48069500D02*
X26225500Y-51371500D01*
X55930800Y-40563800D02*
X48996600Y-47498000D01*
X26797000Y-47498000D02*
X26225500Y-48069500D01*
X48996600Y-47498000D02*
X26797000Y-47498000D01*
X69820000Y-20320000D02*
X69820000Y-24160000D01*
X55930800Y-38049200D02*
X55930800Y-40563800D01*
X69820000Y-24160000D02*
X55930800Y-38049200D01*
X45637501Y-59099501D02*
X44113501Y-59099501D01*
X46037500Y-59499500D02*
X45637501Y-59099501D01*
X44113501Y-59099501D02*
X43923001Y-59099501D01*
X43923001Y-59099501D02*
X41656000Y-56832500D01*
X41656000Y-56832500D02*
X24828500Y-56832500D01*
X24828500Y-56832500D02*
X24765000Y-56896000D01*
X25971500Y-53657500D02*
X25082500Y-52768500D01*
X25971500Y-54546500D02*
X25971500Y-53657500D01*
X25082500Y-52768500D02*
X23812500Y-52768500D01*
X23685500Y-52641500D02*
X23685500Y-51371500D01*
X23812500Y-52768500D02*
X23685500Y-52641500D01*
X22396501Y-47008999D02*
X22396501Y-48088499D01*
X22796500Y-46609000D02*
X22396501Y-47008999D01*
X22396501Y-48088499D02*
X21145500Y-49339500D01*
X53975000Y-33845500D02*
X42926000Y-33845500D01*
X33343315Y-30670500D02*
X30295315Y-33718500D01*
X33909000Y-30670500D02*
X33343315Y-30670500D01*
X30295315Y-33718500D02*
X23876000Y-33718500D01*
X23876000Y-33718500D02*
X19304000Y-38290500D01*
X19304000Y-38290500D02*
X19304000Y-56261000D01*
X19304000Y-56261000D02*
X21463000Y-58420000D01*
X21463000Y-58420000D02*
X32131000Y-58420000D01*
X34230999Y-38472999D02*
X34230999Y-45321801D01*
X35306000Y-23749000D02*
X35306000Y-37397998D01*
X35306000Y-37397998D02*
X34230999Y-38472999D01*
X34230999Y-45321801D02*
X34230999Y-45461501D01*
X34230999Y-45461501D02*
X33083500Y-46609000D01*
X25146000Y-26771600D02*
X33121600Y-26771600D01*
X33121600Y-26771600D02*
X33832800Y-26060400D01*
X53644800Y-40662800D02*
X51991200Y-40662800D01*
X51991200Y-40662800D02*
X51358800Y-40030400D01*
X41656000Y-22199600D02*
X37846000Y-22199600D01*
X40259000Y-34988500D02*
X37020500Y-34988500D01*
X28321000Y-36893500D02*
X31940500Y-36893500D01*
X40386000Y-24809660D02*
X41656000Y-26079660D01*
X40386000Y-23749000D02*
X40386000Y-24809660D01*
X41656000Y-26079660D02*
X41656000Y-39878000D01*
X41656000Y-39878000D02*
X39674800Y-41859200D01*
X40386000Y-39116000D02*
X40386000Y-38989000D01*
X37592000Y-41910000D02*
X40386000Y-39116000D01*
X57785000Y-41275000D02*
X57785000Y-48260000D01*
X56705500Y-49339500D02*
X56705500Y-51371500D01*
X57785000Y-48260000D02*
X56705500Y-49339500D01*
X59055000Y-60960000D02*
X59055000Y-55245000D01*
D26*
G36*
X88748000Y-88748000D02*
G01*
X15392000Y-88748000D01*
X15392000Y-81758000D01*
X26890928Y-81758000D01*
X26890928Y-84358000D01*
X26903188Y-84482482D01*
X26939498Y-84602180D01*
X26998463Y-84712494D01*
X27077815Y-84809185D01*
X27174506Y-84888537D01*
X27284820Y-84947502D01*
X27404518Y-84983812D01*
X27529000Y-84996072D01*
X30129000Y-84996072D01*
X30253482Y-84983812D01*
X30373180Y-84947502D01*
X30483494Y-84888537D01*
X30580185Y-84809185D01*
X30659537Y-84712494D01*
X30718502Y-84602180D01*
X30754812Y-84482482D01*
X30767072Y-84358000D01*
X30767072Y-84284117D01*
X41191000Y-84284117D01*
X41191000Y-84625883D01*
X41257675Y-84961081D01*
X41388463Y-85276831D01*
X41578337Y-85560998D01*
X41820002Y-85802663D01*
X42104169Y-85992537D01*
X42419919Y-86123325D01*
X42755117Y-86190000D01*
X43096883Y-86190000D01*
X43432081Y-86123325D01*
X43747831Y-85992537D01*
X44031998Y-85802663D01*
X44273663Y-85560998D01*
X44463537Y-85276831D01*
X44594325Y-84961081D01*
X44661000Y-84625883D01*
X44661000Y-84284117D01*
X44594325Y-83948919D01*
X44463537Y-83633169D01*
X44277671Y-83355000D01*
X51347928Y-83355000D01*
X51347928Y-85555000D01*
X51360188Y-85679482D01*
X51396498Y-85799180D01*
X51455463Y-85909494D01*
X51534815Y-86006185D01*
X51631506Y-86085537D01*
X51741820Y-86144502D01*
X51861518Y-86180812D01*
X51986000Y-86193072D01*
X54186000Y-86193072D01*
X54310482Y-86180812D01*
X54430180Y-86144502D01*
X54540494Y-86085537D01*
X54637185Y-86006185D01*
X54716537Y-85909494D01*
X54775502Y-85799180D01*
X54811812Y-85679482D01*
X54824072Y-85555000D01*
X54824072Y-83355000D01*
X54811812Y-83230518D01*
X54775502Y-83110820D01*
X54716537Y-83000506D01*
X54637185Y-82903815D01*
X54540494Y-82824463D01*
X54430180Y-82765498D01*
X54310482Y-82729188D01*
X54186000Y-82716928D01*
X51986000Y-82716928D01*
X51861518Y-82729188D01*
X51741820Y-82765498D01*
X51631506Y-82824463D01*
X51534815Y-82903815D01*
X51455463Y-83000506D01*
X51396498Y-83110820D01*
X51360188Y-83230518D01*
X51347928Y-83355000D01*
X44277671Y-83355000D01*
X44273663Y-83349002D01*
X44031998Y-83107337D01*
X43747831Y-82917463D01*
X43432081Y-82786675D01*
X43096883Y-82720000D01*
X42755117Y-82720000D01*
X42419919Y-82786675D01*
X42104169Y-82917463D01*
X41820002Y-83107337D01*
X41578337Y-83349002D01*
X41388463Y-83633169D01*
X41257675Y-83948919D01*
X41191000Y-84284117D01*
X30767072Y-84284117D01*
X30767072Y-81758000D01*
X30754812Y-81633518D01*
X30718502Y-81513820D01*
X30659537Y-81403506D01*
X30580185Y-81306815D01*
X30483494Y-81227463D01*
X30373180Y-81168498D01*
X30253482Y-81132188D01*
X30129000Y-81119928D01*
X27529000Y-81119928D01*
X27404518Y-81132188D01*
X27284820Y-81168498D01*
X27174506Y-81227463D01*
X27077815Y-81306815D01*
X26998463Y-81403506D01*
X26939498Y-81513820D01*
X26903188Y-81633518D01*
X26890928Y-81758000D01*
X15392000Y-81758000D01*
X15392000Y-80249665D01*
X36411000Y-80249665D01*
X36411000Y-80532335D01*
X36466147Y-80809574D01*
X36574320Y-81070727D01*
X36731363Y-81305759D01*
X36931241Y-81505637D01*
X37166273Y-81662680D01*
X37427426Y-81770853D01*
X37704665Y-81826000D01*
X37987335Y-81826000D01*
X38264574Y-81770853D01*
X38525727Y-81662680D01*
X38760759Y-81505637D01*
X38960637Y-81305759D01*
X39117680Y-81070727D01*
X39225853Y-80809574D01*
X39281000Y-80532335D01*
X39281000Y-80249665D01*
X41491000Y-80249665D01*
X41491000Y-80532335D01*
X41546147Y-80809574D01*
X41654320Y-81070727D01*
X41811363Y-81305759D01*
X42011241Y-81505637D01*
X42246273Y-81662680D01*
X42507426Y-81770853D01*
X42784665Y-81826000D01*
X43067335Y-81826000D01*
X43344574Y-81770853D01*
X43605727Y-81662680D01*
X43840759Y-81505637D01*
X44040637Y-81305759D01*
X44197680Y-81070727D01*
X44291716Y-80843702D01*
X61162903Y-80843702D01*
X61234486Y-81087671D01*
X61489996Y-81208571D01*
X61764184Y-81277300D01*
X62046512Y-81291217D01*
X62326130Y-81249787D01*
X62592292Y-81154603D01*
X62717514Y-81087671D01*
X62789097Y-80843702D01*
X61976000Y-80030605D01*
X61162903Y-80843702D01*
X44291716Y-80843702D01*
X44305853Y-80809574D01*
X44361000Y-80532335D01*
X44361000Y-80249665D01*
X44305853Y-79972426D01*
X44284764Y-79921512D01*
X60535783Y-79921512D01*
X60577213Y-80201130D01*
X60672397Y-80467292D01*
X60739329Y-80592514D01*
X60983298Y-80664097D01*
X61796395Y-79851000D01*
X61782253Y-79836858D01*
X61961858Y-79657253D01*
X61976000Y-79671395D01*
X61990143Y-79657253D01*
X62169748Y-79836858D01*
X62155605Y-79851000D01*
X62968702Y-80664097D01*
X63212671Y-80592514D01*
X63333571Y-80337004D01*
X63402300Y-80062816D01*
X63414283Y-79819702D01*
X74624903Y-79819702D01*
X74696486Y-80063671D01*
X74951996Y-80184571D01*
X75226184Y-80253300D01*
X75508512Y-80267217D01*
X75788130Y-80225787D01*
X76054292Y-80130603D01*
X76179514Y-80063671D01*
X76251097Y-79819702D01*
X75438000Y-79006605D01*
X74624903Y-79819702D01*
X63414283Y-79819702D01*
X63416217Y-79780488D01*
X63374787Y-79500870D01*
X63279603Y-79234708D01*
X63214384Y-79112691D01*
X63227185Y-79102185D01*
X63306537Y-79005494D01*
X63364255Y-78897512D01*
X73997783Y-78897512D01*
X74039213Y-79177130D01*
X74134397Y-79443292D01*
X74201329Y-79568514D01*
X74445298Y-79640097D01*
X75258395Y-78827000D01*
X75617605Y-78827000D01*
X76430702Y-79640097D01*
X76674671Y-79568514D01*
X76795571Y-79313004D01*
X76864300Y-79038816D01*
X76878217Y-78756488D01*
X76836787Y-78476870D01*
X76741603Y-78210708D01*
X76674671Y-78085486D01*
X76430702Y-78013903D01*
X75617605Y-78827000D01*
X75258395Y-78827000D01*
X74445298Y-78013903D01*
X74201329Y-78085486D01*
X74080429Y-78340996D01*
X74011700Y-78615184D01*
X73997783Y-78897512D01*
X63364255Y-78897512D01*
X63365502Y-78895180D01*
X63401812Y-78775482D01*
X63414072Y-78651000D01*
X63414072Y-77051000D01*
X63401812Y-76926518D01*
X63365502Y-76806820D01*
X63306537Y-76696506D01*
X63227185Y-76599815D01*
X63130494Y-76520463D01*
X63020180Y-76461498D01*
X62900482Y-76425188D01*
X62776000Y-76412928D01*
X61176000Y-76412928D01*
X61051518Y-76425188D01*
X60931820Y-76461498D01*
X60821506Y-76520463D01*
X60724815Y-76599815D01*
X60645463Y-76696506D01*
X60586498Y-76806820D01*
X60550188Y-76926518D01*
X60537928Y-77051000D01*
X60537928Y-78651000D01*
X60550188Y-78775482D01*
X60586498Y-78895180D01*
X60645463Y-79005494D01*
X60724815Y-79102185D01*
X60737758Y-79112807D01*
X60618429Y-79364996D01*
X60549700Y-79639184D01*
X60535783Y-79921512D01*
X44284764Y-79921512D01*
X44197680Y-79711273D01*
X44040637Y-79476241D01*
X43840759Y-79276363D01*
X43605727Y-79119320D01*
X43344574Y-79011147D01*
X43067335Y-78956000D01*
X42784665Y-78956000D01*
X42507426Y-79011147D01*
X42246273Y-79119320D01*
X42011241Y-79276363D01*
X41811363Y-79476241D01*
X41654320Y-79711273D01*
X41546147Y-79972426D01*
X41491000Y-80249665D01*
X39281000Y-80249665D01*
X39225853Y-79972426D01*
X39117680Y-79711273D01*
X38960637Y-79476241D01*
X38760759Y-79276363D01*
X38525727Y-79119320D01*
X38264574Y-79011147D01*
X37987335Y-78956000D01*
X37704665Y-78956000D01*
X37427426Y-79011147D01*
X37166273Y-79119320D01*
X36931241Y-79276363D01*
X36731363Y-79476241D01*
X36574320Y-79711273D01*
X36466147Y-79972426D01*
X36411000Y-80249665D01*
X15392000Y-80249665D01*
X15392000Y-79327224D01*
X27659381Y-79327224D01*
X27791317Y-79622312D01*
X28132045Y-79793159D01*
X28499557Y-79894250D01*
X28879729Y-79921701D01*
X29257951Y-79874457D01*
X29619690Y-79754333D01*
X29866683Y-79622312D01*
X29998619Y-79327224D01*
X28829000Y-78157605D01*
X27659381Y-79327224D01*
X15392000Y-79327224D01*
X15392000Y-78028729D01*
X26885299Y-78028729D01*
X26932543Y-78406951D01*
X27052667Y-78768690D01*
X27184688Y-79015683D01*
X27479776Y-79147619D01*
X28649395Y-77978000D01*
X29008605Y-77978000D01*
X30178224Y-79147619D01*
X30473312Y-79015683D01*
X30644159Y-78674955D01*
X30745250Y-78307443D01*
X30772701Y-77927271D01*
X30725457Y-77549049D01*
X30605333Y-77187310D01*
X30473312Y-76940317D01*
X30178224Y-76808381D01*
X29008605Y-77978000D01*
X28649395Y-77978000D01*
X27479776Y-76808381D01*
X27184688Y-76940317D01*
X27013841Y-77281045D01*
X26912750Y-77648557D01*
X26885299Y-78028729D01*
X15392000Y-78028729D01*
X15392000Y-76628776D01*
X27659381Y-76628776D01*
X28829000Y-77798395D01*
X29998619Y-76628776D01*
X29866683Y-76333688D01*
X29525955Y-76162841D01*
X29158443Y-76061750D01*
X28778271Y-76034299D01*
X28400049Y-76081543D01*
X28038310Y-76201667D01*
X27791317Y-76333688D01*
X27659381Y-76628776D01*
X15392000Y-76628776D01*
X15392000Y-75527000D01*
X73999928Y-75527000D01*
X73999928Y-77127000D01*
X74012188Y-77251482D01*
X74048498Y-77371180D01*
X74107463Y-77481494D01*
X74186815Y-77578185D01*
X74283506Y-77657537D01*
X74393820Y-77716502D01*
X74513518Y-77752812D01*
X74638000Y-77765072D01*
X74645215Y-77765072D01*
X74624903Y-77834298D01*
X75438000Y-78647395D01*
X76251097Y-77834298D01*
X76230785Y-77765072D01*
X76238000Y-77765072D01*
X76362482Y-77752812D01*
X76482180Y-77716502D01*
X76592494Y-77657537D01*
X76689185Y-77578185D01*
X76768537Y-77481494D01*
X76827502Y-77371180D01*
X76863812Y-77251482D01*
X76876072Y-77127000D01*
X76876072Y-75527000D01*
X76863812Y-75402518D01*
X76827502Y-75282820D01*
X76768537Y-75172506D01*
X76689185Y-75075815D01*
X76592494Y-74996463D01*
X76482180Y-74937498D01*
X76362482Y-74901188D01*
X76238000Y-74888928D01*
X74638000Y-74888928D01*
X74513518Y-74901188D01*
X74393820Y-74937498D01*
X74283506Y-74996463D01*
X74186815Y-75075815D01*
X74107463Y-75172506D01*
X74048498Y-75282820D01*
X74012188Y-75402518D01*
X73999928Y-75527000D01*
X15392000Y-75527000D01*
X15392000Y-72707419D01*
X26894000Y-72707419D01*
X26894000Y-73088581D01*
X26968361Y-73462419D01*
X27114225Y-73814566D01*
X27325987Y-74131491D01*
X27595509Y-74401013D01*
X27912434Y-74612775D01*
X28264581Y-74758639D01*
X28638419Y-74833000D01*
X29019581Y-74833000D01*
X29393419Y-74758639D01*
X29745566Y-74612775D01*
X30062491Y-74401013D01*
X30332013Y-74131491D01*
X30543775Y-73814566D01*
X30689639Y-73462419D01*
X30764000Y-73088581D01*
X30764000Y-72707419D01*
X30689639Y-72333581D01*
X30543775Y-71981434D01*
X30332013Y-71664509D01*
X30062491Y-71394987D01*
X29864959Y-71263000D01*
X61655428Y-71263000D01*
X61655428Y-73263000D01*
X61667688Y-73387482D01*
X61703998Y-73507180D01*
X61762963Y-73617494D01*
X61842315Y-73714185D01*
X61939006Y-73793537D01*
X62049320Y-73852502D01*
X62169018Y-73888812D01*
X62293500Y-73901072D01*
X64198500Y-73901072D01*
X64322982Y-73888812D01*
X64442680Y-73852502D01*
X64552994Y-73793537D01*
X64649685Y-73714185D01*
X64729037Y-73617494D01*
X64778059Y-73525781D01*
X64919077Y-73638969D01*
X65194906Y-73782571D01*
X65413020Y-73853563D01*
X65659000Y-73733594D01*
X65659000Y-72390000D01*
X65639000Y-72390000D01*
X65639000Y-72136000D01*
X65659000Y-72136000D01*
X65659000Y-70792406D01*
X65913000Y-70792406D01*
X65913000Y-72136000D01*
X65933000Y-72136000D01*
X65933000Y-72390000D01*
X65913000Y-72390000D01*
X65913000Y-73733594D01*
X66158980Y-73853563D01*
X66377094Y-73782571D01*
X66652923Y-73638969D01*
X66895437Y-73444315D01*
X67050837Y-73259101D01*
X67198037Y-73438463D01*
X67439766Y-73636845D01*
X67715552Y-73784255D01*
X68014797Y-73875030D01*
X68326000Y-73905681D01*
X68637204Y-73875030D01*
X68936449Y-73784255D01*
X69212235Y-73636845D01*
X69453963Y-73438463D01*
X69652345Y-73196734D01*
X69799755Y-72920948D01*
X69890530Y-72621703D01*
X69913500Y-72388485D01*
X69913500Y-72137514D01*
X69890530Y-71904296D01*
X69799755Y-71605051D01*
X69652345Y-71329265D01*
X69453963Y-71087537D01*
X69212234Y-70889155D01*
X68936448Y-70741745D01*
X68637203Y-70650970D01*
X68326000Y-70620319D01*
X68014796Y-70650970D01*
X67715551Y-70741745D01*
X67439765Y-70889155D01*
X67198037Y-71087537D01*
X67050838Y-71266900D01*
X66895437Y-71081685D01*
X66652923Y-70887031D01*
X66377094Y-70743429D01*
X66158980Y-70672437D01*
X65913000Y-70792406D01*
X65659000Y-70792406D01*
X65413020Y-70672437D01*
X65194906Y-70743429D01*
X64919077Y-70887031D01*
X64778059Y-71000219D01*
X64729037Y-70908506D01*
X64649685Y-70811815D01*
X64552994Y-70732463D01*
X64442680Y-70673498D01*
X64322982Y-70637188D01*
X64198500Y-70624928D01*
X62293500Y-70624928D01*
X62169018Y-70637188D01*
X62049320Y-70673498D01*
X61939006Y-70732463D01*
X61842315Y-70811815D01*
X61762963Y-70908506D01*
X61703998Y-71018820D01*
X61667688Y-71138518D01*
X61655428Y-71263000D01*
X29864959Y-71263000D01*
X29745566Y-71183225D01*
X29393419Y-71037361D01*
X29019581Y-70963000D01*
X28638419Y-70963000D01*
X28264581Y-71037361D01*
X27912434Y-71183225D01*
X27595509Y-71394987D01*
X27325987Y-71664509D01*
X27114225Y-71981434D01*
X26968361Y-72333581D01*
X26894000Y-72707419D01*
X15392000Y-72707419D01*
X15392000Y-66470165D01*
X19710500Y-66470165D01*
X19710500Y-66752835D01*
X19765647Y-67030074D01*
X19873820Y-67291227D01*
X20030863Y-67526259D01*
X20230741Y-67726137D01*
X20465773Y-67883180D01*
X20726926Y-67991353D01*
X21004165Y-68046500D01*
X21286835Y-68046500D01*
X21564074Y-67991353D01*
X21825227Y-67883180D01*
X22060259Y-67726137D01*
X22260137Y-67526259D01*
X22415500Y-67293741D01*
X22570863Y-67526259D01*
X22770741Y-67726137D01*
X23005773Y-67883180D01*
X23266926Y-67991353D01*
X23544165Y-68046500D01*
X23826835Y-68046500D01*
X24104074Y-67991353D01*
X24365227Y-67883180D01*
X24600259Y-67726137D01*
X24800137Y-67526259D01*
X24955500Y-67293741D01*
X25110863Y-67526259D01*
X25310741Y-67726137D01*
X25545773Y-67883180D01*
X25806926Y-67991353D01*
X26084165Y-68046500D01*
X26366835Y-68046500D01*
X26644074Y-67991353D01*
X26905227Y-67883180D01*
X27140259Y-67726137D01*
X27340137Y-67526259D01*
X27495500Y-67293741D01*
X27650863Y-67526259D01*
X27850741Y-67726137D01*
X28085773Y-67883180D01*
X28346926Y-67991353D01*
X28624165Y-68046500D01*
X28906835Y-68046500D01*
X29184074Y-67991353D01*
X29445227Y-67883180D01*
X29680259Y-67726137D01*
X29880137Y-67526259D01*
X30035500Y-67293741D01*
X30190863Y-67526259D01*
X30390741Y-67726137D01*
X30625773Y-67883180D01*
X30886926Y-67991353D01*
X31164165Y-68046500D01*
X31446835Y-68046500D01*
X31724074Y-67991353D01*
X31985227Y-67883180D01*
X32220259Y-67726137D01*
X32420137Y-67526259D01*
X32575500Y-67293741D01*
X32730863Y-67526259D01*
X32930741Y-67726137D01*
X33165773Y-67883180D01*
X33426926Y-67991353D01*
X33704165Y-68046500D01*
X33986835Y-68046500D01*
X34264074Y-67991353D01*
X34525227Y-67883180D01*
X34760259Y-67726137D01*
X34960137Y-67526259D01*
X35115500Y-67293741D01*
X35270863Y-67526259D01*
X35470741Y-67726137D01*
X35705773Y-67883180D01*
X35966926Y-67991353D01*
X36244165Y-68046500D01*
X36526835Y-68046500D01*
X36804074Y-67991353D01*
X37065227Y-67883180D01*
X37300259Y-67726137D01*
X37500137Y-67526259D01*
X37655500Y-67293741D01*
X37810863Y-67526259D01*
X38010741Y-67726137D01*
X38245773Y-67883180D01*
X38506926Y-67991353D01*
X38784165Y-68046500D01*
X39066835Y-68046500D01*
X39344074Y-67991353D01*
X39605227Y-67883180D01*
X39840259Y-67726137D01*
X40040137Y-67526259D01*
X40195500Y-67293741D01*
X40350863Y-67526259D01*
X40550741Y-67726137D01*
X40785773Y-67883180D01*
X41046926Y-67991353D01*
X41324165Y-68046500D01*
X41606835Y-68046500D01*
X41884074Y-67991353D01*
X42145227Y-67883180D01*
X42380259Y-67726137D01*
X42580137Y-67526259D01*
X42735500Y-67293741D01*
X42890863Y-67526259D01*
X43090741Y-67726137D01*
X43325773Y-67883180D01*
X43586926Y-67991353D01*
X43864165Y-68046500D01*
X44146835Y-68046500D01*
X44424074Y-67991353D01*
X44685227Y-67883180D01*
X44920259Y-67726137D01*
X45120137Y-67526259D01*
X45275500Y-67293741D01*
X45430863Y-67526259D01*
X45630741Y-67726137D01*
X45865773Y-67883180D01*
X46126926Y-67991353D01*
X46404165Y-68046500D01*
X46686835Y-68046500D01*
X46964074Y-67991353D01*
X47225227Y-67883180D01*
X47460259Y-67726137D01*
X47660137Y-67526259D01*
X47815500Y-67293741D01*
X47970863Y-67526259D01*
X48170741Y-67726137D01*
X48405773Y-67883180D01*
X48666926Y-67991353D01*
X48944165Y-68046500D01*
X49226835Y-68046500D01*
X49504074Y-67991353D01*
X49765227Y-67883180D01*
X50000259Y-67726137D01*
X50200137Y-67526259D01*
X50355500Y-67293741D01*
X50510863Y-67526259D01*
X50710741Y-67726137D01*
X50945773Y-67883180D01*
X51206926Y-67991353D01*
X51484165Y-68046500D01*
X51766835Y-68046500D01*
X52044074Y-67991353D01*
X52305227Y-67883180D01*
X52540259Y-67726137D01*
X52740137Y-67526259D01*
X52897180Y-67291227D01*
X52901567Y-67280635D01*
X53013115Y-67466631D01*
X53202086Y-67675019D01*
X53428080Y-67842537D01*
X53682413Y-67962746D01*
X53816461Y-68003404D01*
X54038500Y-67881415D01*
X54038500Y-66738500D01*
X54018500Y-66738500D01*
X54018500Y-66484500D01*
X54038500Y-66484500D01*
X54038500Y-65341585D01*
X53816461Y-65219596D01*
X53682413Y-65260254D01*
X53428080Y-65380463D01*
X53202086Y-65547981D01*
X53013115Y-65756369D01*
X52901567Y-65942365D01*
X52897180Y-65931773D01*
X52740137Y-65696741D01*
X52540259Y-65496863D01*
X52305227Y-65339820D01*
X52044074Y-65231647D01*
X51766835Y-65176500D01*
X51484165Y-65176500D01*
X51206926Y-65231647D01*
X50945773Y-65339820D01*
X50710741Y-65496863D01*
X50510863Y-65696741D01*
X50355500Y-65929259D01*
X50200137Y-65696741D01*
X50000259Y-65496863D01*
X49765227Y-65339820D01*
X49504074Y-65231647D01*
X49226835Y-65176500D01*
X48944165Y-65176500D01*
X48666926Y-65231647D01*
X48405773Y-65339820D01*
X48170741Y-65496863D01*
X47970863Y-65696741D01*
X47815500Y-65929259D01*
X47660137Y-65696741D01*
X47460259Y-65496863D01*
X47225227Y-65339820D01*
X46964074Y-65231647D01*
X46686835Y-65176500D01*
X46404165Y-65176500D01*
X46126926Y-65231647D01*
X45865773Y-65339820D01*
X45630741Y-65496863D01*
X45430863Y-65696741D01*
X45275500Y-65929259D01*
X45120137Y-65696741D01*
X44920259Y-65496863D01*
X44685227Y-65339820D01*
X44424074Y-65231647D01*
X44146835Y-65176500D01*
X43864165Y-65176500D01*
X43586926Y-65231647D01*
X43325773Y-65339820D01*
X43090741Y-65496863D01*
X42890863Y-65696741D01*
X42735500Y-65929259D01*
X42580137Y-65696741D01*
X42380259Y-65496863D01*
X42145227Y-65339820D01*
X41884074Y-65231647D01*
X41606835Y-65176500D01*
X41324165Y-65176500D01*
X41046926Y-65231647D01*
X40785773Y-65339820D01*
X40550741Y-65496863D01*
X40350863Y-65696741D01*
X40195500Y-65929259D01*
X40040137Y-65696741D01*
X39840259Y-65496863D01*
X39605227Y-65339820D01*
X39344074Y-65231647D01*
X39066835Y-65176500D01*
X38784165Y-65176500D01*
X38506926Y-65231647D01*
X38245773Y-65339820D01*
X38010741Y-65496863D01*
X37810863Y-65696741D01*
X37655500Y-65929259D01*
X37500137Y-65696741D01*
X37300259Y-65496863D01*
X37065227Y-65339820D01*
X36804074Y-65231647D01*
X36526835Y-65176500D01*
X36244165Y-65176500D01*
X35966926Y-65231647D01*
X35705773Y-65339820D01*
X35470741Y-65496863D01*
X35270863Y-65696741D01*
X35115500Y-65929259D01*
X34960137Y-65696741D01*
X34760259Y-65496863D01*
X34525227Y-65339820D01*
X34264074Y-65231647D01*
X33986835Y-65176500D01*
X33704165Y-65176500D01*
X33426926Y-65231647D01*
X33165773Y-65339820D01*
X32930741Y-65496863D01*
X32730863Y-65696741D01*
X32575500Y-65929259D01*
X32420137Y-65696741D01*
X32220259Y-65496863D01*
X31985227Y-65339820D01*
X31724074Y-65231647D01*
X31446835Y-65176500D01*
X31164165Y-65176500D01*
X30886926Y-65231647D01*
X30625773Y-65339820D01*
X30390741Y-65496863D01*
X30190863Y-65696741D01*
X30035500Y-65929259D01*
X29880137Y-65696741D01*
X29680259Y-65496863D01*
X29445227Y-65339820D01*
X29184074Y-65231647D01*
X28906835Y-65176500D01*
X28624165Y-65176500D01*
X28346926Y-65231647D01*
X28085773Y-65339820D01*
X27850741Y-65496863D01*
X27650863Y-65696741D01*
X27495500Y-65929259D01*
X27340137Y-65696741D01*
X27140259Y-65496863D01*
X26905227Y-65339820D01*
X26644074Y-65231647D01*
X26366835Y-65176500D01*
X26084165Y-65176500D01*
X25806926Y-65231647D01*
X25545773Y-65339820D01*
X25310741Y-65496863D01*
X25110863Y-65696741D01*
X24955500Y-65929259D01*
X24800137Y-65696741D01*
X24600259Y-65496863D01*
X24365227Y-65339820D01*
X24104074Y-65231647D01*
X23826835Y-65176500D01*
X23544165Y-65176500D01*
X23266926Y-65231647D01*
X23005773Y-65339820D01*
X22770741Y-65496863D01*
X22570863Y-65696741D01*
X22415500Y-65929259D01*
X22260137Y-65696741D01*
X22060259Y-65496863D01*
X21825227Y-65339820D01*
X21564074Y-65231647D01*
X21286835Y-65176500D01*
X21004165Y-65176500D01*
X20726926Y-65231647D01*
X20465773Y-65339820D01*
X20230741Y-65496863D01*
X20030863Y-65696741D01*
X19873820Y-65931773D01*
X19765647Y-66192926D01*
X19710500Y-66470165D01*
X15392000Y-66470165D01*
X15392000Y-38290500D01*
X18540324Y-38290500D01*
X18544000Y-38327822D01*
X18544001Y-56223667D01*
X18540324Y-56261000D01*
X18544001Y-56298333D01*
X18554825Y-56408224D01*
X18554998Y-56409985D01*
X18598454Y-56553246D01*
X18669026Y-56685276D01*
X18737759Y-56769026D01*
X18764000Y-56801001D01*
X18792998Y-56824799D01*
X20899201Y-58931003D01*
X20922999Y-58960001D01*
X20951997Y-58983799D01*
X21038723Y-59054974D01*
X21170753Y-59125546D01*
X21314014Y-59169003D01*
X21425667Y-59180000D01*
X21425676Y-59180000D01*
X21462999Y-59183676D01*
X21500322Y-59180000D01*
X31427289Y-59180000D01*
X31471226Y-59223937D01*
X31640744Y-59337205D01*
X31829102Y-59415226D01*
X32029061Y-59455000D01*
X32232939Y-59455000D01*
X32432898Y-59415226D01*
X32621256Y-59337205D01*
X32790774Y-59223937D01*
X32934937Y-59079774D01*
X33048205Y-58910256D01*
X33126226Y-58721898D01*
X33166000Y-58521939D01*
X33166000Y-58318061D01*
X33126226Y-58118102D01*
X33048205Y-57929744D01*
X32934937Y-57760226D01*
X32790774Y-57616063D01*
X32755509Y-57592500D01*
X41341199Y-57592500D01*
X43359201Y-59610503D01*
X43383000Y-59639502D01*
X43411998Y-59663300D01*
X43498725Y-59734475D01*
X43630754Y-59805047D01*
X43774015Y-59848504D01*
X43923001Y-59863178D01*
X43960334Y-59859501D01*
X45066341Y-59859501D01*
X45120295Y-59989756D01*
X45233563Y-60159274D01*
X45377726Y-60303437D01*
X45547244Y-60416705D01*
X45735602Y-60494726D01*
X45935561Y-60534500D01*
X46139439Y-60534500D01*
X46339398Y-60494726D01*
X46527756Y-60416705D01*
X46697274Y-60303437D01*
X46841437Y-60159274D01*
X46954705Y-59989756D01*
X47032726Y-59801398D01*
X47048152Y-59723846D01*
X47134744Y-59781705D01*
X47323102Y-59859726D01*
X47523061Y-59899500D01*
X47726939Y-59899500D01*
X47926898Y-59859726D01*
X48115256Y-59781705D01*
X48284774Y-59668437D01*
X48428937Y-59524274D01*
X48542205Y-59354756D01*
X48620226Y-59166398D01*
X48660000Y-58966439D01*
X48660000Y-58925605D01*
X48752398Y-58907226D01*
X48940756Y-58829205D01*
X49110274Y-58715937D01*
X49254437Y-58571774D01*
X49367705Y-58402256D01*
X49445726Y-58213898D01*
X49485500Y-58013939D01*
X49485500Y-57973105D01*
X49577898Y-57954726D01*
X49766256Y-57876705D01*
X49849501Y-57821083D01*
X49849500Y-61145289D01*
X49805563Y-61189226D01*
X49692295Y-61358744D01*
X49614274Y-61547102D01*
X49574500Y-61747061D01*
X49574500Y-61950939D01*
X49614274Y-62150898D01*
X49692295Y-62339256D01*
X49805563Y-62508774D01*
X49949726Y-62652937D01*
X50119244Y-62766205D01*
X50307602Y-62844226D01*
X50507561Y-62884000D01*
X50711439Y-62884000D01*
X50911398Y-62844226D01*
X51099756Y-62766205D01*
X51269274Y-62652937D01*
X51413437Y-62508774D01*
X51526705Y-62339256D01*
X51604726Y-62150898D01*
X51644500Y-61950939D01*
X51644500Y-61747061D01*
X51604726Y-61547102D01*
X51526705Y-61358744D01*
X51413437Y-61189226D01*
X51369500Y-61145289D01*
X51369500Y-58101617D01*
X53795728Y-60527845D01*
X53741774Y-60658102D01*
X53702000Y-60858061D01*
X53702000Y-61061939D01*
X53741774Y-61261898D01*
X53819795Y-61450256D01*
X53933063Y-61619774D01*
X54077226Y-61763937D01*
X54246744Y-61877205D01*
X54435102Y-61955226D01*
X54635061Y-61995000D01*
X54838939Y-61995000D01*
X55038898Y-61955226D01*
X55227256Y-61877205D01*
X55340250Y-61801705D01*
X55390450Y-61835248D01*
X54189199Y-63036500D01*
X54127061Y-63036500D01*
X53927102Y-63076274D01*
X53738744Y-63154295D01*
X53569226Y-63267563D01*
X53425063Y-63411726D01*
X53311795Y-63581244D01*
X53233774Y-63769602D01*
X53194000Y-63969561D01*
X53194000Y-64173439D01*
X53233774Y-64373398D01*
X53311795Y-64561756D01*
X53425063Y-64731274D01*
X53569226Y-64875437D01*
X53738744Y-64988705D01*
X53927102Y-65066726D01*
X54127061Y-65106500D01*
X54204774Y-65106500D01*
X54336752Y-65177045D01*
X54480013Y-65220502D01*
X54507892Y-65223248D01*
X54292500Y-65341585D01*
X54292500Y-66484500D01*
X54312500Y-66484500D01*
X54312500Y-66738500D01*
X54292500Y-66738500D01*
X54292500Y-67881415D01*
X54514539Y-68003404D01*
X54648587Y-67962746D01*
X54902920Y-67842537D01*
X55128914Y-67675019D01*
X55317885Y-67466631D01*
X55429433Y-67280635D01*
X55433820Y-67291227D01*
X55590863Y-67526259D01*
X55790741Y-67726137D01*
X56025773Y-67883180D01*
X56286926Y-67991353D01*
X56564165Y-68046500D01*
X56846835Y-68046500D01*
X57124074Y-67991353D01*
X57385227Y-67883180D01*
X57620259Y-67726137D01*
X57820137Y-67526259D01*
X57977180Y-67291227D01*
X58085353Y-67030074D01*
X58140500Y-66752835D01*
X58140500Y-66470165D01*
X58085353Y-66192926D01*
X57977180Y-65931773D01*
X57820137Y-65696741D01*
X57620259Y-65496863D01*
X57385227Y-65339820D01*
X57124074Y-65231647D01*
X57123330Y-65231499D01*
X67063179Y-65231499D01*
X67100501Y-65235175D01*
X67137823Y-65231499D01*
X67137834Y-65231499D01*
X67249487Y-65220502D01*
X67392748Y-65177045D01*
X67524777Y-65106473D01*
X67640502Y-65011500D01*
X67664304Y-64982497D01*
X67844656Y-64802145D01*
X67969026Y-64754553D01*
X68095721Y-64674799D01*
X68204423Y-64571863D01*
X68290953Y-64449696D01*
X68336693Y-64347250D01*
X68353770Y-64296020D01*
X73461577Y-59307000D01*
X82766678Y-59307000D01*
X82804000Y-59310676D01*
X82841322Y-59307000D01*
X82841333Y-59307000D01*
X82952986Y-59296003D01*
X83096247Y-59252546D01*
X83228276Y-59181974D01*
X83344001Y-59087001D01*
X83367804Y-59057998D01*
X83986802Y-58439000D01*
X84048939Y-58439000D01*
X84248898Y-58399226D01*
X84437256Y-58321205D01*
X84606774Y-58207937D01*
X84750937Y-58063774D01*
X84864205Y-57894256D01*
X84942226Y-57705898D01*
X84982000Y-57505939D01*
X84982000Y-57302061D01*
X84942226Y-57102102D01*
X84864205Y-56913744D01*
X84750937Y-56744226D01*
X84606774Y-56600063D01*
X84437256Y-56486795D01*
X84248898Y-56408774D01*
X84048939Y-56369000D01*
X83845061Y-56369000D01*
X83645102Y-56408774D01*
X83456744Y-56486795D01*
X83287226Y-56600063D01*
X83143063Y-56744226D01*
X83029795Y-56913744D01*
X82951774Y-57102102D01*
X82912000Y-57302061D01*
X82912000Y-57364198D01*
X82489199Y-57787000D01*
X73193806Y-57787000D01*
X73160983Y-57783377D01*
X73119159Y-57787000D01*
X73114667Y-57787000D01*
X73081876Y-57790230D01*
X73011835Y-57796297D01*
X73007507Y-57797554D01*
X73003014Y-57797997D01*
X72935637Y-57818435D01*
X72868073Y-57838065D01*
X72864070Y-57840144D01*
X72859753Y-57841454D01*
X72797671Y-57874638D01*
X72735223Y-57907079D01*
X72731703Y-57909899D01*
X72727724Y-57912026D01*
X72673296Y-57956694D01*
X72647665Y-57977229D01*
X72644463Y-57980356D01*
X72611999Y-58006999D01*
X72591042Y-58032535D01*
X67183464Y-63314356D01*
X67179997Y-63317201D01*
X67160904Y-63336294D01*
X67114078Y-63380637D01*
X67108049Y-63389150D01*
X66785700Y-63711499D01*
X58798207Y-63711499D01*
X58820000Y-63601939D01*
X58820000Y-63398061D01*
X58780226Y-63198102D01*
X58702205Y-63009744D01*
X58588937Y-62840226D01*
X58545000Y-62796289D01*
X58545000Y-61864013D01*
X58564744Y-61877205D01*
X58753102Y-61955226D01*
X58953061Y-61995000D01*
X59156939Y-61995000D01*
X59356898Y-61955226D01*
X59545256Y-61877205D01*
X59714774Y-61763937D01*
X59858937Y-61619774D01*
X59972205Y-61450256D01*
X60050226Y-61261898D01*
X60090000Y-61061939D01*
X60090000Y-60858061D01*
X60050226Y-60658102D01*
X59972205Y-60469744D01*
X59858937Y-60300226D01*
X59815000Y-60256289D01*
X59815000Y-55948711D01*
X59858937Y-55904774D01*
X59972205Y-55735256D01*
X60050226Y-55546898D01*
X60090000Y-55346939D01*
X60090000Y-55143061D01*
X60050226Y-54943102D01*
X59972205Y-54754744D01*
X59858937Y-54585226D01*
X59714774Y-54441063D01*
X59545256Y-54327795D01*
X59356898Y-54249774D01*
X59156939Y-54210000D01*
X58953061Y-54210000D01*
X58753102Y-54249774D01*
X58564744Y-54327795D01*
X58395226Y-54441063D01*
X58251063Y-54585226D01*
X58151715Y-54733911D01*
X56246806Y-52829003D01*
X56230859Y-52809572D01*
X57505500Y-52809572D01*
X57629982Y-52797312D01*
X57749680Y-52761002D01*
X57859994Y-52702037D01*
X57956685Y-52622685D01*
X58036037Y-52525994D01*
X58095002Y-52415680D01*
X58131312Y-52295982D01*
X58143572Y-52171500D01*
X58143572Y-50571500D01*
X58131312Y-50447018D01*
X58095002Y-50327320D01*
X58036037Y-50217006D01*
X57956685Y-50120315D01*
X57859994Y-50040963D01*
X57749680Y-49981998D01*
X57629982Y-49945688D01*
X57505500Y-49933428D01*
X57465500Y-49933428D01*
X57465500Y-49654301D01*
X58296003Y-48823799D01*
X58325001Y-48800001D01*
X58419974Y-48684276D01*
X58490546Y-48552247D01*
X58534003Y-48408986D01*
X58545000Y-48297333D01*
X58548677Y-48260000D01*
X58545000Y-48222667D01*
X58545000Y-47523061D01*
X60179000Y-47523061D01*
X60179000Y-47726939D01*
X60218774Y-47926898D01*
X60296795Y-48115256D01*
X60410063Y-48284774D01*
X60554226Y-48428937D01*
X60723744Y-48542205D01*
X60912102Y-48620226D01*
X61112061Y-48660000D01*
X61315939Y-48660000D01*
X61515898Y-48620226D01*
X61704256Y-48542205D01*
X61873774Y-48428937D01*
X61917711Y-48385000D01*
X64574289Y-48385000D01*
X64618226Y-48428937D01*
X64787744Y-48542205D01*
X64976102Y-48620226D01*
X65176061Y-48660000D01*
X65379939Y-48660000D01*
X65579898Y-48620226D01*
X65768256Y-48542205D01*
X65937774Y-48428937D01*
X66081937Y-48284774D01*
X66195205Y-48115256D01*
X66273226Y-47926898D01*
X66313000Y-47726939D01*
X66313000Y-47523061D01*
X66273226Y-47323102D01*
X66195205Y-47134744D01*
X66081937Y-46965226D01*
X65937774Y-46821063D01*
X65768256Y-46707795D01*
X65579898Y-46629774D01*
X65379939Y-46590000D01*
X65176061Y-46590000D01*
X64976102Y-46629774D01*
X64787744Y-46707795D01*
X64618226Y-46821063D01*
X64574289Y-46865000D01*
X61917711Y-46865000D01*
X61873774Y-46821063D01*
X61704256Y-46707795D01*
X61515898Y-46629774D01*
X61315939Y-46590000D01*
X61112061Y-46590000D01*
X60912102Y-46629774D01*
X60723744Y-46707795D01*
X60554226Y-46821063D01*
X60410063Y-46965226D01*
X60296795Y-47134744D01*
X60218774Y-47323102D01*
X60179000Y-47523061D01*
X58545000Y-47523061D01*
X58545000Y-41978711D01*
X58588937Y-41934774D01*
X58702205Y-41765256D01*
X58780226Y-41576898D01*
X58820000Y-41376939D01*
X58820000Y-41173061D01*
X58780226Y-40973102D01*
X58702205Y-40784744D01*
X58588937Y-40615226D01*
X58444774Y-40471063D01*
X58275256Y-40357795D01*
X58086898Y-40279774D01*
X57886939Y-40240000D01*
X57683061Y-40240000D01*
X57483102Y-40279774D01*
X57294744Y-40357795D01*
X57205030Y-40417740D01*
X57205030Y-38486181D01*
X58363803Y-37327408D01*
X59573000Y-37327408D01*
X59573000Y-37602592D01*
X59626686Y-37872490D01*
X59731995Y-38126727D01*
X59884880Y-38355535D01*
X60079465Y-38550120D01*
X60308273Y-38703005D01*
X60562510Y-38808314D01*
X60832408Y-38862000D01*
X61107592Y-38862000D01*
X61377490Y-38808314D01*
X61631727Y-38703005D01*
X61860535Y-38550120D01*
X62055120Y-38355535D01*
X62208005Y-38126727D01*
X62313314Y-37872490D01*
X62367000Y-37602592D01*
X62367000Y-37327408D01*
X62313314Y-37057510D01*
X62208005Y-36803273D01*
X62141005Y-36703000D01*
X67169928Y-36703000D01*
X67169928Y-38227000D01*
X67182188Y-38351482D01*
X67218498Y-38471180D01*
X67277463Y-38581494D01*
X67356815Y-38678185D01*
X67453506Y-38757537D01*
X67563820Y-38816502D01*
X67683518Y-38852812D01*
X67808000Y-38865072D01*
X69332000Y-38865072D01*
X69456482Y-38852812D01*
X69576180Y-38816502D01*
X69686494Y-38757537D01*
X69783185Y-38678185D01*
X69862537Y-38581494D01*
X69921502Y-38471180D01*
X69957812Y-38351482D01*
X69970072Y-38227000D01*
X69970072Y-36703000D01*
X69957812Y-36578518D01*
X69921502Y-36458820D01*
X69862537Y-36348506D01*
X69783185Y-36251815D01*
X69686494Y-36172463D01*
X69576180Y-36113498D01*
X69456482Y-36077188D01*
X69332000Y-36064928D01*
X67808000Y-36064928D01*
X67683518Y-36077188D01*
X67563820Y-36113498D01*
X67453506Y-36172463D01*
X67356815Y-36251815D01*
X67277463Y-36348506D01*
X67218498Y-36458820D01*
X67182188Y-36578518D01*
X67169928Y-36703000D01*
X62141005Y-36703000D01*
X62055120Y-36574465D01*
X61860535Y-36379880D01*
X61631727Y-36226995D01*
X61377490Y-36121686D01*
X61107592Y-36068000D01*
X60832408Y-36068000D01*
X60562510Y-36121686D01*
X60308273Y-36226995D01*
X60079465Y-36379880D01*
X59884880Y-36574465D01*
X59731995Y-36803273D01*
X59626686Y-37057510D01*
X59573000Y-37327408D01*
X58363803Y-37327408D01*
X72871010Y-22820203D01*
X72900001Y-22796411D01*
X72923795Y-22767418D01*
X72923799Y-22767414D01*
X72994973Y-22680687D01*
X72994974Y-22680686D01*
X73065546Y-22548657D01*
X73109003Y-22405396D01*
X73120000Y-22293743D01*
X73120000Y-22293734D01*
X73123676Y-22256411D01*
X73120000Y-22219088D01*
X73120000Y-21492341D01*
X73250535Y-21405120D01*
X73370090Y-21285565D01*
X74114040Y-21285565D01*
X74181020Y-21525656D01*
X74430048Y-21642756D01*
X74697135Y-21709023D01*
X74972017Y-21721910D01*
X75244133Y-21680922D01*
X75503023Y-21587636D01*
X75618980Y-21525656D01*
X75685960Y-21285565D01*
X74900000Y-20499605D01*
X74114040Y-21285565D01*
X73370090Y-21285565D01*
X73445120Y-21210535D01*
X73598005Y-20981727D01*
X73627692Y-20910057D01*
X73632364Y-20923023D01*
X73694344Y-21038980D01*
X73934435Y-21105960D01*
X74720395Y-20320000D01*
X75079605Y-20320000D01*
X75865565Y-21105960D01*
X76105656Y-21038980D01*
X76222756Y-20789952D01*
X76289023Y-20522865D01*
X76301910Y-20247983D01*
X76260922Y-19975867D01*
X76167636Y-19716977D01*
X76105656Y-19601020D01*
X75865565Y-19534040D01*
X75079605Y-20320000D01*
X74720395Y-20320000D01*
X73934435Y-19534040D01*
X73694344Y-19601020D01*
X73630515Y-19736760D01*
X73598005Y-19658273D01*
X73445120Y-19429465D01*
X73370090Y-19354435D01*
X74114040Y-19354435D01*
X74900000Y-20140395D01*
X75685960Y-19354435D01*
X75618980Y-19114344D01*
X75369952Y-18997244D01*
X75102865Y-18930977D01*
X74827983Y-18918090D01*
X74555867Y-18959078D01*
X74296977Y-19052364D01*
X74181020Y-19114344D01*
X74114040Y-19354435D01*
X73370090Y-19354435D01*
X73250535Y-19234880D01*
X73021727Y-19081995D01*
X72767490Y-18976686D01*
X72497592Y-18923000D01*
X72222408Y-18923000D01*
X71952510Y-18976686D01*
X71698273Y-19081995D01*
X71469465Y-19234880D01*
X71274880Y-19429465D01*
X71121995Y-19658273D01*
X71090000Y-19735515D01*
X71058005Y-19658273D01*
X70905120Y-19429465D01*
X70710535Y-19234880D01*
X70481727Y-19081995D01*
X70227490Y-18976686D01*
X69957592Y-18923000D01*
X69682408Y-18923000D01*
X69412510Y-18976686D01*
X69158273Y-19081995D01*
X68929465Y-19234880D01*
X68734880Y-19429465D01*
X68676080Y-19517465D01*
X68667812Y-19433518D01*
X68631502Y-19313820D01*
X68572537Y-19203506D01*
X68493185Y-19106815D01*
X68396494Y-19027463D01*
X68286180Y-18968498D01*
X68166482Y-18932188D01*
X68042000Y-18919928D01*
X66518000Y-18919928D01*
X66393518Y-18932188D01*
X66273820Y-18968498D01*
X66163506Y-19027463D01*
X66066815Y-19106815D01*
X65987463Y-19203506D01*
X65928498Y-19313820D01*
X65892188Y-19433518D01*
X65879928Y-19558000D01*
X65879928Y-21082000D01*
X65892188Y-21206482D01*
X65928498Y-21326180D01*
X65987463Y-21436494D01*
X66066815Y-21533185D01*
X66163506Y-21612537D01*
X66273820Y-21671502D01*
X66393518Y-21707812D01*
X66518000Y-21720072D01*
X68042000Y-21720072D01*
X68166482Y-21707812D01*
X68286180Y-21671502D01*
X68396494Y-21612537D01*
X68493185Y-21533185D01*
X68572537Y-21436494D01*
X68631502Y-21326180D01*
X68667812Y-21206482D01*
X68676080Y-21122535D01*
X68734880Y-21210535D01*
X68929465Y-21405120D01*
X69060000Y-21492341D01*
X69060001Y-23845197D01*
X55419803Y-37485396D01*
X55390799Y-37509199D01*
X55359790Y-37546984D01*
X55295826Y-37624924D01*
X55260911Y-37690245D01*
X55225254Y-37756954D01*
X55181797Y-37900215D01*
X55170800Y-38011868D01*
X55170800Y-38011878D01*
X55167124Y-38049200D01*
X55170800Y-38086523D01*
X55170801Y-40248997D01*
X54679800Y-40739998D01*
X54679800Y-40560861D01*
X54640026Y-40360902D01*
X54562005Y-40172544D01*
X54448737Y-40003026D01*
X54304574Y-39858863D01*
X54135056Y-39745595D01*
X53946698Y-39667574D01*
X53746739Y-39627800D01*
X53542861Y-39627800D01*
X53342902Y-39667574D01*
X53154544Y-39745595D01*
X52985026Y-39858863D01*
X52941089Y-39902800D01*
X52388696Y-39902800D01*
X52354026Y-39728502D01*
X52276005Y-39540144D01*
X52162737Y-39370626D01*
X52018574Y-39226463D01*
X51849056Y-39113195D01*
X51660698Y-39035174D01*
X51460739Y-38995400D01*
X51256861Y-38995400D01*
X51056902Y-39035174D01*
X50868544Y-39113195D01*
X50699026Y-39226463D01*
X50554863Y-39370626D01*
X50441595Y-39540144D01*
X50363574Y-39728502D01*
X50323800Y-39928461D01*
X50323800Y-40132339D01*
X50363574Y-40332298D01*
X50441595Y-40520656D01*
X50554863Y-40690174D01*
X50699026Y-40834337D01*
X50868544Y-40947605D01*
X51056902Y-41025626D01*
X51256861Y-41065400D01*
X51318998Y-41065400D01*
X51427400Y-41173802D01*
X51451199Y-41202801D01*
X51566924Y-41297774D01*
X51698953Y-41368346D01*
X51842214Y-41411803D01*
X51953867Y-41422800D01*
X51953875Y-41422800D01*
X51991200Y-41426476D01*
X52028525Y-41422800D01*
X52941089Y-41422800D01*
X52985026Y-41466737D01*
X53154544Y-41580005D01*
X53342902Y-41658026D01*
X53542861Y-41697800D01*
X53721998Y-41697800D01*
X48681799Y-46738000D01*
X34113117Y-46738000D01*
X34118500Y-46710939D01*
X34118500Y-46648801D01*
X34742002Y-46025300D01*
X34771000Y-46001502D01*
X34865973Y-45885777D01*
X34909116Y-45805063D01*
X34936545Y-45753748D01*
X34980002Y-45610487D01*
X34981410Y-45596187D01*
X34990999Y-45498833D01*
X34990999Y-45498826D01*
X34994675Y-45461501D01*
X34990999Y-45424176D01*
X34990999Y-40338476D01*
X35169589Y-40374000D01*
X35442411Y-40374000D01*
X35709989Y-40320775D01*
X35962043Y-40216371D01*
X36188886Y-40064799D01*
X36381799Y-39871886D01*
X36533371Y-39645043D01*
X36576000Y-39542127D01*
X36618629Y-39645043D01*
X36770201Y-39871886D01*
X36963114Y-40064799D01*
X37189957Y-40216371D01*
X37442011Y-40320775D01*
X37709589Y-40374000D01*
X37982411Y-40374000D01*
X38070776Y-40356423D01*
X37552199Y-40875000D01*
X37490061Y-40875000D01*
X37290102Y-40914774D01*
X37101744Y-40992795D01*
X36932226Y-41106063D01*
X36788063Y-41250226D01*
X36674795Y-41419744D01*
X36596774Y-41608102D01*
X36557000Y-41808061D01*
X36557000Y-42011939D01*
X36596774Y-42211898D01*
X36674795Y-42400256D01*
X36788063Y-42569774D01*
X36932226Y-42713937D01*
X37101744Y-42827205D01*
X37290102Y-42905226D01*
X37490061Y-42945000D01*
X37693939Y-42945000D01*
X37893898Y-42905226D01*
X38082256Y-42827205D01*
X38251774Y-42713937D01*
X38395937Y-42569774D01*
X38509205Y-42400256D01*
X38587226Y-42211898D01*
X38627000Y-42011939D01*
X38627000Y-41949801D01*
X38639800Y-41937001D01*
X38639800Y-41961139D01*
X38679574Y-42161098D01*
X38757595Y-42349456D01*
X38870863Y-42518974D01*
X39015026Y-42663137D01*
X39184544Y-42776405D01*
X39372902Y-42854426D01*
X39572861Y-42894200D01*
X39776739Y-42894200D01*
X39976698Y-42854426D01*
X40165056Y-42776405D01*
X40334574Y-42663137D01*
X40478737Y-42518974D01*
X40592005Y-42349456D01*
X40670026Y-42161098D01*
X40709800Y-41961139D01*
X40709800Y-41899001D01*
X42167003Y-40441799D01*
X42196001Y-40418001D01*
X42242861Y-40360902D01*
X42290974Y-40302277D01*
X42324759Y-40239071D01*
X42522011Y-40320775D01*
X42789589Y-40374000D01*
X43062411Y-40374000D01*
X43329989Y-40320775D01*
X43582043Y-40216371D01*
X43808886Y-40064799D01*
X44001799Y-39871886D01*
X44153371Y-39645043D01*
X44196000Y-39542127D01*
X44238629Y-39645043D01*
X44390201Y-39871886D01*
X44583114Y-40064799D01*
X44809957Y-40216371D01*
X45062011Y-40320775D01*
X45329589Y-40374000D01*
X45602411Y-40374000D01*
X45869989Y-40320775D01*
X46122043Y-40216371D01*
X46348886Y-40064799D01*
X46541799Y-39871886D01*
X46693371Y-39645043D01*
X46797775Y-39392989D01*
X46851000Y-39125411D01*
X46851000Y-38852589D01*
X46797775Y-38585011D01*
X46693371Y-38332957D01*
X46541799Y-38106114D01*
X46348886Y-37913201D01*
X46122043Y-37761629D01*
X45869989Y-37657225D01*
X45602411Y-37604000D01*
X45329589Y-37604000D01*
X45062011Y-37657225D01*
X44809957Y-37761629D01*
X44583114Y-37913201D01*
X44390201Y-38106114D01*
X44238629Y-38332957D01*
X44196000Y-38435873D01*
X44153371Y-38332957D01*
X44001799Y-38106114D01*
X43808886Y-37913201D01*
X43582043Y-37761629D01*
X43329989Y-37657225D01*
X43062411Y-37604000D01*
X42789589Y-37604000D01*
X42522011Y-37657225D01*
X42416000Y-37701136D01*
X42416000Y-34749513D01*
X42435744Y-34762705D01*
X42624102Y-34840726D01*
X42824061Y-34880500D01*
X43027939Y-34880500D01*
X43227898Y-34840726D01*
X43416256Y-34762705D01*
X43585774Y-34649437D01*
X43629711Y-34605500D01*
X53271289Y-34605500D01*
X53315226Y-34649437D01*
X53484744Y-34762705D01*
X53673102Y-34840726D01*
X53873061Y-34880500D01*
X54076939Y-34880500D01*
X54276898Y-34840726D01*
X54465256Y-34762705D01*
X54634774Y-34649437D01*
X54778937Y-34505274D01*
X54892205Y-34335756D01*
X54970226Y-34147398D01*
X55010000Y-33947439D01*
X55010000Y-33743561D01*
X54970226Y-33543602D01*
X54892205Y-33355244D01*
X54778937Y-33185726D01*
X54634774Y-33041563D01*
X54465256Y-32928295D01*
X54276898Y-32850274D01*
X54076939Y-32810500D01*
X53873061Y-32810500D01*
X53673102Y-32850274D01*
X53484744Y-32928295D01*
X53315226Y-33041563D01*
X53271289Y-33085500D01*
X43629711Y-33085500D01*
X43585774Y-33041563D01*
X43416256Y-32928295D01*
X43227898Y-32850274D01*
X43027939Y-32810500D01*
X42824061Y-32810500D01*
X42624102Y-32850274D01*
X42435744Y-32928295D01*
X42416000Y-32941487D01*
X42416000Y-26116982D01*
X42419676Y-26079659D01*
X42416000Y-26042336D01*
X42416000Y-26042327D01*
X42405003Y-25930674D01*
X42361546Y-25787413D01*
X42290974Y-25655384D01*
X42196001Y-25539659D01*
X42167004Y-25515862D01*
X41372413Y-24721272D01*
X41461799Y-24631886D01*
X41613371Y-24405043D01*
X41656000Y-24302127D01*
X41698629Y-24405043D01*
X41850201Y-24631886D01*
X42043114Y-24824799D01*
X42269957Y-24976371D01*
X42522011Y-25080775D01*
X42789589Y-25134000D01*
X43062411Y-25134000D01*
X43329989Y-25080775D01*
X43582043Y-24976371D01*
X43808886Y-24824799D01*
X44001799Y-24631886D01*
X44153371Y-24405043D01*
X44196000Y-24302127D01*
X44238629Y-24405043D01*
X44390201Y-24631886D01*
X44583114Y-24824799D01*
X44809957Y-24976371D01*
X45062011Y-25080775D01*
X45329589Y-25134000D01*
X45602411Y-25134000D01*
X45869989Y-25080775D01*
X46122043Y-24976371D01*
X46348886Y-24824799D01*
X46541799Y-24631886D01*
X46693371Y-24405043D01*
X46797775Y-24152989D01*
X46851000Y-23885411D01*
X46851000Y-23612589D01*
X46797775Y-23345011D01*
X46693371Y-23092957D01*
X46541799Y-22866114D01*
X46348886Y-22673201D01*
X46122043Y-22521629D01*
X45869989Y-22417225D01*
X45602411Y-22364000D01*
X45329589Y-22364000D01*
X45062011Y-22417225D01*
X44809957Y-22521629D01*
X44583114Y-22673201D01*
X44390201Y-22866114D01*
X44238629Y-23092957D01*
X44196000Y-23195873D01*
X44153371Y-23092957D01*
X44001799Y-22866114D01*
X43808886Y-22673201D01*
X43582043Y-22521629D01*
X43329989Y-22417225D01*
X43062411Y-22364000D01*
X42789589Y-22364000D01*
X42674003Y-22386992D01*
X42691000Y-22301539D01*
X42691000Y-22097661D01*
X42651226Y-21897702D01*
X42573205Y-21709344D01*
X42459937Y-21539826D01*
X42315774Y-21395663D01*
X42146256Y-21282395D01*
X41957898Y-21204374D01*
X41757939Y-21164600D01*
X41554061Y-21164600D01*
X41354102Y-21204374D01*
X41165744Y-21282395D01*
X40996226Y-21395663D01*
X40952289Y-21439600D01*
X38549711Y-21439600D01*
X38505774Y-21395663D01*
X38336256Y-21282395D01*
X38147898Y-21204374D01*
X37947939Y-21164600D01*
X37744061Y-21164600D01*
X37544102Y-21204374D01*
X37355744Y-21282395D01*
X37186226Y-21395663D01*
X37042063Y-21539826D01*
X36928795Y-21709344D01*
X36850774Y-21897702D01*
X36811000Y-22097661D01*
X36811000Y-22301539D01*
X36850774Y-22501498D01*
X36928795Y-22689856D01*
X36935870Y-22700445D01*
X36770201Y-22866114D01*
X36618629Y-23092957D01*
X36576000Y-23195873D01*
X36533371Y-23092957D01*
X36381799Y-22866114D01*
X36188886Y-22673201D01*
X35962043Y-22521629D01*
X35709989Y-22417225D01*
X35442411Y-22364000D01*
X35169589Y-22364000D01*
X34902011Y-22417225D01*
X34649957Y-22521629D01*
X34423114Y-22673201D01*
X34230201Y-22866114D01*
X34078629Y-23092957D01*
X34036000Y-23195873D01*
X33993371Y-23092957D01*
X33841799Y-22866114D01*
X33648886Y-22673201D01*
X33422043Y-22521629D01*
X33169989Y-22417225D01*
X32902411Y-22364000D01*
X32629589Y-22364000D01*
X32362011Y-22417225D01*
X32109957Y-22521629D01*
X31883114Y-22673201D01*
X31690201Y-22866114D01*
X31538629Y-23092957D01*
X31496000Y-23195873D01*
X31453371Y-23092957D01*
X31301799Y-22866114D01*
X31108886Y-22673201D01*
X30882043Y-22521629D01*
X30629989Y-22417225D01*
X30362411Y-22364000D01*
X30089589Y-22364000D01*
X29822011Y-22417225D01*
X29569957Y-22521629D01*
X29343114Y-22673201D01*
X29150201Y-22866114D01*
X28998629Y-23092957D01*
X28956000Y-23195873D01*
X28913371Y-23092957D01*
X28761799Y-22866114D01*
X28568886Y-22673201D01*
X28342043Y-22521629D01*
X28089989Y-22417225D01*
X27822411Y-22364000D01*
X27549589Y-22364000D01*
X27282011Y-22417225D01*
X27029957Y-22521629D01*
X26803114Y-22673201D01*
X26610201Y-22866114D01*
X26458629Y-23092957D01*
X26416000Y-23195873D01*
X26373371Y-23092957D01*
X26221799Y-22866114D01*
X26028886Y-22673201D01*
X25802043Y-22521629D01*
X25549989Y-22417225D01*
X25282411Y-22364000D01*
X25009589Y-22364000D01*
X24742011Y-22417225D01*
X24489957Y-22521629D01*
X24263114Y-22673201D01*
X24070201Y-22866114D01*
X23918629Y-23092957D01*
X23814225Y-23345011D01*
X23761000Y-23612589D01*
X23761000Y-23885411D01*
X23814225Y-24152989D01*
X23918629Y-24405043D01*
X24070201Y-24631886D01*
X24263114Y-24824799D01*
X24489957Y-24976371D01*
X24742011Y-25080775D01*
X25009589Y-25134000D01*
X25282411Y-25134000D01*
X25549989Y-25080775D01*
X25802043Y-24976371D01*
X26028886Y-24824799D01*
X26221799Y-24631886D01*
X26373371Y-24405043D01*
X26416000Y-24302127D01*
X26458629Y-24405043D01*
X26610201Y-24631886D01*
X26803114Y-24824799D01*
X27029957Y-24976371D01*
X27282011Y-25080775D01*
X27549589Y-25134000D01*
X27822411Y-25134000D01*
X28089989Y-25080775D01*
X28342043Y-24976371D01*
X28568886Y-24824799D01*
X28761799Y-24631886D01*
X28913371Y-24405043D01*
X28956000Y-24302127D01*
X28998629Y-24405043D01*
X29150201Y-24631886D01*
X29343114Y-24824799D01*
X29569957Y-24976371D01*
X29822011Y-25080775D01*
X30089589Y-25134000D01*
X30362411Y-25134000D01*
X30629989Y-25080775D01*
X30882043Y-24976371D01*
X31108886Y-24824799D01*
X31301799Y-24631886D01*
X31453371Y-24405043D01*
X31496000Y-24302127D01*
X31538629Y-24405043D01*
X31690201Y-24631886D01*
X31883114Y-24824799D01*
X32109957Y-24976371D01*
X32362011Y-25080775D01*
X32629589Y-25134000D01*
X32902411Y-25134000D01*
X33169989Y-25080775D01*
X33422043Y-24976371D01*
X33648886Y-24824799D01*
X33841799Y-24631886D01*
X33993371Y-24405043D01*
X34036000Y-24302127D01*
X34078629Y-24405043D01*
X34230201Y-24631886D01*
X34423114Y-24824799D01*
X34546000Y-24906909D01*
X34546000Y-25309889D01*
X34492574Y-25256463D01*
X34323056Y-25143195D01*
X34134698Y-25065174D01*
X33934739Y-25025400D01*
X33730861Y-25025400D01*
X33530902Y-25065174D01*
X33342544Y-25143195D01*
X33173026Y-25256463D01*
X33028863Y-25400626D01*
X32915595Y-25570144D01*
X32837574Y-25758502D01*
X32797800Y-25958461D01*
X32797800Y-26011600D01*
X25849711Y-26011600D01*
X25805774Y-25967663D01*
X25636256Y-25854395D01*
X25447898Y-25776374D01*
X25247939Y-25736600D01*
X25044061Y-25736600D01*
X24844102Y-25776374D01*
X24655744Y-25854395D01*
X24486226Y-25967663D01*
X24342063Y-26111826D01*
X24228795Y-26281344D01*
X24150774Y-26469702D01*
X24111000Y-26669661D01*
X24111000Y-26873539D01*
X24150774Y-27073498D01*
X24228795Y-27261856D01*
X24342063Y-27431374D01*
X24486226Y-27575537D01*
X24655744Y-27688805D01*
X24844102Y-27766826D01*
X25044061Y-27806600D01*
X25247939Y-27806600D01*
X25447898Y-27766826D01*
X25636256Y-27688805D01*
X25805774Y-27575537D01*
X25849711Y-27531600D01*
X33084278Y-27531600D01*
X33121600Y-27535276D01*
X33158922Y-27531600D01*
X33158933Y-27531600D01*
X33270586Y-27520603D01*
X33413847Y-27477146D01*
X33545876Y-27406574D01*
X33661601Y-27311601D01*
X33685403Y-27282598D01*
X33872601Y-27095400D01*
X33934739Y-27095400D01*
X34134698Y-27055626D01*
X34323056Y-26977605D01*
X34492574Y-26864337D01*
X34546000Y-26810911D01*
X34546000Y-29851346D01*
X34399256Y-29753295D01*
X34210898Y-29675274D01*
X34010939Y-29635500D01*
X33807061Y-29635500D01*
X33607102Y-29675274D01*
X33418744Y-29753295D01*
X33249226Y-29866563D01*
X33194276Y-29921513D01*
X33051068Y-29964954D01*
X32919038Y-30035526D01*
X32835398Y-30104168D01*
X32803314Y-30130499D01*
X32779516Y-30159497D01*
X29980514Y-32958500D01*
X23913322Y-32958500D01*
X23875999Y-32954824D01*
X23838676Y-32958500D01*
X23838667Y-32958500D01*
X23727014Y-32969497D01*
X23583753Y-33012954D01*
X23451724Y-33083526D01*
X23451722Y-33083527D01*
X23451723Y-33083527D01*
X23364996Y-33154701D01*
X23364992Y-33154705D01*
X23335999Y-33178499D01*
X23312205Y-33207492D01*
X18793003Y-37726696D01*
X18763999Y-37750499D01*
X18733375Y-37787815D01*
X18669026Y-37866224D01*
X18630661Y-37937999D01*
X18598454Y-37998254D01*
X18554997Y-38141515D01*
X18544000Y-38253168D01*
X18544000Y-38253178D01*
X18540324Y-38290500D01*
X15392000Y-38290500D01*
X15392000Y-17932000D01*
X88748001Y-17932000D01*
X88748000Y-88748000D01*
G37*
X88748000Y-88748000D02*
X15392000Y-88748000D01*
X15392000Y-81758000D01*
X26890928Y-81758000D01*
X26890928Y-84358000D01*
X26903188Y-84482482D01*
X26939498Y-84602180D01*
X26998463Y-84712494D01*
X27077815Y-84809185D01*
X27174506Y-84888537D01*
X27284820Y-84947502D01*
X27404518Y-84983812D01*
X27529000Y-84996072D01*
X30129000Y-84996072D01*
X30253482Y-84983812D01*
X30373180Y-84947502D01*
X30483494Y-84888537D01*
X30580185Y-84809185D01*
X30659537Y-84712494D01*
X30718502Y-84602180D01*
X30754812Y-84482482D01*
X30767072Y-84358000D01*
X30767072Y-84284117D01*
X41191000Y-84284117D01*
X41191000Y-84625883D01*
X41257675Y-84961081D01*
X41388463Y-85276831D01*
X41578337Y-85560998D01*
X41820002Y-85802663D01*
X42104169Y-85992537D01*
X42419919Y-86123325D01*
X42755117Y-86190000D01*
X43096883Y-86190000D01*
X43432081Y-86123325D01*
X43747831Y-85992537D01*
X44031998Y-85802663D01*
X44273663Y-85560998D01*
X44463537Y-85276831D01*
X44594325Y-84961081D01*
X44661000Y-84625883D01*
X44661000Y-84284117D01*
X44594325Y-83948919D01*
X44463537Y-83633169D01*
X44277671Y-83355000D01*
X51347928Y-83355000D01*
X51347928Y-85555000D01*
X51360188Y-85679482D01*
X51396498Y-85799180D01*
X51455463Y-85909494D01*
X51534815Y-86006185D01*
X51631506Y-86085537D01*
X51741820Y-86144502D01*
X51861518Y-86180812D01*
X51986000Y-86193072D01*
X54186000Y-86193072D01*
X54310482Y-86180812D01*
X54430180Y-86144502D01*
X54540494Y-86085537D01*
X54637185Y-86006185D01*
X54716537Y-85909494D01*
X54775502Y-85799180D01*
X54811812Y-85679482D01*
X54824072Y-85555000D01*
X54824072Y-83355000D01*
X54811812Y-83230518D01*
X54775502Y-83110820D01*
X54716537Y-83000506D01*
X54637185Y-82903815D01*
X54540494Y-82824463D01*
X54430180Y-82765498D01*
X54310482Y-82729188D01*
X54186000Y-82716928D01*
X51986000Y-82716928D01*
X51861518Y-82729188D01*
X51741820Y-82765498D01*
X51631506Y-82824463D01*
X51534815Y-82903815D01*
X51455463Y-83000506D01*
X51396498Y-83110820D01*
X51360188Y-83230518D01*
X51347928Y-83355000D01*
X44277671Y-83355000D01*
X44273663Y-83349002D01*
X44031998Y-83107337D01*
X43747831Y-82917463D01*
X43432081Y-82786675D01*
X43096883Y-82720000D01*
X42755117Y-82720000D01*
X42419919Y-82786675D01*
X42104169Y-82917463D01*
X41820002Y-83107337D01*
X41578337Y-83349002D01*
X41388463Y-83633169D01*
X41257675Y-83948919D01*
X41191000Y-84284117D01*
X30767072Y-84284117D01*
X30767072Y-81758000D01*
X30754812Y-81633518D01*
X30718502Y-81513820D01*
X30659537Y-81403506D01*
X30580185Y-81306815D01*
X30483494Y-81227463D01*
X30373180Y-81168498D01*
X30253482Y-81132188D01*
X30129000Y-81119928D01*
X27529000Y-81119928D01*
X27404518Y-81132188D01*
X27284820Y-81168498D01*
X27174506Y-81227463D01*
X27077815Y-81306815D01*
X26998463Y-81403506D01*
X26939498Y-81513820D01*
X26903188Y-81633518D01*
X26890928Y-81758000D01*
X15392000Y-81758000D01*
X15392000Y-80249665D01*
X36411000Y-80249665D01*
X36411000Y-80532335D01*
X36466147Y-80809574D01*
X36574320Y-81070727D01*
X36731363Y-81305759D01*
X36931241Y-81505637D01*
X37166273Y-81662680D01*
X37427426Y-81770853D01*
X37704665Y-81826000D01*
X37987335Y-81826000D01*
X38264574Y-81770853D01*
X38525727Y-81662680D01*
X38760759Y-81505637D01*
X38960637Y-81305759D01*
X39117680Y-81070727D01*
X39225853Y-80809574D01*
X39281000Y-80532335D01*
X39281000Y-80249665D01*
X41491000Y-80249665D01*
X41491000Y-80532335D01*
X41546147Y-80809574D01*
X41654320Y-81070727D01*
X41811363Y-81305759D01*
X42011241Y-81505637D01*
X42246273Y-81662680D01*
X42507426Y-81770853D01*
X42784665Y-81826000D01*
X43067335Y-81826000D01*
X43344574Y-81770853D01*
X43605727Y-81662680D01*
X43840759Y-81505637D01*
X44040637Y-81305759D01*
X44197680Y-81070727D01*
X44291716Y-80843702D01*
X61162903Y-80843702D01*
X61234486Y-81087671D01*
X61489996Y-81208571D01*
X61764184Y-81277300D01*
X62046512Y-81291217D01*
X62326130Y-81249787D01*
X62592292Y-81154603D01*
X62717514Y-81087671D01*
X62789097Y-80843702D01*
X61976000Y-80030605D01*
X61162903Y-80843702D01*
X44291716Y-80843702D01*
X44305853Y-80809574D01*
X44361000Y-80532335D01*
X44361000Y-80249665D01*
X44305853Y-79972426D01*
X44284764Y-79921512D01*
X60535783Y-79921512D01*
X60577213Y-80201130D01*
X60672397Y-80467292D01*
X60739329Y-80592514D01*
X60983298Y-80664097D01*
X61796395Y-79851000D01*
X61782253Y-79836858D01*
X61961858Y-79657253D01*
X61976000Y-79671395D01*
X61990143Y-79657253D01*
X62169748Y-79836858D01*
X62155605Y-79851000D01*
X62968702Y-80664097D01*
X63212671Y-80592514D01*
X63333571Y-80337004D01*
X63402300Y-80062816D01*
X63414283Y-79819702D01*
X74624903Y-79819702D01*
X74696486Y-80063671D01*
X74951996Y-80184571D01*
X75226184Y-80253300D01*
X75508512Y-80267217D01*
X75788130Y-80225787D01*
X76054292Y-80130603D01*
X76179514Y-80063671D01*
X76251097Y-79819702D01*
X75438000Y-79006605D01*
X74624903Y-79819702D01*
X63414283Y-79819702D01*
X63416217Y-79780488D01*
X63374787Y-79500870D01*
X63279603Y-79234708D01*
X63214384Y-79112691D01*
X63227185Y-79102185D01*
X63306537Y-79005494D01*
X63364255Y-78897512D01*
X73997783Y-78897512D01*
X74039213Y-79177130D01*
X74134397Y-79443292D01*
X74201329Y-79568514D01*
X74445298Y-79640097D01*
X75258395Y-78827000D01*
X75617605Y-78827000D01*
X76430702Y-79640097D01*
X76674671Y-79568514D01*
X76795571Y-79313004D01*
X76864300Y-79038816D01*
X76878217Y-78756488D01*
X76836787Y-78476870D01*
X76741603Y-78210708D01*
X76674671Y-78085486D01*
X76430702Y-78013903D01*
X75617605Y-78827000D01*
X75258395Y-78827000D01*
X74445298Y-78013903D01*
X74201329Y-78085486D01*
X74080429Y-78340996D01*
X74011700Y-78615184D01*
X73997783Y-78897512D01*
X63364255Y-78897512D01*
X63365502Y-78895180D01*
X63401812Y-78775482D01*
X63414072Y-78651000D01*
X63414072Y-77051000D01*
X63401812Y-76926518D01*
X63365502Y-76806820D01*
X63306537Y-76696506D01*
X63227185Y-76599815D01*
X63130494Y-76520463D01*
X63020180Y-76461498D01*
X62900482Y-76425188D01*
X62776000Y-76412928D01*
X61176000Y-76412928D01*
X61051518Y-76425188D01*
X60931820Y-76461498D01*
X60821506Y-76520463D01*
X60724815Y-76599815D01*
X60645463Y-76696506D01*
X60586498Y-76806820D01*
X60550188Y-76926518D01*
X60537928Y-77051000D01*
X60537928Y-78651000D01*
X60550188Y-78775482D01*
X60586498Y-78895180D01*
X60645463Y-79005494D01*
X60724815Y-79102185D01*
X60737758Y-79112807D01*
X60618429Y-79364996D01*
X60549700Y-79639184D01*
X60535783Y-79921512D01*
X44284764Y-79921512D01*
X44197680Y-79711273D01*
X44040637Y-79476241D01*
X43840759Y-79276363D01*
X43605727Y-79119320D01*
X43344574Y-79011147D01*
X43067335Y-78956000D01*
X42784665Y-78956000D01*
X42507426Y-79011147D01*
X42246273Y-79119320D01*
X42011241Y-79276363D01*
X41811363Y-79476241D01*
X41654320Y-79711273D01*
X41546147Y-79972426D01*
X41491000Y-80249665D01*
X39281000Y-80249665D01*
X39225853Y-79972426D01*
X39117680Y-79711273D01*
X38960637Y-79476241D01*
X38760759Y-79276363D01*
X38525727Y-79119320D01*
X38264574Y-79011147D01*
X37987335Y-78956000D01*
X37704665Y-78956000D01*
X37427426Y-79011147D01*
X37166273Y-79119320D01*
X36931241Y-79276363D01*
X36731363Y-79476241D01*
X36574320Y-79711273D01*
X36466147Y-79972426D01*
X36411000Y-80249665D01*
X15392000Y-80249665D01*
X15392000Y-79327224D01*
X27659381Y-79327224D01*
X27791317Y-79622312D01*
X28132045Y-79793159D01*
X28499557Y-79894250D01*
X28879729Y-79921701D01*
X29257951Y-79874457D01*
X29619690Y-79754333D01*
X29866683Y-79622312D01*
X29998619Y-79327224D01*
X28829000Y-78157605D01*
X27659381Y-79327224D01*
X15392000Y-79327224D01*
X15392000Y-78028729D01*
X26885299Y-78028729D01*
X26932543Y-78406951D01*
X27052667Y-78768690D01*
X27184688Y-79015683D01*
X27479776Y-79147619D01*
X28649395Y-77978000D01*
X29008605Y-77978000D01*
X30178224Y-79147619D01*
X30473312Y-79015683D01*
X30644159Y-78674955D01*
X30745250Y-78307443D01*
X30772701Y-77927271D01*
X30725457Y-77549049D01*
X30605333Y-77187310D01*
X30473312Y-76940317D01*
X30178224Y-76808381D01*
X29008605Y-77978000D01*
X28649395Y-77978000D01*
X27479776Y-76808381D01*
X27184688Y-76940317D01*
X27013841Y-77281045D01*
X26912750Y-77648557D01*
X26885299Y-78028729D01*
X15392000Y-78028729D01*
X15392000Y-76628776D01*
X27659381Y-76628776D01*
X28829000Y-77798395D01*
X29998619Y-76628776D01*
X29866683Y-76333688D01*
X29525955Y-76162841D01*
X29158443Y-76061750D01*
X28778271Y-76034299D01*
X28400049Y-76081543D01*
X28038310Y-76201667D01*
X27791317Y-76333688D01*
X27659381Y-76628776D01*
X15392000Y-76628776D01*
X15392000Y-75527000D01*
X73999928Y-75527000D01*
X73999928Y-77127000D01*
X74012188Y-77251482D01*
X74048498Y-77371180D01*
X74107463Y-77481494D01*
X74186815Y-77578185D01*
X74283506Y-77657537D01*
X74393820Y-77716502D01*
X74513518Y-77752812D01*
X74638000Y-77765072D01*
X74645215Y-77765072D01*
X74624903Y-77834298D01*
X75438000Y-78647395D01*
X76251097Y-77834298D01*
X76230785Y-77765072D01*
X76238000Y-77765072D01*
X76362482Y-77752812D01*
X76482180Y-77716502D01*
X76592494Y-77657537D01*
X76689185Y-77578185D01*
X76768537Y-77481494D01*
X76827502Y-77371180D01*
X76863812Y-77251482D01*
X76876072Y-77127000D01*
X76876072Y-75527000D01*
X76863812Y-75402518D01*
X76827502Y-75282820D01*
X76768537Y-75172506D01*
X76689185Y-75075815D01*
X76592494Y-74996463D01*
X76482180Y-74937498D01*
X76362482Y-74901188D01*
X76238000Y-74888928D01*
X74638000Y-74888928D01*
X74513518Y-74901188D01*
X74393820Y-74937498D01*
X74283506Y-74996463D01*
X74186815Y-75075815D01*
X74107463Y-75172506D01*
X74048498Y-75282820D01*
X74012188Y-75402518D01*
X73999928Y-75527000D01*
X15392000Y-75527000D01*
X15392000Y-72707419D01*
X26894000Y-72707419D01*
X26894000Y-73088581D01*
X26968361Y-73462419D01*
X27114225Y-73814566D01*
X27325987Y-74131491D01*
X27595509Y-74401013D01*
X27912434Y-74612775D01*
X28264581Y-74758639D01*
X28638419Y-74833000D01*
X29019581Y-74833000D01*
X29393419Y-74758639D01*
X29745566Y-74612775D01*
X30062491Y-74401013D01*
X30332013Y-74131491D01*
X30543775Y-73814566D01*
X30689639Y-73462419D01*
X30764000Y-73088581D01*
X30764000Y-72707419D01*
X30689639Y-72333581D01*
X30543775Y-71981434D01*
X30332013Y-71664509D01*
X30062491Y-71394987D01*
X29864959Y-71263000D01*
X61655428Y-71263000D01*
X61655428Y-73263000D01*
X61667688Y-73387482D01*
X61703998Y-73507180D01*
X61762963Y-73617494D01*
X61842315Y-73714185D01*
X61939006Y-73793537D01*
X62049320Y-73852502D01*
X62169018Y-73888812D01*
X62293500Y-73901072D01*
X64198500Y-73901072D01*
X64322982Y-73888812D01*
X64442680Y-73852502D01*
X64552994Y-73793537D01*
X64649685Y-73714185D01*
X64729037Y-73617494D01*
X64778059Y-73525781D01*
X64919077Y-73638969D01*
X65194906Y-73782571D01*
X65413020Y-73853563D01*
X65659000Y-73733594D01*
X65659000Y-72390000D01*
X65639000Y-72390000D01*
X65639000Y-72136000D01*
X65659000Y-72136000D01*
X65659000Y-70792406D01*
X65913000Y-70792406D01*
X65913000Y-72136000D01*
X65933000Y-72136000D01*
X65933000Y-72390000D01*
X65913000Y-72390000D01*
X65913000Y-73733594D01*
X66158980Y-73853563D01*
X66377094Y-73782571D01*
X66652923Y-73638969D01*
X66895437Y-73444315D01*
X67050837Y-73259101D01*
X67198037Y-73438463D01*
X67439766Y-73636845D01*
X67715552Y-73784255D01*
X68014797Y-73875030D01*
X68326000Y-73905681D01*
X68637204Y-73875030D01*
X68936449Y-73784255D01*
X69212235Y-73636845D01*
X69453963Y-73438463D01*
X69652345Y-73196734D01*
X69799755Y-72920948D01*
X69890530Y-72621703D01*
X69913500Y-72388485D01*
X69913500Y-72137514D01*
X69890530Y-71904296D01*
X69799755Y-71605051D01*
X69652345Y-71329265D01*
X69453963Y-71087537D01*
X69212234Y-70889155D01*
X68936448Y-70741745D01*
X68637203Y-70650970D01*
X68326000Y-70620319D01*
X68014796Y-70650970D01*
X67715551Y-70741745D01*
X67439765Y-70889155D01*
X67198037Y-71087537D01*
X67050838Y-71266900D01*
X66895437Y-71081685D01*
X66652923Y-70887031D01*
X66377094Y-70743429D01*
X66158980Y-70672437D01*
X65913000Y-70792406D01*
X65659000Y-70792406D01*
X65413020Y-70672437D01*
X65194906Y-70743429D01*
X64919077Y-70887031D01*
X64778059Y-71000219D01*
X64729037Y-70908506D01*
X64649685Y-70811815D01*
X64552994Y-70732463D01*
X64442680Y-70673498D01*
X64322982Y-70637188D01*
X64198500Y-70624928D01*
X62293500Y-70624928D01*
X62169018Y-70637188D01*
X62049320Y-70673498D01*
X61939006Y-70732463D01*
X61842315Y-70811815D01*
X61762963Y-70908506D01*
X61703998Y-71018820D01*
X61667688Y-71138518D01*
X61655428Y-71263000D01*
X29864959Y-71263000D01*
X29745566Y-71183225D01*
X29393419Y-71037361D01*
X29019581Y-70963000D01*
X28638419Y-70963000D01*
X28264581Y-71037361D01*
X27912434Y-71183225D01*
X27595509Y-71394987D01*
X27325987Y-71664509D01*
X27114225Y-71981434D01*
X26968361Y-72333581D01*
X26894000Y-72707419D01*
X15392000Y-72707419D01*
X15392000Y-66470165D01*
X19710500Y-66470165D01*
X19710500Y-66752835D01*
X19765647Y-67030074D01*
X19873820Y-67291227D01*
X20030863Y-67526259D01*
X20230741Y-67726137D01*
X20465773Y-67883180D01*
X20726926Y-67991353D01*
X21004165Y-68046500D01*
X21286835Y-68046500D01*
X21564074Y-67991353D01*
X21825227Y-67883180D01*
X22060259Y-67726137D01*
X22260137Y-67526259D01*
X22415500Y-67293741D01*
X22570863Y-67526259D01*
X22770741Y-67726137D01*
X23005773Y-67883180D01*
X23266926Y-67991353D01*
X23544165Y-68046500D01*
X23826835Y-68046500D01*
X24104074Y-67991353D01*
X24365227Y-67883180D01*
X24600259Y-67726137D01*
X24800137Y-67526259D01*
X24955500Y-67293741D01*
X25110863Y-67526259D01*
X25310741Y-67726137D01*
X25545773Y-67883180D01*
X25806926Y-67991353D01*
X26084165Y-68046500D01*
X26366835Y-68046500D01*
X26644074Y-67991353D01*
X26905227Y-67883180D01*
X27140259Y-67726137D01*
X27340137Y-67526259D01*
X27495500Y-67293741D01*
X27650863Y-67526259D01*
X27850741Y-67726137D01*
X28085773Y-67883180D01*
X28346926Y-67991353D01*
X28624165Y-68046500D01*
X28906835Y-68046500D01*
X29184074Y-67991353D01*
X29445227Y-67883180D01*
X29680259Y-67726137D01*
X29880137Y-67526259D01*
X30035500Y-67293741D01*
X30190863Y-67526259D01*
X30390741Y-67726137D01*
X30625773Y-67883180D01*
X30886926Y-67991353D01*
X31164165Y-68046500D01*
X31446835Y-68046500D01*
X31724074Y-67991353D01*
X31985227Y-67883180D01*
X32220259Y-67726137D01*
X32420137Y-67526259D01*
X32575500Y-67293741D01*
X32730863Y-67526259D01*
X32930741Y-67726137D01*
X33165773Y-67883180D01*
X33426926Y-67991353D01*
X33704165Y-68046500D01*
X33986835Y-68046500D01*
X34264074Y-67991353D01*
X34525227Y-67883180D01*
X34760259Y-67726137D01*
X34960137Y-67526259D01*
X35115500Y-67293741D01*
X35270863Y-67526259D01*
X35470741Y-67726137D01*
X35705773Y-67883180D01*
X35966926Y-67991353D01*
X36244165Y-68046500D01*
X36526835Y-68046500D01*
X36804074Y-67991353D01*
X37065227Y-67883180D01*
X37300259Y-67726137D01*
X37500137Y-67526259D01*
X37655500Y-67293741D01*
X37810863Y-67526259D01*
X38010741Y-67726137D01*
X38245773Y-67883180D01*
X38506926Y-67991353D01*
X38784165Y-68046500D01*
X39066835Y-68046500D01*
X39344074Y-67991353D01*
X39605227Y-67883180D01*
X39840259Y-67726137D01*
X40040137Y-67526259D01*
X40195500Y-67293741D01*
X40350863Y-67526259D01*
X40550741Y-67726137D01*
X40785773Y-67883180D01*
X41046926Y-67991353D01*
X41324165Y-68046500D01*
X41606835Y-68046500D01*
X41884074Y-67991353D01*
X42145227Y-67883180D01*
X42380259Y-67726137D01*
X42580137Y-67526259D01*
X42735500Y-67293741D01*
X42890863Y-67526259D01*
X43090741Y-67726137D01*
X43325773Y-67883180D01*
X43586926Y-67991353D01*
X43864165Y-68046500D01*
X44146835Y-68046500D01*
X44424074Y-67991353D01*
X44685227Y-67883180D01*
X44920259Y-67726137D01*
X45120137Y-67526259D01*
X45275500Y-67293741D01*
X45430863Y-67526259D01*
X45630741Y-67726137D01*
X45865773Y-67883180D01*
X46126926Y-67991353D01*
X46404165Y-68046500D01*
X46686835Y-68046500D01*
X46964074Y-67991353D01*
X47225227Y-67883180D01*
X47460259Y-67726137D01*
X47660137Y-67526259D01*
X47815500Y-67293741D01*
X47970863Y-67526259D01*
X48170741Y-67726137D01*
X48405773Y-67883180D01*
X48666926Y-67991353D01*
X48944165Y-68046500D01*
X49226835Y-68046500D01*
X49504074Y-67991353D01*
X49765227Y-67883180D01*
X50000259Y-67726137D01*
X50200137Y-67526259D01*
X50355500Y-67293741D01*
X50510863Y-67526259D01*
X50710741Y-67726137D01*
X50945773Y-67883180D01*
X51206926Y-67991353D01*
X51484165Y-68046500D01*
X51766835Y-68046500D01*
X52044074Y-67991353D01*
X52305227Y-67883180D01*
X52540259Y-67726137D01*
X52740137Y-67526259D01*
X52897180Y-67291227D01*
X52901567Y-67280635D01*
X53013115Y-67466631D01*
X53202086Y-67675019D01*
X53428080Y-67842537D01*
X53682413Y-67962746D01*
X53816461Y-68003404D01*
X54038500Y-67881415D01*
X54038500Y-66738500D01*
X54018500Y-66738500D01*
X54018500Y-66484500D01*
X54038500Y-66484500D01*
X54038500Y-65341585D01*
X53816461Y-65219596D01*
X53682413Y-65260254D01*
X53428080Y-65380463D01*
X53202086Y-65547981D01*
X53013115Y-65756369D01*
X52901567Y-65942365D01*
X52897180Y-65931773D01*
X52740137Y-65696741D01*
X52540259Y-65496863D01*
X52305227Y-65339820D01*
X52044074Y-65231647D01*
X51766835Y-65176500D01*
X51484165Y-65176500D01*
X51206926Y-65231647D01*
X50945773Y-65339820D01*
X50710741Y-65496863D01*
X50510863Y-65696741D01*
X50355500Y-65929259D01*
X50200137Y-65696741D01*
X50000259Y-65496863D01*
X49765227Y-65339820D01*
X49504074Y-65231647D01*
X49226835Y-65176500D01*
X48944165Y-65176500D01*
X48666926Y-65231647D01*
X48405773Y-65339820D01*
X48170741Y-65496863D01*
X47970863Y-65696741D01*
X47815500Y-65929259D01*
X47660137Y-65696741D01*
X47460259Y-65496863D01*
X47225227Y-65339820D01*
X46964074Y-65231647D01*
X46686835Y-65176500D01*
X46404165Y-65176500D01*
X46126926Y-65231647D01*
X45865773Y-65339820D01*
X45630741Y-65496863D01*
X45430863Y-65696741D01*
X45275500Y-65929259D01*
X45120137Y-65696741D01*
X44920259Y-65496863D01*
X44685227Y-65339820D01*
X44424074Y-65231647D01*
X44146835Y-65176500D01*
X43864165Y-65176500D01*
X43586926Y-65231647D01*
X43325773Y-65339820D01*
X43090741Y-65496863D01*
X42890863Y-65696741D01*
X42735500Y-65929259D01*
X42580137Y-65696741D01*
X42380259Y-65496863D01*
X42145227Y-65339820D01*
X41884074Y-65231647D01*
X41606835Y-65176500D01*
X41324165Y-65176500D01*
X41046926Y-65231647D01*
X40785773Y-65339820D01*
X40550741Y-65496863D01*
X40350863Y-65696741D01*
X40195500Y-65929259D01*
X40040137Y-65696741D01*
X39840259Y-65496863D01*
X39605227Y-65339820D01*
X39344074Y-65231647D01*
X39066835Y-65176500D01*
X38784165Y-65176500D01*
X38506926Y-65231647D01*
X38245773Y-65339820D01*
X38010741Y-65496863D01*
X37810863Y-65696741D01*
X37655500Y-65929259D01*
X37500137Y-65696741D01*
X37300259Y-65496863D01*
X37065227Y-65339820D01*
X36804074Y-65231647D01*
X36526835Y-65176500D01*
X36244165Y-65176500D01*
X35966926Y-65231647D01*
X35705773Y-65339820D01*
X35470741Y-65496863D01*
X35270863Y-65696741D01*
X35115500Y-65929259D01*
X34960137Y-65696741D01*
X34760259Y-65496863D01*
X34525227Y-65339820D01*
X34264074Y-65231647D01*
X33986835Y-65176500D01*
X33704165Y-65176500D01*
X33426926Y-65231647D01*
X33165773Y-65339820D01*
X32930741Y-65496863D01*
X32730863Y-65696741D01*
X32575500Y-65929259D01*
X32420137Y-65696741D01*
X32220259Y-65496863D01*
X31985227Y-65339820D01*
X31724074Y-65231647D01*
X31446835Y-65176500D01*
X31164165Y-65176500D01*
X30886926Y-65231647D01*
X30625773Y-65339820D01*
X30390741Y-65496863D01*
X30190863Y-65696741D01*
X30035500Y-65929259D01*
X29880137Y-65696741D01*
X29680259Y-65496863D01*
X29445227Y-65339820D01*
X29184074Y-65231647D01*
X28906835Y-65176500D01*
X28624165Y-65176500D01*
X28346926Y-65231647D01*
X28085773Y-65339820D01*
X27850741Y-65496863D01*
X27650863Y-65696741D01*
X27495500Y-65929259D01*
X27340137Y-65696741D01*
X27140259Y-65496863D01*
X26905227Y-65339820D01*
X26644074Y-65231647D01*
X26366835Y-65176500D01*
X26084165Y-65176500D01*
X25806926Y-65231647D01*
X25545773Y-65339820D01*
X25310741Y-65496863D01*
X25110863Y-65696741D01*
X24955500Y-65929259D01*
X24800137Y-65696741D01*
X24600259Y-65496863D01*
X24365227Y-65339820D01*
X24104074Y-65231647D01*
X23826835Y-65176500D01*
X23544165Y-65176500D01*
X23266926Y-65231647D01*
X23005773Y-65339820D01*
X22770741Y-65496863D01*
X22570863Y-65696741D01*
X22415500Y-65929259D01*
X22260137Y-65696741D01*
X22060259Y-65496863D01*
X21825227Y-65339820D01*
X21564074Y-65231647D01*
X21286835Y-65176500D01*
X21004165Y-65176500D01*
X20726926Y-65231647D01*
X20465773Y-65339820D01*
X20230741Y-65496863D01*
X20030863Y-65696741D01*
X19873820Y-65931773D01*
X19765647Y-66192926D01*
X19710500Y-66470165D01*
X15392000Y-66470165D01*
X15392000Y-38290500D01*
X18540324Y-38290500D01*
X18544000Y-38327822D01*
X18544001Y-56223667D01*
X18540324Y-56261000D01*
X18544001Y-56298333D01*
X18554825Y-56408224D01*
X18554998Y-56409985D01*
X18598454Y-56553246D01*
X18669026Y-56685276D01*
X18737759Y-56769026D01*
X18764000Y-56801001D01*
X18792998Y-56824799D01*
X20899201Y-58931003D01*
X20922999Y-58960001D01*
X20951997Y-58983799D01*
X21038723Y-59054974D01*
X21170753Y-59125546D01*
X21314014Y-59169003D01*
X21425667Y-59180000D01*
X21425676Y-59180000D01*
X21462999Y-59183676D01*
X21500322Y-59180000D01*
X31427289Y-59180000D01*
X31471226Y-59223937D01*
X31640744Y-59337205D01*
X31829102Y-59415226D01*
X32029061Y-59455000D01*
X32232939Y-59455000D01*
X32432898Y-59415226D01*
X32621256Y-59337205D01*
X32790774Y-59223937D01*
X32934937Y-59079774D01*
X33048205Y-58910256D01*
X33126226Y-58721898D01*
X33166000Y-58521939D01*
X33166000Y-58318061D01*
X33126226Y-58118102D01*
X33048205Y-57929744D01*
X32934937Y-57760226D01*
X32790774Y-57616063D01*
X32755509Y-57592500D01*
X41341199Y-57592500D01*
X43359201Y-59610503D01*
X43383000Y-59639502D01*
X43411998Y-59663300D01*
X43498725Y-59734475D01*
X43630754Y-59805047D01*
X43774015Y-59848504D01*
X43923001Y-59863178D01*
X43960334Y-59859501D01*
X45066341Y-59859501D01*
X45120295Y-59989756D01*
X45233563Y-60159274D01*
X45377726Y-60303437D01*
X45547244Y-60416705D01*
X45735602Y-60494726D01*
X45935561Y-60534500D01*
X46139439Y-60534500D01*
X46339398Y-60494726D01*
X46527756Y-60416705D01*
X46697274Y-60303437D01*
X46841437Y-60159274D01*
X46954705Y-59989756D01*
X47032726Y-59801398D01*
X47048152Y-59723846D01*
X47134744Y-59781705D01*
X47323102Y-59859726D01*
X47523061Y-59899500D01*
X47726939Y-59899500D01*
X47926898Y-59859726D01*
X48115256Y-59781705D01*
X48284774Y-59668437D01*
X48428937Y-59524274D01*
X48542205Y-59354756D01*
X48620226Y-59166398D01*
X48660000Y-58966439D01*
X48660000Y-58925605D01*
X48752398Y-58907226D01*
X48940756Y-58829205D01*
X49110274Y-58715937D01*
X49254437Y-58571774D01*
X49367705Y-58402256D01*
X49445726Y-58213898D01*
X49485500Y-58013939D01*
X49485500Y-57973105D01*
X49577898Y-57954726D01*
X49766256Y-57876705D01*
X49849501Y-57821083D01*
X49849500Y-61145289D01*
X49805563Y-61189226D01*
X49692295Y-61358744D01*
X49614274Y-61547102D01*
X49574500Y-61747061D01*
X49574500Y-61950939D01*
X49614274Y-62150898D01*
X49692295Y-62339256D01*
X49805563Y-62508774D01*
X49949726Y-62652937D01*
X50119244Y-62766205D01*
X50307602Y-62844226D01*
X50507561Y-62884000D01*
X50711439Y-62884000D01*
X50911398Y-62844226D01*
X51099756Y-62766205D01*
X51269274Y-62652937D01*
X51413437Y-62508774D01*
X51526705Y-62339256D01*
X51604726Y-62150898D01*
X51644500Y-61950939D01*
X51644500Y-61747061D01*
X51604726Y-61547102D01*
X51526705Y-61358744D01*
X51413437Y-61189226D01*
X51369500Y-61145289D01*
X51369500Y-58101617D01*
X53795728Y-60527845D01*
X53741774Y-60658102D01*
X53702000Y-60858061D01*
X53702000Y-61061939D01*
X53741774Y-61261898D01*
X53819795Y-61450256D01*
X53933063Y-61619774D01*
X54077226Y-61763937D01*
X54246744Y-61877205D01*
X54435102Y-61955226D01*
X54635061Y-61995000D01*
X54838939Y-61995000D01*
X55038898Y-61955226D01*
X55227256Y-61877205D01*
X55340250Y-61801705D01*
X55390450Y-61835248D01*
X54189199Y-63036500D01*
X54127061Y-63036500D01*
X53927102Y-63076274D01*
X53738744Y-63154295D01*
X53569226Y-63267563D01*
X53425063Y-63411726D01*
X53311795Y-63581244D01*
X53233774Y-63769602D01*
X53194000Y-63969561D01*
X53194000Y-64173439D01*
X53233774Y-64373398D01*
X53311795Y-64561756D01*
X53425063Y-64731274D01*
X53569226Y-64875437D01*
X53738744Y-64988705D01*
X53927102Y-65066726D01*
X54127061Y-65106500D01*
X54204774Y-65106500D01*
X54336752Y-65177045D01*
X54480013Y-65220502D01*
X54507892Y-65223248D01*
X54292500Y-65341585D01*
X54292500Y-66484500D01*
X54312500Y-66484500D01*
X54312500Y-66738500D01*
X54292500Y-66738500D01*
X54292500Y-67881415D01*
X54514539Y-68003404D01*
X54648587Y-67962746D01*
X54902920Y-67842537D01*
X55128914Y-67675019D01*
X55317885Y-67466631D01*
X55429433Y-67280635D01*
X55433820Y-67291227D01*
X55590863Y-67526259D01*
X55790741Y-67726137D01*
X56025773Y-67883180D01*
X56286926Y-67991353D01*
X56564165Y-68046500D01*
X56846835Y-68046500D01*
X57124074Y-67991353D01*
X57385227Y-67883180D01*
X57620259Y-67726137D01*
X57820137Y-67526259D01*
X57977180Y-67291227D01*
X58085353Y-67030074D01*
X58140500Y-66752835D01*
X58140500Y-66470165D01*
X58085353Y-66192926D01*
X57977180Y-65931773D01*
X57820137Y-65696741D01*
X57620259Y-65496863D01*
X57385227Y-65339820D01*
X57124074Y-65231647D01*
X57123330Y-65231499D01*
X67063179Y-65231499D01*
X67100501Y-65235175D01*
X67137823Y-65231499D01*
X67137834Y-65231499D01*
X67249487Y-65220502D01*
X67392748Y-65177045D01*
X67524777Y-65106473D01*
X67640502Y-65011500D01*
X67664304Y-64982497D01*
X67844656Y-64802145D01*
X67969026Y-64754553D01*
X68095721Y-64674799D01*
X68204423Y-64571863D01*
X68290953Y-64449696D01*
X68336693Y-64347250D01*
X68353770Y-64296020D01*
X73461577Y-59307000D01*
X82766678Y-59307000D01*
X82804000Y-59310676D01*
X82841322Y-59307000D01*
X82841333Y-59307000D01*
X82952986Y-59296003D01*
X83096247Y-59252546D01*
X83228276Y-59181974D01*
X83344001Y-59087001D01*
X83367804Y-59057998D01*
X83986802Y-58439000D01*
X84048939Y-58439000D01*
X84248898Y-58399226D01*
X84437256Y-58321205D01*
X84606774Y-58207937D01*
X84750937Y-58063774D01*
X84864205Y-57894256D01*
X84942226Y-57705898D01*
X84982000Y-57505939D01*
X84982000Y-57302061D01*
X84942226Y-57102102D01*
X84864205Y-56913744D01*
X84750937Y-56744226D01*
X84606774Y-56600063D01*
X84437256Y-56486795D01*
X84248898Y-56408774D01*
X84048939Y-56369000D01*
X83845061Y-56369000D01*
X83645102Y-56408774D01*
X83456744Y-56486795D01*
X83287226Y-56600063D01*
X83143063Y-56744226D01*
X83029795Y-56913744D01*
X82951774Y-57102102D01*
X82912000Y-57302061D01*
X82912000Y-57364198D01*
X82489199Y-57787000D01*
X73193806Y-57787000D01*
X73160983Y-57783377D01*
X73119159Y-57787000D01*
X73114667Y-57787000D01*
X73081876Y-57790230D01*
X73011835Y-57796297D01*
X73007507Y-57797554D01*
X73003014Y-57797997D01*
X72935637Y-57818435D01*
X72868073Y-57838065D01*
X72864070Y-57840144D01*
X72859753Y-57841454D01*
X72797671Y-57874638D01*
X72735223Y-57907079D01*
X72731703Y-57909899D01*
X72727724Y-57912026D01*
X72673296Y-57956694D01*
X72647665Y-57977229D01*
X72644463Y-57980356D01*
X72611999Y-58006999D01*
X72591042Y-58032535D01*
X67183464Y-63314356D01*
X67179997Y-63317201D01*
X67160904Y-63336294D01*
X67114078Y-63380637D01*
X67108049Y-63389150D01*
X66785700Y-63711499D01*
X58798207Y-63711499D01*
X58820000Y-63601939D01*
X58820000Y-63398061D01*
X58780226Y-63198102D01*
X58702205Y-63009744D01*
X58588937Y-62840226D01*
X58545000Y-62796289D01*
X58545000Y-61864013D01*
X58564744Y-61877205D01*
X58753102Y-61955226D01*
X58953061Y-61995000D01*
X59156939Y-61995000D01*
X59356898Y-61955226D01*
X59545256Y-61877205D01*
X59714774Y-61763937D01*
X59858937Y-61619774D01*
X59972205Y-61450256D01*
X60050226Y-61261898D01*
X60090000Y-61061939D01*
X60090000Y-60858061D01*
X60050226Y-60658102D01*
X59972205Y-60469744D01*
X59858937Y-60300226D01*
X59815000Y-60256289D01*
X59815000Y-55948711D01*
X59858937Y-55904774D01*
X59972205Y-55735256D01*
X60050226Y-55546898D01*
X60090000Y-55346939D01*
X60090000Y-55143061D01*
X60050226Y-54943102D01*
X59972205Y-54754744D01*
X59858937Y-54585226D01*
X59714774Y-54441063D01*
X59545256Y-54327795D01*
X59356898Y-54249774D01*
X59156939Y-54210000D01*
X58953061Y-54210000D01*
X58753102Y-54249774D01*
X58564744Y-54327795D01*
X58395226Y-54441063D01*
X58251063Y-54585226D01*
X58151715Y-54733911D01*
X56246806Y-52829003D01*
X56230859Y-52809572D01*
X57505500Y-52809572D01*
X57629982Y-52797312D01*
X57749680Y-52761002D01*
X57859994Y-52702037D01*
X57956685Y-52622685D01*
X58036037Y-52525994D01*
X58095002Y-52415680D01*
X58131312Y-52295982D01*
X58143572Y-52171500D01*
X58143572Y-50571500D01*
X58131312Y-50447018D01*
X58095002Y-50327320D01*
X58036037Y-50217006D01*
X57956685Y-50120315D01*
X57859994Y-50040963D01*
X57749680Y-49981998D01*
X57629982Y-49945688D01*
X57505500Y-49933428D01*
X57465500Y-49933428D01*
X57465500Y-49654301D01*
X58296003Y-48823799D01*
X58325001Y-48800001D01*
X58419974Y-48684276D01*
X58490546Y-48552247D01*
X58534003Y-48408986D01*
X58545000Y-48297333D01*
X58548677Y-48260000D01*
X58545000Y-48222667D01*
X58545000Y-47523061D01*
X60179000Y-47523061D01*
X60179000Y-47726939D01*
X60218774Y-47926898D01*
X60296795Y-48115256D01*
X60410063Y-48284774D01*
X60554226Y-48428937D01*
X60723744Y-48542205D01*
X60912102Y-48620226D01*
X61112061Y-48660000D01*
X61315939Y-48660000D01*
X61515898Y-48620226D01*
X61704256Y-48542205D01*
X61873774Y-48428937D01*
X61917711Y-48385000D01*
X64574289Y-48385000D01*
X64618226Y-48428937D01*
X64787744Y-48542205D01*
X64976102Y-48620226D01*
X65176061Y-48660000D01*
X65379939Y-48660000D01*
X65579898Y-48620226D01*
X65768256Y-48542205D01*
X65937774Y-48428937D01*
X66081937Y-48284774D01*
X66195205Y-48115256D01*
X66273226Y-47926898D01*
X66313000Y-47726939D01*
X66313000Y-47523061D01*
X66273226Y-47323102D01*
X66195205Y-47134744D01*
X66081937Y-46965226D01*
X65937774Y-46821063D01*
X65768256Y-46707795D01*
X65579898Y-46629774D01*
X65379939Y-46590000D01*
X65176061Y-46590000D01*
X64976102Y-46629774D01*
X64787744Y-46707795D01*
X64618226Y-46821063D01*
X64574289Y-46865000D01*
X61917711Y-46865000D01*
X61873774Y-46821063D01*
X61704256Y-46707795D01*
X61515898Y-46629774D01*
X61315939Y-46590000D01*
X61112061Y-46590000D01*
X60912102Y-46629774D01*
X60723744Y-46707795D01*
X60554226Y-46821063D01*
X60410063Y-46965226D01*
X60296795Y-47134744D01*
X60218774Y-47323102D01*
X60179000Y-47523061D01*
X58545000Y-47523061D01*
X58545000Y-41978711D01*
X58588937Y-41934774D01*
X58702205Y-41765256D01*
X58780226Y-41576898D01*
X58820000Y-41376939D01*
X58820000Y-41173061D01*
X58780226Y-40973102D01*
X58702205Y-40784744D01*
X58588937Y-40615226D01*
X58444774Y-40471063D01*
X58275256Y-40357795D01*
X58086898Y-40279774D01*
X57886939Y-40240000D01*
X57683061Y-40240000D01*
X57483102Y-40279774D01*
X57294744Y-40357795D01*
X57205030Y-40417740D01*
X57205030Y-38486181D01*
X58363803Y-37327408D01*
X59573000Y-37327408D01*
X59573000Y-37602592D01*
X59626686Y-37872490D01*
X59731995Y-38126727D01*
X59884880Y-38355535D01*
X60079465Y-38550120D01*
X60308273Y-38703005D01*
X60562510Y-38808314D01*
X60832408Y-38862000D01*
X61107592Y-38862000D01*
X61377490Y-38808314D01*
X61631727Y-38703005D01*
X61860535Y-38550120D01*
X62055120Y-38355535D01*
X62208005Y-38126727D01*
X62313314Y-37872490D01*
X62367000Y-37602592D01*
X62367000Y-37327408D01*
X62313314Y-37057510D01*
X62208005Y-36803273D01*
X62141005Y-36703000D01*
X67169928Y-36703000D01*
X67169928Y-38227000D01*
X67182188Y-38351482D01*
X67218498Y-38471180D01*
X67277463Y-38581494D01*
X67356815Y-38678185D01*
X67453506Y-38757537D01*
X67563820Y-38816502D01*
X67683518Y-38852812D01*
X67808000Y-38865072D01*
X69332000Y-38865072D01*
X69456482Y-38852812D01*
X69576180Y-38816502D01*
X69686494Y-38757537D01*
X69783185Y-38678185D01*
X69862537Y-38581494D01*
X69921502Y-38471180D01*
X69957812Y-38351482D01*
X69970072Y-38227000D01*
X69970072Y-36703000D01*
X69957812Y-36578518D01*
X69921502Y-36458820D01*
X69862537Y-36348506D01*
X69783185Y-36251815D01*
X69686494Y-36172463D01*
X69576180Y-36113498D01*
X69456482Y-36077188D01*
X69332000Y-36064928D01*
X67808000Y-36064928D01*
X67683518Y-36077188D01*
X67563820Y-36113498D01*
X67453506Y-36172463D01*
X67356815Y-36251815D01*
X67277463Y-36348506D01*
X67218498Y-36458820D01*
X67182188Y-36578518D01*
X67169928Y-36703000D01*
X62141005Y-36703000D01*
X62055120Y-36574465D01*
X61860535Y-36379880D01*
X61631727Y-36226995D01*
X61377490Y-36121686D01*
X61107592Y-36068000D01*
X60832408Y-36068000D01*
X60562510Y-36121686D01*
X60308273Y-36226995D01*
X60079465Y-36379880D01*
X59884880Y-36574465D01*
X59731995Y-36803273D01*
X59626686Y-37057510D01*
X59573000Y-37327408D01*
X58363803Y-37327408D01*
X72871010Y-22820203D01*
X72900001Y-22796411D01*
X72923795Y-22767418D01*
X72923799Y-22767414D01*
X72994973Y-22680687D01*
X72994974Y-22680686D01*
X73065546Y-22548657D01*
X73109003Y-22405396D01*
X73120000Y-22293743D01*
X73120000Y-22293734D01*
X73123676Y-22256411D01*
X73120000Y-22219088D01*
X73120000Y-21492341D01*
X73250535Y-21405120D01*
X73370090Y-21285565D01*
X74114040Y-21285565D01*
X74181020Y-21525656D01*
X74430048Y-21642756D01*
X74697135Y-21709023D01*
X74972017Y-21721910D01*
X75244133Y-21680922D01*
X75503023Y-21587636D01*
X75618980Y-21525656D01*
X75685960Y-21285565D01*
X74900000Y-20499605D01*
X74114040Y-21285565D01*
X73370090Y-21285565D01*
X73445120Y-21210535D01*
X73598005Y-20981727D01*
X73627692Y-20910057D01*
X73632364Y-20923023D01*
X73694344Y-21038980D01*
X73934435Y-21105960D01*
X74720395Y-20320000D01*
X75079605Y-20320000D01*
X75865565Y-21105960D01*
X76105656Y-21038980D01*
X76222756Y-20789952D01*
X76289023Y-20522865D01*
X76301910Y-20247983D01*
X76260922Y-19975867D01*
X76167636Y-19716977D01*
X76105656Y-19601020D01*
X75865565Y-19534040D01*
X75079605Y-20320000D01*
X74720395Y-20320000D01*
X73934435Y-19534040D01*
X73694344Y-19601020D01*
X73630515Y-19736760D01*
X73598005Y-19658273D01*
X73445120Y-19429465D01*
X73370090Y-19354435D01*
X74114040Y-19354435D01*
X74900000Y-20140395D01*
X75685960Y-19354435D01*
X75618980Y-19114344D01*
X75369952Y-18997244D01*
X75102865Y-18930977D01*
X74827983Y-18918090D01*
X74555867Y-18959078D01*
X74296977Y-19052364D01*
X74181020Y-19114344D01*
X74114040Y-19354435D01*
X73370090Y-19354435D01*
X73250535Y-19234880D01*
X73021727Y-19081995D01*
X72767490Y-18976686D01*
X72497592Y-18923000D01*
X72222408Y-18923000D01*
X71952510Y-18976686D01*
X71698273Y-19081995D01*
X71469465Y-19234880D01*
X71274880Y-19429465D01*
X71121995Y-19658273D01*
X71090000Y-19735515D01*
X71058005Y-19658273D01*
X70905120Y-19429465D01*
X70710535Y-19234880D01*
X70481727Y-19081995D01*
X70227490Y-18976686D01*
X69957592Y-18923000D01*
X69682408Y-18923000D01*
X69412510Y-18976686D01*
X69158273Y-19081995D01*
X68929465Y-19234880D01*
X68734880Y-19429465D01*
X68676080Y-19517465D01*
X68667812Y-19433518D01*
X68631502Y-19313820D01*
X68572537Y-19203506D01*
X68493185Y-19106815D01*
X68396494Y-19027463D01*
X68286180Y-18968498D01*
X68166482Y-18932188D01*
X68042000Y-18919928D01*
X66518000Y-18919928D01*
X66393518Y-18932188D01*
X66273820Y-18968498D01*
X66163506Y-19027463D01*
X66066815Y-19106815D01*
X65987463Y-19203506D01*
X65928498Y-19313820D01*
X65892188Y-19433518D01*
X65879928Y-19558000D01*
X65879928Y-21082000D01*
X65892188Y-21206482D01*
X65928498Y-21326180D01*
X65987463Y-21436494D01*
X66066815Y-21533185D01*
X66163506Y-21612537D01*
X66273820Y-21671502D01*
X66393518Y-21707812D01*
X66518000Y-21720072D01*
X68042000Y-21720072D01*
X68166482Y-21707812D01*
X68286180Y-21671502D01*
X68396494Y-21612537D01*
X68493185Y-21533185D01*
X68572537Y-21436494D01*
X68631502Y-21326180D01*
X68667812Y-21206482D01*
X68676080Y-21122535D01*
X68734880Y-21210535D01*
X68929465Y-21405120D01*
X69060000Y-21492341D01*
X69060001Y-23845197D01*
X55419803Y-37485396D01*
X55390799Y-37509199D01*
X55359790Y-37546984D01*
X55295826Y-37624924D01*
X55260911Y-37690245D01*
X55225254Y-37756954D01*
X55181797Y-37900215D01*
X55170800Y-38011868D01*
X55170800Y-38011878D01*
X55167124Y-38049200D01*
X55170800Y-38086523D01*
X55170801Y-40248997D01*
X54679800Y-40739998D01*
X54679800Y-40560861D01*
X54640026Y-40360902D01*
X54562005Y-40172544D01*
X54448737Y-40003026D01*
X54304574Y-39858863D01*
X54135056Y-39745595D01*
X53946698Y-39667574D01*
X53746739Y-39627800D01*
X53542861Y-39627800D01*
X53342902Y-39667574D01*
X53154544Y-39745595D01*
X52985026Y-39858863D01*
X52941089Y-39902800D01*
X52388696Y-39902800D01*
X52354026Y-39728502D01*
X52276005Y-39540144D01*
X52162737Y-39370626D01*
X52018574Y-39226463D01*
X51849056Y-39113195D01*
X51660698Y-39035174D01*
X51460739Y-38995400D01*
X51256861Y-38995400D01*
X51056902Y-39035174D01*
X50868544Y-39113195D01*
X50699026Y-39226463D01*
X50554863Y-39370626D01*
X50441595Y-39540144D01*
X50363574Y-39728502D01*
X50323800Y-39928461D01*
X50323800Y-40132339D01*
X50363574Y-40332298D01*
X50441595Y-40520656D01*
X50554863Y-40690174D01*
X50699026Y-40834337D01*
X50868544Y-40947605D01*
X51056902Y-41025626D01*
X51256861Y-41065400D01*
X51318998Y-41065400D01*
X51427400Y-41173802D01*
X51451199Y-41202801D01*
X51566924Y-41297774D01*
X51698953Y-41368346D01*
X51842214Y-41411803D01*
X51953867Y-41422800D01*
X51953875Y-41422800D01*
X51991200Y-41426476D01*
X52028525Y-41422800D01*
X52941089Y-41422800D01*
X52985026Y-41466737D01*
X53154544Y-41580005D01*
X53342902Y-41658026D01*
X53542861Y-41697800D01*
X53721998Y-41697800D01*
X48681799Y-46738000D01*
X34113117Y-46738000D01*
X34118500Y-46710939D01*
X34118500Y-46648801D01*
X34742002Y-46025300D01*
X34771000Y-46001502D01*
X34865973Y-45885777D01*
X34909116Y-45805063D01*
X34936545Y-45753748D01*
X34980002Y-45610487D01*
X34981410Y-45596187D01*
X34990999Y-45498833D01*
X34990999Y-45498826D01*
X34994675Y-45461501D01*
X34990999Y-45424176D01*
X34990999Y-40338476D01*
X35169589Y-40374000D01*
X35442411Y-40374000D01*
X35709989Y-40320775D01*
X35962043Y-40216371D01*
X36188886Y-40064799D01*
X36381799Y-39871886D01*
X36533371Y-39645043D01*
X36576000Y-39542127D01*
X36618629Y-39645043D01*
X36770201Y-39871886D01*
X36963114Y-40064799D01*
X37189957Y-40216371D01*
X37442011Y-40320775D01*
X37709589Y-40374000D01*
X37982411Y-40374000D01*
X38070776Y-40356423D01*
X37552199Y-40875000D01*
X37490061Y-40875000D01*
X37290102Y-40914774D01*
X37101744Y-40992795D01*
X36932226Y-41106063D01*
X36788063Y-41250226D01*
X36674795Y-41419744D01*
X36596774Y-41608102D01*
X36557000Y-41808061D01*
X36557000Y-42011939D01*
X36596774Y-42211898D01*
X36674795Y-42400256D01*
X36788063Y-42569774D01*
X36932226Y-42713937D01*
X37101744Y-42827205D01*
X37290102Y-42905226D01*
X37490061Y-42945000D01*
X37693939Y-42945000D01*
X37893898Y-42905226D01*
X38082256Y-42827205D01*
X38251774Y-42713937D01*
X38395937Y-42569774D01*
X38509205Y-42400256D01*
X38587226Y-42211898D01*
X38627000Y-42011939D01*
X38627000Y-41949801D01*
X38639800Y-41937001D01*
X38639800Y-41961139D01*
X38679574Y-42161098D01*
X38757595Y-42349456D01*
X38870863Y-42518974D01*
X39015026Y-42663137D01*
X39184544Y-42776405D01*
X39372902Y-42854426D01*
X39572861Y-42894200D01*
X39776739Y-42894200D01*
X39976698Y-42854426D01*
X40165056Y-42776405D01*
X40334574Y-42663137D01*
X40478737Y-42518974D01*
X40592005Y-42349456D01*
X40670026Y-42161098D01*
X40709800Y-41961139D01*
X40709800Y-41899001D01*
X42167003Y-40441799D01*
X42196001Y-40418001D01*
X42242861Y-40360902D01*
X42290974Y-40302277D01*
X42324759Y-40239071D01*
X42522011Y-40320775D01*
X42789589Y-40374000D01*
X43062411Y-40374000D01*
X43329989Y-40320775D01*
X43582043Y-40216371D01*
X43808886Y-40064799D01*
X44001799Y-39871886D01*
X44153371Y-39645043D01*
X44196000Y-39542127D01*
X44238629Y-39645043D01*
X44390201Y-39871886D01*
X44583114Y-40064799D01*
X44809957Y-40216371D01*
X45062011Y-40320775D01*
X45329589Y-40374000D01*
X45602411Y-40374000D01*
X45869989Y-40320775D01*
X46122043Y-40216371D01*
X46348886Y-40064799D01*
X46541799Y-39871886D01*
X46693371Y-39645043D01*
X46797775Y-39392989D01*
X46851000Y-39125411D01*
X46851000Y-38852589D01*
X46797775Y-38585011D01*
X46693371Y-38332957D01*
X46541799Y-38106114D01*
X46348886Y-37913201D01*
X46122043Y-37761629D01*
X45869989Y-37657225D01*
X45602411Y-37604000D01*
X45329589Y-37604000D01*
X45062011Y-37657225D01*
X44809957Y-37761629D01*
X44583114Y-37913201D01*
X44390201Y-38106114D01*
X44238629Y-38332957D01*
X44196000Y-38435873D01*
X44153371Y-38332957D01*
X44001799Y-38106114D01*
X43808886Y-37913201D01*
X43582043Y-37761629D01*
X43329989Y-37657225D01*
X43062411Y-37604000D01*
X42789589Y-37604000D01*
X42522011Y-37657225D01*
X42416000Y-37701136D01*
X42416000Y-34749513D01*
X42435744Y-34762705D01*
X42624102Y-34840726D01*
X42824061Y-34880500D01*
X43027939Y-34880500D01*
X43227898Y-34840726D01*
X43416256Y-34762705D01*
X43585774Y-34649437D01*
X43629711Y-34605500D01*
X53271289Y-34605500D01*
X53315226Y-34649437D01*
X53484744Y-34762705D01*
X53673102Y-34840726D01*
X53873061Y-34880500D01*
X54076939Y-34880500D01*
X54276898Y-34840726D01*
X54465256Y-34762705D01*
X54634774Y-34649437D01*
X54778937Y-34505274D01*
X54892205Y-34335756D01*
X54970226Y-34147398D01*
X55010000Y-33947439D01*
X55010000Y-33743561D01*
X54970226Y-33543602D01*
X54892205Y-33355244D01*
X54778937Y-33185726D01*
X54634774Y-33041563D01*
X54465256Y-32928295D01*
X54276898Y-32850274D01*
X54076939Y-32810500D01*
X53873061Y-32810500D01*
X53673102Y-32850274D01*
X53484744Y-32928295D01*
X53315226Y-33041563D01*
X53271289Y-33085500D01*
X43629711Y-33085500D01*
X43585774Y-33041563D01*
X43416256Y-32928295D01*
X43227898Y-32850274D01*
X43027939Y-32810500D01*
X42824061Y-32810500D01*
X42624102Y-32850274D01*
X42435744Y-32928295D01*
X42416000Y-32941487D01*
X42416000Y-26116982D01*
X42419676Y-26079659D01*
X42416000Y-26042336D01*
X42416000Y-26042327D01*
X42405003Y-25930674D01*
X42361546Y-25787413D01*
X42290974Y-25655384D01*
X42196001Y-25539659D01*
X42167004Y-25515862D01*
X41372413Y-24721272D01*
X41461799Y-24631886D01*
X41613371Y-24405043D01*
X41656000Y-24302127D01*
X41698629Y-24405043D01*
X41850201Y-24631886D01*
X42043114Y-24824799D01*
X42269957Y-24976371D01*
X42522011Y-25080775D01*
X42789589Y-25134000D01*
X43062411Y-25134000D01*
X43329989Y-25080775D01*
X43582043Y-24976371D01*
X43808886Y-24824799D01*
X44001799Y-24631886D01*
X44153371Y-24405043D01*
X44196000Y-24302127D01*
X44238629Y-24405043D01*
X44390201Y-24631886D01*
X44583114Y-24824799D01*
X44809957Y-24976371D01*
X45062011Y-25080775D01*
X45329589Y-25134000D01*
X45602411Y-25134000D01*
X45869989Y-25080775D01*
X46122043Y-24976371D01*
X46348886Y-24824799D01*
X46541799Y-24631886D01*
X46693371Y-24405043D01*
X46797775Y-24152989D01*
X46851000Y-23885411D01*
X46851000Y-23612589D01*
X46797775Y-23345011D01*
X46693371Y-23092957D01*
X46541799Y-22866114D01*
X46348886Y-22673201D01*
X46122043Y-22521629D01*
X45869989Y-22417225D01*
X45602411Y-22364000D01*
X45329589Y-22364000D01*
X45062011Y-22417225D01*
X44809957Y-22521629D01*
X44583114Y-22673201D01*
X44390201Y-22866114D01*
X44238629Y-23092957D01*
X44196000Y-23195873D01*
X44153371Y-23092957D01*
X44001799Y-22866114D01*
X43808886Y-22673201D01*
X43582043Y-22521629D01*
X43329989Y-22417225D01*
X43062411Y-22364000D01*
X42789589Y-22364000D01*
X42674003Y-22386992D01*
X42691000Y-22301539D01*
X42691000Y-22097661D01*
X42651226Y-21897702D01*
X42573205Y-21709344D01*
X42459937Y-21539826D01*
X42315774Y-21395663D01*
X42146256Y-21282395D01*
X41957898Y-21204374D01*
X41757939Y-21164600D01*
X41554061Y-21164600D01*
X41354102Y-21204374D01*
X41165744Y-21282395D01*
X40996226Y-21395663D01*
X40952289Y-21439600D01*
X38549711Y-21439600D01*
X38505774Y-21395663D01*
X38336256Y-21282395D01*
X38147898Y-21204374D01*
X37947939Y-21164600D01*
X37744061Y-21164600D01*
X37544102Y-21204374D01*
X37355744Y-21282395D01*
X37186226Y-21395663D01*
X37042063Y-21539826D01*
X36928795Y-21709344D01*
X36850774Y-21897702D01*
X36811000Y-22097661D01*
X36811000Y-22301539D01*
X36850774Y-22501498D01*
X36928795Y-22689856D01*
X36935870Y-22700445D01*
X36770201Y-22866114D01*
X36618629Y-23092957D01*
X36576000Y-23195873D01*
X36533371Y-23092957D01*
X36381799Y-22866114D01*
X36188886Y-22673201D01*
X35962043Y-22521629D01*
X35709989Y-22417225D01*
X35442411Y-22364000D01*
X35169589Y-22364000D01*
X34902011Y-22417225D01*
X34649957Y-22521629D01*
X34423114Y-22673201D01*
X34230201Y-22866114D01*
X34078629Y-23092957D01*
X34036000Y-23195873D01*
X33993371Y-23092957D01*
X33841799Y-22866114D01*
X33648886Y-22673201D01*
X33422043Y-22521629D01*
X33169989Y-22417225D01*
X32902411Y-22364000D01*
X32629589Y-22364000D01*
X32362011Y-22417225D01*
X32109957Y-22521629D01*
X31883114Y-22673201D01*
X31690201Y-22866114D01*
X31538629Y-23092957D01*
X31496000Y-23195873D01*
X31453371Y-23092957D01*
X31301799Y-22866114D01*
X31108886Y-22673201D01*
X30882043Y-22521629D01*
X30629989Y-22417225D01*
X30362411Y-22364000D01*
X30089589Y-22364000D01*
X29822011Y-22417225D01*
X29569957Y-22521629D01*
X29343114Y-22673201D01*
X29150201Y-22866114D01*
X28998629Y-23092957D01*
X28956000Y-23195873D01*
X28913371Y-23092957D01*
X28761799Y-22866114D01*
X28568886Y-22673201D01*
X28342043Y-22521629D01*
X28089989Y-22417225D01*
X27822411Y-22364000D01*
X27549589Y-22364000D01*
X27282011Y-22417225D01*
X27029957Y-22521629D01*
X26803114Y-22673201D01*
X26610201Y-22866114D01*
X26458629Y-23092957D01*
X26416000Y-23195873D01*
X26373371Y-23092957D01*
X26221799Y-22866114D01*
X26028886Y-22673201D01*
X25802043Y-22521629D01*
X25549989Y-22417225D01*
X25282411Y-22364000D01*
X25009589Y-22364000D01*
X24742011Y-22417225D01*
X24489957Y-22521629D01*
X24263114Y-22673201D01*
X24070201Y-22866114D01*
X23918629Y-23092957D01*
X23814225Y-23345011D01*
X23761000Y-23612589D01*
X23761000Y-23885411D01*
X23814225Y-24152989D01*
X23918629Y-24405043D01*
X24070201Y-24631886D01*
X24263114Y-24824799D01*
X24489957Y-24976371D01*
X24742011Y-25080775D01*
X25009589Y-25134000D01*
X25282411Y-25134000D01*
X25549989Y-25080775D01*
X25802043Y-24976371D01*
X26028886Y-24824799D01*
X26221799Y-24631886D01*
X26373371Y-24405043D01*
X26416000Y-24302127D01*
X26458629Y-24405043D01*
X26610201Y-24631886D01*
X26803114Y-24824799D01*
X27029957Y-24976371D01*
X27282011Y-25080775D01*
X27549589Y-25134000D01*
X27822411Y-25134000D01*
X28089989Y-25080775D01*
X28342043Y-24976371D01*
X28568886Y-24824799D01*
X28761799Y-24631886D01*
X28913371Y-24405043D01*
X28956000Y-24302127D01*
X28998629Y-24405043D01*
X29150201Y-24631886D01*
X29343114Y-24824799D01*
X29569957Y-24976371D01*
X29822011Y-25080775D01*
X30089589Y-25134000D01*
X30362411Y-25134000D01*
X30629989Y-25080775D01*
X30882043Y-24976371D01*
X31108886Y-24824799D01*
X31301799Y-24631886D01*
X31453371Y-24405043D01*
X31496000Y-24302127D01*
X31538629Y-24405043D01*
X31690201Y-24631886D01*
X31883114Y-24824799D01*
X32109957Y-24976371D01*
X32362011Y-25080775D01*
X32629589Y-25134000D01*
X32902411Y-25134000D01*
X33169989Y-25080775D01*
X33422043Y-24976371D01*
X33648886Y-24824799D01*
X33841799Y-24631886D01*
X33993371Y-24405043D01*
X34036000Y-24302127D01*
X34078629Y-24405043D01*
X34230201Y-24631886D01*
X34423114Y-24824799D01*
X34546000Y-24906909D01*
X34546000Y-25309889D01*
X34492574Y-25256463D01*
X34323056Y-25143195D01*
X34134698Y-25065174D01*
X33934739Y-25025400D01*
X33730861Y-25025400D01*
X33530902Y-25065174D01*
X33342544Y-25143195D01*
X33173026Y-25256463D01*
X33028863Y-25400626D01*
X32915595Y-25570144D01*
X32837574Y-25758502D01*
X32797800Y-25958461D01*
X32797800Y-26011600D01*
X25849711Y-26011600D01*
X25805774Y-25967663D01*
X25636256Y-25854395D01*
X25447898Y-25776374D01*
X25247939Y-25736600D01*
X25044061Y-25736600D01*
X24844102Y-25776374D01*
X24655744Y-25854395D01*
X24486226Y-25967663D01*
X24342063Y-26111826D01*
X24228795Y-26281344D01*
X24150774Y-26469702D01*
X24111000Y-26669661D01*
X24111000Y-26873539D01*
X24150774Y-27073498D01*
X24228795Y-27261856D01*
X24342063Y-27431374D01*
X24486226Y-27575537D01*
X24655744Y-27688805D01*
X24844102Y-27766826D01*
X25044061Y-27806600D01*
X25247939Y-27806600D01*
X25447898Y-27766826D01*
X25636256Y-27688805D01*
X25805774Y-27575537D01*
X25849711Y-27531600D01*
X33084278Y-27531600D01*
X33121600Y-27535276D01*
X33158922Y-27531600D01*
X33158933Y-27531600D01*
X33270586Y-27520603D01*
X33413847Y-27477146D01*
X33545876Y-27406574D01*
X33661601Y-27311601D01*
X33685403Y-27282598D01*
X33872601Y-27095400D01*
X33934739Y-27095400D01*
X34134698Y-27055626D01*
X34323056Y-26977605D01*
X34492574Y-26864337D01*
X34546000Y-26810911D01*
X34546000Y-29851346D01*
X34399256Y-29753295D01*
X34210898Y-29675274D01*
X34010939Y-29635500D01*
X33807061Y-29635500D01*
X33607102Y-29675274D01*
X33418744Y-29753295D01*
X33249226Y-29866563D01*
X33194276Y-29921513D01*
X33051068Y-29964954D01*
X32919038Y-30035526D01*
X32835398Y-30104168D01*
X32803314Y-30130499D01*
X32779516Y-30159497D01*
X29980514Y-32958500D01*
X23913322Y-32958500D01*
X23875999Y-32954824D01*
X23838676Y-32958500D01*
X23838667Y-32958500D01*
X23727014Y-32969497D01*
X23583753Y-33012954D01*
X23451724Y-33083526D01*
X23451722Y-33083527D01*
X23451723Y-33083527D01*
X23364996Y-33154701D01*
X23364992Y-33154705D01*
X23335999Y-33178499D01*
X23312205Y-33207492D01*
X18793003Y-37726696D01*
X18763999Y-37750499D01*
X18733375Y-37787815D01*
X18669026Y-37866224D01*
X18630661Y-37937999D01*
X18598454Y-37998254D01*
X18554997Y-38141515D01*
X18544000Y-38253168D01*
X18544000Y-38253178D01*
X18540324Y-38290500D01*
X15392000Y-38290500D01*
X15392000Y-17932000D01*
X88748001Y-17932000D01*
X88748000Y-88748000D01*
G36*
X57025001Y-55756801D02*
G01*
X57025001Y-59309201D01*
X54925500Y-57209701D01*
X54925500Y-54327935D01*
X54943102Y-54335226D01*
X55143061Y-54375000D01*
X55346939Y-54375000D01*
X55546898Y-54335226D01*
X55586870Y-54318669D01*
X57025001Y-55756801D01*
G37*
X57025001Y-55756801D02*
X57025001Y-59309201D01*
X54925500Y-57209701D01*
X54925500Y-54327935D01*
X54943102Y-54335226D01*
X55143061Y-54375000D01*
X55346939Y-54375000D01*
X55546898Y-54335226D01*
X55586870Y-54318669D01*
X57025001Y-55756801D01*
G36*
X53050863Y-52286259D02*
G01*
X53250741Y-52486137D01*
X53405500Y-52589544D01*
X53405501Y-56781514D01*
X51115500Y-54491514D01*
X51115500Y-52713483D01*
X51206926Y-52751353D01*
X51484165Y-52806500D01*
X51766835Y-52806500D01*
X52044074Y-52751353D01*
X52305227Y-52643180D01*
X52540259Y-52486137D01*
X52740137Y-52286259D01*
X52895500Y-52053741D01*
X53050863Y-52286259D01*
G37*
X53050863Y-52286259D02*
X53250741Y-52486137D01*
X53405500Y-52589544D01*
X53405501Y-56781514D01*
X51115500Y-54491514D01*
X51115500Y-52713483D01*
X51206926Y-52751353D01*
X51484165Y-52806500D01*
X51766835Y-52806500D01*
X52044074Y-52751353D01*
X52305227Y-52643180D01*
X52540259Y-52486137D01*
X52740137Y-52286259D01*
X52895500Y-52053741D01*
X53050863Y-52286259D01*
G36*
X49595501Y-49971803D02*
G01*
X49595501Y-50032975D01*
X49568587Y-50020254D01*
X49434539Y-49979596D01*
X49212500Y-50101585D01*
X49212500Y-51244500D01*
X49232500Y-51244500D01*
X49232500Y-51498500D01*
X49212500Y-51498500D01*
X49212500Y-52641415D01*
X49434539Y-52763404D01*
X49568587Y-52722746D01*
X49595501Y-52710025D01*
X49595500Y-54178014D01*
X48575500Y-53158014D01*
X48575500Y-52710026D01*
X48602413Y-52722746D01*
X48736461Y-52763404D01*
X48958500Y-52641415D01*
X48958500Y-51498500D01*
X48938500Y-51498500D01*
X48938500Y-51244500D01*
X48958500Y-51244500D01*
X48958500Y-50101585D01*
X48736461Y-49979596D01*
X48602413Y-50020254D01*
X48348080Y-50140463D01*
X48179343Y-50265539D01*
X47537924Y-49624121D01*
X47543756Y-49621705D01*
X47713274Y-49508437D01*
X47757211Y-49464500D01*
X49088199Y-49464500D01*
X49595501Y-49971803D01*
G37*
X49595501Y-49971803D02*
X49595501Y-50032975D01*
X49568587Y-50020254D01*
X49434539Y-49979596D01*
X49212500Y-50101585D01*
X49212500Y-51244500D01*
X49232500Y-51244500D01*
X49232500Y-51498500D01*
X49212500Y-51498500D01*
X49212500Y-52641415D01*
X49434539Y-52763404D01*
X49568587Y-52722746D01*
X49595501Y-52710025D01*
X49595500Y-54178014D01*
X48575500Y-53158014D01*
X48575500Y-52710026D01*
X48602413Y-52722746D01*
X48736461Y-52763404D01*
X48958500Y-52641415D01*
X48958500Y-51498500D01*
X48938500Y-51498500D01*
X48938500Y-51244500D01*
X48958500Y-51244500D01*
X48958500Y-50101585D01*
X48736461Y-49979596D01*
X48602413Y-50020254D01*
X48348080Y-50140463D01*
X48179343Y-50265539D01*
X47537924Y-49624121D01*
X47543756Y-49621705D01*
X47713274Y-49508437D01*
X47757211Y-49464500D01*
X49088199Y-49464500D01*
X49595501Y-49971803D01*
G36*
X34546001Y-37083195D02*
G01*
X33720001Y-37909195D01*
X33690998Y-37932998D01*
X33680939Y-37945254D01*
X33648886Y-37913201D01*
X33422043Y-37761629D01*
X33169989Y-37657225D01*
X32902411Y-37604000D01*
X32693711Y-37604000D01*
X32744437Y-37553274D01*
X32857705Y-37383756D01*
X32935726Y-37195398D01*
X32975500Y-36995439D01*
X32975500Y-36791561D01*
X32935726Y-36591602D01*
X32857705Y-36403244D01*
X32744437Y-36233726D01*
X32600274Y-36089563D01*
X32430756Y-35976295D01*
X32242398Y-35898274D01*
X32042439Y-35858500D01*
X31838561Y-35858500D01*
X31638602Y-35898274D01*
X31450244Y-35976295D01*
X31280726Y-36089563D01*
X31236789Y-36133500D01*
X29024711Y-36133500D01*
X28980774Y-36089563D01*
X28811256Y-35976295D01*
X28622898Y-35898274D01*
X28422939Y-35858500D01*
X28219061Y-35858500D01*
X28019102Y-35898274D01*
X27830744Y-35976295D01*
X27661226Y-36089563D01*
X27517063Y-36233726D01*
X27403795Y-36403244D01*
X27325774Y-36591602D01*
X27286000Y-36791561D01*
X27286000Y-36995439D01*
X27325774Y-37195398D01*
X27403795Y-37383756D01*
X27517063Y-37553274D01*
X27567789Y-37604000D01*
X27549589Y-37604000D01*
X27282011Y-37657225D01*
X27029957Y-37761629D01*
X26803114Y-37913201D01*
X26610201Y-38106114D01*
X26532445Y-38222483D01*
X26521812Y-38114518D01*
X26485502Y-37994820D01*
X26426537Y-37884506D01*
X26347185Y-37787815D01*
X26250494Y-37708463D01*
X26140180Y-37649498D01*
X26020482Y-37613188D01*
X25896000Y-37600928D01*
X24396000Y-37600928D01*
X24271518Y-37613188D01*
X24151820Y-37649498D01*
X24041506Y-37708463D01*
X23944815Y-37787815D01*
X23865463Y-37884506D01*
X23806498Y-37994820D01*
X23770188Y-38114518D01*
X23757928Y-38239000D01*
X23757928Y-39739000D01*
X23770188Y-39863482D01*
X23806498Y-39983180D01*
X23865463Y-40093494D01*
X23944815Y-40190185D01*
X24041506Y-40269537D01*
X24151820Y-40328502D01*
X24271518Y-40364812D01*
X24396000Y-40377072D01*
X25896000Y-40377072D01*
X26020482Y-40364812D01*
X26140180Y-40328502D01*
X26250494Y-40269537D01*
X26347185Y-40190185D01*
X26426537Y-40093494D01*
X26485502Y-39983180D01*
X26521812Y-39863482D01*
X26532445Y-39755517D01*
X26610201Y-39871886D01*
X26803114Y-40064799D01*
X27029957Y-40216371D01*
X27282011Y-40320775D01*
X27549589Y-40374000D01*
X27822411Y-40374000D01*
X28089989Y-40320775D01*
X28342043Y-40216371D01*
X28568886Y-40064799D01*
X28761799Y-39871886D01*
X28913371Y-39645043D01*
X28956000Y-39542127D01*
X28998629Y-39645043D01*
X29150201Y-39871886D01*
X29343114Y-40064799D01*
X29569957Y-40216371D01*
X29822011Y-40320775D01*
X30089589Y-40374000D01*
X30362411Y-40374000D01*
X30629989Y-40320775D01*
X30882043Y-40216371D01*
X31108886Y-40064799D01*
X31301799Y-39871886D01*
X31453371Y-39645043D01*
X31496000Y-39542127D01*
X31538629Y-39645043D01*
X31690201Y-39871886D01*
X31883114Y-40064799D01*
X32109957Y-40216371D01*
X32362011Y-40320775D01*
X32629589Y-40374000D01*
X32902411Y-40374000D01*
X33169989Y-40320775D01*
X33422043Y-40216371D01*
X33470999Y-40183659D01*
X33471000Y-45146698D01*
X33043699Y-45574000D01*
X32981561Y-45574000D01*
X32781602Y-45613774D01*
X32593244Y-45691795D01*
X32423726Y-45805063D01*
X32279563Y-45949226D01*
X32166295Y-46118744D01*
X32088274Y-46307102D01*
X32048500Y-46507061D01*
X32048500Y-46710939D01*
X32053883Y-46738000D01*
X26834322Y-46738000D01*
X26796999Y-46734324D01*
X26759676Y-46738000D01*
X26759667Y-46738000D01*
X26648014Y-46748997D01*
X26504753Y-46792454D01*
X26372723Y-46863026D01*
X26303966Y-46919454D01*
X26256999Y-46957999D01*
X26233200Y-46986998D01*
X25714502Y-47505697D01*
X25685499Y-47529499D01*
X25649965Y-47572798D01*
X25590526Y-47645224D01*
X25553473Y-47714545D01*
X25519954Y-47777254D01*
X25476497Y-47920515D01*
X25465500Y-48032168D01*
X25465500Y-48032178D01*
X25461824Y-48069500D01*
X25465500Y-48106823D01*
X25465501Y-50153456D01*
X25310741Y-50256863D01*
X25110863Y-50456741D01*
X24955500Y-50689259D01*
X24800137Y-50456741D01*
X24600259Y-50256863D01*
X24365227Y-50099820D01*
X24104074Y-49991647D01*
X23826835Y-49936500D01*
X23544165Y-49936500D01*
X23266926Y-49991647D01*
X23005773Y-50099820D01*
X22770741Y-50256863D01*
X22570863Y-50456741D01*
X22415500Y-50689259D01*
X22260137Y-50456741D01*
X22060259Y-50256863D01*
X21839413Y-50109298D01*
X21949437Y-49999274D01*
X22062705Y-49829756D01*
X22140726Y-49641398D01*
X22180500Y-49441439D01*
X22180500Y-49379301D01*
X22907504Y-48652298D01*
X22936502Y-48628500D01*
X23031475Y-48512775D01*
X23102047Y-48380746D01*
X23145504Y-48237485D01*
X23156501Y-48125832D01*
X23160178Y-48088499D01*
X23156501Y-48051166D01*
X23156501Y-47580159D01*
X23286756Y-47526205D01*
X23456274Y-47412937D01*
X23600437Y-47268774D01*
X23713705Y-47099256D01*
X23791726Y-46910898D01*
X23831500Y-46710939D01*
X23831500Y-46507061D01*
X23791726Y-46307102D01*
X23713705Y-46118744D01*
X23600437Y-45949226D01*
X23456274Y-45805063D01*
X23286756Y-45691795D01*
X23098398Y-45613774D01*
X22898439Y-45574000D01*
X22694561Y-45574000D01*
X22494602Y-45613774D01*
X22306244Y-45691795D01*
X22136726Y-45805063D01*
X21992563Y-45949226D01*
X21879295Y-46118744D01*
X21801274Y-46307102D01*
X21761500Y-46507061D01*
X21761500Y-46584774D01*
X21748551Y-46609000D01*
X21690955Y-46716753D01*
X21647498Y-46860014D01*
X21636501Y-46971667D01*
X21636501Y-46971677D01*
X21632825Y-47008999D01*
X21636501Y-47046322D01*
X21636502Y-47773696D01*
X21105699Y-48304500D01*
X21043561Y-48304500D01*
X20843602Y-48344274D01*
X20655244Y-48422295D01*
X20485726Y-48535563D01*
X20341563Y-48679726D01*
X20228295Y-48849244D01*
X20150274Y-49037602D01*
X20110500Y-49237561D01*
X20110500Y-49441439D01*
X20150274Y-49641398D01*
X20228295Y-49829756D01*
X20341563Y-49999274D01*
X20451587Y-50109298D01*
X20230741Y-50256863D01*
X20064000Y-50423604D01*
X20064000Y-38605301D01*
X24190803Y-34478500D01*
X30257993Y-34478500D01*
X30295315Y-34482176D01*
X30332637Y-34478500D01*
X30332648Y-34478500D01*
X30444301Y-34467503D01*
X30587562Y-34424046D01*
X30719591Y-34353474D01*
X30835316Y-34258501D01*
X30859119Y-34229497D01*
X33476845Y-31611772D01*
X33607102Y-31665726D01*
X33807061Y-31705500D01*
X34010939Y-31705500D01*
X34210898Y-31665726D01*
X34399256Y-31587705D01*
X34546001Y-31489654D01*
X34546001Y-37083195D01*
G37*
X34546001Y-37083195D02*
X33720001Y-37909195D01*
X33690998Y-37932998D01*
X33680939Y-37945254D01*
X33648886Y-37913201D01*
X33422043Y-37761629D01*
X33169989Y-37657225D01*
X32902411Y-37604000D01*
X32693711Y-37604000D01*
X32744437Y-37553274D01*
X32857705Y-37383756D01*
X32935726Y-37195398D01*
X32975500Y-36995439D01*
X32975500Y-36791561D01*
X32935726Y-36591602D01*
X32857705Y-36403244D01*
X32744437Y-36233726D01*
X32600274Y-36089563D01*
X32430756Y-35976295D01*
X32242398Y-35898274D01*
X32042439Y-35858500D01*
X31838561Y-35858500D01*
X31638602Y-35898274D01*
X31450244Y-35976295D01*
X31280726Y-36089563D01*
X31236789Y-36133500D01*
X29024711Y-36133500D01*
X28980774Y-36089563D01*
X28811256Y-35976295D01*
X28622898Y-35898274D01*
X28422939Y-35858500D01*
X28219061Y-35858500D01*
X28019102Y-35898274D01*
X27830744Y-35976295D01*
X27661226Y-36089563D01*
X27517063Y-36233726D01*
X27403795Y-36403244D01*
X27325774Y-36591602D01*
X27286000Y-36791561D01*
X27286000Y-36995439D01*
X27325774Y-37195398D01*
X27403795Y-37383756D01*
X27517063Y-37553274D01*
X27567789Y-37604000D01*
X27549589Y-37604000D01*
X27282011Y-37657225D01*
X27029957Y-37761629D01*
X26803114Y-37913201D01*
X26610201Y-38106114D01*
X26532445Y-38222483D01*
X26521812Y-38114518D01*
X26485502Y-37994820D01*
X26426537Y-37884506D01*
X26347185Y-37787815D01*
X26250494Y-37708463D01*
X26140180Y-37649498D01*
X26020482Y-37613188D01*
X25896000Y-37600928D01*
X24396000Y-37600928D01*
X24271518Y-37613188D01*
X24151820Y-37649498D01*
X24041506Y-37708463D01*
X23944815Y-37787815D01*
X23865463Y-37884506D01*
X23806498Y-37994820D01*
X23770188Y-38114518D01*
X23757928Y-38239000D01*
X23757928Y-39739000D01*
X23770188Y-39863482D01*
X23806498Y-39983180D01*
X23865463Y-40093494D01*
X23944815Y-40190185D01*
X24041506Y-40269537D01*
X24151820Y-40328502D01*
X24271518Y-40364812D01*
X24396000Y-40377072D01*
X25896000Y-40377072D01*
X26020482Y-40364812D01*
X26140180Y-40328502D01*
X26250494Y-40269537D01*
X26347185Y-40190185D01*
X26426537Y-40093494D01*
X26485502Y-39983180D01*
X26521812Y-39863482D01*
X26532445Y-39755517D01*
X26610201Y-39871886D01*
X26803114Y-40064799D01*
X27029957Y-40216371D01*
X27282011Y-40320775D01*
X27549589Y-40374000D01*
X27822411Y-40374000D01*
X28089989Y-40320775D01*
X28342043Y-40216371D01*
X28568886Y-40064799D01*
X28761799Y-39871886D01*
X28913371Y-39645043D01*
X28956000Y-39542127D01*
X28998629Y-39645043D01*
X29150201Y-39871886D01*
X29343114Y-40064799D01*
X29569957Y-40216371D01*
X29822011Y-40320775D01*
X30089589Y-40374000D01*
X30362411Y-40374000D01*
X30629989Y-40320775D01*
X30882043Y-40216371D01*
X31108886Y-40064799D01*
X31301799Y-39871886D01*
X31453371Y-39645043D01*
X31496000Y-39542127D01*
X31538629Y-39645043D01*
X31690201Y-39871886D01*
X31883114Y-40064799D01*
X32109957Y-40216371D01*
X32362011Y-40320775D01*
X32629589Y-40374000D01*
X32902411Y-40374000D01*
X33169989Y-40320775D01*
X33422043Y-40216371D01*
X33470999Y-40183659D01*
X33471000Y-45146698D01*
X33043699Y-45574000D01*
X32981561Y-45574000D01*
X32781602Y-45613774D01*
X32593244Y-45691795D01*
X32423726Y-45805063D01*
X32279563Y-45949226D01*
X32166295Y-46118744D01*
X32088274Y-46307102D01*
X32048500Y-46507061D01*
X32048500Y-46710939D01*
X32053883Y-46738000D01*
X26834322Y-46738000D01*
X26796999Y-46734324D01*
X26759676Y-46738000D01*
X26759667Y-46738000D01*
X26648014Y-46748997D01*
X26504753Y-46792454D01*
X26372723Y-46863026D01*
X26303966Y-46919454D01*
X26256999Y-46957999D01*
X26233200Y-46986998D01*
X25714502Y-47505697D01*
X25685499Y-47529499D01*
X25649965Y-47572798D01*
X25590526Y-47645224D01*
X25553473Y-47714545D01*
X25519954Y-47777254D01*
X25476497Y-47920515D01*
X25465500Y-48032168D01*
X25465500Y-48032178D01*
X25461824Y-48069500D01*
X25465500Y-48106823D01*
X25465501Y-50153456D01*
X25310741Y-50256863D01*
X25110863Y-50456741D01*
X24955500Y-50689259D01*
X24800137Y-50456741D01*
X24600259Y-50256863D01*
X24365227Y-50099820D01*
X24104074Y-49991647D01*
X23826835Y-49936500D01*
X23544165Y-49936500D01*
X23266926Y-49991647D01*
X23005773Y-50099820D01*
X22770741Y-50256863D01*
X22570863Y-50456741D01*
X22415500Y-50689259D01*
X22260137Y-50456741D01*
X22060259Y-50256863D01*
X21839413Y-50109298D01*
X21949437Y-49999274D01*
X22062705Y-49829756D01*
X22140726Y-49641398D01*
X22180500Y-49441439D01*
X22180500Y-49379301D01*
X22907504Y-48652298D01*
X22936502Y-48628500D01*
X23031475Y-48512775D01*
X23102047Y-48380746D01*
X23145504Y-48237485D01*
X23156501Y-48125832D01*
X23160178Y-48088499D01*
X23156501Y-48051166D01*
X23156501Y-47580159D01*
X23286756Y-47526205D01*
X23456274Y-47412937D01*
X23600437Y-47268774D01*
X23713705Y-47099256D01*
X23791726Y-46910898D01*
X23831500Y-46710939D01*
X23831500Y-46507061D01*
X23791726Y-46307102D01*
X23713705Y-46118744D01*
X23600437Y-45949226D01*
X23456274Y-45805063D01*
X23286756Y-45691795D01*
X23098398Y-45613774D01*
X22898439Y-45574000D01*
X22694561Y-45574000D01*
X22494602Y-45613774D01*
X22306244Y-45691795D01*
X22136726Y-45805063D01*
X21992563Y-45949226D01*
X21879295Y-46118744D01*
X21801274Y-46307102D01*
X21761500Y-46507061D01*
X21761500Y-46584774D01*
X21748551Y-46609000D01*
X21690955Y-46716753D01*
X21647498Y-46860014D01*
X21636501Y-46971667D01*
X21636501Y-46971677D01*
X21632825Y-47008999D01*
X21636501Y-47046322D01*
X21636502Y-47773696D01*
X21105699Y-48304500D01*
X21043561Y-48304500D01*
X20843602Y-48344274D01*
X20655244Y-48422295D01*
X20485726Y-48535563D01*
X20341563Y-48679726D01*
X20228295Y-48849244D01*
X20150274Y-49037602D01*
X20110500Y-49237561D01*
X20110500Y-49441439D01*
X20150274Y-49641398D01*
X20228295Y-49829756D01*
X20341563Y-49999274D01*
X20451587Y-50109298D01*
X20230741Y-50256863D01*
X20064000Y-50423604D01*
X20064000Y-38605301D01*
X24190803Y-34478500D01*
X30257993Y-34478500D01*
X30295315Y-34482176D01*
X30332637Y-34478500D01*
X30332648Y-34478500D01*
X30444301Y-34467503D01*
X30587562Y-34424046D01*
X30719591Y-34353474D01*
X30835316Y-34258501D01*
X30859119Y-34229497D01*
X33476845Y-31611772D01*
X33607102Y-31665726D01*
X33807061Y-31705500D01*
X34010939Y-31705500D01*
X34210898Y-31665726D01*
X34399256Y-31587705D01*
X34546001Y-31489654D01*
X34546001Y-37083195D01*
G36*
X39158629Y-24405043D02*
G01*
X39310201Y-24631886D01*
X39503114Y-24824799D01*
X39632318Y-24911131D01*
X39636998Y-24958645D01*
X39680454Y-25101906D01*
X39751026Y-25233936D01*
X39818361Y-25315983D01*
X39846000Y-25349661D01*
X39874998Y-25373459D01*
X40896000Y-26394462D01*
X40896001Y-34169346D01*
X40749256Y-34071295D01*
X40560898Y-33993274D01*
X40360939Y-33953500D01*
X40157061Y-33953500D01*
X39957102Y-33993274D01*
X39768744Y-34071295D01*
X39599226Y-34184563D01*
X39555289Y-34228500D01*
X37724211Y-34228500D01*
X37680274Y-34184563D01*
X37510756Y-34071295D01*
X37322398Y-33993274D01*
X37122439Y-33953500D01*
X36918561Y-33953500D01*
X36718602Y-33993274D01*
X36530244Y-34071295D01*
X36360726Y-34184563D01*
X36216563Y-34328726D01*
X36103295Y-34498244D01*
X36066000Y-34588281D01*
X36066000Y-24906909D01*
X36188886Y-24824799D01*
X36381799Y-24631886D01*
X36533371Y-24405043D01*
X36576000Y-24302127D01*
X36618629Y-24405043D01*
X36770201Y-24631886D01*
X36963114Y-24824799D01*
X37189957Y-24976371D01*
X37442011Y-25080775D01*
X37709589Y-25134000D01*
X37982411Y-25134000D01*
X38249989Y-25080775D01*
X38502043Y-24976371D01*
X38728886Y-24824799D01*
X38921799Y-24631886D01*
X39073371Y-24405043D01*
X39116000Y-24302127D01*
X39158629Y-24405043D01*
G37*
X39158629Y-24405043D02*
X39310201Y-24631886D01*
X39503114Y-24824799D01*
X39632318Y-24911131D01*
X39636998Y-24958645D01*
X39680454Y-25101906D01*
X39751026Y-25233936D01*
X39818361Y-25315983D01*
X39846000Y-25349661D01*
X39874998Y-25373459D01*
X40896000Y-26394462D01*
X40896001Y-34169346D01*
X40749256Y-34071295D01*
X40560898Y-33993274D01*
X40360939Y-33953500D01*
X40157061Y-33953500D01*
X39957102Y-33993274D01*
X39768744Y-34071295D01*
X39599226Y-34184563D01*
X39555289Y-34228500D01*
X37724211Y-34228500D01*
X37680274Y-34184563D01*
X37510756Y-34071295D01*
X37322398Y-33993274D01*
X37122439Y-33953500D01*
X36918561Y-33953500D01*
X36718602Y-33993274D01*
X36530244Y-34071295D01*
X36360726Y-34184563D01*
X36216563Y-34328726D01*
X36103295Y-34498244D01*
X36066000Y-34588281D01*
X36066000Y-24906909D01*
X36188886Y-24824799D01*
X36381799Y-24631886D01*
X36533371Y-24405043D01*
X36576000Y-24302127D01*
X36618629Y-24405043D01*
X36770201Y-24631886D01*
X36963114Y-24824799D01*
X37189957Y-24976371D01*
X37442011Y-25080775D01*
X37709589Y-25134000D01*
X37982411Y-25134000D01*
X38249989Y-25080775D01*
X38502043Y-24976371D01*
X38728886Y-24824799D01*
X38921799Y-24631886D01*
X39073371Y-24405043D01*
X39116000Y-24302127D01*
X39158629Y-24405043D01*
M02*
