G04 #@! TF.GenerationSoftware,KiCad,Pcbnew,(5.1.5)-3*
G04 #@! TF.CreationDate,2020-04-27T21:57:51+02:00*
G04 #@! TF.ProjectId,czujnikParkowania,637a756a-6e69-46b5-9061-726b6f77616e,rev?*
G04 #@! TF.SameCoordinates,Original*
G04 #@! TF.FileFunction,Legend,Top*
G04 #@! TF.FilePolarity,Positive*
%FSLAX46Y46*%
G04 Gerber Fmt 4.6, Leading zero omitted, Abs format (unit mm)*
G04 Created by KiCad (PCBNEW (5.1.5)-3) date 2020-04-27 21:57:51*
%MOMM*%
%LPD*%
G04 APERTURE LIST*
%ADD10C,0.120000*%
%ADD11C,0.150000*%
G04 APERTURE END LIST*
D10*
X69616648Y-37465000D02*
G75*
G03X69616648Y-37465000I-4846648J0D01*
G01*
X63436500Y-50609500D02*
X65976500Y-50609500D01*
X65976500Y-50609500D02*
X65976500Y-47939500D01*
X63436500Y-47939500D02*
X25206500Y-47939500D01*
X68646500Y-47939500D02*
X65976500Y-47939500D01*
X65976500Y-63309500D02*
X65976500Y-65979500D01*
X65976500Y-63309500D02*
X27876500Y-63309500D01*
X27876500Y-63309500D02*
X27876500Y-65979500D01*
X63436500Y-50609500D02*
X63436500Y-47939500D01*
X63436500Y-50609500D02*
X27876500Y-50609500D01*
X27876500Y-50609500D02*
X27876500Y-47939500D01*
X25206500Y-47939500D02*
X25206500Y-65979500D01*
X25206500Y-65979500D02*
X68646500Y-65979500D01*
X68646500Y-65979500D02*
X68646500Y-47939500D01*
X64596000Y-78851000D02*
G75*
G03X64596000Y-78851000I-2620000J0D01*
G01*
X60936000Y-78851000D02*
X59396000Y-78851000D01*
X64556000Y-78851000D02*
X63016000Y-78851000D01*
X60936000Y-78891000D02*
X59396000Y-78891000D01*
X64556000Y-78891000D02*
X63016000Y-78891000D01*
X64555000Y-78931000D02*
X63016000Y-78931000D01*
X60936000Y-78931000D02*
X59397000Y-78931000D01*
X64554000Y-78971000D02*
X63016000Y-78971000D01*
X60936000Y-78971000D02*
X59398000Y-78971000D01*
X64552000Y-79011000D02*
X63016000Y-79011000D01*
X60936000Y-79011000D02*
X59400000Y-79011000D01*
X64549000Y-79051000D02*
X63016000Y-79051000D01*
X60936000Y-79051000D02*
X59403000Y-79051000D01*
X64545000Y-79091000D02*
X63016000Y-79091000D01*
X60936000Y-79091000D02*
X59407000Y-79091000D01*
X64541000Y-79131000D02*
X63016000Y-79131000D01*
X60936000Y-79131000D02*
X59411000Y-79131000D01*
X64537000Y-79171000D02*
X63016000Y-79171000D01*
X60936000Y-79171000D02*
X59415000Y-79171000D01*
X64532000Y-79211000D02*
X63016000Y-79211000D01*
X60936000Y-79211000D02*
X59420000Y-79211000D01*
X64526000Y-79251000D02*
X63016000Y-79251000D01*
X60936000Y-79251000D02*
X59426000Y-79251000D01*
X64519000Y-79291000D02*
X63016000Y-79291000D01*
X60936000Y-79291000D02*
X59433000Y-79291000D01*
X64512000Y-79331000D02*
X63016000Y-79331000D01*
X60936000Y-79331000D02*
X59440000Y-79331000D01*
X64504000Y-79371000D02*
X63016000Y-79371000D01*
X60936000Y-79371000D02*
X59448000Y-79371000D01*
X64496000Y-79411000D02*
X63016000Y-79411000D01*
X60936000Y-79411000D02*
X59456000Y-79411000D01*
X64487000Y-79451000D02*
X63016000Y-79451000D01*
X60936000Y-79451000D02*
X59465000Y-79451000D01*
X64477000Y-79491000D02*
X63016000Y-79491000D01*
X60936000Y-79491000D02*
X59475000Y-79491000D01*
X64467000Y-79531000D02*
X63016000Y-79531000D01*
X60936000Y-79531000D02*
X59485000Y-79531000D01*
X64456000Y-79572000D02*
X63016000Y-79572000D01*
X60936000Y-79572000D02*
X59496000Y-79572000D01*
X64444000Y-79612000D02*
X63016000Y-79612000D01*
X60936000Y-79612000D02*
X59508000Y-79612000D01*
X64431000Y-79652000D02*
X63016000Y-79652000D01*
X60936000Y-79652000D02*
X59521000Y-79652000D01*
X64418000Y-79692000D02*
X63016000Y-79692000D01*
X60936000Y-79692000D02*
X59534000Y-79692000D01*
X64404000Y-79732000D02*
X63016000Y-79732000D01*
X60936000Y-79732000D02*
X59548000Y-79732000D01*
X64390000Y-79772000D02*
X63016000Y-79772000D01*
X60936000Y-79772000D02*
X59562000Y-79772000D01*
X64374000Y-79812000D02*
X63016000Y-79812000D01*
X60936000Y-79812000D02*
X59578000Y-79812000D01*
X64358000Y-79852000D02*
X63016000Y-79852000D01*
X60936000Y-79852000D02*
X59594000Y-79852000D01*
X64341000Y-79892000D02*
X63016000Y-79892000D01*
X60936000Y-79892000D02*
X59611000Y-79892000D01*
X64324000Y-79932000D02*
X63016000Y-79932000D01*
X60936000Y-79932000D02*
X59628000Y-79932000D01*
X64305000Y-79972000D02*
X63016000Y-79972000D01*
X60936000Y-79972000D02*
X59647000Y-79972000D01*
X64286000Y-80012000D02*
X63016000Y-80012000D01*
X60936000Y-80012000D02*
X59666000Y-80012000D01*
X64266000Y-80052000D02*
X63016000Y-80052000D01*
X60936000Y-80052000D02*
X59686000Y-80052000D01*
X64244000Y-80092000D02*
X63016000Y-80092000D01*
X60936000Y-80092000D02*
X59708000Y-80092000D01*
X64223000Y-80132000D02*
X63016000Y-80132000D01*
X60936000Y-80132000D02*
X59729000Y-80132000D01*
X64200000Y-80172000D02*
X63016000Y-80172000D01*
X60936000Y-80172000D02*
X59752000Y-80172000D01*
X64176000Y-80212000D02*
X63016000Y-80212000D01*
X60936000Y-80212000D02*
X59776000Y-80212000D01*
X64151000Y-80252000D02*
X63016000Y-80252000D01*
X60936000Y-80252000D02*
X59801000Y-80252000D01*
X64125000Y-80292000D02*
X63016000Y-80292000D01*
X60936000Y-80292000D02*
X59827000Y-80292000D01*
X64098000Y-80332000D02*
X63016000Y-80332000D01*
X60936000Y-80332000D02*
X59854000Y-80332000D01*
X64071000Y-80372000D02*
X63016000Y-80372000D01*
X60936000Y-80372000D02*
X59881000Y-80372000D01*
X64041000Y-80412000D02*
X63016000Y-80412000D01*
X60936000Y-80412000D02*
X59911000Y-80412000D01*
X64011000Y-80452000D02*
X63016000Y-80452000D01*
X60936000Y-80452000D02*
X59941000Y-80452000D01*
X63980000Y-80492000D02*
X63016000Y-80492000D01*
X60936000Y-80492000D02*
X59972000Y-80492000D01*
X63947000Y-80532000D02*
X63016000Y-80532000D01*
X60936000Y-80532000D02*
X60005000Y-80532000D01*
X63913000Y-80572000D02*
X63016000Y-80572000D01*
X60936000Y-80572000D02*
X60039000Y-80572000D01*
X63877000Y-80612000D02*
X63016000Y-80612000D01*
X60936000Y-80612000D02*
X60075000Y-80612000D01*
X63840000Y-80652000D02*
X63016000Y-80652000D01*
X60936000Y-80652000D02*
X60112000Y-80652000D01*
X63802000Y-80692000D02*
X63016000Y-80692000D01*
X60936000Y-80692000D02*
X60150000Y-80692000D01*
X63761000Y-80732000D02*
X63016000Y-80732000D01*
X60936000Y-80732000D02*
X60191000Y-80732000D01*
X63719000Y-80772000D02*
X63016000Y-80772000D01*
X60936000Y-80772000D02*
X60233000Y-80772000D01*
X63675000Y-80812000D02*
X63016000Y-80812000D01*
X60936000Y-80812000D02*
X60277000Y-80812000D01*
X63629000Y-80852000D02*
X63016000Y-80852000D01*
X60936000Y-80852000D02*
X60323000Y-80852000D01*
X63581000Y-80892000D02*
X60371000Y-80892000D01*
X63530000Y-80932000D02*
X60422000Y-80932000D01*
X63476000Y-80972000D02*
X60476000Y-80972000D01*
X63419000Y-81012000D02*
X60533000Y-81012000D01*
X63359000Y-81052000D02*
X60593000Y-81052000D01*
X63295000Y-81092000D02*
X60657000Y-81092000D01*
X63227000Y-81132000D02*
X60725000Y-81132000D01*
X63154000Y-81172000D02*
X60798000Y-81172000D01*
X63074000Y-81212000D02*
X60878000Y-81212000D01*
X62987000Y-81252000D02*
X60965000Y-81252000D01*
X62891000Y-81292000D02*
X61061000Y-81292000D01*
X62781000Y-81332000D02*
X61171000Y-81332000D01*
X62653000Y-81372000D02*
X61299000Y-81372000D01*
X62494000Y-81412000D02*
X61458000Y-81412000D01*
X62260000Y-81452000D02*
X61692000Y-81452000D01*
X63451000Y-76046225D02*
X63451000Y-76546225D01*
X63701000Y-76296225D02*
X63201000Y-76296225D01*
X56440000Y-70743578D02*
X56440000Y-70226422D01*
X57860000Y-70743578D02*
X57860000Y-70226422D01*
X69092578Y-77141000D02*
X68575422Y-77141000D01*
X69092578Y-78561000D02*
X68575422Y-78561000D01*
X78058000Y-79228000D02*
G75*
G03X78058000Y-79228000I-2620000J0D01*
G01*
X78018000Y-79228000D02*
X72858000Y-79228000D01*
X78018000Y-79268000D02*
X72858000Y-79268000D01*
X78017000Y-79308000D02*
X72859000Y-79308000D01*
X78016000Y-79348000D02*
X72860000Y-79348000D01*
X78014000Y-79388000D02*
X72862000Y-79388000D01*
X78011000Y-79428000D02*
X72865000Y-79428000D01*
X78007000Y-79468000D02*
X76478000Y-79468000D01*
X74398000Y-79468000D02*
X72869000Y-79468000D01*
X78003000Y-79508000D02*
X76478000Y-79508000D01*
X74398000Y-79508000D02*
X72873000Y-79508000D01*
X77999000Y-79548000D02*
X76478000Y-79548000D01*
X74398000Y-79548000D02*
X72877000Y-79548000D01*
X77994000Y-79588000D02*
X76478000Y-79588000D01*
X74398000Y-79588000D02*
X72882000Y-79588000D01*
X77988000Y-79628000D02*
X76478000Y-79628000D01*
X74398000Y-79628000D02*
X72888000Y-79628000D01*
X77981000Y-79668000D02*
X76478000Y-79668000D01*
X74398000Y-79668000D02*
X72895000Y-79668000D01*
X77974000Y-79708000D02*
X76478000Y-79708000D01*
X74398000Y-79708000D02*
X72902000Y-79708000D01*
X77966000Y-79748000D02*
X76478000Y-79748000D01*
X74398000Y-79748000D02*
X72910000Y-79748000D01*
X77958000Y-79788000D02*
X76478000Y-79788000D01*
X74398000Y-79788000D02*
X72918000Y-79788000D01*
X77949000Y-79828000D02*
X76478000Y-79828000D01*
X74398000Y-79828000D02*
X72927000Y-79828000D01*
X77939000Y-79868000D02*
X76478000Y-79868000D01*
X74398000Y-79868000D02*
X72937000Y-79868000D01*
X77929000Y-79908000D02*
X76478000Y-79908000D01*
X74398000Y-79908000D02*
X72947000Y-79908000D01*
X77918000Y-79949000D02*
X76478000Y-79949000D01*
X74398000Y-79949000D02*
X72958000Y-79949000D01*
X77906000Y-79989000D02*
X76478000Y-79989000D01*
X74398000Y-79989000D02*
X72970000Y-79989000D01*
X77893000Y-80029000D02*
X76478000Y-80029000D01*
X74398000Y-80029000D02*
X72983000Y-80029000D01*
X77880000Y-80069000D02*
X76478000Y-80069000D01*
X74398000Y-80069000D02*
X72996000Y-80069000D01*
X77866000Y-80109000D02*
X76478000Y-80109000D01*
X74398000Y-80109000D02*
X73010000Y-80109000D01*
X77852000Y-80149000D02*
X76478000Y-80149000D01*
X74398000Y-80149000D02*
X73024000Y-80149000D01*
X77836000Y-80189000D02*
X76478000Y-80189000D01*
X74398000Y-80189000D02*
X73040000Y-80189000D01*
X77820000Y-80229000D02*
X76478000Y-80229000D01*
X74398000Y-80229000D02*
X73056000Y-80229000D01*
X77803000Y-80269000D02*
X76478000Y-80269000D01*
X74398000Y-80269000D02*
X73073000Y-80269000D01*
X77786000Y-80309000D02*
X76478000Y-80309000D01*
X74398000Y-80309000D02*
X73090000Y-80309000D01*
X77767000Y-80349000D02*
X76478000Y-80349000D01*
X74398000Y-80349000D02*
X73109000Y-80349000D01*
X77748000Y-80389000D02*
X76478000Y-80389000D01*
X74398000Y-80389000D02*
X73128000Y-80389000D01*
X77728000Y-80429000D02*
X76478000Y-80429000D01*
X74398000Y-80429000D02*
X73148000Y-80429000D01*
X77706000Y-80469000D02*
X76478000Y-80469000D01*
X74398000Y-80469000D02*
X73170000Y-80469000D01*
X77685000Y-80509000D02*
X76478000Y-80509000D01*
X74398000Y-80509000D02*
X73191000Y-80509000D01*
X77662000Y-80549000D02*
X76478000Y-80549000D01*
X74398000Y-80549000D02*
X73214000Y-80549000D01*
X77638000Y-80589000D02*
X76478000Y-80589000D01*
X74398000Y-80589000D02*
X73238000Y-80589000D01*
X77613000Y-80629000D02*
X76478000Y-80629000D01*
X74398000Y-80629000D02*
X73263000Y-80629000D01*
X77587000Y-80669000D02*
X76478000Y-80669000D01*
X74398000Y-80669000D02*
X73289000Y-80669000D01*
X77560000Y-80709000D02*
X76478000Y-80709000D01*
X74398000Y-80709000D02*
X73316000Y-80709000D01*
X77533000Y-80749000D02*
X76478000Y-80749000D01*
X74398000Y-80749000D02*
X73343000Y-80749000D01*
X77503000Y-80789000D02*
X76478000Y-80789000D01*
X74398000Y-80789000D02*
X73373000Y-80789000D01*
X77473000Y-80829000D02*
X76478000Y-80829000D01*
X74398000Y-80829000D02*
X73403000Y-80829000D01*
X77442000Y-80869000D02*
X76478000Y-80869000D01*
X74398000Y-80869000D02*
X73434000Y-80869000D01*
X77409000Y-80909000D02*
X76478000Y-80909000D01*
X74398000Y-80909000D02*
X73467000Y-80909000D01*
X77375000Y-80949000D02*
X76478000Y-80949000D01*
X74398000Y-80949000D02*
X73501000Y-80949000D01*
X77339000Y-80989000D02*
X76478000Y-80989000D01*
X74398000Y-80989000D02*
X73537000Y-80989000D01*
X77302000Y-81029000D02*
X76478000Y-81029000D01*
X74398000Y-81029000D02*
X73574000Y-81029000D01*
X77264000Y-81069000D02*
X76478000Y-81069000D01*
X74398000Y-81069000D02*
X73612000Y-81069000D01*
X77223000Y-81109000D02*
X76478000Y-81109000D01*
X74398000Y-81109000D02*
X73653000Y-81109000D01*
X77181000Y-81149000D02*
X76478000Y-81149000D01*
X74398000Y-81149000D02*
X73695000Y-81149000D01*
X77137000Y-81189000D02*
X76478000Y-81189000D01*
X74398000Y-81189000D02*
X73739000Y-81189000D01*
X77091000Y-81229000D02*
X76478000Y-81229000D01*
X74398000Y-81229000D02*
X73785000Y-81229000D01*
X77043000Y-81269000D02*
X76478000Y-81269000D01*
X74398000Y-81269000D02*
X73833000Y-81269000D01*
X76992000Y-81309000D02*
X76478000Y-81309000D01*
X74398000Y-81309000D02*
X73884000Y-81309000D01*
X76938000Y-81349000D02*
X76478000Y-81349000D01*
X74398000Y-81349000D02*
X73938000Y-81349000D01*
X76881000Y-81389000D02*
X76478000Y-81389000D01*
X74398000Y-81389000D02*
X73995000Y-81389000D01*
X76821000Y-81429000D02*
X76478000Y-81429000D01*
X74398000Y-81429000D02*
X74055000Y-81429000D01*
X76757000Y-81469000D02*
X76478000Y-81469000D01*
X74398000Y-81469000D02*
X74119000Y-81469000D01*
X76689000Y-81509000D02*
X76478000Y-81509000D01*
X74398000Y-81509000D02*
X74187000Y-81509000D01*
X76616000Y-81549000D02*
X74260000Y-81549000D01*
X76536000Y-81589000D02*
X74340000Y-81589000D01*
X76449000Y-81629000D02*
X74427000Y-81629000D01*
X76353000Y-81669000D02*
X74523000Y-81669000D01*
X76243000Y-81709000D02*
X74633000Y-81709000D01*
X76115000Y-81749000D02*
X74761000Y-81749000D01*
X75956000Y-81789000D02*
X74920000Y-81789000D01*
X75722000Y-81829000D02*
X75154000Y-81829000D01*
X76913000Y-76423225D02*
X76913000Y-76923225D01*
X77163000Y-76673225D02*
X76663000Y-76673225D01*
X71830000Y-64638422D02*
X71830000Y-65155578D01*
X70410000Y-64638422D02*
X70410000Y-65155578D01*
X72648578Y-54916000D02*
X72131422Y-54916000D01*
X72648578Y-56336000D02*
X72131422Y-56336000D01*
X82390000Y-59773000D02*
X75090000Y-59773000D01*
X82390000Y-54273000D02*
X75090000Y-54273000D01*
X75090000Y-54273000D02*
X75090000Y-55423000D01*
X50726000Y-85925000D02*
X50726000Y-82985000D01*
X50726000Y-82985000D02*
X45286000Y-82985000D01*
X45286000Y-82985000D02*
X45286000Y-85925000D01*
X45286000Y-85925000D02*
X50726000Y-85925000D01*
X51746000Y-84455000D02*
X50726000Y-84455000D01*
X44266000Y-84455000D02*
X45286000Y-84455000D01*
X49826000Y-85925000D02*
X49826000Y-82985000D01*
X49706000Y-85925000D02*
X49706000Y-82985000D01*
X49946000Y-85925000D02*
X49946000Y-82985000D01*
X75090000Y-46653000D02*
X82390000Y-46653000D01*
X75090000Y-52153000D02*
X82390000Y-52153000D01*
X82390000Y-52153000D02*
X82390000Y-51003000D01*
X82390000Y-44787000D02*
X82390000Y-43637000D01*
X75090000Y-44787000D02*
X82390000Y-44787000D01*
X75090000Y-39287000D02*
X82390000Y-39287000D01*
X75090000Y-31921000D02*
X82390000Y-31921000D01*
X75090000Y-37421000D02*
X82390000Y-37421000D01*
X82390000Y-37421000D02*
X82390000Y-36271000D01*
X82390000Y-30309000D02*
X82390000Y-29159000D01*
X75090000Y-30309000D02*
X82390000Y-30309000D01*
X75090000Y-24809000D02*
X82390000Y-24809000D01*
X44296000Y-80391000D02*
G75*
G03X44296000Y-80391000I-1370000J0D01*
G01*
X41556000Y-80391000D02*
X38946000Y-80391000D01*
X31009000Y-83058000D02*
G75*
G03X31009000Y-83058000I-2180000J0D01*
G01*
X31009000Y-77978000D02*
G75*
G03X31009000Y-77978000I-2180000J0D01*
G01*
X31009000Y-72898000D02*
G75*
G03X31009000Y-72898000I-2180000J0D01*
G01*
X33629000Y-85658000D02*
X33629000Y-70298000D01*
X31129000Y-85658000D02*
X31129000Y-70298000D01*
X24929000Y-85658000D02*
X24929000Y-70298000D01*
X22869000Y-85658000D02*
X22869000Y-70298000D01*
X34189000Y-85658000D02*
X34189000Y-70298000D01*
X22869000Y-85658000D02*
X34189000Y-85658000D01*
X22869000Y-70298000D02*
X34189000Y-70298000D01*
X27441000Y-81404000D02*
X27548000Y-81511000D01*
X30376000Y-84340000D02*
X30483000Y-84446000D01*
X27175000Y-81670000D02*
X27282000Y-81777000D01*
X30110000Y-84606000D02*
X30217000Y-84712000D01*
X27441000Y-76324000D02*
X27837000Y-76719000D01*
X30103000Y-78985000D02*
X30483000Y-79365000D01*
X27175000Y-76590000D02*
X27555000Y-76970000D01*
X29821000Y-79236000D02*
X30217000Y-79631000D01*
X27441000Y-71244000D02*
X27837000Y-71639000D01*
X30103000Y-73905000D02*
X30483000Y-74285000D01*
X27175000Y-71510000D02*
X27555000Y-71890000D01*
X29821000Y-74156000D02*
X30217000Y-74551000D01*
X33689000Y-85898000D02*
X34429000Y-85898000D01*
X34429000Y-85898000D02*
X34429000Y-85398000D01*
X44511500Y-76065500D02*
X43051500Y-76065500D01*
X44511500Y-72905500D02*
X42351500Y-72905500D01*
X44511500Y-72905500D02*
X44511500Y-73835500D01*
X44511500Y-76065500D02*
X44511500Y-75135500D01*
X52621500Y-77787500D02*
X52621500Y-79737500D01*
X52621500Y-77787500D02*
X52621500Y-75837500D01*
X57741500Y-77787500D02*
X57741500Y-79737500D01*
X57741500Y-77787500D02*
X57741500Y-74337500D01*
X34034000Y-61397000D02*
X34034000Y-60467000D01*
X34034000Y-58237000D02*
X34034000Y-59167000D01*
X34034000Y-58237000D02*
X31874000Y-58237000D01*
X34034000Y-61397000D02*
X32574000Y-61397000D01*
X38098000Y-55555000D02*
X38098000Y-54625000D01*
X38098000Y-52395000D02*
X38098000Y-53325000D01*
X38098000Y-52395000D02*
X35938000Y-52395000D01*
X38098000Y-55555000D02*
X36638000Y-55555000D01*
X27434000Y-42489000D02*
X28894000Y-42489000D01*
X27434000Y-45649000D02*
X29594000Y-45649000D01*
X27434000Y-45649000D02*
X27434000Y-44719000D01*
X27434000Y-42489000D02*
X27434000Y-43419000D01*
X48208000Y-79125578D02*
X48208000Y-78608422D01*
X46788000Y-79125578D02*
X46788000Y-78608422D01*
X48709078Y-75195500D02*
X48191922Y-75195500D01*
X48709078Y-73775500D02*
X48191922Y-73775500D01*
X39311078Y-72823000D02*
X38793922Y-72823000D01*
X39311078Y-74243000D02*
X38793922Y-74243000D01*
X58980000Y-53979578D02*
X58980000Y-53462422D01*
X60400000Y-53979578D02*
X60400000Y-53462422D01*
X29920000Y-59997078D02*
X29920000Y-59479922D01*
X28500000Y-59997078D02*
X28500000Y-59479922D01*
X32770578Y-53923000D02*
X32253422Y-53923000D01*
X32770578Y-52503000D02*
X32253422Y-52503000D01*
X56336000Y-43810422D02*
X56336000Y-44327578D01*
X54916000Y-43810422D02*
X54916000Y-44327578D01*
X51868000Y-43810422D02*
X51868000Y-44327578D01*
X53288000Y-43810422D02*
X53288000Y-44327578D01*
X50240000Y-43810422D02*
X50240000Y-44327578D01*
X48820000Y-43810422D02*
X48820000Y-44327578D01*
X45518000Y-43810422D02*
X45518000Y-44327578D01*
X46938000Y-43810422D02*
X46938000Y-44327578D01*
X43382000Y-43810422D02*
X43382000Y-44327578D01*
X41962000Y-43810422D02*
X41962000Y-44327578D01*
X38660000Y-43810422D02*
X38660000Y-44327578D01*
X40080000Y-43810422D02*
X40080000Y-44327578D01*
X36016000Y-43810422D02*
X36016000Y-44327578D01*
X34596000Y-43810422D02*
X34596000Y-44327578D01*
X32310000Y-43810422D02*
X32310000Y-44327578D01*
X33730000Y-43810422D02*
X33730000Y-44327578D01*
X22426000Y-41269000D02*
X22426000Y-38989000D01*
X22436000Y-41269000D02*
X25146000Y-41269000D01*
X22686000Y-41014000D02*
X22686000Y-21724000D01*
X22686000Y-21724000D02*
X47936000Y-21724000D01*
X47936000Y-21724000D02*
X47936000Y-41014000D01*
X47936000Y-41014000D02*
X22686000Y-41014000D01*
X60666000Y-68993000D02*
X70906000Y-68993000D01*
X60666000Y-73634000D02*
X70906000Y-73634000D01*
X60666000Y-68993000D02*
X60666000Y-73634000D01*
X70906000Y-68993000D02*
X70906000Y-73634000D01*
X60666000Y-70503000D02*
X70906000Y-70503000D01*
X63936000Y-68993000D02*
X63936000Y-70503000D01*
X67637000Y-68993000D02*
X67637000Y-70503000D01*
X56695000Y-21882000D02*
X56695000Y-22382000D01*
X56695000Y-22382000D02*
X57095000Y-22382000D01*
X56695000Y-20482000D02*
X56695000Y-19982000D01*
X56695000Y-19982000D02*
X57095000Y-19982000D01*
X66095000Y-19982000D02*
X66495000Y-19982000D01*
X66495000Y-19982000D02*
X66495000Y-20382000D01*
X66495000Y-21782000D02*
X66495000Y-22282000D01*
X66495000Y-22282000D02*
X66095000Y-22282000D01*
X74066000Y-67666000D02*
X74066000Y-67416000D01*
X74066000Y-67416000D02*
X80366000Y-67416000D01*
X80366000Y-67416000D02*
X80366000Y-67666000D01*
X74066000Y-72166000D02*
X74066000Y-69566000D01*
X80366000Y-74066000D02*
X80366000Y-74316000D01*
X80366000Y-74316000D02*
X74066000Y-74316000D01*
X74066000Y-74316000D02*
X74066000Y-74066000D01*
X80366000Y-69566000D02*
X80366000Y-72166000D01*
X72648578Y-41350000D02*
X72131422Y-41350000D01*
X72648578Y-39930000D02*
X72131422Y-39930000D01*
X72648578Y-47296000D02*
X72131422Y-47296000D01*
X72648578Y-48716000D02*
X72131422Y-48716000D01*
X72648578Y-26872000D02*
X72131422Y-26872000D01*
X72648578Y-25452000D02*
X72131422Y-25452000D01*
X72648578Y-32564000D02*
X72131422Y-32564000D01*
X72648578Y-33984000D02*
X72131422Y-33984000D01*
D11*
X63889047Y-34393571D02*
X64031904Y-34441190D01*
X64079523Y-34488809D01*
X64127142Y-34584047D01*
X64127142Y-34726904D01*
X64079523Y-34822142D01*
X64031904Y-34869761D01*
X63936666Y-34917380D01*
X63555714Y-34917380D01*
X63555714Y-33917380D01*
X63889047Y-33917380D01*
X63984285Y-33965000D01*
X64031904Y-34012619D01*
X64079523Y-34107857D01*
X64079523Y-34203095D01*
X64031904Y-34298333D01*
X63984285Y-34345952D01*
X63889047Y-34393571D01*
X63555714Y-34393571D01*
X64460476Y-33917380D02*
X65127142Y-33917380D01*
X64460476Y-34917380D01*
X65127142Y-34917380D01*
X66031904Y-34917380D02*
X65460476Y-34917380D01*
X65746190Y-34917380D02*
X65746190Y-33917380D01*
X65650952Y-34060238D01*
X65555714Y-34155476D01*
X65460476Y-34203095D01*
X69953166Y-57673785D02*
X69953166Y-57197595D01*
X70238880Y-57769023D02*
X69238880Y-57435690D01*
X70238880Y-57102357D01*
X70238880Y-56245214D02*
X70238880Y-56816642D01*
X70238880Y-56530928D02*
X69238880Y-56530928D01*
X69381738Y-56626166D01*
X69476976Y-56721404D01*
X69524595Y-56816642D01*
X66083142Y-79017666D02*
X66130761Y-79065285D01*
X66178380Y-79208142D01*
X66178380Y-79303380D01*
X66130761Y-79446238D01*
X66035523Y-79541476D01*
X65940285Y-79589095D01*
X65749809Y-79636714D01*
X65606952Y-79636714D01*
X65416476Y-79589095D01*
X65321238Y-79541476D01*
X65226000Y-79446238D01*
X65178380Y-79303380D01*
X65178380Y-79208142D01*
X65226000Y-79065285D01*
X65273619Y-79017666D01*
X66178380Y-78065285D02*
X66178380Y-78636714D01*
X66178380Y-78351000D02*
X65178380Y-78351000D01*
X65321238Y-78446238D01*
X65416476Y-78541476D01*
X65464095Y-78636714D01*
X55857142Y-70651666D02*
X55904761Y-70699285D01*
X55952380Y-70842142D01*
X55952380Y-70937380D01*
X55904761Y-71080238D01*
X55809523Y-71175476D01*
X55714285Y-71223095D01*
X55523809Y-71270714D01*
X55380952Y-71270714D01*
X55190476Y-71223095D01*
X55095238Y-71175476D01*
X55000000Y-71080238D01*
X54952380Y-70937380D01*
X54952380Y-70842142D01*
X55000000Y-70699285D01*
X55047619Y-70651666D01*
X55047619Y-70270714D02*
X55000000Y-70223095D01*
X54952380Y-70127857D01*
X54952380Y-69889761D01*
X55000000Y-69794523D01*
X55047619Y-69746904D01*
X55142857Y-69699285D01*
X55238095Y-69699285D01*
X55380952Y-69746904D01*
X55952380Y-70318333D01*
X55952380Y-69699285D01*
X68667333Y-79858142D02*
X68619714Y-79905761D01*
X68476857Y-79953380D01*
X68381619Y-79953380D01*
X68238761Y-79905761D01*
X68143523Y-79810523D01*
X68095904Y-79715285D01*
X68048285Y-79524809D01*
X68048285Y-79381952D01*
X68095904Y-79191476D01*
X68143523Y-79096238D01*
X68238761Y-79001000D01*
X68381619Y-78953380D01*
X68476857Y-78953380D01*
X68619714Y-79001000D01*
X68667333Y-79048619D01*
X69000666Y-78953380D02*
X69619714Y-78953380D01*
X69286380Y-79334333D01*
X69429238Y-79334333D01*
X69524476Y-79381952D01*
X69572095Y-79429571D01*
X69619714Y-79524809D01*
X69619714Y-79762904D01*
X69572095Y-79858142D01*
X69524476Y-79905761D01*
X69429238Y-79953380D01*
X69143523Y-79953380D01*
X69048285Y-79905761D01*
X69000666Y-79858142D01*
X79545142Y-79394666D02*
X79592761Y-79442285D01*
X79640380Y-79585142D01*
X79640380Y-79680380D01*
X79592761Y-79823238D01*
X79497523Y-79918476D01*
X79402285Y-79966095D01*
X79211809Y-80013714D01*
X79068952Y-80013714D01*
X78878476Y-79966095D01*
X78783238Y-79918476D01*
X78688000Y-79823238D01*
X78640380Y-79680380D01*
X78640380Y-79585142D01*
X78688000Y-79442285D01*
X78735619Y-79394666D01*
X78973714Y-78537523D02*
X79640380Y-78537523D01*
X78592761Y-78775619D02*
X79307047Y-79013714D01*
X79307047Y-78394666D01*
X73127142Y-65063666D02*
X73174761Y-65111285D01*
X73222380Y-65254142D01*
X73222380Y-65349380D01*
X73174761Y-65492238D01*
X73079523Y-65587476D01*
X72984285Y-65635095D01*
X72793809Y-65682714D01*
X72650952Y-65682714D01*
X72460476Y-65635095D01*
X72365238Y-65587476D01*
X72270000Y-65492238D01*
X72222380Y-65349380D01*
X72222380Y-65254142D01*
X72270000Y-65111285D01*
X72317619Y-65063666D01*
X72222380Y-64158904D02*
X72222380Y-64635095D01*
X72698571Y-64682714D01*
X72650952Y-64635095D01*
X72603333Y-64539857D01*
X72603333Y-64301761D01*
X72650952Y-64206523D01*
X72698571Y-64158904D01*
X72793809Y-64111285D01*
X73031904Y-64111285D01*
X73127142Y-64158904D01*
X73174761Y-64206523D01*
X73222380Y-64301761D01*
X73222380Y-64539857D01*
X73174761Y-64635095D01*
X73127142Y-64682714D01*
X72223333Y-57633142D02*
X72175714Y-57680761D01*
X72032857Y-57728380D01*
X71937619Y-57728380D01*
X71794761Y-57680761D01*
X71699523Y-57585523D01*
X71651904Y-57490285D01*
X71604285Y-57299809D01*
X71604285Y-57156952D01*
X71651904Y-56966476D01*
X71699523Y-56871238D01*
X71794761Y-56776000D01*
X71937619Y-56728380D01*
X72032857Y-56728380D01*
X72175714Y-56776000D01*
X72223333Y-56823619D01*
X73080476Y-56728380D02*
X72890000Y-56728380D01*
X72794761Y-56776000D01*
X72747142Y-56823619D01*
X72651904Y-56966476D01*
X72604285Y-57156952D01*
X72604285Y-57537904D01*
X72651904Y-57633142D01*
X72699523Y-57680761D01*
X72794761Y-57728380D01*
X72985238Y-57728380D01*
X73080476Y-57680761D01*
X73128095Y-57633142D01*
X73175714Y-57537904D01*
X73175714Y-57299809D01*
X73128095Y-57204571D01*
X73080476Y-57156952D01*
X72985238Y-57109333D01*
X72794761Y-57109333D01*
X72699523Y-57156952D01*
X72651904Y-57204571D01*
X72604285Y-57299809D01*
X78001904Y-60975380D02*
X78001904Y-59975380D01*
X78240000Y-59975380D01*
X78382857Y-60023000D01*
X78478095Y-60118238D01*
X78525714Y-60213476D01*
X78573333Y-60403952D01*
X78573333Y-60546809D01*
X78525714Y-60737285D01*
X78478095Y-60832523D01*
X78382857Y-60927761D01*
X78240000Y-60975380D01*
X78001904Y-60975380D01*
X79525714Y-60975380D02*
X78954285Y-60975380D01*
X79240000Y-60975380D02*
X79240000Y-59975380D01*
X79144761Y-60118238D01*
X79049523Y-60213476D01*
X78954285Y-60261095D01*
X83175714Y-59075380D02*
X82604285Y-59075380D01*
X82890000Y-59075380D02*
X82890000Y-58075380D01*
X82794761Y-58218238D01*
X82699523Y-58313476D01*
X82604285Y-58361095D01*
X47267904Y-87377380D02*
X47267904Y-86377380D01*
X47506000Y-86377380D01*
X47648857Y-86425000D01*
X47744095Y-86520238D01*
X47791714Y-86615476D01*
X47839333Y-86805952D01*
X47839333Y-86948809D01*
X47791714Y-87139285D01*
X47744095Y-87234523D01*
X47648857Y-87329761D01*
X47506000Y-87377380D01*
X47267904Y-87377380D01*
X48220285Y-86472619D02*
X48267904Y-86425000D01*
X48363142Y-86377380D01*
X48601238Y-86377380D01*
X48696476Y-86425000D01*
X48744095Y-86472619D01*
X48791714Y-86567857D01*
X48791714Y-86663095D01*
X48744095Y-86805952D01*
X48172666Y-87377380D01*
X48791714Y-87377380D01*
X52824095Y-87007380D02*
X52824095Y-86007380D01*
X53395523Y-87007380D02*
X52966952Y-86435952D01*
X53395523Y-86007380D02*
X52824095Y-86578809D01*
X78001904Y-46355380D02*
X78001904Y-45355380D01*
X78240000Y-45355380D01*
X78382857Y-45403000D01*
X78478095Y-45498238D01*
X78525714Y-45593476D01*
X78573333Y-45783952D01*
X78573333Y-45926809D01*
X78525714Y-46117285D01*
X78478095Y-46212523D01*
X78382857Y-46307761D01*
X78240000Y-46355380D01*
X78001904Y-46355380D01*
X78906666Y-45355380D02*
X79525714Y-45355380D01*
X79192380Y-45736333D01*
X79335238Y-45736333D01*
X79430476Y-45783952D01*
X79478095Y-45831571D01*
X79525714Y-45926809D01*
X79525714Y-46164904D01*
X79478095Y-46260142D01*
X79430476Y-46307761D01*
X79335238Y-46355380D01*
X79049523Y-46355380D01*
X78954285Y-46307761D01*
X78906666Y-46260142D01*
X78001904Y-38989380D02*
X78001904Y-37989380D01*
X78240000Y-37989380D01*
X78382857Y-38037000D01*
X78478095Y-38132238D01*
X78525714Y-38227476D01*
X78573333Y-38417952D01*
X78573333Y-38560809D01*
X78525714Y-38751285D01*
X78478095Y-38846523D01*
X78382857Y-38941761D01*
X78240000Y-38989380D01*
X78001904Y-38989380D01*
X79430476Y-38322714D02*
X79430476Y-38989380D01*
X79192380Y-37941761D02*
X78954285Y-38656047D01*
X79573333Y-38656047D01*
X74875714Y-40889380D02*
X74304285Y-40889380D01*
X74590000Y-40889380D02*
X74590000Y-39889380D01*
X74494761Y-40032238D01*
X74399523Y-40127476D01*
X74304285Y-40175095D01*
X78001904Y-31623380D02*
X78001904Y-30623380D01*
X78240000Y-30623380D01*
X78382857Y-30671000D01*
X78478095Y-30766238D01*
X78525714Y-30861476D01*
X78573333Y-31051952D01*
X78573333Y-31194809D01*
X78525714Y-31385285D01*
X78478095Y-31480523D01*
X78382857Y-31575761D01*
X78240000Y-31623380D01*
X78001904Y-31623380D01*
X79478095Y-30623380D02*
X79001904Y-30623380D01*
X78954285Y-31099571D01*
X79001904Y-31051952D01*
X79097142Y-31004333D01*
X79335238Y-31004333D01*
X79430476Y-31051952D01*
X79478095Y-31099571D01*
X79525714Y-31194809D01*
X79525714Y-31432904D01*
X79478095Y-31528142D01*
X79430476Y-31575761D01*
X79335238Y-31623380D01*
X79097142Y-31623380D01*
X79001904Y-31575761D01*
X78954285Y-31528142D01*
X74875714Y-33523380D02*
X74304285Y-33523380D01*
X74590000Y-33523380D02*
X74590000Y-32523380D01*
X74494761Y-32666238D01*
X74399523Y-32761476D01*
X74304285Y-32809095D01*
X78001904Y-24511380D02*
X78001904Y-23511380D01*
X78240000Y-23511380D01*
X78382857Y-23559000D01*
X78478095Y-23654238D01*
X78525714Y-23749476D01*
X78573333Y-23939952D01*
X78573333Y-24082809D01*
X78525714Y-24273285D01*
X78478095Y-24368523D01*
X78382857Y-24463761D01*
X78240000Y-24511380D01*
X78001904Y-24511380D01*
X79430476Y-23511380D02*
X79240000Y-23511380D01*
X79144761Y-23559000D01*
X79097142Y-23606619D01*
X79001904Y-23749476D01*
X78954285Y-23939952D01*
X78954285Y-24320904D01*
X79001904Y-24416142D01*
X79049523Y-24463761D01*
X79144761Y-24511380D01*
X79335238Y-24511380D01*
X79430476Y-24463761D01*
X79478095Y-24416142D01*
X79525714Y-24320904D01*
X79525714Y-24082809D01*
X79478095Y-23987571D01*
X79430476Y-23939952D01*
X79335238Y-23892333D01*
X79144761Y-23892333D01*
X79049523Y-23939952D01*
X79001904Y-23987571D01*
X78954285Y-24082809D01*
X40052666Y-82689571D02*
X39719333Y-82689571D01*
X39719333Y-83213380D02*
X39719333Y-82213380D01*
X40195523Y-82213380D01*
X41100285Y-83213380D02*
X40528857Y-83213380D01*
X40814571Y-83213380D02*
X40814571Y-82213380D01*
X40719333Y-82356238D01*
X40624095Y-82451476D01*
X40528857Y-82499095D01*
X21321380Y-78311333D02*
X22035666Y-78311333D01*
X22178523Y-78358952D01*
X22273761Y-78454190D01*
X22321380Y-78597047D01*
X22321380Y-78692285D01*
X22321380Y-77311333D02*
X22321380Y-77882761D01*
X22321380Y-77597047D02*
X21321380Y-77597047D01*
X21464238Y-77692285D01*
X21559476Y-77787523D01*
X21607095Y-77882761D01*
X43656261Y-72533119D02*
X43561023Y-72485500D01*
X43465785Y-72390261D01*
X43322928Y-72247404D01*
X43227690Y-72199785D01*
X43132452Y-72199785D01*
X43180071Y-72437880D02*
X43084833Y-72390261D01*
X42989595Y-72295023D01*
X42941976Y-72104547D01*
X42941976Y-71771214D01*
X42989595Y-71580738D01*
X43084833Y-71485500D01*
X43180071Y-71437880D01*
X43370547Y-71437880D01*
X43465785Y-71485500D01*
X43561023Y-71580738D01*
X43608642Y-71771214D01*
X43608642Y-72104547D01*
X43561023Y-72295023D01*
X43465785Y-72390261D01*
X43370547Y-72437880D01*
X43180071Y-72437880D01*
X44561023Y-72437880D02*
X43989595Y-72437880D01*
X44275309Y-72437880D02*
X44275309Y-71437880D01*
X44180071Y-71580738D01*
X44084833Y-71675976D01*
X43989595Y-71723595D01*
X59221619Y-77692238D02*
X59174000Y-77787476D01*
X59078761Y-77882714D01*
X58935904Y-78025571D01*
X58888285Y-78120809D01*
X58888285Y-78216047D01*
X59126380Y-78168428D02*
X59078761Y-78263666D01*
X58983523Y-78358904D01*
X58793047Y-78406523D01*
X58459714Y-78406523D01*
X58269238Y-78358904D01*
X58174000Y-78263666D01*
X58126380Y-78168428D01*
X58126380Y-77977952D01*
X58174000Y-77882714D01*
X58269238Y-77787476D01*
X58459714Y-77739857D01*
X58793047Y-77739857D01*
X58983523Y-77787476D01*
X59078761Y-77882714D01*
X59126380Y-77977952D01*
X59126380Y-78168428D01*
X58221619Y-77358904D02*
X58174000Y-77311285D01*
X58126380Y-77216047D01*
X58126380Y-76977952D01*
X58174000Y-76882714D01*
X58221619Y-76835095D01*
X58316857Y-76787476D01*
X58412095Y-76787476D01*
X58554952Y-76835095D01*
X59126380Y-77406523D01*
X59126380Y-76787476D01*
X33178761Y-57864619D02*
X33083523Y-57817000D01*
X32988285Y-57721761D01*
X32845428Y-57578904D01*
X32750190Y-57531285D01*
X32654952Y-57531285D01*
X32702571Y-57769380D02*
X32607333Y-57721761D01*
X32512095Y-57626523D01*
X32464476Y-57436047D01*
X32464476Y-57102714D01*
X32512095Y-56912238D01*
X32607333Y-56817000D01*
X32702571Y-56769380D01*
X32893047Y-56769380D01*
X32988285Y-56817000D01*
X33083523Y-56912238D01*
X33131142Y-57102714D01*
X33131142Y-57436047D01*
X33083523Y-57626523D01*
X32988285Y-57721761D01*
X32893047Y-57769380D01*
X32702571Y-57769380D01*
X33464476Y-56769380D02*
X34083523Y-56769380D01*
X33750190Y-57150333D01*
X33893047Y-57150333D01*
X33988285Y-57197952D01*
X34035904Y-57245571D01*
X34083523Y-57340809D01*
X34083523Y-57578904D01*
X34035904Y-57674142D01*
X33988285Y-57721761D01*
X33893047Y-57769380D01*
X33607333Y-57769380D01*
X33512095Y-57721761D01*
X33464476Y-57674142D01*
X37242761Y-52022619D02*
X37147523Y-51975000D01*
X37052285Y-51879761D01*
X36909428Y-51736904D01*
X36814190Y-51689285D01*
X36718952Y-51689285D01*
X36766571Y-51927380D02*
X36671333Y-51879761D01*
X36576095Y-51784523D01*
X36528476Y-51594047D01*
X36528476Y-51260714D01*
X36576095Y-51070238D01*
X36671333Y-50975000D01*
X36766571Y-50927380D01*
X36957047Y-50927380D01*
X37052285Y-50975000D01*
X37147523Y-51070238D01*
X37195142Y-51260714D01*
X37195142Y-51594047D01*
X37147523Y-51784523D01*
X37052285Y-51879761D01*
X36957047Y-51927380D01*
X36766571Y-51927380D01*
X38052285Y-51260714D02*
X38052285Y-51927380D01*
X37814190Y-50879761D02*
X37576095Y-51594047D01*
X38195142Y-51594047D01*
X28098761Y-47116619D02*
X28003523Y-47069000D01*
X27908285Y-46973761D01*
X27765428Y-46830904D01*
X27670190Y-46783285D01*
X27574952Y-46783285D01*
X27622571Y-47021380D02*
X27527333Y-46973761D01*
X27432095Y-46878523D01*
X27384476Y-46688047D01*
X27384476Y-46354714D01*
X27432095Y-46164238D01*
X27527333Y-46069000D01*
X27622571Y-46021380D01*
X27813047Y-46021380D01*
X27908285Y-46069000D01*
X28003523Y-46164238D01*
X28051142Y-46354714D01*
X28051142Y-46688047D01*
X28003523Y-46878523D01*
X27908285Y-46973761D01*
X27813047Y-47021380D01*
X27622571Y-47021380D01*
X28955904Y-46021380D02*
X28479714Y-46021380D01*
X28432095Y-46497571D01*
X28479714Y-46449952D01*
X28574952Y-46402333D01*
X28813047Y-46402333D01*
X28908285Y-46449952D01*
X28955904Y-46497571D01*
X29003523Y-46592809D01*
X29003523Y-46830904D01*
X28955904Y-46926142D01*
X28908285Y-46973761D01*
X28813047Y-47021380D01*
X28574952Y-47021380D01*
X28479714Y-46973761D01*
X28432095Y-46926142D01*
X46300380Y-79033666D02*
X45824190Y-79367000D01*
X46300380Y-79605095D02*
X45300380Y-79605095D01*
X45300380Y-79224142D01*
X45348000Y-79128904D01*
X45395619Y-79081285D01*
X45490857Y-79033666D01*
X45633714Y-79033666D01*
X45728952Y-79081285D01*
X45776571Y-79128904D01*
X45824190Y-79224142D01*
X45824190Y-79605095D01*
X46300380Y-78081285D02*
X46300380Y-78652714D01*
X46300380Y-78367000D02*
X45300380Y-78367000D01*
X45443238Y-78462238D01*
X45538476Y-78557476D01*
X45586095Y-78652714D01*
X48283833Y-76587880D02*
X47950500Y-76111690D01*
X47712404Y-76587880D02*
X47712404Y-75587880D01*
X48093357Y-75587880D01*
X48188595Y-75635500D01*
X48236214Y-75683119D01*
X48283833Y-75778357D01*
X48283833Y-75921214D01*
X48236214Y-76016452D01*
X48188595Y-76064071D01*
X48093357Y-76111690D01*
X47712404Y-76111690D01*
X48664785Y-75683119D02*
X48712404Y-75635500D01*
X48807642Y-75587880D01*
X49045738Y-75587880D01*
X49140976Y-75635500D01*
X49188595Y-75683119D01*
X49236214Y-75778357D01*
X49236214Y-75873595D01*
X49188595Y-76016452D01*
X48617166Y-76587880D01*
X49236214Y-76587880D01*
X38885833Y-75635380D02*
X38552500Y-75159190D01*
X38314404Y-75635380D02*
X38314404Y-74635380D01*
X38695357Y-74635380D01*
X38790595Y-74683000D01*
X38838214Y-74730619D01*
X38885833Y-74825857D01*
X38885833Y-74968714D01*
X38838214Y-75063952D01*
X38790595Y-75111571D01*
X38695357Y-75159190D01*
X38314404Y-75159190D01*
X39219166Y-74635380D02*
X39838214Y-74635380D01*
X39504880Y-75016333D01*
X39647738Y-75016333D01*
X39742976Y-75063952D01*
X39790595Y-75111571D01*
X39838214Y-75206809D01*
X39838214Y-75444904D01*
X39790595Y-75540142D01*
X39742976Y-75587761D01*
X39647738Y-75635380D01*
X39362023Y-75635380D01*
X39266785Y-75587761D01*
X39219166Y-75540142D01*
X58480379Y-54176167D02*
X58004189Y-54509501D01*
X58480379Y-54747596D02*
X57480379Y-54747596D01*
X57480379Y-54366643D01*
X57527999Y-54271405D01*
X57575618Y-54223786D01*
X57670856Y-54176167D01*
X57813713Y-54176167D01*
X57908951Y-54223786D01*
X57956570Y-54271405D01*
X58004189Y-54366643D01*
X58004189Y-54747596D01*
X57813713Y-53319024D02*
X58480379Y-53319024D01*
X57432760Y-53557120D02*
X58147046Y-53795215D01*
X58147046Y-53176167D01*
X28012380Y-59905166D02*
X27536190Y-60238500D01*
X28012380Y-60476595D02*
X27012380Y-60476595D01*
X27012380Y-60095642D01*
X27060000Y-60000404D01*
X27107619Y-59952785D01*
X27202857Y-59905166D01*
X27345714Y-59905166D01*
X27440952Y-59952785D01*
X27488571Y-60000404D01*
X27536190Y-60095642D01*
X27536190Y-60476595D01*
X27012380Y-59000404D02*
X27012380Y-59476595D01*
X27488571Y-59524214D01*
X27440952Y-59476595D01*
X27393333Y-59381357D01*
X27393333Y-59143261D01*
X27440952Y-59048023D01*
X27488571Y-59000404D01*
X27583809Y-58952785D01*
X27821904Y-58952785D01*
X27917142Y-59000404D01*
X27964761Y-59048023D01*
X28012380Y-59143261D01*
X28012380Y-59381357D01*
X27964761Y-59476595D01*
X27917142Y-59524214D01*
X32345333Y-55315380D02*
X32012000Y-54839190D01*
X31773904Y-55315380D02*
X31773904Y-54315380D01*
X32154857Y-54315380D01*
X32250095Y-54363000D01*
X32297714Y-54410619D01*
X32345333Y-54505857D01*
X32345333Y-54648714D01*
X32297714Y-54743952D01*
X32250095Y-54791571D01*
X32154857Y-54839190D01*
X31773904Y-54839190D01*
X33202476Y-54315380D02*
X33012000Y-54315380D01*
X32916761Y-54363000D01*
X32869142Y-54410619D01*
X32773904Y-54553476D01*
X32726285Y-54743952D01*
X32726285Y-55124904D01*
X32773904Y-55220142D01*
X32821523Y-55267761D01*
X32916761Y-55315380D01*
X33107238Y-55315380D01*
X33202476Y-55267761D01*
X33250095Y-55220142D01*
X33297714Y-55124904D01*
X33297714Y-54886809D01*
X33250095Y-54791571D01*
X33202476Y-54743952D01*
X33107238Y-54696333D01*
X32916761Y-54696333D01*
X32821523Y-54743952D01*
X32773904Y-54791571D01*
X32726285Y-54886809D01*
X57728380Y-44235666D02*
X57252190Y-44569000D01*
X57728380Y-44807095D02*
X56728380Y-44807095D01*
X56728380Y-44426142D01*
X56776000Y-44330904D01*
X56823619Y-44283285D01*
X56918857Y-44235666D01*
X57061714Y-44235666D01*
X57156952Y-44283285D01*
X57204571Y-44330904D01*
X57252190Y-44426142D01*
X57252190Y-44807095D01*
X56728380Y-43902333D02*
X56728380Y-43235666D01*
X57728380Y-43664238D01*
X54211881Y-44612165D02*
X53735691Y-44945499D01*
X54211881Y-45183594D02*
X53211881Y-45183594D01*
X53211881Y-44802641D01*
X53259501Y-44707403D01*
X53307120Y-44659784D01*
X53402358Y-44612165D01*
X53545215Y-44612165D01*
X53640453Y-44659784D01*
X53688072Y-44707403D01*
X53735691Y-44802641D01*
X53735691Y-45183594D01*
X53640453Y-44040737D02*
X53592834Y-44135975D01*
X53545215Y-44183594D01*
X53449977Y-44231213D01*
X53402358Y-44231213D01*
X53307120Y-44183594D01*
X53259501Y-44135975D01*
X53211881Y-44040737D01*
X53211881Y-43850260D01*
X53259501Y-43755022D01*
X53307120Y-43707403D01*
X53402358Y-43659784D01*
X53449977Y-43659784D01*
X53545215Y-43707403D01*
X53592834Y-43755022D01*
X53640453Y-43850260D01*
X53640453Y-44040737D01*
X53688072Y-44135975D01*
X53735691Y-44183594D01*
X53830929Y-44231213D01*
X54021405Y-44231213D01*
X54116643Y-44183594D01*
X54164262Y-44135975D01*
X54211881Y-44040737D01*
X54211881Y-43850260D01*
X54164262Y-43755022D01*
X54116643Y-43707403D01*
X54021405Y-43659784D01*
X53830929Y-43659784D01*
X53735691Y-43707403D01*
X53688072Y-43755022D01*
X53640453Y-43850260D01*
X51379380Y-44538166D02*
X50903190Y-44871500D01*
X51379380Y-45109595D02*
X50379380Y-45109595D01*
X50379380Y-44728642D01*
X50427000Y-44633404D01*
X50474619Y-44585785D01*
X50569857Y-44538166D01*
X50712714Y-44538166D01*
X50807952Y-44585785D01*
X50855571Y-44633404D01*
X50903190Y-44728642D01*
X50903190Y-45109595D01*
X51379380Y-44061976D02*
X51379380Y-43871500D01*
X51331761Y-43776261D01*
X51284142Y-43728642D01*
X51141285Y-43633404D01*
X50950809Y-43585785D01*
X50569857Y-43585785D01*
X50474619Y-43633404D01*
X50427000Y-43681023D01*
X50379380Y-43776261D01*
X50379380Y-43966738D01*
X50427000Y-44061976D01*
X50474619Y-44109595D01*
X50569857Y-44157214D01*
X50807952Y-44157214D01*
X50903190Y-44109595D01*
X50950809Y-44061976D01*
X50998428Y-43966738D01*
X50998428Y-43776261D01*
X50950809Y-43681023D01*
X50903190Y-43633404D01*
X50807952Y-43585785D01*
X48330380Y-44711857D02*
X47854190Y-45045190D01*
X48330380Y-45283285D02*
X47330380Y-45283285D01*
X47330380Y-44902333D01*
X47378000Y-44807095D01*
X47425619Y-44759476D01*
X47520857Y-44711857D01*
X47663714Y-44711857D01*
X47758952Y-44759476D01*
X47806571Y-44807095D01*
X47854190Y-44902333D01*
X47854190Y-45283285D01*
X48330380Y-43759476D02*
X48330380Y-44330904D01*
X48330380Y-44045190D02*
X47330380Y-44045190D01*
X47473238Y-44140428D01*
X47568476Y-44235666D01*
X47616095Y-44330904D01*
X47330380Y-43140428D02*
X47330380Y-43045190D01*
X47378000Y-42949952D01*
X47425619Y-42902333D01*
X47520857Y-42854714D01*
X47711333Y-42807095D01*
X47949428Y-42807095D01*
X48139904Y-42854714D01*
X48235142Y-42902333D01*
X48282761Y-42949952D01*
X48330380Y-43045190D01*
X48330380Y-43140428D01*
X48282761Y-43235666D01*
X48235142Y-43283285D01*
X48139904Y-43330904D01*
X47949428Y-43378523D01*
X47711333Y-43378523D01*
X47520857Y-43330904D01*
X47425619Y-43283285D01*
X47378000Y-43235666D01*
X47330380Y-43140428D01*
X44774380Y-44711857D02*
X44298190Y-45045190D01*
X44774380Y-45283285D02*
X43774380Y-45283285D01*
X43774380Y-44902333D01*
X43822000Y-44807095D01*
X43869619Y-44759476D01*
X43964857Y-44711857D01*
X44107714Y-44711857D01*
X44202952Y-44759476D01*
X44250571Y-44807095D01*
X44298190Y-44902333D01*
X44298190Y-45283285D01*
X44774380Y-43759476D02*
X44774380Y-44330904D01*
X44774380Y-44045190D02*
X43774380Y-44045190D01*
X43917238Y-44140428D01*
X44012476Y-44235666D01*
X44060095Y-44330904D01*
X44774380Y-42807095D02*
X44774380Y-43378523D01*
X44774380Y-43092809D02*
X43774380Y-43092809D01*
X43917238Y-43188047D01*
X44012476Y-43283285D01*
X44060095Y-43378523D01*
X41472380Y-44711857D02*
X40996190Y-45045190D01*
X41472380Y-45283285D02*
X40472380Y-45283285D01*
X40472380Y-44902333D01*
X40520000Y-44807095D01*
X40567619Y-44759476D01*
X40662857Y-44711857D01*
X40805714Y-44711857D01*
X40900952Y-44759476D01*
X40948571Y-44807095D01*
X40996190Y-44902333D01*
X40996190Y-45283285D01*
X41472380Y-43759476D02*
X41472380Y-44330904D01*
X41472380Y-44045190D02*
X40472380Y-44045190D01*
X40615238Y-44140428D01*
X40710476Y-44235666D01*
X40758095Y-44330904D01*
X40567619Y-43378523D02*
X40520000Y-43330904D01*
X40472380Y-43235666D01*
X40472380Y-42997571D01*
X40520000Y-42902333D01*
X40567619Y-42854714D01*
X40662857Y-42807095D01*
X40758095Y-42807095D01*
X40900952Y-42854714D01*
X41472380Y-43426142D01*
X41472380Y-42807095D01*
X37282380Y-44711857D02*
X36806190Y-45045190D01*
X37282380Y-45283285D02*
X36282380Y-45283285D01*
X36282380Y-44902333D01*
X36330000Y-44807095D01*
X36377619Y-44759476D01*
X36472857Y-44711857D01*
X36615714Y-44711857D01*
X36710952Y-44759476D01*
X36758571Y-44807095D01*
X36806190Y-44902333D01*
X36806190Y-45283285D01*
X37282380Y-43759476D02*
X37282380Y-44330904D01*
X37282380Y-44045190D02*
X36282380Y-44045190D01*
X36425238Y-44140428D01*
X36520476Y-44235666D01*
X36568095Y-44330904D01*
X36282380Y-43426142D02*
X36282380Y-42807095D01*
X36663333Y-43140428D01*
X36663333Y-42997571D01*
X36710952Y-42902333D01*
X36758571Y-42854714D01*
X36853809Y-42807095D01*
X37091904Y-42807095D01*
X37187142Y-42854714D01*
X37234761Y-42902333D01*
X37282380Y-42997571D01*
X37282380Y-43283285D01*
X37234761Y-43378523D01*
X37187142Y-43426142D01*
X31694380Y-44711857D02*
X31218190Y-45045190D01*
X31694380Y-45283285D02*
X30694380Y-45283285D01*
X30694380Y-44902333D01*
X30742000Y-44807095D01*
X30789619Y-44759476D01*
X30884857Y-44711857D01*
X31027714Y-44711857D01*
X31122952Y-44759476D01*
X31170571Y-44807095D01*
X31218190Y-44902333D01*
X31218190Y-45283285D01*
X31694380Y-43759476D02*
X31694380Y-44330904D01*
X31694380Y-44045190D02*
X30694380Y-44045190D01*
X30837238Y-44140428D01*
X30932476Y-44235666D01*
X30980095Y-44330904D01*
X31027714Y-42902333D02*
X31694380Y-42902333D01*
X30646761Y-43140428D02*
X31361047Y-43378523D01*
X31361047Y-42759476D01*
X20598380Y-39750904D02*
X21407904Y-39750904D01*
X21503142Y-39703285D01*
X21550761Y-39655666D01*
X21598380Y-39560428D01*
X21598380Y-39369952D01*
X21550761Y-39274714D01*
X21503142Y-39227095D01*
X21407904Y-39179476D01*
X20598380Y-39179476D01*
X21598380Y-38179476D02*
X21598380Y-38750904D01*
X21598380Y-38465190D02*
X20598380Y-38465190D01*
X20741238Y-38560428D01*
X20836476Y-38655666D01*
X20884095Y-38750904D01*
X65024095Y-67445380D02*
X65024095Y-68254904D01*
X65071714Y-68350142D01*
X65119333Y-68397761D01*
X65214571Y-68445380D01*
X65405047Y-68445380D01*
X65500285Y-68397761D01*
X65547904Y-68350142D01*
X65595523Y-68254904D01*
X65595523Y-67445380D01*
X66024095Y-67540619D02*
X66071714Y-67493000D01*
X66166952Y-67445380D01*
X66405047Y-67445380D01*
X66500285Y-67493000D01*
X66547904Y-67540619D01*
X66595523Y-67635857D01*
X66595523Y-67731095D01*
X66547904Y-67873952D01*
X65976476Y-68445380D01*
X66595523Y-68445380D01*
X60833095Y-22334380D02*
X60833095Y-23143904D01*
X60880714Y-23239142D01*
X60928333Y-23286761D01*
X61023571Y-23334380D01*
X61214047Y-23334380D01*
X61309285Y-23286761D01*
X61356904Y-23239142D01*
X61404523Y-23143904D01*
X61404523Y-22334380D01*
X61785476Y-22334380D02*
X62404523Y-22334380D01*
X62071190Y-22715333D01*
X62214047Y-22715333D01*
X62309285Y-22762952D01*
X62356904Y-22810571D01*
X62404523Y-22905809D01*
X62404523Y-23143904D01*
X62356904Y-23239142D01*
X62309285Y-23286761D01*
X62214047Y-23334380D01*
X61928333Y-23334380D01*
X61833095Y-23286761D01*
X61785476Y-23239142D01*
X75882666Y-66770761D02*
X76025523Y-66818380D01*
X76263619Y-66818380D01*
X76358857Y-66770761D01*
X76406476Y-66723142D01*
X76454095Y-66627904D01*
X76454095Y-66532666D01*
X76406476Y-66437428D01*
X76358857Y-66389809D01*
X76263619Y-66342190D01*
X76073142Y-66294571D01*
X75977904Y-66246952D01*
X75930285Y-66199333D01*
X75882666Y-66104095D01*
X75882666Y-66008857D01*
X75930285Y-65913619D01*
X75977904Y-65866000D01*
X76073142Y-65818380D01*
X76311238Y-65818380D01*
X76454095Y-65866000D01*
X76787428Y-65818380D02*
X77025523Y-66818380D01*
X77216000Y-66104095D01*
X77406476Y-66818380D01*
X77644571Y-65818380D01*
X78549333Y-66818380D02*
X77977904Y-66818380D01*
X78263619Y-66818380D02*
X78263619Y-65818380D01*
X78168380Y-65961238D01*
X78073142Y-66056476D01*
X77977904Y-66104095D01*
X72223333Y-42647142D02*
X72175714Y-42694761D01*
X72032857Y-42742380D01*
X71937619Y-42742380D01*
X71794761Y-42694761D01*
X71699523Y-42599523D01*
X71651904Y-42504285D01*
X71604285Y-42313809D01*
X71604285Y-42170952D01*
X71651904Y-41980476D01*
X71699523Y-41885238D01*
X71794761Y-41790000D01*
X71937619Y-41742380D01*
X72032857Y-41742380D01*
X72175714Y-41790000D01*
X72223333Y-41837619D01*
X72556666Y-41742380D02*
X73223333Y-41742380D01*
X72794761Y-42742380D01*
X72223333Y-50013142D02*
X72175714Y-50060761D01*
X72032857Y-50108380D01*
X71937619Y-50108380D01*
X71794761Y-50060761D01*
X71699523Y-49965523D01*
X71651904Y-49870285D01*
X71604285Y-49679809D01*
X71604285Y-49536952D01*
X71651904Y-49346476D01*
X71699523Y-49251238D01*
X71794761Y-49156000D01*
X71937619Y-49108380D01*
X72032857Y-49108380D01*
X72175714Y-49156000D01*
X72223333Y-49203619D01*
X72794761Y-49536952D02*
X72699523Y-49489333D01*
X72651904Y-49441714D01*
X72604285Y-49346476D01*
X72604285Y-49298857D01*
X72651904Y-49203619D01*
X72699523Y-49156000D01*
X72794761Y-49108380D01*
X72985238Y-49108380D01*
X73080476Y-49156000D01*
X73128095Y-49203619D01*
X73175714Y-49298857D01*
X73175714Y-49346476D01*
X73128095Y-49441714D01*
X73080476Y-49489333D01*
X72985238Y-49536952D01*
X72794761Y-49536952D01*
X72699523Y-49584571D01*
X72651904Y-49632190D01*
X72604285Y-49727428D01*
X72604285Y-49917904D01*
X72651904Y-50013142D01*
X72699523Y-50060761D01*
X72794761Y-50108380D01*
X72985238Y-50108380D01*
X73080476Y-50060761D01*
X73128095Y-50013142D01*
X73175714Y-49917904D01*
X73175714Y-49727428D01*
X73128095Y-49632190D01*
X73080476Y-49584571D01*
X72985238Y-49536952D01*
X72223333Y-28169142D02*
X72175714Y-28216761D01*
X72032857Y-28264380D01*
X71937619Y-28264380D01*
X71794761Y-28216761D01*
X71699523Y-28121523D01*
X71651904Y-28026285D01*
X71604285Y-27835809D01*
X71604285Y-27692952D01*
X71651904Y-27502476D01*
X71699523Y-27407238D01*
X71794761Y-27312000D01*
X71937619Y-27264380D01*
X72032857Y-27264380D01*
X72175714Y-27312000D01*
X72223333Y-27359619D01*
X72699523Y-28264380D02*
X72890000Y-28264380D01*
X72985238Y-28216761D01*
X73032857Y-28169142D01*
X73128095Y-28026285D01*
X73175714Y-27835809D01*
X73175714Y-27454857D01*
X73128095Y-27359619D01*
X73080476Y-27312000D01*
X72985238Y-27264380D01*
X72794761Y-27264380D01*
X72699523Y-27312000D01*
X72651904Y-27359619D01*
X72604285Y-27454857D01*
X72604285Y-27692952D01*
X72651904Y-27788190D01*
X72699523Y-27835809D01*
X72794761Y-27883428D01*
X72985238Y-27883428D01*
X73080476Y-27835809D01*
X73128095Y-27788190D01*
X73175714Y-27692952D01*
X71747142Y-35281142D02*
X71699523Y-35328761D01*
X71556666Y-35376380D01*
X71461428Y-35376380D01*
X71318571Y-35328761D01*
X71223333Y-35233523D01*
X71175714Y-35138285D01*
X71128095Y-34947809D01*
X71128095Y-34804952D01*
X71175714Y-34614476D01*
X71223333Y-34519238D01*
X71318571Y-34424000D01*
X71461428Y-34376380D01*
X71556666Y-34376380D01*
X71699523Y-34424000D01*
X71747142Y-34471619D01*
X72699523Y-35376380D02*
X72128095Y-35376380D01*
X72413809Y-35376380D02*
X72413809Y-34376380D01*
X72318571Y-34519238D01*
X72223333Y-34614476D01*
X72128095Y-34662095D01*
X73318571Y-34376380D02*
X73413809Y-34376380D01*
X73509047Y-34424000D01*
X73556666Y-34471619D01*
X73604285Y-34566857D01*
X73651904Y-34757333D01*
X73651904Y-34995428D01*
X73604285Y-35185904D01*
X73556666Y-35281142D01*
X73509047Y-35328761D01*
X73413809Y-35376380D01*
X73318571Y-35376380D01*
X73223333Y-35328761D01*
X73175714Y-35281142D01*
X73128095Y-35185904D01*
X73080476Y-34995428D01*
X73080476Y-34757333D01*
X73128095Y-34566857D01*
X73175714Y-34471619D01*
X73223333Y-34424000D01*
X73318571Y-34376380D01*
M02*
