G04 #@! TF.GenerationSoftware,KiCad,Pcbnew,(5.1.5)-3*
G04 #@! TF.CreationDate,2020-04-27T21:57:51+02:00*
G04 #@! TF.ProjectId,czujnikParkowania,637a756a-6e69-46b5-9061-726b6f77616e,rev?*
G04 #@! TF.SameCoordinates,Original*
G04 #@! TF.FileFunction,Copper,L2,Bot*
G04 #@! TF.FilePolarity,Positive*
%FSLAX46Y46*%
G04 Gerber Fmt 4.6, Leading zero omitted, Abs format (unit mm)*
G04 Created by KiCad (PCBNEW (5.1.5)-3) date 2020-04-27 21:57:51*
%MOMM*%
%LPD*%
G04 APERTURE LIST*
%ADD10C,1.524000*%
%ADD11R,1.524000X1.524000*%
%ADD12R,1.600000X1.600000*%
%ADD13O,1.600000X1.600000*%
%ADD14C,1.600000*%
%ADD15R,2.200000X2.200000*%
%ADD16O,2.200000X2.200000*%
%ADD17R,2.600000X2.600000*%
%ADD18C,2.600000*%
%ADD19R,1.500000X1.500000*%
%ADD20C,1.500000*%
%ADD21R,1.905000X2.000000*%
%ADD22O,1.905000X2.000000*%
%ADD23C,0.800000*%
%ADD24C,0.250000*%
G04 APERTURE END LIST*
D10*
X60970000Y-37465000D03*
D11*
X68570000Y-37465000D03*
D12*
X64706500Y-49339500D03*
D13*
X31686500Y-64579500D03*
X62166500Y-49339500D03*
X34226500Y-64579500D03*
X59626500Y-49339500D03*
X36766500Y-64579500D03*
X57086500Y-49339500D03*
X39306500Y-64579500D03*
X54546500Y-49339500D03*
X41846500Y-64579500D03*
X52006500Y-49339500D03*
X44386500Y-64579500D03*
X49466500Y-49339500D03*
X46926500Y-64579500D03*
X46926500Y-49339500D03*
X49466500Y-64579500D03*
X44386500Y-49339500D03*
X52006500Y-64579500D03*
X41846500Y-49339500D03*
X54546500Y-64579500D03*
X39306500Y-49339500D03*
X57086500Y-64579500D03*
X36766500Y-49339500D03*
X59626500Y-64579500D03*
X34226500Y-49339500D03*
X62166500Y-64579500D03*
X31686500Y-49339500D03*
X64706500Y-64579500D03*
X29146500Y-49339500D03*
X29146500Y-64579500D03*
D12*
X61976000Y-77851000D03*
D14*
X61976000Y-79851000D03*
D12*
X75438000Y-77978000D03*
D14*
X75438000Y-80478000D03*
D15*
X53086000Y-84455000D03*
D16*
X42926000Y-84455000D03*
D14*
X42926000Y-80391000D03*
D13*
X37846000Y-80391000D03*
D17*
X28829000Y-83058000D03*
D18*
X28829000Y-77978000D03*
X28829000Y-72898000D03*
D19*
X25146000Y-38989000D03*
D20*
X27686000Y-38989000D03*
X30226000Y-38989000D03*
X32766000Y-38989000D03*
X35306000Y-38989000D03*
X37846000Y-38989000D03*
X40386000Y-38989000D03*
X42926000Y-38989000D03*
X45466000Y-38989000D03*
X45466000Y-23749000D03*
X42926000Y-23749000D03*
X40386000Y-23749000D03*
X37846000Y-23749000D03*
X35306000Y-23749000D03*
X32766000Y-23749000D03*
X30226000Y-23749000D03*
X27686000Y-23749000D03*
X25146000Y-23749000D03*
D21*
X63246000Y-72263000D03*
D22*
X65786000Y-72263000D03*
X68326000Y-72263000D03*
D10*
X60295000Y-21082000D03*
X62835000Y-21082000D03*
X65375000Y-21082000D03*
D11*
X57755000Y-21082000D03*
D23*
X69088000Y-58547000D03*
X73152000Y-58547000D03*
X57150000Y-62103000D03*
X57150000Y-58547000D03*
X34544000Y-57277000D03*
X37846000Y-57531000D03*
X36322000Y-25273000D03*
X39878000Y-52197000D03*
X25654000Y-44069000D03*
X23368000Y-44069000D03*
X33020000Y-27813000D03*
X41656000Y-27813000D03*
X45466000Y-31877000D03*
X34036000Y-26289000D03*
X44196000Y-26289000D03*
X41402000Y-36195000D03*
X38608000Y-36195000D03*
X39624000Y-41021000D03*
X36830000Y-37465000D03*
X33782000Y-34925000D03*
X36322000Y-41275000D03*
X40640000Y-41783000D03*
X41402000Y-37465000D03*
X40894000Y-43053000D03*
X35560000Y-33147000D03*
X32258000Y-32131000D03*
X75692000Y-65532000D03*
D24*
X69088000Y-58547000D02*
X73152000Y-58547000D01*
X57150000Y-62103000D02*
X57150000Y-58547000D01*
X62835000Y-21082000D02*
X50897000Y-33020000D01*
X50897000Y-33020000D02*
X50897000Y-40543000D01*
X50897000Y-40543000D02*
X45085000Y-46355000D01*
X45085000Y-46355000D02*
X37465000Y-46355000D01*
X36766500Y-47053500D02*
X36766500Y-49339500D01*
X37465000Y-46355000D02*
X36766500Y-47053500D01*
X60295000Y-22159630D02*
X50165000Y-32289630D01*
X60295000Y-21082000D02*
X60295000Y-22159630D01*
X50165000Y-32289630D02*
X50165000Y-40005000D01*
X50165000Y-40005000D02*
X44450000Y-45720000D01*
X44450000Y-45720000D02*
X35560000Y-45720000D01*
X34226500Y-47053500D02*
X34226500Y-49339500D01*
X35560000Y-45720000D02*
X34226500Y-47053500D01*
X34544000Y-57277000D02*
X37592000Y-57277000D01*
X37592000Y-57277000D02*
X37846000Y-57531000D01*
X35922001Y-24873001D02*
X33927999Y-24873001D01*
X36322000Y-25273000D02*
X35922001Y-24873001D01*
X33101499Y-49879501D02*
X35164998Y-51943000D01*
X33101499Y-49089497D02*
X33101499Y-49879501D01*
X33927999Y-24873001D02*
X26379001Y-32421999D01*
X26379001Y-42366999D02*
X33101499Y-49089497D01*
X26379001Y-32421999D02*
X26379001Y-42366999D01*
X35164998Y-51943000D02*
X39624000Y-51943000D01*
X39624000Y-51943000D02*
X39878000Y-52197000D01*
X25654000Y-44069000D02*
X23368000Y-44069000D01*
X33020000Y-27813000D02*
X41656000Y-27813000D01*
X45466000Y-31877000D02*
X45466000Y-23749000D01*
X34036000Y-26289000D02*
X44196000Y-26289000D01*
X41402000Y-36195000D02*
X38608000Y-36195000D01*
X39624000Y-41021000D02*
X39116000Y-40513000D01*
X39116000Y-40259000D02*
X37846000Y-38989000D01*
X39116000Y-40513000D02*
X39116000Y-40259000D01*
X36830000Y-37465000D02*
X34290000Y-34925000D01*
X34290000Y-34925000D02*
X33782000Y-34925000D01*
X36322000Y-41275000D02*
X36830000Y-41783000D01*
X36830000Y-41783000D02*
X40640000Y-41783000D01*
X41801999Y-42145001D02*
X40894000Y-43053000D01*
X41402000Y-37465000D02*
X41801999Y-37864999D01*
X41801999Y-37864999D02*
X41801999Y-42145001D01*
X35560000Y-33147000D02*
X33274000Y-33147000D01*
X33274000Y-33147000D02*
X32258000Y-32131000D01*
X75692000Y-65532000D02*
X75692000Y-63754000D01*
X75692000Y-63754000D02*
X72898000Y-60960000D01*
X72898000Y-60960000D02*
X68326000Y-60960000D01*
X64706500Y-57340500D02*
X64706500Y-49339500D01*
X68326000Y-60960000D02*
X64706500Y-57340500D01*
M02*
