G04 #@! TF.GenerationSoftware,KiCad,Pcbnew,(5.1.5)-3*
G04 #@! TF.CreationDate,2020-04-28T22:27:17+02:00*
G04 #@! TF.ProjectId,czujnikParkowania,637a756a-6e69-46b5-9061-726b6f77616e,rev?*
G04 #@! TF.SameCoordinates,Original*
G04 #@! TF.FileFunction,Paste,Top*
G04 #@! TF.FilePolarity,Positive*
%FSLAX46Y46*%
G04 Gerber Fmt 4.6, Leading zero omitted, Abs format (unit mm)*
G04 Created by KiCad (PCBNEW (5.1.5)-3) date 2020-04-28 22:27:17*
%MOMM*%
%LPD*%
G04 APERTURE LIST*
%ADD10C,0.100000*%
%ADD11R,1.500000X1.000000*%
%ADD12R,0.900000X0.800000*%
%ADD13R,1.550000X1.300000*%
G04 APERTURE END LIST*
D10*
G36*
X55090142Y-68904174D02*
G01*
X55113803Y-68907684D01*
X55137007Y-68913496D01*
X55159529Y-68921554D01*
X55181153Y-68931782D01*
X55201670Y-68944079D01*
X55220883Y-68958329D01*
X55238607Y-68974393D01*
X55254671Y-68992117D01*
X55268921Y-69011330D01*
X55281218Y-69031847D01*
X55291446Y-69053471D01*
X55299504Y-69075993D01*
X55305316Y-69099197D01*
X55308826Y-69122858D01*
X55310000Y-69146750D01*
X55310000Y-69634250D01*
X55308826Y-69658142D01*
X55305316Y-69681803D01*
X55299504Y-69705007D01*
X55291446Y-69727529D01*
X55281218Y-69749153D01*
X55268921Y-69769670D01*
X55254671Y-69788883D01*
X55238607Y-69806607D01*
X55220883Y-69822671D01*
X55201670Y-69836921D01*
X55181153Y-69849218D01*
X55159529Y-69859446D01*
X55137007Y-69867504D01*
X55113803Y-69873316D01*
X55090142Y-69876826D01*
X55066250Y-69878000D01*
X54153750Y-69878000D01*
X54129858Y-69876826D01*
X54106197Y-69873316D01*
X54082993Y-69867504D01*
X54060471Y-69859446D01*
X54038847Y-69849218D01*
X54018330Y-69836921D01*
X53999117Y-69822671D01*
X53981393Y-69806607D01*
X53965329Y-69788883D01*
X53951079Y-69769670D01*
X53938782Y-69749153D01*
X53928554Y-69727529D01*
X53920496Y-69705007D01*
X53914684Y-69681803D01*
X53911174Y-69658142D01*
X53910000Y-69634250D01*
X53910000Y-69146750D01*
X53911174Y-69122858D01*
X53914684Y-69099197D01*
X53920496Y-69075993D01*
X53928554Y-69053471D01*
X53938782Y-69031847D01*
X53951079Y-69011330D01*
X53965329Y-68992117D01*
X53981393Y-68974393D01*
X53999117Y-68958329D01*
X54018330Y-68944079D01*
X54038847Y-68931782D01*
X54060471Y-68921554D01*
X54082993Y-68913496D01*
X54106197Y-68907684D01*
X54129858Y-68904174D01*
X54153750Y-68903000D01*
X55066250Y-68903000D01*
X55090142Y-68904174D01*
G37*
G36*
X55090142Y-67029174D02*
G01*
X55113803Y-67032684D01*
X55137007Y-67038496D01*
X55159529Y-67046554D01*
X55181153Y-67056782D01*
X55201670Y-67069079D01*
X55220883Y-67083329D01*
X55238607Y-67099393D01*
X55254671Y-67117117D01*
X55268921Y-67136330D01*
X55281218Y-67156847D01*
X55291446Y-67178471D01*
X55299504Y-67200993D01*
X55305316Y-67224197D01*
X55308826Y-67247858D01*
X55310000Y-67271750D01*
X55310000Y-67759250D01*
X55308826Y-67783142D01*
X55305316Y-67806803D01*
X55299504Y-67830007D01*
X55291446Y-67852529D01*
X55281218Y-67874153D01*
X55268921Y-67894670D01*
X55254671Y-67913883D01*
X55238607Y-67931607D01*
X55220883Y-67947671D01*
X55201670Y-67961921D01*
X55181153Y-67974218D01*
X55159529Y-67984446D01*
X55137007Y-67992504D01*
X55113803Y-67998316D01*
X55090142Y-68001826D01*
X55066250Y-68003000D01*
X54153750Y-68003000D01*
X54129858Y-68001826D01*
X54106197Y-67998316D01*
X54082993Y-67992504D01*
X54060471Y-67984446D01*
X54038847Y-67974218D01*
X54018330Y-67961921D01*
X53999117Y-67947671D01*
X53981393Y-67931607D01*
X53965329Y-67913883D01*
X53951079Y-67894670D01*
X53938782Y-67874153D01*
X53928554Y-67852529D01*
X53920496Y-67830007D01*
X53914684Y-67806803D01*
X53911174Y-67783142D01*
X53910000Y-67759250D01*
X53910000Y-67271750D01*
X53911174Y-67247858D01*
X53914684Y-67224197D01*
X53920496Y-67200993D01*
X53928554Y-67178471D01*
X53938782Y-67156847D01*
X53951079Y-67136330D01*
X53965329Y-67117117D01*
X53981393Y-67099393D01*
X53999117Y-67083329D01*
X54018330Y-67069079D01*
X54038847Y-67056782D01*
X54060471Y-67046554D01*
X54082993Y-67038496D01*
X54106197Y-67032684D01*
X54129858Y-67029174D01*
X54153750Y-67028000D01*
X55066250Y-67028000D01*
X55090142Y-67029174D01*
G37*
G36*
X65624142Y-75120174D02*
G01*
X65647803Y-75123684D01*
X65671007Y-75129496D01*
X65693529Y-75137554D01*
X65715153Y-75147782D01*
X65735670Y-75160079D01*
X65754883Y-75174329D01*
X65772607Y-75190393D01*
X65788671Y-75208117D01*
X65802921Y-75227330D01*
X65815218Y-75247847D01*
X65825446Y-75269471D01*
X65833504Y-75291993D01*
X65839316Y-75315197D01*
X65842826Y-75338858D01*
X65844000Y-75362750D01*
X65844000Y-76275250D01*
X65842826Y-76299142D01*
X65839316Y-76322803D01*
X65833504Y-76346007D01*
X65825446Y-76368529D01*
X65815218Y-76390153D01*
X65802921Y-76410670D01*
X65788671Y-76429883D01*
X65772607Y-76447607D01*
X65754883Y-76463671D01*
X65735670Y-76477921D01*
X65715153Y-76490218D01*
X65693529Y-76500446D01*
X65671007Y-76508504D01*
X65647803Y-76514316D01*
X65624142Y-76517826D01*
X65600250Y-76519000D01*
X65112750Y-76519000D01*
X65088858Y-76517826D01*
X65065197Y-76514316D01*
X65041993Y-76508504D01*
X65019471Y-76500446D01*
X64997847Y-76490218D01*
X64977330Y-76477921D01*
X64958117Y-76463671D01*
X64940393Y-76447607D01*
X64924329Y-76429883D01*
X64910079Y-76410670D01*
X64897782Y-76390153D01*
X64887554Y-76368529D01*
X64879496Y-76346007D01*
X64873684Y-76322803D01*
X64870174Y-76299142D01*
X64869000Y-76275250D01*
X64869000Y-75362750D01*
X64870174Y-75338858D01*
X64873684Y-75315197D01*
X64879496Y-75291993D01*
X64887554Y-75269471D01*
X64897782Y-75247847D01*
X64910079Y-75227330D01*
X64924329Y-75208117D01*
X64940393Y-75190393D01*
X64958117Y-75174329D01*
X64977330Y-75160079D01*
X64997847Y-75147782D01*
X65019471Y-75137554D01*
X65041993Y-75129496D01*
X65065197Y-75123684D01*
X65088858Y-75120174D01*
X65112750Y-75119000D01*
X65600250Y-75119000D01*
X65624142Y-75120174D01*
G37*
G36*
X67499142Y-75120174D02*
G01*
X67522803Y-75123684D01*
X67546007Y-75129496D01*
X67568529Y-75137554D01*
X67590153Y-75147782D01*
X67610670Y-75160079D01*
X67629883Y-75174329D01*
X67647607Y-75190393D01*
X67663671Y-75208117D01*
X67677921Y-75227330D01*
X67690218Y-75247847D01*
X67700446Y-75269471D01*
X67708504Y-75291993D01*
X67714316Y-75315197D01*
X67717826Y-75338858D01*
X67719000Y-75362750D01*
X67719000Y-76275250D01*
X67717826Y-76299142D01*
X67714316Y-76322803D01*
X67708504Y-76346007D01*
X67700446Y-76368529D01*
X67690218Y-76390153D01*
X67677921Y-76410670D01*
X67663671Y-76429883D01*
X67647607Y-76447607D01*
X67629883Y-76463671D01*
X67610670Y-76477921D01*
X67590153Y-76490218D01*
X67568529Y-76500446D01*
X67546007Y-76508504D01*
X67522803Y-76514316D01*
X67499142Y-76517826D01*
X67475250Y-76519000D01*
X66987750Y-76519000D01*
X66963858Y-76517826D01*
X66940197Y-76514316D01*
X66916993Y-76508504D01*
X66894471Y-76500446D01*
X66872847Y-76490218D01*
X66852330Y-76477921D01*
X66833117Y-76463671D01*
X66815393Y-76447607D01*
X66799329Y-76429883D01*
X66785079Y-76410670D01*
X66772782Y-76390153D01*
X66762554Y-76368529D01*
X66754496Y-76346007D01*
X66748684Y-76322803D01*
X66745174Y-76299142D01*
X66744000Y-76275250D01*
X66744000Y-75362750D01*
X66745174Y-75338858D01*
X66748684Y-75315197D01*
X66754496Y-75291993D01*
X66762554Y-75269471D01*
X66772782Y-75247847D01*
X66785079Y-75227330D01*
X66799329Y-75208117D01*
X66815393Y-75190393D01*
X66833117Y-75174329D01*
X66852330Y-75160079D01*
X66872847Y-75147782D01*
X66894471Y-75137554D01*
X66916993Y-75129496D01*
X66940197Y-75123684D01*
X66963858Y-75120174D01*
X66987750Y-75119000D01*
X67475250Y-75119000D01*
X67499142Y-75120174D01*
G37*
G36*
X69060142Y-61441174D02*
G01*
X69083803Y-61444684D01*
X69107007Y-61450496D01*
X69129529Y-61458554D01*
X69151153Y-61468782D01*
X69171670Y-61481079D01*
X69190883Y-61495329D01*
X69208607Y-61511393D01*
X69224671Y-61529117D01*
X69238921Y-61548330D01*
X69251218Y-61568847D01*
X69261446Y-61590471D01*
X69269504Y-61612993D01*
X69275316Y-61636197D01*
X69278826Y-61659858D01*
X69280000Y-61683750D01*
X69280000Y-62171250D01*
X69278826Y-62195142D01*
X69275316Y-62218803D01*
X69269504Y-62242007D01*
X69261446Y-62264529D01*
X69251218Y-62286153D01*
X69238921Y-62306670D01*
X69224671Y-62325883D01*
X69208607Y-62343607D01*
X69190883Y-62359671D01*
X69171670Y-62373921D01*
X69151153Y-62386218D01*
X69129529Y-62396446D01*
X69107007Y-62404504D01*
X69083803Y-62410316D01*
X69060142Y-62413826D01*
X69036250Y-62415000D01*
X68123750Y-62415000D01*
X68099858Y-62413826D01*
X68076197Y-62410316D01*
X68052993Y-62404504D01*
X68030471Y-62396446D01*
X68008847Y-62386218D01*
X67988330Y-62373921D01*
X67969117Y-62359671D01*
X67951393Y-62343607D01*
X67935329Y-62325883D01*
X67921079Y-62306670D01*
X67908782Y-62286153D01*
X67898554Y-62264529D01*
X67890496Y-62242007D01*
X67884684Y-62218803D01*
X67881174Y-62195142D01*
X67880000Y-62171250D01*
X67880000Y-61683750D01*
X67881174Y-61659858D01*
X67884684Y-61636197D01*
X67890496Y-61612993D01*
X67898554Y-61590471D01*
X67908782Y-61568847D01*
X67921079Y-61548330D01*
X67935329Y-61529117D01*
X67951393Y-61511393D01*
X67969117Y-61495329D01*
X67988330Y-61481079D01*
X68008847Y-61468782D01*
X68030471Y-61458554D01*
X68052993Y-61450496D01*
X68076197Y-61444684D01*
X68099858Y-61441174D01*
X68123750Y-61440000D01*
X69036250Y-61440000D01*
X69060142Y-61441174D01*
G37*
G36*
X69060142Y-63316174D02*
G01*
X69083803Y-63319684D01*
X69107007Y-63325496D01*
X69129529Y-63333554D01*
X69151153Y-63343782D01*
X69171670Y-63356079D01*
X69190883Y-63370329D01*
X69208607Y-63386393D01*
X69224671Y-63404117D01*
X69238921Y-63423330D01*
X69251218Y-63443847D01*
X69261446Y-63465471D01*
X69269504Y-63487993D01*
X69275316Y-63511197D01*
X69278826Y-63534858D01*
X69280000Y-63558750D01*
X69280000Y-64046250D01*
X69278826Y-64070142D01*
X69275316Y-64093803D01*
X69269504Y-64117007D01*
X69261446Y-64139529D01*
X69251218Y-64161153D01*
X69238921Y-64181670D01*
X69224671Y-64200883D01*
X69208607Y-64218607D01*
X69190883Y-64234671D01*
X69171670Y-64248921D01*
X69151153Y-64261218D01*
X69129529Y-64271446D01*
X69107007Y-64279504D01*
X69083803Y-64285316D01*
X69060142Y-64288826D01*
X69036250Y-64290000D01*
X68123750Y-64290000D01*
X68099858Y-64288826D01*
X68076197Y-64285316D01*
X68052993Y-64279504D01*
X68030471Y-64271446D01*
X68008847Y-64261218D01*
X67988330Y-64248921D01*
X67969117Y-64234671D01*
X67951393Y-64218607D01*
X67935329Y-64200883D01*
X67921079Y-64181670D01*
X67908782Y-64161153D01*
X67898554Y-64139529D01*
X67890496Y-64117007D01*
X67884684Y-64093803D01*
X67881174Y-64070142D01*
X67880000Y-64046250D01*
X67880000Y-63558750D01*
X67881174Y-63534858D01*
X67884684Y-63511197D01*
X67890496Y-63487993D01*
X67898554Y-63465471D01*
X67908782Y-63443847D01*
X67921079Y-63423330D01*
X67935329Y-63404117D01*
X67951393Y-63386393D01*
X67969117Y-63370329D01*
X67988330Y-63356079D01*
X68008847Y-63343782D01*
X68030471Y-63333554D01*
X68052993Y-63325496D01*
X68076197Y-63319684D01*
X68099858Y-63316174D01*
X68123750Y-63315000D01*
X69036250Y-63315000D01*
X69060142Y-63316174D01*
G37*
G36*
X69180142Y-52895174D02*
G01*
X69203803Y-52898684D01*
X69227007Y-52904496D01*
X69249529Y-52912554D01*
X69271153Y-52922782D01*
X69291670Y-52935079D01*
X69310883Y-52949329D01*
X69328607Y-52965393D01*
X69344671Y-52983117D01*
X69358921Y-53002330D01*
X69371218Y-53022847D01*
X69381446Y-53044471D01*
X69389504Y-53066993D01*
X69395316Y-53090197D01*
X69398826Y-53113858D01*
X69400000Y-53137750D01*
X69400000Y-54050250D01*
X69398826Y-54074142D01*
X69395316Y-54097803D01*
X69389504Y-54121007D01*
X69381446Y-54143529D01*
X69371218Y-54165153D01*
X69358921Y-54185670D01*
X69344671Y-54204883D01*
X69328607Y-54222607D01*
X69310883Y-54238671D01*
X69291670Y-54252921D01*
X69271153Y-54265218D01*
X69249529Y-54275446D01*
X69227007Y-54283504D01*
X69203803Y-54289316D01*
X69180142Y-54292826D01*
X69156250Y-54294000D01*
X68668750Y-54294000D01*
X68644858Y-54292826D01*
X68621197Y-54289316D01*
X68597993Y-54283504D01*
X68575471Y-54275446D01*
X68553847Y-54265218D01*
X68533330Y-54252921D01*
X68514117Y-54238671D01*
X68496393Y-54222607D01*
X68480329Y-54204883D01*
X68466079Y-54185670D01*
X68453782Y-54165153D01*
X68443554Y-54143529D01*
X68435496Y-54121007D01*
X68429684Y-54097803D01*
X68426174Y-54074142D01*
X68425000Y-54050250D01*
X68425000Y-53137750D01*
X68426174Y-53113858D01*
X68429684Y-53090197D01*
X68435496Y-53066993D01*
X68443554Y-53044471D01*
X68453782Y-53022847D01*
X68466079Y-53002330D01*
X68480329Y-52983117D01*
X68496393Y-52965393D01*
X68514117Y-52949329D01*
X68533330Y-52935079D01*
X68553847Y-52922782D01*
X68575471Y-52912554D01*
X68597993Y-52904496D01*
X68621197Y-52898684D01*
X68644858Y-52895174D01*
X68668750Y-52894000D01*
X69156250Y-52894000D01*
X69180142Y-52895174D01*
G37*
G36*
X71055142Y-52895174D02*
G01*
X71078803Y-52898684D01*
X71102007Y-52904496D01*
X71124529Y-52912554D01*
X71146153Y-52922782D01*
X71166670Y-52935079D01*
X71185883Y-52949329D01*
X71203607Y-52965393D01*
X71219671Y-52983117D01*
X71233921Y-53002330D01*
X71246218Y-53022847D01*
X71256446Y-53044471D01*
X71264504Y-53066993D01*
X71270316Y-53090197D01*
X71273826Y-53113858D01*
X71275000Y-53137750D01*
X71275000Y-54050250D01*
X71273826Y-54074142D01*
X71270316Y-54097803D01*
X71264504Y-54121007D01*
X71256446Y-54143529D01*
X71246218Y-54165153D01*
X71233921Y-54185670D01*
X71219671Y-54204883D01*
X71203607Y-54222607D01*
X71185883Y-54238671D01*
X71166670Y-54252921D01*
X71146153Y-54265218D01*
X71124529Y-54275446D01*
X71102007Y-54283504D01*
X71078803Y-54289316D01*
X71055142Y-54292826D01*
X71031250Y-54294000D01*
X70543750Y-54294000D01*
X70519858Y-54292826D01*
X70496197Y-54289316D01*
X70472993Y-54283504D01*
X70450471Y-54275446D01*
X70428847Y-54265218D01*
X70408330Y-54252921D01*
X70389117Y-54238671D01*
X70371393Y-54222607D01*
X70355329Y-54204883D01*
X70341079Y-54185670D01*
X70328782Y-54165153D01*
X70318554Y-54143529D01*
X70310496Y-54121007D01*
X70304684Y-54097803D01*
X70301174Y-54074142D01*
X70300000Y-54050250D01*
X70300000Y-53137750D01*
X70301174Y-53113858D01*
X70304684Y-53090197D01*
X70310496Y-53066993D01*
X70318554Y-53044471D01*
X70328782Y-53022847D01*
X70341079Y-53002330D01*
X70355329Y-52983117D01*
X70371393Y-52965393D01*
X70389117Y-52949329D01*
X70408330Y-52935079D01*
X70428847Y-52922782D01*
X70450471Y-52912554D01*
X70472993Y-52904496D01*
X70496197Y-52898684D01*
X70519858Y-52895174D01*
X70543750Y-52894000D01*
X71031250Y-52894000D01*
X71055142Y-52895174D01*
G37*
D11*
X73750000Y-53391000D03*
X73750000Y-56591000D03*
X78650000Y-53391000D03*
X78650000Y-56591000D03*
X78650000Y-48971000D03*
X78650000Y-45771000D03*
X73750000Y-48971000D03*
X73750000Y-45771000D03*
X73750000Y-38405000D03*
X73750000Y-41605000D03*
X78650000Y-38405000D03*
X78650000Y-41605000D03*
X78650000Y-34239000D03*
X78650000Y-31039000D03*
X73750000Y-34239000D03*
X73750000Y-31039000D03*
X73750000Y-23927000D03*
X73750000Y-27127000D03*
X78650000Y-23927000D03*
X78650000Y-27127000D03*
D12*
X42211500Y-72453500D03*
X40211500Y-73403500D03*
X40211500Y-71503500D03*
D10*
G36*
X54711203Y-72306222D02*
G01*
X54725764Y-72308382D01*
X54740043Y-72311959D01*
X54753903Y-72316918D01*
X54767210Y-72323212D01*
X54779836Y-72330780D01*
X54791659Y-72339548D01*
X54802566Y-72349434D01*
X54812452Y-72360341D01*
X54821220Y-72372164D01*
X54828788Y-72384790D01*
X54835082Y-72398097D01*
X54840041Y-72411957D01*
X54843618Y-72426236D01*
X54845778Y-72440797D01*
X54846500Y-72455500D01*
X54846500Y-74105500D01*
X54845778Y-74120203D01*
X54843618Y-74134764D01*
X54840041Y-74149043D01*
X54835082Y-74162903D01*
X54828788Y-74176210D01*
X54821220Y-74188836D01*
X54812452Y-74200659D01*
X54802566Y-74211566D01*
X54791659Y-74221452D01*
X54779836Y-74230220D01*
X54767210Y-74237788D01*
X54753903Y-74244082D01*
X54740043Y-74249041D01*
X54725764Y-74252618D01*
X54711203Y-74254778D01*
X54696500Y-74255500D01*
X54396500Y-74255500D01*
X54381797Y-74254778D01*
X54367236Y-74252618D01*
X54352957Y-74249041D01*
X54339097Y-74244082D01*
X54325790Y-74237788D01*
X54313164Y-74230220D01*
X54301341Y-74221452D01*
X54290434Y-74211566D01*
X54280548Y-74200659D01*
X54271780Y-74188836D01*
X54264212Y-74176210D01*
X54257918Y-74162903D01*
X54252959Y-74149043D01*
X54249382Y-74134764D01*
X54247222Y-74120203D01*
X54246500Y-74105500D01*
X54246500Y-72455500D01*
X54247222Y-72440797D01*
X54249382Y-72426236D01*
X54252959Y-72411957D01*
X54257918Y-72398097D01*
X54264212Y-72384790D01*
X54271780Y-72372164D01*
X54280548Y-72360341D01*
X54290434Y-72349434D01*
X54301341Y-72339548D01*
X54313164Y-72330780D01*
X54325790Y-72323212D01*
X54339097Y-72316918D01*
X54352957Y-72311959D01*
X54367236Y-72308382D01*
X54381797Y-72306222D01*
X54396500Y-72305500D01*
X54696500Y-72305500D01*
X54711203Y-72306222D01*
G37*
G36*
X53441203Y-72306222D02*
G01*
X53455764Y-72308382D01*
X53470043Y-72311959D01*
X53483903Y-72316918D01*
X53497210Y-72323212D01*
X53509836Y-72330780D01*
X53521659Y-72339548D01*
X53532566Y-72349434D01*
X53542452Y-72360341D01*
X53551220Y-72372164D01*
X53558788Y-72384790D01*
X53565082Y-72398097D01*
X53570041Y-72411957D01*
X53573618Y-72426236D01*
X53575778Y-72440797D01*
X53576500Y-72455500D01*
X53576500Y-74105500D01*
X53575778Y-74120203D01*
X53573618Y-74134764D01*
X53570041Y-74149043D01*
X53565082Y-74162903D01*
X53558788Y-74176210D01*
X53551220Y-74188836D01*
X53542452Y-74200659D01*
X53532566Y-74211566D01*
X53521659Y-74221452D01*
X53509836Y-74230220D01*
X53497210Y-74237788D01*
X53483903Y-74244082D01*
X53470043Y-74249041D01*
X53455764Y-74252618D01*
X53441203Y-74254778D01*
X53426500Y-74255500D01*
X53126500Y-74255500D01*
X53111797Y-74254778D01*
X53097236Y-74252618D01*
X53082957Y-74249041D01*
X53069097Y-74244082D01*
X53055790Y-74237788D01*
X53043164Y-74230220D01*
X53031341Y-74221452D01*
X53020434Y-74211566D01*
X53010548Y-74200659D01*
X53001780Y-74188836D01*
X52994212Y-74176210D01*
X52987918Y-74162903D01*
X52982959Y-74149043D01*
X52979382Y-74134764D01*
X52977222Y-74120203D01*
X52976500Y-74105500D01*
X52976500Y-72455500D01*
X52977222Y-72440797D01*
X52979382Y-72426236D01*
X52982959Y-72411957D01*
X52987918Y-72398097D01*
X52994212Y-72384790D01*
X53001780Y-72372164D01*
X53010548Y-72360341D01*
X53020434Y-72349434D01*
X53031341Y-72339548D01*
X53043164Y-72330780D01*
X53055790Y-72323212D01*
X53069097Y-72316918D01*
X53082957Y-72311959D01*
X53097236Y-72308382D01*
X53111797Y-72306222D01*
X53126500Y-72305500D01*
X53426500Y-72305500D01*
X53441203Y-72306222D01*
G37*
G36*
X52171203Y-72306222D02*
G01*
X52185764Y-72308382D01*
X52200043Y-72311959D01*
X52213903Y-72316918D01*
X52227210Y-72323212D01*
X52239836Y-72330780D01*
X52251659Y-72339548D01*
X52262566Y-72349434D01*
X52272452Y-72360341D01*
X52281220Y-72372164D01*
X52288788Y-72384790D01*
X52295082Y-72398097D01*
X52300041Y-72411957D01*
X52303618Y-72426236D01*
X52305778Y-72440797D01*
X52306500Y-72455500D01*
X52306500Y-74105500D01*
X52305778Y-74120203D01*
X52303618Y-74134764D01*
X52300041Y-74149043D01*
X52295082Y-74162903D01*
X52288788Y-74176210D01*
X52281220Y-74188836D01*
X52272452Y-74200659D01*
X52262566Y-74211566D01*
X52251659Y-74221452D01*
X52239836Y-74230220D01*
X52227210Y-74237788D01*
X52213903Y-74244082D01*
X52200043Y-74249041D01*
X52185764Y-74252618D01*
X52171203Y-74254778D01*
X52156500Y-74255500D01*
X51856500Y-74255500D01*
X51841797Y-74254778D01*
X51827236Y-74252618D01*
X51812957Y-74249041D01*
X51799097Y-74244082D01*
X51785790Y-74237788D01*
X51773164Y-74230220D01*
X51761341Y-74221452D01*
X51750434Y-74211566D01*
X51740548Y-74200659D01*
X51731780Y-74188836D01*
X51724212Y-74176210D01*
X51717918Y-74162903D01*
X51712959Y-74149043D01*
X51709382Y-74134764D01*
X51707222Y-74120203D01*
X51706500Y-74105500D01*
X51706500Y-72455500D01*
X51707222Y-72440797D01*
X51709382Y-72426236D01*
X51712959Y-72411957D01*
X51717918Y-72398097D01*
X51724212Y-72384790D01*
X51731780Y-72372164D01*
X51740548Y-72360341D01*
X51750434Y-72349434D01*
X51761341Y-72339548D01*
X51773164Y-72330780D01*
X51785790Y-72323212D01*
X51799097Y-72316918D01*
X51812957Y-72311959D01*
X51827236Y-72308382D01*
X51841797Y-72306222D01*
X51856500Y-72305500D01*
X52156500Y-72305500D01*
X52171203Y-72306222D01*
G37*
G36*
X50901203Y-72306222D02*
G01*
X50915764Y-72308382D01*
X50930043Y-72311959D01*
X50943903Y-72316918D01*
X50957210Y-72323212D01*
X50969836Y-72330780D01*
X50981659Y-72339548D01*
X50992566Y-72349434D01*
X51002452Y-72360341D01*
X51011220Y-72372164D01*
X51018788Y-72384790D01*
X51025082Y-72398097D01*
X51030041Y-72411957D01*
X51033618Y-72426236D01*
X51035778Y-72440797D01*
X51036500Y-72455500D01*
X51036500Y-74105500D01*
X51035778Y-74120203D01*
X51033618Y-74134764D01*
X51030041Y-74149043D01*
X51025082Y-74162903D01*
X51018788Y-74176210D01*
X51011220Y-74188836D01*
X51002452Y-74200659D01*
X50992566Y-74211566D01*
X50981659Y-74221452D01*
X50969836Y-74230220D01*
X50957210Y-74237788D01*
X50943903Y-74244082D01*
X50930043Y-74249041D01*
X50915764Y-74252618D01*
X50901203Y-74254778D01*
X50886500Y-74255500D01*
X50586500Y-74255500D01*
X50571797Y-74254778D01*
X50557236Y-74252618D01*
X50542957Y-74249041D01*
X50529097Y-74244082D01*
X50515790Y-74237788D01*
X50503164Y-74230220D01*
X50491341Y-74221452D01*
X50480434Y-74211566D01*
X50470548Y-74200659D01*
X50461780Y-74188836D01*
X50454212Y-74176210D01*
X50447918Y-74162903D01*
X50442959Y-74149043D01*
X50439382Y-74134764D01*
X50437222Y-74120203D01*
X50436500Y-74105500D01*
X50436500Y-72455500D01*
X50437222Y-72440797D01*
X50439382Y-72426236D01*
X50442959Y-72411957D01*
X50447918Y-72398097D01*
X50454212Y-72384790D01*
X50461780Y-72372164D01*
X50470548Y-72360341D01*
X50480434Y-72349434D01*
X50491341Y-72339548D01*
X50503164Y-72330780D01*
X50515790Y-72323212D01*
X50529097Y-72316918D01*
X50542957Y-72311959D01*
X50557236Y-72308382D01*
X50571797Y-72306222D01*
X50586500Y-72305500D01*
X50886500Y-72305500D01*
X50901203Y-72306222D01*
G37*
G36*
X50901203Y-77256222D02*
G01*
X50915764Y-77258382D01*
X50930043Y-77261959D01*
X50943903Y-77266918D01*
X50957210Y-77273212D01*
X50969836Y-77280780D01*
X50981659Y-77289548D01*
X50992566Y-77299434D01*
X51002452Y-77310341D01*
X51011220Y-77322164D01*
X51018788Y-77334790D01*
X51025082Y-77348097D01*
X51030041Y-77361957D01*
X51033618Y-77376236D01*
X51035778Y-77390797D01*
X51036500Y-77405500D01*
X51036500Y-79055500D01*
X51035778Y-79070203D01*
X51033618Y-79084764D01*
X51030041Y-79099043D01*
X51025082Y-79112903D01*
X51018788Y-79126210D01*
X51011220Y-79138836D01*
X51002452Y-79150659D01*
X50992566Y-79161566D01*
X50981659Y-79171452D01*
X50969836Y-79180220D01*
X50957210Y-79187788D01*
X50943903Y-79194082D01*
X50930043Y-79199041D01*
X50915764Y-79202618D01*
X50901203Y-79204778D01*
X50886500Y-79205500D01*
X50586500Y-79205500D01*
X50571797Y-79204778D01*
X50557236Y-79202618D01*
X50542957Y-79199041D01*
X50529097Y-79194082D01*
X50515790Y-79187788D01*
X50503164Y-79180220D01*
X50491341Y-79171452D01*
X50480434Y-79161566D01*
X50470548Y-79150659D01*
X50461780Y-79138836D01*
X50454212Y-79126210D01*
X50447918Y-79112903D01*
X50442959Y-79099043D01*
X50439382Y-79084764D01*
X50437222Y-79070203D01*
X50436500Y-79055500D01*
X50436500Y-77405500D01*
X50437222Y-77390797D01*
X50439382Y-77376236D01*
X50442959Y-77361957D01*
X50447918Y-77348097D01*
X50454212Y-77334790D01*
X50461780Y-77322164D01*
X50470548Y-77310341D01*
X50480434Y-77299434D01*
X50491341Y-77289548D01*
X50503164Y-77280780D01*
X50515790Y-77273212D01*
X50529097Y-77266918D01*
X50542957Y-77261959D01*
X50557236Y-77258382D01*
X50571797Y-77256222D01*
X50586500Y-77255500D01*
X50886500Y-77255500D01*
X50901203Y-77256222D01*
G37*
G36*
X52171203Y-77256222D02*
G01*
X52185764Y-77258382D01*
X52200043Y-77261959D01*
X52213903Y-77266918D01*
X52227210Y-77273212D01*
X52239836Y-77280780D01*
X52251659Y-77289548D01*
X52262566Y-77299434D01*
X52272452Y-77310341D01*
X52281220Y-77322164D01*
X52288788Y-77334790D01*
X52295082Y-77348097D01*
X52300041Y-77361957D01*
X52303618Y-77376236D01*
X52305778Y-77390797D01*
X52306500Y-77405500D01*
X52306500Y-79055500D01*
X52305778Y-79070203D01*
X52303618Y-79084764D01*
X52300041Y-79099043D01*
X52295082Y-79112903D01*
X52288788Y-79126210D01*
X52281220Y-79138836D01*
X52272452Y-79150659D01*
X52262566Y-79161566D01*
X52251659Y-79171452D01*
X52239836Y-79180220D01*
X52227210Y-79187788D01*
X52213903Y-79194082D01*
X52200043Y-79199041D01*
X52185764Y-79202618D01*
X52171203Y-79204778D01*
X52156500Y-79205500D01*
X51856500Y-79205500D01*
X51841797Y-79204778D01*
X51827236Y-79202618D01*
X51812957Y-79199041D01*
X51799097Y-79194082D01*
X51785790Y-79187788D01*
X51773164Y-79180220D01*
X51761341Y-79171452D01*
X51750434Y-79161566D01*
X51740548Y-79150659D01*
X51731780Y-79138836D01*
X51724212Y-79126210D01*
X51717918Y-79112903D01*
X51712959Y-79099043D01*
X51709382Y-79084764D01*
X51707222Y-79070203D01*
X51706500Y-79055500D01*
X51706500Y-77405500D01*
X51707222Y-77390797D01*
X51709382Y-77376236D01*
X51712959Y-77361957D01*
X51717918Y-77348097D01*
X51724212Y-77334790D01*
X51731780Y-77322164D01*
X51740548Y-77310341D01*
X51750434Y-77299434D01*
X51761341Y-77289548D01*
X51773164Y-77280780D01*
X51785790Y-77273212D01*
X51799097Y-77266918D01*
X51812957Y-77261959D01*
X51827236Y-77258382D01*
X51841797Y-77256222D01*
X51856500Y-77255500D01*
X52156500Y-77255500D01*
X52171203Y-77256222D01*
G37*
G36*
X53441203Y-77256222D02*
G01*
X53455764Y-77258382D01*
X53470043Y-77261959D01*
X53483903Y-77266918D01*
X53497210Y-77273212D01*
X53509836Y-77280780D01*
X53521659Y-77289548D01*
X53532566Y-77299434D01*
X53542452Y-77310341D01*
X53551220Y-77322164D01*
X53558788Y-77334790D01*
X53565082Y-77348097D01*
X53570041Y-77361957D01*
X53573618Y-77376236D01*
X53575778Y-77390797D01*
X53576500Y-77405500D01*
X53576500Y-79055500D01*
X53575778Y-79070203D01*
X53573618Y-79084764D01*
X53570041Y-79099043D01*
X53565082Y-79112903D01*
X53558788Y-79126210D01*
X53551220Y-79138836D01*
X53542452Y-79150659D01*
X53532566Y-79161566D01*
X53521659Y-79171452D01*
X53509836Y-79180220D01*
X53497210Y-79187788D01*
X53483903Y-79194082D01*
X53470043Y-79199041D01*
X53455764Y-79202618D01*
X53441203Y-79204778D01*
X53426500Y-79205500D01*
X53126500Y-79205500D01*
X53111797Y-79204778D01*
X53097236Y-79202618D01*
X53082957Y-79199041D01*
X53069097Y-79194082D01*
X53055790Y-79187788D01*
X53043164Y-79180220D01*
X53031341Y-79171452D01*
X53020434Y-79161566D01*
X53010548Y-79150659D01*
X53001780Y-79138836D01*
X52994212Y-79126210D01*
X52987918Y-79112903D01*
X52982959Y-79099043D01*
X52979382Y-79084764D01*
X52977222Y-79070203D01*
X52976500Y-79055500D01*
X52976500Y-77405500D01*
X52977222Y-77390797D01*
X52979382Y-77376236D01*
X52982959Y-77361957D01*
X52987918Y-77348097D01*
X52994212Y-77334790D01*
X53001780Y-77322164D01*
X53010548Y-77310341D01*
X53020434Y-77299434D01*
X53031341Y-77289548D01*
X53043164Y-77280780D01*
X53055790Y-77273212D01*
X53069097Y-77266918D01*
X53082957Y-77261959D01*
X53097236Y-77258382D01*
X53111797Y-77256222D01*
X53126500Y-77255500D01*
X53426500Y-77255500D01*
X53441203Y-77256222D01*
G37*
G36*
X54711203Y-77256222D02*
G01*
X54725764Y-77258382D01*
X54740043Y-77261959D01*
X54753903Y-77266918D01*
X54767210Y-77273212D01*
X54779836Y-77280780D01*
X54791659Y-77289548D01*
X54802566Y-77299434D01*
X54812452Y-77310341D01*
X54821220Y-77322164D01*
X54828788Y-77334790D01*
X54835082Y-77348097D01*
X54840041Y-77361957D01*
X54843618Y-77376236D01*
X54845778Y-77390797D01*
X54846500Y-77405500D01*
X54846500Y-79055500D01*
X54845778Y-79070203D01*
X54843618Y-79084764D01*
X54840041Y-79099043D01*
X54835082Y-79112903D01*
X54828788Y-79126210D01*
X54821220Y-79138836D01*
X54812452Y-79150659D01*
X54802566Y-79161566D01*
X54791659Y-79171452D01*
X54779836Y-79180220D01*
X54767210Y-79187788D01*
X54753903Y-79194082D01*
X54740043Y-79199041D01*
X54725764Y-79202618D01*
X54711203Y-79204778D01*
X54696500Y-79205500D01*
X54396500Y-79205500D01*
X54381797Y-79204778D01*
X54367236Y-79202618D01*
X54352957Y-79199041D01*
X54339097Y-79194082D01*
X54325790Y-79187788D01*
X54313164Y-79180220D01*
X54301341Y-79171452D01*
X54290434Y-79161566D01*
X54280548Y-79150659D01*
X54271780Y-79138836D01*
X54264212Y-79126210D01*
X54257918Y-79112903D01*
X54252959Y-79099043D01*
X54249382Y-79084764D01*
X54247222Y-79070203D01*
X54246500Y-79055500D01*
X54246500Y-77405500D01*
X54247222Y-77390797D01*
X54249382Y-77376236D01*
X54252959Y-77361957D01*
X54257918Y-77348097D01*
X54264212Y-77334790D01*
X54271780Y-77322164D01*
X54280548Y-77310341D01*
X54290434Y-77299434D01*
X54301341Y-77289548D01*
X54313164Y-77280780D01*
X54325790Y-77273212D01*
X54339097Y-77266918D01*
X54352957Y-77261959D01*
X54367236Y-77258382D01*
X54381797Y-77256222D01*
X54396500Y-77255500D01*
X54696500Y-77255500D01*
X54711203Y-77256222D01*
G37*
D12*
X29734000Y-56835000D03*
X29734000Y-58735000D03*
X31734000Y-57785000D03*
X33798000Y-50993000D03*
X33798000Y-52893000D03*
X35798000Y-51943000D03*
X24654000Y-42037000D03*
X26654000Y-41087000D03*
X26654000Y-42987000D03*
D10*
G36*
X45438142Y-75411174D02*
G01*
X45461803Y-75414684D01*
X45485007Y-75420496D01*
X45507529Y-75428554D01*
X45529153Y-75438782D01*
X45549670Y-75451079D01*
X45568883Y-75465329D01*
X45586607Y-75481393D01*
X45602671Y-75499117D01*
X45616921Y-75518330D01*
X45629218Y-75538847D01*
X45639446Y-75560471D01*
X45647504Y-75582993D01*
X45653316Y-75606197D01*
X45656826Y-75629858D01*
X45658000Y-75653750D01*
X45658000Y-76141250D01*
X45656826Y-76165142D01*
X45653316Y-76188803D01*
X45647504Y-76212007D01*
X45639446Y-76234529D01*
X45629218Y-76256153D01*
X45616921Y-76276670D01*
X45602671Y-76295883D01*
X45586607Y-76313607D01*
X45568883Y-76329671D01*
X45549670Y-76343921D01*
X45529153Y-76356218D01*
X45507529Y-76366446D01*
X45485007Y-76374504D01*
X45461803Y-76380316D01*
X45438142Y-76383826D01*
X45414250Y-76385000D01*
X44501750Y-76385000D01*
X44477858Y-76383826D01*
X44454197Y-76380316D01*
X44430993Y-76374504D01*
X44408471Y-76366446D01*
X44386847Y-76356218D01*
X44366330Y-76343921D01*
X44347117Y-76329671D01*
X44329393Y-76313607D01*
X44313329Y-76295883D01*
X44299079Y-76276670D01*
X44286782Y-76256153D01*
X44276554Y-76234529D01*
X44268496Y-76212007D01*
X44262684Y-76188803D01*
X44259174Y-76165142D01*
X44258000Y-76141250D01*
X44258000Y-75653750D01*
X44259174Y-75629858D01*
X44262684Y-75606197D01*
X44268496Y-75582993D01*
X44276554Y-75560471D01*
X44286782Y-75538847D01*
X44299079Y-75518330D01*
X44313329Y-75499117D01*
X44329393Y-75481393D01*
X44347117Y-75465329D01*
X44366330Y-75451079D01*
X44386847Y-75438782D01*
X44408471Y-75428554D01*
X44430993Y-75420496D01*
X44454197Y-75414684D01*
X44477858Y-75411174D01*
X44501750Y-75410000D01*
X45414250Y-75410000D01*
X45438142Y-75411174D01*
G37*
G36*
X45438142Y-77286174D02*
G01*
X45461803Y-77289684D01*
X45485007Y-77295496D01*
X45507529Y-77303554D01*
X45529153Y-77313782D01*
X45549670Y-77326079D01*
X45568883Y-77340329D01*
X45586607Y-77356393D01*
X45602671Y-77374117D01*
X45616921Y-77393330D01*
X45629218Y-77413847D01*
X45639446Y-77435471D01*
X45647504Y-77457993D01*
X45653316Y-77481197D01*
X45656826Y-77504858D01*
X45658000Y-77528750D01*
X45658000Y-78016250D01*
X45656826Y-78040142D01*
X45653316Y-78063803D01*
X45647504Y-78087007D01*
X45639446Y-78109529D01*
X45629218Y-78131153D01*
X45616921Y-78151670D01*
X45602671Y-78170883D01*
X45586607Y-78188607D01*
X45568883Y-78204671D01*
X45549670Y-78218921D01*
X45529153Y-78231218D01*
X45507529Y-78241446D01*
X45485007Y-78249504D01*
X45461803Y-78255316D01*
X45438142Y-78258826D01*
X45414250Y-78260000D01*
X44501750Y-78260000D01*
X44477858Y-78258826D01*
X44454197Y-78255316D01*
X44430993Y-78249504D01*
X44408471Y-78241446D01*
X44386847Y-78231218D01*
X44366330Y-78218921D01*
X44347117Y-78204671D01*
X44329393Y-78188607D01*
X44313329Y-78170883D01*
X44299079Y-78151670D01*
X44286782Y-78131153D01*
X44276554Y-78109529D01*
X44268496Y-78087007D01*
X44262684Y-78063803D01*
X44259174Y-78040142D01*
X44258000Y-78016250D01*
X44258000Y-77528750D01*
X44259174Y-77504858D01*
X44262684Y-77481197D01*
X44268496Y-77457993D01*
X44276554Y-77435471D01*
X44286782Y-77413847D01*
X44299079Y-77393330D01*
X44313329Y-77374117D01*
X44329393Y-77356393D01*
X44347117Y-77340329D01*
X44366330Y-77326079D01*
X44386847Y-77313782D01*
X44408471Y-77303554D01*
X44430993Y-77295496D01*
X44454197Y-77289684D01*
X44477858Y-77286174D01*
X44501750Y-77285000D01*
X45414250Y-77285000D01*
X45438142Y-77286174D01*
G37*
G36*
X47115642Y-71754674D02*
G01*
X47139303Y-71758184D01*
X47162507Y-71763996D01*
X47185029Y-71772054D01*
X47206653Y-71782282D01*
X47227170Y-71794579D01*
X47246383Y-71808829D01*
X47264107Y-71824893D01*
X47280171Y-71842617D01*
X47294421Y-71861830D01*
X47306718Y-71882347D01*
X47316946Y-71903971D01*
X47325004Y-71926493D01*
X47330816Y-71949697D01*
X47334326Y-71973358D01*
X47335500Y-71997250D01*
X47335500Y-72909750D01*
X47334326Y-72933642D01*
X47330816Y-72957303D01*
X47325004Y-72980507D01*
X47316946Y-73003029D01*
X47306718Y-73024653D01*
X47294421Y-73045170D01*
X47280171Y-73064383D01*
X47264107Y-73082107D01*
X47246383Y-73098171D01*
X47227170Y-73112421D01*
X47206653Y-73124718D01*
X47185029Y-73134946D01*
X47162507Y-73143004D01*
X47139303Y-73148816D01*
X47115642Y-73152326D01*
X47091750Y-73153500D01*
X46604250Y-73153500D01*
X46580358Y-73152326D01*
X46556697Y-73148816D01*
X46533493Y-73143004D01*
X46510971Y-73134946D01*
X46489347Y-73124718D01*
X46468830Y-73112421D01*
X46449617Y-73098171D01*
X46431893Y-73082107D01*
X46415829Y-73064383D01*
X46401579Y-73045170D01*
X46389282Y-73024653D01*
X46379054Y-73003029D01*
X46370996Y-72980507D01*
X46365184Y-72957303D01*
X46361674Y-72933642D01*
X46360500Y-72909750D01*
X46360500Y-71997250D01*
X46361674Y-71973358D01*
X46365184Y-71949697D01*
X46370996Y-71926493D01*
X46379054Y-71903971D01*
X46389282Y-71882347D01*
X46401579Y-71861830D01*
X46415829Y-71842617D01*
X46431893Y-71824893D01*
X46449617Y-71808829D01*
X46468830Y-71794579D01*
X46489347Y-71782282D01*
X46510971Y-71772054D01*
X46533493Y-71763996D01*
X46556697Y-71758184D01*
X46580358Y-71754674D01*
X46604250Y-71753500D01*
X47091750Y-71753500D01*
X47115642Y-71754674D01*
G37*
G36*
X45240642Y-71754674D02*
G01*
X45264303Y-71758184D01*
X45287507Y-71763996D01*
X45310029Y-71772054D01*
X45331653Y-71782282D01*
X45352170Y-71794579D01*
X45371383Y-71808829D01*
X45389107Y-71824893D01*
X45405171Y-71842617D01*
X45419421Y-71861830D01*
X45431718Y-71882347D01*
X45441946Y-71903971D01*
X45450004Y-71926493D01*
X45455816Y-71949697D01*
X45459326Y-71973358D01*
X45460500Y-71997250D01*
X45460500Y-72909750D01*
X45459326Y-72933642D01*
X45455816Y-72957303D01*
X45450004Y-72980507D01*
X45441946Y-73003029D01*
X45431718Y-73024653D01*
X45419421Y-73045170D01*
X45405171Y-73064383D01*
X45389107Y-73082107D01*
X45371383Y-73098171D01*
X45352170Y-73112421D01*
X45331653Y-73124718D01*
X45310029Y-73134946D01*
X45287507Y-73143004D01*
X45264303Y-73148816D01*
X45240642Y-73152326D01*
X45216750Y-73153500D01*
X44729250Y-73153500D01*
X44705358Y-73152326D01*
X44681697Y-73148816D01*
X44658493Y-73143004D01*
X44635971Y-73134946D01*
X44614347Y-73124718D01*
X44593830Y-73112421D01*
X44574617Y-73098171D01*
X44556893Y-73082107D01*
X44540829Y-73064383D01*
X44526579Y-73045170D01*
X44514282Y-73024653D01*
X44504054Y-73003029D01*
X44495996Y-72980507D01*
X44490184Y-72957303D01*
X44486674Y-72933642D01*
X44485500Y-72909750D01*
X44485500Y-71997250D01*
X44486674Y-71973358D01*
X44490184Y-71949697D01*
X44495996Y-71926493D01*
X44504054Y-71903971D01*
X44514282Y-71882347D01*
X44526579Y-71861830D01*
X44540829Y-71842617D01*
X44556893Y-71824893D01*
X44574617Y-71808829D01*
X44593830Y-71794579D01*
X44614347Y-71782282D01*
X44635971Y-71772054D01*
X44658493Y-71763996D01*
X44681697Y-71758184D01*
X44705358Y-71754674D01*
X44729250Y-71753500D01*
X45216750Y-71753500D01*
X45240642Y-71754674D01*
G37*
G36*
X35842642Y-70802174D02*
G01*
X35866303Y-70805684D01*
X35889507Y-70811496D01*
X35912029Y-70819554D01*
X35933653Y-70829782D01*
X35954170Y-70842079D01*
X35973383Y-70856329D01*
X35991107Y-70872393D01*
X36007171Y-70890117D01*
X36021421Y-70909330D01*
X36033718Y-70929847D01*
X36043946Y-70951471D01*
X36052004Y-70973993D01*
X36057816Y-70997197D01*
X36061326Y-71020858D01*
X36062500Y-71044750D01*
X36062500Y-71957250D01*
X36061326Y-71981142D01*
X36057816Y-72004803D01*
X36052004Y-72028007D01*
X36043946Y-72050529D01*
X36033718Y-72072153D01*
X36021421Y-72092670D01*
X36007171Y-72111883D01*
X35991107Y-72129607D01*
X35973383Y-72145671D01*
X35954170Y-72159921D01*
X35933653Y-72172218D01*
X35912029Y-72182446D01*
X35889507Y-72190504D01*
X35866303Y-72196316D01*
X35842642Y-72199826D01*
X35818750Y-72201000D01*
X35331250Y-72201000D01*
X35307358Y-72199826D01*
X35283697Y-72196316D01*
X35260493Y-72190504D01*
X35237971Y-72182446D01*
X35216347Y-72172218D01*
X35195830Y-72159921D01*
X35176617Y-72145671D01*
X35158893Y-72129607D01*
X35142829Y-72111883D01*
X35128579Y-72092670D01*
X35116282Y-72072153D01*
X35106054Y-72050529D01*
X35097996Y-72028007D01*
X35092184Y-72004803D01*
X35088674Y-71981142D01*
X35087500Y-71957250D01*
X35087500Y-71044750D01*
X35088674Y-71020858D01*
X35092184Y-70997197D01*
X35097996Y-70973993D01*
X35106054Y-70951471D01*
X35116282Y-70929847D01*
X35128579Y-70909330D01*
X35142829Y-70890117D01*
X35158893Y-70872393D01*
X35176617Y-70856329D01*
X35195830Y-70842079D01*
X35216347Y-70829782D01*
X35237971Y-70819554D01*
X35260493Y-70811496D01*
X35283697Y-70805684D01*
X35307358Y-70802174D01*
X35331250Y-70801000D01*
X35818750Y-70801000D01*
X35842642Y-70802174D01*
G37*
G36*
X37717642Y-70802174D02*
G01*
X37741303Y-70805684D01*
X37764507Y-70811496D01*
X37787029Y-70819554D01*
X37808653Y-70829782D01*
X37829170Y-70842079D01*
X37848383Y-70856329D01*
X37866107Y-70872393D01*
X37882171Y-70890117D01*
X37896421Y-70909330D01*
X37908718Y-70929847D01*
X37918946Y-70951471D01*
X37927004Y-70973993D01*
X37932816Y-70997197D01*
X37936326Y-71020858D01*
X37937500Y-71044750D01*
X37937500Y-71957250D01*
X37936326Y-71981142D01*
X37932816Y-72004803D01*
X37927004Y-72028007D01*
X37918946Y-72050529D01*
X37908718Y-72072153D01*
X37896421Y-72092670D01*
X37882171Y-72111883D01*
X37866107Y-72129607D01*
X37848383Y-72145671D01*
X37829170Y-72159921D01*
X37808653Y-72172218D01*
X37787029Y-72182446D01*
X37764507Y-72190504D01*
X37741303Y-72196316D01*
X37717642Y-72199826D01*
X37693750Y-72201000D01*
X37206250Y-72201000D01*
X37182358Y-72199826D01*
X37158697Y-72196316D01*
X37135493Y-72190504D01*
X37112971Y-72182446D01*
X37091347Y-72172218D01*
X37070830Y-72159921D01*
X37051617Y-72145671D01*
X37033893Y-72129607D01*
X37017829Y-72111883D01*
X37003579Y-72092670D01*
X36991282Y-72072153D01*
X36981054Y-72050529D01*
X36972996Y-72028007D01*
X36967184Y-72004803D01*
X36963674Y-71981142D01*
X36962500Y-71957250D01*
X36962500Y-71044750D01*
X36963674Y-71020858D01*
X36967184Y-70997197D01*
X36972996Y-70973993D01*
X36981054Y-70951471D01*
X36991282Y-70929847D01*
X37003579Y-70909330D01*
X37017829Y-70890117D01*
X37033893Y-70872393D01*
X37051617Y-70856329D01*
X37070830Y-70842079D01*
X37091347Y-70829782D01*
X37112971Y-70819554D01*
X37135493Y-70811496D01*
X37158697Y-70805684D01*
X37182358Y-70802174D01*
X37206250Y-70801000D01*
X37693750Y-70801000D01*
X37717642Y-70802174D01*
G37*
G36*
X57630142Y-52140174D02*
G01*
X57653803Y-52143684D01*
X57677007Y-52149496D01*
X57699529Y-52157554D01*
X57721153Y-52167782D01*
X57741670Y-52180079D01*
X57760883Y-52194329D01*
X57778607Y-52210393D01*
X57794671Y-52228117D01*
X57808921Y-52247330D01*
X57821218Y-52267847D01*
X57831446Y-52289471D01*
X57839504Y-52311993D01*
X57845316Y-52335197D01*
X57848826Y-52358858D01*
X57850000Y-52382750D01*
X57850000Y-52870250D01*
X57848826Y-52894142D01*
X57845316Y-52917803D01*
X57839504Y-52941007D01*
X57831446Y-52963529D01*
X57821218Y-52985153D01*
X57808921Y-53005670D01*
X57794671Y-53024883D01*
X57778607Y-53042607D01*
X57760883Y-53058671D01*
X57741670Y-53072921D01*
X57721153Y-53085218D01*
X57699529Y-53095446D01*
X57677007Y-53103504D01*
X57653803Y-53109316D01*
X57630142Y-53112826D01*
X57606250Y-53114000D01*
X56693750Y-53114000D01*
X56669858Y-53112826D01*
X56646197Y-53109316D01*
X56622993Y-53103504D01*
X56600471Y-53095446D01*
X56578847Y-53085218D01*
X56558330Y-53072921D01*
X56539117Y-53058671D01*
X56521393Y-53042607D01*
X56505329Y-53024883D01*
X56491079Y-53005670D01*
X56478782Y-52985153D01*
X56468554Y-52963529D01*
X56460496Y-52941007D01*
X56454684Y-52917803D01*
X56451174Y-52894142D01*
X56450000Y-52870250D01*
X56450000Y-52382750D01*
X56451174Y-52358858D01*
X56454684Y-52335197D01*
X56460496Y-52311993D01*
X56468554Y-52289471D01*
X56478782Y-52267847D01*
X56491079Y-52247330D01*
X56505329Y-52228117D01*
X56521393Y-52210393D01*
X56539117Y-52194329D01*
X56558330Y-52180079D01*
X56578847Y-52167782D01*
X56600471Y-52157554D01*
X56622993Y-52149496D01*
X56646197Y-52143684D01*
X56669858Y-52140174D01*
X56693750Y-52139000D01*
X57606250Y-52139000D01*
X57630142Y-52140174D01*
G37*
G36*
X57630142Y-50265174D02*
G01*
X57653803Y-50268684D01*
X57677007Y-50274496D01*
X57699529Y-50282554D01*
X57721153Y-50292782D01*
X57741670Y-50305079D01*
X57760883Y-50319329D01*
X57778607Y-50335393D01*
X57794671Y-50353117D01*
X57808921Y-50372330D01*
X57821218Y-50392847D01*
X57831446Y-50414471D01*
X57839504Y-50436993D01*
X57845316Y-50460197D01*
X57848826Y-50483858D01*
X57850000Y-50507750D01*
X57850000Y-50995250D01*
X57848826Y-51019142D01*
X57845316Y-51042803D01*
X57839504Y-51066007D01*
X57831446Y-51088529D01*
X57821218Y-51110153D01*
X57808921Y-51130670D01*
X57794671Y-51149883D01*
X57778607Y-51167607D01*
X57760883Y-51183671D01*
X57741670Y-51197921D01*
X57721153Y-51210218D01*
X57699529Y-51220446D01*
X57677007Y-51228504D01*
X57653803Y-51234316D01*
X57630142Y-51237826D01*
X57606250Y-51239000D01*
X56693750Y-51239000D01*
X56669858Y-51237826D01*
X56646197Y-51234316D01*
X56622993Y-51228504D01*
X56600471Y-51220446D01*
X56578847Y-51210218D01*
X56558330Y-51197921D01*
X56539117Y-51183671D01*
X56521393Y-51167607D01*
X56505329Y-51149883D01*
X56491079Y-51130670D01*
X56478782Y-51110153D01*
X56468554Y-51088529D01*
X56460496Y-51066007D01*
X56454684Y-51042803D01*
X56451174Y-51019142D01*
X56450000Y-50995250D01*
X56450000Y-50507750D01*
X56451174Y-50483858D01*
X56454684Y-50460197D01*
X56460496Y-50436993D01*
X56468554Y-50414471D01*
X56478782Y-50392847D01*
X56491079Y-50372330D01*
X56505329Y-50353117D01*
X56521393Y-50335393D01*
X56539117Y-50319329D01*
X56558330Y-50305079D01*
X56578847Y-50292782D01*
X56600471Y-50282554D01*
X56622993Y-50274496D01*
X56646197Y-50268684D01*
X56669858Y-50265174D01*
X56693750Y-50264000D01*
X57606250Y-50264000D01*
X57630142Y-50265174D01*
G37*
G36*
X27150142Y-56282674D02*
G01*
X27173803Y-56286184D01*
X27197007Y-56291996D01*
X27219529Y-56300054D01*
X27241153Y-56310282D01*
X27261670Y-56322579D01*
X27280883Y-56336829D01*
X27298607Y-56352893D01*
X27314671Y-56370617D01*
X27328921Y-56389830D01*
X27341218Y-56410347D01*
X27351446Y-56431971D01*
X27359504Y-56454493D01*
X27365316Y-56477697D01*
X27368826Y-56501358D01*
X27370000Y-56525250D01*
X27370000Y-57012750D01*
X27368826Y-57036642D01*
X27365316Y-57060303D01*
X27359504Y-57083507D01*
X27351446Y-57106029D01*
X27341218Y-57127653D01*
X27328921Y-57148170D01*
X27314671Y-57167383D01*
X27298607Y-57185107D01*
X27280883Y-57201171D01*
X27261670Y-57215421D01*
X27241153Y-57227718D01*
X27219529Y-57237946D01*
X27197007Y-57246004D01*
X27173803Y-57251816D01*
X27150142Y-57255326D01*
X27126250Y-57256500D01*
X26213750Y-57256500D01*
X26189858Y-57255326D01*
X26166197Y-57251816D01*
X26142993Y-57246004D01*
X26120471Y-57237946D01*
X26098847Y-57227718D01*
X26078330Y-57215421D01*
X26059117Y-57201171D01*
X26041393Y-57185107D01*
X26025329Y-57167383D01*
X26011079Y-57148170D01*
X25998782Y-57127653D01*
X25988554Y-57106029D01*
X25980496Y-57083507D01*
X25974684Y-57060303D01*
X25971174Y-57036642D01*
X25970000Y-57012750D01*
X25970000Y-56525250D01*
X25971174Y-56501358D01*
X25974684Y-56477697D01*
X25980496Y-56454493D01*
X25988554Y-56431971D01*
X25998782Y-56410347D01*
X26011079Y-56389830D01*
X26025329Y-56370617D01*
X26041393Y-56352893D01*
X26059117Y-56336829D01*
X26078330Y-56322579D01*
X26098847Y-56310282D01*
X26120471Y-56300054D01*
X26142993Y-56291996D01*
X26166197Y-56286184D01*
X26189858Y-56282674D01*
X26213750Y-56281500D01*
X27126250Y-56281500D01*
X27150142Y-56282674D01*
G37*
G36*
X27150142Y-58157674D02*
G01*
X27173803Y-58161184D01*
X27197007Y-58166996D01*
X27219529Y-58175054D01*
X27241153Y-58185282D01*
X27261670Y-58197579D01*
X27280883Y-58211829D01*
X27298607Y-58227893D01*
X27314671Y-58245617D01*
X27328921Y-58264830D01*
X27341218Y-58285347D01*
X27351446Y-58306971D01*
X27359504Y-58329493D01*
X27365316Y-58352697D01*
X27368826Y-58376358D01*
X27370000Y-58400250D01*
X27370000Y-58887750D01*
X27368826Y-58911642D01*
X27365316Y-58935303D01*
X27359504Y-58958507D01*
X27351446Y-58981029D01*
X27341218Y-59002653D01*
X27328921Y-59023170D01*
X27314671Y-59042383D01*
X27298607Y-59060107D01*
X27280883Y-59076171D01*
X27261670Y-59090421D01*
X27241153Y-59102718D01*
X27219529Y-59112946D01*
X27197007Y-59121004D01*
X27173803Y-59126816D01*
X27150142Y-59130326D01*
X27126250Y-59131500D01*
X26213750Y-59131500D01*
X26189858Y-59130326D01*
X26166197Y-59126816D01*
X26142993Y-59121004D01*
X26120471Y-59112946D01*
X26098847Y-59102718D01*
X26078330Y-59090421D01*
X26059117Y-59076171D01*
X26041393Y-59060107D01*
X26025329Y-59042383D01*
X26011079Y-59023170D01*
X25998782Y-59002653D01*
X25988554Y-58981029D01*
X25980496Y-58958507D01*
X25974684Y-58935303D01*
X25971174Y-58911642D01*
X25970000Y-58887750D01*
X25970000Y-58400250D01*
X25971174Y-58376358D01*
X25974684Y-58352697D01*
X25980496Y-58329493D01*
X25988554Y-58306971D01*
X25998782Y-58285347D01*
X26011079Y-58264830D01*
X26025329Y-58245617D01*
X26041393Y-58227893D01*
X26059117Y-58211829D01*
X26078330Y-58197579D01*
X26098847Y-58185282D01*
X26120471Y-58175054D01*
X26142993Y-58166996D01*
X26166197Y-58161184D01*
X26189858Y-58157674D01*
X26213750Y-58156500D01*
X27126250Y-58156500D01*
X27150142Y-58157674D01*
G37*
G36*
X31177142Y-50482174D02*
G01*
X31200803Y-50485684D01*
X31224007Y-50491496D01*
X31246529Y-50499554D01*
X31268153Y-50509782D01*
X31288670Y-50522079D01*
X31307883Y-50536329D01*
X31325607Y-50552393D01*
X31341671Y-50570117D01*
X31355921Y-50589330D01*
X31368218Y-50609847D01*
X31378446Y-50631471D01*
X31386504Y-50653993D01*
X31392316Y-50677197D01*
X31395826Y-50700858D01*
X31397000Y-50724750D01*
X31397000Y-51637250D01*
X31395826Y-51661142D01*
X31392316Y-51684803D01*
X31386504Y-51708007D01*
X31378446Y-51730529D01*
X31368218Y-51752153D01*
X31355921Y-51772670D01*
X31341671Y-51791883D01*
X31325607Y-51809607D01*
X31307883Y-51825671D01*
X31288670Y-51839921D01*
X31268153Y-51852218D01*
X31246529Y-51862446D01*
X31224007Y-51870504D01*
X31200803Y-51876316D01*
X31177142Y-51879826D01*
X31153250Y-51881000D01*
X30665750Y-51881000D01*
X30641858Y-51879826D01*
X30618197Y-51876316D01*
X30594993Y-51870504D01*
X30572471Y-51862446D01*
X30550847Y-51852218D01*
X30530330Y-51839921D01*
X30511117Y-51825671D01*
X30493393Y-51809607D01*
X30477329Y-51791883D01*
X30463079Y-51772670D01*
X30450782Y-51752153D01*
X30440554Y-51730529D01*
X30432496Y-51708007D01*
X30426684Y-51684803D01*
X30423174Y-51661142D01*
X30422000Y-51637250D01*
X30422000Y-50724750D01*
X30423174Y-50700858D01*
X30426684Y-50677197D01*
X30432496Y-50653993D01*
X30440554Y-50631471D01*
X30450782Y-50609847D01*
X30463079Y-50589330D01*
X30477329Y-50570117D01*
X30493393Y-50552393D01*
X30511117Y-50536329D01*
X30530330Y-50522079D01*
X30550847Y-50509782D01*
X30572471Y-50499554D01*
X30594993Y-50491496D01*
X30618197Y-50485684D01*
X30641858Y-50482174D01*
X30665750Y-50481000D01*
X31153250Y-50481000D01*
X31177142Y-50482174D01*
G37*
G36*
X29302142Y-50482174D02*
G01*
X29325803Y-50485684D01*
X29349007Y-50491496D01*
X29371529Y-50499554D01*
X29393153Y-50509782D01*
X29413670Y-50522079D01*
X29432883Y-50536329D01*
X29450607Y-50552393D01*
X29466671Y-50570117D01*
X29480921Y-50589330D01*
X29493218Y-50609847D01*
X29503446Y-50631471D01*
X29511504Y-50653993D01*
X29517316Y-50677197D01*
X29520826Y-50700858D01*
X29522000Y-50724750D01*
X29522000Y-51637250D01*
X29520826Y-51661142D01*
X29517316Y-51684803D01*
X29511504Y-51708007D01*
X29503446Y-51730529D01*
X29493218Y-51752153D01*
X29480921Y-51772670D01*
X29466671Y-51791883D01*
X29450607Y-51809607D01*
X29432883Y-51825671D01*
X29413670Y-51839921D01*
X29393153Y-51852218D01*
X29371529Y-51862446D01*
X29349007Y-51870504D01*
X29325803Y-51876316D01*
X29302142Y-51879826D01*
X29278250Y-51881000D01*
X28790750Y-51881000D01*
X28766858Y-51879826D01*
X28743197Y-51876316D01*
X28719993Y-51870504D01*
X28697471Y-51862446D01*
X28675847Y-51852218D01*
X28655330Y-51839921D01*
X28636117Y-51825671D01*
X28618393Y-51809607D01*
X28602329Y-51791883D01*
X28588079Y-51772670D01*
X28575782Y-51752153D01*
X28565554Y-51730529D01*
X28557496Y-51708007D01*
X28551684Y-51684803D01*
X28548174Y-51661142D01*
X28547000Y-51637250D01*
X28547000Y-50724750D01*
X28548174Y-50700858D01*
X28551684Y-50677197D01*
X28557496Y-50653993D01*
X28565554Y-50631471D01*
X28575782Y-50609847D01*
X28588079Y-50589330D01*
X28602329Y-50570117D01*
X28618393Y-50552393D01*
X28636117Y-50536329D01*
X28655330Y-50522079D01*
X28675847Y-50509782D01*
X28697471Y-50499554D01*
X28719993Y-50491496D01*
X28743197Y-50485684D01*
X28766858Y-50482174D01*
X28790750Y-50481000D01*
X29278250Y-50481000D01*
X29302142Y-50482174D01*
G37*
G36*
X53566142Y-40613174D02*
G01*
X53589803Y-40616684D01*
X53613007Y-40622496D01*
X53635529Y-40630554D01*
X53657153Y-40640782D01*
X53677670Y-40653079D01*
X53696883Y-40667329D01*
X53714607Y-40683393D01*
X53730671Y-40701117D01*
X53744921Y-40720330D01*
X53757218Y-40740847D01*
X53767446Y-40762471D01*
X53775504Y-40784993D01*
X53781316Y-40808197D01*
X53784826Y-40831858D01*
X53786000Y-40855750D01*
X53786000Y-41343250D01*
X53784826Y-41367142D01*
X53781316Y-41390803D01*
X53775504Y-41414007D01*
X53767446Y-41436529D01*
X53757218Y-41458153D01*
X53744921Y-41478670D01*
X53730671Y-41497883D01*
X53714607Y-41515607D01*
X53696883Y-41531671D01*
X53677670Y-41545921D01*
X53657153Y-41558218D01*
X53635529Y-41568446D01*
X53613007Y-41576504D01*
X53589803Y-41582316D01*
X53566142Y-41585826D01*
X53542250Y-41587000D01*
X52629750Y-41587000D01*
X52605858Y-41585826D01*
X52582197Y-41582316D01*
X52558993Y-41576504D01*
X52536471Y-41568446D01*
X52514847Y-41558218D01*
X52494330Y-41545921D01*
X52475117Y-41531671D01*
X52457393Y-41515607D01*
X52441329Y-41497883D01*
X52427079Y-41478670D01*
X52414782Y-41458153D01*
X52404554Y-41436529D01*
X52396496Y-41414007D01*
X52390684Y-41390803D01*
X52387174Y-41367142D01*
X52386000Y-41343250D01*
X52386000Y-40855750D01*
X52387174Y-40831858D01*
X52390684Y-40808197D01*
X52396496Y-40784993D01*
X52404554Y-40762471D01*
X52414782Y-40740847D01*
X52427079Y-40720330D01*
X52441329Y-40701117D01*
X52457393Y-40683393D01*
X52475117Y-40667329D01*
X52494330Y-40653079D01*
X52514847Y-40640782D01*
X52536471Y-40630554D01*
X52558993Y-40622496D01*
X52582197Y-40616684D01*
X52605858Y-40613174D01*
X52629750Y-40612000D01*
X53542250Y-40612000D01*
X53566142Y-40613174D01*
G37*
G36*
X53566142Y-42488174D02*
G01*
X53589803Y-42491684D01*
X53613007Y-42497496D01*
X53635529Y-42505554D01*
X53657153Y-42515782D01*
X53677670Y-42528079D01*
X53696883Y-42542329D01*
X53714607Y-42558393D01*
X53730671Y-42576117D01*
X53744921Y-42595330D01*
X53757218Y-42615847D01*
X53767446Y-42637471D01*
X53775504Y-42659993D01*
X53781316Y-42683197D01*
X53784826Y-42706858D01*
X53786000Y-42730750D01*
X53786000Y-43218250D01*
X53784826Y-43242142D01*
X53781316Y-43265803D01*
X53775504Y-43289007D01*
X53767446Y-43311529D01*
X53757218Y-43333153D01*
X53744921Y-43353670D01*
X53730671Y-43372883D01*
X53714607Y-43390607D01*
X53696883Y-43406671D01*
X53677670Y-43420921D01*
X53657153Y-43433218D01*
X53635529Y-43443446D01*
X53613007Y-43451504D01*
X53589803Y-43457316D01*
X53566142Y-43460826D01*
X53542250Y-43462000D01*
X52629750Y-43462000D01*
X52605858Y-43460826D01*
X52582197Y-43457316D01*
X52558993Y-43451504D01*
X52536471Y-43443446D01*
X52514847Y-43433218D01*
X52494330Y-43420921D01*
X52475117Y-43406671D01*
X52457393Y-43390607D01*
X52441329Y-43372883D01*
X52427079Y-43353670D01*
X52414782Y-43333153D01*
X52404554Y-43311529D01*
X52396496Y-43289007D01*
X52390684Y-43265803D01*
X52387174Y-43242142D01*
X52386000Y-43218250D01*
X52386000Y-42730750D01*
X52387174Y-42706858D01*
X52390684Y-42683197D01*
X52396496Y-42659993D01*
X52404554Y-42637471D01*
X52414782Y-42615847D01*
X52427079Y-42595330D01*
X52441329Y-42576117D01*
X52457393Y-42558393D01*
X52475117Y-42542329D01*
X52494330Y-42528079D01*
X52514847Y-42515782D01*
X52536471Y-42505554D01*
X52558993Y-42497496D01*
X52582197Y-42491684D01*
X52605858Y-42488174D01*
X52629750Y-42487000D01*
X53542250Y-42487000D01*
X53566142Y-42488174D01*
G37*
G36*
X50518142Y-42488174D02*
G01*
X50541803Y-42491684D01*
X50565007Y-42497496D01*
X50587529Y-42505554D01*
X50609153Y-42515782D01*
X50629670Y-42528079D01*
X50648883Y-42542329D01*
X50666607Y-42558393D01*
X50682671Y-42576117D01*
X50696921Y-42595330D01*
X50709218Y-42615847D01*
X50719446Y-42637471D01*
X50727504Y-42659993D01*
X50733316Y-42683197D01*
X50736826Y-42706858D01*
X50738000Y-42730750D01*
X50738000Y-43218250D01*
X50736826Y-43242142D01*
X50733316Y-43265803D01*
X50727504Y-43289007D01*
X50719446Y-43311529D01*
X50709218Y-43333153D01*
X50696921Y-43353670D01*
X50682671Y-43372883D01*
X50666607Y-43390607D01*
X50648883Y-43406671D01*
X50629670Y-43420921D01*
X50609153Y-43433218D01*
X50587529Y-43443446D01*
X50565007Y-43451504D01*
X50541803Y-43457316D01*
X50518142Y-43460826D01*
X50494250Y-43462000D01*
X49581750Y-43462000D01*
X49557858Y-43460826D01*
X49534197Y-43457316D01*
X49510993Y-43451504D01*
X49488471Y-43443446D01*
X49466847Y-43433218D01*
X49446330Y-43420921D01*
X49427117Y-43406671D01*
X49409393Y-43390607D01*
X49393329Y-43372883D01*
X49379079Y-43353670D01*
X49366782Y-43333153D01*
X49356554Y-43311529D01*
X49348496Y-43289007D01*
X49342684Y-43265803D01*
X49339174Y-43242142D01*
X49338000Y-43218250D01*
X49338000Y-42730750D01*
X49339174Y-42706858D01*
X49342684Y-42683197D01*
X49348496Y-42659993D01*
X49356554Y-42637471D01*
X49366782Y-42615847D01*
X49379079Y-42595330D01*
X49393329Y-42576117D01*
X49409393Y-42558393D01*
X49427117Y-42542329D01*
X49446330Y-42528079D01*
X49466847Y-42515782D01*
X49488471Y-42505554D01*
X49510993Y-42497496D01*
X49534197Y-42491684D01*
X49557858Y-42488174D01*
X49581750Y-42487000D01*
X50494250Y-42487000D01*
X50518142Y-42488174D01*
G37*
G36*
X50518142Y-40613174D02*
G01*
X50541803Y-40616684D01*
X50565007Y-40622496D01*
X50587529Y-40630554D01*
X50609153Y-40640782D01*
X50629670Y-40653079D01*
X50648883Y-40667329D01*
X50666607Y-40683393D01*
X50682671Y-40701117D01*
X50696921Y-40720330D01*
X50709218Y-40740847D01*
X50719446Y-40762471D01*
X50727504Y-40784993D01*
X50733316Y-40808197D01*
X50736826Y-40831858D01*
X50738000Y-40855750D01*
X50738000Y-41343250D01*
X50736826Y-41367142D01*
X50733316Y-41390803D01*
X50727504Y-41414007D01*
X50719446Y-41436529D01*
X50709218Y-41458153D01*
X50696921Y-41478670D01*
X50682671Y-41497883D01*
X50666607Y-41515607D01*
X50648883Y-41531671D01*
X50629670Y-41545921D01*
X50609153Y-41558218D01*
X50587529Y-41568446D01*
X50565007Y-41576504D01*
X50541803Y-41582316D01*
X50518142Y-41585826D01*
X50494250Y-41587000D01*
X49581750Y-41587000D01*
X49557858Y-41585826D01*
X49534197Y-41582316D01*
X49510993Y-41576504D01*
X49488471Y-41568446D01*
X49466847Y-41558218D01*
X49446330Y-41545921D01*
X49427117Y-41531671D01*
X49409393Y-41515607D01*
X49393329Y-41497883D01*
X49379079Y-41478670D01*
X49366782Y-41458153D01*
X49356554Y-41436529D01*
X49348496Y-41414007D01*
X49342684Y-41390803D01*
X49339174Y-41367142D01*
X49338000Y-41343250D01*
X49338000Y-40855750D01*
X49339174Y-40831858D01*
X49342684Y-40808197D01*
X49348496Y-40784993D01*
X49356554Y-40762471D01*
X49366782Y-40740847D01*
X49379079Y-40720330D01*
X49393329Y-40701117D01*
X49409393Y-40683393D01*
X49427117Y-40667329D01*
X49446330Y-40653079D01*
X49466847Y-40640782D01*
X49488471Y-40630554D01*
X49510993Y-40622496D01*
X49534197Y-40616684D01*
X49557858Y-40613174D01*
X49581750Y-40612000D01*
X50494250Y-40612000D01*
X50518142Y-40613174D01*
G37*
G36*
X47470142Y-40613174D02*
G01*
X47493803Y-40616684D01*
X47517007Y-40622496D01*
X47539529Y-40630554D01*
X47561153Y-40640782D01*
X47581670Y-40653079D01*
X47600883Y-40667329D01*
X47618607Y-40683393D01*
X47634671Y-40701117D01*
X47648921Y-40720330D01*
X47661218Y-40740847D01*
X47671446Y-40762471D01*
X47679504Y-40784993D01*
X47685316Y-40808197D01*
X47688826Y-40831858D01*
X47690000Y-40855750D01*
X47690000Y-41343250D01*
X47688826Y-41367142D01*
X47685316Y-41390803D01*
X47679504Y-41414007D01*
X47671446Y-41436529D01*
X47661218Y-41458153D01*
X47648921Y-41478670D01*
X47634671Y-41497883D01*
X47618607Y-41515607D01*
X47600883Y-41531671D01*
X47581670Y-41545921D01*
X47561153Y-41558218D01*
X47539529Y-41568446D01*
X47517007Y-41576504D01*
X47493803Y-41582316D01*
X47470142Y-41585826D01*
X47446250Y-41587000D01*
X46533750Y-41587000D01*
X46509858Y-41585826D01*
X46486197Y-41582316D01*
X46462993Y-41576504D01*
X46440471Y-41568446D01*
X46418847Y-41558218D01*
X46398330Y-41545921D01*
X46379117Y-41531671D01*
X46361393Y-41515607D01*
X46345329Y-41497883D01*
X46331079Y-41478670D01*
X46318782Y-41458153D01*
X46308554Y-41436529D01*
X46300496Y-41414007D01*
X46294684Y-41390803D01*
X46291174Y-41367142D01*
X46290000Y-41343250D01*
X46290000Y-40855750D01*
X46291174Y-40831858D01*
X46294684Y-40808197D01*
X46300496Y-40784993D01*
X46308554Y-40762471D01*
X46318782Y-40740847D01*
X46331079Y-40720330D01*
X46345329Y-40701117D01*
X46361393Y-40683393D01*
X46379117Y-40667329D01*
X46398330Y-40653079D01*
X46418847Y-40640782D01*
X46440471Y-40630554D01*
X46462993Y-40622496D01*
X46486197Y-40616684D01*
X46509858Y-40613174D01*
X46533750Y-40612000D01*
X47446250Y-40612000D01*
X47470142Y-40613174D01*
G37*
G36*
X47470142Y-42488174D02*
G01*
X47493803Y-42491684D01*
X47517007Y-42497496D01*
X47539529Y-42505554D01*
X47561153Y-42515782D01*
X47581670Y-42528079D01*
X47600883Y-42542329D01*
X47618607Y-42558393D01*
X47634671Y-42576117D01*
X47648921Y-42595330D01*
X47661218Y-42615847D01*
X47671446Y-42637471D01*
X47679504Y-42659993D01*
X47685316Y-42683197D01*
X47688826Y-42706858D01*
X47690000Y-42730750D01*
X47690000Y-43218250D01*
X47688826Y-43242142D01*
X47685316Y-43265803D01*
X47679504Y-43289007D01*
X47671446Y-43311529D01*
X47661218Y-43333153D01*
X47648921Y-43353670D01*
X47634671Y-43372883D01*
X47618607Y-43390607D01*
X47600883Y-43406671D01*
X47581670Y-43420921D01*
X47561153Y-43433218D01*
X47539529Y-43443446D01*
X47517007Y-43451504D01*
X47493803Y-43457316D01*
X47470142Y-43460826D01*
X47446250Y-43462000D01*
X46533750Y-43462000D01*
X46509858Y-43460826D01*
X46486197Y-43457316D01*
X46462993Y-43451504D01*
X46440471Y-43443446D01*
X46418847Y-43433218D01*
X46398330Y-43420921D01*
X46379117Y-43406671D01*
X46361393Y-43390607D01*
X46345329Y-43372883D01*
X46331079Y-43353670D01*
X46318782Y-43333153D01*
X46308554Y-43311529D01*
X46300496Y-43289007D01*
X46294684Y-43265803D01*
X46291174Y-43242142D01*
X46290000Y-43218250D01*
X46290000Y-42730750D01*
X46291174Y-42706858D01*
X46294684Y-42683197D01*
X46300496Y-42659993D01*
X46308554Y-42637471D01*
X46318782Y-42615847D01*
X46331079Y-42595330D01*
X46345329Y-42576117D01*
X46361393Y-42558393D01*
X46379117Y-42542329D01*
X46398330Y-42528079D01*
X46418847Y-42515782D01*
X46440471Y-42505554D01*
X46462993Y-42497496D01*
X46486197Y-42491684D01*
X46509858Y-42488174D01*
X46533750Y-42487000D01*
X47446250Y-42487000D01*
X47470142Y-42488174D01*
G37*
G36*
X44168142Y-42488174D02*
G01*
X44191803Y-42491684D01*
X44215007Y-42497496D01*
X44237529Y-42505554D01*
X44259153Y-42515782D01*
X44279670Y-42528079D01*
X44298883Y-42542329D01*
X44316607Y-42558393D01*
X44332671Y-42576117D01*
X44346921Y-42595330D01*
X44359218Y-42615847D01*
X44369446Y-42637471D01*
X44377504Y-42659993D01*
X44383316Y-42683197D01*
X44386826Y-42706858D01*
X44388000Y-42730750D01*
X44388000Y-43218250D01*
X44386826Y-43242142D01*
X44383316Y-43265803D01*
X44377504Y-43289007D01*
X44369446Y-43311529D01*
X44359218Y-43333153D01*
X44346921Y-43353670D01*
X44332671Y-43372883D01*
X44316607Y-43390607D01*
X44298883Y-43406671D01*
X44279670Y-43420921D01*
X44259153Y-43433218D01*
X44237529Y-43443446D01*
X44215007Y-43451504D01*
X44191803Y-43457316D01*
X44168142Y-43460826D01*
X44144250Y-43462000D01*
X43231750Y-43462000D01*
X43207858Y-43460826D01*
X43184197Y-43457316D01*
X43160993Y-43451504D01*
X43138471Y-43443446D01*
X43116847Y-43433218D01*
X43096330Y-43420921D01*
X43077117Y-43406671D01*
X43059393Y-43390607D01*
X43043329Y-43372883D01*
X43029079Y-43353670D01*
X43016782Y-43333153D01*
X43006554Y-43311529D01*
X42998496Y-43289007D01*
X42992684Y-43265803D01*
X42989174Y-43242142D01*
X42988000Y-43218250D01*
X42988000Y-42730750D01*
X42989174Y-42706858D01*
X42992684Y-42683197D01*
X42998496Y-42659993D01*
X43006554Y-42637471D01*
X43016782Y-42615847D01*
X43029079Y-42595330D01*
X43043329Y-42576117D01*
X43059393Y-42558393D01*
X43077117Y-42542329D01*
X43096330Y-42528079D01*
X43116847Y-42515782D01*
X43138471Y-42505554D01*
X43160993Y-42497496D01*
X43184197Y-42491684D01*
X43207858Y-42488174D01*
X43231750Y-42487000D01*
X44144250Y-42487000D01*
X44168142Y-42488174D01*
G37*
G36*
X44168142Y-40613174D02*
G01*
X44191803Y-40616684D01*
X44215007Y-40622496D01*
X44237529Y-40630554D01*
X44259153Y-40640782D01*
X44279670Y-40653079D01*
X44298883Y-40667329D01*
X44316607Y-40683393D01*
X44332671Y-40701117D01*
X44346921Y-40720330D01*
X44359218Y-40740847D01*
X44369446Y-40762471D01*
X44377504Y-40784993D01*
X44383316Y-40808197D01*
X44386826Y-40831858D01*
X44388000Y-40855750D01*
X44388000Y-41343250D01*
X44386826Y-41367142D01*
X44383316Y-41390803D01*
X44377504Y-41414007D01*
X44369446Y-41436529D01*
X44359218Y-41458153D01*
X44346921Y-41478670D01*
X44332671Y-41497883D01*
X44316607Y-41515607D01*
X44298883Y-41531671D01*
X44279670Y-41545921D01*
X44259153Y-41558218D01*
X44237529Y-41568446D01*
X44215007Y-41576504D01*
X44191803Y-41582316D01*
X44168142Y-41585826D01*
X44144250Y-41587000D01*
X43231750Y-41587000D01*
X43207858Y-41585826D01*
X43184197Y-41582316D01*
X43160993Y-41576504D01*
X43138471Y-41568446D01*
X43116847Y-41558218D01*
X43096330Y-41545921D01*
X43077117Y-41531671D01*
X43059393Y-41515607D01*
X43043329Y-41497883D01*
X43029079Y-41478670D01*
X43016782Y-41458153D01*
X43006554Y-41436529D01*
X42998496Y-41414007D01*
X42992684Y-41390803D01*
X42989174Y-41367142D01*
X42988000Y-41343250D01*
X42988000Y-40855750D01*
X42989174Y-40831858D01*
X42992684Y-40808197D01*
X42998496Y-40784993D01*
X43006554Y-40762471D01*
X43016782Y-40740847D01*
X43029079Y-40720330D01*
X43043329Y-40701117D01*
X43059393Y-40683393D01*
X43077117Y-40667329D01*
X43096330Y-40653079D01*
X43116847Y-40640782D01*
X43138471Y-40630554D01*
X43160993Y-40622496D01*
X43184197Y-40616684D01*
X43207858Y-40613174D01*
X43231750Y-40612000D01*
X44144250Y-40612000D01*
X44168142Y-40613174D01*
G37*
G36*
X40612142Y-40613174D02*
G01*
X40635803Y-40616684D01*
X40659007Y-40622496D01*
X40681529Y-40630554D01*
X40703153Y-40640782D01*
X40723670Y-40653079D01*
X40742883Y-40667329D01*
X40760607Y-40683393D01*
X40776671Y-40701117D01*
X40790921Y-40720330D01*
X40803218Y-40740847D01*
X40813446Y-40762471D01*
X40821504Y-40784993D01*
X40827316Y-40808197D01*
X40830826Y-40831858D01*
X40832000Y-40855750D01*
X40832000Y-41343250D01*
X40830826Y-41367142D01*
X40827316Y-41390803D01*
X40821504Y-41414007D01*
X40813446Y-41436529D01*
X40803218Y-41458153D01*
X40790921Y-41478670D01*
X40776671Y-41497883D01*
X40760607Y-41515607D01*
X40742883Y-41531671D01*
X40723670Y-41545921D01*
X40703153Y-41558218D01*
X40681529Y-41568446D01*
X40659007Y-41576504D01*
X40635803Y-41582316D01*
X40612142Y-41585826D01*
X40588250Y-41587000D01*
X39675750Y-41587000D01*
X39651858Y-41585826D01*
X39628197Y-41582316D01*
X39604993Y-41576504D01*
X39582471Y-41568446D01*
X39560847Y-41558218D01*
X39540330Y-41545921D01*
X39521117Y-41531671D01*
X39503393Y-41515607D01*
X39487329Y-41497883D01*
X39473079Y-41478670D01*
X39460782Y-41458153D01*
X39450554Y-41436529D01*
X39442496Y-41414007D01*
X39436684Y-41390803D01*
X39433174Y-41367142D01*
X39432000Y-41343250D01*
X39432000Y-40855750D01*
X39433174Y-40831858D01*
X39436684Y-40808197D01*
X39442496Y-40784993D01*
X39450554Y-40762471D01*
X39460782Y-40740847D01*
X39473079Y-40720330D01*
X39487329Y-40701117D01*
X39503393Y-40683393D01*
X39521117Y-40667329D01*
X39540330Y-40653079D01*
X39560847Y-40640782D01*
X39582471Y-40630554D01*
X39604993Y-40622496D01*
X39628197Y-40616684D01*
X39651858Y-40613174D01*
X39675750Y-40612000D01*
X40588250Y-40612000D01*
X40612142Y-40613174D01*
G37*
G36*
X40612142Y-42488174D02*
G01*
X40635803Y-42491684D01*
X40659007Y-42497496D01*
X40681529Y-42505554D01*
X40703153Y-42515782D01*
X40723670Y-42528079D01*
X40742883Y-42542329D01*
X40760607Y-42558393D01*
X40776671Y-42576117D01*
X40790921Y-42595330D01*
X40803218Y-42615847D01*
X40813446Y-42637471D01*
X40821504Y-42659993D01*
X40827316Y-42683197D01*
X40830826Y-42706858D01*
X40832000Y-42730750D01*
X40832000Y-43218250D01*
X40830826Y-43242142D01*
X40827316Y-43265803D01*
X40821504Y-43289007D01*
X40813446Y-43311529D01*
X40803218Y-43333153D01*
X40790921Y-43353670D01*
X40776671Y-43372883D01*
X40760607Y-43390607D01*
X40742883Y-43406671D01*
X40723670Y-43420921D01*
X40703153Y-43433218D01*
X40681529Y-43443446D01*
X40659007Y-43451504D01*
X40635803Y-43457316D01*
X40612142Y-43460826D01*
X40588250Y-43462000D01*
X39675750Y-43462000D01*
X39651858Y-43460826D01*
X39628197Y-43457316D01*
X39604993Y-43451504D01*
X39582471Y-43443446D01*
X39560847Y-43433218D01*
X39540330Y-43420921D01*
X39521117Y-43406671D01*
X39503393Y-43390607D01*
X39487329Y-43372883D01*
X39473079Y-43353670D01*
X39460782Y-43333153D01*
X39450554Y-43311529D01*
X39442496Y-43289007D01*
X39436684Y-43265803D01*
X39433174Y-43242142D01*
X39432000Y-43218250D01*
X39432000Y-42730750D01*
X39433174Y-42706858D01*
X39436684Y-42683197D01*
X39442496Y-42659993D01*
X39450554Y-42637471D01*
X39460782Y-42615847D01*
X39473079Y-42595330D01*
X39487329Y-42576117D01*
X39503393Y-42558393D01*
X39521117Y-42542329D01*
X39540330Y-42528079D01*
X39560847Y-42515782D01*
X39582471Y-42505554D01*
X39604993Y-42497496D01*
X39628197Y-42491684D01*
X39651858Y-42488174D01*
X39675750Y-42487000D01*
X40588250Y-42487000D01*
X40612142Y-42488174D01*
G37*
G36*
X37310142Y-42488174D02*
G01*
X37333803Y-42491684D01*
X37357007Y-42497496D01*
X37379529Y-42505554D01*
X37401153Y-42515782D01*
X37421670Y-42528079D01*
X37440883Y-42542329D01*
X37458607Y-42558393D01*
X37474671Y-42576117D01*
X37488921Y-42595330D01*
X37501218Y-42615847D01*
X37511446Y-42637471D01*
X37519504Y-42659993D01*
X37525316Y-42683197D01*
X37528826Y-42706858D01*
X37530000Y-42730750D01*
X37530000Y-43218250D01*
X37528826Y-43242142D01*
X37525316Y-43265803D01*
X37519504Y-43289007D01*
X37511446Y-43311529D01*
X37501218Y-43333153D01*
X37488921Y-43353670D01*
X37474671Y-43372883D01*
X37458607Y-43390607D01*
X37440883Y-43406671D01*
X37421670Y-43420921D01*
X37401153Y-43433218D01*
X37379529Y-43443446D01*
X37357007Y-43451504D01*
X37333803Y-43457316D01*
X37310142Y-43460826D01*
X37286250Y-43462000D01*
X36373750Y-43462000D01*
X36349858Y-43460826D01*
X36326197Y-43457316D01*
X36302993Y-43451504D01*
X36280471Y-43443446D01*
X36258847Y-43433218D01*
X36238330Y-43420921D01*
X36219117Y-43406671D01*
X36201393Y-43390607D01*
X36185329Y-43372883D01*
X36171079Y-43353670D01*
X36158782Y-43333153D01*
X36148554Y-43311529D01*
X36140496Y-43289007D01*
X36134684Y-43265803D01*
X36131174Y-43242142D01*
X36130000Y-43218250D01*
X36130000Y-42730750D01*
X36131174Y-42706858D01*
X36134684Y-42683197D01*
X36140496Y-42659993D01*
X36148554Y-42637471D01*
X36158782Y-42615847D01*
X36171079Y-42595330D01*
X36185329Y-42576117D01*
X36201393Y-42558393D01*
X36219117Y-42542329D01*
X36238330Y-42528079D01*
X36258847Y-42515782D01*
X36280471Y-42505554D01*
X36302993Y-42497496D01*
X36326197Y-42491684D01*
X36349858Y-42488174D01*
X36373750Y-42487000D01*
X37286250Y-42487000D01*
X37310142Y-42488174D01*
G37*
G36*
X37310142Y-40613174D02*
G01*
X37333803Y-40616684D01*
X37357007Y-40622496D01*
X37379529Y-40630554D01*
X37401153Y-40640782D01*
X37421670Y-40653079D01*
X37440883Y-40667329D01*
X37458607Y-40683393D01*
X37474671Y-40701117D01*
X37488921Y-40720330D01*
X37501218Y-40740847D01*
X37511446Y-40762471D01*
X37519504Y-40784993D01*
X37525316Y-40808197D01*
X37528826Y-40831858D01*
X37530000Y-40855750D01*
X37530000Y-41343250D01*
X37528826Y-41367142D01*
X37525316Y-41390803D01*
X37519504Y-41414007D01*
X37511446Y-41436529D01*
X37501218Y-41458153D01*
X37488921Y-41478670D01*
X37474671Y-41497883D01*
X37458607Y-41515607D01*
X37440883Y-41531671D01*
X37421670Y-41545921D01*
X37401153Y-41558218D01*
X37379529Y-41568446D01*
X37357007Y-41576504D01*
X37333803Y-41582316D01*
X37310142Y-41585826D01*
X37286250Y-41587000D01*
X36373750Y-41587000D01*
X36349858Y-41585826D01*
X36326197Y-41582316D01*
X36302993Y-41576504D01*
X36280471Y-41568446D01*
X36258847Y-41558218D01*
X36238330Y-41545921D01*
X36219117Y-41531671D01*
X36201393Y-41515607D01*
X36185329Y-41497883D01*
X36171079Y-41478670D01*
X36158782Y-41458153D01*
X36148554Y-41436529D01*
X36140496Y-41414007D01*
X36134684Y-41390803D01*
X36131174Y-41367142D01*
X36130000Y-41343250D01*
X36130000Y-40855750D01*
X36131174Y-40831858D01*
X36134684Y-40808197D01*
X36140496Y-40784993D01*
X36148554Y-40762471D01*
X36158782Y-40740847D01*
X36171079Y-40720330D01*
X36185329Y-40701117D01*
X36201393Y-40683393D01*
X36219117Y-40667329D01*
X36238330Y-40653079D01*
X36258847Y-40640782D01*
X36280471Y-40630554D01*
X36302993Y-40622496D01*
X36326197Y-40616684D01*
X36349858Y-40613174D01*
X36373750Y-40612000D01*
X37286250Y-40612000D01*
X37310142Y-40613174D01*
G37*
G36*
X33246142Y-40613174D02*
G01*
X33269803Y-40616684D01*
X33293007Y-40622496D01*
X33315529Y-40630554D01*
X33337153Y-40640782D01*
X33357670Y-40653079D01*
X33376883Y-40667329D01*
X33394607Y-40683393D01*
X33410671Y-40701117D01*
X33424921Y-40720330D01*
X33437218Y-40740847D01*
X33447446Y-40762471D01*
X33455504Y-40784993D01*
X33461316Y-40808197D01*
X33464826Y-40831858D01*
X33466000Y-40855750D01*
X33466000Y-41343250D01*
X33464826Y-41367142D01*
X33461316Y-41390803D01*
X33455504Y-41414007D01*
X33447446Y-41436529D01*
X33437218Y-41458153D01*
X33424921Y-41478670D01*
X33410671Y-41497883D01*
X33394607Y-41515607D01*
X33376883Y-41531671D01*
X33357670Y-41545921D01*
X33337153Y-41558218D01*
X33315529Y-41568446D01*
X33293007Y-41576504D01*
X33269803Y-41582316D01*
X33246142Y-41585826D01*
X33222250Y-41587000D01*
X32309750Y-41587000D01*
X32285858Y-41585826D01*
X32262197Y-41582316D01*
X32238993Y-41576504D01*
X32216471Y-41568446D01*
X32194847Y-41558218D01*
X32174330Y-41545921D01*
X32155117Y-41531671D01*
X32137393Y-41515607D01*
X32121329Y-41497883D01*
X32107079Y-41478670D01*
X32094782Y-41458153D01*
X32084554Y-41436529D01*
X32076496Y-41414007D01*
X32070684Y-41390803D01*
X32067174Y-41367142D01*
X32066000Y-41343250D01*
X32066000Y-40855750D01*
X32067174Y-40831858D01*
X32070684Y-40808197D01*
X32076496Y-40784993D01*
X32084554Y-40762471D01*
X32094782Y-40740847D01*
X32107079Y-40720330D01*
X32121329Y-40701117D01*
X32137393Y-40683393D01*
X32155117Y-40667329D01*
X32174330Y-40653079D01*
X32194847Y-40640782D01*
X32216471Y-40630554D01*
X32238993Y-40622496D01*
X32262197Y-40616684D01*
X32285858Y-40613174D01*
X32309750Y-40612000D01*
X33222250Y-40612000D01*
X33246142Y-40613174D01*
G37*
G36*
X33246142Y-42488174D02*
G01*
X33269803Y-42491684D01*
X33293007Y-42497496D01*
X33315529Y-42505554D01*
X33337153Y-42515782D01*
X33357670Y-42528079D01*
X33376883Y-42542329D01*
X33394607Y-42558393D01*
X33410671Y-42576117D01*
X33424921Y-42595330D01*
X33437218Y-42615847D01*
X33447446Y-42637471D01*
X33455504Y-42659993D01*
X33461316Y-42683197D01*
X33464826Y-42706858D01*
X33466000Y-42730750D01*
X33466000Y-43218250D01*
X33464826Y-43242142D01*
X33461316Y-43265803D01*
X33455504Y-43289007D01*
X33447446Y-43311529D01*
X33437218Y-43333153D01*
X33424921Y-43353670D01*
X33410671Y-43372883D01*
X33394607Y-43390607D01*
X33376883Y-43406671D01*
X33357670Y-43420921D01*
X33337153Y-43433218D01*
X33315529Y-43443446D01*
X33293007Y-43451504D01*
X33269803Y-43457316D01*
X33246142Y-43460826D01*
X33222250Y-43462000D01*
X32309750Y-43462000D01*
X32285858Y-43460826D01*
X32262197Y-43457316D01*
X32238993Y-43451504D01*
X32216471Y-43443446D01*
X32194847Y-43433218D01*
X32174330Y-43420921D01*
X32155117Y-43406671D01*
X32137393Y-43390607D01*
X32121329Y-43372883D01*
X32107079Y-43353670D01*
X32094782Y-43333153D01*
X32084554Y-43311529D01*
X32076496Y-43289007D01*
X32070684Y-43265803D01*
X32067174Y-43242142D01*
X32066000Y-43218250D01*
X32066000Y-42730750D01*
X32067174Y-42706858D01*
X32070684Y-42683197D01*
X32076496Y-42659993D01*
X32084554Y-42637471D01*
X32094782Y-42615847D01*
X32107079Y-42595330D01*
X32121329Y-42576117D01*
X32137393Y-42558393D01*
X32155117Y-42542329D01*
X32174330Y-42528079D01*
X32194847Y-42515782D01*
X32216471Y-42505554D01*
X32238993Y-42497496D01*
X32262197Y-42491684D01*
X32285858Y-42488174D01*
X32309750Y-42487000D01*
X33222250Y-42487000D01*
X33246142Y-42488174D01*
G37*
G36*
X30960142Y-42488174D02*
G01*
X30983803Y-42491684D01*
X31007007Y-42497496D01*
X31029529Y-42505554D01*
X31051153Y-42515782D01*
X31071670Y-42528079D01*
X31090883Y-42542329D01*
X31108607Y-42558393D01*
X31124671Y-42576117D01*
X31138921Y-42595330D01*
X31151218Y-42615847D01*
X31161446Y-42637471D01*
X31169504Y-42659993D01*
X31175316Y-42683197D01*
X31178826Y-42706858D01*
X31180000Y-42730750D01*
X31180000Y-43218250D01*
X31178826Y-43242142D01*
X31175316Y-43265803D01*
X31169504Y-43289007D01*
X31161446Y-43311529D01*
X31151218Y-43333153D01*
X31138921Y-43353670D01*
X31124671Y-43372883D01*
X31108607Y-43390607D01*
X31090883Y-43406671D01*
X31071670Y-43420921D01*
X31051153Y-43433218D01*
X31029529Y-43443446D01*
X31007007Y-43451504D01*
X30983803Y-43457316D01*
X30960142Y-43460826D01*
X30936250Y-43462000D01*
X30023750Y-43462000D01*
X29999858Y-43460826D01*
X29976197Y-43457316D01*
X29952993Y-43451504D01*
X29930471Y-43443446D01*
X29908847Y-43433218D01*
X29888330Y-43420921D01*
X29869117Y-43406671D01*
X29851393Y-43390607D01*
X29835329Y-43372883D01*
X29821079Y-43353670D01*
X29808782Y-43333153D01*
X29798554Y-43311529D01*
X29790496Y-43289007D01*
X29784684Y-43265803D01*
X29781174Y-43242142D01*
X29780000Y-43218250D01*
X29780000Y-42730750D01*
X29781174Y-42706858D01*
X29784684Y-42683197D01*
X29790496Y-42659993D01*
X29798554Y-42637471D01*
X29808782Y-42615847D01*
X29821079Y-42595330D01*
X29835329Y-42576117D01*
X29851393Y-42558393D01*
X29869117Y-42542329D01*
X29888330Y-42528079D01*
X29908847Y-42515782D01*
X29930471Y-42505554D01*
X29952993Y-42497496D01*
X29976197Y-42491684D01*
X29999858Y-42488174D01*
X30023750Y-42487000D01*
X30936250Y-42487000D01*
X30960142Y-42488174D01*
G37*
G36*
X30960142Y-40613174D02*
G01*
X30983803Y-40616684D01*
X31007007Y-40622496D01*
X31029529Y-40630554D01*
X31051153Y-40640782D01*
X31071670Y-40653079D01*
X31090883Y-40667329D01*
X31108607Y-40683393D01*
X31124671Y-40701117D01*
X31138921Y-40720330D01*
X31151218Y-40740847D01*
X31161446Y-40762471D01*
X31169504Y-40784993D01*
X31175316Y-40808197D01*
X31178826Y-40831858D01*
X31180000Y-40855750D01*
X31180000Y-41343250D01*
X31178826Y-41367142D01*
X31175316Y-41390803D01*
X31169504Y-41414007D01*
X31161446Y-41436529D01*
X31151218Y-41458153D01*
X31138921Y-41478670D01*
X31124671Y-41497883D01*
X31108607Y-41515607D01*
X31090883Y-41531671D01*
X31071670Y-41545921D01*
X31051153Y-41558218D01*
X31029529Y-41568446D01*
X31007007Y-41576504D01*
X30983803Y-41582316D01*
X30960142Y-41585826D01*
X30936250Y-41587000D01*
X30023750Y-41587000D01*
X29999858Y-41585826D01*
X29976197Y-41582316D01*
X29952993Y-41576504D01*
X29930471Y-41568446D01*
X29908847Y-41558218D01*
X29888330Y-41545921D01*
X29869117Y-41531671D01*
X29851393Y-41515607D01*
X29835329Y-41497883D01*
X29821079Y-41478670D01*
X29808782Y-41458153D01*
X29798554Y-41436529D01*
X29790496Y-41414007D01*
X29784684Y-41390803D01*
X29781174Y-41367142D01*
X29780000Y-41343250D01*
X29780000Y-40855750D01*
X29781174Y-40831858D01*
X29784684Y-40808197D01*
X29790496Y-40784993D01*
X29798554Y-40762471D01*
X29808782Y-40740847D01*
X29821079Y-40720330D01*
X29835329Y-40701117D01*
X29851393Y-40683393D01*
X29869117Y-40667329D01*
X29888330Y-40653079D01*
X29908847Y-40640782D01*
X29930471Y-40630554D01*
X29952993Y-40622496D01*
X29976197Y-40616684D01*
X29999858Y-40613174D01*
X30023750Y-40612000D01*
X30936250Y-40612000D01*
X30960142Y-40613174D01*
G37*
D13*
X70701000Y-66584000D03*
X78651000Y-66584000D03*
X70701000Y-71084000D03*
X78651000Y-71084000D03*
D10*
G36*
X71055142Y-37909174D02*
G01*
X71078803Y-37912684D01*
X71102007Y-37918496D01*
X71124529Y-37926554D01*
X71146153Y-37936782D01*
X71166670Y-37949079D01*
X71185883Y-37963329D01*
X71203607Y-37979393D01*
X71219671Y-37997117D01*
X71233921Y-38016330D01*
X71246218Y-38036847D01*
X71256446Y-38058471D01*
X71264504Y-38080993D01*
X71270316Y-38104197D01*
X71273826Y-38127858D01*
X71275000Y-38151750D01*
X71275000Y-39064250D01*
X71273826Y-39088142D01*
X71270316Y-39111803D01*
X71264504Y-39135007D01*
X71256446Y-39157529D01*
X71246218Y-39179153D01*
X71233921Y-39199670D01*
X71219671Y-39218883D01*
X71203607Y-39236607D01*
X71185883Y-39252671D01*
X71166670Y-39266921D01*
X71146153Y-39279218D01*
X71124529Y-39289446D01*
X71102007Y-39297504D01*
X71078803Y-39303316D01*
X71055142Y-39306826D01*
X71031250Y-39308000D01*
X70543750Y-39308000D01*
X70519858Y-39306826D01*
X70496197Y-39303316D01*
X70472993Y-39297504D01*
X70450471Y-39289446D01*
X70428847Y-39279218D01*
X70408330Y-39266921D01*
X70389117Y-39252671D01*
X70371393Y-39236607D01*
X70355329Y-39218883D01*
X70341079Y-39199670D01*
X70328782Y-39179153D01*
X70318554Y-39157529D01*
X70310496Y-39135007D01*
X70304684Y-39111803D01*
X70301174Y-39088142D01*
X70300000Y-39064250D01*
X70300000Y-38151750D01*
X70301174Y-38127858D01*
X70304684Y-38104197D01*
X70310496Y-38080993D01*
X70318554Y-38058471D01*
X70328782Y-38036847D01*
X70341079Y-38016330D01*
X70355329Y-37997117D01*
X70371393Y-37979393D01*
X70389117Y-37963329D01*
X70408330Y-37949079D01*
X70428847Y-37936782D01*
X70450471Y-37926554D01*
X70472993Y-37918496D01*
X70496197Y-37912684D01*
X70519858Y-37909174D01*
X70543750Y-37908000D01*
X71031250Y-37908000D01*
X71055142Y-37909174D01*
G37*
G36*
X69180142Y-37909174D02*
G01*
X69203803Y-37912684D01*
X69227007Y-37918496D01*
X69249529Y-37926554D01*
X69271153Y-37936782D01*
X69291670Y-37949079D01*
X69310883Y-37963329D01*
X69328607Y-37979393D01*
X69344671Y-37997117D01*
X69358921Y-38016330D01*
X69371218Y-38036847D01*
X69381446Y-38058471D01*
X69389504Y-38080993D01*
X69395316Y-38104197D01*
X69398826Y-38127858D01*
X69400000Y-38151750D01*
X69400000Y-39064250D01*
X69398826Y-39088142D01*
X69395316Y-39111803D01*
X69389504Y-39135007D01*
X69381446Y-39157529D01*
X69371218Y-39179153D01*
X69358921Y-39199670D01*
X69344671Y-39218883D01*
X69328607Y-39236607D01*
X69310883Y-39252671D01*
X69291670Y-39266921D01*
X69271153Y-39279218D01*
X69249529Y-39289446D01*
X69227007Y-39297504D01*
X69203803Y-39303316D01*
X69180142Y-39306826D01*
X69156250Y-39308000D01*
X68668750Y-39308000D01*
X68644858Y-39306826D01*
X68621197Y-39303316D01*
X68597993Y-39297504D01*
X68575471Y-39289446D01*
X68553847Y-39279218D01*
X68533330Y-39266921D01*
X68514117Y-39252671D01*
X68496393Y-39236607D01*
X68480329Y-39218883D01*
X68466079Y-39199670D01*
X68453782Y-39179153D01*
X68443554Y-39157529D01*
X68435496Y-39135007D01*
X68429684Y-39111803D01*
X68426174Y-39088142D01*
X68425000Y-39064250D01*
X68425000Y-38151750D01*
X68426174Y-38127858D01*
X68429684Y-38104197D01*
X68435496Y-38080993D01*
X68443554Y-38058471D01*
X68453782Y-38036847D01*
X68466079Y-38016330D01*
X68480329Y-37997117D01*
X68496393Y-37979393D01*
X68514117Y-37963329D01*
X68533330Y-37949079D01*
X68553847Y-37936782D01*
X68575471Y-37926554D01*
X68597993Y-37918496D01*
X68621197Y-37912684D01*
X68644858Y-37909174D01*
X68668750Y-37908000D01*
X69156250Y-37908000D01*
X69180142Y-37909174D01*
G37*
G36*
X69180142Y-45275174D02*
G01*
X69203803Y-45278684D01*
X69227007Y-45284496D01*
X69249529Y-45292554D01*
X69271153Y-45302782D01*
X69291670Y-45315079D01*
X69310883Y-45329329D01*
X69328607Y-45345393D01*
X69344671Y-45363117D01*
X69358921Y-45382330D01*
X69371218Y-45402847D01*
X69381446Y-45424471D01*
X69389504Y-45446993D01*
X69395316Y-45470197D01*
X69398826Y-45493858D01*
X69400000Y-45517750D01*
X69400000Y-46430250D01*
X69398826Y-46454142D01*
X69395316Y-46477803D01*
X69389504Y-46501007D01*
X69381446Y-46523529D01*
X69371218Y-46545153D01*
X69358921Y-46565670D01*
X69344671Y-46584883D01*
X69328607Y-46602607D01*
X69310883Y-46618671D01*
X69291670Y-46632921D01*
X69271153Y-46645218D01*
X69249529Y-46655446D01*
X69227007Y-46663504D01*
X69203803Y-46669316D01*
X69180142Y-46672826D01*
X69156250Y-46674000D01*
X68668750Y-46674000D01*
X68644858Y-46672826D01*
X68621197Y-46669316D01*
X68597993Y-46663504D01*
X68575471Y-46655446D01*
X68553847Y-46645218D01*
X68533330Y-46632921D01*
X68514117Y-46618671D01*
X68496393Y-46602607D01*
X68480329Y-46584883D01*
X68466079Y-46565670D01*
X68453782Y-46545153D01*
X68443554Y-46523529D01*
X68435496Y-46501007D01*
X68429684Y-46477803D01*
X68426174Y-46454142D01*
X68425000Y-46430250D01*
X68425000Y-45517750D01*
X68426174Y-45493858D01*
X68429684Y-45470197D01*
X68435496Y-45446993D01*
X68443554Y-45424471D01*
X68453782Y-45402847D01*
X68466079Y-45382330D01*
X68480329Y-45363117D01*
X68496393Y-45345393D01*
X68514117Y-45329329D01*
X68533330Y-45315079D01*
X68553847Y-45302782D01*
X68575471Y-45292554D01*
X68597993Y-45284496D01*
X68621197Y-45278684D01*
X68644858Y-45275174D01*
X68668750Y-45274000D01*
X69156250Y-45274000D01*
X69180142Y-45275174D01*
G37*
G36*
X71055142Y-45275174D02*
G01*
X71078803Y-45278684D01*
X71102007Y-45284496D01*
X71124529Y-45292554D01*
X71146153Y-45302782D01*
X71166670Y-45315079D01*
X71185883Y-45329329D01*
X71203607Y-45345393D01*
X71219671Y-45363117D01*
X71233921Y-45382330D01*
X71246218Y-45402847D01*
X71256446Y-45424471D01*
X71264504Y-45446993D01*
X71270316Y-45470197D01*
X71273826Y-45493858D01*
X71275000Y-45517750D01*
X71275000Y-46430250D01*
X71273826Y-46454142D01*
X71270316Y-46477803D01*
X71264504Y-46501007D01*
X71256446Y-46523529D01*
X71246218Y-46545153D01*
X71233921Y-46565670D01*
X71219671Y-46584883D01*
X71203607Y-46602607D01*
X71185883Y-46618671D01*
X71166670Y-46632921D01*
X71146153Y-46645218D01*
X71124529Y-46655446D01*
X71102007Y-46663504D01*
X71078803Y-46669316D01*
X71055142Y-46672826D01*
X71031250Y-46674000D01*
X70543750Y-46674000D01*
X70519858Y-46672826D01*
X70496197Y-46669316D01*
X70472993Y-46663504D01*
X70450471Y-46655446D01*
X70428847Y-46645218D01*
X70408330Y-46632921D01*
X70389117Y-46618671D01*
X70371393Y-46602607D01*
X70355329Y-46584883D01*
X70341079Y-46565670D01*
X70328782Y-46545153D01*
X70318554Y-46523529D01*
X70310496Y-46501007D01*
X70304684Y-46477803D01*
X70301174Y-46454142D01*
X70300000Y-46430250D01*
X70300000Y-45517750D01*
X70301174Y-45493858D01*
X70304684Y-45470197D01*
X70310496Y-45446993D01*
X70318554Y-45424471D01*
X70328782Y-45402847D01*
X70341079Y-45382330D01*
X70355329Y-45363117D01*
X70371393Y-45345393D01*
X70389117Y-45329329D01*
X70408330Y-45315079D01*
X70428847Y-45302782D01*
X70450471Y-45292554D01*
X70472993Y-45284496D01*
X70496197Y-45278684D01*
X70519858Y-45275174D01*
X70543750Y-45274000D01*
X71031250Y-45274000D01*
X71055142Y-45275174D01*
G37*
G36*
X71055142Y-23431174D02*
G01*
X71078803Y-23434684D01*
X71102007Y-23440496D01*
X71124529Y-23448554D01*
X71146153Y-23458782D01*
X71166670Y-23471079D01*
X71185883Y-23485329D01*
X71203607Y-23501393D01*
X71219671Y-23519117D01*
X71233921Y-23538330D01*
X71246218Y-23558847D01*
X71256446Y-23580471D01*
X71264504Y-23602993D01*
X71270316Y-23626197D01*
X71273826Y-23649858D01*
X71275000Y-23673750D01*
X71275000Y-24586250D01*
X71273826Y-24610142D01*
X71270316Y-24633803D01*
X71264504Y-24657007D01*
X71256446Y-24679529D01*
X71246218Y-24701153D01*
X71233921Y-24721670D01*
X71219671Y-24740883D01*
X71203607Y-24758607D01*
X71185883Y-24774671D01*
X71166670Y-24788921D01*
X71146153Y-24801218D01*
X71124529Y-24811446D01*
X71102007Y-24819504D01*
X71078803Y-24825316D01*
X71055142Y-24828826D01*
X71031250Y-24830000D01*
X70543750Y-24830000D01*
X70519858Y-24828826D01*
X70496197Y-24825316D01*
X70472993Y-24819504D01*
X70450471Y-24811446D01*
X70428847Y-24801218D01*
X70408330Y-24788921D01*
X70389117Y-24774671D01*
X70371393Y-24758607D01*
X70355329Y-24740883D01*
X70341079Y-24721670D01*
X70328782Y-24701153D01*
X70318554Y-24679529D01*
X70310496Y-24657007D01*
X70304684Y-24633803D01*
X70301174Y-24610142D01*
X70300000Y-24586250D01*
X70300000Y-23673750D01*
X70301174Y-23649858D01*
X70304684Y-23626197D01*
X70310496Y-23602993D01*
X70318554Y-23580471D01*
X70328782Y-23558847D01*
X70341079Y-23538330D01*
X70355329Y-23519117D01*
X70371393Y-23501393D01*
X70389117Y-23485329D01*
X70408330Y-23471079D01*
X70428847Y-23458782D01*
X70450471Y-23448554D01*
X70472993Y-23440496D01*
X70496197Y-23434684D01*
X70519858Y-23431174D01*
X70543750Y-23430000D01*
X71031250Y-23430000D01*
X71055142Y-23431174D01*
G37*
G36*
X69180142Y-23431174D02*
G01*
X69203803Y-23434684D01*
X69227007Y-23440496D01*
X69249529Y-23448554D01*
X69271153Y-23458782D01*
X69291670Y-23471079D01*
X69310883Y-23485329D01*
X69328607Y-23501393D01*
X69344671Y-23519117D01*
X69358921Y-23538330D01*
X69371218Y-23558847D01*
X69381446Y-23580471D01*
X69389504Y-23602993D01*
X69395316Y-23626197D01*
X69398826Y-23649858D01*
X69400000Y-23673750D01*
X69400000Y-24586250D01*
X69398826Y-24610142D01*
X69395316Y-24633803D01*
X69389504Y-24657007D01*
X69381446Y-24679529D01*
X69371218Y-24701153D01*
X69358921Y-24721670D01*
X69344671Y-24740883D01*
X69328607Y-24758607D01*
X69310883Y-24774671D01*
X69291670Y-24788921D01*
X69271153Y-24801218D01*
X69249529Y-24811446D01*
X69227007Y-24819504D01*
X69203803Y-24825316D01*
X69180142Y-24828826D01*
X69156250Y-24830000D01*
X68668750Y-24830000D01*
X68644858Y-24828826D01*
X68621197Y-24825316D01*
X68597993Y-24819504D01*
X68575471Y-24811446D01*
X68553847Y-24801218D01*
X68533330Y-24788921D01*
X68514117Y-24774671D01*
X68496393Y-24758607D01*
X68480329Y-24740883D01*
X68466079Y-24721670D01*
X68453782Y-24701153D01*
X68443554Y-24679529D01*
X68435496Y-24657007D01*
X68429684Y-24633803D01*
X68426174Y-24610142D01*
X68425000Y-24586250D01*
X68425000Y-23673750D01*
X68426174Y-23649858D01*
X68429684Y-23626197D01*
X68435496Y-23602993D01*
X68443554Y-23580471D01*
X68453782Y-23558847D01*
X68466079Y-23538330D01*
X68480329Y-23519117D01*
X68496393Y-23501393D01*
X68514117Y-23485329D01*
X68533330Y-23471079D01*
X68553847Y-23458782D01*
X68575471Y-23448554D01*
X68597993Y-23440496D01*
X68621197Y-23434684D01*
X68644858Y-23431174D01*
X68668750Y-23430000D01*
X69156250Y-23430000D01*
X69180142Y-23431174D01*
G37*
G36*
X69180142Y-30543174D02*
G01*
X69203803Y-30546684D01*
X69227007Y-30552496D01*
X69249529Y-30560554D01*
X69271153Y-30570782D01*
X69291670Y-30583079D01*
X69310883Y-30597329D01*
X69328607Y-30613393D01*
X69344671Y-30631117D01*
X69358921Y-30650330D01*
X69371218Y-30670847D01*
X69381446Y-30692471D01*
X69389504Y-30714993D01*
X69395316Y-30738197D01*
X69398826Y-30761858D01*
X69400000Y-30785750D01*
X69400000Y-31698250D01*
X69398826Y-31722142D01*
X69395316Y-31745803D01*
X69389504Y-31769007D01*
X69381446Y-31791529D01*
X69371218Y-31813153D01*
X69358921Y-31833670D01*
X69344671Y-31852883D01*
X69328607Y-31870607D01*
X69310883Y-31886671D01*
X69291670Y-31900921D01*
X69271153Y-31913218D01*
X69249529Y-31923446D01*
X69227007Y-31931504D01*
X69203803Y-31937316D01*
X69180142Y-31940826D01*
X69156250Y-31942000D01*
X68668750Y-31942000D01*
X68644858Y-31940826D01*
X68621197Y-31937316D01*
X68597993Y-31931504D01*
X68575471Y-31923446D01*
X68553847Y-31913218D01*
X68533330Y-31900921D01*
X68514117Y-31886671D01*
X68496393Y-31870607D01*
X68480329Y-31852883D01*
X68466079Y-31833670D01*
X68453782Y-31813153D01*
X68443554Y-31791529D01*
X68435496Y-31769007D01*
X68429684Y-31745803D01*
X68426174Y-31722142D01*
X68425000Y-31698250D01*
X68425000Y-30785750D01*
X68426174Y-30761858D01*
X68429684Y-30738197D01*
X68435496Y-30714993D01*
X68443554Y-30692471D01*
X68453782Y-30670847D01*
X68466079Y-30650330D01*
X68480329Y-30631117D01*
X68496393Y-30613393D01*
X68514117Y-30597329D01*
X68533330Y-30583079D01*
X68553847Y-30570782D01*
X68575471Y-30560554D01*
X68597993Y-30552496D01*
X68621197Y-30546684D01*
X68644858Y-30543174D01*
X68668750Y-30542000D01*
X69156250Y-30542000D01*
X69180142Y-30543174D01*
G37*
G36*
X71055142Y-30543174D02*
G01*
X71078803Y-30546684D01*
X71102007Y-30552496D01*
X71124529Y-30560554D01*
X71146153Y-30570782D01*
X71166670Y-30583079D01*
X71185883Y-30597329D01*
X71203607Y-30613393D01*
X71219671Y-30631117D01*
X71233921Y-30650330D01*
X71246218Y-30670847D01*
X71256446Y-30692471D01*
X71264504Y-30714993D01*
X71270316Y-30738197D01*
X71273826Y-30761858D01*
X71275000Y-30785750D01*
X71275000Y-31698250D01*
X71273826Y-31722142D01*
X71270316Y-31745803D01*
X71264504Y-31769007D01*
X71256446Y-31791529D01*
X71246218Y-31813153D01*
X71233921Y-31833670D01*
X71219671Y-31852883D01*
X71203607Y-31870607D01*
X71185883Y-31886671D01*
X71166670Y-31900921D01*
X71146153Y-31913218D01*
X71124529Y-31923446D01*
X71102007Y-31931504D01*
X71078803Y-31937316D01*
X71055142Y-31940826D01*
X71031250Y-31942000D01*
X70543750Y-31942000D01*
X70519858Y-31940826D01*
X70496197Y-31937316D01*
X70472993Y-31931504D01*
X70450471Y-31923446D01*
X70428847Y-31913218D01*
X70408330Y-31900921D01*
X70389117Y-31886671D01*
X70371393Y-31870607D01*
X70355329Y-31852883D01*
X70341079Y-31833670D01*
X70328782Y-31813153D01*
X70318554Y-31791529D01*
X70310496Y-31769007D01*
X70304684Y-31745803D01*
X70301174Y-31722142D01*
X70300000Y-31698250D01*
X70300000Y-30785750D01*
X70301174Y-30761858D01*
X70304684Y-30738197D01*
X70310496Y-30714993D01*
X70318554Y-30692471D01*
X70328782Y-30670847D01*
X70341079Y-30650330D01*
X70355329Y-30631117D01*
X70371393Y-30613393D01*
X70389117Y-30597329D01*
X70408330Y-30583079D01*
X70428847Y-30570782D01*
X70450471Y-30560554D01*
X70472993Y-30552496D01*
X70496197Y-30546684D01*
X70519858Y-30543174D01*
X70543750Y-30542000D01*
X71031250Y-30542000D01*
X71055142Y-30543174D01*
G37*
M02*
