G04 #@! TF.GenerationSoftware,KiCad,Pcbnew,(5.1.5)-3*
G04 #@! TF.CreationDate,2020-04-28T22:27:17+02:00*
G04 #@! TF.ProjectId,czujnikParkowania,637a756a-6e69-46b5-9061-726b6f77616e,rev?*
G04 #@! TF.SameCoordinates,Original*
G04 #@! TF.FileFunction,Soldermask,Top*
G04 #@! TF.FilePolarity,Negative*
%FSLAX46Y46*%
G04 Gerber Fmt 4.6, Leading zero omitted, Abs format (unit mm)*
G04 Created by KiCad (PCBNEW (5.1.5)-3) date 2020-04-28 22:27:17*
%MOMM*%
%LPD*%
G04 APERTURE LIST*
%ADD10C,0.100000*%
G04 APERTURE END LIST*
D10*
G36*
X51697000Y-83574000D02*
G01*
X49395000Y-83574000D01*
X49395000Y-81272000D01*
X51697000Y-81272000D01*
X51697000Y-83574000D01*
G37*
G36*
X40610549Y-81294116D02*
G01*
X40721734Y-81316232D01*
X40931203Y-81402997D01*
X41119720Y-81528960D01*
X41280040Y-81689280D01*
X41406003Y-81877797D01*
X41492768Y-82087266D01*
X41537000Y-82309636D01*
X41537000Y-82536364D01*
X41492768Y-82758734D01*
X41406003Y-82968203D01*
X41280040Y-83156720D01*
X41119720Y-83317040D01*
X40931203Y-83443003D01*
X40721734Y-83529768D01*
X40610549Y-83551884D01*
X40499365Y-83574000D01*
X40272635Y-83574000D01*
X40161451Y-83551884D01*
X40050266Y-83529768D01*
X39840797Y-83443003D01*
X39652280Y-83317040D01*
X39491960Y-83156720D01*
X39365997Y-82968203D01*
X39279232Y-82758734D01*
X39235000Y-82536364D01*
X39235000Y-82309636D01*
X39279232Y-82087266D01*
X39365997Y-81877797D01*
X39491960Y-81689280D01*
X39652280Y-81528960D01*
X39840797Y-81402997D01*
X40050266Y-81316232D01*
X40161451Y-81294116D01*
X40272635Y-81272000D01*
X40499365Y-81272000D01*
X40610549Y-81294116D01*
G37*
G36*
X27640000Y-82377000D02*
G01*
X24938000Y-82377000D01*
X24938000Y-79675000D01*
X27640000Y-79675000D01*
X27640000Y-82377000D01*
G37*
G36*
X73146228Y-77627703D02*
G01*
X73301100Y-77691853D01*
X73440481Y-77784985D01*
X73559015Y-77903519D01*
X73652147Y-78042900D01*
X73716297Y-78197772D01*
X73749000Y-78362184D01*
X73749000Y-78529816D01*
X73716297Y-78694228D01*
X73652147Y-78849100D01*
X73559015Y-78988481D01*
X73440481Y-79107015D01*
X73301100Y-79200147D01*
X73146228Y-79264297D01*
X72981816Y-79297000D01*
X72814184Y-79297000D01*
X72649772Y-79264297D01*
X72494900Y-79200147D01*
X72355519Y-79107015D01*
X72236985Y-78988481D01*
X72143853Y-78849100D01*
X72079703Y-78694228D01*
X72047000Y-78529816D01*
X72047000Y-78362184D01*
X72079703Y-78197772D01*
X72143853Y-78042900D01*
X72236985Y-77903519D01*
X72355519Y-77784985D01*
X72494900Y-77691853D01*
X72649772Y-77627703D01*
X72814184Y-77595000D01*
X72981816Y-77595000D01*
X73146228Y-77627703D01*
G37*
G36*
X53536428Y-77207264D02*
G01*
X53557509Y-77213660D01*
X53576945Y-77224048D01*
X53593976Y-77238024D01*
X53607952Y-77255055D01*
X53618340Y-77274491D01*
X53624736Y-77295572D01*
X53627500Y-77323640D01*
X53627500Y-79137360D01*
X53624736Y-79165428D01*
X53618340Y-79186509D01*
X53607952Y-79205945D01*
X53593976Y-79222976D01*
X53576945Y-79236952D01*
X53557509Y-79247340D01*
X53536428Y-79253736D01*
X53508360Y-79256500D01*
X53044640Y-79256500D01*
X53016572Y-79253736D01*
X52995491Y-79247340D01*
X52976055Y-79236952D01*
X52959024Y-79222976D01*
X52945048Y-79205945D01*
X52934660Y-79186509D01*
X52928264Y-79165428D01*
X52925500Y-79137360D01*
X52925500Y-77323640D01*
X52928264Y-77295572D01*
X52934660Y-77274491D01*
X52945048Y-77255055D01*
X52959024Y-77238024D01*
X52976055Y-77224048D01*
X52995491Y-77213660D01*
X53016572Y-77207264D01*
X53044640Y-77204500D01*
X53508360Y-77204500D01*
X53536428Y-77207264D01*
G37*
G36*
X54806428Y-77207264D02*
G01*
X54827509Y-77213660D01*
X54846945Y-77224048D01*
X54863976Y-77238024D01*
X54877952Y-77255055D01*
X54888340Y-77274491D01*
X54894736Y-77295572D01*
X54897500Y-77323640D01*
X54897500Y-79137360D01*
X54894736Y-79165428D01*
X54888340Y-79186509D01*
X54877952Y-79205945D01*
X54863976Y-79222976D01*
X54846945Y-79236952D01*
X54827509Y-79247340D01*
X54806428Y-79253736D01*
X54778360Y-79256500D01*
X54314640Y-79256500D01*
X54286572Y-79253736D01*
X54265491Y-79247340D01*
X54246055Y-79236952D01*
X54229024Y-79222976D01*
X54215048Y-79205945D01*
X54204660Y-79186509D01*
X54198264Y-79165428D01*
X54195500Y-79137360D01*
X54195500Y-77323640D01*
X54198264Y-77295572D01*
X54204660Y-77274491D01*
X54215048Y-77255055D01*
X54229024Y-77238024D01*
X54246055Y-77224048D01*
X54265491Y-77213660D01*
X54286572Y-77207264D01*
X54314640Y-77204500D01*
X54778360Y-77204500D01*
X54806428Y-77207264D01*
G37*
G36*
X52266428Y-77207264D02*
G01*
X52287509Y-77213660D01*
X52306945Y-77224048D01*
X52323976Y-77238024D01*
X52337952Y-77255055D01*
X52348340Y-77274491D01*
X52354736Y-77295572D01*
X52357500Y-77323640D01*
X52357500Y-79137360D01*
X52354736Y-79165428D01*
X52348340Y-79186509D01*
X52337952Y-79205945D01*
X52323976Y-79222976D01*
X52306945Y-79236952D01*
X52287509Y-79247340D01*
X52266428Y-79253736D01*
X52238360Y-79256500D01*
X51774640Y-79256500D01*
X51746572Y-79253736D01*
X51725491Y-79247340D01*
X51706055Y-79236952D01*
X51689024Y-79222976D01*
X51675048Y-79205945D01*
X51664660Y-79186509D01*
X51658264Y-79165428D01*
X51655500Y-79137360D01*
X51655500Y-77323640D01*
X51658264Y-77295572D01*
X51664660Y-77274491D01*
X51675048Y-77255055D01*
X51689024Y-77238024D01*
X51706055Y-77224048D01*
X51725491Y-77213660D01*
X51746572Y-77207264D01*
X51774640Y-77204500D01*
X52238360Y-77204500D01*
X52266428Y-77207264D01*
G37*
G36*
X50996428Y-77207264D02*
G01*
X51017509Y-77213660D01*
X51036945Y-77224048D01*
X51053976Y-77238024D01*
X51067952Y-77255055D01*
X51078340Y-77274491D01*
X51084736Y-77295572D01*
X51087500Y-77323640D01*
X51087500Y-79137360D01*
X51084736Y-79165428D01*
X51078340Y-79186509D01*
X51067952Y-79205945D01*
X51053976Y-79222976D01*
X51036945Y-79236952D01*
X51017509Y-79247340D01*
X50996428Y-79253736D01*
X50968360Y-79256500D01*
X50504640Y-79256500D01*
X50476572Y-79253736D01*
X50455491Y-79247340D01*
X50436055Y-79236952D01*
X50419024Y-79222976D01*
X50405048Y-79205945D01*
X50394660Y-79186509D01*
X50388264Y-79165428D01*
X50385500Y-79137360D01*
X50385500Y-77323640D01*
X50388264Y-77295572D01*
X50394660Y-77274491D01*
X50405048Y-77255055D01*
X50419024Y-77238024D01*
X50436055Y-77224048D01*
X50455491Y-77213660D01*
X50476572Y-77207264D01*
X50504640Y-77204500D01*
X50968360Y-77204500D01*
X50996428Y-77207264D01*
G37*
G36*
X40634228Y-77540703D02*
G01*
X40789100Y-77604853D01*
X40928481Y-77697985D01*
X41047015Y-77816519D01*
X41140147Y-77955900D01*
X41204297Y-78110772D01*
X41237000Y-78275184D01*
X41237000Y-78442816D01*
X41204297Y-78607228D01*
X41140147Y-78762100D01*
X41047015Y-78901481D01*
X40928481Y-79020015D01*
X40789100Y-79113147D01*
X40634228Y-79177297D01*
X40469816Y-79210000D01*
X40302184Y-79210000D01*
X40137772Y-79177297D01*
X39982900Y-79113147D01*
X39843519Y-79020015D01*
X39724985Y-78901481D01*
X39631853Y-78762100D01*
X39567703Y-78607228D01*
X39535000Y-78442816D01*
X39535000Y-78275184D01*
X39567703Y-78110772D01*
X39631853Y-77955900D01*
X39724985Y-77816519D01*
X39843519Y-77697985D01*
X39982900Y-77604853D01*
X40137772Y-77540703D01*
X40302184Y-77508000D01*
X40469816Y-77508000D01*
X40634228Y-77540703D01*
G37*
G36*
X35554228Y-77540703D02*
G01*
X35709100Y-77604853D01*
X35848481Y-77697985D01*
X35967015Y-77816519D01*
X36060147Y-77955900D01*
X36124297Y-78110772D01*
X36157000Y-78275184D01*
X36157000Y-78442816D01*
X36124297Y-78607228D01*
X36060147Y-78762100D01*
X35967015Y-78901481D01*
X35848481Y-79020015D01*
X35709100Y-79113147D01*
X35554228Y-79177297D01*
X35389816Y-79210000D01*
X35222184Y-79210000D01*
X35057772Y-79177297D01*
X34902900Y-79113147D01*
X34763519Y-79020015D01*
X34644985Y-78901481D01*
X34551853Y-78762100D01*
X34487703Y-78607228D01*
X34455000Y-78442816D01*
X34455000Y-78275184D01*
X34487703Y-78110772D01*
X34551853Y-77955900D01*
X34644985Y-77816519D01*
X34763519Y-77697985D01*
X34902900Y-77604853D01*
X35057772Y-77540703D01*
X35222184Y-77508000D01*
X35389816Y-77508000D01*
X35554228Y-77540703D01*
G37*
G36*
X59684228Y-77000703D02*
G01*
X59839100Y-77064853D01*
X59978481Y-77157985D01*
X60097015Y-77276519D01*
X60190147Y-77415900D01*
X60254297Y-77570772D01*
X60287000Y-77735184D01*
X60287000Y-77902816D01*
X60254297Y-78067228D01*
X60190147Y-78222100D01*
X60097015Y-78361481D01*
X59978481Y-78480015D01*
X59839100Y-78573147D01*
X59684228Y-78637297D01*
X59519816Y-78670000D01*
X59352184Y-78670000D01*
X59187772Y-78637297D01*
X59032900Y-78573147D01*
X58893519Y-78480015D01*
X58774985Y-78361481D01*
X58681853Y-78222100D01*
X58617703Y-78067228D01*
X58585000Y-77902816D01*
X58585000Y-77735184D01*
X58617703Y-77570772D01*
X58681853Y-77415900D01*
X58774985Y-77276519D01*
X58893519Y-77157985D01*
X59032900Y-77064853D01*
X59187772Y-77000703D01*
X59352184Y-76968000D01*
X59519816Y-76968000D01*
X59684228Y-77000703D01*
G37*
G36*
X45542468Y-77238565D02*
G01*
X45581138Y-77250296D01*
X45616777Y-77269346D01*
X45648017Y-77294983D01*
X45673654Y-77326223D01*
X45692704Y-77361862D01*
X45704435Y-77400532D01*
X45709000Y-77446888D01*
X45709000Y-78098112D01*
X45704435Y-78144468D01*
X45692704Y-78183138D01*
X45673654Y-78218777D01*
X45648017Y-78250017D01*
X45616777Y-78275654D01*
X45581138Y-78294704D01*
X45542468Y-78306435D01*
X45496112Y-78311000D01*
X44419888Y-78311000D01*
X44373532Y-78306435D01*
X44334862Y-78294704D01*
X44299223Y-78275654D01*
X44267983Y-78250017D01*
X44242346Y-78218777D01*
X44223296Y-78183138D01*
X44211565Y-78144468D01*
X44207000Y-78098112D01*
X44207000Y-77446888D01*
X44211565Y-77400532D01*
X44223296Y-77361862D01*
X44242346Y-77326223D01*
X44267983Y-77294983D01*
X44299223Y-77269346D01*
X44334862Y-77250296D01*
X44373532Y-77238565D01*
X44419888Y-77234000D01*
X45496112Y-77234000D01*
X45542468Y-77238565D01*
G37*
G36*
X26683072Y-74646918D02*
G01*
X26928939Y-74748759D01*
X27040328Y-74823187D01*
X27150211Y-74896609D01*
X27338391Y-75084789D01*
X27407129Y-75187663D01*
X27471983Y-75284722D01*
X27486242Y-75306063D01*
X27588082Y-75551928D01*
X27640000Y-75812937D01*
X27640000Y-76079063D01*
X27588082Y-76340072D01*
X27486242Y-76585937D01*
X27345214Y-76797000D01*
X27338390Y-76807212D01*
X27150212Y-76995390D01*
X26928939Y-77143241D01*
X26928938Y-77143242D01*
X26928937Y-77143242D01*
X26683072Y-77245082D01*
X26422063Y-77297000D01*
X26155937Y-77297000D01*
X25894928Y-77245082D01*
X25649063Y-77143242D01*
X25649062Y-77143242D01*
X25649061Y-77143241D01*
X25427788Y-76995390D01*
X25239610Y-76807212D01*
X25232787Y-76797000D01*
X25091758Y-76585937D01*
X24989918Y-76340072D01*
X24938000Y-76079063D01*
X24938000Y-75812937D01*
X24989918Y-75551928D01*
X25091758Y-75306063D01*
X25106018Y-75284722D01*
X25170871Y-75187663D01*
X25239609Y-75084789D01*
X25427789Y-74896609D01*
X25537672Y-74823187D01*
X25649061Y-74748759D01*
X25894928Y-74646918D01*
X26155937Y-74595000D01*
X26422063Y-74595000D01*
X26683072Y-74646918D01*
G37*
G36*
X73749000Y-76797000D02*
G01*
X72047000Y-76797000D01*
X72047000Y-75095000D01*
X73749000Y-75095000D01*
X73749000Y-76797000D01*
G37*
G36*
X60287000Y-76670000D02*
G01*
X58585000Y-76670000D01*
X58585000Y-74968000D01*
X60287000Y-74968000D01*
X60287000Y-76670000D01*
G37*
G36*
X67603468Y-75072565D02*
G01*
X67642138Y-75084296D01*
X67677777Y-75103346D01*
X67709017Y-75128983D01*
X67734654Y-75160223D01*
X67753704Y-75195862D01*
X67765435Y-75234532D01*
X67770000Y-75280888D01*
X67770000Y-76357112D01*
X67765435Y-76403468D01*
X67753704Y-76442138D01*
X67734654Y-76477777D01*
X67709017Y-76509017D01*
X67677777Y-76534654D01*
X67642138Y-76553704D01*
X67603468Y-76565435D01*
X67557112Y-76570000D01*
X66905888Y-76570000D01*
X66859532Y-76565435D01*
X66820862Y-76553704D01*
X66785223Y-76534654D01*
X66753983Y-76509017D01*
X66728346Y-76477777D01*
X66709296Y-76442138D01*
X66697565Y-76403468D01*
X66693000Y-76357112D01*
X66693000Y-75280888D01*
X66697565Y-75234532D01*
X66709296Y-75195862D01*
X66728346Y-75160223D01*
X66753983Y-75128983D01*
X66785223Y-75103346D01*
X66820862Y-75084296D01*
X66859532Y-75072565D01*
X66905888Y-75068000D01*
X67557112Y-75068000D01*
X67603468Y-75072565D01*
G37*
G36*
X65728468Y-75072565D02*
G01*
X65767138Y-75084296D01*
X65802777Y-75103346D01*
X65834017Y-75128983D01*
X65859654Y-75160223D01*
X65878704Y-75195862D01*
X65890435Y-75234532D01*
X65895000Y-75280888D01*
X65895000Y-76357112D01*
X65890435Y-76403468D01*
X65878704Y-76442138D01*
X65859654Y-76477777D01*
X65834017Y-76509017D01*
X65802777Y-76534654D01*
X65767138Y-76553704D01*
X65728468Y-76565435D01*
X65682112Y-76570000D01*
X65030888Y-76570000D01*
X64984532Y-76565435D01*
X64945862Y-76553704D01*
X64910223Y-76534654D01*
X64878983Y-76509017D01*
X64853346Y-76477777D01*
X64834296Y-76442138D01*
X64822565Y-76403468D01*
X64818000Y-76357112D01*
X64818000Y-75280888D01*
X64822565Y-75234532D01*
X64834296Y-75195862D01*
X64853346Y-75160223D01*
X64878983Y-75128983D01*
X64910223Y-75103346D01*
X64945862Y-75084296D01*
X64984532Y-75072565D01*
X65030888Y-75068000D01*
X65682112Y-75068000D01*
X65728468Y-75072565D01*
G37*
G36*
X45542468Y-75363565D02*
G01*
X45581138Y-75375296D01*
X45616777Y-75394346D01*
X45648017Y-75419983D01*
X45673654Y-75451223D01*
X45692704Y-75486862D01*
X45704435Y-75525532D01*
X45709000Y-75571888D01*
X45709000Y-76223112D01*
X45704435Y-76269468D01*
X45692704Y-76308138D01*
X45673654Y-76343777D01*
X45648017Y-76375017D01*
X45616777Y-76400654D01*
X45581138Y-76419704D01*
X45542468Y-76431435D01*
X45496112Y-76436000D01*
X44419888Y-76436000D01*
X44373532Y-76431435D01*
X44334862Y-76419704D01*
X44299223Y-76400654D01*
X44267983Y-76375017D01*
X44242346Y-76343777D01*
X44223296Y-76308138D01*
X44211565Y-76269468D01*
X44207000Y-76223112D01*
X44207000Y-75571888D01*
X44211565Y-75525532D01*
X44223296Y-75486862D01*
X44242346Y-75451223D01*
X44267983Y-75419983D01*
X44299223Y-75394346D01*
X44334862Y-75375296D01*
X44373532Y-75363565D01*
X44419888Y-75359000D01*
X45496112Y-75359000D01*
X45542468Y-75363565D01*
G37*
G36*
X54806428Y-72257264D02*
G01*
X54827509Y-72263660D01*
X54846945Y-72274048D01*
X54863976Y-72288024D01*
X54877952Y-72305055D01*
X54888340Y-72324491D01*
X54894736Y-72345572D01*
X54897500Y-72373640D01*
X54897500Y-74187360D01*
X54894736Y-74215428D01*
X54888340Y-74236509D01*
X54877952Y-74255945D01*
X54863976Y-74272976D01*
X54846945Y-74286952D01*
X54827509Y-74297340D01*
X54806428Y-74303736D01*
X54778360Y-74306500D01*
X54314640Y-74306500D01*
X54286572Y-74303736D01*
X54265491Y-74297340D01*
X54246055Y-74286952D01*
X54229024Y-74272976D01*
X54215048Y-74255945D01*
X54204660Y-74236509D01*
X54198264Y-74215428D01*
X54195500Y-74187360D01*
X54195500Y-72373640D01*
X54198264Y-72345572D01*
X54204660Y-72324491D01*
X54215048Y-72305055D01*
X54229024Y-72288024D01*
X54246055Y-72274048D01*
X54265491Y-72263660D01*
X54286572Y-72257264D01*
X54314640Y-72254500D01*
X54778360Y-72254500D01*
X54806428Y-72257264D01*
G37*
G36*
X53536428Y-72257264D02*
G01*
X53557509Y-72263660D01*
X53576945Y-72274048D01*
X53593976Y-72288024D01*
X53607952Y-72305055D01*
X53618340Y-72324491D01*
X53624736Y-72345572D01*
X53627500Y-72373640D01*
X53627500Y-74187360D01*
X53624736Y-74215428D01*
X53618340Y-74236509D01*
X53607952Y-74255945D01*
X53593976Y-74272976D01*
X53576945Y-74286952D01*
X53557509Y-74297340D01*
X53536428Y-74303736D01*
X53508360Y-74306500D01*
X53044640Y-74306500D01*
X53016572Y-74303736D01*
X52995491Y-74297340D01*
X52976055Y-74286952D01*
X52959024Y-74272976D01*
X52945048Y-74255945D01*
X52934660Y-74236509D01*
X52928264Y-74215428D01*
X52925500Y-74187360D01*
X52925500Y-72373640D01*
X52928264Y-72345572D01*
X52934660Y-72324491D01*
X52945048Y-72305055D01*
X52959024Y-72288024D01*
X52976055Y-72274048D01*
X52995491Y-72263660D01*
X53016572Y-72257264D01*
X53044640Y-72254500D01*
X53508360Y-72254500D01*
X53536428Y-72257264D01*
G37*
G36*
X52266428Y-72257264D02*
G01*
X52287509Y-72263660D01*
X52306945Y-72274048D01*
X52323976Y-72288024D01*
X52337952Y-72305055D01*
X52348340Y-72324491D01*
X52354736Y-72345572D01*
X52357500Y-72373640D01*
X52357500Y-74187360D01*
X52354736Y-74215428D01*
X52348340Y-74236509D01*
X52337952Y-74255945D01*
X52323976Y-74272976D01*
X52306945Y-74286952D01*
X52287509Y-74297340D01*
X52266428Y-74303736D01*
X52238360Y-74306500D01*
X51774640Y-74306500D01*
X51746572Y-74303736D01*
X51725491Y-74297340D01*
X51706055Y-74286952D01*
X51689024Y-74272976D01*
X51675048Y-74255945D01*
X51664660Y-74236509D01*
X51658264Y-74215428D01*
X51655500Y-74187360D01*
X51655500Y-72373640D01*
X51658264Y-72345572D01*
X51664660Y-72324491D01*
X51675048Y-72305055D01*
X51689024Y-72288024D01*
X51706055Y-72274048D01*
X51725491Y-72263660D01*
X51746572Y-72257264D01*
X51774640Y-72254500D01*
X52238360Y-72254500D01*
X52266428Y-72257264D01*
G37*
G36*
X50996428Y-72257264D02*
G01*
X51017509Y-72263660D01*
X51036945Y-72274048D01*
X51053976Y-72288024D01*
X51067952Y-72305055D01*
X51078340Y-72324491D01*
X51084736Y-72345572D01*
X51087500Y-72373640D01*
X51087500Y-74187360D01*
X51084736Y-74215428D01*
X51078340Y-74236509D01*
X51067952Y-74255945D01*
X51053976Y-74272976D01*
X51036945Y-74286952D01*
X51017509Y-74297340D01*
X50996428Y-74303736D01*
X50968360Y-74306500D01*
X50504640Y-74306500D01*
X50476572Y-74303736D01*
X50455491Y-74297340D01*
X50436055Y-74286952D01*
X50419024Y-74272976D01*
X50405048Y-74255945D01*
X50394660Y-74236509D01*
X50388264Y-74215428D01*
X50385500Y-74187360D01*
X50385500Y-72373640D01*
X50388264Y-72345572D01*
X50394660Y-72324491D01*
X50405048Y-72305055D01*
X50419024Y-72288024D01*
X50436055Y-72274048D01*
X50455491Y-72263660D01*
X50476572Y-72257264D01*
X50504640Y-72254500D01*
X50968360Y-72254500D01*
X50996428Y-72257264D01*
G37*
G36*
X40712500Y-73854500D02*
G01*
X39710500Y-73854500D01*
X39710500Y-72952500D01*
X40712500Y-72952500D01*
X40712500Y-73854500D01*
G37*
G36*
X47219968Y-71707065D02*
G01*
X47258638Y-71718796D01*
X47294277Y-71737846D01*
X47325517Y-71763483D01*
X47351154Y-71794723D01*
X47370204Y-71830362D01*
X47381935Y-71869032D01*
X47386500Y-71915388D01*
X47386500Y-72991612D01*
X47381935Y-73037968D01*
X47370204Y-73076638D01*
X47351154Y-73112277D01*
X47325517Y-73143517D01*
X47294277Y-73169154D01*
X47258638Y-73188204D01*
X47219968Y-73199935D01*
X47173612Y-73204500D01*
X46522388Y-73204500D01*
X46476032Y-73199935D01*
X46437362Y-73188204D01*
X46401723Y-73169154D01*
X46370483Y-73143517D01*
X46344846Y-73112277D01*
X46325796Y-73076638D01*
X46314065Y-73037968D01*
X46309500Y-72991612D01*
X46309500Y-71915388D01*
X46314065Y-71869032D01*
X46325796Y-71830362D01*
X46344846Y-71794723D01*
X46370483Y-71763483D01*
X46401723Y-71737846D01*
X46437362Y-71718796D01*
X46476032Y-71707065D01*
X46522388Y-71702500D01*
X47173612Y-71702500D01*
X47219968Y-71707065D01*
G37*
G36*
X45344968Y-71707065D02*
G01*
X45383638Y-71718796D01*
X45419277Y-71737846D01*
X45450517Y-71763483D01*
X45476154Y-71794723D01*
X45495204Y-71830362D01*
X45506935Y-71869032D01*
X45511500Y-71915388D01*
X45511500Y-72991612D01*
X45506935Y-73037968D01*
X45495204Y-73076638D01*
X45476154Y-73112277D01*
X45450517Y-73143517D01*
X45419277Y-73169154D01*
X45383638Y-73188204D01*
X45344968Y-73199935D01*
X45298612Y-73204500D01*
X44647388Y-73204500D01*
X44601032Y-73199935D01*
X44562362Y-73188204D01*
X44526723Y-73169154D01*
X44495483Y-73143517D01*
X44469846Y-73112277D01*
X44450796Y-73076638D01*
X44439065Y-73037968D01*
X44434500Y-72991612D01*
X44434500Y-71915388D01*
X44439065Y-71869032D01*
X44450796Y-71830362D01*
X44469846Y-71794723D01*
X44495483Y-71763483D01*
X44526723Y-71737846D01*
X44562362Y-71718796D01*
X44601032Y-71707065D01*
X44647388Y-71702500D01*
X45298612Y-71702500D01*
X45344968Y-71707065D01*
G37*
G36*
X42712500Y-72904500D02*
G01*
X41710500Y-72904500D01*
X41710500Y-72002500D01*
X42712500Y-72002500D01*
X42712500Y-72904500D01*
G37*
G36*
X37821968Y-70754565D02*
G01*
X37860638Y-70766296D01*
X37896277Y-70785346D01*
X37927517Y-70810983D01*
X37953154Y-70842223D01*
X37972204Y-70877862D01*
X37983935Y-70916532D01*
X37988500Y-70962888D01*
X37988500Y-72039112D01*
X37983935Y-72085468D01*
X37972204Y-72124138D01*
X37953154Y-72159777D01*
X37927517Y-72191017D01*
X37896277Y-72216654D01*
X37860638Y-72235704D01*
X37821968Y-72247435D01*
X37775612Y-72252000D01*
X37124388Y-72252000D01*
X37078032Y-72247435D01*
X37039362Y-72235704D01*
X37003723Y-72216654D01*
X36972483Y-72191017D01*
X36946846Y-72159777D01*
X36927796Y-72124138D01*
X36916065Y-72085468D01*
X36911500Y-72039112D01*
X36911500Y-70962888D01*
X36916065Y-70916532D01*
X36927796Y-70877862D01*
X36946846Y-70842223D01*
X36972483Y-70810983D01*
X37003723Y-70785346D01*
X37039362Y-70766296D01*
X37078032Y-70754565D01*
X37124388Y-70750000D01*
X37775612Y-70750000D01*
X37821968Y-70754565D01*
G37*
G36*
X35946968Y-70754565D02*
G01*
X35985638Y-70766296D01*
X36021277Y-70785346D01*
X36052517Y-70810983D01*
X36078154Y-70842223D01*
X36097204Y-70877862D01*
X36108935Y-70916532D01*
X36113500Y-70962888D01*
X36113500Y-72039112D01*
X36108935Y-72085468D01*
X36097204Y-72124138D01*
X36078154Y-72159777D01*
X36052517Y-72191017D01*
X36021277Y-72216654D01*
X35985638Y-72235704D01*
X35946968Y-72247435D01*
X35900612Y-72252000D01*
X35249388Y-72252000D01*
X35203032Y-72247435D01*
X35164362Y-72235704D01*
X35128723Y-72216654D01*
X35097483Y-72191017D01*
X35071846Y-72159777D01*
X35052796Y-72124138D01*
X35041065Y-72085468D01*
X35036500Y-72039112D01*
X35036500Y-70962888D01*
X35041065Y-70916532D01*
X35052796Y-70877862D01*
X35071846Y-70842223D01*
X35097483Y-70810983D01*
X35128723Y-70785346D01*
X35164362Y-70766296D01*
X35203032Y-70754565D01*
X35249388Y-70750000D01*
X35900612Y-70750000D01*
X35946968Y-70754565D01*
G37*
G36*
X26683072Y-69566918D02*
G01*
X26907190Y-69659750D01*
X26928939Y-69668759D01*
X26994069Y-69712278D01*
X27150211Y-69816609D01*
X27338391Y-70004789D01*
X27486242Y-70226063D01*
X27588082Y-70471928D01*
X27640000Y-70732937D01*
X27640000Y-70999063D01*
X27588082Y-71260072D01*
X27486242Y-71505937D01*
X27338391Y-71727211D01*
X27150211Y-71915391D01*
X27091680Y-71954500D01*
X26928939Y-72063241D01*
X26928938Y-72063242D01*
X26928937Y-72063242D01*
X26683072Y-72165082D01*
X26422063Y-72217000D01*
X26155937Y-72217000D01*
X25894928Y-72165082D01*
X25649063Y-72063242D01*
X25649062Y-72063242D01*
X25649061Y-72063241D01*
X25486320Y-71954500D01*
X25427789Y-71915391D01*
X25239609Y-71727211D01*
X25091758Y-71505937D01*
X24989918Y-71260072D01*
X24938000Y-70999063D01*
X24938000Y-70732937D01*
X24989918Y-70471928D01*
X25091758Y-70226063D01*
X25239609Y-70004789D01*
X25427789Y-69816609D01*
X25583931Y-69712278D01*
X25649061Y-69668759D01*
X25670811Y-69659750D01*
X25894928Y-69566918D01*
X26155937Y-69515000D01*
X26422063Y-69515000D01*
X26683072Y-69566918D01*
G37*
G36*
X40712500Y-71954500D02*
G01*
X39710500Y-71954500D01*
X39710500Y-71052500D01*
X40712500Y-71052500D01*
X40712500Y-71954500D01*
G37*
G36*
X71527000Y-71785000D02*
G01*
X69875000Y-71785000D01*
X69875000Y-70383000D01*
X71527000Y-70383000D01*
X71527000Y-71785000D01*
G37*
G36*
X79477000Y-71785000D02*
G01*
X77825000Y-71785000D01*
X77825000Y-70383000D01*
X79477000Y-70383000D01*
X79477000Y-71785000D01*
G37*
G36*
X65982719Y-69194520D02*
G01*
X66171880Y-69251901D01*
X66171883Y-69251902D01*
X66264333Y-69301318D01*
X66346212Y-69345083D01*
X66499015Y-69470485D01*
X66624417Y-69623288D01*
X66717599Y-69797619D01*
X66774980Y-69986780D01*
X66789500Y-70134206D01*
X66789500Y-70327793D01*
X66774980Y-70475219D01*
X66717599Y-70664380D01*
X66717598Y-70664383D01*
X66680955Y-70732937D01*
X66624417Y-70838712D01*
X66499015Y-70991515D01*
X66346212Y-71116917D01*
X66171881Y-71210099D01*
X65982720Y-71267480D01*
X65786000Y-71286855D01*
X65589281Y-71267480D01*
X65400120Y-71210099D01*
X65225788Y-71116917D01*
X65072985Y-70991515D01*
X64947583Y-70838712D01*
X64854401Y-70664381D01*
X64797020Y-70475220D01*
X64782500Y-70327794D01*
X64782500Y-70134207D01*
X64797020Y-69986781D01*
X64854401Y-69797620D01*
X64854402Y-69797617D01*
X64903818Y-69705167D01*
X64947583Y-69623288D01*
X65072985Y-69470485D01*
X65225788Y-69345083D01*
X65400119Y-69251901D01*
X65589280Y-69194520D01*
X65786000Y-69175145D01*
X65982719Y-69194520D01*
G37*
G36*
X63442719Y-69194520D02*
G01*
X63631880Y-69251901D01*
X63631883Y-69251902D01*
X63724333Y-69301318D01*
X63806212Y-69345083D01*
X63959015Y-69470485D01*
X64084417Y-69623288D01*
X64177599Y-69797619D01*
X64234980Y-69986780D01*
X64249500Y-70134206D01*
X64249500Y-70327793D01*
X64234980Y-70475219D01*
X64177599Y-70664380D01*
X64177598Y-70664383D01*
X64140955Y-70732937D01*
X64084417Y-70838712D01*
X63959015Y-70991515D01*
X63806212Y-71116917D01*
X63631881Y-71210099D01*
X63442720Y-71267480D01*
X63246000Y-71286855D01*
X63049281Y-71267480D01*
X62860120Y-71210099D01*
X62685788Y-71116917D01*
X62532985Y-70991515D01*
X62407583Y-70838712D01*
X62314401Y-70664381D01*
X62257020Y-70475220D01*
X62242500Y-70327794D01*
X62242500Y-70134207D01*
X62257020Y-69986781D01*
X62314401Y-69797620D01*
X62314402Y-69797617D01*
X62363818Y-69705167D01*
X62407583Y-69623288D01*
X62532985Y-69470485D01*
X62685788Y-69345083D01*
X62860119Y-69251901D01*
X63049280Y-69194520D01*
X63246000Y-69175145D01*
X63442719Y-69194520D01*
G37*
G36*
X61709500Y-71282000D02*
G01*
X59702500Y-71282000D01*
X59702500Y-69180000D01*
X61709500Y-69180000D01*
X61709500Y-71282000D01*
G37*
G36*
X55194468Y-68856565D02*
G01*
X55233138Y-68868296D01*
X55268777Y-68887346D01*
X55300017Y-68912983D01*
X55325654Y-68944223D01*
X55344704Y-68979862D01*
X55356435Y-69018532D01*
X55361000Y-69064888D01*
X55361000Y-69716112D01*
X55356435Y-69762468D01*
X55344704Y-69801138D01*
X55325654Y-69836777D01*
X55300017Y-69868017D01*
X55268777Y-69893654D01*
X55233138Y-69912704D01*
X55194468Y-69924435D01*
X55148112Y-69929000D01*
X54071888Y-69929000D01*
X54025532Y-69924435D01*
X53986862Y-69912704D01*
X53951223Y-69893654D01*
X53919983Y-69868017D01*
X53894346Y-69836777D01*
X53875296Y-69801138D01*
X53863565Y-69762468D01*
X53859000Y-69716112D01*
X53859000Y-69064888D01*
X53863565Y-69018532D01*
X53875296Y-68979862D01*
X53894346Y-68944223D01*
X53919983Y-68912983D01*
X53951223Y-68887346D01*
X53986862Y-68868296D01*
X54025532Y-68856565D01*
X54071888Y-68852000D01*
X55148112Y-68852000D01*
X55194468Y-68856565D01*
G37*
G36*
X55194468Y-66981565D02*
G01*
X55233138Y-66993296D01*
X55268777Y-67012346D01*
X55300017Y-67037983D01*
X55325654Y-67069223D01*
X55344704Y-67104862D01*
X55356435Y-67143532D01*
X55361000Y-67189888D01*
X55361000Y-67841112D01*
X55356435Y-67887468D01*
X55344704Y-67926138D01*
X55325654Y-67961777D01*
X55300017Y-67993017D01*
X55268777Y-68018654D01*
X55233138Y-68037704D01*
X55194468Y-68049435D01*
X55148112Y-68054000D01*
X54071888Y-68054000D01*
X54025532Y-68049435D01*
X53986862Y-68037704D01*
X53951223Y-68018654D01*
X53919983Y-67993017D01*
X53894346Y-67961777D01*
X53875296Y-67926138D01*
X53863565Y-67887468D01*
X53859000Y-67841112D01*
X53859000Y-67189888D01*
X53863565Y-67143532D01*
X53875296Y-67104862D01*
X53894346Y-67069223D01*
X53919983Y-67037983D01*
X53951223Y-67012346D01*
X53986862Y-66993296D01*
X54025532Y-66981565D01*
X54071888Y-66977000D01*
X55148112Y-66977000D01*
X55194468Y-66981565D01*
G37*
G36*
X71527000Y-67285000D02*
G01*
X69875000Y-67285000D01*
X69875000Y-65883000D01*
X71527000Y-65883000D01*
X71527000Y-67285000D01*
G37*
G36*
X79477000Y-67285000D02*
G01*
X77825000Y-67285000D01*
X77825000Y-65883000D01*
X79477000Y-65883000D01*
X79477000Y-67285000D01*
G37*
G36*
X69164468Y-63268565D02*
G01*
X69203138Y-63280296D01*
X69238777Y-63299346D01*
X69270017Y-63324983D01*
X69295654Y-63356223D01*
X69314704Y-63391862D01*
X69326435Y-63430532D01*
X69331000Y-63476888D01*
X69331000Y-64128112D01*
X69326435Y-64174468D01*
X69314704Y-64213138D01*
X69295654Y-64248777D01*
X69270017Y-64280017D01*
X69238777Y-64305654D01*
X69203138Y-64324704D01*
X69164468Y-64336435D01*
X69118112Y-64341000D01*
X68041888Y-64341000D01*
X67995532Y-64336435D01*
X67956862Y-64324704D01*
X67921223Y-64305654D01*
X67889983Y-64280017D01*
X67864346Y-64248777D01*
X67845296Y-64213138D01*
X67833565Y-64174468D01*
X67829000Y-64128112D01*
X67829000Y-63476888D01*
X67833565Y-63430532D01*
X67845296Y-63391862D01*
X67864346Y-63356223D01*
X67889983Y-63324983D01*
X67921223Y-63299346D01*
X67956862Y-63280296D01*
X67995532Y-63268565D01*
X68041888Y-63264000D01*
X69118112Y-63264000D01*
X69164468Y-63268565D01*
G37*
G36*
X57334728Y-61729203D02*
G01*
X57489600Y-61793353D01*
X57628981Y-61886485D01*
X57747515Y-62005019D01*
X57840647Y-62144400D01*
X57904797Y-62299272D01*
X57937500Y-62463684D01*
X57937500Y-62631316D01*
X57904797Y-62795728D01*
X57840647Y-62950600D01*
X57747515Y-63089981D01*
X57628981Y-63208515D01*
X57489600Y-63301647D01*
X57334728Y-63365797D01*
X57170316Y-63398500D01*
X57002684Y-63398500D01*
X56838272Y-63365797D01*
X56683400Y-63301647D01*
X56544019Y-63208515D01*
X56425485Y-63089981D01*
X56332353Y-62950600D01*
X56268203Y-62795728D01*
X56235500Y-62631316D01*
X56235500Y-62463684D01*
X56268203Y-62299272D01*
X56332353Y-62144400D01*
X56425485Y-62005019D01*
X56544019Y-61886485D01*
X56683400Y-61793353D01*
X56838272Y-61729203D01*
X57002684Y-61696500D01*
X57170316Y-61696500D01*
X57334728Y-61729203D01*
G37*
G36*
X29394728Y-61729203D02*
G01*
X29549600Y-61793353D01*
X29688981Y-61886485D01*
X29807515Y-62005019D01*
X29900647Y-62144400D01*
X29964797Y-62299272D01*
X29997500Y-62463684D01*
X29997500Y-62631316D01*
X29964797Y-62795728D01*
X29900647Y-62950600D01*
X29807515Y-63089981D01*
X29688981Y-63208515D01*
X29549600Y-63301647D01*
X29394728Y-63365797D01*
X29230316Y-63398500D01*
X29062684Y-63398500D01*
X28898272Y-63365797D01*
X28743400Y-63301647D01*
X28604019Y-63208515D01*
X28485485Y-63089981D01*
X28392353Y-62950600D01*
X28328203Y-62795728D01*
X28295500Y-62631316D01*
X28295500Y-62463684D01*
X28328203Y-62299272D01*
X28392353Y-62144400D01*
X28485485Y-62005019D01*
X28604019Y-61886485D01*
X28743400Y-61793353D01*
X28898272Y-61729203D01*
X29062684Y-61696500D01*
X29230316Y-61696500D01*
X29394728Y-61729203D01*
G37*
G36*
X31934728Y-61729203D02*
G01*
X32089600Y-61793353D01*
X32228981Y-61886485D01*
X32347515Y-62005019D01*
X32440647Y-62144400D01*
X32504797Y-62299272D01*
X32537500Y-62463684D01*
X32537500Y-62631316D01*
X32504797Y-62795728D01*
X32440647Y-62950600D01*
X32347515Y-63089981D01*
X32228981Y-63208515D01*
X32089600Y-63301647D01*
X31934728Y-63365797D01*
X31770316Y-63398500D01*
X31602684Y-63398500D01*
X31438272Y-63365797D01*
X31283400Y-63301647D01*
X31144019Y-63208515D01*
X31025485Y-63089981D01*
X30932353Y-62950600D01*
X30868203Y-62795728D01*
X30835500Y-62631316D01*
X30835500Y-62463684D01*
X30868203Y-62299272D01*
X30932353Y-62144400D01*
X31025485Y-62005019D01*
X31144019Y-61886485D01*
X31283400Y-61793353D01*
X31438272Y-61729203D01*
X31602684Y-61696500D01*
X31770316Y-61696500D01*
X31934728Y-61729203D01*
G37*
G36*
X34474728Y-61729203D02*
G01*
X34629600Y-61793353D01*
X34768981Y-61886485D01*
X34887515Y-62005019D01*
X34980647Y-62144400D01*
X35044797Y-62299272D01*
X35077500Y-62463684D01*
X35077500Y-62631316D01*
X35044797Y-62795728D01*
X34980647Y-62950600D01*
X34887515Y-63089981D01*
X34768981Y-63208515D01*
X34629600Y-63301647D01*
X34474728Y-63365797D01*
X34310316Y-63398500D01*
X34142684Y-63398500D01*
X33978272Y-63365797D01*
X33823400Y-63301647D01*
X33684019Y-63208515D01*
X33565485Y-63089981D01*
X33472353Y-62950600D01*
X33408203Y-62795728D01*
X33375500Y-62631316D01*
X33375500Y-62463684D01*
X33408203Y-62299272D01*
X33472353Y-62144400D01*
X33565485Y-62005019D01*
X33684019Y-61886485D01*
X33823400Y-61793353D01*
X33978272Y-61729203D01*
X34142684Y-61696500D01*
X34310316Y-61696500D01*
X34474728Y-61729203D01*
G37*
G36*
X37014728Y-61729203D02*
G01*
X37169600Y-61793353D01*
X37308981Y-61886485D01*
X37427515Y-62005019D01*
X37520647Y-62144400D01*
X37584797Y-62299272D01*
X37617500Y-62463684D01*
X37617500Y-62631316D01*
X37584797Y-62795728D01*
X37520647Y-62950600D01*
X37427515Y-63089981D01*
X37308981Y-63208515D01*
X37169600Y-63301647D01*
X37014728Y-63365797D01*
X36850316Y-63398500D01*
X36682684Y-63398500D01*
X36518272Y-63365797D01*
X36363400Y-63301647D01*
X36224019Y-63208515D01*
X36105485Y-63089981D01*
X36012353Y-62950600D01*
X35948203Y-62795728D01*
X35915500Y-62631316D01*
X35915500Y-62463684D01*
X35948203Y-62299272D01*
X36012353Y-62144400D01*
X36105485Y-62005019D01*
X36224019Y-61886485D01*
X36363400Y-61793353D01*
X36518272Y-61729203D01*
X36682684Y-61696500D01*
X36850316Y-61696500D01*
X37014728Y-61729203D01*
G37*
G36*
X39554728Y-61729203D02*
G01*
X39709600Y-61793353D01*
X39848981Y-61886485D01*
X39967515Y-62005019D01*
X40060647Y-62144400D01*
X40124797Y-62299272D01*
X40157500Y-62463684D01*
X40157500Y-62631316D01*
X40124797Y-62795728D01*
X40060647Y-62950600D01*
X39967515Y-63089981D01*
X39848981Y-63208515D01*
X39709600Y-63301647D01*
X39554728Y-63365797D01*
X39390316Y-63398500D01*
X39222684Y-63398500D01*
X39058272Y-63365797D01*
X38903400Y-63301647D01*
X38764019Y-63208515D01*
X38645485Y-63089981D01*
X38552353Y-62950600D01*
X38488203Y-62795728D01*
X38455500Y-62631316D01*
X38455500Y-62463684D01*
X38488203Y-62299272D01*
X38552353Y-62144400D01*
X38645485Y-62005019D01*
X38764019Y-61886485D01*
X38903400Y-61793353D01*
X39058272Y-61729203D01*
X39222684Y-61696500D01*
X39390316Y-61696500D01*
X39554728Y-61729203D01*
G37*
G36*
X42094728Y-61729203D02*
G01*
X42249600Y-61793353D01*
X42388981Y-61886485D01*
X42507515Y-62005019D01*
X42600647Y-62144400D01*
X42664797Y-62299272D01*
X42697500Y-62463684D01*
X42697500Y-62631316D01*
X42664797Y-62795728D01*
X42600647Y-62950600D01*
X42507515Y-63089981D01*
X42388981Y-63208515D01*
X42249600Y-63301647D01*
X42094728Y-63365797D01*
X41930316Y-63398500D01*
X41762684Y-63398500D01*
X41598272Y-63365797D01*
X41443400Y-63301647D01*
X41304019Y-63208515D01*
X41185485Y-63089981D01*
X41092353Y-62950600D01*
X41028203Y-62795728D01*
X40995500Y-62631316D01*
X40995500Y-62463684D01*
X41028203Y-62299272D01*
X41092353Y-62144400D01*
X41185485Y-62005019D01*
X41304019Y-61886485D01*
X41443400Y-61793353D01*
X41598272Y-61729203D01*
X41762684Y-61696500D01*
X41930316Y-61696500D01*
X42094728Y-61729203D01*
G37*
G36*
X44634728Y-61729203D02*
G01*
X44789600Y-61793353D01*
X44928981Y-61886485D01*
X45047515Y-62005019D01*
X45140647Y-62144400D01*
X45204797Y-62299272D01*
X45237500Y-62463684D01*
X45237500Y-62631316D01*
X45204797Y-62795728D01*
X45140647Y-62950600D01*
X45047515Y-63089981D01*
X44928981Y-63208515D01*
X44789600Y-63301647D01*
X44634728Y-63365797D01*
X44470316Y-63398500D01*
X44302684Y-63398500D01*
X44138272Y-63365797D01*
X43983400Y-63301647D01*
X43844019Y-63208515D01*
X43725485Y-63089981D01*
X43632353Y-62950600D01*
X43568203Y-62795728D01*
X43535500Y-62631316D01*
X43535500Y-62463684D01*
X43568203Y-62299272D01*
X43632353Y-62144400D01*
X43725485Y-62005019D01*
X43844019Y-61886485D01*
X43983400Y-61793353D01*
X44138272Y-61729203D01*
X44302684Y-61696500D01*
X44470316Y-61696500D01*
X44634728Y-61729203D01*
G37*
G36*
X49714728Y-61729203D02*
G01*
X49869600Y-61793353D01*
X50008981Y-61886485D01*
X50127515Y-62005019D01*
X50220647Y-62144400D01*
X50284797Y-62299272D01*
X50317500Y-62463684D01*
X50317500Y-62631316D01*
X50284797Y-62795728D01*
X50220647Y-62950600D01*
X50127515Y-63089981D01*
X50008981Y-63208515D01*
X49869600Y-63301647D01*
X49714728Y-63365797D01*
X49550316Y-63398500D01*
X49382684Y-63398500D01*
X49218272Y-63365797D01*
X49063400Y-63301647D01*
X48924019Y-63208515D01*
X48805485Y-63089981D01*
X48712353Y-62950600D01*
X48648203Y-62795728D01*
X48615500Y-62631316D01*
X48615500Y-62463684D01*
X48648203Y-62299272D01*
X48712353Y-62144400D01*
X48805485Y-62005019D01*
X48924019Y-61886485D01*
X49063400Y-61793353D01*
X49218272Y-61729203D01*
X49382684Y-61696500D01*
X49550316Y-61696500D01*
X49714728Y-61729203D01*
G37*
G36*
X47174728Y-61729203D02*
G01*
X47329600Y-61793353D01*
X47468981Y-61886485D01*
X47587515Y-62005019D01*
X47680647Y-62144400D01*
X47744797Y-62299272D01*
X47777500Y-62463684D01*
X47777500Y-62631316D01*
X47744797Y-62795728D01*
X47680647Y-62950600D01*
X47587515Y-63089981D01*
X47468981Y-63208515D01*
X47329600Y-63301647D01*
X47174728Y-63365797D01*
X47010316Y-63398500D01*
X46842684Y-63398500D01*
X46678272Y-63365797D01*
X46523400Y-63301647D01*
X46384019Y-63208515D01*
X46265485Y-63089981D01*
X46172353Y-62950600D01*
X46108203Y-62795728D01*
X46075500Y-62631316D01*
X46075500Y-62463684D01*
X46108203Y-62299272D01*
X46172353Y-62144400D01*
X46265485Y-62005019D01*
X46384019Y-61886485D01*
X46523400Y-61793353D01*
X46678272Y-61729203D01*
X46842684Y-61696500D01*
X47010316Y-61696500D01*
X47174728Y-61729203D01*
G37*
G36*
X62414728Y-61729203D02*
G01*
X62569600Y-61793353D01*
X62708981Y-61886485D01*
X62827515Y-62005019D01*
X62920647Y-62144400D01*
X62984797Y-62299272D01*
X63017500Y-62463684D01*
X63017500Y-62631316D01*
X62984797Y-62795728D01*
X62920647Y-62950600D01*
X62827515Y-63089981D01*
X62708981Y-63208515D01*
X62569600Y-63301647D01*
X62414728Y-63365797D01*
X62250316Y-63398500D01*
X62082684Y-63398500D01*
X61918272Y-63365797D01*
X61763400Y-63301647D01*
X61624019Y-63208515D01*
X61505485Y-63089981D01*
X61412353Y-62950600D01*
X61348203Y-62795728D01*
X61315500Y-62631316D01*
X61315500Y-62463684D01*
X61348203Y-62299272D01*
X61412353Y-62144400D01*
X61505485Y-62005019D01*
X61624019Y-61886485D01*
X61763400Y-61793353D01*
X61918272Y-61729203D01*
X62082684Y-61696500D01*
X62250316Y-61696500D01*
X62414728Y-61729203D01*
G37*
G36*
X54794728Y-61729203D02*
G01*
X54949600Y-61793353D01*
X55088981Y-61886485D01*
X55207515Y-62005019D01*
X55300647Y-62144400D01*
X55364797Y-62299272D01*
X55397500Y-62463684D01*
X55397500Y-62631316D01*
X55364797Y-62795728D01*
X55300647Y-62950600D01*
X55207515Y-63089981D01*
X55088981Y-63208515D01*
X54949600Y-63301647D01*
X54794728Y-63365797D01*
X54630316Y-63398500D01*
X54462684Y-63398500D01*
X54298272Y-63365797D01*
X54143400Y-63301647D01*
X54004019Y-63208515D01*
X53885485Y-63089981D01*
X53792353Y-62950600D01*
X53728203Y-62795728D01*
X53695500Y-62631316D01*
X53695500Y-62463684D01*
X53728203Y-62299272D01*
X53792353Y-62144400D01*
X53885485Y-62005019D01*
X54004019Y-61886485D01*
X54143400Y-61793353D01*
X54298272Y-61729203D01*
X54462684Y-61696500D01*
X54630316Y-61696500D01*
X54794728Y-61729203D01*
G37*
G36*
X59874728Y-61729203D02*
G01*
X60029600Y-61793353D01*
X60168981Y-61886485D01*
X60287515Y-62005019D01*
X60380647Y-62144400D01*
X60444797Y-62299272D01*
X60477500Y-62463684D01*
X60477500Y-62631316D01*
X60444797Y-62795728D01*
X60380647Y-62950600D01*
X60287515Y-63089981D01*
X60168981Y-63208515D01*
X60029600Y-63301647D01*
X59874728Y-63365797D01*
X59710316Y-63398500D01*
X59542684Y-63398500D01*
X59378272Y-63365797D01*
X59223400Y-63301647D01*
X59084019Y-63208515D01*
X58965485Y-63089981D01*
X58872353Y-62950600D01*
X58808203Y-62795728D01*
X58775500Y-62631316D01*
X58775500Y-62463684D01*
X58808203Y-62299272D01*
X58872353Y-62144400D01*
X58965485Y-62005019D01*
X59084019Y-61886485D01*
X59223400Y-61793353D01*
X59378272Y-61729203D01*
X59542684Y-61696500D01*
X59710316Y-61696500D01*
X59874728Y-61729203D01*
G37*
G36*
X26854728Y-61729203D02*
G01*
X27009600Y-61793353D01*
X27148981Y-61886485D01*
X27267515Y-62005019D01*
X27360647Y-62144400D01*
X27424797Y-62299272D01*
X27457500Y-62463684D01*
X27457500Y-62631316D01*
X27424797Y-62795728D01*
X27360647Y-62950600D01*
X27267515Y-63089981D01*
X27148981Y-63208515D01*
X27009600Y-63301647D01*
X26854728Y-63365797D01*
X26690316Y-63398500D01*
X26522684Y-63398500D01*
X26358272Y-63365797D01*
X26203400Y-63301647D01*
X26064019Y-63208515D01*
X25945485Y-63089981D01*
X25852353Y-62950600D01*
X25788203Y-62795728D01*
X25755500Y-62631316D01*
X25755500Y-62463684D01*
X25788203Y-62299272D01*
X25852353Y-62144400D01*
X25945485Y-62005019D01*
X26064019Y-61886485D01*
X26203400Y-61793353D01*
X26358272Y-61729203D01*
X26522684Y-61696500D01*
X26690316Y-61696500D01*
X26854728Y-61729203D01*
G37*
G36*
X52254728Y-61729203D02*
G01*
X52409600Y-61793353D01*
X52548981Y-61886485D01*
X52667515Y-62005019D01*
X52760647Y-62144400D01*
X52824797Y-62299272D01*
X52857500Y-62463684D01*
X52857500Y-62631316D01*
X52824797Y-62795728D01*
X52760647Y-62950600D01*
X52667515Y-63089981D01*
X52548981Y-63208515D01*
X52409600Y-63301647D01*
X52254728Y-63365797D01*
X52090316Y-63398500D01*
X51922684Y-63398500D01*
X51758272Y-63365797D01*
X51603400Y-63301647D01*
X51464019Y-63208515D01*
X51345485Y-63089981D01*
X51252353Y-62950600D01*
X51188203Y-62795728D01*
X51155500Y-62631316D01*
X51155500Y-62463684D01*
X51188203Y-62299272D01*
X51252353Y-62144400D01*
X51345485Y-62005019D01*
X51464019Y-61886485D01*
X51603400Y-61793353D01*
X51758272Y-61729203D01*
X51922684Y-61696500D01*
X52090316Y-61696500D01*
X52254728Y-61729203D01*
G37*
G36*
X69164468Y-61393565D02*
G01*
X69203138Y-61405296D01*
X69238777Y-61424346D01*
X69270017Y-61449983D01*
X69295654Y-61481223D01*
X69314704Y-61516862D01*
X69326435Y-61555532D01*
X69331000Y-61601888D01*
X69331000Y-62253112D01*
X69326435Y-62299468D01*
X69314704Y-62338138D01*
X69295654Y-62373777D01*
X69270017Y-62405017D01*
X69238777Y-62430654D01*
X69203138Y-62449704D01*
X69164468Y-62461435D01*
X69118112Y-62466000D01*
X68041888Y-62466000D01*
X67995532Y-62461435D01*
X67956862Y-62449704D01*
X67921223Y-62430654D01*
X67889983Y-62405017D01*
X67864346Y-62373777D01*
X67845296Y-62338138D01*
X67833565Y-62299468D01*
X67829000Y-62253112D01*
X67829000Y-61601888D01*
X67833565Y-61555532D01*
X67845296Y-61516862D01*
X67864346Y-61481223D01*
X67889983Y-61449983D01*
X67921223Y-61424346D01*
X67956862Y-61405296D01*
X67995532Y-61393565D01*
X68041888Y-61389000D01*
X69118112Y-61389000D01*
X69164468Y-61393565D01*
G37*
G36*
X30235000Y-59186000D02*
G01*
X29233000Y-59186000D01*
X29233000Y-58284000D01*
X30235000Y-58284000D01*
X30235000Y-59186000D01*
G37*
G36*
X27254468Y-58110065D02*
G01*
X27293138Y-58121796D01*
X27328777Y-58140846D01*
X27360017Y-58166483D01*
X27385654Y-58197723D01*
X27404704Y-58233362D01*
X27416435Y-58272032D01*
X27421000Y-58318388D01*
X27421000Y-58969612D01*
X27416435Y-59015968D01*
X27404704Y-59054638D01*
X27385654Y-59090277D01*
X27360017Y-59121517D01*
X27328777Y-59147154D01*
X27293138Y-59166204D01*
X27254468Y-59177935D01*
X27208112Y-59182500D01*
X26131888Y-59182500D01*
X26085532Y-59177935D01*
X26046862Y-59166204D01*
X26011223Y-59147154D01*
X25979983Y-59121517D01*
X25954346Y-59090277D01*
X25935296Y-59054638D01*
X25923565Y-59015968D01*
X25919000Y-58969612D01*
X25919000Y-58318388D01*
X25923565Y-58272032D01*
X25935296Y-58233362D01*
X25954346Y-58197723D01*
X25979983Y-58166483D01*
X26011223Y-58140846D01*
X26046862Y-58121796D01*
X26085532Y-58110065D01*
X26131888Y-58105500D01*
X27208112Y-58105500D01*
X27254468Y-58110065D01*
G37*
G36*
X32235000Y-58236000D02*
G01*
X31233000Y-58236000D01*
X31233000Y-57334000D01*
X32235000Y-57334000D01*
X32235000Y-58236000D01*
G37*
G36*
X27254468Y-56235065D02*
G01*
X27293138Y-56246796D01*
X27328777Y-56265846D01*
X27360017Y-56291483D01*
X27385654Y-56322723D01*
X27404704Y-56358362D01*
X27416435Y-56397032D01*
X27421000Y-56443388D01*
X27421000Y-57094612D01*
X27416435Y-57140968D01*
X27404704Y-57179638D01*
X27385654Y-57215277D01*
X27360017Y-57246517D01*
X27328777Y-57272154D01*
X27293138Y-57291204D01*
X27254468Y-57302935D01*
X27208112Y-57307500D01*
X26131888Y-57307500D01*
X26085532Y-57302935D01*
X26046862Y-57291204D01*
X26011223Y-57272154D01*
X25979983Y-57246517D01*
X25954346Y-57215277D01*
X25935296Y-57179638D01*
X25923565Y-57140968D01*
X25919000Y-57094612D01*
X25919000Y-56443388D01*
X25923565Y-56397032D01*
X25935296Y-56358362D01*
X25954346Y-56322723D01*
X25979983Y-56291483D01*
X26011223Y-56265846D01*
X26046862Y-56246796D01*
X26085532Y-56235065D01*
X26131888Y-56230500D01*
X27208112Y-56230500D01*
X27254468Y-56235065D01*
G37*
G36*
X30235000Y-57286000D02*
G01*
X29233000Y-57286000D01*
X29233000Y-56384000D01*
X30235000Y-56384000D01*
X30235000Y-57286000D01*
G37*
G36*
X79451000Y-57142000D02*
G01*
X77849000Y-57142000D01*
X77849000Y-56040000D01*
X79451000Y-56040000D01*
X79451000Y-57142000D01*
G37*
G36*
X74551000Y-57142000D02*
G01*
X72949000Y-57142000D01*
X72949000Y-56040000D01*
X74551000Y-56040000D01*
X74551000Y-57142000D01*
G37*
G36*
X69284468Y-52847565D02*
G01*
X69323138Y-52859296D01*
X69358777Y-52878346D01*
X69390017Y-52903983D01*
X69415654Y-52935223D01*
X69434704Y-52970862D01*
X69446435Y-53009532D01*
X69451000Y-53055888D01*
X69451000Y-54132112D01*
X69446435Y-54178468D01*
X69434704Y-54217138D01*
X69415654Y-54252777D01*
X69390017Y-54284017D01*
X69358777Y-54309654D01*
X69323138Y-54328704D01*
X69284468Y-54340435D01*
X69238112Y-54345000D01*
X68586888Y-54345000D01*
X68540532Y-54340435D01*
X68501862Y-54328704D01*
X68466223Y-54309654D01*
X68434983Y-54284017D01*
X68409346Y-54252777D01*
X68390296Y-54217138D01*
X68378565Y-54178468D01*
X68374000Y-54132112D01*
X68374000Y-53055888D01*
X68378565Y-53009532D01*
X68390296Y-52970862D01*
X68409346Y-52935223D01*
X68434983Y-52903983D01*
X68466223Y-52878346D01*
X68501862Y-52859296D01*
X68540532Y-52847565D01*
X68586888Y-52843000D01*
X69238112Y-52843000D01*
X69284468Y-52847565D01*
G37*
G36*
X71159468Y-52847565D02*
G01*
X71198138Y-52859296D01*
X71233777Y-52878346D01*
X71265017Y-52903983D01*
X71290654Y-52935223D01*
X71309704Y-52970862D01*
X71321435Y-53009532D01*
X71326000Y-53055888D01*
X71326000Y-54132112D01*
X71321435Y-54178468D01*
X71309704Y-54217138D01*
X71290654Y-54252777D01*
X71265017Y-54284017D01*
X71233777Y-54309654D01*
X71198138Y-54328704D01*
X71159468Y-54340435D01*
X71113112Y-54345000D01*
X70461888Y-54345000D01*
X70415532Y-54340435D01*
X70376862Y-54328704D01*
X70341223Y-54309654D01*
X70309983Y-54284017D01*
X70284346Y-54252777D01*
X70265296Y-54217138D01*
X70253565Y-54178468D01*
X70249000Y-54132112D01*
X70249000Y-53055888D01*
X70253565Y-53009532D01*
X70265296Y-52970862D01*
X70284346Y-52935223D01*
X70309983Y-52903983D01*
X70341223Y-52878346D01*
X70376862Y-52859296D01*
X70415532Y-52847565D01*
X70461888Y-52843000D01*
X71113112Y-52843000D01*
X71159468Y-52847565D01*
G37*
G36*
X74551000Y-53942000D02*
G01*
X72949000Y-53942000D01*
X72949000Y-52840000D01*
X74551000Y-52840000D01*
X74551000Y-53942000D01*
G37*
G36*
X79451000Y-53942000D02*
G01*
X77849000Y-53942000D01*
X77849000Y-52840000D01*
X79451000Y-52840000D01*
X79451000Y-53942000D01*
G37*
G36*
X34299000Y-53344000D02*
G01*
X33297000Y-53344000D01*
X33297000Y-52442000D01*
X34299000Y-52442000D01*
X34299000Y-53344000D01*
G37*
G36*
X57734468Y-52092565D02*
G01*
X57773138Y-52104296D01*
X57808777Y-52123346D01*
X57840017Y-52148983D01*
X57865654Y-52180223D01*
X57884704Y-52215862D01*
X57896435Y-52254532D01*
X57901000Y-52300888D01*
X57901000Y-52952112D01*
X57896435Y-52998468D01*
X57884704Y-53037138D01*
X57865654Y-53072777D01*
X57840017Y-53104017D01*
X57808777Y-53129654D01*
X57773138Y-53148704D01*
X57734468Y-53160435D01*
X57688112Y-53165000D01*
X56611888Y-53165000D01*
X56565532Y-53160435D01*
X56526862Y-53148704D01*
X56491223Y-53129654D01*
X56459983Y-53104017D01*
X56434346Y-53072777D01*
X56415296Y-53037138D01*
X56403565Y-52998468D01*
X56399000Y-52952112D01*
X56399000Y-52300888D01*
X56403565Y-52254532D01*
X56415296Y-52215862D01*
X56434346Y-52180223D01*
X56459983Y-52148983D01*
X56491223Y-52123346D01*
X56526862Y-52104296D01*
X56565532Y-52092565D01*
X56611888Y-52088000D01*
X57688112Y-52088000D01*
X57734468Y-52092565D01*
G37*
G36*
X36299000Y-52394000D02*
G01*
X35297000Y-52394000D01*
X35297000Y-51492000D01*
X36299000Y-51492000D01*
X36299000Y-52394000D01*
G37*
G36*
X31281468Y-50434565D02*
G01*
X31320138Y-50446296D01*
X31355777Y-50465346D01*
X31387017Y-50490983D01*
X31412654Y-50522223D01*
X31431704Y-50557862D01*
X31443435Y-50596532D01*
X31448000Y-50642888D01*
X31448000Y-51719112D01*
X31443435Y-51765468D01*
X31431704Y-51804138D01*
X31412654Y-51839777D01*
X31387017Y-51871017D01*
X31355777Y-51896654D01*
X31320138Y-51915704D01*
X31281468Y-51927435D01*
X31235112Y-51932000D01*
X30583888Y-51932000D01*
X30537532Y-51927435D01*
X30498862Y-51915704D01*
X30463223Y-51896654D01*
X30431983Y-51871017D01*
X30406346Y-51839777D01*
X30387296Y-51804138D01*
X30375565Y-51765468D01*
X30371000Y-51719112D01*
X30371000Y-50642888D01*
X30375565Y-50596532D01*
X30387296Y-50557862D01*
X30406346Y-50522223D01*
X30431983Y-50490983D01*
X30463223Y-50465346D01*
X30498862Y-50446296D01*
X30537532Y-50434565D01*
X30583888Y-50430000D01*
X31235112Y-50430000D01*
X31281468Y-50434565D01*
G37*
G36*
X29406468Y-50434565D02*
G01*
X29445138Y-50446296D01*
X29480777Y-50465346D01*
X29512017Y-50490983D01*
X29537654Y-50522223D01*
X29556704Y-50557862D01*
X29568435Y-50596532D01*
X29573000Y-50642888D01*
X29573000Y-51719112D01*
X29568435Y-51765468D01*
X29556704Y-51804138D01*
X29537654Y-51839777D01*
X29512017Y-51871017D01*
X29480777Y-51896654D01*
X29445138Y-51915704D01*
X29406468Y-51927435D01*
X29360112Y-51932000D01*
X28708888Y-51932000D01*
X28662532Y-51927435D01*
X28623862Y-51915704D01*
X28588223Y-51896654D01*
X28556983Y-51871017D01*
X28531346Y-51839777D01*
X28512296Y-51804138D01*
X28500565Y-51765468D01*
X28496000Y-51719112D01*
X28496000Y-50642888D01*
X28500565Y-50596532D01*
X28512296Y-50557862D01*
X28531346Y-50522223D01*
X28556983Y-50490983D01*
X28588223Y-50465346D01*
X28623862Y-50446296D01*
X28662532Y-50434565D01*
X28708888Y-50430000D01*
X29360112Y-50430000D01*
X29406468Y-50434565D01*
G37*
G36*
X34299000Y-51444000D02*
G01*
X33297000Y-51444000D01*
X33297000Y-50542000D01*
X34299000Y-50542000D01*
X34299000Y-51444000D01*
G37*
G36*
X57734468Y-50217565D02*
G01*
X57773138Y-50229296D01*
X57808777Y-50248346D01*
X57840017Y-50273983D01*
X57865654Y-50305223D01*
X57884704Y-50340862D01*
X57896435Y-50379532D01*
X57901000Y-50425888D01*
X57901000Y-51077112D01*
X57896435Y-51123468D01*
X57884704Y-51162138D01*
X57865654Y-51197777D01*
X57840017Y-51229017D01*
X57808777Y-51254654D01*
X57773138Y-51273704D01*
X57734468Y-51285435D01*
X57688112Y-51290000D01*
X56611888Y-51290000D01*
X56565532Y-51285435D01*
X56526862Y-51273704D01*
X56491223Y-51254654D01*
X56459983Y-51229017D01*
X56434346Y-51197777D01*
X56415296Y-51162138D01*
X56403565Y-51123468D01*
X56399000Y-51077112D01*
X56399000Y-50425888D01*
X56403565Y-50379532D01*
X56415296Y-50340862D01*
X56434346Y-50305223D01*
X56459983Y-50273983D01*
X56491223Y-50248346D01*
X56526862Y-50229296D01*
X56565532Y-50217565D01*
X56611888Y-50213000D01*
X57688112Y-50213000D01*
X57734468Y-50217565D01*
G37*
G36*
X74551000Y-49522000D02*
G01*
X72949000Y-49522000D01*
X72949000Y-48420000D01*
X74551000Y-48420000D01*
X74551000Y-49522000D01*
G37*
G36*
X79451000Y-49522000D02*
G01*
X77849000Y-49522000D01*
X77849000Y-48420000D01*
X79451000Y-48420000D01*
X79451000Y-49522000D01*
G37*
G36*
X57334728Y-46489203D02*
G01*
X57489600Y-46553353D01*
X57628981Y-46646485D01*
X57747515Y-46765019D01*
X57840647Y-46904400D01*
X57904797Y-47059272D01*
X57937500Y-47223684D01*
X57937500Y-47391316D01*
X57904797Y-47555728D01*
X57840647Y-47710600D01*
X57747515Y-47849981D01*
X57628981Y-47968515D01*
X57489600Y-48061647D01*
X57334728Y-48125797D01*
X57170316Y-48158500D01*
X57002684Y-48158500D01*
X56838272Y-48125797D01*
X56683400Y-48061647D01*
X56544019Y-47968515D01*
X56425485Y-47849981D01*
X56332353Y-47710600D01*
X56268203Y-47555728D01*
X56235500Y-47391316D01*
X56235500Y-47223684D01*
X56268203Y-47059272D01*
X56332353Y-46904400D01*
X56425485Y-46765019D01*
X56544019Y-46646485D01*
X56683400Y-46553353D01*
X56838272Y-46489203D01*
X57002684Y-46456500D01*
X57170316Y-46456500D01*
X57334728Y-46489203D01*
G37*
G36*
X59874728Y-46489203D02*
G01*
X60029600Y-46553353D01*
X60168981Y-46646485D01*
X60287515Y-46765019D01*
X60380647Y-46904400D01*
X60444797Y-47059272D01*
X60477500Y-47223684D01*
X60477500Y-47391316D01*
X60444797Y-47555728D01*
X60380647Y-47710600D01*
X60287515Y-47849981D01*
X60168981Y-47968515D01*
X60029600Y-48061647D01*
X59874728Y-48125797D01*
X59710316Y-48158500D01*
X59542684Y-48158500D01*
X59378272Y-48125797D01*
X59223400Y-48061647D01*
X59084019Y-47968515D01*
X58965485Y-47849981D01*
X58872353Y-47710600D01*
X58808203Y-47555728D01*
X58775500Y-47391316D01*
X58775500Y-47223684D01*
X58808203Y-47059272D01*
X58872353Y-46904400D01*
X58965485Y-46765019D01*
X59084019Y-46646485D01*
X59223400Y-46553353D01*
X59378272Y-46489203D01*
X59542684Y-46456500D01*
X59710316Y-46456500D01*
X59874728Y-46489203D01*
G37*
G36*
X31934728Y-46489203D02*
G01*
X32089600Y-46553353D01*
X32228981Y-46646485D01*
X32347515Y-46765019D01*
X32440647Y-46904400D01*
X32504797Y-47059272D01*
X32537500Y-47223684D01*
X32537500Y-47391316D01*
X32504797Y-47555728D01*
X32440647Y-47710600D01*
X32347515Y-47849981D01*
X32228981Y-47968515D01*
X32089600Y-48061647D01*
X31934728Y-48125797D01*
X31770316Y-48158500D01*
X31602684Y-48158500D01*
X31438272Y-48125797D01*
X31283400Y-48061647D01*
X31144019Y-47968515D01*
X31025485Y-47849981D01*
X30932353Y-47710600D01*
X30868203Y-47555728D01*
X30835500Y-47391316D01*
X30835500Y-47223684D01*
X30868203Y-47059272D01*
X30932353Y-46904400D01*
X31025485Y-46765019D01*
X31144019Y-46646485D01*
X31283400Y-46553353D01*
X31438272Y-46489203D01*
X31602684Y-46456500D01*
X31770316Y-46456500D01*
X31934728Y-46489203D01*
G37*
G36*
X63017500Y-48158500D02*
G01*
X61315500Y-48158500D01*
X61315500Y-46456500D01*
X63017500Y-46456500D01*
X63017500Y-48158500D01*
G37*
G36*
X26854728Y-46489203D02*
G01*
X27009600Y-46553353D01*
X27148981Y-46646485D01*
X27267515Y-46765019D01*
X27360647Y-46904400D01*
X27424797Y-47059272D01*
X27457500Y-47223684D01*
X27457500Y-47391316D01*
X27424797Y-47555728D01*
X27360647Y-47710600D01*
X27267515Y-47849981D01*
X27148981Y-47968515D01*
X27009600Y-48061647D01*
X26854728Y-48125797D01*
X26690316Y-48158500D01*
X26522684Y-48158500D01*
X26358272Y-48125797D01*
X26203400Y-48061647D01*
X26064019Y-47968515D01*
X25945485Y-47849981D01*
X25852353Y-47710600D01*
X25788203Y-47555728D01*
X25755500Y-47391316D01*
X25755500Y-47223684D01*
X25788203Y-47059272D01*
X25852353Y-46904400D01*
X25945485Y-46765019D01*
X26064019Y-46646485D01*
X26203400Y-46553353D01*
X26358272Y-46489203D01*
X26522684Y-46456500D01*
X26690316Y-46456500D01*
X26854728Y-46489203D01*
G37*
G36*
X29394728Y-46489203D02*
G01*
X29549600Y-46553353D01*
X29688981Y-46646485D01*
X29807515Y-46765019D01*
X29900647Y-46904400D01*
X29964797Y-47059272D01*
X29997500Y-47223684D01*
X29997500Y-47391316D01*
X29964797Y-47555728D01*
X29900647Y-47710600D01*
X29807515Y-47849981D01*
X29688981Y-47968515D01*
X29549600Y-48061647D01*
X29394728Y-48125797D01*
X29230316Y-48158500D01*
X29062684Y-48158500D01*
X28898272Y-48125797D01*
X28743400Y-48061647D01*
X28604019Y-47968515D01*
X28485485Y-47849981D01*
X28392353Y-47710600D01*
X28328203Y-47555728D01*
X28295500Y-47391316D01*
X28295500Y-47223684D01*
X28328203Y-47059272D01*
X28392353Y-46904400D01*
X28485485Y-46765019D01*
X28604019Y-46646485D01*
X28743400Y-46553353D01*
X28898272Y-46489203D01*
X29062684Y-46456500D01*
X29230316Y-46456500D01*
X29394728Y-46489203D01*
G37*
G36*
X47174728Y-46489203D02*
G01*
X47329600Y-46553353D01*
X47468981Y-46646485D01*
X47587515Y-46765019D01*
X47680647Y-46904400D01*
X47744797Y-47059272D01*
X47777500Y-47223684D01*
X47777500Y-47391316D01*
X47744797Y-47555728D01*
X47680647Y-47710600D01*
X47587515Y-47849981D01*
X47468981Y-47968515D01*
X47329600Y-48061647D01*
X47174728Y-48125797D01*
X47010316Y-48158500D01*
X46842684Y-48158500D01*
X46678272Y-48125797D01*
X46523400Y-48061647D01*
X46384019Y-47968515D01*
X46265485Y-47849981D01*
X46172353Y-47710600D01*
X46108203Y-47555728D01*
X46075500Y-47391316D01*
X46075500Y-47223684D01*
X46108203Y-47059272D01*
X46172353Y-46904400D01*
X46265485Y-46765019D01*
X46384019Y-46646485D01*
X46523400Y-46553353D01*
X46678272Y-46489203D01*
X46842684Y-46456500D01*
X47010316Y-46456500D01*
X47174728Y-46489203D01*
G37*
G36*
X54794728Y-46489203D02*
G01*
X54949600Y-46553353D01*
X55088981Y-46646485D01*
X55207515Y-46765019D01*
X55300647Y-46904400D01*
X55364797Y-47059272D01*
X55397500Y-47223684D01*
X55397500Y-47391316D01*
X55364797Y-47555728D01*
X55300647Y-47710600D01*
X55207515Y-47849981D01*
X55088981Y-47968515D01*
X54949600Y-48061647D01*
X54794728Y-48125797D01*
X54630316Y-48158500D01*
X54462684Y-48158500D01*
X54298272Y-48125797D01*
X54143400Y-48061647D01*
X54004019Y-47968515D01*
X53885485Y-47849981D01*
X53792353Y-47710600D01*
X53728203Y-47555728D01*
X53695500Y-47391316D01*
X53695500Y-47223684D01*
X53728203Y-47059272D01*
X53792353Y-46904400D01*
X53885485Y-46765019D01*
X54004019Y-46646485D01*
X54143400Y-46553353D01*
X54298272Y-46489203D01*
X54462684Y-46456500D01*
X54630316Y-46456500D01*
X54794728Y-46489203D01*
G37*
G36*
X39554728Y-46489203D02*
G01*
X39709600Y-46553353D01*
X39848981Y-46646485D01*
X39967515Y-46765019D01*
X40060647Y-46904400D01*
X40124797Y-47059272D01*
X40157500Y-47223684D01*
X40157500Y-47391316D01*
X40124797Y-47555728D01*
X40060647Y-47710600D01*
X39967515Y-47849981D01*
X39848981Y-47968515D01*
X39709600Y-48061647D01*
X39554728Y-48125797D01*
X39390316Y-48158500D01*
X39222684Y-48158500D01*
X39058272Y-48125797D01*
X38903400Y-48061647D01*
X38764019Y-47968515D01*
X38645485Y-47849981D01*
X38552353Y-47710600D01*
X38488203Y-47555728D01*
X38455500Y-47391316D01*
X38455500Y-47223684D01*
X38488203Y-47059272D01*
X38552353Y-46904400D01*
X38645485Y-46765019D01*
X38764019Y-46646485D01*
X38903400Y-46553353D01*
X39058272Y-46489203D01*
X39222684Y-46456500D01*
X39390316Y-46456500D01*
X39554728Y-46489203D01*
G37*
G36*
X42094728Y-46489203D02*
G01*
X42249600Y-46553353D01*
X42388981Y-46646485D01*
X42507515Y-46765019D01*
X42600647Y-46904400D01*
X42664797Y-47059272D01*
X42697500Y-47223684D01*
X42697500Y-47391316D01*
X42664797Y-47555728D01*
X42600647Y-47710600D01*
X42507515Y-47849981D01*
X42388981Y-47968515D01*
X42249600Y-48061647D01*
X42094728Y-48125797D01*
X41930316Y-48158500D01*
X41762684Y-48158500D01*
X41598272Y-48125797D01*
X41443400Y-48061647D01*
X41304019Y-47968515D01*
X41185485Y-47849981D01*
X41092353Y-47710600D01*
X41028203Y-47555728D01*
X40995500Y-47391316D01*
X40995500Y-47223684D01*
X41028203Y-47059272D01*
X41092353Y-46904400D01*
X41185485Y-46765019D01*
X41304019Y-46646485D01*
X41443400Y-46553353D01*
X41598272Y-46489203D01*
X41762684Y-46456500D01*
X41930316Y-46456500D01*
X42094728Y-46489203D01*
G37*
G36*
X44634728Y-46489203D02*
G01*
X44789600Y-46553353D01*
X44928981Y-46646485D01*
X45047515Y-46765019D01*
X45140647Y-46904400D01*
X45204797Y-47059272D01*
X45237500Y-47223684D01*
X45237500Y-47391316D01*
X45204797Y-47555728D01*
X45140647Y-47710600D01*
X45047515Y-47849981D01*
X44928981Y-47968515D01*
X44789600Y-48061647D01*
X44634728Y-48125797D01*
X44470316Y-48158500D01*
X44302684Y-48158500D01*
X44138272Y-48125797D01*
X43983400Y-48061647D01*
X43844019Y-47968515D01*
X43725485Y-47849981D01*
X43632353Y-47710600D01*
X43568203Y-47555728D01*
X43535500Y-47391316D01*
X43535500Y-47223684D01*
X43568203Y-47059272D01*
X43632353Y-46904400D01*
X43725485Y-46765019D01*
X43844019Y-46646485D01*
X43983400Y-46553353D01*
X44138272Y-46489203D01*
X44302684Y-46456500D01*
X44470316Y-46456500D01*
X44634728Y-46489203D01*
G37*
G36*
X49714728Y-46489203D02*
G01*
X49869600Y-46553353D01*
X50008981Y-46646485D01*
X50127515Y-46765019D01*
X50220647Y-46904400D01*
X50284797Y-47059272D01*
X50317500Y-47223684D01*
X50317500Y-47391316D01*
X50284797Y-47555728D01*
X50220647Y-47710600D01*
X50127515Y-47849981D01*
X50008981Y-47968515D01*
X49869600Y-48061647D01*
X49714728Y-48125797D01*
X49550316Y-48158500D01*
X49382684Y-48158500D01*
X49218272Y-48125797D01*
X49063400Y-48061647D01*
X48924019Y-47968515D01*
X48805485Y-47849981D01*
X48712353Y-47710600D01*
X48648203Y-47555728D01*
X48615500Y-47391316D01*
X48615500Y-47223684D01*
X48648203Y-47059272D01*
X48712353Y-46904400D01*
X48805485Y-46765019D01*
X48924019Y-46646485D01*
X49063400Y-46553353D01*
X49218272Y-46489203D01*
X49382684Y-46456500D01*
X49550316Y-46456500D01*
X49714728Y-46489203D01*
G37*
G36*
X34474728Y-46489203D02*
G01*
X34629600Y-46553353D01*
X34768981Y-46646485D01*
X34887515Y-46765019D01*
X34980647Y-46904400D01*
X35044797Y-47059272D01*
X35077500Y-47223684D01*
X35077500Y-47391316D01*
X35044797Y-47555728D01*
X34980647Y-47710600D01*
X34887515Y-47849981D01*
X34768981Y-47968515D01*
X34629600Y-48061647D01*
X34474728Y-48125797D01*
X34310316Y-48158500D01*
X34142684Y-48158500D01*
X33978272Y-48125797D01*
X33823400Y-48061647D01*
X33684019Y-47968515D01*
X33565485Y-47849981D01*
X33472353Y-47710600D01*
X33408203Y-47555728D01*
X33375500Y-47391316D01*
X33375500Y-47223684D01*
X33408203Y-47059272D01*
X33472353Y-46904400D01*
X33565485Y-46765019D01*
X33684019Y-46646485D01*
X33823400Y-46553353D01*
X33978272Y-46489203D01*
X34142684Y-46456500D01*
X34310316Y-46456500D01*
X34474728Y-46489203D01*
G37*
G36*
X37014728Y-46489203D02*
G01*
X37169600Y-46553353D01*
X37308981Y-46646485D01*
X37427515Y-46765019D01*
X37520647Y-46904400D01*
X37584797Y-47059272D01*
X37617500Y-47223684D01*
X37617500Y-47391316D01*
X37584797Y-47555728D01*
X37520647Y-47710600D01*
X37427515Y-47849981D01*
X37308981Y-47968515D01*
X37169600Y-48061647D01*
X37014728Y-48125797D01*
X36850316Y-48158500D01*
X36682684Y-48158500D01*
X36518272Y-48125797D01*
X36363400Y-48061647D01*
X36224019Y-47968515D01*
X36105485Y-47849981D01*
X36012353Y-47710600D01*
X35948203Y-47555728D01*
X35915500Y-47391316D01*
X35915500Y-47223684D01*
X35948203Y-47059272D01*
X36012353Y-46904400D01*
X36105485Y-46765019D01*
X36224019Y-46646485D01*
X36363400Y-46553353D01*
X36518272Y-46489203D01*
X36682684Y-46456500D01*
X36850316Y-46456500D01*
X37014728Y-46489203D01*
G37*
G36*
X52254728Y-46489203D02*
G01*
X52409600Y-46553353D01*
X52548981Y-46646485D01*
X52667515Y-46765019D01*
X52760647Y-46904400D01*
X52824797Y-47059272D01*
X52857500Y-47223684D01*
X52857500Y-47391316D01*
X52824797Y-47555728D01*
X52760647Y-47710600D01*
X52667515Y-47849981D01*
X52548981Y-47968515D01*
X52409600Y-48061647D01*
X52254728Y-48125797D01*
X52090316Y-48158500D01*
X51922684Y-48158500D01*
X51758272Y-48125797D01*
X51603400Y-48061647D01*
X51464019Y-47968515D01*
X51345485Y-47849981D01*
X51252353Y-47710600D01*
X51188203Y-47555728D01*
X51155500Y-47391316D01*
X51155500Y-47223684D01*
X51188203Y-47059272D01*
X51252353Y-46904400D01*
X51345485Y-46765019D01*
X51464019Y-46646485D01*
X51603400Y-46553353D01*
X51758272Y-46489203D01*
X51922684Y-46456500D01*
X52090316Y-46456500D01*
X52254728Y-46489203D01*
G37*
G36*
X71159468Y-45227565D02*
G01*
X71198138Y-45239296D01*
X71233777Y-45258346D01*
X71265017Y-45283983D01*
X71290654Y-45315223D01*
X71309704Y-45350862D01*
X71321435Y-45389532D01*
X71326000Y-45435888D01*
X71326000Y-46512112D01*
X71321435Y-46558468D01*
X71309704Y-46597138D01*
X71290654Y-46632777D01*
X71265017Y-46664017D01*
X71233777Y-46689654D01*
X71198138Y-46708704D01*
X71159468Y-46720435D01*
X71113112Y-46725000D01*
X70461888Y-46725000D01*
X70415532Y-46720435D01*
X70376862Y-46708704D01*
X70341223Y-46689654D01*
X70309983Y-46664017D01*
X70284346Y-46632777D01*
X70265296Y-46597138D01*
X70253565Y-46558468D01*
X70249000Y-46512112D01*
X70249000Y-45435888D01*
X70253565Y-45389532D01*
X70265296Y-45350862D01*
X70284346Y-45315223D01*
X70309983Y-45283983D01*
X70341223Y-45258346D01*
X70376862Y-45239296D01*
X70415532Y-45227565D01*
X70461888Y-45223000D01*
X71113112Y-45223000D01*
X71159468Y-45227565D01*
G37*
G36*
X69284468Y-45227565D02*
G01*
X69323138Y-45239296D01*
X69358777Y-45258346D01*
X69390017Y-45283983D01*
X69415654Y-45315223D01*
X69434704Y-45350862D01*
X69446435Y-45389532D01*
X69451000Y-45435888D01*
X69451000Y-46512112D01*
X69446435Y-46558468D01*
X69434704Y-46597138D01*
X69415654Y-46632777D01*
X69390017Y-46664017D01*
X69358777Y-46689654D01*
X69323138Y-46708704D01*
X69284468Y-46720435D01*
X69238112Y-46725000D01*
X68586888Y-46725000D01*
X68540532Y-46720435D01*
X68501862Y-46708704D01*
X68466223Y-46689654D01*
X68434983Y-46664017D01*
X68409346Y-46632777D01*
X68390296Y-46597138D01*
X68378565Y-46558468D01*
X68374000Y-46512112D01*
X68374000Y-45435888D01*
X68378565Y-45389532D01*
X68390296Y-45350862D01*
X68409346Y-45315223D01*
X68434983Y-45283983D01*
X68466223Y-45258346D01*
X68501862Y-45239296D01*
X68540532Y-45227565D01*
X68586888Y-45223000D01*
X69238112Y-45223000D01*
X69284468Y-45227565D01*
G37*
G36*
X74551000Y-46322000D02*
G01*
X72949000Y-46322000D01*
X72949000Y-45220000D01*
X74551000Y-45220000D01*
X74551000Y-46322000D01*
G37*
G36*
X79451000Y-46322000D02*
G01*
X77849000Y-46322000D01*
X77849000Y-45220000D01*
X79451000Y-45220000D01*
X79451000Y-46322000D01*
G37*
G36*
X33350468Y-42440565D02*
G01*
X33389138Y-42452296D01*
X33424777Y-42471346D01*
X33456017Y-42496983D01*
X33481654Y-42528223D01*
X33500704Y-42563862D01*
X33512435Y-42602532D01*
X33517000Y-42648888D01*
X33517000Y-43300112D01*
X33512435Y-43346468D01*
X33500704Y-43385138D01*
X33481654Y-43420777D01*
X33456017Y-43452017D01*
X33424777Y-43477654D01*
X33389138Y-43496704D01*
X33350468Y-43508435D01*
X33304112Y-43513000D01*
X32227888Y-43513000D01*
X32181532Y-43508435D01*
X32142862Y-43496704D01*
X32107223Y-43477654D01*
X32075983Y-43452017D01*
X32050346Y-43420777D01*
X32031296Y-43385138D01*
X32019565Y-43346468D01*
X32015000Y-43300112D01*
X32015000Y-42648888D01*
X32019565Y-42602532D01*
X32031296Y-42563862D01*
X32050346Y-42528223D01*
X32075983Y-42496983D01*
X32107223Y-42471346D01*
X32142862Y-42452296D01*
X32181532Y-42440565D01*
X32227888Y-42436000D01*
X33304112Y-42436000D01*
X33350468Y-42440565D01*
G37*
G36*
X40716468Y-42440565D02*
G01*
X40755138Y-42452296D01*
X40790777Y-42471346D01*
X40822017Y-42496983D01*
X40847654Y-42528223D01*
X40866704Y-42563862D01*
X40878435Y-42602532D01*
X40883000Y-42648888D01*
X40883000Y-43300112D01*
X40878435Y-43346468D01*
X40866704Y-43385138D01*
X40847654Y-43420777D01*
X40822017Y-43452017D01*
X40790777Y-43477654D01*
X40755138Y-43496704D01*
X40716468Y-43508435D01*
X40670112Y-43513000D01*
X39593888Y-43513000D01*
X39547532Y-43508435D01*
X39508862Y-43496704D01*
X39473223Y-43477654D01*
X39441983Y-43452017D01*
X39416346Y-43420777D01*
X39397296Y-43385138D01*
X39385565Y-43346468D01*
X39381000Y-43300112D01*
X39381000Y-42648888D01*
X39385565Y-42602532D01*
X39397296Y-42563862D01*
X39416346Y-42528223D01*
X39441983Y-42496983D01*
X39473223Y-42471346D01*
X39508862Y-42452296D01*
X39547532Y-42440565D01*
X39593888Y-42436000D01*
X40670112Y-42436000D01*
X40716468Y-42440565D01*
G37*
G36*
X53670468Y-42440565D02*
G01*
X53709138Y-42452296D01*
X53744777Y-42471346D01*
X53776017Y-42496983D01*
X53801654Y-42528223D01*
X53820704Y-42563862D01*
X53832435Y-42602532D01*
X53837000Y-42648888D01*
X53837000Y-43300112D01*
X53832435Y-43346468D01*
X53820704Y-43385138D01*
X53801654Y-43420777D01*
X53776017Y-43452017D01*
X53744777Y-43477654D01*
X53709138Y-43496704D01*
X53670468Y-43508435D01*
X53624112Y-43513000D01*
X52547888Y-43513000D01*
X52501532Y-43508435D01*
X52462862Y-43496704D01*
X52427223Y-43477654D01*
X52395983Y-43452017D01*
X52370346Y-43420777D01*
X52351296Y-43385138D01*
X52339565Y-43346468D01*
X52335000Y-43300112D01*
X52335000Y-42648888D01*
X52339565Y-42602532D01*
X52351296Y-42563862D01*
X52370346Y-42528223D01*
X52395983Y-42496983D01*
X52427223Y-42471346D01*
X52462862Y-42452296D01*
X52501532Y-42440565D01*
X52547888Y-42436000D01*
X53624112Y-42436000D01*
X53670468Y-42440565D01*
G37*
G36*
X50622468Y-42440565D02*
G01*
X50661138Y-42452296D01*
X50696777Y-42471346D01*
X50728017Y-42496983D01*
X50753654Y-42528223D01*
X50772704Y-42563862D01*
X50784435Y-42602532D01*
X50789000Y-42648888D01*
X50789000Y-43300112D01*
X50784435Y-43346468D01*
X50772704Y-43385138D01*
X50753654Y-43420777D01*
X50728017Y-43452017D01*
X50696777Y-43477654D01*
X50661138Y-43496704D01*
X50622468Y-43508435D01*
X50576112Y-43513000D01*
X49499888Y-43513000D01*
X49453532Y-43508435D01*
X49414862Y-43496704D01*
X49379223Y-43477654D01*
X49347983Y-43452017D01*
X49322346Y-43420777D01*
X49303296Y-43385138D01*
X49291565Y-43346468D01*
X49287000Y-43300112D01*
X49287000Y-42648888D01*
X49291565Y-42602532D01*
X49303296Y-42563862D01*
X49322346Y-42528223D01*
X49347983Y-42496983D01*
X49379223Y-42471346D01*
X49414862Y-42452296D01*
X49453532Y-42440565D01*
X49499888Y-42436000D01*
X50576112Y-42436000D01*
X50622468Y-42440565D01*
G37*
G36*
X47574468Y-42440565D02*
G01*
X47613138Y-42452296D01*
X47648777Y-42471346D01*
X47680017Y-42496983D01*
X47705654Y-42528223D01*
X47724704Y-42563862D01*
X47736435Y-42602532D01*
X47741000Y-42648888D01*
X47741000Y-43300112D01*
X47736435Y-43346468D01*
X47724704Y-43385138D01*
X47705654Y-43420777D01*
X47680017Y-43452017D01*
X47648777Y-43477654D01*
X47613138Y-43496704D01*
X47574468Y-43508435D01*
X47528112Y-43513000D01*
X46451888Y-43513000D01*
X46405532Y-43508435D01*
X46366862Y-43496704D01*
X46331223Y-43477654D01*
X46299983Y-43452017D01*
X46274346Y-43420777D01*
X46255296Y-43385138D01*
X46243565Y-43346468D01*
X46239000Y-43300112D01*
X46239000Y-42648888D01*
X46243565Y-42602532D01*
X46255296Y-42563862D01*
X46274346Y-42528223D01*
X46299983Y-42496983D01*
X46331223Y-42471346D01*
X46366862Y-42452296D01*
X46405532Y-42440565D01*
X46451888Y-42436000D01*
X47528112Y-42436000D01*
X47574468Y-42440565D01*
G37*
G36*
X31064468Y-42440565D02*
G01*
X31103138Y-42452296D01*
X31138777Y-42471346D01*
X31170017Y-42496983D01*
X31195654Y-42528223D01*
X31214704Y-42563862D01*
X31226435Y-42602532D01*
X31231000Y-42648888D01*
X31231000Y-43300112D01*
X31226435Y-43346468D01*
X31214704Y-43385138D01*
X31195654Y-43420777D01*
X31170017Y-43452017D01*
X31138777Y-43477654D01*
X31103138Y-43496704D01*
X31064468Y-43508435D01*
X31018112Y-43513000D01*
X29941888Y-43513000D01*
X29895532Y-43508435D01*
X29856862Y-43496704D01*
X29821223Y-43477654D01*
X29789983Y-43452017D01*
X29764346Y-43420777D01*
X29745296Y-43385138D01*
X29733565Y-43346468D01*
X29729000Y-43300112D01*
X29729000Y-42648888D01*
X29733565Y-42602532D01*
X29745296Y-42563862D01*
X29764346Y-42528223D01*
X29789983Y-42496983D01*
X29821223Y-42471346D01*
X29856862Y-42452296D01*
X29895532Y-42440565D01*
X29941888Y-42436000D01*
X31018112Y-42436000D01*
X31064468Y-42440565D01*
G37*
G36*
X44272468Y-42440565D02*
G01*
X44311138Y-42452296D01*
X44346777Y-42471346D01*
X44378017Y-42496983D01*
X44403654Y-42528223D01*
X44422704Y-42563862D01*
X44434435Y-42602532D01*
X44439000Y-42648888D01*
X44439000Y-43300112D01*
X44434435Y-43346468D01*
X44422704Y-43385138D01*
X44403654Y-43420777D01*
X44378017Y-43452017D01*
X44346777Y-43477654D01*
X44311138Y-43496704D01*
X44272468Y-43508435D01*
X44226112Y-43513000D01*
X43149888Y-43513000D01*
X43103532Y-43508435D01*
X43064862Y-43496704D01*
X43029223Y-43477654D01*
X42997983Y-43452017D01*
X42972346Y-43420777D01*
X42953296Y-43385138D01*
X42941565Y-43346468D01*
X42937000Y-43300112D01*
X42937000Y-42648888D01*
X42941565Y-42602532D01*
X42953296Y-42563862D01*
X42972346Y-42528223D01*
X42997983Y-42496983D01*
X43029223Y-42471346D01*
X43064862Y-42452296D01*
X43103532Y-42440565D01*
X43149888Y-42436000D01*
X44226112Y-42436000D01*
X44272468Y-42440565D01*
G37*
G36*
X37414468Y-42440565D02*
G01*
X37453138Y-42452296D01*
X37488777Y-42471346D01*
X37520017Y-42496983D01*
X37545654Y-42528223D01*
X37564704Y-42563862D01*
X37576435Y-42602532D01*
X37581000Y-42648888D01*
X37581000Y-43300112D01*
X37576435Y-43346468D01*
X37564704Y-43385138D01*
X37545654Y-43420777D01*
X37520017Y-43452017D01*
X37488777Y-43477654D01*
X37453138Y-43496704D01*
X37414468Y-43508435D01*
X37368112Y-43513000D01*
X36291888Y-43513000D01*
X36245532Y-43508435D01*
X36206862Y-43496704D01*
X36171223Y-43477654D01*
X36139983Y-43452017D01*
X36114346Y-43420777D01*
X36095296Y-43385138D01*
X36083565Y-43346468D01*
X36079000Y-43300112D01*
X36079000Y-42648888D01*
X36083565Y-42602532D01*
X36095296Y-42563862D01*
X36114346Y-42528223D01*
X36139983Y-42496983D01*
X36171223Y-42471346D01*
X36206862Y-42452296D01*
X36245532Y-42440565D01*
X36291888Y-42436000D01*
X37368112Y-42436000D01*
X37414468Y-42440565D01*
G37*
G36*
X27155000Y-43438000D02*
G01*
X26153000Y-43438000D01*
X26153000Y-42536000D01*
X27155000Y-42536000D01*
X27155000Y-43438000D01*
G37*
G36*
X25155000Y-42488000D02*
G01*
X24153000Y-42488000D01*
X24153000Y-41586000D01*
X25155000Y-41586000D01*
X25155000Y-42488000D01*
G37*
G36*
X79451000Y-42156000D02*
G01*
X77849000Y-42156000D01*
X77849000Y-41054000D01*
X79451000Y-41054000D01*
X79451000Y-42156000D01*
G37*
G36*
X74551000Y-42156000D02*
G01*
X72949000Y-42156000D01*
X72949000Y-41054000D01*
X74551000Y-41054000D01*
X74551000Y-42156000D01*
G37*
G36*
X44272468Y-40565565D02*
G01*
X44311138Y-40577296D01*
X44346777Y-40596346D01*
X44378017Y-40621983D01*
X44403654Y-40653223D01*
X44422704Y-40688862D01*
X44434435Y-40727532D01*
X44439000Y-40773888D01*
X44439000Y-41425112D01*
X44434435Y-41471468D01*
X44422704Y-41510138D01*
X44403654Y-41545777D01*
X44378017Y-41577017D01*
X44346777Y-41602654D01*
X44311138Y-41621704D01*
X44272468Y-41633435D01*
X44226112Y-41638000D01*
X43149888Y-41638000D01*
X43103532Y-41633435D01*
X43064862Y-41621704D01*
X43029223Y-41602654D01*
X42997983Y-41577017D01*
X42972346Y-41545777D01*
X42953296Y-41510138D01*
X42941565Y-41471468D01*
X42937000Y-41425112D01*
X42937000Y-40773888D01*
X42941565Y-40727532D01*
X42953296Y-40688862D01*
X42972346Y-40653223D01*
X42997983Y-40621983D01*
X43029223Y-40596346D01*
X43064862Y-40577296D01*
X43103532Y-40565565D01*
X43149888Y-40561000D01*
X44226112Y-40561000D01*
X44272468Y-40565565D01*
G37*
G36*
X33350468Y-40565565D02*
G01*
X33389138Y-40577296D01*
X33424777Y-40596346D01*
X33456017Y-40621983D01*
X33481654Y-40653223D01*
X33500704Y-40688862D01*
X33512435Y-40727532D01*
X33517000Y-40773888D01*
X33517000Y-41425112D01*
X33512435Y-41471468D01*
X33500704Y-41510138D01*
X33481654Y-41545777D01*
X33456017Y-41577017D01*
X33424777Y-41602654D01*
X33389138Y-41621704D01*
X33350468Y-41633435D01*
X33304112Y-41638000D01*
X32227888Y-41638000D01*
X32181532Y-41633435D01*
X32142862Y-41621704D01*
X32107223Y-41602654D01*
X32075983Y-41577017D01*
X32050346Y-41545777D01*
X32031296Y-41510138D01*
X32019565Y-41471468D01*
X32015000Y-41425112D01*
X32015000Y-40773888D01*
X32019565Y-40727532D01*
X32031296Y-40688862D01*
X32050346Y-40653223D01*
X32075983Y-40621983D01*
X32107223Y-40596346D01*
X32142862Y-40577296D01*
X32181532Y-40565565D01*
X32227888Y-40561000D01*
X33304112Y-40561000D01*
X33350468Y-40565565D01*
G37*
G36*
X37414468Y-40565565D02*
G01*
X37453138Y-40577296D01*
X37488777Y-40596346D01*
X37520017Y-40621983D01*
X37545654Y-40653223D01*
X37564704Y-40688862D01*
X37576435Y-40727532D01*
X37581000Y-40773888D01*
X37581000Y-41425112D01*
X37576435Y-41471468D01*
X37564704Y-41510138D01*
X37545654Y-41545777D01*
X37520017Y-41577017D01*
X37488777Y-41602654D01*
X37453138Y-41621704D01*
X37414468Y-41633435D01*
X37368112Y-41638000D01*
X36291888Y-41638000D01*
X36245532Y-41633435D01*
X36206862Y-41621704D01*
X36171223Y-41602654D01*
X36139983Y-41577017D01*
X36114346Y-41545777D01*
X36095296Y-41510138D01*
X36083565Y-41471468D01*
X36079000Y-41425112D01*
X36079000Y-40773888D01*
X36083565Y-40727532D01*
X36095296Y-40688862D01*
X36114346Y-40653223D01*
X36139983Y-40621983D01*
X36171223Y-40596346D01*
X36206862Y-40577296D01*
X36245532Y-40565565D01*
X36291888Y-40561000D01*
X37368112Y-40561000D01*
X37414468Y-40565565D01*
G37*
G36*
X31064468Y-40565565D02*
G01*
X31103138Y-40577296D01*
X31138777Y-40596346D01*
X31170017Y-40621983D01*
X31195654Y-40653223D01*
X31214704Y-40688862D01*
X31226435Y-40727532D01*
X31231000Y-40773888D01*
X31231000Y-41425112D01*
X31226435Y-41471468D01*
X31214704Y-41510138D01*
X31195654Y-41545777D01*
X31170017Y-41577017D01*
X31138777Y-41602654D01*
X31103138Y-41621704D01*
X31064468Y-41633435D01*
X31018112Y-41638000D01*
X29941888Y-41638000D01*
X29895532Y-41633435D01*
X29856862Y-41621704D01*
X29821223Y-41602654D01*
X29789983Y-41577017D01*
X29764346Y-41545777D01*
X29745296Y-41510138D01*
X29733565Y-41471468D01*
X29729000Y-41425112D01*
X29729000Y-40773888D01*
X29733565Y-40727532D01*
X29745296Y-40688862D01*
X29764346Y-40653223D01*
X29789983Y-40621983D01*
X29821223Y-40596346D01*
X29856862Y-40577296D01*
X29895532Y-40565565D01*
X29941888Y-40561000D01*
X31018112Y-40561000D01*
X31064468Y-40565565D01*
G37*
G36*
X40716468Y-40565565D02*
G01*
X40755138Y-40577296D01*
X40790777Y-40596346D01*
X40822017Y-40621983D01*
X40847654Y-40653223D01*
X40866704Y-40688862D01*
X40878435Y-40727532D01*
X40883000Y-40773888D01*
X40883000Y-41425112D01*
X40878435Y-41471468D01*
X40866704Y-41510138D01*
X40847654Y-41545777D01*
X40822017Y-41577017D01*
X40790777Y-41602654D01*
X40755138Y-41621704D01*
X40716468Y-41633435D01*
X40670112Y-41638000D01*
X39593888Y-41638000D01*
X39547532Y-41633435D01*
X39508862Y-41621704D01*
X39473223Y-41602654D01*
X39441983Y-41577017D01*
X39416346Y-41545777D01*
X39397296Y-41510138D01*
X39385565Y-41471468D01*
X39381000Y-41425112D01*
X39381000Y-40773888D01*
X39385565Y-40727532D01*
X39397296Y-40688862D01*
X39416346Y-40653223D01*
X39441983Y-40621983D01*
X39473223Y-40596346D01*
X39508862Y-40577296D01*
X39547532Y-40565565D01*
X39593888Y-40561000D01*
X40670112Y-40561000D01*
X40716468Y-40565565D01*
G37*
G36*
X47574468Y-40565565D02*
G01*
X47613138Y-40577296D01*
X47648777Y-40596346D01*
X47680017Y-40621983D01*
X47705654Y-40653223D01*
X47724704Y-40688862D01*
X47736435Y-40727532D01*
X47741000Y-40773888D01*
X47741000Y-41425112D01*
X47736435Y-41471468D01*
X47724704Y-41510138D01*
X47705654Y-41545777D01*
X47680017Y-41577017D01*
X47648777Y-41602654D01*
X47613138Y-41621704D01*
X47574468Y-41633435D01*
X47528112Y-41638000D01*
X46451888Y-41638000D01*
X46405532Y-41633435D01*
X46366862Y-41621704D01*
X46331223Y-41602654D01*
X46299983Y-41577017D01*
X46274346Y-41545777D01*
X46255296Y-41510138D01*
X46243565Y-41471468D01*
X46239000Y-41425112D01*
X46239000Y-40773888D01*
X46243565Y-40727532D01*
X46255296Y-40688862D01*
X46274346Y-40653223D01*
X46299983Y-40621983D01*
X46331223Y-40596346D01*
X46366862Y-40577296D01*
X46405532Y-40565565D01*
X46451888Y-40561000D01*
X47528112Y-40561000D01*
X47574468Y-40565565D01*
G37*
G36*
X50622468Y-40565565D02*
G01*
X50661138Y-40577296D01*
X50696777Y-40596346D01*
X50728017Y-40621983D01*
X50753654Y-40653223D01*
X50772704Y-40688862D01*
X50784435Y-40727532D01*
X50789000Y-40773888D01*
X50789000Y-41425112D01*
X50784435Y-41471468D01*
X50772704Y-41510138D01*
X50753654Y-41545777D01*
X50728017Y-41577017D01*
X50696777Y-41602654D01*
X50661138Y-41621704D01*
X50622468Y-41633435D01*
X50576112Y-41638000D01*
X49499888Y-41638000D01*
X49453532Y-41633435D01*
X49414862Y-41621704D01*
X49379223Y-41602654D01*
X49347983Y-41577017D01*
X49322346Y-41545777D01*
X49303296Y-41510138D01*
X49291565Y-41471468D01*
X49287000Y-41425112D01*
X49287000Y-40773888D01*
X49291565Y-40727532D01*
X49303296Y-40688862D01*
X49322346Y-40653223D01*
X49347983Y-40621983D01*
X49379223Y-40596346D01*
X49414862Y-40577296D01*
X49453532Y-40565565D01*
X49499888Y-40561000D01*
X50576112Y-40561000D01*
X50622468Y-40565565D01*
G37*
G36*
X53670468Y-40565565D02*
G01*
X53709138Y-40577296D01*
X53744777Y-40596346D01*
X53776017Y-40621983D01*
X53801654Y-40653223D01*
X53820704Y-40688862D01*
X53832435Y-40727532D01*
X53837000Y-40773888D01*
X53837000Y-41425112D01*
X53832435Y-41471468D01*
X53820704Y-41510138D01*
X53801654Y-41545777D01*
X53776017Y-41577017D01*
X53744777Y-41602654D01*
X53709138Y-41621704D01*
X53670468Y-41633435D01*
X53624112Y-41638000D01*
X52547888Y-41638000D01*
X52501532Y-41633435D01*
X52462862Y-41621704D01*
X52427223Y-41602654D01*
X52395983Y-41577017D01*
X52370346Y-41545777D01*
X52351296Y-41510138D01*
X52339565Y-41471468D01*
X52335000Y-41425112D01*
X52335000Y-40773888D01*
X52339565Y-40727532D01*
X52351296Y-40688862D01*
X52370346Y-40653223D01*
X52395983Y-40621983D01*
X52427223Y-40596346D01*
X52462862Y-40577296D01*
X52501532Y-40565565D01*
X52547888Y-40561000D01*
X53624112Y-40561000D01*
X53670468Y-40565565D01*
G37*
G36*
X27155000Y-41538000D02*
G01*
X26153000Y-41538000D01*
X26153000Y-40636000D01*
X27155000Y-40636000D01*
X27155000Y-41538000D01*
G37*
G36*
X71159468Y-37861565D02*
G01*
X71198138Y-37873296D01*
X71233777Y-37892346D01*
X71265017Y-37917983D01*
X71290654Y-37949223D01*
X71309704Y-37984862D01*
X71321435Y-38023532D01*
X71326000Y-38069888D01*
X71326000Y-39146112D01*
X71321435Y-39192468D01*
X71309704Y-39231138D01*
X71290654Y-39266777D01*
X71265017Y-39298017D01*
X71233777Y-39323654D01*
X71198138Y-39342704D01*
X71159468Y-39354435D01*
X71113112Y-39359000D01*
X70461888Y-39359000D01*
X70415532Y-39354435D01*
X70376862Y-39342704D01*
X70341223Y-39323654D01*
X70309983Y-39298017D01*
X70284346Y-39266777D01*
X70265296Y-39231138D01*
X70253565Y-39192468D01*
X70249000Y-39146112D01*
X70249000Y-38069888D01*
X70253565Y-38023532D01*
X70265296Y-37984862D01*
X70284346Y-37949223D01*
X70309983Y-37917983D01*
X70341223Y-37892346D01*
X70376862Y-37873296D01*
X70415532Y-37861565D01*
X70461888Y-37857000D01*
X71113112Y-37857000D01*
X71159468Y-37861565D01*
G37*
G36*
X69284468Y-37861565D02*
G01*
X69323138Y-37873296D01*
X69358777Y-37892346D01*
X69390017Y-37917983D01*
X69415654Y-37949223D01*
X69434704Y-37984862D01*
X69446435Y-38023532D01*
X69451000Y-38069888D01*
X69451000Y-39146112D01*
X69446435Y-39192468D01*
X69434704Y-39231138D01*
X69415654Y-39266777D01*
X69390017Y-39298017D01*
X69358777Y-39323654D01*
X69323138Y-39342704D01*
X69284468Y-39354435D01*
X69238112Y-39359000D01*
X68586888Y-39359000D01*
X68540532Y-39354435D01*
X68501862Y-39342704D01*
X68466223Y-39323654D01*
X68434983Y-39298017D01*
X68409346Y-39266777D01*
X68390296Y-39231138D01*
X68378565Y-39192468D01*
X68374000Y-39146112D01*
X68374000Y-38069888D01*
X68378565Y-38023532D01*
X68390296Y-37984862D01*
X68409346Y-37949223D01*
X68434983Y-37917983D01*
X68466223Y-37892346D01*
X68501862Y-37873296D01*
X68540532Y-37861565D01*
X68586888Y-37857000D01*
X69238112Y-37857000D01*
X69284468Y-37861565D01*
G37*
G36*
X74551000Y-38956000D02*
G01*
X72949000Y-38956000D01*
X72949000Y-37854000D01*
X74551000Y-37854000D01*
X74551000Y-38956000D01*
G37*
G36*
X79451000Y-38956000D02*
G01*
X77849000Y-38956000D01*
X77849000Y-37854000D01*
X79451000Y-37854000D01*
X79451000Y-38956000D01*
G37*
G36*
X35539642Y-36186781D02*
G01*
X35685414Y-36247162D01*
X35685416Y-36247163D01*
X35816608Y-36334822D01*
X35928178Y-36446392D01*
X36015837Y-36577584D01*
X36015838Y-36577586D01*
X36076219Y-36723358D01*
X36107000Y-36878107D01*
X36107000Y-37035893D01*
X36076219Y-37190642D01*
X36015838Y-37336414D01*
X36015837Y-37336416D01*
X35928178Y-37467608D01*
X35816608Y-37579178D01*
X35685416Y-37666837D01*
X35685415Y-37666838D01*
X35685414Y-37666838D01*
X35539642Y-37727219D01*
X35384893Y-37758000D01*
X35227107Y-37758000D01*
X35072358Y-37727219D01*
X34926586Y-37666838D01*
X34926585Y-37666838D01*
X34926584Y-37666837D01*
X34795392Y-37579178D01*
X34683822Y-37467608D01*
X34596163Y-37336416D01*
X34596162Y-37336414D01*
X34535781Y-37190642D01*
X34505000Y-37035893D01*
X34505000Y-36878107D01*
X34535781Y-36723358D01*
X34596162Y-36577586D01*
X34596163Y-36577584D01*
X34683822Y-36446392D01*
X34795392Y-36334822D01*
X34926584Y-36247163D01*
X34926586Y-36247162D01*
X35072358Y-36186781D01*
X35227107Y-36156000D01*
X35384893Y-36156000D01*
X35539642Y-36186781D01*
G37*
G36*
X43159642Y-36186781D02*
G01*
X43305414Y-36247162D01*
X43305416Y-36247163D01*
X43436608Y-36334822D01*
X43548178Y-36446392D01*
X43635837Y-36577584D01*
X43635838Y-36577586D01*
X43696219Y-36723358D01*
X43727000Y-36878107D01*
X43727000Y-37035893D01*
X43696219Y-37190642D01*
X43635838Y-37336414D01*
X43635837Y-37336416D01*
X43548178Y-37467608D01*
X43436608Y-37579178D01*
X43305416Y-37666837D01*
X43305415Y-37666838D01*
X43305414Y-37666838D01*
X43159642Y-37727219D01*
X43004893Y-37758000D01*
X42847107Y-37758000D01*
X42692358Y-37727219D01*
X42546586Y-37666838D01*
X42546585Y-37666838D01*
X42546584Y-37666837D01*
X42415392Y-37579178D01*
X42303822Y-37467608D01*
X42216163Y-37336416D01*
X42216162Y-37336414D01*
X42155781Y-37190642D01*
X42125000Y-37035893D01*
X42125000Y-36878107D01*
X42155781Y-36723358D01*
X42216162Y-36577586D01*
X42216163Y-36577584D01*
X42303822Y-36446392D01*
X42415392Y-36334822D01*
X42546584Y-36247163D01*
X42546586Y-36247162D01*
X42692358Y-36186781D01*
X42847107Y-36156000D01*
X43004893Y-36156000D01*
X43159642Y-36186781D01*
G37*
G36*
X23407000Y-37758000D02*
G01*
X21805000Y-37758000D01*
X21805000Y-36156000D01*
X23407000Y-36156000D01*
X23407000Y-37758000D01*
G37*
G36*
X25379642Y-36186781D02*
G01*
X25525414Y-36247162D01*
X25525416Y-36247163D01*
X25656608Y-36334822D01*
X25768178Y-36446392D01*
X25855837Y-36577584D01*
X25855838Y-36577586D01*
X25916219Y-36723358D01*
X25947000Y-36878107D01*
X25947000Y-37035893D01*
X25916219Y-37190642D01*
X25855838Y-37336414D01*
X25855837Y-37336416D01*
X25768178Y-37467608D01*
X25656608Y-37579178D01*
X25525416Y-37666837D01*
X25525415Y-37666838D01*
X25525414Y-37666838D01*
X25379642Y-37727219D01*
X25224893Y-37758000D01*
X25067107Y-37758000D01*
X24912358Y-37727219D01*
X24766586Y-37666838D01*
X24766585Y-37666838D01*
X24766584Y-37666837D01*
X24635392Y-37579178D01*
X24523822Y-37467608D01*
X24436163Y-37336416D01*
X24436162Y-37336414D01*
X24375781Y-37190642D01*
X24345000Y-37035893D01*
X24345000Y-36878107D01*
X24375781Y-36723358D01*
X24436162Y-36577586D01*
X24436163Y-36577584D01*
X24523822Y-36446392D01*
X24635392Y-36334822D01*
X24766584Y-36247163D01*
X24766586Y-36247162D01*
X24912358Y-36186781D01*
X25067107Y-36156000D01*
X25224893Y-36156000D01*
X25379642Y-36186781D01*
G37*
G36*
X27919642Y-36186781D02*
G01*
X28065414Y-36247162D01*
X28065416Y-36247163D01*
X28196608Y-36334822D01*
X28308178Y-36446392D01*
X28395837Y-36577584D01*
X28395838Y-36577586D01*
X28456219Y-36723358D01*
X28487000Y-36878107D01*
X28487000Y-37035893D01*
X28456219Y-37190642D01*
X28395838Y-37336414D01*
X28395837Y-37336416D01*
X28308178Y-37467608D01*
X28196608Y-37579178D01*
X28065416Y-37666837D01*
X28065415Y-37666838D01*
X28065414Y-37666838D01*
X27919642Y-37727219D01*
X27764893Y-37758000D01*
X27607107Y-37758000D01*
X27452358Y-37727219D01*
X27306586Y-37666838D01*
X27306585Y-37666838D01*
X27306584Y-37666837D01*
X27175392Y-37579178D01*
X27063822Y-37467608D01*
X26976163Y-37336416D01*
X26976162Y-37336414D01*
X26915781Y-37190642D01*
X26885000Y-37035893D01*
X26885000Y-36878107D01*
X26915781Y-36723358D01*
X26976162Y-36577586D01*
X26976163Y-36577584D01*
X27063822Y-36446392D01*
X27175392Y-36334822D01*
X27306584Y-36247163D01*
X27306586Y-36247162D01*
X27452358Y-36186781D01*
X27607107Y-36156000D01*
X27764893Y-36156000D01*
X27919642Y-36186781D01*
G37*
G36*
X32999642Y-36186781D02*
G01*
X33145414Y-36247162D01*
X33145416Y-36247163D01*
X33276608Y-36334822D01*
X33388178Y-36446392D01*
X33475837Y-36577584D01*
X33475838Y-36577586D01*
X33536219Y-36723358D01*
X33567000Y-36878107D01*
X33567000Y-37035893D01*
X33536219Y-37190642D01*
X33475838Y-37336414D01*
X33475837Y-37336416D01*
X33388178Y-37467608D01*
X33276608Y-37579178D01*
X33145416Y-37666837D01*
X33145415Y-37666838D01*
X33145414Y-37666838D01*
X32999642Y-37727219D01*
X32844893Y-37758000D01*
X32687107Y-37758000D01*
X32532358Y-37727219D01*
X32386586Y-37666838D01*
X32386585Y-37666838D01*
X32386584Y-37666837D01*
X32255392Y-37579178D01*
X32143822Y-37467608D01*
X32056163Y-37336416D01*
X32056162Y-37336414D01*
X31995781Y-37190642D01*
X31965000Y-37035893D01*
X31965000Y-36878107D01*
X31995781Y-36723358D01*
X32056162Y-36577586D01*
X32056163Y-36577584D01*
X32143822Y-36446392D01*
X32255392Y-36334822D01*
X32386584Y-36247163D01*
X32386586Y-36247162D01*
X32532358Y-36186781D01*
X32687107Y-36156000D01*
X32844893Y-36156000D01*
X32999642Y-36186781D01*
G37*
G36*
X38079642Y-36186781D02*
G01*
X38225414Y-36247162D01*
X38225416Y-36247163D01*
X38356608Y-36334822D01*
X38468178Y-36446392D01*
X38555837Y-36577584D01*
X38555838Y-36577586D01*
X38616219Y-36723358D01*
X38647000Y-36878107D01*
X38647000Y-37035893D01*
X38616219Y-37190642D01*
X38555838Y-37336414D01*
X38555837Y-37336416D01*
X38468178Y-37467608D01*
X38356608Y-37579178D01*
X38225416Y-37666837D01*
X38225415Y-37666838D01*
X38225414Y-37666838D01*
X38079642Y-37727219D01*
X37924893Y-37758000D01*
X37767107Y-37758000D01*
X37612358Y-37727219D01*
X37466586Y-37666838D01*
X37466585Y-37666838D01*
X37466584Y-37666837D01*
X37335392Y-37579178D01*
X37223822Y-37467608D01*
X37136163Y-37336416D01*
X37136162Y-37336414D01*
X37075781Y-37190642D01*
X37045000Y-37035893D01*
X37045000Y-36878107D01*
X37075781Y-36723358D01*
X37136162Y-36577586D01*
X37136163Y-36577584D01*
X37223822Y-36446392D01*
X37335392Y-36334822D01*
X37466584Y-36247163D01*
X37466586Y-36247162D01*
X37612358Y-36186781D01*
X37767107Y-36156000D01*
X37924893Y-36156000D01*
X38079642Y-36186781D01*
G37*
G36*
X40619642Y-36186781D02*
G01*
X40765414Y-36247162D01*
X40765416Y-36247163D01*
X40896608Y-36334822D01*
X41008178Y-36446392D01*
X41095837Y-36577584D01*
X41095838Y-36577586D01*
X41156219Y-36723358D01*
X41187000Y-36878107D01*
X41187000Y-37035893D01*
X41156219Y-37190642D01*
X41095838Y-37336414D01*
X41095837Y-37336416D01*
X41008178Y-37467608D01*
X40896608Y-37579178D01*
X40765416Y-37666837D01*
X40765415Y-37666838D01*
X40765414Y-37666838D01*
X40619642Y-37727219D01*
X40464893Y-37758000D01*
X40307107Y-37758000D01*
X40152358Y-37727219D01*
X40006586Y-37666838D01*
X40006585Y-37666838D01*
X40006584Y-37666837D01*
X39875392Y-37579178D01*
X39763822Y-37467608D01*
X39676163Y-37336416D01*
X39676162Y-37336414D01*
X39615781Y-37190642D01*
X39585000Y-37035893D01*
X39585000Y-36878107D01*
X39615781Y-36723358D01*
X39676162Y-36577586D01*
X39676163Y-36577584D01*
X39763822Y-36446392D01*
X39875392Y-36334822D01*
X40006584Y-36247163D01*
X40006586Y-36247162D01*
X40152358Y-36186781D01*
X40307107Y-36156000D01*
X40464893Y-36156000D01*
X40619642Y-36186781D01*
G37*
G36*
X30459642Y-36186781D02*
G01*
X30605414Y-36247162D01*
X30605416Y-36247163D01*
X30736608Y-36334822D01*
X30848178Y-36446392D01*
X30935837Y-36577584D01*
X30935838Y-36577586D01*
X30996219Y-36723358D01*
X31027000Y-36878107D01*
X31027000Y-37035893D01*
X30996219Y-37190642D01*
X30935838Y-37336414D01*
X30935837Y-37336416D01*
X30848178Y-37467608D01*
X30736608Y-37579178D01*
X30605416Y-37666837D01*
X30605415Y-37666838D01*
X30605414Y-37666838D01*
X30459642Y-37727219D01*
X30304893Y-37758000D01*
X30147107Y-37758000D01*
X29992358Y-37727219D01*
X29846586Y-37666838D01*
X29846585Y-37666838D01*
X29846584Y-37666837D01*
X29715392Y-37579178D01*
X29603822Y-37467608D01*
X29516163Y-37336416D01*
X29516162Y-37336414D01*
X29455781Y-37190642D01*
X29425000Y-37035893D01*
X29425000Y-36878107D01*
X29455781Y-36723358D01*
X29516162Y-36577586D01*
X29516163Y-36577584D01*
X29603822Y-36446392D01*
X29715392Y-36334822D01*
X29846584Y-36247163D01*
X29846586Y-36247162D01*
X29992358Y-36186781D01*
X30147107Y-36156000D01*
X30304893Y-36156000D01*
X30459642Y-36186781D01*
G37*
G36*
X58667142Y-34651242D02*
G01*
X58815101Y-34712529D01*
X58948255Y-34801499D01*
X59061501Y-34914745D01*
X59150471Y-35047899D01*
X59211758Y-35195858D01*
X59243000Y-35352925D01*
X59243000Y-35513075D01*
X59211758Y-35670142D01*
X59150471Y-35818101D01*
X59061501Y-35951255D01*
X58948255Y-36064501D01*
X58815101Y-36153471D01*
X58667142Y-36214758D01*
X58510075Y-36246000D01*
X58349925Y-36246000D01*
X58192858Y-36214758D01*
X58044899Y-36153471D01*
X57911745Y-36064501D01*
X57798499Y-35951255D01*
X57709529Y-35818101D01*
X57648242Y-35670142D01*
X57617000Y-35513075D01*
X57617000Y-35352925D01*
X57648242Y-35195858D01*
X57709529Y-35047899D01*
X57798499Y-34914745D01*
X57911745Y-34801499D01*
X58044899Y-34712529D01*
X58192858Y-34651242D01*
X58349925Y-34620000D01*
X58510075Y-34620000D01*
X58667142Y-34651242D01*
G37*
G36*
X66843000Y-36246000D02*
G01*
X65217000Y-36246000D01*
X65217000Y-34620000D01*
X66843000Y-34620000D01*
X66843000Y-36246000D01*
G37*
G36*
X74551000Y-34790000D02*
G01*
X72949000Y-34790000D01*
X72949000Y-33688000D01*
X74551000Y-33688000D01*
X74551000Y-34790000D01*
G37*
G36*
X79451000Y-34790000D02*
G01*
X77849000Y-34790000D01*
X77849000Y-33688000D01*
X79451000Y-33688000D01*
X79451000Y-34790000D01*
G37*
G36*
X69284468Y-30495565D02*
G01*
X69323138Y-30507296D01*
X69358777Y-30526346D01*
X69390017Y-30551983D01*
X69415654Y-30583223D01*
X69434704Y-30618862D01*
X69446435Y-30657532D01*
X69451000Y-30703888D01*
X69451000Y-31780112D01*
X69446435Y-31826468D01*
X69434704Y-31865138D01*
X69415654Y-31900777D01*
X69390017Y-31932017D01*
X69358777Y-31957654D01*
X69323138Y-31976704D01*
X69284468Y-31988435D01*
X69238112Y-31993000D01*
X68586888Y-31993000D01*
X68540532Y-31988435D01*
X68501862Y-31976704D01*
X68466223Y-31957654D01*
X68434983Y-31932017D01*
X68409346Y-31900777D01*
X68390296Y-31865138D01*
X68378565Y-31826468D01*
X68374000Y-31780112D01*
X68374000Y-30703888D01*
X68378565Y-30657532D01*
X68390296Y-30618862D01*
X68409346Y-30583223D01*
X68434983Y-30551983D01*
X68466223Y-30526346D01*
X68501862Y-30507296D01*
X68540532Y-30495565D01*
X68586888Y-30491000D01*
X69238112Y-30491000D01*
X69284468Y-30495565D01*
G37*
G36*
X71159468Y-30495565D02*
G01*
X71198138Y-30507296D01*
X71233777Y-30526346D01*
X71265017Y-30551983D01*
X71290654Y-30583223D01*
X71309704Y-30618862D01*
X71321435Y-30657532D01*
X71326000Y-30703888D01*
X71326000Y-31780112D01*
X71321435Y-31826468D01*
X71309704Y-31865138D01*
X71290654Y-31900777D01*
X71265017Y-31932017D01*
X71233777Y-31957654D01*
X71198138Y-31976704D01*
X71159468Y-31988435D01*
X71113112Y-31993000D01*
X70461888Y-31993000D01*
X70415532Y-31988435D01*
X70376862Y-31976704D01*
X70341223Y-31957654D01*
X70309983Y-31932017D01*
X70284346Y-31900777D01*
X70265296Y-31865138D01*
X70253565Y-31826468D01*
X70249000Y-31780112D01*
X70249000Y-30703888D01*
X70253565Y-30657532D01*
X70265296Y-30618862D01*
X70284346Y-30583223D01*
X70309983Y-30551983D01*
X70341223Y-30526346D01*
X70376862Y-30507296D01*
X70415532Y-30495565D01*
X70461888Y-30491000D01*
X71113112Y-30491000D01*
X71159468Y-30495565D01*
G37*
G36*
X74551000Y-31590000D02*
G01*
X72949000Y-31590000D01*
X72949000Y-30488000D01*
X74551000Y-30488000D01*
X74551000Y-31590000D01*
G37*
G36*
X79451000Y-31590000D02*
G01*
X77849000Y-31590000D01*
X77849000Y-30488000D01*
X79451000Y-30488000D01*
X79451000Y-31590000D01*
G37*
G36*
X79451000Y-27678000D02*
G01*
X77849000Y-27678000D01*
X77849000Y-26576000D01*
X79451000Y-26576000D01*
X79451000Y-27678000D01*
G37*
G36*
X74551000Y-27678000D02*
G01*
X72949000Y-27678000D01*
X72949000Y-26576000D01*
X74551000Y-26576000D01*
X74551000Y-27678000D01*
G37*
G36*
X69284468Y-23383565D02*
G01*
X69323138Y-23395296D01*
X69358777Y-23414346D01*
X69390017Y-23439983D01*
X69415654Y-23471223D01*
X69434704Y-23506862D01*
X69446435Y-23545532D01*
X69451000Y-23591888D01*
X69451000Y-24668112D01*
X69446435Y-24714468D01*
X69434704Y-24753138D01*
X69415654Y-24788777D01*
X69390017Y-24820017D01*
X69358777Y-24845654D01*
X69323138Y-24864704D01*
X69284468Y-24876435D01*
X69238112Y-24881000D01*
X68586888Y-24881000D01*
X68540532Y-24876435D01*
X68501862Y-24864704D01*
X68466223Y-24845654D01*
X68434983Y-24820017D01*
X68409346Y-24788777D01*
X68390296Y-24753138D01*
X68378565Y-24714468D01*
X68374000Y-24668112D01*
X68374000Y-23591888D01*
X68378565Y-23545532D01*
X68390296Y-23506862D01*
X68409346Y-23471223D01*
X68434983Y-23439983D01*
X68466223Y-23414346D01*
X68501862Y-23395296D01*
X68540532Y-23383565D01*
X68586888Y-23379000D01*
X69238112Y-23379000D01*
X69284468Y-23383565D01*
G37*
G36*
X71159468Y-23383565D02*
G01*
X71198138Y-23395296D01*
X71233777Y-23414346D01*
X71265017Y-23439983D01*
X71290654Y-23471223D01*
X71309704Y-23506862D01*
X71321435Y-23545532D01*
X71326000Y-23591888D01*
X71326000Y-24668112D01*
X71321435Y-24714468D01*
X71309704Y-24753138D01*
X71290654Y-24788777D01*
X71265017Y-24820017D01*
X71233777Y-24845654D01*
X71198138Y-24864704D01*
X71159468Y-24876435D01*
X71113112Y-24881000D01*
X70461888Y-24881000D01*
X70415532Y-24876435D01*
X70376862Y-24864704D01*
X70341223Y-24845654D01*
X70309983Y-24820017D01*
X70284346Y-24788777D01*
X70265296Y-24753138D01*
X70253565Y-24714468D01*
X70249000Y-24668112D01*
X70249000Y-23591888D01*
X70253565Y-23545532D01*
X70265296Y-23506862D01*
X70284346Y-23471223D01*
X70309983Y-23439983D01*
X70341223Y-23414346D01*
X70376862Y-23395296D01*
X70415532Y-23383565D01*
X70461888Y-23379000D01*
X71113112Y-23379000D01*
X71159468Y-23383565D01*
G37*
G36*
X79451000Y-24478000D02*
G01*
X77849000Y-24478000D01*
X77849000Y-23376000D01*
X79451000Y-23376000D01*
X79451000Y-24478000D01*
G37*
G36*
X74551000Y-24478000D02*
G01*
X72949000Y-24478000D01*
X72949000Y-23376000D01*
X74551000Y-23376000D01*
X74551000Y-24478000D01*
G37*
G36*
X43159642Y-20946781D02*
G01*
X43305414Y-21007162D01*
X43305416Y-21007163D01*
X43436608Y-21094822D01*
X43548178Y-21206392D01*
X43635837Y-21337584D01*
X43635838Y-21337586D01*
X43696219Y-21483358D01*
X43727000Y-21638107D01*
X43727000Y-21795893D01*
X43696219Y-21950642D01*
X43635838Y-22096414D01*
X43635837Y-22096416D01*
X43548178Y-22227608D01*
X43436608Y-22339178D01*
X43305416Y-22426837D01*
X43305415Y-22426838D01*
X43305414Y-22426838D01*
X43159642Y-22487219D01*
X43004893Y-22518000D01*
X42847107Y-22518000D01*
X42692358Y-22487219D01*
X42546586Y-22426838D01*
X42546585Y-22426838D01*
X42546584Y-22426837D01*
X42415392Y-22339178D01*
X42303822Y-22227608D01*
X42216163Y-22096416D01*
X42216162Y-22096414D01*
X42155781Y-21950642D01*
X42125000Y-21795893D01*
X42125000Y-21638107D01*
X42155781Y-21483358D01*
X42216162Y-21337586D01*
X42216163Y-21337584D01*
X42303822Y-21206392D01*
X42415392Y-21094822D01*
X42546584Y-21007163D01*
X42546586Y-21007162D01*
X42692358Y-20946781D01*
X42847107Y-20916000D01*
X43004893Y-20916000D01*
X43159642Y-20946781D01*
G37*
G36*
X22839642Y-20946781D02*
G01*
X22985414Y-21007162D01*
X22985416Y-21007163D01*
X23116608Y-21094822D01*
X23228178Y-21206392D01*
X23315837Y-21337584D01*
X23315838Y-21337586D01*
X23376219Y-21483358D01*
X23407000Y-21638107D01*
X23407000Y-21795893D01*
X23376219Y-21950642D01*
X23315838Y-22096414D01*
X23315837Y-22096416D01*
X23228178Y-22227608D01*
X23116608Y-22339178D01*
X22985416Y-22426837D01*
X22985415Y-22426838D01*
X22985414Y-22426838D01*
X22839642Y-22487219D01*
X22684893Y-22518000D01*
X22527107Y-22518000D01*
X22372358Y-22487219D01*
X22226586Y-22426838D01*
X22226585Y-22426838D01*
X22226584Y-22426837D01*
X22095392Y-22339178D01*
X21983822Y-22227608D01*
X21896163Y-22096416D01*
X21896162Y-22096414D01*
X21835781Y-21950642D01*
X21805000Y-21795893D01*
X21805000Y-21638107D01*
X21835781Y-21483358D01*
X21896162Y-21337586D01*
X21896163Y-21337584D01*
X21983822Y-21206392D01*
X22095392Y-21094822D01*
X22226584Y-21007163D01*
X22226586Y-21007162D01*
X22372358Y-20946781D01*
X22527107Y-20916000D01*
X22684893Y-20916000D01*
X22839642Y-20946781D01*
G37*
G36*
X25379642Y-20946781D02*
G01*
X25525414Y-21007162D01*
X25525416Y-21007163D01*
X25656608Y-21094822D01*
X25768178Y-21206392D01*
X25855837Y-21337584D01*
X25855838Y-21337586D01*
X25916219Y-21483358D01*
X25947000Y-21638107D01*
X25947000Y-21795893D01*
X25916219Y-21950642D01*
X25855838Y-22096414D01*
X25855837Y-22096416D01*
X25768178Y-22227608D01*
X25656608Y-22339178D01*
X25525416Y-22426837D01*
X25525415Y-22426838D01*
X25525414Y-22426838D01*
X25379642Y-22487219D01*
X25224893Y-22518000D01*
X25067107Y-22518000D01*
X24912358Y-22487219D01*
X24766586Y-22426838D01*
X24766585Y-22426838D01*
X24766584Y-22426837D01*
X24635392Y-22339178D01*
X24523822Y-22227608D01*
X24436163Y-22096416D01*
X24436162Y-22096414D01*
X24375781Y-21950642D01*
X24345000Y-21795893D01*
X24345000Y-21638107D01*
X24375781Y-21483358D01*
X24436162Y-21337586D01*
X24436163Y-21337584D01*
X24523822Y-21206392D01*
X24635392Y-21094822D01*
X24766584Y-21007163D01*
X24766586Y-21007162D01*
X24912358Y-20946781D01*
X25067107Y-20916000D01*
X25224893Y-20916000D01*
X25379642Y-20946781D01*
G37*
G36*
X27919642Y-20946781D02*
G01*
X28065414Y-21007162D01*
X28065416Y-21007163D01*
X28196608Y-21094822D01*
X28308178Y-21206392D01*
X28395837Y-21337584D01*
X28395838Y-21337586D01*
X28456219Y-21483358D01*
X28487000Y-21638107D01*
X28487000Y-21795893D01*
X28456219Y-21950642D01*
X28395838Y-22096414D01*
X28395837Y-22096416D01*
X28308178Y-22227608D01*
X28196608Y-22339178D01*
X28065416Y-22426837D01*
X28065415Y-22426838D01*
X28065414Y-22426838D01*
X27919642Y-22487219D01*
X27764893Y-22518000D01*
X27607107Y-22518000D01*
X27452358Y-22487219D01*
X27306586Y-22426838D01*
X27306585Y-22426838D01*
X27306584Y-22426837D01*
X27175392Y-22339178D01*
X27063822Y-22227608D01*
X26976163Y-22096416D01*
X26976162Y-22096414D01*
X26915781Y-21950642D01*
X26885000Y-21795893D01*
X26885000Y-21638107D01*
X26915781Y-21483358D01*
X26976162Y-21337586D01*
X26976163Y-21337584D01*
X27063822Y-21206392D01*
X27175392Y-21094822D01*
X27306584Y-21007163D01*
X27306586Y-21007162D01*
X27452358Y-20946781D01*
X27607107Y-20916000D01*
X27764893Y-20916000D01*
X27919642Y-20946781D01*
G37*
G36*
X30459642Y-20946781D02*
G01*
X30605414Y-21007162D01*
X30605416Y-21007163D01*
X30736608Y-21094822D01*
X30848178Y-21206392D01*
X30935837Y-21337584D01*
X30935838Y-21337586D01*
X30996219Y-21483358D01*
X31027000Y-21638107D01*
X31027000Y-21795893D01*
X30996219Y-21950642D01*
X30935838Y-22096414D01*
X30935837Y-22096416D01*
X30848178Y-22227608D01*
X30736608Y-22339178D01*
X30605416Y-22426837D01*
X30605415Y-22426838D01*
X30605414Y-22426838D01*
X30459642Y-22487219D01*
X30304893Y-22518000D01*
X30147107Y-22518000D01*
X29992358Y-22487219D01*
X29846586Y-22426838D01*
X29846585Y-22426838D01*
X29846584Y-22426837D01*
X29715392Y-22339178D01*
X29603822Y-22227608D01*
X29516163Y-22096416D01*
X29516162Y-22096414D01*
X29455781Y-21950642D01*
X29425000Y-21795893D01*
X29425000Y-21638107D01*
X29455781Y-21483358D01*
X29516162Y-21337586D01*
X29516163Y-21337584D01*
X29603822Y-21206392D01*
X29715392Y-21094822D01*
X29846584Y-21007163D01*
X29846586Y-21007162D01*
X29992358Y-20946781D01*
X30147107Y-20916000D01*
X30304893Y-20916000D01*
X30459642Y-20946781D01*
G37*
G36*
X32999642Y-20946781D02*
G01*
X33145414Y-21007162D01*
X33145416Y-21007163D01*
X33276608Y-21094822D01*
X33388178Y-21206392D01*
X33475837Y-21337584D01*
X33475838Y-21337586D01*
X33536219Y-21483358D01*
X33567000Y-21638107D01*
X33567000Y-21795893D01*
X33536219Y-21950642D01*
X33475838Y-22096414D01*
X33475837Y-22096416D01*
X33388178Y-22227608D01*
X33276608Y-22339178D01*
X33145416Y-22426837D01*
X33145415Y-22426838D01*
X33145414Y-22426838D01*
X32999642Y-22487219D01*
X32844893Y-22518000D01*
X32687107Y-22518000D01*
X32532358Y-22487219D01*
X32386586Y-22426838D01*
X32386585Y-22426838D01*
X32386584Y-22426837D01*
X32255392Y-22339178D01*
X32143822Y-22227608D01*
X32056163Y-22096416D01*
X32056162Y-22096414D01*
X31995781Y-21950642D01*
X31965000Y-21795893D01*
X31965000Y-21638107D01*
X31995781Y-21483358D01*
X32056162Y-21337586D01*
X32056163Y-21337584D01*
X32143822Y-21206392D01*
X32255392Y-21094822D01*
X32386584Y-21007163D01*
X32386586Y-21007162D01*
X32532358Y-20946781D01*
X32687107Y-20916000D01*
X32844893Y-20916000D01*
X32999642Y-20946781D01*
G37*
G36*
X35539642Y-20946781D02*
G01*
X35685414Y-21007162D01*
X35685416Y-21007163D01*
X35816608Y-21094822D01*
X35928178Y-21206392D01*
X36015837Y-21337584D01*
X36015838Y-21337586D01*
X36076219Y-21483358D01*
X36107000Y-21638107D01*
X36107000Y-21795893D01*
X36076219Y-21950642D01*
X36015838Y-22096414D01*
X36015837Y-22096416D01*
X35928178Y-22227608D01*
X35816608Y-22339178D01*
X35685416Y-22426837D01*
X35685415Y-22426838D01*
X35685414Y-22426838D01*
X35539642Y-22487219D01*
X35384893Y-22518000D01*
X35227107Y-22518000D01*
X35072358Y-22487219D01*
X34926586Y-22426838D01*
X34926585Y-22426838D01*
X34926584Y-22426837D01*
X34795392Y-22339178D01*
X34683822Y-22227608D01*
X34596163Y-22096416D01*
X34596162Y-22096414D01*
X34535781Y-21950642D01*
X34505000Y-21795893D01*
X34505000Y-21638107D01*
X34535781Y-21483358D01*
X34596162Y-21337586D01*
X34596163Y-21337584D01*
X34683822Y-21206392D01*
X34795392Y-21094822D01*
X34926584Y-21007163D01*
X34926586Y-21007162D01*
X35072358Y-20946781D01*
X35227107Y-20916000D01*
X35384893Y-20916000D01*
X35539642Y-20946781D01*
G37*
G36*
X38079642Y-20946781D02*
G01*
X38225414Y-21007162D01*
X38225416Y-21007163D01*
X38356608Y-21094822D01*
X38468178Y-21206392D01*
X38555837Y-21337584D01*
X38555838Y-21337586D01*
X38616219Y-21483358D01*
X38647000Y-21638107D01*
X38647000Y-21795893D01*
X38616219Y-21950642D01*
X38555838Y-22096414D01*
X38555837Y-22096416D01*
X38468178Y-22227608D01*
X38356608Y-22339178D01*
X38225416Y-22426837D01*
X38225415Y-22426838D01*
X38225414Y-22426838D01*
X38079642Y-22487219D01*
X37924893Y-22518000D01*
X37767107Y-22518000D01*
X37612358Y-22487219D01*
X37466586Y-22426838D01*
X37466585Y-22426838D01*
X37466584Y-22426837D01*
X37335392Y-22339178D01*
X37223822Y-22227608D01*
X37136163Y-22096416D01*
X37136162Y-22096414D01*
X37075781Y-21950642D01*
X37045000Y-21795893D01*
X37045000Y-21638107D01*
X37075781Y-21483358D01*
X37136162Y-21337586D01*
X37136163Y-21337584D01*
X37223822Y-21206392D01*
X37335392Y-21094822D01*
X37466584Y-21007163D01*
X37466586Y-21007162D01*
X37612358Y-20946781D01*
X37767107Y-20916000D01*
X37924893Y-20916000D01*
X38079642Y-20946781D01*
G37*
G36*
X40619642Y-20946781D02*
G01*
X40765414Y-21007162D01*
X40765416Y-21007163D01*
X40896608Y-21094822D01*
X41008178Y-21206392D01*
X41095837Y-21337584D01*
X41095838Y-21337586D01*
X41156219Y-21483358D01*
X41187000Y-21638107D01*
X41187000Y-21795893D01*
X41156219Y-21950642D01*
X41095838Y-22096414D01*
X41095837Y-22096416D01*
X41008178Y-22227608D01*
X40896608Y-22339178D01*
X40765416Y-22426837D01*
X40765415Y-22426838D01*
X40765414Y-22426838D01*
X40619642Y-22487219D01*
X40464893Y-22518000D01*
X40307107Y-22518000D01*
X40152358Y-22487219D01*
X40006586Y-22426838D01*
X40006585Y-22426838D01*
X40006584Y-22426837D01*
X39875392Y-22339178D01*
X39763822Y-22227608D01*
X39676163Y-22096416D01*
X39676162Y-22096414D01*
X39615781Y-21950642D01*
X39585000Y-21795893D01*
X39585000Y-21638107D01*
X39615781Y-21483358D01*
X39676162Y-21337586D01*
X39676163Y-21337584D01*
X39763822Y-21206392D01*
X39875392Y-21094822D01*
X40006584Y-21007163D01*
X40006586Y-21007162D01*
X40152358Y-20946781D01*
X40307107Y-20916000D01*
X40464893Y-20916000D01*
X40619642Y-20946781D01*
G37*
G36*
X56028000Y-19863000D02*
G01*
X54402000Y-19863000D01*
X54402000Y-18237000D01*
X56028000Y-18237000D01*
X56028000Y-19863000D01*
G37*
G36*
X63072142Y-18268242D02*
G01*
X63220101Y-18329529D01*
X63353255Y-18418499D01*
X63466501Y-18531745D01*
X63555471Y-18664899D01*
X63616758Y-18812858D01*
X63648000Y-18969925D01*
X63648000Y-19130075D01*
X63616758Y-19287142D01*
X63555471Y-19435101D01*
X63466501Y-19568255D01*
X63353255Y-19681501D01*
X63220101Y-19770471D01*
X63072142Y-19831758D01*
X62915075Y-19863000D01*
X62754925Y-19863000D01*
X62597858Y-19831758D01*
X62449899Y-19770471D01*
X62316745Y-19681501D01*
X62203499Y-19568255D01*
X62114529Y-19435101D01*
X62053242Y-19287142D01*
X62022000Y-19130075D01*
X62022000Y-18969925D01*
X62053242Y-18812858D01*
X62114529Y-18664899D01*
X62203499Y-18531745D01*
X62316745Y-18418499D01*
X62449899Y-18329529D01*
X62597858Y-18268242D01*
X62754925Y-18237000D01*
X62915075Y-18237000D01*
X63072142Y-18268242D01*
G37*
G36*
X60532142Y-18268242D02*
G01*
X60680101Y-18329529D01*
X60813255Y-18418499D01*
X60926501Y-18531745D01*
X61015471Y-18664899D01*
X61076758Y-18812858D01*
X61108000Y-18969925D01*
X61108000Y-19130075D01*
X61076758Y-19287142D01*
X61015471Y-19435101D01*
X60926501Y-19568255D01*
X60813255Y-19681501D01*
X60680101Y-19770471D01*
X60532142Y-19831758D01*
X60375075Y-19863000D01*
X60214925Y-19863000D01*
X60057858Y-19831758D01*
X59909899Y-19770471D01*
X59776745Y-19681501D01*
X59663499Y-19568255D01*
X59574529Y-19435101D01*
X59513242Y-19287142D01*
X59482000Y-19130075D01*
X59482000Y-18969925D01*
X59513242Y-18812858D01*
X59574529Y-18664899D01*
X59663499Y-18531745D01*
X59776745Y-18418499D01*
X59909899Y-18329529D01*
X60057858Y-18268242D01*
X60214925Y-18237000D01*
X60375075Y-18237000D01*
X60532142Y-18268242D01*
G37*
G36*
X57992142Y-18268242D02*
G01*
X58140101Y-18329529D01*
X58273255Y-18418499D01*
X58386501Y-18531745D01*
X58475471Y-18664899D01*
X58536758Y-18812858D01*
X58568000Y-18969925D01*
X58568000Y-19130075D01*
X58536758Y-19287142D01*
X58475471Y-19435101D01*
X58386501Y-19568255D01*
X58273255Y-19681501D01*
X58140101Y-19770471D01*
X57992142Y-19831758D01*
X57835075Y-19863000D01*
X57674925Y-19863000D01*
X57517858Y-19831758D01*
X57369899Y-19770471D01*
X57236745Y-19681501D01*
X57123499Y-19568255D01*
X57034529Y-19435101D01*
X56973242Y-19287142D01*
X56942000Y-19130075D01*
X56942000Y-18969925D01*
X56973242Y-18812858D01*
X57034529Y-18664899D01*
X57123499Y-18531745D01*
X57236745Y-18418499D01*
X57369899Y-18329529D01*
X57517858Y-18268242D01*
X57674925Y-18237000D01*
X57835075Y-18237000D01*
X57992142Y-18268242D01*
G37*
M02*
