G04 #@! TF.GenerationSoftware,KiCad,Pcbnew,(5.1.5)-3*
G04 #@! TF.CreationDate,2020-04-27T22:16:45+02:00*
G04 #@! TF.ProjectId,czujnikParkowania,637a756a-6e69-46b5-9061-726b6f77616e,rev?*
G04 #@! TF.SameCoordinates,Original*
G04 #@! TF.FileFunction,Soldermask,Bot*
G04 #@! TF.FilePolarity,Negative*
%FSLAX46Y46*%
G04 Gerber Fmt 4.6, Leading zero omitted, Abs format (unit mm)*
G04 Created by KiCad (PCBNEW (5.1.5)-3) date 2020-04-27 22:16:45*
%MOMM*%
%LPD*%
G04 APERTURE LIST*
%ADD10C,0.100000*%
G04 APERTURE END LIST*
D10*
G36*
X54237000Y-85606000D02*
G01*
X51935000Y-85606000D01*
X51935000Y-83304000D01*
X54237000Y-83304000D01*
X54237000Y-85606000D01*
G37*
G36*
X43150549Y-83326116D02*
G01*
X43261734Y-83348232D01*
X43471203Y-83434997D01*
X43659720Y-83560960D01*
X43820040Y-83721280D01*
X43946003Y-83909797D01*
X44032768Y-84119266D01*
X44077000Y-84341636D01*
X44077000Y-84568364D01*
X44032768Y-84790734D01*
X43946003Y-85000203D01*
X43820040Y-85188720D01*
X43659720Y-85349040D01*
X43471203Y-85475003D01*
X43261734Y-85561768D01*
X43150549Y-85583884D01*
X43039365Y-85606000D01*
X42812635Y-85606000D01*
X42701451Y-85583884D01*
X42590266Y-85561768D01*
X42380797Y-85475003D01*
X42192280Y-85349040D01*
X42031960Y-85188720D01*
X41905997Y-85000203D01*
X41819232Y-84790734D01*
X41775000Y-84568364D01*
X41775000Y-84341636D01*
X41819232Y-84119266D01*
X41905997Y-83909797D01*
X42031960Y-83721280D01*
X42192280Y-83560960D01*
X42380797Y-83434997D01*
X42590266Y-83348232D01*
X42701451Y-83326116D01*
X42812635Y-83304000D01*
X43039365Y-83304000D01*
X43150549Y-83326116D01*
G37*
G36*
X30180000Y-84409000D02*
G01*
X27478000Y-84409000D01*
X27478000Y-81707000D01*
X30180000Y-81707000D01*
X30180000Y-84409000D01*
G37*
G36*
X43174228Y-79572703D02*
G01*
X43329100Y-79636853D01*
X43468481Y-79729985D01*
X43587015Y-79848519D01*
X43680147Y-79987900D01*
X43744297Y-80142772D01*
X43777000Y-80307184D01*
X43777000Y-80474816D01*
X43744297Y-80639228D01*
X43680147Y-80794100D01*
X43587015Y-80933481D01*
X43468481Y-81052015D01*
X43329100Y-81145147D01*
X43174228Y-81209297D01*
X43009816Y-81242000D01*
X42842184Y-81242000D01*
X42677772Y-81209297D01*
X42522900Y-81145147D01*
X42383519Y-81052015D01*
X42264985Y-80933481D01*
X42171853Y-80794100D01*
X42107703Y-80639228D01*
X42075000Y-80474816D01*
X42075000Y-80307184D01*
X42107703Y-80142772D01*
X42171853Y-79987900D01*
X42264985Y-79848519D01*
X42383519Y-79729985D01*
X42522900Y-79636853D01*
X42677772Y-79572703D01*
X42842184Y-79540000D01*
X43009816Y-79540000D01*
X43174228Y-79572703D01*
G37*
G36*
X38094228Y-79572703D02*
G01*
X38249100Y-79636853D01*
X38388481Y-79729985D01*
X38507015Y-79848519D01*
X38600147Y-79987900D01*
X38664297Y-80142772D01*
X38697000Y-80307184D01*
X38697000Y-80474816D01*
X38664297Y-80639228D01*
X38600147Y-80794100D01*
X38507015Y-80933481D01*
X38388481Y-81052015D01*
X38249100Y-81145147D01*
X38094228Y-81209297D01*
X37929816Y-81242000D01*
X37762184Y-81242000D01*
X37597772Y-81209297D01*
X37442900Y-81145147D01*
X37303519Y-81052015D01*
X37184985Y-80933481D01*
X37091853Y-80794100D01*
X37027703Y-80639228D01*
X36995000Y-80474816D01*
X36995000Y-80307184D01*
X37027703Y-80142772D01*
X37091853Y-79987900D01*
X37184985Y-79848519D01*
X37303519Y-79729985D01*
X37442900Y-79636853D01*
X37597772Y-79572703D01*
X37762184Y-79540000D01*
X37929816Y-79540000D01*
X38094228Y-79572703D01*
G37*
G36*
X62224228Y-79032703D02*
G01*
X62379100Y-79096853D01*
X62518481Y-79189985D01*
X62637015Y-79308519D01*
X62730147Y-79447900D01*
X62794297Y-79602772D01*
X62827000Y-79767184D01*
X62827000Y-79934816D01*
X62794297Y-80099228D01*
X62730147Y-80254100D01*
X62637015Y-80393481D01*
X62518481Y-80512015D01*
X62379100Y-80605147D01*
X62224228Y-80669297D01*
X62059816Y-80702000D01*
X61892184Y-80702000D01*
X61727772Y-80669297D01*
X61572900Y-80605147D01*
X61433519Y-80512015D01*
X61314985Y-80393481D01*
X61221853Y-80254100D01*
X61157703Y-80099228D01*
X61125000Y-79934816D01*
X61125000Y-79767184D01*
X61157703Y-79602772D01*
X61221853Y-79447900D01*
X61314985Y-79308519D01*
X61433519Y-79189985D01*
X61572900Y-79096853D01*
X61727772Y-79032703D01*
X61892184Y-79000000D01*
X62059816Y-79000000D01*
X62224228Y-79032703D01*
G37*
G36*
X75686228Y-78008703D02*
G01*
X75841100Y-78072853D01*
X75980481Y-78165985D01*
X76099015Y-78284519D01*
X76192147Y-78423900D01*
X76256297Y-78578772D01*
X76289000Y-78743184D01*
X76289000Y-78910816D01*
X76256297Y-79075228D01*
X76192147Y-79230100D01*
X76099015Y-79369481D01*
X75980481Y-79488015D01*
X75841100Y-79581147D01*
X75686228Y-79645297D01*
X75521816Y-79678000D01*
X75354184Y-79678000D01*
X75189772Y-79645297D01*
X75034900Y-79581147D01*
X74895519Y-79488015D01*
X74776985Y-79369481D01*
X74683853Y-79230100D01*
X74619703Y-79075228D01*
X74587000Y-78910816D01*
X74587000Y-78743184D01*
X74619703Y-78578772D01*
X74683853Y-78423900D01*
X74776985Y-78284519D01*
X74895519Y-78165985D01*
X75034900Y-78072853D01*
X75189772Y-78008703D01*
X75354184Y-77976000D01*
X75521816Y-77976000D01*
X75686228Y-78008703D01*
G37*
G36*
X29223072Y-76678918D02*
G01*
X29468939Y-76780759D01*
X29580328Y-76855187D01*
X29690211Y-76928609D01*
X29878391Y-77116789D01*
X30026242Y-77338063D01*
X30128082Y-77583928D01*
X30180000Y-77844937D01*
X30180000Y-78111063D01*
X30128082Y-78372072D01*
X30026242Y-78617937D01*
X29878391Y-78839211D01*
X29690211Y-79027391D01*
X29586256Y-79096852D01*
X29468939Y-79175241D01*
X29468938Y-79175242D01*
X29468937Y-79175242D01*
X29223072Y-79277082D01*
X28962063Y-79329000D01*
X28695937Y-79329000D01*
X28434928Y-79277082D01*
X28189063Y-79175242D01*
X28189062Y-79175242D01*
X28189061Y-79175241D01*
X28071744Y-79096852D01*
X27967789Y-79027391D01*
X27779609Y-78839211D01*
X27631758Y-78617937D01*
X27529918Y-78372072D01*
X27478000Y-78111063D01*
X27478000Y-77844937D01*
X27529918Y-77583928D01*
X27631758Y-77338063D01*
X27779609Y-77116789D01*
X27967789Y-76928609D01*
X28077672Y-76855187D01*
X28189061Y-76780759D01*
X28434928Y-76678918D01*
X28695937Y-76627000D01*
X28962063Y-76627000D01*
X29223072Y-76678918D01*
G37*
G36*
X62827000Y-78702000D02*
G01*
X61125000Y-78702000D01*
X61125000Y-77000000D01*
X62827000Y-77000000D01*
X62827000Y-78702000D01*
G37*
G36*
X76289000Y-77178000D02*
G01*
X74587000Y-77178000D01*
X74587000Y-75476000D01*
X76289000Y-75476000D01*
X76289000Y-77178000D01*
G37*
G36*
X29223072Y-71598918D02*
G01*
X29468939Y-71700759D01*
X29580328Y-71775187D01*
X29690211Y-71848609D01*
X29878391Y-72036789D01*
X30026242Y-72258063D01*
X30128082Y-72503928D01*
X30180000Y-72764938D01*
X30180000Y-73031062D01*
X30128082Y-73292072D01*
X30026241Y-73537939D01*
X29878390Y-73759212D01*
X29690212Y-73947390D01*
X29468939Y-74095241D01*
X29468938Y-74095242D01*
X29468937Y-74095242D01*
X29223072Y-74197082D01*
X28962063Y-74249000D01*
X28695937Y-74249000D01*
X28434928Y-74197082D01*
X28189063Y-74095242D01*
X28189062Y-74095242D01*
X28189061Y-74095241D01*
X27967788Y-73947390D01*
X27779610Y-73759212D01*
X27631759Y-73537939D01*
X27529918Y-73292072D01*
X27478000Y-73031062D01*
X27478000Y-72764938D01*
X27529918Y-72503928D01*
X27631758Y-72258063D01*
X27779609Y-72036789D01*
X27967789Y-71848609D01*
X28077672Y-71775187D01*
X28189061Y-71700759D01*
X28434928Y-71598918D01*
X28695937Y-71547000D01*
X28962063Y-71547000D01*
X29223072Y-71598918D01*
G37*
G36*
X65982719Y-71226520D02*
G01*
X66171880Y-71283901D01*
X66171883Y-71283902D01*
X66264333Y-71333318D01*
X66346212Y-71377083D01*
X66499015Y-71502485D01*
X66624417Y-71655288D01*
X66717599Y-71829619D01*
X66774980Y-72018780D01*
X66789500Y-72166206D01*
X66789500Y-72359793D01*
X66774980Y-72507219D01*
X66717599Y-72696380D01*
X66717598Y-72696383D01*
X66680955Y-72764937D01*
X66624417Y-72870712D01*
X66499015Y-73023515D01*
X66346212Y-73148917D01*
X66171881Y-73242099D01*
X65982720Y-73299480D01*
X65786000Y-73318855D01*
X65589281Y-73299480D01*
X65400120Y-73242099D01*
X65225788Y-73148917D01*
X65072985Y-73023515D01*
X64947583Y-72870712D01*
X64854401Y-72696381D01*
X64797020Y-72507220D01*
X64782500Y-72359794D01*
X64782500Y-72166207D01*
X64797020Y-72018781D01*
X64854401Y-71829620D01*
X64854402Y-71829617D01*
X64903818Y-71737167D01*
X64947583Y-71655288D01*
X65072985Y-71502485D01*
X65225788Y-71377083D01*
X65400119Y-71283901D01*
X65589280Y-71226520D01*
X65786000Y-71207145D01*
X65982719Y-71226520D01*
G37*
G36*
X68522719Y-71226520D02*
G01*
X68711880Y-71283901D01*
X68711883Y-71283902D01*
X68804333Y-71333318D01*
X68886212Y-71377083D01*
X69039015Y-71502485D01*
X69164417Y-71655288D01*
X69257599Y-71829619D01*
X69314980Y-72018780D01*
X69329500Y-72166206D01*
X69329500Y-72359793D01*
X69314980Y-72507219D01*
X69257599Y-72696380D01*
X69257598Y-72696383D01*
X69220955Y-72764937D01*
X69164417Y-72870712D01*
X69039015Y-73023515D01*
X68886212Y-73148917D01*
X68711881Y-73242099D01*
X68522720Y-73299480D01*
X68326000Y-73318855D01*
X68129281Y-73299480D01*
X67940120Y-73242099D01*
X67765788Y-73148917D01*
X67612985Y-73023515D01*
X67487583Y-72870712D01*
X67394401Y-72696381D01*
X67337020Y-72507220D01*
X67322500Y-72359794D01*
X67322500Y-72166207D01*
X67337020Y-72018781D01*
X67394401Y-71829620D01*
X67394402Y-71829617D01*
X67443818Y-71737167D01*
X67487583Y-71655288D01*
X67612985Y-71502485D01*
X67765788Y-71377083D01*
X67940119Y-71283901D01*
X68129280Y-71226520D01*
X68326000Y-71207145D01*
X68522719Y-71226520D01*
G37*
G36*
X64249500Y-73314000D02*
G01*
X62242500Y-73314000D01*
X62242500Y-71212000D01*
X64249500Y-71212000D01*
X64249500Y-73314000D01*
G37*
G36*
X41713728Y-65793203D02*
G01*
X41868600Y-65857353D01*
X42007981Y-65950485D01*
X42126515Y-66069019D01*
X42219647Y-66208400D01*
X42283797Y-66363272D01*
X42316500Y-66527684D01*
X42316500Y-66695316D01*
X42283797Y-66859728D01*
X42219647Y-67014600D01*
X42126515Y-67153981D01*
X42007981Y-67272515D01*
X41868600Y-67365647D01*
X41713728Y-67429797D01*
X41549316Y-67462500D01*
X41381684Y-67462500D01*
X41217272Y-67429797D01*
X41062400Y-67365647D01*
X40923019Y-67272515D01*
X40804485Y-67153981D01*
X40711353Y-67014600D01*
X40647203Y-66859728D01*
X40614500Y-66695316D01*
X40614500Y-66527684D01*
X40647203Y-66363272D01*
X40711353Y-66208400D01*
X40804485Y-66069019D01*
X40923019Y-65950485D01*
X41062400Y-65857353D01*
X41217272Y-65793203D01*
X41381684Y-65760500D01*
X41549316Y-65760500D01*
X41713728Y-65793203D01*
G37*
G36*
X21393728Y-65793203D02*
G01*
X21548600Y-65857353D01*
X21687981Y-65950485D01*
X21806515Y-66069019D01*
X21899647Y-66208400D01*
X21963797Y-66363272D01*
X21996500Y-66527684D01*
X21996500Y-66695316D01*
X21963797Y-66859728D01*
X21899647Y-67014600D01*
X21806515Y-67153981D01*
X21687981Y-67272515D01*
X21548600Y-67365647D01*
X21393728Y-67429797D01*
X21229316Y-67462500D01*
X21061684Y-67462500D01*
X20897272Y-67429797D01*
X20742400Y-67365647D01*
X20603019Y-67272515D01*
X20484485Y-67153981D01*
X20391353Y-67014600D01*
X20327203Y-66859728D01*
X20294500Y-66695316D01*
X20294500Y-66527684D01*
X20327203Y-66363272D01*
X20391353Y-66208400D01*
X20484485Y-66069019D01*
X20603019Y-65950485D01*
X20742400Y-65857353D01*
X20897272Y-65793203D01*
X21061684Y-65760500D01*
X21229316Y-65760500D01*
X21393728Y-65793203D01*
G37*
G36*
X26473728Y-65793203D02*
G01*
X26628600Y-65857353D01*
X26767981Y-65950485D01*
X26886515Y-66069019D01*
X26979647Y-66208400D01*
X27043797Y-66363272D01*
X27076500Y-66527684D01*
X27076500Y-66695316D01*
X27043797Y-66859728D01*
X26979647Y-67014600D01*
X26886515Y-67153981D01*
X26767981Y-67272515D01*
X26628600Y-67365647D01*
X26473728Y-67429797D01*
X26309316Y-67462500D01*
X26141684Y-67462500D01*
X25977272Y-67429797D01*
X25822400Y-67365647D01*
X25683019Y-67272515D01*
X25564485Y-67153981D01*
X25471353Y-67014600D01*
X25407203Y-66859728D01*
X25374500Y-66695316D01*
X25374500Y-66527684D01*
X25407203Y-66363272D01*
X25471353Y-66208400D01*
X25564485Y-66069019D01*
X25683019Y-65950485D01*
X25822400Y-65857353D01*
X25977272Y-65793203D01*
X26141684Y-65760500D01*
X26309316Y-65760500D01*
X26473728Y-65793203D01*
G37*
G36*
X23933728Y-65793203D02*
G01*
X24088600Y-65857353D01*
X24227981Y-65950485D01*
X24346515Y-66069019D01*
X24439647Y-66208400D01*
X24503797Y-66363272D01*
X24536500Y-66527684D01*
X24536500Y-66695316D01*
X24503797Y-66859728D01*
X24439647Y-67014600D01*
X24346515Y-67153981D01*
X24227981Y-67272515D01*
X24088600Y-67365647D01*
X23933728Y-67429797D01*
X23769316Y-67462500D01*
X23601684Y-67462500D01*
X23437272Y-67429797D01*
X23282400Y-67365647D01*
X23143019Y-67272515D01*
X23024485Y-67153981D01*
X22931353Y-67014600D01*
X22867203Y-66859728D01*
X22834500Y-66695316D01*
X22834500Y-66527684D01*
X22867203Y-66363272D01*
X22931353Y-66208400D01*
X23024485Y-66069019D01*
X23143019Y-65950485D01*
X23282400Y-65857353D01*
X23437272Y-65793203D01*
X23601684Y-65760500D01*
X23769316Y-65760500D01*
X23933728Y-65793203D01*
G37*
G36*
X29013728Y-65793203D02*
G01*
X29168600Y-65857353D01*
X29307981Y-65950485D01*
X29426515Y-66069019D01*
X29519647Y-66208400D01*
X29583797Y-66363272D01*
X29616500Y-66527684D01*
X29616500Y-66695316D01*
X29583797Y-66859728D01*
X29519647Y-67014600D01*
X29426515Y-67153981D01*
X29307981Y-67272515D01*
X29168600Y-67365647D01*
X29013728Y-67429797D01*
X28849316Y-67462500D01*
X28681684Y-67462500D01*
X28517272Y-67429797D01*
X28362400Y-67365647D01*
X28223019Y-67272515D01*
X28104485Y-67153981D01*
X28011353Y-67014600D01*
X27947203Y-66859728D01*
X27914500Y-66695316D01*
X27914500Y-66527684D01*
X27947203Y-66363272D01*
X28011353Y-66208400D01*
X28104485Y-66069019D01*
X28223019Y-65950485D01*
X28362400Y-65857353D01*
X28517272Y-65793203D01*
X28681684Y-65760500D01*
X28849316Y-65760500D01*
X29013728Y-65793203D01*
G37*
G36*
X56953728Y-65793203D02*
G01*
X57108600Y-65857353D01*
X57247981Y-65950485D01*
X57366515Y-66069019D01*
X57459647Y-66208400D01*
X57523797Y-66363272D01*
X57556500Y-66527684D01*
X57556500Y-66695316D01*
X57523797Y-66859728D01*
X57459647Y-67014600D01*
X57366515Y-67153981D01*
X57247981Y-67272515D01*
X57108600Y-67365647D01*
X56953728Y-67429797D01*
X56789316Y-67462500D01*
X56621684Y-67462500D01*
X56457272Y-67429797D01*
X56302400Y-67365647D01*
X56163019Y-67272515D01*
X56044485Y-67153981D01*
X55951353Y-67014600D01*
X55887203Y-66859728D01*
X55854500Y-66695316D01*
X55854500Y-66527684D01*
X55887203Y-66363272D01*
X55951353Y-66208400D01*
X56044485Y-66069019D01*
X56163019Y-65950485D01*
X56302400Y-65857353D01*
X56457272Y-65793203D01*
X56621684Y-65760500D01*
X56789316Y-65760500D01*
X56953728Y-65793203D01*
G37*
G36*
X54413728Y-65793203D02*
G01*
X54568600Y-65857353D01*
X54707981Y-65950485D01*
X54826515Y-66069019D01*
X54919647Y-66208400D01*
X54983797Y-66363272D01*
X55016500Y-66527684D01*
X55016500Y-66695316D01*
X54983797Y-66859728D01*
X54919647Y-67014600D01*
X54826515Y-67153981D01*
X54707981Y-67272515D01*
X54568600Y-67365647D01*
X54413728Y-67429797D01*
X54249316Y-67462500D01*
X54081684Y-67462500D01*
X53917272Y-67429797D01*
X53762400Y-67365647D01*
X53623019Y-67272515D01*
X53504485Y-67153981D01*
X53411353Y-67014600D01*
X53347203Y-66859728D01*
X53314500Y-66695316D01*
X53314500Y-66527684D01*
X53347203Y-66363272D01*
X53411353Y-66208400D01*
X53504485Y-66069019D01*
X53623019Y-65950485D01*
X53762400Y-65857353D01*
X53917272Y-65793203D01*
X54081684Y-65760500D01*
X54249316Y-65760500D01*
X54413728Y-65793203D01*
G37*
G36*
X51873728Y-65793203D02*
G01*
X52028600Y-65857353D01*
X52167981Y-65950485D01*
X52286515Y-66069019D01*
X52379647Y-66208400D01*
X52443797Y-66363272D01*
X52476500Y-66527684D01*
X52476500Y-66695316D01*
X52443797Y-66859728D01*
X52379647Y-67014600D01*
X52286515Y-67153981D01*
X52167981Y-67272515D01*
X52028600Y-67365647D01*
X51873728Y-67429797D01*
X51709316Y-67462500D01*
X51541684Y-67462500D01*
X51377272Y-67429797D01*
X51222400Y-67365647D01*
X51083019Y-67272515D01*
X50964485Y-67153981D01*
X50871353Y-67014600D01*
X50807203Y-66859728D01*
X50774500Y-66695316D01*
X50774500Y-66527684D01*
X50807203Y-66363272D01*
X50871353Y-66208400D01*
X50964485Y-66069019D01*
X51083019Y-65950485D01*
X51222400Y-65857353D01*
X51377272Y-65793203D01*
X51541684Y-65760500D01*
X51709316Y-65760500D01*
X51873728Y-65793203D01*
G37*
G36*
X49333728Y-65793203D02*
G01*
X49488600Y-65857353D01*
X49627981Y-65950485D01*
X49746515Y-66069019D01*
X49839647Y-66208400D01*
X49903797Y-66363272D01*
X49936500Y-66527684D01*
X49936500Y-66695316D01*
X49903797Y-66859728D01*
X49839647Y-67014600D01*
X49746515Y-67153981D01*
X49627981Y-67272515D01*
X49488600Y-67365647D01*
X49333728Y-67429797D01*
X49169316Y-67462500D01*
X49001684Y-67462500D01*
X48837272Y-67429797D01*
X48682400Y-67365647D01*
X48543019Y-67272515D01*
X48424485Y-67153981D01*
X48331353Y-67014600D01*
X48267203Y-66859728D01*
X48234500Y-66695316D01*
X48234500Y-66527684D01*
X48267203Y-66363272D01*
X48331353Y-66208400D01*
X48424485Y-66069019D01*
X48543019Y-65950485D01*
X48682400Y-65857353D01*
X48837272Y-65793203D01*
X49001684Y-65760500D01*
X49169316Y-65760500D01*
X49333728Y-65793203D01*
G37*
G36*
X46793728Y-65793203D02*
G01*
X46948600Y-65857353D01*
X47087981Y-65950485D01*
X47206515Y-66069019D01*
X47299647Y-66208400D01*
X47363797Y-66363272D01*
X47396500Y-66527684D01*
X47396500Y-66695316D01*
X47363797Y-66859728D01*
X47299647Y-67014600D01*
X47206515Y-67153981D01*
X47087981Y-67272515D01*
X46948600Y-67365647D01*
X46793728Y-67429797D01*
X46629316Y-67462500D01*
X46461684Y-67462500D01*
X46297272Y-67429797D01*
X46142400Y-67365647D01*
X46003019Y-67272515D01*
X45884485Y-67153981D01*
X45791353Y-67014600D01*
X45727203Y-66859728D01*
X45694500Y-66695316D01*
X45694500Y-66527684D01*
X45727203Y-66363272D01*
X45791353Y-66208400D01*
X45884485Y-66069019D01*
X46003019Y-65950485D01*
X46142400Y-65857353D01*
X46297272Y-65793203D01*
X46461684Y-65760500D01*
X46629316Y-65760500D01*
X46793728Y-65793203D01*
G37*
G36*
X44253728Y-65793203D02*
G01*
X44408600Y-65857353D01*
X44547981Y-65950485D01*
X44666515Y-66069019D01*
X44759647Y-66208400D01*
X44823797Y-66363272D01*
X44856500Y-66527684D01*
X44856500Y-66695316D01*
X44823797Y-66859728D01*
X44759647Y-67014600D01*
X44666515Y-67153981D01*
X44547981Y-67272515D01*
X44408600Y-67365647D01*
X44253728Y-67429797D01*
X44089316Y-67462500D01*
X43921684Y-67462500D01*
X43757272Y-67429797D01*
X43602400Y-67365647D01*
X43463019Y-67272515D01*
X43344485Y-67153981D01*
X43251353Y-67014600D01*
X43187203Y-66859728D01*
X43154500Y-66695316D01*
X43154500Y-66527684D01*
X43187203Y-66363272D01*
X43251353Y-66208400D01*
X43344485Y-66069019D01*
X43463019Y-65950485D01*
X43602400Y-65857353D01*
X43757272Y-65793203D01*
X43921684Y-65760500D01*
X44089316Y-65760500D01*
X44253728Y-65793203D01*
G37*
G36*
X31553728Y-65793203D02*
G01*
X31708600Y-65857353D01*
X31847981Y-65950485D01*
X31966515Y-66069019D01*
X32059647Y-66208400D01*
X32123797Y-66363272D01*
X32156500Y-66527684D01*
X32156500Y-66695316D01*
X32123797Y-66859728D01*
X32059647Y-67014600D01*
X31966515Y-67153981D01*
X31847981Y-67272515D01*
X31708600Y-67365647D01*
X31553728Y-67429797D01*
X31389316Y-67462500D01*
X31221684Y-67462500D01*
X31057272Y-67429797D01*
X30902400Y-67365647D01*
X30763019Y-67272515D01*
X30644485Y-67153981D01*
X30551353Y-67014600D01*
X30487203Y-66859728D01*
X30454500Y-66695316D01*
X30454500Y-66527684D01*
X30487203Y-66363272D01*
X30551353Y-66208400D01*
X30644485Y-66069019D01*
X30763019Y-65950485D01*
X30902400Y-65857353D01*
X31057272Y-65793203D01*
X31221684Y-65760500D01*
X31389316Y-65760500D01*
X31553728Y-65793203D01*
G37*
G36*
X34093728Y-65793203D02*
G01*
X34248600Y-65857353D01*
X34387981Y-65950485D01*
X34506515Y-66069019D01*
X34599647Y-66208400D01*
X34663797Y-66363272D01*
X34696500Y-66527684D01*
X34696500Y-66695316D01*
X34663797Y-66859728D01*
X34599647Y-67014600D01*
X34506515Y-67153981D01*
X34387981Y-67272515D01*
X34248600Y-67365647D01*
X34093728Y-67429797D01*
X33929316Y-67462500D01*
X33761684Y-67462500D01*
X33597272Y-67429797D01*
X33442400Y-67365647D01*
X33303019Y-67272515D01*
X33184485Y-67153981D01*
X33091353Y-67014600D01*
X33027203Y-66859728D01*
X32994500Y-66695316D01*
X32994500Y-66527684D01*
X33027203Y-66363272D01*
X33091353Y-66208400D01*
X33184485Y-66069019D01*
X33303019Y-65950485D01*
X33442400Y-65857353D01*
X33597272Y-65793203D01*
X33761684Y-65760500D01*
X33929316Y-65760500D01*
X34093728Y-65793203D01*
G37*
G36*
X36633728Y-65793203D02*
G01*
X36788600Y-65857353D01*
X36927981Y-65950485D01*
X37046515Y-66069019D01*
X37139647Y-66208400D01*
X37203797Y-66363272D01*
X37236500Y-66527684D01*
X37236500Y-66695316D01*
X37203797Y-66859728D01*
X37139647Y-67014600D01*
X37046515Y-67153981D01*
X36927981Y-67272515D01*
X36788600Y-67365647D01*
X36633728Y-67429797D01*
X36469316Y-67462500D01*
X36301684Y-67462500D01*
X36137272Y-67429797D01*
X35982400Y-67365647D01*
X35843019Y-67272515D01*
X35724485Y-67153981D01*
X35631353Y-67014600D01*
X35567203Y-66859728D01*
X35534500Y-66695316D01*
X35534500Y-66527684D01*
X35567203Y-66363272D01*
X35631353Y-66208400D01*
X35724485Y-66069019D01*
X35843019Y-65950485D01*
X35982400Y-65857353D01*
X36137272Y-65793203D01*
X36301684Y-65760500D01*
X36469316Y-65760500D01*
X36633728Y-65793203D01*
G37*
G36*
X39173728Y-65793203D02*
G01*
X39328600Y-65857353D01*
X39467981Y-65950485D01*
X39586515Y-66069019D01*
X39679647Y-66208400D01*
X39743797Y-66363272D01*
X39776500Y-66527684D01*
X39776500Y-66695316D01*
X39743797Y-66859728D01*
X39679647Y-67014600D01*
X39586515Y-67153981D01*
X39467981Y-67272515D01*
X39328600Y-67365647D01*
X39173728Y-67429797D01*
X39009316Y-67462500D01*
X38841684Y-67462500D01*
X38677272Y-67429797D01*
X38522400Y-67365647D01*
X38383019Y-67272515D01*
X38264485Y-67153981D01*
X38171353Y-67014600D01*
X38107203Y-66859728D01*
X38074500Y-66695316D01*
X38074500Y-66527684D01*
X38107203Y-66363272D01*
X38171353Y-66208400D01*
X38264485Y-66069019D01*
X38383019Y-65950485D01*
X38522400Y-65857353D01*
X38677272Y-65793203D01*
X38841684Y-65760500D01*
X39009316Y-65760500D01*
X39173728Y-65793203D01*
G37*
G36*
X31553728Y-50553203D02*
G01*
X31708600Y-50617353D01*
X31847981Y-50710485D01*
X31966515Y-50829019D01*
X32059647Y-50968400D01*
X32123797Y-51123272D01*
X32156500Y-51287684D01*
X32156500Y-51455316D01*
X32123797Y-51619728D01*
X32059647Y-51774600D01*
X31966515Y-51913981D01*
X31847981Y-52032515D01*
X31708600Y-52125647D01*
X31553728Y-52189797D01*
X31389316Y-52222500D01*
X31221684Y-52222500D01*
X31057272Y-52189797D01*
X30902400Y-52125647D01*
X30763019Y-52032515D01*
X30644485Y-51913981D01*
X30551353Y-51774600D01*
X30487203Y-51619728D01*
X30454500Y-51455316D01*
X30454500Y-51287684D01*
X30487203Y-51123272D01*
X30551353Y-50968400D01*
X30644485Y-50829019D01*
X30763019Y-50710485D01*
X30902400Y-50617353D01*
X31057272Y-50553203D01*
X31221684Y-50520500D01*
X31389316Y-50520500D01*
X31553728Y-50553203D01*
G37*
G36*
X54413728Y-50553203D02*
G01*
X54568600Y-50617353D01*
X54707981Y-50710485D01*
X54826515Y-50829019D01*
X54919647Y-50968400D01*
X54983797Y-51123272D01*
X55016500Y-51287684D01*
X55016500Y-51455316D01*
X54983797Y-51619728D01*
X54919647Y-51774600D01*
X54826515Y-51913981D01*
X54707981Y-52032515D01*
X54568600Y-52125647D01*
X54413728Y-52189797D01*
X54249316Y-52222500D01*
X54081684Y-52222500D01*
X53917272Y-52189797D01*
X53762400Y-52125647D01*
X53623019Y-52032515D01*
X53504485Y-51913981D01*
X53411353Y-51774600D01*
X53347203Y-51619728D01*
X53314500Y-51455316D01*
X53314500Y-51287684D01*
X53347203Y-51123272D01*
X53411353Y-50968400D01*
X53504485Y-50829019D01*
X53623019Y-50710485D01*
X53762400Y-50617353D01*
X53917272Y-50553203D01*
X54081684Y-50520500D01*
X54249316Y-50520500D01*
X54413728Y-50553203D01*
G37*
G36*
X21393728Y-50553203D02*
G01*
X21548600Y-50617353D01*
X21687981Y-50710485D01*
X21806515Y-50829019D01*
X21899647Y-50968400D01*
X21963797Y-51123272D01*
X21996500Y-51287684D01*
X21996500Y-51455316D01*
X21963797Y-51619728D01*
X21899647Y-51774600D01*
X21806515Y-51913981D01*
X21687981Y-52032515D01*
X21548600Y-52125647D01*
X21393728Y-52189797D01*
X21229316Y-52222500D01*
X21061684Y-52222500D01*
X20897272Y-52189797D01*
X20742400Y-52125647D01*
X20603019Y-52032515D01*
X20484485Y-51913981D01*
X20391353Y-51774600D01*
X20327203Y-51619728D01*
X20294500Y-51455316D01*
X20294500Y-51287684D01*
X20327203Y-51123272D01*
X20391353Y-50968400D01*
X20484485Y-50829019D01*
X20603019Y-50710485D01*
X20742400Y-50617353D01*
X20897272Y-50553203D01*
X21061684Y-50520500D01*
X21229316Y-50520500D01*
X21393728Y-50553203D01*
G37*
G36*
X51873728Y-50553203D02*
G01*
X52028600Y-50617353D01*
X52167981Y-50710485D01*
X52286515Y-50829019D01*
X52379647Y-50968400D01*
X52443797Y-51123272D01*
X52476500Y-51287684D01*
X52476500Y-51455316D01*
X52443797Y-51619728D01*
X52379647Y-51774600D01*
X52286515Y-51913981D01*
X52167981Y-52032515D01*
X52028600Y-52125647D01*
X51873728Y-52189797D01*
X51709316Y-52222500D01*
X51541684Y-52222500D01*
X51377272Y-52189797D01*
X51222400Y-52125647D01*
X51083019Y-52032515D01*
X50964485Y-51913981D01*
X50871353Y-51774600D01*
X50807203Y-51619728D01*
X50774500Y-51455316D01*
X50774500Y-51287684D01*
X50807203Y-51123272D01*
X50871353Y-50968400D01*
X50964485Y-50829019D01*
X51083019Y-50710485D01*
X51222400Y-50617353D01*
X51377272Y-50553203D01*
X51541684Y-50520500D01*
X51709316Y-50520500D01*
X51873728Y-50553203D01*
G37*
G36*
X34093728Y-50553203D02*
G01*
X34248600Y-50617353D01*
X34387981Y-50710485D01*
X34506515Y-50829019D01*
X34599647Y-50968400D01*
X34663797Y-51123272D01*
X34696500Y-51287684D01*
X34696500Y-51455316D01*
X34663797Y-51619728D01*
X34599647Y-51774600D01*
X34506515Y-51913981D01*
X34387981Y-52032515D01*
X34248600Y-52125647D01*
X34093728Y-52189797D01*
X33929316Y-52222500D01*
X33761684Y-52222500D01*
X33597272Y-52189797D01*
X33442400Y-52125647D01*
X33303019Y-52032515D01*
X33184485Y-51913981D01*
X33091353Y-51774600D01*
X33027203Y-51619728D01*
X32994500Y-51455316D01*
X32994500Y-51287684D01*
X33027203Y-51123272D01*
X33091353Y-50968400D01*
X33184485Y-50829019D01*
X33303019Y-50710485D01*
X33442400Y-50617353D01*
X33597272Y-50553203D01*
X33761684Y-50520500D01*
X33929316Y-50520500D01*
X34093728Y-50553203D01*
G37*
G36*
X23933728Y-50553203D02*
G01*
X24088600Y-50617353D01*
X24227981Y-50710485D01*
X24346515Y-50829019D01*
X24439647Y-50968400D01*
X24503797Y-51123272D01*
X24536500Y-51287684D01*
X24536500Y-51455316D01*
X24503797Y-51619728D01*
X24439647Y-51774600D01*
X24346515Y-51913981D01*
X24227981Y-52032515D01*
X24088600Y-52125647D01*
X23933728Y-52189797D01*
X23769316Y-52222500D01*
X23601684Y-52222500D01*
X23437272Y-52189797D01*
X23282400Y-52125647D01*
X23143019Y-52032515D01*
X23024485Y-51913981D01*
X22931353Y-51774600D01*
X22867203Y-51619728D01*
X22834500Y-51455316D01*
X22834500Y-51287684D01*
X22867203Y-51123272D01*
X22931353Y-50968400D01*
X23024485Y-50829019D01*
X23143019Y-50710485D01*
X23282400Y-50617353D01*
X23437272Y-50553203D01*
X23601684Y-50520500D01*
X23769316Y-50520500D01*
X23933728Y-50553203D01*
G37*
G36*
X36633728Y-50553203D02*
G01*
X36788600Y-50617353D01*
X36927981Y-50710485D01*
X37046515Y-50829019D01*
X37139647Y-50968400D01*
X37203797Y-51123272D01*
X37236500Y-51287684D01*
X37236500Y-51455316D01*
X37203797Y-51619728D01*
X37139647Y-51774600D01*
X37046515Y-51913981D01*
X36927981Y-52032515D01*
X36788600Y-52125647D01*
X36633728Y-52189797D01*
X36469316Y-52222500D01*
X36301684Y-52222500D01*
X36137272Y-52189797D01*
X35982400Y-52125647D01*
X35843019Y-52032515D01*
X35724485Y-51913981D01*
X35631353Y-51774600D01*
X35567203Y-51619728D01*
X35534500Y-51455316D01*
X35534500Y-51287684D01*
X35567203Y-51123272D01*
X35631353Y-50968400D01*
X35724485Y-50829019D01*
X35843019Y-50710485D01*
X35982400Y-50617353D01*
X36137272Y-50553203D01*
X36301684Y-50520500D01*
X36469316Y-50520500D01*
X36633728Y-50553203D01*
G37*
G36*
X49333728Y-50553203D02*
G01*
X49488600Y-50617353D01*
X49627981Y-50710485D01*
X49746515Y-50829019D01*
X49839647Y-50968400D01*
X49903797Y-51123272D01*
X49936500Y-51287684D01*
X49936500Y-51455316D01*
X49903797Y-51619728D01*
X49839647Y-51774600D01*
X49746515Y-51913981D01*
X49627981Y-52032515D01*
X49488600Y-52125647D01*
X49333728Y-52189797D01*
X49169316Y-52222500D01*
X49001684Y-52222500D01*
X48837272Y-52189797D01*
X48682400Y-52125647D01*
X48543019Y-52032515D01*
X48424485Y-51913981D01*
X48331353Y-51774600D01*
X48267203Y-51619728D01*
X48234500Y-51455316D01*
X48234500Y-51287684D01*
X48267203Y-51123272D01*
X48331353Y-50968400D01*
X48424485Y-50829019D01*
X48543019Y-50710485D01*
X48682400Y-50617353D01*
X48837272Y-50553203D01*
X49001684Y-50520500D01*
X49169316Y-50520500D01*
X49333728Y-50553203D01*
G37*
G36*
X46793728Y-50553203D02*
G01*
X46948600Y-50617353D01*
X47087981Y-50710485D01*
X47206515Y-50829019D01*
X47299647Y-50968400D01*
X47363797Y-51123272D01*
X47396500Y-51287684D01*
X47396500Y-51455316D01*
X47363797Y-51619728D01*
X47299647Y-51774600D01*
X47206515Y-51913981D01*
X47087981Y-52032515D01*
X46948600Y-52125647D01*
X46793728Y-52189797D01*
X46629316Y-52222500D01*
X46461684Y-52222500D01*
X46297272Y-52189797D01*
X46142400Y-52125647D01*
X46003019Y-52032515D01*
X45884485Y-51913981D01*
X45791353Y-51774600D01*
X45727203Y-51619728D01*
X45694500Y-51455316D01*
X45694500Y-51287684D01*
X45727203Y-51123272D01*
X45791353Y-50968400D01*
X45884485Y-50829019D01*
X46003019Y-50710485D01*
X46142400Y-50617353D01*
X46297272Y-50553203D01*
X46461684Y-50520500D01*
X46629316Y-50520500D01*
X46793728Y-50553203D01*
G37*
G36*
X44253728Y-50553203D02*
G01*
X44408600Y-50617353D01*
X44547981Y-50710485D01*
X44666515Y-50829019D01*
X44759647Y-50968400D01*
X44823797Y-51123272D01*
X44856500Y-51287684D01*
X44856500Y-51455316D01*
X44823797Y-51619728D01*
X44759647Y-51774600D01*
X44666515Y-51913981D01*
X44547981Y-52032515D01*
X44408600Y-52125647D01*
X44253728Y-52189797D01*
X44089316Y-52222500D01*
X43921684Y-52222500D01*
X43757272Y-52189797D01*
X43602400Y-52125647D01*
X43463019Y-52032515D01*
X43344485Y-51913981D01*
X43251353Y-51774600D01*
X43187203Y-51619728D01*
X43154500Y-51455316D01*
X43154500Y-51287684D01*
X43187203Y-51123272D01*
X43251353Y-50968400D01*
X43344485Y-50829019D01*
X43463019Y-50710485D01*
X43602400Y-50617353D01*
X43757272Y-50553203D01*
X43921684Y-50520500D01*
X44089316Y-50520500D01*
X44253728Y-50553203D01*
G37*
G36*
X29013728Y-50553203D02*
G01*
X29168600Y-50617353D01*
X29307981Y-50710485D01*
X29426515Y-50829019D01*
X29519647Y-50968400D01*
X29583797Y-51123272D01*
X29616500Y-51287684D01*
X29616500Y-51455316D01*
X29583797Y-51619728D01*
X29519647Y-51774600D01*
X29426515Y-51913981D01*
X29307981Y-52032515D01*
X29168600Y-52125647D01*
X29013728Y-52189797D01*
X28849316Y-52222500D01*
X28681684Y-52222500D01*
X28517272Y-52189797D01*
X28362400Y-52125647D01*
X28223019Y-52032515D01*
X28104485Y-51913981D01*
X28011353Y-51774600D01*
X27947203Y-51619728D01*
X27914500Y-51455316D01*
X27914500Y-51287684D01*
X27947203Y-51123272D01*
X28011353Y-50968400D01*
X28104485Y-50829019D01*
X28223019Y-50710485D01*
X28362400Y-50617353D01*
X28517272Y-50553203D01*
X28681684Y-50520500D01*
X28849316Y-50520500D01*
X29013728Y-50553203D01*
G37*
G36*
X41713728Y-50553203D02*
G01*
X41868600Y-50617353D01*
X42007981Y-50710485D01*
X42126515Y-50829019D01*
X42219647Y-50968400D01*
X42283797Y-51123272D01*
X42316500Y-51287684D01*
X42316500Y-51455316D01*
X42283797Y-51619728D01*
X42219647Y-51774600D01*
X42126515Y-51913981D01*
X42007981Y-52032515D01*
X41868600Y-52125647D01*
X41713728Y-52189797D01*
X41549316Y-52222500D01*
X41381684Y-52222500D01*
X41217272Y-52189797D01*
X41062400Y-52125647D01*
X40923019Y-52032515D01*
X40804485Y-51913981D01*
X40711353Y-51774600D01*
X40647203Y-51619728D01*
X40614500Y-51455316D01*
X40614500Y-51287684D01*
X40647203Y-51123272D01*
X40711353Y-50968400D01*
X40804485Y-50829019D01*
X40923019Y-50710485D01*
X41062400Y-50617353D01*
X41217272Y-50553203D01*
X41381684Y-50520500D01*
X41549316Y-50520500D01*
X41713728Y-50553203D01*
G37*
G36*
X57556500Y-52222500D02*
G01*
X55854500Y-52222500D01*
X55854500Y-50520500D01*
X57556500Y-50520500D01*
X57556500Y-52222500D01*
G37*
G36*
X39173728Y-50553203D02*
G01*
X39328600Y-50617353D01*
X39467981Y-50710485D01*
X39586515Y-50829019D01*
X39679647Y-50968400D01*
X39743797Y-51123272D01*
X39776500Y-51287684D01*
X39776500Y-51455316D01*
X39743797Y-51619728D01*
X39679647Y-51774600D01*
X39586515Y-51913981D01*
X39467981Y-52032515D01*
X39328600Y-52125647D01*
X39173728Y-52189797D01*
X39009316Y-52222500D01*
X38841684Y-52222500D01*
X38677272Y-52189797D01*
X38522400Y-52125647D01*
X38383019Y-52032515D01*
X38264485Y-51913981D01*
X38171353Y-51774600D01*
X38107203Y-51619728D01*
X38074500Y-51455316D01*
X38074500Y-51287684D01*
X38107203Y-51123272D01*
X38171353Y-50968400D01*
X38264485Y-50829019D01*
X38383019Y-50710485D01*
X38522400Y-50617353D01*
X38677272Y-50553203D01*
X38841684Y-50520500D01*
X39009316Y-50520500D01*
X39173728Y-50553203D01*
G37*
G36*
X26473728Y-50553203D02*
G01*
X26628600Y-50617353D01*
X26767981Y-50710485D01*
X26886515Y-50829019D01*
X26979647Y-50968400D01*
X27043797Y-51123272D01*
X27076500Y-51287684D01*
X27076500Y-51455316D01*
X27043797Y-51619728D01*
X26979647Y-51774600D01*
X26886515Y-51913981D01*
X26767981Y-52032515D01*
X26628600Y-52125647D01*
X26473728Y-52189797D01*
X26309316Y-52222500D01*
X26141684Y-52222500D01*
X25977272Y-52189797D01*
X25822400Y-52125647D01*
X25683019Y-52032515D01*
X25564485Y-51913981D01*
X25471353Y-51774600D01*
X25407203Y-51619728D01*
X25374500Y-51455316D01*
X25374500Y-51287684D01*
X25407203Y-51123272D01*
X25471353Y-50968400D01*
X25564485Y-50829019D01*
X25683019Y-50710485D01*
X25822400Y-50617353D01*
X25977272Y-50553203D01*
X26141684Y-50520500D01*
X26309316Y-50520500D01*
X26473728Y-50553203D01*
G37*
G36*
X30459642Y-38218781D02*
G01*
X30605414Y-38279162D01*
X30605416Y-38279163D01*
X30736608Y-38366822D01*
X30848178Y-38478392D01*
X30935837Y-38609584D01*
X30935838Y-38609586D01*
X30996219Y-38755358D01*
X31027000Y-38910107D01*
X31027000Y-39067893D01*
X30996219Y-39222642D01*
X30935838Y-39368414D01*
X30935837Y-39368416D01*
X30848178Y-39499608D01*
X30736608Y-39611178D01*
X30605416Y-39698837D01*
X30605415Y-39698838D01*
X30605414Y-39698838D01*
X30459642Y-39759219D01*
X30304893Y-39790000D01*
X30147107Y-39790000D01*
X29992358Y-39759219D01*
X29846586Y-39698838D01*
X29846585Y-39698838D01*
X29846584Y-39698837D01*
X29715392Y-39611178D01*
X29603822Y-39499608D01*
X29516163Y-39368416D01*
X29516162Y-39368414D01*
X29455781Y-39222642D01*
X29425000Y-39067893D01*
X29425000Y-38910107D01*
X29455781Y-38755358D01*
X29516162Y-38609586D01*
X29516163Y-38609584D01*
X29603822Y-38478392D01*
X29715392Y-38366822D01*
X29846584Y-38279163D01*
X29846586Y-38279162D01*
X29992358Y-38218781D01*
X30147107Y-38188000D01*
X30304893Y-38188000D01*
X30459642Y-38218781D01*
G37*
G36*
X32999642Y-38218781D02*
G01*
X33145414Y-38279162D01*
X33145416Y-38279163D01*
X33276608Y-38366822D01*
X33388178Y-38478392D01*
X33475837Y-38609584D01*
X33475838Y-38609586D01*
X33536219Y-38755358D01*
X33567000Y-38910107D01*
X33567000Y-39067893D01*
X33536219Y-39222642D01*
X33475838Y-39368414D01*
X33475837Y-39368416D01*
X33388178Y-39499608D01*
X33276608Y-39611178D01*
X33145416Y-39698837D01*
X33145415Y-39698838D01*
X33145414Y-39698838D01*
X32999642Y-39759219D01*
X32844893Y-39790000D01*
X32687107Y-39790000D01*
X32532358Y-39759219D01*
X32386586Y-39698838D01*
X32386585Y-39698838D01*
X32386584Y-39698837D01*
X32255392Y-39611178D01*
X32143822Y-39499608D01*
X32056163Y-39368416D01*
X32056162Y-39368414D01*
X31995781Y-39222642D01*
X31965000Y-39067893D01*
X31965000Y-38910107D01*
X31995781Y-38755358D01*
X32056162Y-38609586D01*
X32056163Y-38609584D01*
X32143822Y-38478392D01*
X32255392Y-38366822D01*
X32386584Y-38279163D01*
X32386586Y-38279162D01*
X32532358Y-38218781D01*
X32687107Y-38188000D01*
X32844893Y-38188000D01*
X32999642Y-38218781D01*
G37*
G36*
X35539642Y-38218781D02*
G01*
X35685414Y-38279162D01*
X35685416Y-38279163D01*
X35816608Y-38366822D01*
X35928178Y-38478392D01*
X36015837Y-38609584D01*
X36015838Y-38609586D01*
X36076219Y-38755358D01*
X36107000Y-38910107D01*
X36107000Y-39067893D01*
X36076219Y-39222642D01*
X36015838Y-39368414D01*
X36015837Y-39368416D01*
X35928178Y-39499608D01*
X35816608Y-39611178D01*
X35685416Y-39698837D01*
X35685415Y-39698838D01*
X35685414Y-39698838D01*
X35539642Y-39759219D01*
X35384893Y-39790000D01*
X35227107Y-39790000D01*
X35072358Y-39759219D01*
X34926586Y-39698838D01*
X34926585Y-39698838D01*
X34926584Y-39698837D01*
X34795392Y-39611178D01*
X34683822Y-39499608D01*
X34596163Y-39368416D01*
X34596162Y-39368414D01*
X34535781Y-39222642D01*
X34505000Y-39067893D01*
X34505000Y-38910107D01*
X34535781Y-38755358D01*
X34596162Y-38609586D01*
X34596163Y-38609584D01*
X34683822Y-38478392D01*
X34795392Y-38366822D01*
X34926584Y-38279163D01*
X34926586Y-38279162D01*
X35072358Y-38218781D01*
X35227107Y-38188000D01*
X35384893Y-38188000D01*
X35539642Y-38218781D01*
G37*
G36*
X38079642Y-38218781D02*
G01*
X38225414Y-38279162D01*
X38225416Y-38279163D01*
X38356608Y-38366822D01*
X38468178Y-38478392D01*
X38555837Y-38609584D01*
X38555838Y-38609586D01*
X38616219Y-38755358D01*
X38647000Y-38910107D01*
X38647000Y-39067893D01*
X38616219Y-39222642D01*
X38555838Y-39368414D01*
X38555837Y-39368416D01*
X38468178Y-39499608D01*
X38356608Y-39611178D01*
X38225416Y-39698837D01*
X38225415Y-39698838D01*
X38225414Y-39698838D01*
X38079642Y-39759219D01*
X37924893Y-39790000D01*
X37767107Y-39790000D01*
X37612358Y-39759219D01*
X37466586Y-39698838D01*
X37466585Y-39698838D01*
X37466584Y-39698837D01*
X37335392Y-39611178D01*
X37223822Y-39499608D01*
X37136163Y-39368416D01*
X37136162Y-39368414D01*
X37075781Y-39222642D01*
X37045000Y-39067893D01*
X37045000Y-38910107D01*
X37075781Y-38755358D01*
X37136162Y-38609586D01*
X37136163Y-38609584D01*
X37223822Y-38478392D01*
X37335392Y-38366822D01*
X37466584Y-38279163D01*
X37466586Y-38279162D01*
X37612358Y-38218781D01*
X37767107Y-38188000D01*
X37924893Y-38188000D01*
X38079642Y-38218781D01*
G37*
G36*
X43159642Y-38218781D02*
G01*
X43305414Y-38279162D01*
X43305416Y-38279163D01*
X43436608Y-38366822D01*
X43548178Y-38478392D01*
X43635837Y-38609584D01*
X43635838Y-38609586D01*
X43696219Y-38755358D01*
X43727000Y-38910107D01*
X43727000Y-39067893D01*
X43696219Y-39222642D01*
X43635838Y-39368414D01*
X43635837Y-39368416D01*
X43548178Y-39499608D01*
X43436608Y-39611178D01*
X43305416Y-39698837D01*
X43305415Y-39698838D01*
X43305414Y-39698838D01*
X43159642Y-39759219D01*
X43004893Y-39790000D01*
X42847107Y-39790000D01*
X42692358Y-39759219D01*
X42546586Y-39698838D01*
X42546585Y-39698838D01*
X42546584Y-39698837D01*
X42415392Y-39611178D01*
X42303822Y-39499608D01*
X42216163Y-39368416D01*
X42216162Y-39368414D01*
X42155781Y-39222642D01*
X42125000Y-39067893D01*
X42125000Y-38910107D01*
X42155781Y-38755358D01*
X42216162Y-38609586D01*
X42216163Y-38609584D01*
X42303822Y-38478392D01*
X42415392Y-38366822D01*
X42546584Y-38279163D01*
X42546586Y-38279162D01*
X42692358Y-38218781D01*
X42847107Y-38188000D01*
X43004893Y-38188000D01*
X43159642Y-38218781D01*
G37*
G36*
X45699642Y-38218781D02*
G01*
X45845414Y-38279162D01*
X45845416Y-38279163D01*
X45976608Y-38366822D01*
X46088178Y-38478392D01*
X46175837Y-38609584D01*
X46175838Y-38609586D01*
X46236219Y-38755358D01*
X46267000Y-38910107D01*
X46267000Y-39067893D01*
X46236219Y-39222642D01*
X46175838Y-39368414D01*
X46175837Y-39368416D01*
X46088178Y-39499608D01*
X45976608Y-39611178D01*
X45845416Y-39698837D01*
X45845415Y-39698838D01*
X45845414Y-39698838D01*
X45699642Y-39759219D01*
X45544893Y-39790000D01*
X45387107Y-39790000D01*
X45232358Y-39759219D01*
X45086586Y-39698838D01*
X45086585Y-39698838D01*
X45086584Y-39698837D01*
X44955392Y-39611178D01*
X44843822Y-39499608D01*
X44756163Y-39368416D01*
X44756162Y-39368414D01*
X44695781Y-39222642D01*
X44665000Y-39067893D01*
X44665000Y-38910107D01*
X44695781Y-38755358D01*
X44756162Y-38609586D01*
X44756163Y-38609584D01*
X44843822Y-38478392D01*
X44955392Y-38366822D01*
X45086584Y-38279163D01*
X45086586Y-38279162D01*
X45232358Y-38218781D01*
X45387107Y-38188000D01*
X45544893Y-38188000D01*
X45699642Y-38218781D01*
G37*
G36*
X25947000Y-39790000D02*
G01*
X24345000Y-39790000D01*
X24345000Y-38188000D01*
X25947000Y-38188000D01*
X25947000Y-39790000D01*
G37*
G36*
X27919642Y-38218781D02*
G01*
X28065414Y-38279162D01*
X28065416Y-38279163D01*
X28196608Y-38366822D01*
X28308178Y-38478392D01*
X28395837Y-38609584D01*
X28395838Y-38609586D01*
X28456219Y-38755358D01*
X28487000Y-38910107D01*
X28487000Y-39067893D01*
X28456219Y-39222642D01*
X28395838Y-39368414D01*
X28395837Y-39368416D01*
X28308178Y-39499608D01*
X28196608Y-39611178D01*
X28065416Y-39698837D01*
X28065415Y-39698838D01*
X28065414Y-39698838D01*
X27919642Y-39759219D01*
X27764893Y-39790000D01*
X27607107Y-39790000D01*
X27452358Y-39759219D01*
X27306586Y-39698838D01*
X27306585Y-39698838D01*
X27306584Y-39698837D01*
X27175392Y-39611178D01*
X27063822Y-39499608D01*
X26976163Y-39368416D01*
X26976162Y-39368414D01*
X26915781Y-39222642D01*
X26885000Y-39067893D01*
X26885000Y-38910107D01*
X26915781Y-38755358D01*
X26976162Y-38609586D01*
X26976163Y-38609584D01*
X27063822Y-38478392D01*
X27175392Y-38366822D01*
X27306584Y-38279163D01*
X27306586Y-38279162D01*
X27452358Y-38218781D01*
X27607107Y-38188000D01*
X27764893Y-38188000D01*
X27919642Y-38218781D01*
G37*
G36*
X40619642Y-38218781D02*
G01*
X40765414Y-38279162D01*
X40765416Y-38279163D01*
X40896608Y-38366822D01*
X41008178Y-38478392D01*
X41095837Y-38609584D01*
X41095838Y-38609586D01*
X41156219Y-38755358D01*
X41187000Y-38910107D01*
X41187000Y-39067893D01*
X41156219Y-39222642D01*
X41095838Y-39368414D01*
X41095837Y-39368416D01*
X41008178Y-39499608D01*
X40896608Y-39611178D01*
X40765416Y-39698837D01*
X40765415Y-39698838D01*
X40765414Y-39698838D01*
X40619642Y-39759219D01*
X40464893Y-39790000D01*
X40307107Y-39790000D01*
X40152358Y-39759219D01*
X40006586Y-39698838D01*
X40006585Y-39698838D01*
X40006584Y-39698837D01*
X39875392Y-39611178D01*
X39763822Y-39499608D01*
X39676163Y-39368416D01*
X39676162Y-39368414D01*
X39615781Y-39222642D01*
X39585000Y-39067893D01*
X39585000Y-38910107D01*
X39615781Y-38755358D01*
X39676162Y-38609586D01*
X39676163Y-38609584D01*
X39763822Y-38478392D01*
X39875392Y-38366822D01*
X40006584Y-38279163D01*
X40006586Y-38279162D01*
X40152358Y-38218781D01*
X40307107Y-38188000D01*
X40464893Y-38188000D01*
X40619642Y-38218781D01*
G37*
G36*
X69383000Y-38278000D02*
G01*
X67757000Y-38278000D01*
X67757000Y-36652000D01*
X69383000Y-36652000D01*
X69383000Y-38278000D01*
G37*
G36*
X61207142Y-36683242D02*
G01*
X61355101Y-36744529D01*
X61488255Y-36833499D01*
X61601501Y-36946745D01*
X61690471Y-37079899D01*
X61751758Y-37227858D01*
X61783000Y-37384925D01*
X61783000Y-37545075D01*
X61751758Y-37702142D01*
X61690471Y-37850101D01*
X61601501Y-37983255D01*
X61488255Y-38096501D01*
X61355101Y-38185471D01*
X61207142Y-38246758D01*
X61050075Y-38278000D01*
X60889925Y-38278000D01*
X60732858Y-38246758D01*
X60584899Y-38185471D01*
X60451745Y-38096501D01*
X60338499Y-37983255D01*
X60249529Y-37850101D01*
X60188242Y-37702142D01*
X60157000Y-37545075D01*
X60157000Y-37384925D01*
X60188242Y-37227858D01*
X60249529Y-37079899D01*
X60338499Y-36946745D01*
X60451745Y-36833499D01*
X60584899Y-36744529D01*
X60732858Y-36683242D01*
X60889925Y-36652000D01*
X61050075Y-36652000D01*
X61207142Y-36683242D01*
G37*
G36*
X40619642Y-22978781D02*
G01*
X40765414Y-23039162D01*
X40765416Y-23039163D01*
X40896608Y-23126822D01*
X41008178Y-23238392D01*
X41095837Y-23369584D01*
X41095838Y-23369586D01*
X41156219Y-23515358D01*
X41187000Y-23670107D01*
X41187000Y-23827893D01*
X41156219Y-23982642D01*
X41095838Y-24128414D01*
X41095837Y-24128416D01*
X41008178Y-24259608D01*
X40896608Y-24371178D01*
X40765416Y-24458837D01*
X40765415Y-24458838D01*
X40765414Y-24458838D01*
X40619642Y-24519219D01*
X40464893Y-24550000D01*
X40307107Y-24550000D01*
X40152358Y-24519219D01*
X40006586Y-24458838D01*
X40006585Y-24458838D01*
X40006584Y-24458837D01*
X39875392Y-24371178D01*
X39763822Y-24259608D01*
X39676163Y-24128416D01*
X39676162Y-24128414D01*
X39615781Y-23982642D01*
X39585000Y-23827893D01*
X39585000Y-23670107D01*
X39615781Y-23515358D01*
X39676162Y-23369586D01*
X39676163Y-23369584D01*
X39763822Y-23238392D01*
X39875392Y-23126822D01*
X40006584Y-23039163D01*
X40006586Y-23039162D01*
X40152358Y-22978781D01*
X40307107Y-22948000D01*
X40464893Y-22948000D01*
X40619642Y-22978781D01*
G37*
G36*
X45699642Y-22978781D02*
G01*
X45845414Y-23039162D01*
X45845416Y-23039163D01*
X45976608Y-23126822D01*
X46088178Y-23238392D01*
X46175837Y-23369584D01*
X46175838Y-23369586D01*
X46236219Y-23515358D01*
X46267000Y-23670107D01*
X46267000Y-23827893D01*
X46236219Y-23982642D01*
X46175838Y-24128414D01*
X46175837Y-24128416D01*
X46088178Y-24259608D01*
X45976608Y-24371178D01*
X45845416Y-24458837D01*
X45845415Y-24458838D01*
X45845414Y-24458838D01*
X45699642Y-24519219D01*
X45544893Y-24550000D01*
X45387107Y-24550000D01*
X45232358Y-24519219D01*
X45086586Y-24458838D01*
X45086585Y-24458838D01*
X45086584Y-24458837D01*
X44955392Y-24371178D01*
X44843822Y-24259608D01*
X44756163Y-24128416D01*
X44756162Y-24128414D01*
X44695781Y-23982642D01*
X44665000Y-23827893D01*
X44665000Y-23670107D01*
X44695781Y-23515358D01*
X44756162Y-23369586D01*
X44756163Y-23369584D01*
X44843822Y-23238392D01*
X44955392Y-23126822D01*
X45086584Y-23039163D01*
X45086586Y-23039162D01*
X45232358Y-22978781D01*
X45387107Y-22948000D01*
X45544893Y-22948000D01*
X45699642Y-22978781D01*
G37*
G36*
X25379642Y-22978781D02*
G01*
X25525414Y-23039162D01*
X25525416Y-23039163D01*
X25656608Y-23126822D01*
X25768178Y-23238392D01*
X25855837Y-23369584D01*
X25855838Y-23369586D01*
X25916219Y-23515358D01*
X25947000Y-23670107D01*
X25947000Y-23827893D01*
X25916219Y-23982642D01*
X25855838Y-24128414D01*
X25855837Y-24128416D01*
X25768178Y-24259608D01*
X25656608Y-24371178D01*
X25525416Y-24458837D01*
X25525415Y-24458838D01*
X25525414Y-24458838D01*
X25379642Y-24519219D01*
X25224893Y-24550000D01*
X25067107Y-24550000D01*
X24912358Y-24519219D01*
X24766586Y-24458838D01*
X24766585Y-24458838D01*
X24766584Y-24458837D01*
X24635392Y-24371178D01*
X24523822Y-24259608D01*
X24436163Y-24128416D01*
X24436162Y-24128414D01*
X24375781Y-23982642D01*
X24345000Y-23827893D01*
X24345000Y-23670107D01*
X24375781Y-23515358D01*
X24436162Y-23369586D01*
X24436163Y-23369584D01*
X24523822Y-23238392D01*
X24635392Y-23126822D01*
X24766584Y-23039163D01*
X24766586Y-23039162D01*
X24912358Y-22978781D01*
X25067107Y-22948000D01*
X25224893Y-22948000D01*
X25379642Y-22978781D01*
G37*
G36*
X27919642Y-22978781D02*
G01*
X28065414Y-23039162D01*
X28065416Y-23039163D01*
X28196608Y-23126822D01*
X28308178Y-23238392D01*
X28395837Y-23369584D01*
X28395838Y-23369586D01*
X28456219Y-23515358D01*
X28487000Y-23670107D01*
X28487000Y-23827893D01*
X28456219Y-23982642D01*
X28395838Y-24128414D01*
X28395837Y-24128416D01*
X28308178Y-24259608D01*
X28196608Y-24371178D01*
X28065416Y-24458837D01*
X28065415Y-24458838D01*
X28065414Y-24458838D01*
X27919642Y-24519219D01*
X27764893Y-24550000D01*
X27607107Y-24550000D01*
X27452358Y-24519219D01*
X27306586Y-24458838D01*
X27306585Y-24458838D01*
X27306584Y-24458837D01*
X27175392Y-24371178D01*
X27063822Y-24259608D01*
X26976163Y-24128416D01*
X26976162Y-24128414D01*
X26915781Y-23982642D01*
X26885000Y-23827893D01*
X26885000Y-23670107D01*
X26915781Y-23515358D01*
X26976162Y-23369586D01*
X26976163Y-23369584D01*
X27063822Y-23238392D01*
X27175392Y-23126822D01*
X27306584Y-23039163D01*
X27306586Y-23039162D01*
X27452358Y-22978781D01*
X27607107Y-22948000D01*
X27764893Y-22948000D01*
X27919642Y-22978781D01*
G37*
G36*
X30459642Y-22978781D02*
G01*
X30605414Y-23039162D01*
X30605416Y-23039163D01*
X30736608Y-23126822D01*
X30848178Y-23238392D01*
X30935837Y-23369584D01*
X30935838Y-23369586D01*
X30996219Y-23515358D01*
X31027000Y-23670107D01*
X31027000Y-23827893D01*
X30996219Y-23982642D01*
X30935838Y-24128414D01*
X30935837Y-24128416D01*
X30848178Y-24259608D01*
X30736608Y-24371178D01*
X30605416Y-24458837D01*
X30605415Y-24458838D01*
X30605414Y-24458838D01*
X30459642Y-24519219D01*
X30304893Y-24550000D01*
X30147107Y-24550000D01*
X29992358Y-24519219D01*
X29846586Y-24458838D01*
X29846585Y-24458838D01*
X29846584Y-24458837D01*
X29715392Y-24371178D01*
X29603822Y-24259608D01*
X29516163Y-24128416D01*
X29516162Y-24128414D01*
X29455781Y-23982642D01*
X29425000Y-23827893D01*
X29425000Y-23670107D01*
X29455781Y-23515358D01*
X29516162Y-23369586D01*
X29516163Y-23369584D01*
X29603822Y-23238392D01*
X29715392Y-23126822D01*
X29846584Y-23039163D01*
X29846586Y-23039162D01*
X29992358Y-22978781D01*
X30147107Y-22948000D01*
X30304893Y-22948000D01*
X30459642Y-22978781D01*
G37*
G36*
X43159642Y-22978781D02*
G01*
X43305414Y-23039162D01*
X43305416Y-23039163D01*
X43436608Y-23126822D01*
X43548178Y-23238392D01*
X43635837Y-23369584D01*
X43635838Y-23369586D01*
X43696219Y-23515358D01*
X43727000Y-23670107D01*
X43727000Y-23827893D01*
X43696219Y-23982642D01*
X43635838Y-24128414D01*
X43635837Y-24128416D01*
X43548178Y-24259608D01*
X43436608Y-24371178D01*
X43305416Y-24458837D01*
X43305415Y-24458838D01*
X43305414Y-24458838D01*
X43159642Y-24519219D01*
X43004893Y-24550000D01*
X42847107Y-24550000D01*
X42692358Y-24519219D01*
X42546586Y-24458838D01*
X42546585Y-24458838D01*
X42546584Y-24458837D01*
X42415392Y-24371178D01*
X42303822Y-24259608D01*
X42216163Y-24128416D01*
X42216162Y-24128414D01*
X42155781Y-23982642D01*
X42125000Y-23827893D01*
X42125000Y-23670107D01*
X42155781Y-23515358D01*
X42216162Y-23369586D01*
X42216163Y-23369584D01*
X42303822Y-23238392D01*
X42415392Y-23126822D01*
X42546584Y-23039163D01*
X42546586Y-23039162D01*
X42692358Y-22978781D01*
X42847107Y-22948000D01*
X43004893Y-22948000D01*
X43159642Y-22978781D01*
G37*
G36*
X35539642Y-22978781D02*
G01*
X35685414Y-23039162D01*
X35685416Y-23039163D01*
X35816608Y-23126822D01*
X35928178Y-23238392D01*
X36015837Y-23369584D01*
X36015838Y-23369586D01*
X36076219Y-23515358D01*
X36107000Y-23670107D01*
X36107000Y-23827893D01*
X36076219Y-23982642D01*
X36015838Y-24128414D01*
X36015837Y-24128416D01*
X35928178Y-24259608D01*
X35816608Y-24371178D01*
X35685416Y-24458837D01*
X35685415Y-24458838D01*
X35685414Y-24458838D01*
X35539642Y-24519219D01*
X35384893Y-24550000D01*
X35227107Y-24550000D01*
X35072358Y-24519219D01*
X34926586Y-24458838D01*
X34926585Y-24458838D01*
X34926584Y-24458837D01*
X34795392Y-24371178D01*
X34683822Y-24259608D01*
X34596163Y-24128416D01*
X34596162Y-24128414D01*
X34535781Y-23982642D01*
X34505000Y-23827893D01*
X34505000Y-23670107D01*
X34535781Y-23515358D01*
X34596162Y-23369586D01*
X34596163Y-23369584D01*
X34683822Y-23238392D01*
X34795392Y-23126822D01*
X34926584Y-23039163D01*
X34926586Y-23039162D01*
X35072358Y-22978781D01*
X35227107Y-22948000D01*
X35384893Y-22948000D01*
X35539642Y-22978781D01*
G37*
G36*
X32999642Y-22978781D02*
G01*
X33145414Y-23039162D01*
X33145416Y-23039163D01*
X33276608Y-23126822D01*
X33388178Y-23238392D01*
X33475837Y-23369584D01*
X33475838Y-23369586D01*
X33536219Y-23515358D01*
X33567000Y-23670107D01*
X33567000Y-23827893D01*
X33536219Y-23982642D01*
X33475838Y-24128414D01*
X33475837Y-24128416D01*
X33388178Y-24259608D01*
X33276608Y-24371178D01*
X33145416Y-24458837D01*
X33145415Y-24458838D01*
X33145414Y-24458838D01*
X32999642Y-24519219D01*
X32844893Y-24550000D01*
X32687107Y-24550000D01*
X32532358Y-24519219D01*
X32386586Y-24458838D01*
X32386585Y-24458838D01*
X32386584Y-24458837D01*
X32255392Y-24371178D01*
X32143822Y-24259608D01*
X32056163Y-24128416D01*
X32056162Y-24128414D01*
X31995781Y-23982642D01*
X31965000Y-23827893D01*
X31965000Y-23670107D01*
X31995781Y-23515358D01*
X32056162Y-23369586D01*
X32056163Y-23369584D01*
X32143822Y-23238392D01*
X32255392Y-23126822D01*
X32386584Y-23039163D01*
X32386586Y-23039162D01*
X32532358Y-22978781D01*
X32687107Y-22948000D01*
X32844893Y-22948000D01*
X32999642Y-22978781D01*
G37*
G36*
X38079642Y-22978781D02*
G01*
X38225414Y-23039162D01*
X38225416Y-23039163D01*
X38356608Y-23126822D01*
X38468178Y-23238392D01*
X38555837Y-23369584D01*
X38555838Y-23369586D01*
X38616219Y-23515358D01*
X38647000Y-23670107D01*
X38647000Y-23827893D01*
X38616219Y-23982642D01*
X38555838Y-24128414D01*
X38555837Y-24128416D01*
X38468178Y-24259608D01*
X38356608Y-24371178D01*
X38225416Y-24458837D01*
X38225415Y-24458838D01*
X38225414Y-24458838D01*
X38079642Y-24519219D01*
X37924893Y-24550000D01*
X37767107Y-24550000D01*
X37612358Y-24519219D01*
X37466586Y-24458838D01*
X37466585Y-24458838D01*
X37466584Y-24458837D01*
X37335392Y-24371178D01*
X37223822Y-24259608D01*
X37136163Y-24128416D01*
X37136162Y-24128414D01*
X37075781Y-23982642D01*
X37045000Y-23827893D01*
X37045000Y-23670107D01*
X37075781Y-23515358D01*
X37136162Y-23369586D01*
X37136163Y-23369584D01*
X37223822Y-23238392D01*
X37335392Y-23126822D01*
X37466584Y-23039163D01*
X37466586Y-23039162D01*
X37612358Y-22978781D01*
X37767107Y-22948000D01*
X37924893Y-22948000D01*
X38079642Y-22978781D01*
G37*
G36*
X70057142Y-19538242D02*
G01*
X70205101Y-19599529D01*
X70338255Y-19688499D01*
X70451501Y-19801745D01*
X70540471Y-19934899D01*
X70601758Y-20082858D01*
X70633000Y-20239925D01*
X70633000Y-20400075D01*
X70601758Y-20557142D01*
X70540471Y-20705101D01*
X70451501Y-20838255D01*
X70338255Y-20951501D01*
X70205101Y-21040471D01*
X70057142Y-21101758D01*
X69900075Y-21133000D01*
X69739925Y-21133000D01*
X69582858Y-21101758D01*
X69434899Y-21040471D01*
X69301745Y-20951501D01*
X69188499Y-20838255D01*
X69099529Y-20705101D01*
X69038242Y-20557142D01*
X69007000Y-20400075D01*
X69007000Y-20239925D01*
X69038242Y-20082858D01*
X69099529Y-19934899D01*
X69188499Y-19801745D01*
X69301745Y-19688499D01*
X69434899Y-19599529D01*
X69582858Y-19538242D01*
X69739925Y-19507000D01*
X69900075Y-19507000D01*
X70057142Y-19538242D01*
G37*
G36*
X72597142Y-19538242D02*
G01*
X72745101Y-19599529D01*
X72878255Y-19688499D01*
X72991501Y-19801745D01*
X73080471Y-19934899D01*
X73141758Y-20082858D01*
X73173000Y-20239925D01*
X73173000Y-20400075D01*
X73141758Y-20557142D01*
X73080471Y-20705101D01*
X72991501Y-20838255D01*
X72878255Y-20951501D01*
X72745101Y-21040471D01*
X72597142Y-21101758D01*
X72440075Y-21133000D01*
X72279925Y-21133000D01*
X72122858Y-21101758D01*
X71974899Y-21040471D01*
X71841745Y-20951501D01*
X71728499Y-20838255D01*
X71639529Y-20705101D01*
X71578242Y-20557142D01*
X71547000Y-20400075D01*
X71547000Y-20239925D01*
X71578242Y-20082858D01*
X71639529Y-19934899D01*
X71728499Y-19801745D01*
X71841745Y-19688499D01*
X71974899Y-19599529D01*
X72122858Y-19538242D01*
X72279925Y-19507000D01*
X72440075Y-19507000D01*
X72597142Y-19538242D01*
G37*
G36*
X75137142Y-19538242D02*
G01*
X75285101Y-19599529D01*
X75418255Y-19688499D01*
X75531501Y-19801745D01*
X75620471Y-19934899D01*
X75681758Y-20082858D01*
X75713000Y-20239925D01*
X75713000Y-20400075D01*
X75681758Y-20557142D01*
X75620471Y-20705101D01*
X75531501Y-20838255D01*
X75418255Y-20951501D01*
X75285101Y-21040471D01*
X75137142Y-21101758D01*
X74980075Y-21133000D01*
X74819925Y-21133000D01*
X74662858Y-21101758D01*
X74514899Y-21040471D01*
X74381745Y-20951501D01*
X74268499Y-20838255D01*
X74179529Y-20705101D01*
X74118242Y-20557142D01*
X74087000Y-20400075D01*
X74087000Y-20239925D01*
X74118242Y-20082858D01*
X74179529Y-19934899D01*
X74268499Y-19801745D01*
X74381745Y-19688499D01*
X74514899Y-19599529D01*
X74662858Y-19538242D01*
X74819925Y-19507000D01*
X74980075Y-19507000D01*
X75137142Y-19538242D01*
G37*
G36*
X68093000Y-21133000D02*
G01*
X66467000Y-21133000D01*
X66467000Y-19507000D01*
X68093000Y-19507000D01*
X68093000Y-21133000D01*
G37*
M02*
