G04 #@! TF.GenerationSoftware,KiCad,Pcbnew,(5.1.5)-3*
G04 #@! TF.CreationDate,2020-04-26T18:57:48+02:00*
G04 #@! TF.ProjectId,czujnikParkowania,637a756a-6e69-46b5-9061-726b6f77616e,rev?*
G04 #@! TF.SameCoordinates,Original*
G04 #@! TF.FileFunction,Legend,Top*
G04 #@! TF.FilePolarity,Positive*
%FSLAX46Y46*%
G04 Gerber Fmt 4.6, Leading zero omitted, Abs format (unit mm)*
G04 Created by KiCad (PCBNEW (5.1.5)-3) date 2020-04-26 18:57:48*
%MOMM*%
%LPD*%
G04 APERTURE LIST*
%ADD10C,0.120000*%
%ADD11C,0.150000*%
G04 APERTURE END LIST*
D10*
X55435500Y-52641500D02*
X57975500Y-52641500D01*
X57975500Y-52641500D02*
X57975500Y-49971500D01*
X55435500Y-49971500D02*
X17205500Y-49971500D01*
X60645500Y-49971500D02*
X57975500Y-49971500D01*
X57975500Y-65341500D02*
X57975500Y-68011500D01*
X57975500Y-65341500D02*
X19875500Y-65341500D01*
X19875500Y-65341500D02*
X19875500Y-68011500D01*
X55435500Y-52641500D02*
X55435500Y-49971500D01*
X55435500Y-52641500D02*
X19875500Y-52641500D01*
X19875500Y-52641500D02*
X19875500Y-49971500D01*
X17205500Y-49971500D02*
X17205500Y-68011500D01*
X17205500Y-68011500D02*
X60645500Y-68011500D01*
X60645500Y-68011500D02*
X60645500Y-49971500D01*
X39311078Y-72020500D02*
X38793922Y-72020500D01*
X39311078Y-70600500D02*
X38793922Y-70600500D01*
X71615000Y-53490000D02*
X71615000Y-65990000D01*
X66815000Y-53290000D02*
X66815000Y-66090000D01*
X71615000Y-65990000D02*
X71215000Y-65990000D01*
X71615000Y-53490000D02*
X71215000Y-53490000D01*
D11*
X51690000Y-63016500D02*
X51690000Y-62791500D01*
X44440000Y-63016500D02*
X44440000Y-62691500D01*
X44440000Y-55766500D02*
X44440000Y-56091500D01*
X51690000Y-55766500D02*
X51690000Y-56091500D01*
X51690000Y-63016500D02*
X51365000Y-63016500D01*
X51690000Y-55766500D02*
X51365000Y-55766500D01*
X44440000Y-55766500D02*
X44765000Y-55766500D01*
X44440000Y-63016500D02*
X44765000Y-63016500D01*
X51690000Y-62791500D02*
X53115000Y-62791500D01*
D10*
X22426000Y-41269000D02*
X22426000Y-38989000D01*
X22436000Y-41269000D02*
X25146000Y-41269000D01*
X22686000Y-41014000D02*
X22686000Y-21724000D01*
X22686000Y-21724000D02*
X47936000Y-21724000D01*
X47936000Y-21724000D02*
X47936000Y-41014000D01*
X47936000Y-41014000D02*
X22686000Y-41014000D01*
X69616648Y-37465000D02*
G75*
G03X69616648Y-37465000I-4846648J0D01*
G01*
X64596000Y-78851000D02*
G75*
G03X64596000Y-78851000I-2620000J0D01*
G01*
X60936000Y-78851000D02*
X59396000Y-78851000D01*
X64556000Y-78851000D02*
X63016000Y-78851000D01*
X60936000Y-78891000D02*
X59396000Y-78891000D01*
X64556000Y-78891000D02*
X63016000Y-78891000D01*
X64555000Y-78931000D02*
X63016000Y-78931000D01*
X60936000Y-78931000D02*
X59397000Y-78931000D01*
X64554000Y-78971000D02*
X63016000Y-78971000D01*
X60936000Y-78971000D02*
X59398000Y-78971000D01*
X64552000Y-79011000D02*
X63016000Y-79011000D01*
X60936000Y-79011000D02*
X59400000Y-79011000D01*
X64549000Y-79051000D02*
X63016000Y-79051000D01*
X60936000Y-79051000D02*
X59403000Y-79051000D01*
X64545000Y-79091000D02*
X63016000Y-79091000D01*
X60936000Y-79091000D02*
X59407000Y-79091000D01*
X64541000Y-79131000D02*
X63016000Y-79131000D01*
X60936000Y-79131000D02*
X59411000Y-79131000D01*
X64537000Y-79171000D02*
X63016000Y-79171000D01*
X60936000Y-79171000D02*
X59415000Y-79171000D01*
X64532000Y-79211000D02*
X63016000Y-79211000D01*
X60936000Y-79211000D02*
X59420000Y-79211000D01*
X64526000Y-79251000D02*
X63016000Y-79251000D01*
X60936000Y-79251000D02*
X59426000Y-79251000D01*
X64519000Y-79291000D02*
X63016000Y-79291000D01*
X60936000Y-79291000D02*
X59433000Y-79291000D01*
X64512000Y-79331000D02*
X63016000Y-79331000D01*
X60936000Y-79331000D02*
X59440000Y-79331000D01*
X64504000Y-79371000D02*
X63016000Y-79371000D01*
X60936000Y-79371000D02*
X59448000Y-79371000D01*
X64496000Y-79411000D02*
X63016000Y-79411000D01*
X60936000Y-79411000D02*
X59456000Y-79411000D01*
X64487000Y-79451000D02*
X63016000Y-79451000D01*
X60936000Y-79451000D02*
X59465000Y-79451000D01*
X64477000Y-79491000D02*
X63016000Y-79491000D01*
X60936000Y-79491000D02*
X59475000Y-79491000D01*
X64467000Y-79531000D02*
X63016000Y-79531000D01*
X60936000Y-79531000D02*
X59485000Y-79531000D01*
X64456000Y-79572000D02*
X63016000Y-79572000D01*
X60936000Y-79572000D02*
X59496000Y-79572000D01*
X64444000Y-79612000D02*
X63016000Y-79612000D01*
X60936000Y-79612000D02*
X59508000Y-79612000D01*
X64431000Y-79652000D02*
X63016000Y-79652000D01*
X60936000Y-79652000D02*
X59521000Y-79652000D01*
X64418000Y-79692000D02*
X63016000Y-79692000D01*
X60936000Y-79692000D02*
X59534000Y-79692000D01*
X64404000Y-79732000D02*
X63016000Y-79732000D01*
X60936000Y-79732000D02*
X59548000Y-79732000D01*
X64390000Y-79772000D02*
X63016000Y-79772000D01*
X60936000Y-79772000D02*
X59562000Y-79772000D01*
X64374000Y-79812000D02*
X63016000Y-79812000D01*
X60936000Y-79812000D02*
X59578000Y-79812000D01*
X64358000Y-79852000D02*
X63016000Y-79852000D01*
X60936000Y-79852000D02*
X59594000Y-79852000D01*
X64341000Y-79892000D02*
X63016000Y-79892000D01*
X60936000Y-79892000D02*
X59611000Y-79892000D01*
X64324000Y-79932000D02*
X63016000Y-79932000D01*
X60936000Y-79932000D02*
X59628000Y-79932000D01*
X64305000Y-79972000D02*
X63016000Y-79972000D01*
X60936000Y-79972000D02*
X59647000Y-79972000D01*
X64286000Y-80012000D02*
X63016000Y-80012000D01*
X60936000Y-80012000D02*
X59666000Y-80012000D01*
X64266000Y-80052000D02*
X63016000Y-80052000D01*
X60936000Y-80052000D02*
X59686000Y-80052000D01*
X64244000Y-80092000D02*
X63016000Y-80092000D01*
X60936000Y-80092000D02*
X59708000Y-80092000D01*
X64223000Y-80132000D02*
X63016000Y-80132000D01*
X60936000Y-80132000D02*
X59729000Y-80132000D01*
X64200000Y-80172000D02*
X63016000Y-80172000D01*
X60936000Y-80172000D02*
X59752000Y-80172000D01*
X64176000Y-80212000D02*
X63016000Y-80212000D01*
X60936000Y-80212000D02*
X59776000Y-80212000D01*
X64151000Y-80252000D02*
X63016000Y-80252000D01*
X60936000Y-80252000D02*
X59801000Y-80252000D01*
X64125000Y-80292000D02*
X63016000Y-80292000D01*
X60936000Y-80292000D02*
X59827000Y-80292000D01*
X64098000Y-80332000D02*
X63016000Y-80332000D01*
X60936000Y-80332000D02*
X59854000Y-80332000D01*
X64071000Y-80372000D02*
X63016000Y-80372000D01*
X60936000Y-80372000D02*
X59881000Y-80372000D01*
X64041000Y-80412000D02*
X63016000Y-80412000D01*
X60936000Y-80412000D02*
X59911000Y-80412000D01*
X64011000Y-80452000D02*
X63016000Y-80452000D01*
X60936000Y-80452000D02*
X59941000Y-80452000D01*
X63980000Y-80492000D02*
X63016000Y-80492000D01*
X60936000Y-80492000D02*
X59972000Y-80492000D01*
X63947000Y-80532000D02*
X63016000Y-80532000D01*
X60936000Y-80532000D02*
X60005000Y-80532000D01*
X63913000Y-80572000D02*
X63016000Y-80572000D01*
X60936000Y-80572000D02*
X60039000Y-80572000D01*
X63877000Y-80612000D02*
X63016000Y-80612000D01*
X60936000Y-80612000D02*
X60075000Y-80612000D01*
X63840000Y-80652000D02*
X63016000Y-80652000D01*
X60936000Y-80652000D02*
X60112000Y-80652000D01*
X63802000Y-80692000D02*
X63016000Y-80692000D01*
X60936000Y-80692000D02*
X60150000Y-80692000D01*
X63761000Y-80732000D02*
X63016000Y-80732000D01*
X60936000Y-80732000D02*
X60191000Y-80732000D01*
X63719000Y-80772000D02*
X63016000Y-80772000D01*
X60936000Y-80772000D02*
X60233000Y-80772000D01*
X63675000Y-80812000D02*
X63016000Y-80812000D01*
X60936000Y-80812000D02*
X60277000Y-80812000D01*
X63629000Y-80852000D02*
X63016000Y-80852000D01*
X60936000Y-80852000D02*
X60323000Y-80852000D01*
X63581000Y-80892000D02*
X60371000Y-80892000D01*
X63530000Y-80932000D02*
X60422000Y-80932000D01*
X63476000Y-80972000D02*
X60476000Y-80972000D01*
X63419000Y-81012000D02*
X60533000Y-81012000D01*
X63359000Y-81052000D02*
X60593000Y-81052000D01*
X63295000Y-81092000D02*
X60657000Y-81092000D01*
X63227000Y-81132000D02*
X60725000Y-81132000D01*
X63154000Y-81172000D02*
X60798000Y-81172000D01*
X63074000Y-81212000D02*
X60878000Y-81212000D01*
X62987000Y-81252000D02*
X60965000Y-81252000D01*
X62891000Y-81292000D02*
X61061000Y-81292000D01*
X62781000Y-81332000D02*
X61171000Y-81332000D01*
X62653000Y-81372000D02*
X61299000Y-81372000D01*
X62494000Y-81412000D02*
X61458000Y-81412000D01*
X62260000Y-81452000D02*
X61692000Y-81452000D01*
X63451000Y-76046225D02*
X63451000Y-76546225D01*
X63701000Y-76296225D02*
X63201000Y-76296225D01*
X56440000Y-70743578D02*
X56440000Y-70226422D01*
X57860000Y-70743578D02*
X57860000Y-70226422D01*
X69092578Y-77141000D02*
X68575422Y-77141000D01*
X69092578Y-78561000D02*
X68575422Y-78561000D01*
X78058000Y-77577000D02*
G75*
G03X78058000Y-77577000I-2620000J0D01*
G01*
X78018000Y-77577000D02*
X72858000Y-77577000D01*
X78018000Y-77617000D02*
X72858000Y-77617000D01*
X78017000Y-77657000D02*
X72859000Y-77657000D01*
X78016000Y-77697000D02*
X72860000Y-77697000D01*
X78014000Y-77737000D02*
X72862000Y-77737000D01*
X78011000Y-77777000D02*
X72865000Y-77777000D01*
X78007000Y-77817000D02*
X76478000Y-77817000D01*
X74398000Y-77817000D02*
X72869000Y-77817000D01*
X78003000Y-77857000D02*
X76478000Y-77857000D01*
X74398000Y-77857000D02*
X72873000Y-77857000D01*
X77999000Y-77897000D02*
X76478000Y-77897000D01*
X74398000Y-77897000D02*
X72877000Y-77897000D01*
X77994000Y-77937000D02*
X76478000Y-77937000D01*
X74398000Y-77937000D02*
X72882000Y-77937000D01*
X77988000Y-77977000D02*
X76478000Y-77977000D01*
X74398000Y-77977000D02*
X72888000Y-77977000D01*
X77981000Y-78017000D02*
X76478000Y-78017000D01*
X74398000Y-78017000D02*
X72895000Y-78017000D01*
X77974000Y-78057000D02*
X76478000Y-78057000D01*
X74398000Y-78057000D02*
X72902000Y-78057000D01*
X77966000Y-78097000D02*
X76478000Y-78097000D01*
X74398000Y-78097000D02*
X72910000Y-78097000D01*
X77958000Y-78137000D02*
X76478000Y-78137000D01*
X74398000Y-78137000D02*
X72918000Y-78137000D01*
X77949000Y-78177000D02*
X76478000Y-78177000D01*
X74398000Y-78177000D02*
X72927000Y-78177000D01*
X77939000Y-78217000D02*
X76478000Y-78217000D01*
X74398000Y-78217000D02*
X72937000Y-78217000D01*
X77929000Y-78257000D02*
X76478000Y-78257000D01*
X74398000Y-78257000D02*
X72947000Y-78257000D01*
X77918000Y-78298000D02*
X76478000Y-78298000D01*
X74398000Y-78298000D02*
X72958000Y-78298000D01*
X77906000Y-78338000D02*
X76478000Y-78338000D01*
X74398000Y-78338000D02*
X72970000Y-78338000D01*
X77893000Y-78378000D02*
X76478000Y-78378000D01*
X74398000Y-78378000D02*
X72983000Y-78378000D01*
X77880000Y-78418000D02*
X76478000Y-78418000D01*
X74398000Y-78418000D02*
X72996000Y-78418000D01*
X77866000Y-78458000D02*
X76478000Y-78458000D01*
X74398000Y-78458000D02*
X73010000Y-78458000D01*
X77852000Y-78498000D02*
X76478000Y-78498000D01*
X74398000Y-78498000D02*
X73024000Y-78498000D01*
X77836000Y-78538000D02*
X76478000Y-78538000D01*
X74398000Y-78538000D02*
X73040000Y-78538000D01*
X77820000Y-78578000D02*
X76478000Y-78578000D01*
X74398000Y-78578000D02*
X73056000Y-78578000D01*
X77803000Y-78618000D02*
X76478000Y-78618000D01*
X74398000Y-78618000D02*
X73073000Y-78618000D01*
X77786000Y-78658000D02*
X76478000Y-78658000D01*
X74398000Y-78658000D02*
X73090000Y-78658000D01*
X77767000Y-78698000D02*
X76478000Y-78698000D01*
X74398000Y-78698000D02*
X73109000Y-78698000D01*
X77748000Y-78738000D02*
X76478000Y-78738000D01*
X74398000Y-78738000D02*
X73128000Y-78738000D01*
X77728000Y-78778000D02*
X76478000Y-78778000D01*
X74398000Y-78778000D02*
X73148000Y-78778000D01*
X77706000Y-78818000D02*
X76478000Y-78818000D01*
X74398000Y-78818000D02*
X73170000Y-78818000D01*
X77685000Y-78858000D02*
X76478000Y-78858000D01*
X74398000Y-78858000D02*
X73191000Y-78858000D01*
X77662000Y-78898000D02*
X76478000Y-78898000D01*
X74398000Y-78898000D02*
X73214000Y-78898000D01*
X77638000Y-78938000D02*
X76478000Y-78938000D01*
X74398000Y-78938000D02*
X73238000Y-78938000D01*
X77613000Y-78978000D02*
X76478000Y-78978000D01*
X74398000Y-78978000D02*
X73263000Y-78978000D01*
X77587000Y-79018000D02*
X76478000Y-79018000D01*
X74398000Y-79018000D02*
X73289000Y-79018000D01*
X77560000Y-79058000D02*
X76478000Y-79058000D01*
X74398000Y-79058000D02*
X73316000Y-79058000D01*
X77533000Y-79098000D02*
X76478000Y-79098000D01*
X74398000Y-79098000D02*
X73343000Y-79098000D01*
X77503000Y-79138000D02*
X76478000Y-79138000D01*
X74398000Y-79138000D02*
X73373000Y-79138000D01*
X77473000Y-79178000D02*
X76478000Y-79178000D01*
X74398000Y-79178000D02*
X73403000Y-79178000D01*
X77442000Y-79218000D02*
X76478000Y-79218000D01*
X74398000Y-79218000D02*
X73434000Y-79218000D01*
X77409000Y-79258000D02*
X76478000Y-79258000D01*
X74398000Y-79258000D02*
X73467000Y-79258000D01*
X77375000Y-79298000D02*
X76478000Y-79298000D01*
X74398000Y-79298000D02*
X73501000Y-79298000D01*
X77339000Y-79338000D02*
X76478000Y-79338000D01*
X74398000Y-79338000D02*
X73537000Y-79338000D01*
X77302000Y-79378000D02*
X76478000Y-79378000D01*
X74398000Y-79378000D02*
X73574000Y-79378000D01*
X77264000Y-79418000D02*
X76478000Y-79418000D01*
X74398000Y-79418000D02*
X73612000Y-79418000D01*
X77223000Y-79458000D02*
X76478000Y-79458000D01*
X74398000Y-79458000D02*
X73653000Y-79458000D01*
X77181000Y-79498000D02*
X76478000Y-79498000D01*
X74398000Y-79498000D02*
X73695000Y-79498000D01*
X77137000Y-79538000D02*
X76478000Y-79538000D01*
X74398000Y-79538000D02*
X73739000Y-79538000D01*
X77091000Y-79578000D02*
X76478000Y-79578000D01*
X74398000Y-79578000D02*
X73785000Y-79578000D01*
X77043000Y-79618000D02*
X76478000Y-79618000D01*
X74398000Y-79618000D02*
X73833000Y-79618000D01*
X76992000Y-79658000D02*
X76478000Y-79658000D01*
X74398000Y-79658000D02*
X73884000Y-79658000D01*
X76938000Y-79698000D02*
X76478000Y-79698000D01*
X74398000Y-79698000D02*
X73938000Y-79698000D01*
X76881000Y-79738000D02*
X76478000Y-79738000D01*
X74398000Y-79738000D02*
X73995000Y-79738000D01*
X76821000Y-79778000D02*
X76478000Y-79778000D01*
X74398000Y-79778000D02*
X74055000Y-79778000D01*
X76757000Y-79818000D02*
X76478000Y-79818000D01*
X74398000Y-79818000D02*
X74119000Y-79818000D01*
X76689000Y-79858000D02*
X76478000Y-79858000D01*
X74398000Y-79858000D02*
X74187000Y-79858000D01*
X76616000Y-79898000D02*
X74260000Y-79898000D01*
X76536000Y-79938000D02*
X74340000Y-79938000D01*
X76449000Y-79978000D02*
X74427000Y-79978000D01*
X76353000Y-80018000D02*
X74523000Y-80018000D01*
X76243000Y-80058000D02*
X74633000Y-80058000D01*
X76115000Y-80098000D02*
X74761000Y-80098000D01*
X75956000Y-80138000D02*
X74920000Y-80138000D01*
X75722000Y-80178000D02*
X75154000Y-80178000D01*
X76913000Y-74772225D02*
X76913000Y-75272225D01*
X77163000Y-75022225D02*
X76663000Y-75022225D01*
X76910000Y-64638422D02*
X76910000Y-65155578D01*
X75490000Y-64638422D02*
X75490000Y-65155578D01*
X64012578Y-44375000D02*
X63495422Y-44375000D01*
X64012578Y-45795000D02*
X63495422Y-45795000D01*
X82390000Y-59773000D02*
X75090000Y-59773000D01*
X82390000Y-54273000D02*
X75090000Y-54273000D01*
X75090000Y-54273000D02*
X75090000Y-55423000D01*
X50726000Y-85925000D02*
X50726000Y-82985000D01*
X50726000Y-82985000D02*
X45286000Y-82985000D01*
X45286000Y-82985000D02*
X45286000Y-85925000D01*
X45286000Y-85925000D02*
X50726000Y-85925000D01*
X51746000Y-84455000D02*
X50726000Y-84455000D01*
X44266000Y-84455000D02*
X45286000Y-84455000D01*
X49826000Y-85925000D02*
X49826000Y-82985000D01*
X49706000Y-85925000D02*
X49706000Y-82985000D01*
X49946000Y-85925000D02*
X49946000Y-82985000D01*
X75090000Y-46653000D02*
X82390000Y-46653000D01*
X75090000Y-52153000D02*
X82390000Y-52153000D01*
X82390000Y-52153000D02*
X82390000Y-51003000D01*
X82390000Y-44787000D02*
X82390000Y-43637000D01*
X75090000Y-44787000D02*
X82390000Y-44787000D01*
X75090000Y-39287000D02*
X82390000Y-39287000D01*
X75090000Y-31921000D02*
X82390000Y-31921000D01*
X75090000Y-37421000D02*
X82390000Y-37421000D01*
X82390000Y-37421000D02*
X82390000Y-36271000D01*
X82390000Y-30309000D02*
X82390000Y-29159000D01*
X75090000Y-30309000D02*
X82390000Y-30309000D01*
X75090000Y-24809000D02*
X82390000Y-24809000D01*
X44296000Y-80391000D02*
G75*
G03X44296000Y-80391000I-1370000J0D01*
G01*
X41556000Y-80391000D02*
X38946000Y-80391000D01*
X31009000Y-83058000D02*
G75*
G03X31009000Y-83058000I-2180000J0D01*
G01*
X31009000Y-77978000D02*
G75*
G03X31009000Y-77978000I-2180000J0D01*
G01*
X31009000Y-72898000D02*
G75*
G03X31009000Y-72898000I-2180000J0D01*
G01*
X33629000Y-85658000D02*
X33629000Y-70298000D01*
X31129000Y-85658000D02*
X31129000Y-70298000D01*
X24929000Y-85658000D02*
X24929000Y-70298000D01*
X22869000Y-85658000D02*
X22869000Y-70298000D01*
X34189000Y-85658000D02*
X34189000Y-70298000D01*
X22869000Y-85658000D02*
X34189000Y-85658000D01*
X22869000Y-70298000D02*
X34189000Y-70298000D01*
X27441000Y-81404000D02*
X27548000Y-81511000D01*
X30376000Y-84340000D02*
X30483000Y-84446000D01*
X27175000Y-81670000D02*
X27282000Y-81777000D01*
X30110000Y-84606000D02*
X30217000Y-84712000D01*
X27441000Y-76324000D02*
X27837000Y-76719000D01*
X30103000Y-78985000D02*
X30483000Y-79365000D01*
X27175000Y-76590000D02*
X27555000Y-76970000D01*
X29821000Y-79236000D02*
X30217000Y-79631000D01*
X27441000Y-71244000D02*
X27837000Y-71639000D01*
X30103000Y-73905000D02*
X30483000Y-74285000D01*
X27175000Y-71510000D02*
X27555000Y-71890000D01*
X29821000Y-74156000D02*
X30217000Y-74551000D01*
X33689000Y-85898000D02*
X34429000Y-85898000D01*
X34429000Y-85898000D02*
X34429000Y-85398000D01*
X44511500Y-76065500D02*
X43051500Y-76065500D01*
X44511500Y-72905500D02*
X42351500Y-72905500D01*
X44511500Y-72905500D02*
X44511500Y-73835500D01*
X44511500Y-76065500D02*
X44511500Y-75135500D01*
X52621500Y-77787500D02*
X52621500Y-79737500D01*
X52621500Y-77787500D02*
X52621500Y-75837500D01*
X57741500Y-77787500D02*
X57741500Y-79737500D01*
X57741500Y-77787500D02*
X57741500Y-74337500D01*
X31107500Y-55437500D02*
X30177500Y-55437500D01*
X27947500Y-55437500D02*
X28877500Y-55437500D01*
X27947500Y-55437500D02*
X27947500Y-57597500D01*
X31107500Y-55437500D02*
X31107500Y-56897500D01*
X24572500Y-62413000D02*
X24572500Y-61483000D01*
X24572500Y-59253000D02*
X24572500Y-60183000D01*
X24572500Y-59253000D02*
X22412500Y-59253000D01*
X24572500Y-62413000D02*
X23112500Y-62413000D01*
X27434000Y-42489000D02*
X28894000Y-42489000D01*
X27434000Y-45649000D02*
X29594000Y-45649000D01*
X27434000Y-45649000D02*
X27434000Y-44719000D01*
X27434000Y-42489000D02*
X27434000Y-43419000D01*
X48208000Y-79125578D02*
X48208000Y-78608422D01*
X46788000Y-79125578D02*
X46788000Y-78608422D01*
X48709078Y-75195500D02*
X48191922Y-75195500D01*
X48709078Y-73775500D02*
X48191922Y-73775500D01*
X39311078Y-72823000D02*
X38793922Y-72823000D01*
X39311078Y-74243000D02*
X38793922Y-74243000D01*
X71830000Y-48001422D02*
X71830000Y-48518578D01*
X70410000Y-48001422D02*
X70410000Y-48518578D01*
X28770078Y-59678500D02*
X28252922Y-59678500D01*
X28770078Y-61098500D02*
X28252922Y-61098500D01*
X23441922Y-54662000D02*
X23959078Y-54662000D01*
X23441922Y-56082000D02*
X23959078Y-56082000D01*
X56336000Y-43810422D02*
X56336000Y-44327578D01*
X54916000Y-43810422D02*
X54916000Y-44327578D01*
X51868000Y-43810422D02*
X51868000Y-44327578D01*
X53288000Y-43810422D02*
X53288000Y-44327578D01*
X50240000Y-43810422D02*
X50240000Y-44327578D01*
X48820000Y-43810422D02*
X48820000Y-44327578D01*
X45518000Y-43810422D02*
X45518000Y-44327578D01*
X46938000Y-43810422D02*
X46938000Y-44327578D01*
X43382000Y-43810422D02*
X43382000Y-44327578D01*
X41962000Y-43810422D02*
X41962000Y-44327578D01*
X38660000Y-43810422D02*
X38660000Y-44327578D01*
X40080000Y-43810422D02*
X40080000Y-44327578D01*
X36016000Y-43810422D02*
X36016000Y-44327578D01*
X34596000Y-43810422D02*
X34596000Y-44327578D01*
X32310000Y-43810422D02*
X32310000Y-44327578D01*
X33730000Y-43810422D02*
X33730000Y-44327578D01*
X60666000Y-68993000D02*
X70906000Y-68993000D01*
X60666000Y-73634000D02*
X70906000Y-73634000D01*
X60666000Y-68993000D02*
X60666000Y-73634000D01*
X70906000Y-68993000D02*
X70906000Y-73634000D01*
X60666000Y-70503000D02*
X70906000Y-70503000D01*
X63936000Y-68993000D02*
X63936000Y-70503000D01*
X67637000Y-68993000D02*
X67637000Y-70503000D01*
X66220000Y-21120000D02*
X66220000Y-21620000D01*
X66220000Y-21620000D02*
X66620000Y-21620000D01*
X66220000Y-19720000D02*
X66220000Y-19220000D01*
X66220000Y-19220000D02*
X66620000Y-19220000D01*
X75620000Y-19220000D02*
X76020000Y-19220000D01*
X76020000Y-19220000D02*
X76020000Y-19620000D01*
X76020000Y-21020000D02*
X76020000Y-21520000D01*
X76020000Y-21520000D02*
X75620000Y-21520000D01*
X38492500Y-59685422D02*
X38492500Y-60202578D01*
X37072500Y-59685422D02*
X37072500Y-60202578D01*
X62733422Y-68210500D02*
X63250578Y-68210500D01*
X62733422Y-66790500D02*
X63250578Y-66790500D01*
X66860922Y-49645500D02*
X67378078Y-49645500D01*
X66860922Y-51065500D02*
X67378078Y-51065500D01*
X60400000Y-43825422D02*
X60400000Y-44342578D01*
X58980000Y-43825422D02*
X58980000Y-44342578D01*
X59030000Y-26060000D02*
X59030000Y-26310000D01*
X59030000Y-26310000D02*
X52730000Y-26310000D01*
X52730000Y-26310000D02*
X52730000Y-26060000D01*
X59030000Y-21560000D02*
X59030000Y-24160000D01*
X52730000Y-19660000D02*
X52730000Y-19410000D01*
X52730000Y-19410000D02*
X59030000Y-19410000D01*
X59030000Y-19410000D02*
X59030000Y-19660000D01*
X52730000Y-24160000D02*
X52730000Y-21560000D01*
D11*
X61952166Y-59705785D02*
X61952166Y-59229595D01*
X62237880Y-59801023D02*
X61237880Y-59467690D01*
X62237880Y-59134357D01*
X62237880Y-58277214D02*
X62237880Y-58848642D01*
X62237880Y-58562928D02*
X61237880Y-58562928D01*
X61380738Y-58658166D01*
X61475976Y-58753404D01*
X61523595Y-58848642D01*
X38885833Y-73412880D02*
X38552500Y-72936690D01*
X38314404Y-73412880D02*
X38314404Y-72412880D01*
X38695357Y-72412880D01*
X38790595Y-72460500D01*
X38838214Y-72508119D01*
X38885833Y-72603357D01*
X38885833Y-72746214D01*
X38838214Y-72841452D01*
X38790595Y-72889071D01*
X38695357Y-72936690D01*
X38314404Y-72936690D01*
X39742976Y-72746214D02*
X39742976Y-73412880D01*
X39504880Y-72365261D02*
X39266785Y-73079547D01*
X39885833Y-73079547D01*
X67591190Y-60166190D02*
X68067380Y-60166190D01*
X67067380Y-60499523D02*
X67591190Y-60166190D01*
X67067380Y-59832857D01*
X68067380Y-58975714D02*
X68067380Y-59547142D01*
X68067380Y-59261428D02*
X67067380Y-59261428D01*
X67210238Y-59356666D01*
X67305476Y-59451904D01*
X67353095Y-59547142D01*
X47303095Y-64893880D02*
X47303095Y-65703404D01*
X47350714Y-65798642D01*
X47398333Y-65846261D01*
X47493571Y-65893880D01*
X47684047Y-65893880D01*
X47779285Y-65846261D01*
X47826904Y-65798642D01*
X47874523Y-65703404D01*
X47874523Y-64893880D01*
X48779285Y-65227214D02*
X48779285Y-65893880D01*
X48541190Y-64846261D02*
X48303095Y-65560547D01*
X48922142Y-65560547D01*
X20598380Y-39750904D02*
X21407904Y-39750904D01*
X21503142Y-39703285D01*
X21550761Y-39655666D01*
X21598380Y-39560428D01*
X21598380Y-39369952D01*
X21550761Y-39274714D01*
X21503142Y-39227095D01*
X21407904Y-39179476D01*
X20598380Y-39179476D01*
X21598380Y-38179476D02*
X21598380Y-38750904D01*
X21598380Y-38465190D02*
X20598380Y-38465190D01*
X20741238Y-38560428D01*
X20836476Y-38655666D01*
X20884095Y-38750904D01*
X63889047Y-34393571D02*
X64031904Y-34441190D01*
X64079523Y-34488809D01*
X64127142Y-34584047D01*
X64127142Y-34726904D01*
X64079523Y-34822142D01*
X64031904Y-34869761D01*
X63936666Y-34917380D01*
X63555714Y-34917380D01*
X63555714Y-33917380D01*
X63889047Y-33917380D01*
X63984285Y-33965000D01*
X64031904Y-34012619D01*
X64079523Y-34107857D01*
X64079523Y-34203095D01*
X64031904Y-34298333D01*
X63984285Y-34345952D01*
X63889047Y-34393571D01*
X63555714Y-34393571D01*
X64460476Y-33917380D02*
X65127142Y-33917380D01*
X64460476Y-34917380D01*
X65127142Y-34917380D01*
X66031904Y-34917380D02*
X65460476Y-34917380D01*
X65746190Y-34917380D02*
X65746190Y-33917380D01*
X65650952Y-34060238D01*
X65555714Y-34155476D01*
X65460476Y-34203095D01*
X66083142Y-79017666D02*
X66130761Y-79065285D01*
X66178380Y-79208142D01*
X66178380Y-79303380D01*
X66130761Y-79446238D01*
X66035523Y-79541476D01*
X65940285Y-79589095D01*
X65749809Y-79636714D01*
X65606952Y-79636714D01*
X65416476Y-79589095D01*
X65321238Y-79541476D01*
X65226000Y-79446238D01*
X65178380Y-79303380D01*
X65178380Y-79208142D01*
X65226000Y-79065285D01*
X65273619Y-79017666D01*
X66178380Y-78065285D02*
X66178380Y-78636714D01*
X66178380Y-78351000D02*
X65178380Y-78351000D01*
X65321238Y-78446238D01*
X65416476Y-78541476D01*
X65464095Y-78636714D01*
X55857142Y-70651666D02*
X55904761Y-70699285D01*
X55952380Y-70842142D01*
X55952380Y-70937380D01*
X55904761Y-71080238D01*
X55809523Y-71175476D01*
X55714285Y-71223095D01*
X55523809Y-71270714D01*
X55380952Y-71270714D01*
X55190476Y-71223095D01*
X55095238Y-71175476D01*
X55000000Y-71080238D01*
X54952380Y-70937380D01*
X54952380Y-70842142D01*
X55000000Y-70699285D01*
X55047619Y-70651666D01*
X55047619Y-70270714D02*
X55000000Y-70223095D01*
X54952380Y-70127857D01*
X54952380Y-69889761D01*
X55000000Y-69794523D01*
X55047619Y-69746904D01*
X55142857Y-69699285D01*
X55238095Y-69699285D01*
X55380952Y-69746904D01*
X55952380Y-70318333D01*
X55952380Y-69699285D01*
X68667333Y-79858142D02*
X68619714Y-79905761D01*
X68476857Y-79953380D01*
X68381619Y-79953380D01*
X68238761Y-79905761D01*
X68143523Y-79810523D01*
X68095904Y-79715285D01*
X68048285Y-79524809D01*
X68048285Y-79381952D01*
X68095904Y-79191476D01*
X68143523Y-79096238D01*
X68238761Y-79001000D01*
X68381619Y-78953380D01*
X68476857Y-78953380D01*
X68619714Y-79001000D01*
X68667333Y-79048619D01*
X69000666Y-78953380D02*
X69619714Y-78953380D01*
X69286380Y-79334333D01*
X69429238Y-79334333D01*
X69524476Y-79381952D01*
X69572095Y-79429571D01*
X69619714Y-79524809D01*
X69619714Y-79762904D01*
X69572095Y-79858142D01*
X69524476Y-79905761D01*
X69429238Y-79953380D01*
X69143523Y-79953380D01*
X69048285Y-79905761D01*
X69000666Y-79858142D01*
X79545142Y-77743666D02*
X79592761Y-77791285D01*
X79640380Y-77934142D01*
X79640380Y-78029380D01*
X79592761Y-78172238D01*
X79497523Y-78267476D01*
X79402285Y-78315095D01*
X79211809Y-78362714D01*
X79068952Y-78362714D01*
X78878476Y-78315095D01*
X78783238Y-78267476D01*
X78688000Y-78172238D01*
X78640380Y-78029380D01*
X78640380Y-77934142D01*
X78688000Y-77791285D01*
X78735619Y-77743666D01*
X78973714Y-76886523D02*
X79640380Y-76886523D01*
X78592761Y-77124619D02*
X79307047Y-77362714D01*
X79307047Y-76743666D01*
X78207142Y-65063666D02*
X78254761Y-65111285D01*
X78302380Y-65254142D01*
X78302380Y-65349380D01*
X78254761Y-65492238D01*
X78159523Y-65587476D01*
X78064285Y-65635095D01*
X77873809Y-65682714D01*
X77730952Y-65682714D01*
X77540476Y-65635095D01*
X77445238Y-65587476D01*
X77350000Y-65492238D01*
X77302380Y-65349380D01*
X77302380Y-65254142D01*
X77350000Y-65111285D01*
X77397619Y-65063666D01*
X77302380Y-64158904D02*
X77302380Y-64635095D01*
X77778571Y-64682714D01*
X77730952Y-64635095D01*
X77683333Y-64539857D01*
X77683333Y-64301761D01*
X77730952Y-64206523D01*
X77778571Y-64158904D01*
X77873809Y-64111285D01*
X78111904Y-64111285D01*
X78207142Y-64158904D01*
X78254761Y-64206523D01*
X78302380Y-64301761D01*
X78302380Y-64539857D01*
X78254761Y-64635095D01*
X78207142Y-64682714D01*
X63587333Y-47092142D02*
X63539714Y-47139761D01*
X63396857Y-47187380D01*
X63301619Y-47187380D01*
X63158761Y-47139761D01*
X63063523Y-47044523D01*
X63015904Y-46949285D01*
X62968285Y-46758809D01*
X62968285Y-46615952D01*
X63015904Y-46425476D01*
X63063523Y-46330238D01*
X63158761Y-46235000D01*
X63301619Y-46187380D01*
X63396857Y-46187380D01*
X63539714Y-46235000D01*
X63587333Y-46282619D01*
X64444476Y-46187380D02*
X64254000Y-46187380D01*
X64158761Y-46235000D01*
X64111142Y-46282619D01*
X64015904Y-46425476D01*
X63968285Y-46615952D01*
X63968285Y-46996904D01*
X64015904Y-47092142D01*
X64063523Y-47139761D01*
X64158761Y-47187380D01*
X64349238Y-47187380D01*
X64444476Y-47139761D01*
X64492095Y-47092142D01*
X64539714Y-46996904D01*
X64539714Y-46758809D01*
X64492095Y-46663571D01*
X64444476Y-46615952D01*
X64349238Y-46568333D01*
X64158761Y-46568333D01*
X64063523Y-46615952D01*
X64015904Y-46663571D01*
X63968285Y-46758809D01*
X78001904Y-60975380D02*
X78001904Y-59975380D01*
X78240000Y-59975380D01*
X78382857Y-60023000D01*
X78478095Y-60118238D01*
X78525714Y-60213476D01*
X78573333Y-60403952D01*
X78573333Y-60546809D01*
X78525714Y-60737285D01*
X78478095Y-60832523D01*
X78382857Y-60927761D01*
X78240000Y-60975380D01*
X78001904Y-60975380D01*
X79525714Y-60975380D02*
X78954285Y-60975380D01*
X79240000Y-60975380D02*
X79240000Y-59975380D01*
X79144761Y-60118238D01*
X79049523Y-60213476D01*
X78954285Y-60261095D01*
X83175714Y-59075380D02*
X82604285Y-59075380D01*
X82890000Y-59075380D02*
X82890000Y-58075380D01*
X82794761Y-58218238D01*
X82699523Y-58313476D01*
X82604285Y-58361095D01*
X47267904Y-87377380D02*
X47267904Y-86377380D01*
X47506000Y-86377380D01*
X47648857Y-86425000D01*
X47744095Y-86520238D01*
X47791714Y-86615476D01*
X47839333Y-86805952D01*
X47839333Y-86948809D01*
X47791714Y-87139285D01*
X47744095Y-87234523D01*
X47648857Y-87329761D01*
X47506000Y-87377380D01*
X47267904Y-87377380D01*
X48220285Y-86472619D02*
X48267904Y-86425000D01*
X48363142Y-86377380D01*
X48601238Y-86377380D01*
X48696476Y-86425000D01*
X48744095Y-86472619D01*
X48791714Y-86567857D01*
X48791714Y-86663095D01*
X48744095Y-86805952D01*
X48172666Y-87377380D01*
X48791714Y-87377380D01*
X52824095Y-87007380D02*
X52824095Y-86007380D01*
X53395523Y-87007380D02*
X52966952Y-86435952D01*
X53395523Y-86007380D02*
X52824095Y-86578809D01*
X78001904Y-46355380D02*
X78001904Y-45355380D01*
X78240000Y-45355380D01*
X78382857Y-45403000D01*
X78478095Y-45498238D01*
X78525714Y-45593476D01*
X78573333Y-45783952D01*
X78573333Y-45926809D01*
X78525714Y-46117285D01*
X78478095Y-46212523D01*
X78382857Y-46307761D01*
X78240000Y-46355380D01*
X78001904Y-46355380D01*
X78906666Y-45355380D02*
X79525714Y-45355380D01*
X79192380Y-45736333D01*
X79335238Y-45736333D01*
X79430476Y-45783952D01*
X79478095Y-45831571D01*
X79525714Y-45926809D01*
X79525714Y-46164904D01*
X79478095Y-46260142D01*
X79430476Y-46307761D01*
X79335238Y-46355380D01*
X79049523Y-46355380D01*
X78954285Y-46307761D01*
X78906666Y-46260142D01*
X74875714Y-48255380D02*
X74304285Y-48255380D01*
X74590000Y-48255380D02*
X74590000Y-47255380D01*
X74494761Y-47398238D01*
X74399523Y-47493476D01*
X74304285Y-47541095D01*
X78001904Y-38989380D02*
X78001904Y-37989380D01*
X78240000Y-37989380D01*
X78382857Y-38037000D01*
X78478095Y-38132238D01*
X78525714Y-38227476D01*
X78573333Y-38417952D01*
X78573333Y-38560809D01*
X78525714Y-38751285D01*
X78478095Y-38846523D01*
X78382857Y-38941761D01*
X78240000Y-38989380D01*
X78001904Y-38989380D01*
X79430476Y-38322714D02*
X79430476Y-38989380D01*
X79192380Y-37941761D02*
X78954285Y-38656047D01*
X79573333Y-38656047D01*
X74875714Y-40889380D02*
X74304285Y-40889380D01*
X74590000Y-40889380D02*
X74590000Y-39889380D01*
X74494761Y-40032238D01*
X74399523Y-40127476D01*
X74304285Y-40175095D01*
X78001904Y-31623380D02*
X78001904Y-30623380D01*
X78240000Y-30623380D01*
X78382857Y-30671000D01*
X78478095Y-30766238D01*
X78525714Y-30861476D01*
X78573333Y-31051952D01*
X78573333Y-31194809D01*
X78525714Y-31385285D01*
X78478095Y-31480523D01*
X78382857Y-31575761D01*
X78240000Y-31623380D01*
X78001904Y-31623380D01*
X79478095Y-30623380D02*
X79001904Y-30623380D01*
X78954285Y-31099571D01*
X79001904Y-31051952D01*
X79097142Y-31004333D01*
X79335238Y-31004333D01*
X79430476Y-31051952D01*
X79478095Y-31099571D01*
X79525714Y-31194809D01*
X79525714Y-31432904D01*
X79478095Y-31528142D01*
X79430476Y-31575761D01*
X79335238Y-31623380D01*
X79097142Y-31623380D01*
X79001904Y-31575761D01*
X78954285Y-31528142D01*
X74875714Y-33523380D02*
X74304285Y-33523380D01*
X74590000Y-33523380D02*
X74590000Y-32523380D01*
X74494761Y-32666238D01*
X74399523Y-32761476D01*
X74304285Y-32809095D01*
X78001904Y-24511380D02*
X78001904Y-23511380D01*
X78240000Y-23511380D01*
X78382857Y-23559000D01*
X78478095Y-23654238D01*
X78525714Y-23749476D01*
X78573333Y-23939952D01*
X78573333Y-24082809D01*
X78525714Y-24273285D01*
X78478095Y-24368523D01*
X78382857Y-24463761D01*
X78240000Y-24511380D01*
X78001904Y-24511380D01*
X79430476Y-23511380D02*
X79240000Y-23511380D01*
X79144761Y-23559000D01*
X79097142Y-23606619D01*
X79001904Y-23749476D01*
X78954285Y-23939952D01*
X78954285Y-24320904D01*
X79001904Y-24416142D01*
X79049523Y-24463761D01*
X79144761Y-24511380D01*
X79335238Y-24511380D01*
X79430476Y-24463761D01*
X79478095Y-24416142D01*
X79525714Y-24320904D01*
X79525714Y-24082809D01*
X79478095Y-23987571D01*
X79430476Y-23939952D01*
X79335238Y-23892333D01*
X79144761Y-23892333D01*
X79049523Y-23939952D01*
X79001904Y-23987571D01*
X78954285Y-24082809D01*
X74875714Y-26411380D02*
X74304285Y-26411380D01*
X74590000Y-26411380D02*
X74590000Y-25411380D01*
X74494761Y-25554238D01*
X74399523Y-25649476D01*
X74304285Y-25697095D01*
X40052666Y-82689571D02*
X39719333Y-82689571D01*
X39719333Y-83213380D02*
X39719333Y-82213380D01*
X40195523Y-82213380D01*
X41100285Y-83213380D02*
X40528857Y-83213380D01*
X40814571Y-83213380D02*
X40814571Y-82213380D01*
X40719333Y-82356238D01*
X40624095Y-82451476D01*
X40528857Y-82499095D01*
X21321380Y-78311333D02*
X22035666Y-78311333D01*
X22178523Y-78358952D01*
X22273761Y-78454190D01*
X22321380Y-78597047D01*
X22321380Y-78692285D01*
X22321380Y-77311333D02*
X22321380Y-77882761D01*
X22321380Y-77597047D02*
X21321380Y-77597047D01*
X21464238Y-77692285D01*
X21559476Y-77787523D01*
X21607095Y-77882761D01*
X43656261Y-72533119D02*
X43561023Y-72485500D01*
X43465785Y-72390261D01*
X43322928Y-72247404D01*
X43227690Y-72199785D01*
X43132452Y-72199785D01*
X43180071Y-72437880D02*
X43084833Y-72390261D01*
X42989595Y-72295023D01*
X42941976Y-72104547D01*
X42941976Y-71771214D01*
X42989595Y-71580738D01*
X43084833Y-71485500D01*
X43180071Y-71437880D01*
X43370547Y-71437880D01*
X43465785Y-71485500D01*
X43561023Y-71580738D01*
X43608642Y-71771214D01*
X43608642Y-72104547D01*
X43561023Y-72295023D01*
X43465785Y-72390261D01*
X43370547Y-72437880D01*
X43180071Y-72437880D01*
X44561023Y-72437880D02*
X43989595Y-72437880D01*
X44275309Y-72437880D02*
X44275309Y-71437880D01*
X44180071Y-71580738D01*
X44084833Y-71675976D01*
X43989595Y-71723595D01*
X59221619Y-77692238D02*
X59174000Y-77787476D01*
X59078761Y-77882714D01*
X58935904Y-78025571D01*
X58888285Y-78120809D01*
X58888285Y-78216047D01*
X59126380Y-78168428D02*
X59078761Y-78263666D01*
X58983523Y-78358904D01*
X58793047Y-78406523D01*
X58459714Y-78406523D01*
X58269238Y-78358904D01*
X58174000Y-78263666D01*
X58126380Y-78168428D01*
X58126380Y-77977952D01*
X58174000Y-77882714D01*
X58269238Y-77787476D01*
X58459714Y-77739857D01*
X58793047Y-77739857D01*
X58983523Y-77787476D01*
X59078761Y-77882714D01*
X59126380Y-77977952D01*
X59126380Y-78168428D01*
X58221619Y-77358904D02*
X58174000Y-77311285D01*
X58126380Y-77216047D01*
X58126380Y-76977952D01*
X58174000Y-76882714D01*
X58221619Y-76835095D01*
X58316857Y-76787476D01*
X58412095Y-76787476D01*
X58554952Y-76835095D01*
X59126380Y-77406523D01*
X59126380Y-76787476D01*
X27575119Y-56292738D02*
X27527500Y-56387976D01*
X27432261Y-56483214D01*
X27289404Y-56626071D01*
X27241785Y-56721309D01*
X27241785Y-56816547D01*
X27479880Y-56768928D02*
X27432261Y-56864166D01*
X27337023Y-56959404D01*
X27146547Y-57007023D01*
X26813214Y-57007023D01*
X26622738Y-56959404D01*
X26527500Y-56864166D01*
X26479880Y-56768928D01*
X26479880Y-56578452D01*
X26527500Y-56483214D01*
X26622738Y-56387976D01*
X26813214Y-56340357D01*
X27146547Y-56340357D01*
X27337023Y-56387976D01*
X27432261Y-56483214D01*
X27479880Y-56578452D01*
X27479880Y-56768928D01*
X26479880Y-56007023D02*
X26479880Y-55387976D01*
X26860833Y-55721309D01*
X26860833Y-55578452D01*
X26908452Y-55483214D01*
X26956071Y-55435595D01*
X27051309Y-55387976D01*
X27289404Y-55387976D01*
X27384642Y-55435595D01*
X27432261Y-55483214D01*
X27479880Y-55578452D01*
X27479880Y-55864166D01*
X27432261Y-55959404D01*
X27384642Y-56007023D01*
X23717261Y-58880619D02*
X23622023Y-58833000D01*
X23526785Y-58737761D01*
X23383928Y-58594904D01*
X23288690Y-58547285D01*
X23193452Y-58547285D01*
X23241071Y-58785380D02*
X23145833Y-58737761D01*
X23050595Y-58642523D01*
X23002976Y-58452047D01*
X23002976Y-58118714D01*
X23050595Y-57928238D01*
X23145833Y-57833000D01*
X23241071Y-57785380D01*
X23431547Y-57785380D01*
X23526785Y-57833000D01*
X23622023Y-57928238D01*
X23669642Y-58118714D01*
X23669642Y-58452047D01*
X23622023Y-58642523D01*
X23526785Y-58737761D01*
X23431547Y-58785380D01*
X23241071Y-58785380D01*
X24526785Y-58118714D02*
X24526785Y-58785380D01*
X24288690Y-57737761D02*
X24050595Y-58452047D01*
X24669642Y-58452047D01*
X28098761Y-47116619D02*
X28003523Y-47069000D01*
X27908285Y-46973761D01*
X27765428Y-46830904D01*
X27670190Y-46783285D01*
X27574952Y-46783285D01*
X27622571Y-47021380D02*
X27527333Y-46973761D01*
X27432095Y-46878523D01*
X27384476Y-46688047D01*
X27384476Y-46354714D01*
X27432095Y-46164238D01*
X27527333Y-46069000D01*
X27622571Y-46021380D01*
X27813047Y-46021380D01*
X27908285Y-46069000D01*
X28003523Y-46164238D01*
X28051142Y-46354714D01*
X28051142Y-46688047D01*
X28003523Y-46878523D01*
X27908285Y-46973761D01*
X27813047Y-47021380D01*
X27622571Y-47021380D01*
X28955904Y-46021380D02*
X28479714Y-46021380D01*
X28432095Y-46497571D01*
X28479714Y-46449952D01*
X28574952Y-46402333D01*
X28813047Y-46402333D01*
X28908285Y-46449952D01*
X28955904Y-46497571D01*
X29003523Y-46592809D01*
X29003523Y-46830904D01*
X28955904Y-46926142D01*
X28908285Y-46973761D01*
X28813047Y-47021380D01*
X28574952Y-47021380D01*
X28479714Y-46973761D01*
X28432095Y-46926142D01*
X46300380Y-79033666D02*
X45824190Y-79367000D01*
X46300380Y-79605095D02*
X45300380Y-79605095D01*
X45300380Y-79224142D01*
X45348000Y-79128904D01*
X45395619Y-79081285D01*
X45490857Y-79033666D01*
X45633714Y-79033666D01*
X45728952Y-79081285D01*
X45776571Y-79128904D01*
X45824190Y-79224142D01*
X45824190Y-79605095D01*
X46300380Y-78081285D02*
X46300380Y-78652714D01*
X46300380Y-78367000D02*
X45300380Y-78367000D01*
X45443238Y-78462238D01*
X45538476Y-78557476D01*
X45586095Y-78652714D01*
X48283833Y-76587880D02*
X47950500Y-76111690D01*
X47712404Y-76587880D02*
X47712404Y-75587880D01*
X48093357Y-75587880D01*
X48188595Y-75635500D01*
X48236214Y-75683119D01*
X48283833Y-75778357D01*
X48283833Y-75921214D01*
X48236214Y-76016452D01*
X48188595Y-76064071D01*
X48093357Y-76111690D01*
X47712404Y-76111690D01*
X48664785Y-75683119D02*
X48712404Y-75635500D01*
X48807642Y-75587880D01*
X49045738Y-75587880D01*
X49140976Y-75635500D01*
X49188595Y-75683119D01*
X49236214Y-75778357D01*
X49236214Y-75873595D01*
X49188595Y-76016452D01*
X48617166Y-76587880D01*
X49236214Y-76587880D01*
X38885833Y-75635380D02*
X38552500Y-75159190D01*
X38314404Y-75635380D02*
X38314404Y-74635380D01*
X38695357Y-74635380D01*
X38790595Y-74683000D01*
X38838214Y-74730619D01*
X38885833Y-74825857D01*
X38885833Y-74968714D01*
X38838214Y-75063952D01*
X38790595Y-75111571D01*
X38695357Y-75159190D01*
X38314404Y-75159190D01*
X39219166Y-74635380D02*
X39838214Y-74635380D01*
X39504880Y-75016333D01*
X39647738Y-75016333D01*
X39742976Y-75063952D01*
X39790595Y-75111571D01*
X39838214Y-75206809D01*
X39838214Y-75444904D01*
X39790595Y-75540142D01*
X39742976Y-75587761D01*
X39647738Y-75635380D01*
X39362023Y-75635380D01*
X39266785Y-75587761D01*
X39219166Y-75540142D01*
X73234381Y-48138165D02*
X72758191Y-48471499D01*
X73234381Y-48709594D02*
X72234381Y-48709594D01*
X72234381Y-48328641D01*
X72282001Y-48233403D01*
X72329620Y-48185784D01*
X72424858Y-48138165D01*
X72567715Y-48138165D01*
X72662953Y-48185784D01*
X72710572Y-48233403D01*
X72758191Y-48328641D01*
X72758191Y-48709594D01*
X72567715Y-47281022D02*
X73234381Y-47281022D01*
X72186762Y-47519118D02*
X72901048Y-47757213D01*
X72901048Y-47138165D01*
X28344833Y-62490880D02*
X28011500Y-62014690D01*
X27773404Y-62490880D02*
X27773404Y-61490880D01*
X28154357Y-61490880D01*
X28249595Y-61538500D01*
X28297214Y-61586119D01*
X28344833Y-61681357D01*
X28344833Y-61824214D01*
X28297214Y-61919452D01*
X28249595Y-61967071D01*
X28154357Y-62014690D01*
X27773404Y-62014690D01*
X29249595Y-61490880D02*
X28773404Y-61490880D01*
X28725785Y-61967071D01*
X28773404Y-61919452D01*
X28868642Y-61871833D01*
X29106738Y-61871833D01*
X29201976Y-61919452D01*
X29249595Y-61967071D01*
X29297214Y-62062309D01*
X29297214Y-62300404D01*
X29249595Y-62395642D01*
X29201976Y-62443261D01*
X29106738Y-62490880D01*
X28868642Y-62490880D01*
X28773404Y-62443261D01*
X28725785Y-62395642D01*
X23533833Y-54174380D02*
X23200500Y-53698190D01*
X22962404Y-54174380D02*
X22962404Y-53174380D01*
X23343357Y-53174380D01*
X23438595Y-53222000D01*
X23486214Y-53269619D01*
X23533833Y-53364857D01*
X23533833Y-53507714D01*
X23486214Y-53602952D01*
X23438595Y-53650571D01*
X23343357Y-53698190D01*
X22962404Y-53698190D01*
X24390976Y-53174380D02*
X24200500Y-53174380D01*
X24105261Y-53222000D01*
X24057642Y-53269619D01*
X23962404Y-53412476D01*
X23914785Y-53602952D01*
X23914785Y-53983904D01*
X23962404Y-54079142D01*
X24010023Y-54126761D01*
X24105261Y-54174380D01*
X24295738Y-54174380D01*
X24390976Y-54126761D01*
X24438595Y-54079142D01*
X24486214Y-53983904D01*
X24486214Y-53745809D01*
X24438595Y-53650571D01*
X24390976Y-53602952D01*
X24295738Y-53555333D01*
X24105261Y-53555333D01*
X24010023Y-53602952D01*
X23962404Y-53650571D01*
X23914785Y-53745809D01*
X57728380Y-44235666D02*
X57252190Y-44569000D01*
X57728380Y-44807095D02*
X56728380Y-44807095D01*
X56728380Y-44426142D01*
X56776000Y-44330904D01*
X56823619Y-44283285D01*
X56918857Y-44235666D01*
X57061714Y-44235666D01*
X57156952Y-44283285D01*
X57204571Y-44330904D01*
X57252190Y-44426142D01*
X57252190Y-44807095D01*
X56728380Y-43902333D02*
X56728380Y-43235666D01*
X57728380Y-43664238D01*
X54211881Y-44612165D02*
X53735691Y-44945499D01*
X54211881Y-45183594D02*
X53211881Y-45183594D01*
X53211881Y-44802641D01*
X53259501Y-44707403D01*
X53307120Y-44659784D01*
X53402358Y-44612165D01*
X53545215Y-44612165D01*
X53640453Y-44659784D01*
X53688072Y-44707403D01*
X53735691Y-44802641D01*
X53735691Y-45183594D01*
X53640453Y-44040737D02*
X53592834Y-44135975D01*
X53545215Y-44183594D01*
X53449977Y-44231213D01*
X53402358Y-44231213D01*
X53307120Y-44183594D01*
X53259501Y-44135975D01*
X53211881Y-44040737D01*
X53211881Y-43850260D01*
X53259501Y-43755022D01*
X53307120Y-43707403D01*
X53402358Y-43659784D01*
X53449977Y-43659784D01*
X53545215Y-43707403D01*
X53592834Y-43755022D01*
X53640453Y-43850260D01*
X53640453Y-44040737D01*
X53688072Y-44135975D01*
X53735691Y-44183594D01*
X53830929Y-44231213D01*
X54021405Y-44231213D01*
X54116643Y-44183594D01*
X54164262Y-44135975D01*
X54211881Y-44040737D01*
X54211881Y-43850260D01*
X54164262Y-43755022D01*
X54116643Y-43707403D01*
X54021405Y-43659784D01*
X53830929Y-43659784D01*
X53735691Y-43707403D01*
X53688072Y-43755022D01*
X53640453Y-43850260D01*
X51379380Y-44538166D02*
X50903190Y-44871500D01*
X51379380Y-45109595D02*
X50379380Y-45109595D01*
X50379380Y-44728642D01*
X50427000Y-44633404D01*
X50474619Y-44585785D01*
X50569857Y-44538166D01*
X50712714Y-44538166D01*
X50807952Y-44585785D01*
X50855571Y-44633404D01*
X50903190Y-44728642D01*
X50903190Y-45109595D01*
X51379380Y-44061976D02*
X51379380Y-43871500D01*
X51331761Y-43776261D01*
X51284142Y-43728642D01*
X51141285Y-43633404D01*
X50950809Y-43585785D01*
X50569857Y-43585785D01*
X50474619Y-43633404D01*
X50427000Y-43681023D01*
X50379380Y-43776261D01*
X50379380Y-43966738D01*
X50427000Y-44061976D01*
X50474619Y-44109595D01*
X50569857Y-44157214D01*
X50807952Y-44157214D01*
X50903190Y-44109595D01*
X50950809Y-44061976D01*
X50998428Y-43966738D01*
X50998428Y-43776261D01*
X50950809Y-43681023D01*
X50903190Y-43633404D01*
X50807952Y-43585785D01*
X48330380Y-44711857D02*
X47854190Y-45045190D01*
X48330380Y-45283285D02*
X47330380Y-45283285D01*
X47330380Y-44902333D01*
X47378000Y-44807095D01*
X47425619Y-44759476D01*
X47520857Y-44711857D01*
X47663714Y-44711857D01*
X47758952Y-44759476D01*
X47806571Y-44807095D01*
X47854190Y-44902333D01*
X47854190Y-45283285D01*
X48330380Y-43759476D02*
X48330380Y-44330904D01*
X48330380Y-44045190D02*
X47330380Y-44045190D01*
X47473238Y-44140428D01*
X47568476Y-44235666D01*
X47616095Y-44330904D01*
X47330380Y-43140428D02*
X47330380Y-43045190D01*
X47378000Y-42949952D01*
X47425619Y-42902333D01*
X47520857Y-42854714D01*
X47711333Y-42807095D01*
X47949428Y-42807095D01*
X48139904Y-42854714D01*
X48235142Y-42902333D01*
X48282761Y-42949952D01*
X48330380Y-43045190D01*
X48330380Y-43140428D01*
X48282761Y-43235666D01*
X48235142Y-43283285D01*
X48139904Y-43330904D01*
X47949428Y-43378523D01*
X47711333Y-43378523D01*
X47520857Y-43330904D01*
X47425619Y-43283285D01*
X47378000Y-43235666D01*
X47330380Y-43140428D01*
X44774380Y-44711857D02*
X44298190Y-45045190D01*
X44774380Y-45283285D02*
X43774380Y-45283285D01*
X43774380Y-44902333D01*
X43822000Y-44807095D01*
X43869619Y-44759476D01*
X43964857Y-44711857D01*
X44107714Y-44711857D01*
X44202952Y-44759476D01*
X44250571Y-44807095D01*
X44298190Y-44902333D01*
X44298190Y-45283285D01*
X44774380Y-43759476D02*
X44774380Y-44330904D01*
X44774380Y-44045190D02*
X43774380Y-44045190D01*
X43917238Y-44140428D01*
X44012476Y-44235666D01*
X44060095Y-44330904D01*
X44774380Y-42807095D02*
X44774380Y-43378523D01*
X44774380Y-43092809D02*
X43774380Y-43092809D01*
X43917238Y-43188047D01*
X44012476Y-43283285D01*
X44060095Y-43378523D01*
X41472380Y-44711857D02*
X40996190Y-45045190D01*
X41472380Y-45283285D02*
X40472380Y-45283285D01*
X40472380Y-44902333D01*
X40520000Y-44807095D01*
X40567619Y-44759476D01*
X40662857Y-44711857D01*
X40805714Y-44711857D01*
X40900952Y-44759476D01*
X40948571Y-44807095D01*
X40996190Y-44902333D01*
X40996190Y-45283285D01*
X41472380Y-43759476D02*
X41472380Y-44330904D01*
X41472380Y-44045190D02*
X40472380Y-44045190D01*
X40615238Y-44140428D01*
X40710476Y-44235666D01*
X40758095Y-44330904D01*
X40567619Y-43378523D02*
X40520000Y-43330904D01*
X40472380Y-43235666D01*
X40472380Y-42997571D01*
X40520000Y-42902333D01*
X40567619Y-42854714D01*
X40662857Y-42807095D01*
X40758095Y-42807095D01*
X40900952Y-42854714D01*
X41472380Y-43426142D01*
X41472380Y-42807095D01*
X37282380Y-44711857D02*
X36806190Y-45045190D01*
X37282380Y-45283285D02*
X36282380Y-45283285D01*
X36282380Y-44902333D01*
X36330000Y-44807095D01*
X36377619Y-44759476D01*
X36472857Y-44711857D01*
X36615714Y-44711857D01*
X36710952Y-44759476D01*
X36758571Y-44807095D01*
X36806190Y-44902333D01*
X36806190Y-45283285D01*
X37282380Y-43759476D02*
X37282380Y-44330904D01*
X37282380Y-44045190D02*
X36282380Y-44045190D01*
X36425238Y-44140428D01*
X36520476Y-44235666D01*
X36568095Y-44330904D01*
X36282380Y-43426142D02*
X36282380Y-42807095D01*
X36663333Y-43140428D01*
X36663333Y-42997571D01*
X36710952Y-42902333D01*
X36758571Y-42854714D01*
X36853809Y-42807095D01*
X37091904Y-42807095D01*
X37187142Y-42854714D01*
X37234761Y-42902333D01*
X37282380Y-42997571D01*
X37282380Y-43283285D01*
X37234761Y-43378523D01*
X37187142Y-43426142D01*
X31694380Y-44711857D02*
X31218190Y-45045190D01*
X31694380Y-45283285D02*
X30694380Y-45283285D01*
X30694380Y-44902333D01*
X30742000Y-44807095D01*
X30789619Y-44759476D01*
X30884857Y-44711857D01*
X31027714Y-44711857D01*
X31122952Y-44759476D01*
X31170571Y-44807095D01*
X31218190Y-44902333D01*
X31218190Y-45283285D01*
X31694380Y-43759476D02*
X31694380Y-44330904D01*
X31694380Y-44045190D02*
X30694380Y-44045190D01*
X30837238Y-44140428D01*
X30932476Y-44235666D01*
X30980095Y-44330904D01*
X31027714Y-42902333D02*
X31694380Y-42902333D01*
X30646761Y-43140428D02*
X31361047Y-43378523D01*
X31361047Y-42759476D01*
X65024095Y-67445380D02*
X65024095Y-68254904D01*
X65071714Y-68350142D01*
X65119333Y-68397761D01*
X65214571Y-68445380D01*
X65405047Y-68445380D01*
X65500285Y-68397761D01*
X65547904Y-68350142D01*
X65595523Y-68254904D01*
X65595523Y-67445380D01*
X66024095Y-67540619D02*
X66071714Y-67493000D01*
X66166952Y-67445380D01*
X66405047Y-67445380D01*
X66500285Y-67493000D01*
X66547904Y-67540619D01*
X66595523Y-67635857D01*
X66595523Y-67731095D01*
X66547904Y-67873952D01*
X65976476Y-68445380D01*
X66595523Y-68445380D01*
X70358095Y-21572380D02*
X70358095Y-22381904D01*
X70405714Y-22477142D01*
X70453333Y-22524761D01*
X70548571Y-22572380D01*
X70739047Y-22572380D01*
X70834285Y-22524761D01*
X70881904Y-22477142D01*
X70929523Y-22381904D01*
X70929523Y-21572380D01*
X71310476Y-21572380D02*
X71929523Y-21572380D01*
X71596190Y-21953333D01*
X71739047Y-21953333D01*
X71834285Y-22000952D01*
X71881904Y-22048571D01*
X71929523Y-22143809D01*
X71929523Y-22381904D01*
X71881904Y-22477142D01*
X71834285Y-22524761D01*
X71739047Y-22572380D01*
X71453333Y-22572380D01*
X71358095Y-22524761D01*
X71310476Y-22477142D01*
X39789642Y-60110666D02*
X39837261Y-60158285D01*
X39884880Y-60301142D01*
X39884880Y-60396380D01*
X39837261Y-60539238D01*
X39742023Y-60634476D01*
X39646785Y-60682095D01*
X39456309Y-60729714D01*
X39313452Y-60729714D01*
X39122976Y-60682095D01*
X39027738Y-60634476D01*
X38932500Y-60539238D01*
X38884880Y-60396380D01*
X38884880Y-60301142D01*
X38932500Y-60158285D01*
X38980119Y-60110666D01*
X38884880Y-59777333D02*
X38884880Y-59110666D01*
X39884880Y-59539238D01*
X62825333Y-66207642D02*
X62777714Y-66255261D01*
X62634857Y-66302880D01*
X62539619Y-66302880D01*
X62396761Y-66255261D01*
X62301523Y-66160023D01*
X62253904Y-66064785D01*
X62206285Y-65874309D01*
X62206285Y-65731452D01*
X62253904Y-65540976D01*
X62301523Y-65445738D01*
X62396761Y-65350500D01*
X62539619Y-65302880D01*
X62634857Y-65302880D01*
X62777714Y-65350500D01*
X62825333Y-65398119D01*
X63396761Y-65731452D02*
X63301523Y-65683833D01*
X63253904Y-65636214D01*
X63206285Y-65540976D01*
X63206285Y-65493357D01*
X63253904Y-65398119D01*
X63301523Y-65350500D01*
X63396761Y-65302880D01*
X63587238Y-65302880D01*
X63682476Y-65350500D01*
X63730095Y-65398119D01*
X63777714Y-65493357D01*
X63777714Y-65540976D01*
X63730095Y-65636214D01*
X63682476Y-65683833D01*
X63587238Y-65731452D01*
X63396761Y-65731452D01*
X63301523Y-65779071D01*
X63253904Y-65826690D01*
X63206285Y-65921928D01*
X63206285Y-66112404D01*
X63253904Y-66207642D01*
X63301523Y-66255261D01*
X63396761Y-66302880D01*
X63587238Y-66302880D01*
X63682476Y-66255261D01*
X63730095Y-66207642D01*
X63777714Y-66112404D01*
X63777714Y-65921928D01*
X63730095Y-65826690D01*
X63682476Y-65779071D01*
X63587238Y-65731452D01*
X66952833Y-49062642D02*
X66905214Y-49110261D01*
X66762357Y-49157880D01*
X66667119Y-49157880D01*
X66524261Y-49110261D01*
X66429023Y-49015023D01*
X66381404Y-48919785D01*
X66333785Y-48729309D01*
X66333785Y-48586452D01*
X66381404Y-48395976D01*
X66429023Y-48300738D01*
X66524261Y-48205500D01*
X66667119Y-48157880D01*
X66762357Y-48157880D01*
X66905214Y-48205500D01*
X66952833Y-48253119D01*
X67429023Y-49157880D02*
X67619500Y-49157880D01*
X67714738Y-49110261D01*
X67762357Y-49062642D01*
X67857595Y-48919785D01*
X67905214Y-48729309D01*
X67905214Y-48348357D01*
X67857595Y-48253119D01*
X67809976Y-48205500D01*
X67714738Y-48157880D01*
X67524261Y-48157880D01*
X67429023Y-48205500D01*
X67381404Y-48253119D01*
X67333785Y-48348357D01*
X67333785Y-48586452D01*
X67381404Y-48681690D01*
X67429023Y-48729309D01*
X67524261Y-48776928D01*
X67714738Y-48776928D01*
X67809976Y-48729309D01*
X67857595Y-48681690D01*
X67905214Y-48586452D01*
X61792380Y-44726857D02*
X61316190Y-45060190D01*
X61792380Y-45298285D02*
X60792380Y-45298285D01*
X60792380Y-44917333D01*
X60840000Y-44822095D01*
X60887619Y-44774476D01*
X60982857Y-44726857D01*
X61125714Y-44726857D01*
X61220952Y-44774476D01*
X61268571Y-44822095D01*
X61316190Y-44917333D01*
X61316190Y-45298285D01*
X61792380Y-43774476D02*
X61792380Y-44345904D01*
X61792380Y-44060190D02*
X60792380Y-44060190D01*
X60935238Y-44155428D01*
X61030476Y-44250666D01*
X61078095Y-44345904D01*
X60792380Y-42869714D02*
X60792380Y-43345904D01*
X61268571Y-43393523D01*
X61220952Y-43345904D01*
X61173333Y-43250666D01*
X61173333Y-43012571D01*
X61220952Y-42917333D01*
X61268571Y-42869714D01*
X61363809Y-42822095D01*
X61601904Y-42822095D01*
X61697142Y-42869714D01*
X61744761Y-42917333D01*
X61792380Y-43012571D01*
X61792380Y-43250666D01*
X61744761Y-43345904D01*
X61697142Y-43393523D01*
X54546666Y-27764761D02*
X54689523Y-27812380D01*
X54927619Y-27812380D01*
X55022857Y-27764761D01*
X55070476Y-27717142D01*
X55118095Y-27621904D01*
X55118095Y-27526666D01*
X55070476Y-27431428D01*
X55022857Y-27383809D01*
X54927619Y-27336190D01*
X54737142Y-27288571D01*
X54641904Y-27240952D01*
X54594285Y-27193333D01*
X54546666Y-27098095D01*
X54546666Y-27002857D01*
X54594285Y-26907619D01*
X54641904Y-26860000D01*
X54737142Y-26812380D01*
X54975238Y-26812380D01*
X55118095Y-26860000D01*
X55451428Y-26812380D02*
X55689523Y-27812380D01*
X55880000Y-27098095D01*
X56070476Y-27812380D01*
X56308571Y-26812380D01*
X57213333Y-27812380D02*
X56641904Y-27812380D01*
X56927619Y-27812380D02*
X56927619Y-26812380D01*
X56832380Y-26955238D01*
X56737142Y-27050476D01*
X56641904Y-27098095D01*
M02*
