M48
; DRILL file {KiCad (5.1.5)-3} date 2020-04-28 22:14:49
; FORMAT={-:-/ absolute / inch / decimal}
; #@! TF.CreationDate,2020-04-28T22:14:49+02:00
; #@! TF.GenerationSoftware,Kicad,Pcbnew,(5.1.5)-3
; #@! TF.FileFunction,Plated,1,2,PTH
FMAT,2
INCH
T1C0.0157
T2C0.0300
T3C0.0315
T4C0.0394
T5C0.0433
T6C0.0512
%
G90
G05
T1
X0.99Y-1.054
X1.192Y-1.94
X1.21Y-1.67
X1.21Y-1.83
X1.304Y-2.182
X1.325Y-1.45
X1.332Y-1.026
X1.416Y-2.59
X1.444Y-2.034
X1.45Y-1.35
X1.48Y-1.65
X1.49Y-0.874
X1.524Y-2.034
X1.552Y-1.986
X1.558Y-2.336
X1.562Y-1.648
X1.575Y-1.35
X1.584Y-2.026
X1.64Y-0.874
X1.698Y-2.304
X1.75Y-2.56
X1.82Y-1.1
X1.82Y-1.16
X1.848Y-2.21
X1.892Y-2.336
X1.916Y-2.242
X1.946Y-2.62
X2.018Y-2.242
X2.022Y-1.576
X2.078Y-2.336
X2.112Y-1.6009
X2.15Y-1.9
X2.4Y-1.9
X2.476Y-2.388
X2.79Y-2.67
X2.88Y-2.305
X2.92Y-1.44
X2.92Y-1.68
T2
X2.4004Y-1.475
X2.6996Y-1.475
X2.2738Y-0.83
X2.3738Y-0.83
X2.4738Y-0.83
X2.5738Y-0.83
T3
X2.97Y-3.07
X2.97Y-3.1684
X1.49Y-3.165
X1.69Y-3.165
X2.44Y-3.065
X2.44Y-3.1437
T4
X0.99Y-0.935
X0.99Y-1.535
X1.09Y-0.935
X1.09Y-1.535
X1.19Y-0.935
X1.19Y-1.535
X1.29Y-0.935
X1.29Y-1.535
X1.39Y-0.935
X1.39Y-1.535
X1.49Y-0.935
X1.49Y-1.535
X1.59Y-0.935
X1.59Y-1.535
X1.69Y-0.935
X1.69Y-1.535
X1.79Y-0.935
X1.79Y-1.535
T5
X1.69Y-3.325
X2.09Y-3.325
X2.49Y-2.845
X2.59Y-2.845
X2.69Y-2.845
T6
X1.135Y-2.87
X1.135Y-3.07
X1.135Y-3.27
T0
M30
