G04 #@! TF.GenerationSoftware,KiCad,Pcbnew,(5.1.5)-3*
G04 #@! TF.CreationDate,2020-04-27T21:50:17+02:00*
G04 #@! TF.ProjectId,czujnikParkowania,637a756a-6e69-46b5-9061-726b6f77616e,rev?*
G04 #@! TF.SameCoordinates,Original*
G04 #@! TF.FileFunction,Copper,L2,Bot*
G04 #@! TF.FilePolarity,Positive*
%FSLAX46Y46*%
G04 Gerber Fmt 4.6, Leading zero omitted, Abs format (unit mm)*
G04 Created by KiCad (PCBNEW (5.1.5)-3) date 2020-04-27 21:50:17*
%MOMM*%
%LPD*%
G04 APERTURE LIST*
%ADD10R,1.500000X1.500000*%
%ADD11C,1.500000*%
%ADD12C,1.524000*%
%ADD13R,1.524000X1.524000*%
%ADD14R,1.600000X1.600000*%
%ADD15C,1.600000*%
%ADD16R,2.200000X2.200000*%
%ADD17O,2.200000X2.200000*%
%ADD18O,1.600000X1.600000*%
%ADD19R,2.600000X2.600000*%
%ADD20C,2.600000*%
%ADD21R,1.905000X2.000000*%
%ADD22O,1.905000X2.000000*%
%ADD23C,0.800000*%
%ADD24C,0.250000*%
G04 APERTURE END LIST*
D10*
X25146000Y-38989000D03*
D11*
X27686000Y-38989000D03*
X30226000Y-38989000D03*
X32766000Y-38989000D03*
X35306000Y-38989000D03*
X37846000Y-38989000D03*
X40386000Y-38989000D03*
X42926000Y-38989000D03*
X45466000Y-38989000D03*
X45466000Y-23749000D03*
X42926000Y-23749000D03*
X40386000Y-23749000D03*
X37846000Y-23749000D03*
X35306000Y-23749000D03*
X32766000Y-23749000D03*
X30226000Y-23749000D03*
X27686000Y-23749000D03*
X25146000Y-23749000D03*
D12*
X60970000Y-37465000D03*
D13*
X68570000Y-37465000D03*
D14*
X61976000Y-77851000D03*
D15*
X61976000Y-79851000D03*
D14*
X75438000Y-77978000D03*
D15*
X75438000Y-80478000D03*
D16*
X53086000Y-84455000D03*
D17*
X42926000Y-84455000D03*
D15*
X42926000Y-80391000D03*
D18*
X37846000Y-80391000D03*
D19*
X28829000Y-83058000D03*
D20*
X28829000Y-77978000D03*
X28829000Y-72898000D03*
D21*
X63246000Y-72263000D03*
D22*
X65786000Y-72263000D03*
X68326000Y-72263000D03*
D12*
X60295000Y-21082000D03*
X62835000Y-21082000D03*
X65375000Y-21082000D03*
D13*
X57755000Y-21082000D03*
D23*
X73152000Y-58547000D03*
X62890400Y-60655200D03*
X48056800Y-59334400D03*
X52781200Y-59334400D03*
X43129200Y-58521600D03*
X39573200Y-59334400D03*
X35966400Y-65786000D03*
X54610000Y-48260000D03*
X60960000Y-48260000D03*
X30734000Y-42418000D03*
X30734000Y-46482000D03*
X40233600Y-51460400D03*
X39420800Y-50444400D03*
X36677600Y-51663600D03*
X38709600Y-51663600D03*
X33121600Y-55422800D03*
X30276800Y-49276000D03*
X25146000Y-26771600D03*
X33832800Y-26060400D03*
X53644800Y-40662800D03*
X51358800Y-40030400D03*
X41656000Y-22199600D03*
X37846000Y-22199600D03*
X40005000Y-34290000D03*
X36830000Y-34290000D03*
X33655000Y-36830000D03*
X39674800Y-41859200D03*
X37592000Y-41910000D03*
X51257200Y-56946800D03*
X48666400Y-56946800D03*
X46939200Y-56134000D03*
X49428400Y-66548000D03*
X44450000Y-65024000D03*
X70866000Y-67818000D03*
D24*
X69088000Y-58547000D02*
X73152000Y-58547000D01*
X66979800Y-60655200D02*
X69088000Y-58547000D01*
X62890400Y-60655200D02*
X66979800Y-60655200D01*
X48056800Y-59334400D02*
X52781200Y-59334400D01*
X43129200Y-58521600D02*
X40386000Y-58521600D01*
X40386000Y-58521600D02*
X39573200Y-59334400D01*
X39573200Y-59334400D02*
X39573200Y-62179200D01*
X39573200Y-62179200D02*
X35966400Y-65786000D01*
X60960000Y-48260000D02*
X54610000Y-48260000D01*
X31133999Y-46082001D02*
X30734000Y-46482000D01*
X31133999Y-42817999D02*
X31133999Y-46082001D01*
X30734000Y-42418000D02*
X31133999Y-42817999D01*
X62835000Y-22159630D02*
X56445030Y-28549600D01*
X62835000Y-21082000D02*
X62835000Y-22159630D01*
X56445030Y-28549600D02*
X56445030Y-40684570D01*
X56445030Y-40684570D02*
X45669200Y-51460400D01*
X45669200Y-51460400D02*
X40233600Y-51460400D01*
X39820799Y-50044401D02*
X46272399Y-50044401D01*
X39420800Y-50444400D02*
X39820799Y-50044401D01*
X46272399Y-50044401D02*
X55930800Y-40386000D01*
X55930800Y-40386000D02*
X55930800Y-28295600D01*
X60295000Y-23931400D02*
X60295000Y-22042600D01*
X55930800Y-28295600D02*
X60295000Y-23931400D01*
X60295000Y-21082000D02*
X60295000Y-22042600D01*
X60295000Y-22042600D02*
X60295000Y-22159630D01*
X36677600Y-51663600D02*
X38709600Y-51663600D01*
X60970000Y-37465000D02*
X43012200Y-55422800D01*
X43012200Y-55422800D02*
X33121600Y-55422800D01*
X34230999Y-45321801D02*
X30276800Y-49276000D01*
X34230999Y-38472999D02*
X34230999Y-45321801D01*
X35306000Y-23749000D02*
X35306000Y-37397998D01*
X35306000Y-37397998D02*
X34230999Y-38472999D01*
X25146000Y-26771600D02*
X33121600Y-26771600D01*
X33121600Y-26771600D02*
X33832800Y-26060400D01*
X53644800Y-40662800D02*
X51991200Y-40662800D01*
X51991200Y-40662800D02*
X51358800Y-40030400D01*
X41656000Y-22199600D02*
X37846000Y-22199600D01*
X40005000Y-34290000D02*
X36830000Y-34290000D01*
X27686000Y-38989000D02*
X29845000Y-36830000D01*
X29845000Y-36830000D02*
X33655000Y-36830000D01*
X40386000Y-24809660D02*
X41656000Y-26079660D01*
X40386000Y-23749000D02*
X40386000Y-24809660D01*
X41656000Y-26079660D02*
X41656000Y-39878000D01*
X41656000Y-39878000D02*
X39674800Y-41859200D01*
X40386000Y-39116000D02*
X40386000Y-38989000D01*
X37592000Y-41910000D02*
X40386000Y-39116000D01*
X51257200Y-56946800D02*
X48666400Y-56946800D01*
X46939200Y-56134000D02*
X46939200Y-64058800D01*
X46939200Y-64058800D02*
X49428400Y-66548000D01*
X44450000Y-65024000D02*
X44450000Y-66040000D01*
X44450000Y-66040000D02*
X46228000Y-67818000D01*
X46228000Y-67818000D02*
X70866000Y-67818000D01*
M02*
