G04 #@! TF.GenerationSoftware,KiCad,Pcbnew,(5.1.5)-3*
G04 #@! TF.CreationDate,2020-04-26T18:57:48+02:00*
G04 #@! TF.ProjectId,czujnikParkowania,637a756a-6e69-46b5-9061-726b6f77616e,rev?*
G04 #@! TF.SameCoordinates,Original*
G04 #@! TF.FileFunction,Soldermask,Top*
G04 #@! TF.FilePolarity,Negative*
%FSLAX46Y46*%
G04 Gerber Fmt 4.6, Leading zero omitted, Abs format (unit mm)*
G04 Created by KiCad (PCBNEW (5.1.5)-3) date 2020-04-26 18:57:48*
%MOMM*%
%LPD*%
G04 APERTURE LIST*
%ADD10C,0.100000*%
G04 APERTURE END LIST*
D10*
G36*
X54237000Y-85606000D02*
G01*
X51935000Y-85606000D01*
X51935000Y-83304000D01*
X54237000Y-83304000D01*
X54237000Y-85606000D01*
G37*
G36*
X43150549Y-83326116D02*
G01*
X43261734Y-83348232D01*
X43471203Y-83434997D01*
X43659720Y-83560960D01*
X43820040Y-83721280D01*
X43946003Y-83909797D01*
X44032768Y-84119266D01*
X44077000Y-84341636D01*
X44077000Y-84568364D01*
X44032768Y-84790734D01*
X43946003Y-85000203D01*
X43820040Y-85188720D01*
X43659720Y-85349040D01*
X43471203Y-85475003D01*
X43261734Y-85561768D01*
X43150549Y-85583884D01*
X43039365Y-85606000D01*
X42812635Y-85606000D01*
X42701451Y-85583884D01*
X42590266Y-85561768D01*
X42380797Y-85475003D01*
X42192280Y-85349040D01*
X42031960Y-85188720D01*
X41905997Y-85000203D01*
X41819232Y-84790734D01*
X41775000Y-84568364D01*
X41775000Y-84341636D01*
X41819232Y-84119266D01*
X41905997Y-83909797D01*
X42031960Y-83721280D01*
X42192280Y-83560960D01*
X42380797Y-83434997D01*
X42590266Y-83348232D01*
X42701451Y-83326116D01*
X42812635Y-83304000D01*
X43039365Y-83304000D01*
X43150549Y-83326116D01*
G37*
G36*
X30180000Y-84409000D02*
G01*
X27478000Y-84409000D01*
X27478000Y-81707000D01*
X30180000Y-81707000D01*
X30180000Y-84409000D01*
G37*
G36*
X54806428Y-79239264D02*
G01*
X54827509Y-79245660D01*
X54846945Y-79256048D01*
X54863976Y-79270024D01*
X54877952Y-79287055D01*
X54888340Y-79306491D01*
X54894736Y-79327572D01*
X54897500Y-79355640D01*
X54897500Y-81169360D01*
X54894736Y-81197428D01*
X54888340Y-81218509D01*
X54877952Y-81237945D01*
X54863976Y-81254976D01*
X54846945Y-81268952D01*
X54827509Y-81279340D01*
X54806428Y-81285736D01*
X54778360Y-81288500D01*
X54314640Y-81288500D01*
X54286572Y-81285736D01*
X54265491Y-81279340D01*
X54246055Y-81268952D01*
X54229024Y-81254976D01*
X54215048Y-81237945D01*
X54204660Y-81218509D01*
X54198264Y-81197428D01*
X54195500Y-81169360D01*
X54195500Y-79355640D01*
X54198264Y-79327572D01*
X54204660Y-79306491D01*
X54215048Y-79287055D01*
X54229024Y-79270024D01*
X54246055Y-79256048D01*
X54265491Y-79245660D01*
X54286572Y-79239264D01*
X54314640Y-79236500D01*
X54778360Y-79236500D01*
X54806428Y-79239264D01*
G37*
G36*
X53536428Y-79239264D02*
G01*
X53557509Y-79245660D01*
X53576945Y-79256048D01*
X53593976Y-79270024D01*
X53607952Y-79287055D01*
X53618340Y-79306491D01*
X53624736Y-79327572D01*
X53627500Y-79355640D01*
X53627500Y-81169360D01*
X53624736Y-81197428D01*
X53618340Y-81218509D01*
X53607952Y-81237945D01*
X53593976Y-81254976D01*
X53576945Y-81268952D01*
X53557509Y-81279340D01*
X53536428Y-81285736D01*
X53508360Y-81288500D01*
X53044640Y-81288500D01*
X53016572Y-81285736D01*
X52995491Y-81279340D01*
X52976055Y-81268952D01*
X52959024Y-81254976D01*
X52945048Y-81237945D01*
X52934660Y-81218509D01*
X52928264Y-81197428D01*
X52925500Y-81169360D01*
X52925500Y-79355640D01*
X52928264Y-79327572D01*
X52934660Y-79306491D01*
X52945048Y-79287055D01*
X52959024Y-79270024D01*
X52976055Y-79256048D01*
X52995491Y-79245660D01*
X53016572Y-79239264D01*
X53044640Y-79236500D01*
X53508360Y-79236500D01*
X53536428Y-79239264D01*
G37*
G36*
X57346428Y-79239264D02*
G01*
X57367509Y-79245660D01*
X57386945Y-79256048D01*
X57403976Y-79270024D01*
X57417952Y-79287055D01*
X57428340Y-79306491D01*
X57434736Y-79327572D01*
X57437500Y-79355640D01*
X57437500Y-81169360D01*
X57434736Y-81197428D01*
X57428340Y-81218509D01*
X57417952Y-81237945D01*
X57403976Y-81254976D01*
X57386945Y-81268952D01*
X57367509Y-81279340D01*
X57346428Y-81285736D01*
X57318360Y-81288500D01*
X56854640Y-81288500D01*
X56826572Y-81285736D01*
X56805491Y-81279340D01*
X56786055Y-81268952D01*
X56769024Y-81254976D01*
X56755048Y-81237945D01*
X56744660Y-81218509D01*
X56738264Y-81197428D01*
X56735500Y-81169360D01*
X56735500Y-79355640D01*
X56738264Y-79327572D01*
X56744660Y-79306491D01*
X56755048Y-79287055D01*
X56769024Y-79270024D01*
X56786055Y-79256048D01*
X56805491Y-79245660D01*
X56826572Y-79239264D01*
X56854640Y-79236500D01*
X57318360Y-79236500D01*
X57346428Y-79239264D01*
G37*
G36*
X56076428Y-79239264D02*
G01*
X56097509Y-79245660D01*
X56116945Y-79256048D01*
X56133976Y-79270024D01*
X56147952Y-79287055D01*
X56158340Y-79306491D01*
X56164736Y-79327572D01*
X56167500Y-79355640D01*
X56167500Y-81169360D01*
X56164736Y-81197428D01*
X56158340Y-81218509D01*
X56147952Y-81237945D01*
X56133976Y-81254976D01*
X56116945Y-81268952D01*
X56097509Y-81279340D01*
X56076428Y-81285736D01*
X56048360Y-81288500D01*
X55584640Y-81288500D01*
X55556572Y-81285736D01*
X55535491Y-81279340D01*
X55516055Y-81268952D01*
X55499024Y-81254976D01*
X55485048Y-81237945D01*
X55474660Y-81218509D01*
X55468264Y-81197428D01*
X55465500Y-81169360D01*
X55465500Y-79355640D01*
X55468264Y-79327572D01*
X55474660Y-79306491D01*
X55485048Y-79287055D01*
X55499024Y-79270024D01*
X55516055Y-79256048D01*
X55535491Y-79245660D01*
X55556572Y-79239264D01*
X55584640Y-79236500D01*
X56048360Y-79236500D01*
X56076428Y-79239264D01*
G37*
G36*
X43174228Y-79572703D02*
G01*
X43329100Y-79636853D01*
X43468481Y-79729985D01*
X43587015Y-79848519D01*
X43680147Y-79987900D01*
X43744297Y-80142772D01*
X43777000Y-80307184D01*
X43777000Y-80474816D01*
X43744297Y-80639228D01*
X43680147Y-80794100D01*
X43587015Y-80933481D01*
X43468481Y-81052015D01*
X43329100Y-81145147D01*
X43174228Y-81209297D01*
X43009816Y-81242000D01*
X42842184Y-81242000D01*
X42677772Y-81209297D01*
X42522900Y-81145147D01*
X42383519Y-81052015D01*
X42264985Y-80933481D01*
X42171853Y-80794100D01*
X42107703Y-80639228D01*
X42075000Y-80474816D01*
X42075000Y-80307184D01*
X42107703Y-80142772D01*
X42171853Y-79987900D01*
X42264985Y-79848519D01*
X42383519Y-79729985D01*
X42522900Y-79636853D01*
X42677772Y-79572703D01*
X42842184Y-79540000D01*
X43009816Y-79540000D01*
X43174228Y-79572703D01*
G37*
G36*
X38094228Y-79572703D02*
G01*
X38249100Y-79636853D01*
X38388481Y-79729985D01*
X38507015Y-79848519D01*
X38600147Y-79987900D01*
X38664297Y-80142772D01*
X38697000Y-80307184D01*
X38697000Y-80474816D01*
X38664297Y-80639228D01*
X38600147Y-80794100D01*
X38507015Y-80933481D01*
X38388481Y-81052015D01*
X38249100Y-81145147D01*
X38094228Y-81209297D01*
X37929816Y-81242000D01*
X37762184Y-81242000D01*
X37597772Y-81209297D01*
X37442900Y-81145147D01*
X37303519Y-81052015D01*
X37184985Y-80933481D01*
X37091853Y-80794100D01*
X37027703Y-80639228D01*
X36995000Y-80474816D01*
X36995000Y-80307184D01*
X37027703Y-80142772D01*
X37091853Y-79987900D01*
X37184985Y-79848519D01*
X37303519Y-79729985D01*
X37442900Y-79636853D01*
X37597772Y-79572703D01*
X37762184Y-79540000D01*
X37929816Y-79540000D01*
X38094228Y-79572703D01*
G37*
G36*
X62224228Y-79032703D02*
G01*
X62379100Y-79096853D01*
X62518481Y-79189985D01*
X62637015Y-79308519D01*
X62730147Y-79447900D01*
X62794297Y-79602772D01*
X62827000Y-79767184D01*
X62827000Y-79934816D01*
X62794297Y-80099228D01*
X62730147Y-80254100D01*
X62637015Y-80393481D01*
X62518481Y-80512015D01*
X62379100Y-80605147D01*
X62224228Y-80669297D01*
X62059816Y-80702000D01*
X61892184Y-80702000D01*
X61727772Y-80669297D01*
X61572900Y-80605147D01*
X61433519Y-80512015D01*
X61314985Y-80393481D01*
X61221853Y-80254100D01*
X61157703Y-80099228D01*
X61125000Y-79934816D01*
X61125000Y-79767184D01*
X61157703Y-79602772D01*
X61221853Y-79447900D01*
X61314985Y-79308519D01*
X61433519Y-79189985D01*
X61572900Y-79096853D01*
X61727772Y-79032703D01*
X61892184Y-79000000D01*
X62059816Y-79000000D01*
X62224228Y-79032703D01*
G37*
G36*
X48082468Y-79270565D02*
G01*
X48121138Y-79282296D01*
X48156777Y-79301346D01*
X48188017Y-79326983D01*
X48213654Y-79358223D01*
X48232704Y-79393862D01*
X48244435Y-79432532D01*
X48249000Y-79478888D01*
X48249000Y-80130112D01*
X48244435Y-80176468D01*
X48232704Y-80215138D01*
X48213654Y-80250777D01*
X48188017Y-80282017D01*
X48156777Y-80307654D01*
X48121138Y-80326704D01*
X48082468Y-80338435D01*
X48036112Y-80343000D01*
X46959888Y-80343000D01*
X46913532Y-80338435D01*
X46874862Y-80326704D01*
X46839223Y-80307654D01*
X46807983Y-80282017D01*
X46782346Y-80250777D01*
X46763296Y-80215138D01*
X46751565Y-80176468D01*
X46747000Y-80130112D01*
X46747000Y-79478888D01*
X46751565Y-79432532D01*
X46763296Y-79393862D01*
X46782346Y-79358223D01*
X46807983Y-79326983D01*
X46839223Y-79301346D01*
X46874862Y-79282296D01*
X46913532Y-79270565D01*
X46959888Y-79266000D01*
X48036112Y-79266000D01*
X48082468Y-79270565D01*
G37*
G36*
X75686228Y-78008703D02*
G01*
X75841100Y-78072853D01*
X75980481Y-78165985D01*
X76099015Y-78284519D01*
X76192147Y-78423900D01*
X76256297Y-78578772D01*
X76289000Y-78743184D01*
X76289000Y-78910816D01*
X76256297Y-79075228D01*
X76192147Y-79230100D01*
X76099015Y-79369481D01*
X75980481Y-79488015D01*
X75841100Y-79581147D01*
X75686228Y-79645297D01*
X75521816Y-79678000D01*
X75354184Y-79678000D01*
X75189772Y-79645297D01*
X75034900Y-79581147D01*
X74895519Y-79488015D01*
X74776985Y-79369481D01*
X74683853Y-79230100D01*
X74619703Y-79075228D01*
X74587000Y-78910816D01*
X74587000Y-78743184D01*
X74619703Y-78578772D01*
X74683853Y-78423900D01*
X74776985Y-78284519D01*
X74895519Y-78165985D01*
X75034900Y-78072853D01*
X75189772Y-78008703D01*
X75354184Y-77976000D01*
X75521816Y-77976000D01*
X75686228Y-78008703D01*
G37*
G36*
X29223072Y-76678918D02*
G01*
X29468939Y-76780759D01*
X29580328Y-76855187D01*
X29690211Y-76928609D01*
X29878391Y-77116789D01*
X29947129Y-77219663D01*
X30011983Y-77316722D01*
X30026242Y-77338063D01*
X30128082Y-77583928D01*
X30180000Y-77844937D01*
X30180000Y-78111063D01*
X30128082Y-78372072D01*
X30026242Y-78617937D01*
X29878391Y-78839211D01*
X29690211Y-79027391D01*
X29586256Y-79096852D01*
X29468939Y-79175241D01*
X29468938Y-79175242D01*
X29468937Y-79175242D01*
X29223072Y-79277082D01*
X28962063Y-79329000D01*
X28695937Y-79329000D01*
X28434928Y-79277082D01*
X28189063Y-79175242D01*
X28189062Y-79175242D01*
X28189061Y-79175241D01*
X28071744Y-79096852D01*
X27967789Y-79027391D01*
X27779609Y-78839211D01*
X27631758Y-78617937D01*
X27529918Y-78372072D01*
X27478000Y-78111063D01*
X27478000Y-77844937D01*
X27529918Y-77583928D01*
X27631758Y-77338063D01*
X27646018Y-77316722D01*
X27710871Y-77219663D01*
X27779609Y-77116789D01*
X27967789Y-76928609D01*
X28077672Y-76855187D01*
X28189061Y-76780759D01*
X28434928Y-76678918D01*
X28695937Y-76627000D01*
X28962063Y-76627000D01*
X29223072Y-76678918D01*
G37*
G36*
X62827000Y-78702000D02*
G01*
X61125000Y-78702000D01*
X61125000Y-77000000D01*
X62827000Y-77000000D01*
X62827000Y-78702000D01*
G37*
G36*
X68268468Y-77104565D02*
G01*
X68307138Y-77116296D01*
X68342777Y-77135346D01*
X68374017Y-77160983D01*
X68399654Y-77192223D01*
X68418704Y-77227862D01*
X68430435Y-77266532D01*
X68435000Y-77312888D01*
X68435000Y-78389112D01*
X68430435Y-78435468D01*
X68418704Y-78474138D01*
X68399654Y-78509777D01*
X68374017Y-78541017D01*
X68342777Y-78566654D01*
X68307138Y-78585704D01*
X68268468Y-78597435D01*
X68222112Y-78602000D01*
X67570888Y-78602000D01*
X67524532Y-78597435D01*
X67485862Y-78585704D01*
X67450223Y-78566654D01*
X67418983Y-78541017D01*
X67393346Y-78509777D01*
X67374296Y-78474138D01*
X67362565Y-78435468D01*
X67358000Y-78389112D01*
X67358000Y-77312888D01*
X67362565Y-77266532D01*
X67374296Y-77227862D01*
X67393346Y-77192223D01*
X67418983Y-77160983D01*
X67450223Y-77135346D01*
X67485862Y-77116296D01*
X67524532Y-77104565D01*
X67570888Y-77100000D01*
X68222112Y-77100000D01*
X68268468Y-77104565D01*
G37*
G36*
X70143468Y-77104565D02*
G01*
X70182138Y-77116296D01*
X70217777Y-77135346D01*
X70249017Y-77160983D01*
X70274654Y-77192223D01*
X70293704Y-77227862D01*
X70305435Y-77266532D01*
X70310000Y-77312888D01*
X70310000Y-78389112D01*
X70305435Y-78435468D01*
X70293704Y-78474138D01*
X70274654Y-78509777D01*
X70249017Y-78541017D01*
X70217777Y-78566654D01*
X70182138Y-78585704D01*
X70143468Y-78597435D01*
X70097112Y-78602000D01*
X69445888Y-78602000D01*
X69399532Y-78597435D01*
X69360862Y-78585704D01*
X69325223Y-78566654D01*
X69293983Y-78541017D01*
X69268346Y-78509777D01*
X69249296Y-78474138D01*
X69237565Y-78435468D01*
X69233000Y-78389112D01*
X69233000Y-77312888D01*
X69237565Y-77266532D01*
X69249296Y-77227862D01*
X69268346Y-77192223D01*
X69293983Y-77160983D01*
X69325223Y-77135346D01*
X69360862Y-77116296D01*
X69399532Y-77104565D01*
X69445888Y-77100000D01*
X70097112Y-77100000D01*
X70143468Y-77104565D01*
G37*
G36*
X48082468Y-77395565D02*
G01*
X48121138Y-77407296D01*
X48156777Y-77426346D01*
X48188017Y-77451983D01*
X48213654Y-77483223D01*
X48232704Y-77518862D01*
X48244435Y-77557532D01*
X48249000Y-77603888D01*
X48249000Y-78255112D01*
X48244435Y-78301468D01*
X48232704Y-78340138D01*
X48213654Y-78375777D01*
X48188017Y-78407017D01*
X48156777Y-78432654D01*
X48121138Y-78451704D01*
X48082468Y-78463435D01*
X48036112Y-78468000D01*
X46959888Y-78468000D01*
X46913532Y-78463435D01*
X46874862Y-78451704D01*
X46839223Y-78432654D01*
X46807983Y-78407017D01*
X46782346Y-78375777D01*
X46763296Y-78340138D01*
X46751565Y-78301468D01*
X46747000Y-78255112D01*
X46747000Y-77603888D01*
X46751565Y-77557532D01*
X46763296Y-77518862D01*
X46782346Y-77483223D01*
X46807983Y-77451983D01*
X46839223Y-77426346D01*
X46874862Y-77407296D01*
X46913532Y-77395565D01*
X46959888Y-77391000D01*
X48036112Y-77391000D01*
X48082468Y-77395565D01*
G37*
G36*
X76289000Y-77178000D02*
G01*
X74587000Y-77178000D01*
X74587000Y-75476000D01*
X76289000Y-75476000D01*
X76289000Y-77178000D01*
G37*
G36*
X53536428Y-74289264D02*
G01*
X53557509Y-74295660D01*
X53576945Y-74306048D01*
X53593976Y-74320024D01*
X53607952Y-74337055D01*
X53618340Y-74356491D01*
X53624736Y-74377572D01*
X53627500Y-74405640D01*
X53627500Y-76219360D01*
X53624736Y-76247428D01*
X53618340Y-76268509D01*
X53607952Y-76287945D01*
X53593976Y-76304976D01*
X53576945Y-76318952D01*
X53557509Y-76329340D01*
X53536428Y-76335736D01*
X53508360Y-76338500D01*
X53044640Y-76338500D01*
X53016572Y-76335736D01*
X52995491Y-76329340D01*
X52976055Y-76318952D01*
X52959024Y-76304976D01*
X52945048Y-76287945D01*
X52934660Y-76268509D01*
X52928264Y-76247428D01*
X52925500Y-76219360D01*
X52925500Y-74405640D01*
X52928264Y-74377572D01*
X52934660Y-74356491D01*
X52945048Y-74337055D01*
X52959024Y-74320024D01*
X52976055Y-74306048D01*
X52995491Y-74295660D01*
X53016572Y-74289264D01*
X53044640Y-74286500D01*
X53508360Y-74286500D01*
X53536428Y-74289264D01*
G37*
G36*
X54806428Y-74289264D02*
G01*
X54827509Y-74295660D01*
X54846945Y-74306048D01*
X54863976Y-74320024D01*
X54877952Y-74337055D01*
X54888340Y-74356491D01*
X54894736Y-74377572D01*
X54897500Y-74405640D01*
X54897500Y-76219360D01*
X54894736Y-76247428D01*
X54888340Y-76268509D01*
X54877952Y-76287945D01*
X54863976Y-76304976D01*
X54846945Y-76318952D01*
X54827509Y-76329340D01*
X54806428Y-76335736D01*
X54778360Y-76338500D01*
X54314640Y-76338500D01*
X54286572Y-76335736D01*
X54265491Y-76329340D01*
X54246055Y-76318952D01*
X54229024Y-76304976D01*
X54215048Y-76287945D01*
X54204660Y-76268509D01*
X54198264Y-76247428D01*
X54195500Y-76219360D01*
X54195500Y-74405640D01*
X54198264Y-74377572D01*
X54204660Y-74356491D01*
X54215048Y-74337055D01*
X54229024Y-74320024D01*
X54246055Y-74306048D01*
X54265491Y-74295660D01*
X54286572Y-74289264D01*
X54314640Y-74286500D01*
X54778360Y-74286500D01*
X54806428Y-74289264D01*
G37*
G36*
X57346428Y-74289264D02*
G01*
X57367509Y-74295660D01*
X57386945Y-74306048D01*
X57403976Y-74320024D01*
X57417952Y-74337055D01*
X57428340Y-74356491D01*
X57434736Y-74377572D01*
X57437500Y-74405640D01*
X57437500Y-76219360D01*
X57434736Y-76247428D01*
X57428340Y-76268509D01*
X57417952Y-76287945D01*
X57403976Y-76304976D01*
X57386945Y-76318952D01*
X57367509Y-76329340D01*
X57346428Y-76335736D01*
X57318360Y-76338500D01*
X56854640Y-76338500D01*
X56826572Y-76335736D01*
X56805491Y-76329340D01*
X56786055Y-76318952D01*
X56769024Y-76304976D01*
X56755048Y-76287945D01*
X56744660Y-76268509D01*
X56738264Y-76247428D01*
X56735500Y-76219360D01*
X56735500Y-74405640D01*
X56738264Y-74377572D01*
X56744660Y-74356491D01*
X56755048Y-74337055D01*
X56769024Y-74320024D01*
X56786055Y-74306048D01*
X56805491Y-74295660D01*
X56826572Y-74289264D01*
X56854640Y-74286500D01*
X57318360Y-74286500D01*
X57346428Y-74289264D01*
G37*
G36*
X56076428Y-74289264D02*
G01*
X56097509Y-74295660D01*
X56116945Y-74306048D01*
X56133976Y-74320024D01*
X56147952Y-74337055D01*
X56158340Y-74356491D01*
X56164736Y-74377572D01*
X56167500Y-74405640D01*
X56167500Y-76219360D01*
X56164736Y-76247428D01*
X56158340Y-76268509D01*
X56147952Y-76287945D01*
X56133976Y-76304976D01*
X56116945Y-76318952D01*
X56097509Y-76329340D01*
X56076428Y-76335736D01*
X56048360Y-76338500D01*
X55584640Y-76338500D01*
X55556572Y-76335736D01*
X55535491Y-76329340D01*
X55516055Y-76318952D01*
X55499024Y-76304976D01*
X55485048Y-76287945D01*
X55474660Y-76268509D01*
X55468264Y-76247428D01*
X55465500Y-76219360D01*
X55465500Y-74405640D01*
X55468264Y-74377572D01*
X55474660Y-74356491D01*
X55485048Y-74337055D01*
X55499024Y-74320024D01*
X55516055Y-74306048D01*
X55535491Y-74295660D01*
X55556572Y-74289264D01*
X55584640Y-74286500D01*
X56048360Y-74286500D01*
X56076428Y-74289264D01*
G37*
G36*
X43252500Y-75886500D02*
G01*
X42250500Y-75886500D01*
X42250500Y-74984500D01*
X43252500Y-74984500D01*
X43252500Y-75886500D01*
G37*
G36*
X47884968Y-73739065D02*
G01*
X47923638Y-73750796D01*
X47959277Y-73769846D01*
X47990517Y-73795483D01*
X48016154Y-73826723D01*
X48035204Y-73862362D01*
X48046935Y-73901032D01*
X48051500Y-73947388D01*
X48051500Y-75023612D01*
X48046935Y-75069968D01*
X48035204Y-75108638D01*
X48016154Y-75144277D01*
X47990517Y-75175517D01*
X47959277Y-75201154D01*
X47923638Y-75220204D01*
X47884968Y-75231935D01*
X47838612Y-75236500D01*
X47187388Y-75236500D01*
X47141032Y-75231935D01*
X47102362Y-75220204D01*
X47066723Y-75201154D01*
X47035483Y-75175517D01*
X47009846Y-75144277D01*
X46990796Y-75108638D01*
X46979065Y-75069968D01*
X46974500Y-75023612D01*
X46974500Y-73947388D01*
X46979065Y-73901032D01*
X46990796Y-73862362D01*
X47009846Y-73826723D01*
X47035483Y-73795483D01*
X47066723Y-73769846D01*
X47102362Y-73750796D01*
X47141032Y-73739065D01*
X47187388Y-73734500D01*
X47838612Y-73734500D01*
X47884968Y-73739065D01*
G37*
G36*
X49759968Y-73739065D02*
G01*
X49798638Y-73750796D01*
X49834277Y-73769846D01*
X49865517Y-73795483D01*
X49891154Y-73826723D01*
X49910204Y-73862362D01*
X49921935Y-73901032D01*
X49926500Y-73947388D01*
X49926500Y-75023612D01*
X49921935Y-75069968D01*
X49910204Y-75108638D01*
X49891154Y-75144277D01*
X49865517Y-75175517D01*
X49834277Y-75201154D01*
X49798638Y-75220204D01*
X49759968Y-75231935D01*
X49713612Y-75236500D01*
X49062388Y-75236500D01*
X49016032Y-75231935D01*
X48977362Y-75220204D01*
X48941723Y-75201154D01*
X48910483Y-75175517D01*
X48884846Y-75144277D01*
X48865796Y-75108638D01*
X48854065Y-75069968D01*
X48849500Y-75023612D01*
X48849500Y-73947388D01*
X48854065Y-73901032D01*
X48865796Y-73862362D01*
X48884846Y-73826723D01*
X48910483Y-73795483D01*
X48941723Y-73769846D01*
X48977362Y-73750796D01*
X49016032Y-73739065D01*
X49062388Y-73734500D01*
X49713612Y-73734500D01*
X49759968Y-73739065D01*
G37*
G36*
X45252500Y-74936500D02*
G01*
X44250500Y-74936500D01*
X44250500Y-74034500D01*
X45252500Y-74034500D01*
X45252500Y-74936500D01*
G37*
G36*
X40361968Y-72786565D02*
G01*
X40400638Y-72798296D01*
X40436277Y-72817346D01*
X40467517Y-72842983D01*
X40493154Y-72874223D01*
X40512204Y-72909862D01*
X40523935Y-72948532D01*
X40528500Y-72994888D01*
X40528500Y-74071112D01*
X40523935Y-74117468D01*
X40512204Y-74156138D01*
X40493154Y-74191777D01*
X40467517Y-74223017D01*
X40436277Y-74248654D01*
X40400638Y-74267704D01*
X40361968Y-74279435D01*
X40315612Y-74284000D01*
X39664388Y-74284000D01*
X39618032Y-74279435D01*
X39579362Y-74267704D01*
X39543723Y-74248654D01*
X39512483Y-74223017D01*
X39486846Y-74191777D01*
X39467796Y-74156138D01*
X39456065Y-74117468D01*
X39451500Y-74071112D01*
X39451500Y-72994888D01*
X39456065Y-72948532D01*
X39467796Y-72909862D01*
X39486846Y-72874223D01*
X39512483Y-72842983D01*
X39543723Y-72817346D01*
X39579362Y-72798296D01*
X39618032Y-72786565D01*
X39664388Y-72782000D01*
X40315612Y-72782000D01*
X40361968Y-72786565D01*
G37*
G36*
X38486968Y-72786565D02*
G01*
X38525638Y-72798296D01*
X38561277Y-72817346D01*
X38592517Y-72842983D01*
X38618154Y-72874223D01*
X38637204Y-72909862D01*
X38648935Y-72948532D01*
X38653500Y-72994888D01*
X38653500Y-74071112D01*
X38648935Y-74117468D01*
X38637204Y-74156138D01*
X38618154Y-74191777D01*
X38592517Y-74223017D01*
X38561277Y-74248654D01*
X38525638Y-74267704D01*
X38486968Y-74279435D01*
X38440612Y-74284000D01*
X37789388Y-74284000D01*
X37743032Y-74279435D01*
X37704362Y-74267704D01*
X37668723Y-74248654D01*
X37637483Y-74223017D01*
X37611846Y-74191777D01*
X37592796Y-74156138D01*
X37581065Y-74117468D01*
X37576500Y-74071112D01*
X37576500Y-72994888D01*
X37581065Y-72948532D01*
X37592796Y-72909862D01*
X37611846Y-72874223D01*
X37637483Y-72842983D01*
X37668723Y-72817346D01*
X37704362Y-72798296D01*
X37743032Y-72786565D01*
X37789388Y-72782000D01*
X38440612Y-72782000D01*
X38486968Y-72786565D01*
G37*
G36*
X29223072Y-71598918D02*
G01*
X29447190Y-71691750D01*
X29468939Y-71700759D01*
X29534069Y-71744278D01*
X29690211Y-71848609D01*
X29878391Y-72036789D01*
X30026242Y-72258063D01*
X30128082Y-72503928D01*
X30180000Y-72764937D01*
X30180000Y-73031063D01*
X30128082Y-73292072D01*
X30026242Y-73537937D01*
X29878391Y-73759211D01*
X29690211Y-73947391D01*
X29631680Y-73986500D01*
X29468939Y-74095241D01*
X29468938Y-74095242D01*
X29468937Y-74095242D01*
X29223072Y-74197082D01*
X28962063Y-74249000D01*
X28695937Y-74249000D01*
X28434928Y-74197082D01*
X28189063Y-74095242D01*
X28189062Y-74095242D01*
X28189061Y-74095241D01*
X28026320Y-73986500D01*
X27967789Y-73947391D01*
X27779609Y-73759211D01*
X27631758Y-73537937D01*
X27529918Y-73292072D01*
X27478000Y-73031063D01*
X27478000Y-72764937D01*
X27529918Y-72503928D01*
X27631758Y-72258063D01*
X27779609Y-72036789D01*
X27967789Y-71848609D01*
X28123931Y-71744278D01*
X28189061Y-71700759D01*
X28210811Y-71691750D01*
X28434928Y-71598918D01*
X28695937Y-71547000D01*
X28962063Y-71547000D01*
X29223072Y-71598918D01*
G37*
G36*
X43252500Y-73986500D02*
G01*
X42250500Y-73986500D01*
X42250500Y-73084500D01*
X43252500Y-73084500D01*
X43252500Y-73986500D01*
G37*
G36*
X65982719Y-71226520D02*
G01*
X66171880Y-71283901D01*
X66171883Y-71283902D01*
X66264333Y-71333318D01*
X66346212Y-71377083D01*
X66499015Y-71502485D01*
X66624417Y-71655288D01*
X66717599Y-71829619D01*
X66774980Y-72018780D01*
X66789500Y-72166206D01*
X66789500Y-72359793D01*
X66774980Y-72507219D01*
X66717599Y-72696380D01*
X66717598Y-72696383D01*
X66680955Y-72764937D01*
X66624417Y-72870712D01*
X66499015Y-73023515D01*
X66346212Y-73148917D01*
X66171881Y-73242099D01*
X65982720Y-73299480D01*
X65786000Y-73318855D01*
X65589281Y-73299480D01*
X65400120Y-73242099D01*
X65225788Y-73148917D01*
X65072985Y-73023515D01*
X64947583Y-72870712D01*
X64854401Y-72696381D01*
X64797020Y-72507220D01*
X64782500Y-72359794D01*
X64782500Y-72166207D01*
X64797020Y-72018781D01*
X64854401Y-71829620D01*
X64854402Y-71829617D01*
X64903818Y-71737167D01*
X64947583Y-71655288D01*
X65072985Y-71502485D01*
X65225788Y-71377083D01*
X65400119Y-71283901D01*
X65589280Y-71226520D01*
X65786000Y-71207145D01*
X65982719Y-71226520D01*
G37*
G36*
X68522719Y-71226520D02*
G01*
X68711880Y-71283901D01*
X68711883Y-71283902D01*
X68804333Y-71333318D01*
X68886212Y-71377083D01*
X69039015Y-71502485D01*
X69164417Y-71655288D01*
X69257599Y-71829619D01*
X69314980Y-72018780D01*
X69329500Y-72166206D01*
X69329500Y-72359793D01*
X69314980Y-72507219D01*
X69257599Y-72696380D01*
X69257598Y-72696383D01*
X69220955Y-72764937D01*
X69164417Y-72870712D01*
X69039015Y-73023515D01*
X68886212Y-73148917D01*
X68711881Y-73242099D01*
X68522720Y-73299480D01*
X68326000Y-73318855D01*
X68129281Y-73299480D01*
X67940120Y-73242099D01*
X67765788Y-73148917D01*
X67612985Y-73023515D01*
X67487583Y-72870712D01*
X67394401Y-72696381D01*
X67337020Y-72507220D01*
X67322500Y-72359794D01*
X67322500Y-72166207D01*
X67337020Y-72018781D01*
X67394401Y-71829620D01*
X67394402Y-71829617D01*
X67443818Y-71737167D01*
X67487583Y-71655288D01*
X67612985Y-71502485D01*
X67765788Y-71377083D01*
X67940119Y-71283901D01*
X68129280Y-71226520D01*
X68326000Y-71207145D01*
X68522719Y-71226520D01*
G37*
G36*
X64249500Y-73314000D02*
G01*
X62242500Y-73314000D01*
X62242500Y-71212000D01*
X64249500Y-71212000D01*
X64249500Y-73314000D01*
G37*
G36*
X40361968Y-70564065D02*
G01*
X40400638Y-70575796D01*
X40436277Y-70594846D01*
X40467517Y-70620483D01*
X40493154Y-70651723D01*
X40512204Y-70687362D01*
X40523935Y-70726032D01*
X40528500Y-70772388D01*
X40528500Y-71848612D01*
X40523935Y-71894968D01*
X40512204Y-71933638D01*
X40493154Y-71969277D01*
X40467517Y-72000517D01*
X40436277Y-72026154D01*
X40400638Y-72045204D01*
X40361968Y-72056935D01*
X40315612Y-72061500D01*
X39664388Y-72061500D01*
X39618032Y-72056935D01*
X39579362Y-72045204D01*
X39543723Y-72026154D01*
X39512483Y-72000517D01*
X39486846Y-71969277D01*
X39467796Y-71933638D01*
X39456065Y-71894968D01*
X39451500Y-71848612D01*
X39451500Y-70772388D01*
X39456065Y-70726032D01*
X39467796Y-70687362D01*
X39486846Y-70651723D01*
X39512483Y-70620483D01*
X39543723Y-70594846D01*
X39579362Y-70575796D01*
X39618032Y-70564065D01*
X39664388Y-70559500D01*
X40315612Y-70559500D01*
X40361968Y-70564065D01*
G37*
G36*
X38486968Y-70564065D02*
G01*
X38525638Y-70575796D01*
X38561277Y-70594846D01*
X38592517Y-70620483D01*
X38618154Y-70651723D01*
X38637204Y-70687362D01*
X38648935Y-70726032D01*
X38653500Y-70772388D01*
X38653500Y-71848612D01*
X38648935Y-71894968D01*
X38637204Y-71933638D01*
X38618154Y-71969277D01*
X38592517Y-72000517D01*
X38561277Y-72026154D01*
X38525638Y-72045204D01*
X38486968Y-72056935D01*
X38440612Y-72061500D01*
X37789388Y-72061500D01*
X37743032Y-72056935D01*
X37704362Y-72045204D01*
X37668723Y-72026154D01*
X37637483Y-72000517D01*
X37611846Y-71969277D01*
X37592796Y-71933638D01*
X37581065Y-71894968D01*
X37576500Y-71848612D01*
X37576500Y-70772388D01*
X37581065Y-70726032D01*
X37592796Y-70687362D01*
X37611846Y-70651723D01*
X37637483Y-70620483D01*
X37668723Y-70594846D01*
X37704362Y-70575796D01*
X37743032Y-70564065D01*
X37789388Y-70559500D01*
X38440612Y-70559500D01*
X38486968Y-70564065D01*
G37*
G36*
X57734468Y-70888565D02*
G01*
X57773138Y-70900296D01*
X57808777Y-70919346D01*
X57840017Y-70944983D01*
X57865654Y-70976223D01*
X57884704Y-71011862D01*
X57896435Y-71050532D01*
X57901000Y-71096888D01*
X57901000Y-71748112D01*
X57896435Y-71794468D01*
X57884704Y-71833138D01*
X57865654Y-71868777D01*
X57840017Y-71900017D01*
X57808777Y-71925654D01*
X57773138Y-71944704D01*
X57734468Y-71956435D01*
X57688112Y-71961000D01*
X56611888Y-71961000D01*
X56565532Y-71956435D01*
X56526862Y-71944704D01*
X56491223Y-71925654D01*
X56459983Y-71900017D01*
X56434346Y-71868777D01*
X56415296Y-71833138D01*
X56403565Y-71794468D01*
X56399000Y-71748112D01*
X56399000Y-71096888D01*
X56403565Y-71050532D01*
X56415296Y-71011862D01*
X56434346Y-70976223D01*
X56459983Y-70944983D01*
X56491223Y-70919346D01*
X56526862Y-70900296D01*
X56565532Y-70888565D01*
X56611888Y-70884000D01*
X57688112Y-70884000D01*
X57734468Y-70888565D01*
G37*
G36*
X57734468Y-69013565D02*
G01*
X57773138Y-69025296D01*
X57808777Y-69044346D01*
X57840017Y-69069983D01*
X57865654Y-69101223D01*
X57884704Y-69136862D01*
X57896435Y-69175532D01*
X57901000Y-69221888D01*
X57901000Y-69873112D01*
X57896435Y-69919468D01*
X57884704Y-69958138D01*
X57865654Y-69993777D01*
X57840017Y-70025017D01*
X57808777Y-70050654D01*
X57773138Y-70069704D01*
X57734468Y-70081435D01*
X57688112Y-70086000D01*
X56611888Y-70086000D01*
X56565532Y-70081435D01*
X56526862Y-70069704D01*
X56491223Y-70050654D01*
X56459983Y-70025017D01*
X56434346Y-69993777D01*
X56415296Y-69958138D01*
X56403565Y-69919468D01*
X56399000Y-69873112D01*
X56399000Y-69221888D01*
X56403565Y-69175532D01*
X56415296Y-69136862D01*
X56434346Y-69101223D01*
X56459983Y-69069983D01*
X56491223Y-69044346D01*
X56526862Y-69025296D01*
X56565532Y-69013565D01*
X56611888Y-69009000D01*
X57688112Y-69009000D01*
X57734468Y-69013565D01*
G37*
G36*
X62426468Y-66754065D02*
G01*
X62465138Y-66765796D01*
X62500777Y-66784846D01*
X62532017Y-66810483D01*
X62557654Y-66841723D01*
X62576704Y-66877362D01*
X62588435Y-66916032D01*
X62593000Y-66962388D01*
X62593000Y-68038612D01*
X62588435Y-68084968D01*
X62576704Y-68123638D01*
X62557654Y-68159277D01*
X62532017Y-68190517D01*
X62500777Y-68216154D01*
X62465138Y-68235204D01*
X62426468Y-68246935D01*
X62380112Y-68251500D01*
X61728888Y-68251500D01*
X61682532Y-68246935D01*
X61643862Y-68235204D01*
X61608223Y-68216154D01*
X61576983Y-68190517D01*
X61551346Y-68159277D01*
X61532296Y-68123638D01*
X61520565Y-68084968D01*
X61516000Y-68038612D01*
X61516000Y-66962388D01*
X61520565Y-66916032D01*
X61532296Y-66877362D01*
X61551346Y-66841723D01*
X61576983Y-66810483D01*
X61608223Y-66784846D01*
X61643862Y-66765796D01*
X61682532Y-66754065D01*
X61728888Y-66749500D01*
X62380112Y-66749500D01*
X62426468Y-66754065D01*
G37*
G36*
X64301468Y-66754065D02*
G01*
X64340138Y-66765796D01*
X64375777Y-66784846D01*
X64407017Y-66810483D01*
X64432654Y-66841723D01*
X64451704Y-66877362D01*
X64463435Y-66916032D01*
X64468000Y-66962388D01*
X64468000Y-68038612D01*
X64463435Y-68084968D01*
X64451704Y-68123638D01*
X64432654Y-68159277D01*
X64407017Y-68190517D01*
X64375777Y-68216154D01*
X64340138Y-68235204D01*
X64301468Y-68246935D01*
X64255112Y-68251500D01*
X63603888Y-68251500D01*
X63557532Y-68246935D01*
X63518862Y-68235204D01*
X63483223Y-68216154D01*
X63451983Y-68190517D01*
X63426346Y-68159277D01*
X63407296Y-68123638D01*
X63395565Y-68084968D01*
X63391000Y-68038612D01*
X63391000Y-66962388D01*
X63395565Y-66916032D01*
X63407296Y-66877362D01*
X63426346Y-66841723D01*
X63451983Y-66810483D01*
X63483223Y-66784846D01*
X63518862Y-66765796D01*
X63557532Y-66754065D01*
X63603888Y-66749500D01*
X64255112Y-66749500D01*
X64301468Y-66754065D01*
G37*
G36*
X46793728Y-65793203D02*
G01*
X46948600Y-65857353D01*
X47087981Y-65950485D01*
X47206515Y-66069019D01*
X47299647Y-66208400D01*
X47363797Y-66363272D01*
X47396500Y-66527684D01*
X47396500Y-66695316D01*
X47363797Y-66859728D01*
X47299647Y-67014600D01*
X47206515Y-67153981D01*
X47087981Y-67272515D01*
X46948600Y-67365647D01*
X46793728Y-67429797D01*
X46629316Y-67462500D01*
X46461684Y-67462500D01*
X46297272Y-67429797D01*
X46142400Y-67365647D01*
X46003019Y-67272515D01*
X45884485Y-67153981D01*
X45791353Y-67014600D01*
X45727203Y-66859728D01*
X45694500Y-66695316D01*
X45694500Y-66527684D01*
X45727203Y-66363272D01*
X45791353Y-66208400D01*
X45884485Y-66069019D01*
X46003019Y-65950485D01*
X46142400Y-65857353D01*
X46297272Y-65793203D01*
X46461684Y-65760500D01*
X46629316Y-65760500D01*
X46793728Y-65793203D01*
G37*
G36*
X56953728Y-65793203D02*
G01*
X57108600Y-65857353D01*
X57247981Y-65950485D01*
X57366515Y-66069019D01*
X57459647Y-66208400D01*
X57523797Y-66363272D01*
X57556500Y-66527684D01*
X57556500Y-66695316D01*
X57523797Y-66859728D01*
X57459647Y-67014600D01*
X57366515Y-67153981D01*
X57247981Y-67272515D01*
X57108600Y-67365647D01*
X56953728Y-67429797D01*
X56789316Y-67462500D01*
X56621684Y-67462500D01*
X56457272Y-67429797D01*
X56302400Y-67365647D01*
X56163019Y-67272515D01*
X56044485Y-67153981D01*
X55951353Y-67014600D01*
X55887203Y-66859728D01*
X55854500Y-66695316D01*
X55854500Y-66527684D01*
X55887203Y-66363272D01*
X55951353Y-66208400D01*
X56044485Y-66069019D01*
X56163019Y-65950485D01*
X56302400Y-65857353D01*
X56457272Y-65793203D01*
X56621684Y-65760500D01*
X56789316Y-65760500D01*
X56953728Y-65793203D01*
G37*
G36*
X21393728Y-65793203D02*
G01*
X21548600Y-65857353D01*
X21687981Y-65950485D01*
X21806515Y-66069019D01*
X21899647Y-66208400D01*
X21963797Y-66363272D01*
X21996500Y-66527684D01*
X21996500Y-66695316D01*
X21963797Y-66859728D01*
X21899647Y-67014600D01*
X21806515Y-67153981D01*
X21687981Y-67272515D01*
X21548600Y-67365647D01*
X21393728Y-67429797D01*
X21229316Y-67462500D01*
X21061684Y-67462500D01*
X20897272Y-67429797D01*
X20742400Y-67365647D01*
X20603019Y-67272515D01*
X20484485Y-67153981D01*
X20391353Y-67014600D01*
X20327203Y-66859728D01*
X20294500Y-66695316D01*
X20294500Y-66527684D01*
X20327203Y-66363272D01*
X20391353Y-66208400D01*
X20484485Y-66069019D01*
X20603019Y-65950485D01*
X20742400Y-65857353D01*
X20897272Y-65793203D01*
X21061684Y-65760500D01*
X21229316Y-65760500D01*
X21393728Y-65793203D01*
G37*
G36*
X23933728Y-65793203D02*
G01*
X24088600Y-65857353D01*
X24227981Y-65950485D01*
X24346515Y-66069019D01*
X24439647Y-66208400D01*
X24503797Y-66363272D01*
X24536500Y-66527684D01*
X24536500Y-66695316D01*
X24503797Y-66859728D01*
X24439647Y-67014600D01*
X24346515Y-67153981D01*
X24227981Y-67272515D01*
X24088600Y-67365647D01*
X23933728Y-67429797D01*
X23769316Y-67462500D01*
X23601684Y-67462500D01*
X23437272Y-67429797D01*
X23282400Y-67365647D01*
X23143019Y-67272515D01*
X23024485Y-67153981D01*
X22931353Y-67014600D01*
X22867203Y-66859728D01*
X22834500Y-66695316D01*
X22834500Y-66527684D01*
X22867203Y-66363272D01*
X22931353Y-66208400D01*
X23024485Y-66069019D01*
X23143019Y-65950485D01*
X23282400Y-65857353D01*
X23437272Y-65793203D01*
X23601684Y-65760500D01*
X23769316Y-65760500D01*
X23933728Y-65793203D01*
G37*
G36*
X29013728Y-65793203D02*
G01*
X29168600Y-65857353D01*
X29307981Y-65950485D01*
X29426515Y-66069019D01*
X29519647Y-66208400D01*
X29583797Y-66363272D01*
X29616500Y-66527684D01*
X29616500Y-66695316D01*
X29583797Y-66859728D01*
X29519647Y-67014600D01*
X29426515Y-67153981D01*
X29307981Y-67272515D01*
X29168600Y-67365647D01*
X29013728Y-67429797D01*
X28849316Y-67462500D01*
X28681684Y-67462500D01*
X28517272Y-67429797D01*
X28362400Y-67365647D01*
X28223019Y-67272515D01*
X28104485Y-67153981D01*
X28011353Y-67014600D01*
X27947203Y-66859728D01*
X27914500Y-66695316D01*
X27914500Y-66527684D01*
X27947203Y-66363272D01*
X28011353Y-66208400D01*
X28104485Y-66069019D01*
X28223019Y-65950485D01*
X28362400Y-65857353D01*
X28517272Y-65793203D01*
X28681684Y-65760500D01*
X28849316Y-65760500D01*
X29013728Y-65793203D01*
G37*
G36*
X31553728Y-65793203D02*
G01*
X31708600Y-65857353D01*
X31847981Y-65950485D01*
X31966515Y-66069019D01*
X32059647Y-66208400D01*
X32123797Y-66363272D01*
X32156500Y-66527684D01*
X32156500Y-66695316D01*
X32123797Y-66859728D01*
X32059647Y-67014600D01*
X31966515Y-67153981D01*
X31847981Y-67272515D01*
X31708600Y-67365647D01*
X31553728Y-67429797D01*
X31389316Y-67462500D01*
X31221684Y-67462500D01*
X31057272Y-67429797D01*
X30902400Y-67365647D01*
X30763019Y-67272515D01*
X30644485Y-67153981D01*
X30551353Y-67014600D01*
X30487203Y-66859728D01*
X30454500Y-66695316D01*
X30454500Y-66527684D01*
X30487203Y-66363272D01*
X30551353Y-66208400D01*
X30644485Y-66069019D01*
X30763019Y-65950485D01*
X30902400Y-65857353D01*
X31057272Y-65793203D01*
X31221684Y-65760500D01*
X31389316Y-65760500D01*
X31553728Y-65793203D01*
G37*
G36*
X34093728Y-65793203D02*
G01*
X34248600Y-65857353D01*
X34387981Y-65950485D01*
X34506515Y-66069019D01*
X34599647Y-66208400D01*
X34663797Y-66363272D01*
X34696500Y-66527684D01*
X34696500Y-66695316D01*
X34663797Y-66859728D01*
X34599647Y-67014600D01*
X34506515Y-67153981D01*
X34387981Y-67272515D01*
X34248600Y-67365647D01*
X34093728Y-67429797D01*
X33929316Y-67462500D01*
X33761684Y-67462500D01*
X33597272Y-67429797D01*
X33442400Y-67365647D01*
X33303019Y-67272515D01*
X33184485Y-67153981D01*
X33091353Y-67014600D01*
X33027203Y-66859728D01*
X32994500Y-66695316D01*
X32994500Y-66527684D01*
X33027203Y-66363272D01*
X33091353Y-66208400D01*
X33184485Y-66069019D01*
X33303019Y-65950485D01*
X33442400Y-65857353D01*
X33597272Y-65793203D01*
X33761684Y-65760500D01*
X33929316Y-65760500D01*
X34093728Y-65793203D01*
G37*
G36*
X36633728Y-65793203D02*
G01*
X36788600Y-65857353D01*
X36927981Y-65950485D01*
X37046515Y-66069019D01*
X37139647Y-66208400D01*
X37203797Y-66363272D01*
X37236500Y-66527684D01*
X37236500Y-66695316D01*
X37203797Y-66859728D01*
X37139647Y-67014600D01*
X37046515Y-67153981D01*
X36927981Y-67272515D01*
X36788600Y-67365647D01*
X36633728Y-67429797D01*
X36469316Y-67462500D01*
X36301684Y-67462500D01*
X36137272Y-67429797D01*
X35982400Y-67365647D01*
X35843019Y-67272515D01*
X35724485Y-67153981D01*
X35631353Y-67014600D01*
X35567203Y-66859728D01*
X35534500Y-66695316D01*
X35534500Y-66527684D01*
X35567203Y-66363272D01*
X35631353Y-66208400D01*
X35724485Y-66069019D01*
X35843019Y-65950485D01*
X35982400Y-65857353D01*
X36137272Y-65793203D01*
X36301684Y-65760500D01*
X36469316Y-65760500D01*
X36633728Y-65793203D01*
G37*
G36*
X26473728Y-65793203D02*
G01*
X26628600Y-65857353D01*
X26767981Y-65950485D01*
X26886515Y-66069019D01*
X26979647Y-66208400D01*
X27043797Y-66363272D01*
X27076500Y-66527684D01*
X27076500Y-66695316D01*
X27043797Y-66859728D01*
X26979647Y-67014600D01*
X26886515Y-67153981D01*
X26767981Y-67272515D01*
X26628600Y-67365647D01*
X26473728Y-67429797D01*
X26309316Y-67462500D01*
X26141684Y-67462500D01*
X25977272Y-67429797D01*
X25822400Y-67365647D01*
X25683019Y-67272515D01*
X25564485Y-67153981D01*
X25471353Y-67014600D01*
X25407203Y-66859728D01*
X25374500Y-66695316D01*
X25374500Y-66527684D01*
X25407203Y-66363272D01*
X25471353Y-66208400D01*
X25564485Y-66069019D01*
X25683019Y-65950485D01*
X25822400Y-65857353D01*
X25977272Y-65793203D01*
X26141684Y-65760500D01*
X26309316Y-65760500D01*
X26473728Y-65793203D01*
G37*
G36*
X39173728Y-65793203D02*
G01*
X39328600Y-65857353D01*
X39467981Y-65950485D01*
X39586515Y-66069019D01*
X39679647Y-66208400D01*
X39743797Y-66363272D01*
X39776500Y-66527684D01*
X39776500Y-66695316D01*
X39743797Y-66859728D01*
X39679647Y-67014600D01*
X39586515Y-67153981D01*
X39467981Y-67272515D01*
X39328600Y-67365647D01*
X39173728Y-67429797D01*
X39009316Y-67462500D01*
X38841684Y-67462500D01*
X38677272Y-67429797D01*
X38522400Y-67365647D01*
X38383019Y-67272515D01*
X38264485Y-67153981D01*
X38171353Y-67014600D01*
X38107203Y-66859728D01*
X38074500Y-66695316D01*
X38074500Y-66527684D01*
X38107203Y-66363272D01*
X38171353Y-66208400D01*
X38264485Y-66069019D01*
X38383019Y-65950485D01*
X38522400Y-65857353D01*
X38677272Y-65793203D01*
X38841684Y-65760500D01*
X39009316Y-65760500D01*
X39173728Y-65793203D01*
G37*
G36*
X54413728Y-65793203D02*
G01*
X54568600Y-65857353D01*
X54707981Y-65950485D01*
X54826515Y-66069019D01*
X54919647Y-66208400D01*
X54983797Y-66363272D01*
X55016500Y-66527684D01*
X55016500Y-66695316D01*
X54983797Y-66859728D01*
X54919647Y-67014600D01*
X54826515Y-67153981D01*
X54707981Y-67272515D01*
X54568600Y-67365647D01*
X54413728Y-67429797D01*
X54249316Y-67462500D01*
X54081684Y-67462500D01*
X53917272Y-67429797D01*
X53762400Y-67365647D01*
X53623019Y-67272515D01*
X53504485Y-67153981D01*
X53411353Y-67014600D01*
X53347203Y-66859728D01*
X53314500Y-66695316D01*
X53314500Y-66527684D01*
X53347203Y-66363272D01*
X53411353Y-66208400D01*
X53504485Y-66069019D01*
X53623019Y-65950485D01*
X53762400Y-65857353D01*
X53917272Y-65793203D01*
X54081684Y-65760500D01*
X54249316Y-65760500D01*
X54413728Y-65793203D01*
G37*
G36*
X51873728Y-65793203D02*
G01*
X52028600Y-65857353D01*
X52167981Y-65950485D01*
X52286515Y-66069019D01*
X52379647Y-66208400D01*
X52443797Y-66363272D01*
X52476500Y-66527684D01*
X52476500Y-66695316D01*
X52443797Y-66859728D01*
X52379647Y-67014600D01*
X52286515Y-67153981D01*
X52167981Y-67272515D01*
X52028600Y-67365647D01*
X51873728Y-67429797D01*
X51709316Y-67462500D01*
X51541684Y-67462500D01*
X51377272Y-67429797D01*
X51222400Y-67365647D01*
X51083019Y-67272515D01*
X50964485Y-67153981D01*
X50871353Y-67014600D01*
X50807203Y-66859728D01*
X50774500Y-66695316D01*
X50774500Y-66527684D01*
X50807203Y-66363272D01*
X50871353Y-66208400D01*
X50964485Y-66069019D01*
X51083019Y-65950485D01*
X51222400Y-65857353D01*
X51377272Y-65793203D01*
X51541684Y-65760500D01*
X51709316Y-65760500D01*
X51873728Y-65793203D01*
G37*
G36*
X49333728Y-65793203D02*
G01*
X49488600Y-65857353D01*
X49627981Y-65950485D01*
X49746515Y-66069019D01*
X49839647Y-66208400D01*
X49903797Y-66363272D01*
X49936500Y-66527684D01*
X49936500Y-66695316D01*
X49903797Y-66859728D01*
X49839647Y-67014600D01*
X49746515Y-67153981D01*
X49627981Y-67272515D01*
X49488600Y-67365647D01*
X49333728Y-67429797D01*
X49169316Y-67462500D01*
X49001684Y-67462500D01*
X48837272Y-67429797D01*
X48682400Y-67365647D01*
X48543019Y-67272515D01*
X48424485Y-67153981D01*
X48331353Y-67014600D01*
X48267203Y-66859728D01*
X48234500Y-66695316D01*
X48234500Y-66527684D01*
X48267203Y-66363272D01*
X48331353Y-66208400D01*
X48424485Y-66069019D01*
X48543019Y-65950485D01*
X48682400Y-65857353D01*
X48837272Y-65793203D01*
X49001684Y-65760500D01*
X49169316Y-65760500D01*
X49333728Y-65793203D01*
G37*
G36*
X41713728Y-65793203D02*
G01*
X41868600Y-65857353D01*
X42007981Y-65950485D01*
X42126515Y-66069019D01*
X42219647Y-66208400D01*
X42283797Y-66363272D01*
X42316500Y-66527684D01*
X42316500Y-66695316D01*
X42283797Y-66859728D01*
X42219647Y-67014600D01*
X42126515Y-67153981D01*
X42007981Y-67272515D01*
X41868600Y-67365647D01*
X41713728Y-67429797D01*
X41549316Y-67462500D01*
X41381684Y-67462500D01*
X41217272Y-67429797D01*
X41062400Y-67365647D01*
X40923019Y-67272515D01*
X40804485Y-67153981D01*
X40711353Y-67014600D01*
X40647203Y-66859728D01*
X40614500Y-66695316D01*
X40614500Y-66527684D01*
X40647203Y-66363272D01*
X40711353Y-66208400D01*
X40804485Y-66069019D01*
X40923019Y-65950485D01*
X41062400Y-65857353D01*
X41217272Y-65793203D01*
X41381684Y-65760500D01*
X41549316Y-65760500D01*
X41713728Y-65793203D01*
G37*
G36*
X44253728Y-65793203D02*
G01*
X44408600Y-65857353D01*
X44547981Y-65950485D01*
X44666515Y-66069019D01*
X44759647Y-66208400D01*
X44823797Y-66363272D01*
X44856500Y-66527684D01*
X44856500Y-66695316D01*
X44823797Y-66859728D01*
X44759647Y-67014600D01*
X44666515Y-67153981D01*
X44547981Y-67272515D01*
X44408600Y-67365647D01*
X44253728Y-67429797D01*
X44089316Y-67462500D01*
X43921684Y-67462500D01*
X43757272Y-67429797D01*
X43602400Y-67365647D01*
X43463019Y-67272515D01*
X43344485Y-67153981D01*
X43251353Y-67014600D01*
X43187203Y-66859728D01*
X43154500Y-66695316D01*
X43154500Y-66527684D01*
X43187203Y-66363272D01*
X43251353Y-66208400D01*
X43344485Y-66069019D01*
X43463019Y-65950485D01*
X43602400Y-65857353D01*
X43757272Y-65793203D01*
X43921684Y-65760500D01*
X44089316Y-65760500D01*
X44253728Y-65793203D01*
G37*
G36*
X70016000Y-67191000D02*
G01*
X68414000Y-67191000D01*
X68414000Y-64589000D01*
X70016000Y-64589000D01*
X70016000Y-67191000D01*
G37*
G36*
X76784468Y-65300565D02*
G01*
X76823138Y-65312296D01*
X76858777Y-65331346D01*
X76890017Y-65356983D01*
X76915654Y-65388223D01*
X76934704Y-65423862D01*
X76946435Y-65462532D01*
X76951000Y-65508888D01*
X76951000Y-66160112D01*
X76946435Y-66206468D01*
X76934704Y-66245138D01*
X76915654Y-66280777D01*
X76890017Y-66312017D01*
X76858777Y-66337654D01*
X76823138Y-66356704D01*
X76784468Y-66368435D01*
X76738112Y-66373000D01*
X75661888Y-66373000D01*
X75615532Y-66368435D01*
X75576862Y-66356704D01*
X75541223Y-66337654D01*
X75509983Y-66312017D01*
X75484346Y-66280777D01*
X75465296Y-66245138D01*
X75453565Y-66206468D01*
X75449000Y-66160112D01*
X75449000Y-65508888D01*
X75453565Y-65462532D01*
X75465296Y-65423862D01*
X75484346Y-65388223D01*
X75509983Y-65356983D01*
X75541223Y-65331346D01*
X75576862Y-65312296D01*
X75615532Y-65300565D01*
X75661888Y-65296000D01*
X76738112Y-65296000D01*
X76784468Y-65300565D01*
G37*
G36*
X76784468Y-63425565D02*
G01*
X76823138Y-63437296D01*
X76858777Y-63456346D01*
X76890017Y-63481983D01*
X76915654Y-63513223D01*
X76934704Y-63548862D01*
X76946435Y-63587532D01*
X76951000Y-63633888D01*
X76951000Y-64285112D01*
X76946435Y-64331468D01*
X76934704Y-64370138D01*
X76915654Y-64405777D01*
X76890017Y-64437017D01*
X76858777Y-64462654D01*
X76823138Y-64481704D01*
X76784468Y-64493435D01*
X76738112Y-64498000D01*
X75661888Y-64498000D01*
X75615532Y-64493435D01*
X75576862Y-64481704D01*
X75541223Y-64462654D01*
X75509983Y-64437017D01*
X75484346Y-64405777D01*
X75465296Y-64370138D01*
X75453565Y-64331468D01*
X75449000Y-64285112D01*
X75449000Y-63633888D01*
X75453565Y-63587532D01*
X75465296Y-63548862D01*
X75484346Y-63513223D01*
X75509983Y-63481983D01*
X75541223Y-63456346D01*
X75576862Y-63437296D01*
X75615532Y-63425565D01*
X75661888Y-63421000D01*
X76738112Y-63421000D01*
X76784468Y-63425565D01*
G37*
G36*
X51191000Y-64492500D02*
G01*
X44939000Y-64492500D01*
X44939000Y-62790500D01*
X51191000Y-62790500D01*
X51191000Y-64492500D01*
G37*
G36*
X53166000Y-62517500D02*
G01*
X51464000Y-62517500D01*
X51464000Y-56265500D01*
X53166000Y-56265500D01*
X53166000Y-62517500D01*
G37*
G36*
X44666000Y-62517500D02*
G01*
X42964000Y-62517500D01*
X42964000Y-56265500D01*
X44666000Y-56265500D01*
X44666000Y-62517500D01*
G37*
G36*
X23313500Y-62234000D02*
G01*
X22311500Y-62234000D01*
X22311500Y-61332000D01*
X23313500Y-61332000D01*
X23313500Y-62234000D01*
G37*
G36*
X38366968Y-60347565D02*
G01*
X38405638Y-60359296D01*
X38441277Y-60378346D01*
X38472517Y-60403983D01*
X38498154Y-60435223D01*
X38517204Y-60470862D01*
X38528935Y-60509532D01*
X38533500Y-60555888D01*
X38533500Y-61207112D01*
X38528935Y-61253468D01*
X38517204Y-61292138D01*
X38498154Y-61327777D01*
X38472517Y-61359017D01*
X38441277Y-61384654D01*
X38405638Y-61403704D01*
X38366968Y-61415435D01*
X38320612Y-61420000D01*
X37244388Y-61420000D01*
X37198032Y-61415435D01*
X37159362Y-61403704D01*
X37123723Y-61384654D01*
X37092483Y-61359017D01*
X37066846Y-61327777D01*
X37047796Y-61292138D01*
X37036065Y-61253468D01*
X37031500Y-61207112D01*
X37031500Y-60555888D01*
X37036065Y-60509532D01*
X37047796Y-60470862D01*
X37066846Y-60435223D01*
X37092483Y-60403983D01*
X37123723Y-60378346D01*
X37159362Y-60359296D01*
X37198032Y-60347565D01*
X37244388Y-60343000D01*
X38320612Y-60343000D01*
X38366968Y-60347565D01*
G37*
G36*
X25313500Y-61284000D02*
G01*
X24311500Y-61284000D01*
X24311500Y-60382000D01*
X25313500Y-60382000D01*
X25313500Y-61284000D01*
G37*
G36*
X29820968Y-59642065D02*
G01*
X29859638Y-59653796D01*
X29895277Y-59672846D01*
X29926517Y-59698483D01*
X29952154Y-59729723D01*
X29971204Y-59765362D01*
X29982935Y-59804032D01*
X29987500Y-59850388D01*
X29987500Y-60926612D01*
X29982935Y-60972968D01*
X29971204Y-61011638D01*
X29952154Y-61047277D01*
X29926517Y-61078517D01*
X29895277Y-61104154D01*
X29859638Y-61123204D01*
X29820968Y-61134935D01*
X29774612Y-61139500D01*
X29123388Y-61139500D01*
X29077032Y-61134935D01*
X29038362Y-61123204D01*
X29002723Y-61104154D01*
X28971483Y-61078517D01*
X28945846Y-61047277D01*
X28926796Y-61011638D01*
X28915065Y-60972968D01*
X28910500Y-60926612D01*
X28910500Y-59850388D01*
X28915065Y-59804032D01*
X28926796Y-59765362D01*
X28945846Y-59729723D01*
X28971483Y-59698483D01*
X29002723Y-59672846D01*
X29038362Y-59653796D01*
X29077032Y-59642065D01*
X29123388Y-59637500D01*
X29774612Y-59637500D01*
X29820968Y-59642065D01*
G37*
G36*
X27945968Y-59642065D02*
G01*
X27984638Y-59653796D01*
X28020277Y-59672846D01*
X28051517Y-59698483D01*
X28077154Y-59729723D01*
X28096204Y-59765362D01*
X28107935Y-59804032D01*
X28112500Y-59850388D01*
X28112500Y-60926612D01*
X28107935Y-60972968D01*
X28096204Y-61011638D01*
X28077154Y-61047277D01*
X28051517Y-61078517D01*
X28020277Y-61104154D01*
X27984638Y-61123204D01*
X27945968Y-61134935D01*
X27899612Y-61139500D01*
X27248388Y-61139500D01*
X27202032Y-61134935D01*
X27163362Y-61123204D01*
X27127723Y-61104154D01*
X27096483Y-61078517D01*
X27070846Y-61047277D01*
X27051796Y-61011638D01*
X27040065Y-60972968D01*
X27035500Y-60926612D01*
X27035500Y-59850388D01*
X27040065Y-59804032D01*
X27051796Y-59765362D01*
X27070846Y-59729723D01*
X27096483Y-59698483D01*
X27127723Y-59672846D01*
X27163362Y-59653796D01*
X27202032Y-59642065D01*
X27248388Y-59637500D01*
X27899612Y-59637500D01*
X27945968Y-59642065D01*
G37*
G36*
X23313500Y-60334000D02*
G01*
X22311500Y-60334000D01*
X22311500Y-59432000D01*
X23313500Y-59432000D01*
X23313500Y-60334000D01*
G37*
G36*
X38366968Y-58472565D02*
G01*
X38405638Y-58484296D01*
X38441277Y-58503346D01*
X38472517Y-58528983D01*
X38498154Y-58560223D01*
X38517204Y-58595862D01*
X38528935Y-58634532D01*
X38533500Y-58680888D01*
X38533500Y-59332112D01*
X38528935Y-59378468D01*
X38517204Y-59417138D01*
X38498154Y-59452777D01*
X38472517Y-59484017D01*
X38441277Y-59509654D01*
X38405638Y-59528704D01*
X38366968Y-59540435D01*
X38320612Y-59545000D01*
X37244388Y-59545000D01*
X37198032Y-59540435D01*
X37159362Y-59528704D01*
X37123723Y-59509654D01*
X37092483Y-59484017D01*
X37066846Y-59452777D01*
X37047796Y-59417138D01*
X37036065Y-59378468D01*
X37031500Y-59332112D01*
X37031500Y-58680888D01*
X37036065Y-58634532D01*
X37047796Y-58595862D01*
X37066846Y-58560223D01*
X37092483Y-58528983D01*
X37123723Y-58503346D01*
X37159362Y-58484296D01*
X37198032Y-58472565D01*
X37244388Y-58468000D01*
X38320612Y-58468000D01*
X38366968Y-58472565D01*
G37*
G36*
X81991000Y-59174000D02*
G01*
X80389000Y-59174000D01*
X80389000Y-58072000D01*
X81991000Y-58072000D01*
X81991000Y-59174000D01*
G37*
G36*
X77091000Y-59174000D02*
G01*
X75489000Y-59174000D01*
X75489000Y-58072000D01*
X77091000Y-58072000D01*
X77091000Y-59174000D01*
G37*
G36*
X29028500Y-57698500D02*
G01*
X28126500Y-57698500D01*
X28126500Y-56696500D01*
X29028500Y-56696500D01*
X29028500Y-57698500D01*
G37*
G36*
X30928500Y-57698500D02*
G01*
X30026500Y-57698500D01*
X30026500Y-56696500D01*
X30928500Y-56696500D01*
X30928500Y-57698500D01*
G37*
G36*
X25009968Y-54625565D02*
G01*
X25048638Y-54637296D01*
X25084277Y-54656346D01*
X25115517Y-54681983D01*
X25141154Y-54713223D01*
X25160204Y-54748862D01*
X25171935Y-54787532D01*
X25176500Y-54833888D01*
X25176500Y-55910112D01*
X25171935Y-55956468D01*
X25160204Y-55995138D01*
X25141154Y-56030777D01*
X25115517Y-56062017D01*
X25084277Y-56087654D01*
X25048638Y-56106704D01*
X25009968Y-56118435D01*
X24963612Y-56123000D01*
X24312388Y-56123000D01*
X24266032Y-56118435D01*
X24227362Y-56106704D01*
X24191723Y-56087654D01*
X24160483Y-56062017D01*
X24134846Y-56030777D01*
X24115796Y-55995138D01*
X24104065Y-55956468D01*
X24099500Y-55910112D01*
X24099500Y-54833888D01*
X24104065Y-54787532D01*
X24115796Y-54748862D01*
X24134846Y-54713223D01*
X24160483Y-54681983D01*
X24191723Y-54656346D01*
X24227362Y-54637296D01*
X24266032Y-54625565D01*
X24312388Y-54621000D01*
X24963612Y-54621000D01*
X25009968Y-54625565D01*
G37*
G36*
X23134968Y-54625565D02*
G01*
X23173638Y-54637296D01*
X23209277Y-54656346D01*
X23240517Y-54681983D01*
X23266154Y-54713223D01*
X23285204Y-54748862D01*
X23296935Y-54787532D01*
X23301500Y-54833888D01*
X23301500Y-55910112D01*
X23296935Y-55956468D01*
X23285204Y-55995138D01*
X23266154Y-56030777D01*
X23240517Y-56062017D01*
X23209277Y-56087654D01*
X23173638Y-56106704D01*
X23134968Y-56118435D01*
X23088612Y-56123000D01*
X22437388Y-56123000D01*
X22391032Y-56118435D01*
X22352362Y-56106704D01*
X22316723Y-56087654D01*
X22285483Y-56062017D01*
X22259846Y-56030777D01*
X22240796Y-55995138D01*
X22229065Y-55956468D01*
X22224500Y-55910112D01*
X22224500Y-54833888D01*
X22229065Y-54787532D01*
X22240796Y-54748862D01*
X22259846Y-54713223D01*
X22285483Y-54681983D01*
X22316723Y-54656346D01*
X22352362Y-54637296D01*
X22391032Y-54625565D01*
X22437388Y-54621000D01*
X23088612Y-54621000D01*
X23134968Y-54625565D01*
G37*
G36*
X51191000Y-55992500D02*
G01*
X44939000Y-55992500D01*
X44939000Y-54290500D01*
X51191000Y-54290500D01*
X51191000Y-55992500D01*
G37*
G36*
X77091000Y-55974000D02*
G01*
X75489000Y-55974000D01*
X75489000Y-54872000D01*
X77091000Y-54872000D01*
X77091000Y-55974000D01*
G37*
G36*
X81991000Y-55974000D02*
G01*
X80389000Y-55974000D01*
X80389000Y-54872000D01*
X81991000Y-54872000D01*
X81991000Y-55974000D01*
G37*
G36*
X29978500Y-55698500D02*
G01*
X29076500Y-55698500D01*
X29076500Y-54696500D01*
X29978500Y-54696500D01*
X29978500Y-55698500D01*
G37*
G36*
X70016000Y-54791000D02*
G01*
X68414000Y-54791000D01*
X68414000Y-52189000D01*
X70016000Y-52189000D01*
X70016000Y-54791000D01*
G37*
G36*
X57556500Y-52222500D02*
G01*
X55854500Y-52222500D01*
X55854500Y-50520500D01*
X57556500Y-50520500D01*
X57556500Y-52222500D01*
G37*
G36*
X54413728Y-50553203D02*
G01*
X54568600Y-50617353D01*
X54707981Y-50710485D01*
X54826515Y-50829019D01*
X54919647Y-50968400D01*
X54983797Y-51123272D01*
X55016500Y-51287684D01*
X55016500Y-51455316D01*
X54983797Y-51619728D01*
X54919647Y-51774600D01*
X54826515Y-51913981D01*
X54707981Y-52032515D01*
X54568600Y-52125647D01*
X54413728Y-52189797D01*
X54249316Y-52222500D01*
X54081684Y-52222500D01*
X53917272Y-52189797D01*
X53762400Y-52125647D01*
X53623019Y-52032515D01*
X53504485Y-51913981D01*
X53411353Y-51774600D01*
X53347203Y-51619728D01*
X53314500Y-51455316D01*
X53314500Y-51287684D01*
X53347203Y-51123272D01*
X53411353Y-50968400D01*
X53504485Y-50829019D01*
X53623019Y-50710485D01*
X53762400Y-50617353D01*
X53917272Y-50553203D01*
X54081684Y-50520500D01*
X54249316Y-50520500D01*
X54413728Y-50553203D01*
G37*
G36*
X51873728Y-50553203D02*
G01*
X52028600Y-50617353D01*
X52167981Y-50710485D01*
X52286515Y-50829019D01*
X52379647Y-50968400D01*
X52443797Y-51123272D01*
X52476500Y-51287684D01*
X52476500Y-51455316D01*
X52443797Y-51619728D01*
X52379647Y-51774600D01*
X52286515Y-51913981D01*
X52167981Y-52032515D01*
X52028600Y-52125647D01*
X51873728Y-52189797D01*
X51709316Y-52222500D01*
X51541684Y-52222500D01*
X51377272Y-52189797D01*
X51222400Y-52125647D01*
X51083019Y-52032515D01*
X50964485Y-51913981D01*
X50871353Y-51774600D01*
X50807203Y-51619728D01*
X50774500Y-51455316D01*
X50774500Y-51287684D01*
X50807203Y-51123272D01*
X50871353Y-50968400D01*
X50964485Y-50829019D01*
X51083019Y-50710485D01*
X51222400Y-50617353D01*
X51377272Y-50553203D01*
X51541684Y-50520500D01*
X51709316Y-50520500D01*
X51873728Y-50553203D01*
G37*
G36*
X49333728Y-50553203D02*
G01*
X49488600Y-50617353D01*
X49627981Y-50710485D01*
X49746515Y-50829019D01*
X49839647Y-50968400D01*
X49903797Y-51123272D01*
X49936500Y-51287684D01*
X49936500Y-51455316D01*
X49903797Y-51619728D01*
X49839647Y-51774600D01*
X49746515Y-51913981D01*
X49627981Y-52032515D01*
X49488600Y-52125647D01*
X49333728Y-52189797D01*
X49169316Y-52222500D01*
X49001684Y-52222500D01*
X48837272Y-52189797D01*
X48682400Y-52125647D01*
X48543019Y-52032515D01*
X48424485Y-51913981D01*
X48331353Y-51774600D01*
X48267203Y-51619728D01*
X48234500Y-51455316D01*
X48234500Y-51287684D01*
X48267203Y-51123272D01*
X48331353Y-50968400D01*
X48424485Y-50829019D01*
X48543019Y-50710485D01*
X48682400Y-50617353D01*
X48837272Y-50553203D01*
X49001684Y-50520500D01*
X49169316Y-50520500D01*
X49333728Y-50553203D01*
G37*
G36*
X31553728Y-50553203D02*
G01*
X31708600Y-50617353D01*
X31847981Y-50710485D01*
X31966515Y-50829019D01*
X32059647Y-50968400D01*
X32123797Y-51123272D01*
X32156500Y-51287684D01*
X32156500Y-51455316D01*
X32123797Y-51619728D01*
X32059647Y-51774600D01*
X31966515Y-51913981D01*
X31847981Y-52032515D01*
X31708600Y-52125647D01*
X31553728Y-52189797D01*
X31389316Y-52222500D01*
X31221684Y-52222500D01*
X31057272Y-52189797D01*
X30902400Y-52125647D01*
X30763019Y-52032515D01*
X30644485Y-51913981D01*
X30551353Y-51774600D01*
X30487203Y-51619728D01*
X30454500Y-51455316D01*
X30454500Y-51287684D01*
X30487203Y-51123272D01*
X30551353Y-50968400D01*
X30644485Y-50829019D01*
X30763019Y-50710485D01*
X30902400Y-50617353D01*
X31057272Y-50553203D01*
X31221684Y-50520500D01*
X31389316Y-50520500D01*
X31553728Y-50553203D01*
G37*
G36*
X46793728Y-50553203D02*
G01*
X46948600Y-50617353D01*
X47087981Y-50710485D01*
X47206515Y-50829019D01*
X47299647Y-50968400D01*
X47363797Y-51123272D01*
X47396500Y-51287684D01*
X47396500Y-51455316D01*
X47363797Y-51619728D01*
X47299647Y-51774600D01*
X47206515Y-51913981D01*
X47087981Y-52032515D01*
X46948600Y-52125647D01*
X46793728Y-52189797D01*
X46629316Y-52222500D01*
X46461684Y-52222500D01*
X46297272Y-52189797D01*
X46142400Y-52125647D01*
X46003019Y-52032515D01*
X45884485Y-51913981D01*
X45791353Y-51774600D01*
X45727203Y-51619728D01*
X45694500Y-51455316D01*
X45694500Y-51287684D01*
X45727203Y-51123272D01*
X45791353Y-50968400D01*
X45884485Y-50829019D01*
X46003019Y-50710485D01*
X46142400Y-50617353D01*
X46297272Y-50553203D01*
X46461684Y-50520500D01*
X46629316Y-50520500D01*
X46793728Y-50553203D01*
G37*
G36*
X44253728Y-50553203D02*
G01*
X44408600Y-50617353D01*
X44547981Y-50710485D01*
X44666515Y-50829019D01*
X44759647Y-50968400D01*
X44823797Y-51123272D01*
X44856500Y-51287684D01*
X44856500Y-51455316D01*
X44823797Y-51619728D01*
X44759647Y-51774600D01*
X44666515Y-51913981D01*
X44547981Y-52032515D01*
X44408600Y-52125647D01*
X44253728Y-52189797D01*
X44089316Y-52222500D01*
X43921684Y-52222500D01*
X43757272Y-52189797D01*
X43602400Y-52125647D01*
X43463019Y-52032515D01*
X43344485Y-51913981D01*
X43251353Y-51774600D01*
X43187203Y-51619728D01*
X43154500Y-51455316D01*
X43154500Y-51287684D01*
X43187203Y-51123272D01*
X43251353Y-50968400D01*
X43344485Y-50829019D01*
X43463019Y-50710485D01*
X43602400Y-50617353D01*
X43757272Y-50553203D01*
X43921684Y-50520500D01*
X44089316Y-50520500D01*
X44253728Y-50553203D01*
G37*
G36*
X41713728Y-50553203D02*
G01*
X41868600Y-50617353D01*
X42007981Y-50710485D01*
X42126515Y-50829019D01*
X42219647Y-50968400D01*
X42283797Y-51123272D01*
X42316500Y-51287684D01*
X42316500Y-51455316D01*
X42283797Y-51619728D01*
X42219647Y-51774600D01*
X42126515Y-51913981D01*
X42007981Y-52032515D01*
X41868600Y-52125647D01*
X41713728Y-52189797D01*
X41549316Y-52222500D01*
X41381684Y-52222500D01*
X41217272Y-52189797D01*
X41062400Y-52125647D01*
X40923019Y-52032515D01*
X40804485Y-51913981D01*
X40711353Y-51774600D01*
X40647203Y-51619728D01*
X40614500Y-51455316D01*
X40614500Y-51287684D01*
X40647203Y-51123272D01*
X40711353Y-50968400D01*
X40804485Y-50829019D01*
X40923019Y-50710485D01*
X41062400Y-50617353D01*
X41217272Y-50553203D01*
X41381684Y-50520500D01*
X41549316Y-50520500D01*
X41713728Y-50553203D01*
G37*
G36*
X34093728Y-50553203D02*
G01*
X34248600Y-50617353D01*
X34387981Y-50710485D01*
X34506515Y-50829019D01*
X34599647Y-50968400D01*
X34663797Y-51123272D01*
X34696500Y-51287684D01*
X34696500Y-51455316D01*
X34663797Y-51619728D01*
X34599647Y-51774600D01*
X34506515Y-51913981D01*
X34387981Y-52032515D01*
X34248600Y-52125647D01*
X34093728Y-52189797D01*
X33929316Y-52222500D01*
X33761684Y-52222500D01*
X33597272Y-52189797D01*
X33442400Y-52125647D01*
X33303019Y-52032515D01*
X33184485Y-51913981D01*
X33091353Y-51774600D01*
X33027203Y-51619728D01*
X32994500Y-51455316D01*
X32994500Y-51287684D01*
X33027203Y-51123272D01*
X33091353Y-50968400D01*
X33184485Y-50829019D01*
X33303019Y-50710485D01*
X33442400Y-50617353D01*
X33597272Y-50553203D01*
X33761684Y-50520500D01*
X33929316Y-50520500D01*
X34093728Y-50553203D01*
G37*
G36*
X36633728Y-50553203D02*
G01*
X36788600Y-50617353D01*
X36927981Y-50710485D01*
X37046515Y-50829019D01*
X37139647Y-50968400D01*
X37203797Y-51123272D01*
X37236500Y-51287684D01*
X37236500Y-51455316D01*
X37203797Y-51619728D01*
X37139647Y-51774600D01*
X37046515Y-51913981D01*
X36927981Y-52032515D01*
X36788600Y-52125647D01*
X36633728Y-52189797D01*
X36469316Y-52222500D01*
X36301684Y-52222500D01*
X36137272Y-52189797D01*
X35982400Y-52125647D01*
X35843019Y-52032515D01*
X35724485Y-51913981D01*
X35631353Y-51774600D01*
X35567203Y-51619728D01*
X35534500Y-51455316D01*
X35534500Y-51287684D01*
X35567203Y-51123272D01*
X35631353Y-50968400D01*
X35724485Y-50829019D01*
X35843019Y-50710485D01*
X35982400Y-50617353D01*
X36137272Y-50553203D01*
X36301684Y-50520500D01*
X36469316Y-50520500D01*
X36633728Y-50553203D01*
G37*
G36*
X23933728Y-50553203D02*
G01*
X24088600Y-50617353D01*
X24227981Y-50710485D01*
X24346515Y-50829019D01*
X24439647Y-50968400D01*
X24503797Y-51123272D01*
X24536500Y-51287684D01*
X24536500Y-51455316D01*
X24503797Y-51619728D01*
X24439647Y-51774600D01*
X24346515Y-51913981D01*
X24227981Y-52032515D01*
X24088600Y-52125647D01*
X23933728Y-52189797D01*
X23769316Y-52222500D01*
X23601684Y-52222500D01*
X23437272Y-52189797D01*
X23282400Y-52125647D01*
X23143019Y-52032515D01*
X23024485Y-51913981D01*
X22931353Y-51774600D01*
X22867203Y-51619728D01*
X22834500Y-51455316D01*
X22834500Y-51287684D01*
X22867203Y-51123272D01*
X22931353Y-50968400D01*
X23024485Y-50829019D01*
X23143019Y-50710485D01*
X23282400Y-50617353D01*
X23437272Y-50553203D01*
X23601684Y-50520500D01*
X23769316Y-50520500D01*
X23933728Y-50553203D01*
G37*
G36*
X21393728Y-50553203D02*
G01*
X21548600Y-50617353D01*
X21687981Y-50710485D01*
X21806515Y-50829019D01*
X21899647Y-50968400D01*
X21963797Y-51123272D01*
X21996500Y-51287684D01*
X21996500Y-51455316D01*
X21963797Y-51619728D01*
X21899647Y-51774600D01*
X21806515Y-51913981D01*
X21687981Y-52032515D01*
X21548600Y-52125647D01*
X21393728Y-52189797D01*
X21229316Y-52222500D01*
X21061684Y-52222500D01*
X20897272Y-52189797D01*
X20742400Y-52125647D01*
X20603019Y-52032515D01*
X20484485Y-51913981D01*
X20391353Y-51774600D01*
X20327203Y-51619728D01*
X20294500Y-51455316D01*
X20294500Y-51287684D01*
X20327203Y-51123272D01*
X20391353Y-50968400D01*
X20484485Y-50829019D01*
X20603019Y-50710485D01*
X20742400Y-50617353D01*
X20897272Y-50553203D01*
X21061684Y-50520500D01*
X21229316Y-50520500D01*
X21393728Y-50553203D01*
G37*
G36*
X26473728Y-50553203D02*
G01*
X26628600Y-50617353D01*
X26767981Y-50710485D01*
X26886515Y-50829019D01*
X26979647Y-50968400D01*
X27043797Y-51123272D01*
X27076500Y-51287684D01*
X27076500Y-51455316D01*
X27043797Y-51619728D01*
X26979647Y-51774600D01*
X26886515Y-51913981D01*
X26767981Y-52032515D01*
X26628600Y-52125647D01*
X26473728Y-52189797D01*
X26309316Y-52222500D01*
X26141684Y-52222500D01*
X25977272Y-52189797D01*
X25822400Y-52125647D01*
X25683019Y-52032515D01*
X25564485Y-51913981D01*
X25471353Y-51774600D01*
X25407203Y-51619728D01*
X25374500Y-51455316D01*
X25374500Y-51287684D01*
X25407203Y-51123272D01*
X25471353Y-50968400D01*
X25564485Y-50829019D01*
X25683019Y-50710485D01*
X25822400Y-50617353D01*
X25977272Y-50553203D01*
X26141684Y-50520500D01*
X26309316Y-50520500D01*
X26473728Y-50553203D01*
G37*
G36*
X39173728Y-50553203D02*
G01*
X39328600Y-50617353D01*
X39467981Y-50710485D01*
X39586515Y-50829019D01*
X39679647Y-50968400D01*
X39743797Y-51123272D01*
X39776500Y-51287684D01*
X39776500Y-51455316D01*
X39743797Y-51619728D01*
X39679647Y-51774600D01*
X39586515Y-51913981D01*
X39467981Y-52032515D01*
X39328600Y-52125647D01*
X39173728Y-52189797D01*
X39009316Y-52222500D01*
X38841684Y-52222500D01*
X38677272Y-52189797D01*
X38522400Y-52125647D01*
X38383019Y-52032515D01*
X38264485Y-51913981D01*
X38171353Y-51774600D01*
X38107203Y-51619728D01*
X38074500Y-51455316D01*
X38074500Y-51287684D01*
X38107203Y-51123272D01*
X38171353Y-50968400D01*
X38264485Y-50829019D01*
X38383019Y-50710485D01*
X38522400Y-50617353D01*
X38677272Y-50553203D01*
X38841684Y-50520500D01*
X39009316Y-50520500D01*
X39173728Y-50553203D01*
G37*
G36*
X29013728Y-50553203D02*
G01*
X29168600Y-50617353D01*
X29307981Y-50710485D01*
X29426515Y-50829019D01*
X29519647Y-50968400D01*
X29583797Y-51123272D01*
X29616500Y-51287684D01*
X29616500Y-51455316D01*
X29583797Y-51619728D01*
X29519647Y-51774600D01*
X29426515Y-51913981D01*
X29307981Y-52032515D01*
X29168600Y-52125647D01*
X29013728Y-52189797D01*
X28849316Y-52222500D01*
X28681684Y-52222500D01*
X28517272Y-52189797D01*
X28362400Y-52125647D01*
X28223019Y-52032515D01*
X28104485Y-51913981D01*
X28011353Y-51774600D01*
X27947203Y-51619728D01*
X27914500Y-51455316D01*
X27914500Y-51287684D01*
X27947203Y-51123272D01*
X28011353Y-50968400D01*
X28104485Y-50829019D01*
X28223019Y-50710485D01*
X28362400Y-50617353D01*
X28517272Y-50553203D01*
X28681684Y-50520500D01*
X28849316Y-50520500D01*
X29013728Y-50553203D01*
G37*
G36*
X81991000Y-51554000D02*
G01*
X80389000Y-51554000D01*
X80389000Y-50452000D01*
X81991000Y-50452000D01*
X81991000Y-51554000D01*
G37*
G36*
X77091000Y-51554000D02*
G01*
X75489000Y-51554000D01*
X75489000Y-50452000D01*
X77091000Y-50452000D01*
X77091000Y-51554000D01*
G37*
G36*
X68428968Y-49609065D02*
G01*
X68467638Y-49620796D01*
X68503277Y-49639846D01*
X68534517Y-49665483D01*
X68560154Y-49696723D01*
X68579204Y-49732362D01*
X68590935Y-49771032D01*
X68595500Y-49817388D01*
X68595500Y-50893612D01*
X68590935Y-50939968D01*
X68579204Y-50978637D01*
X68560154Y-51014277D01*
X68534517Y-51045517D01*
X68503277Y-51071154D01*
X68467638Y-51090204D01*
X68428968Y-51101935D01*
X68382612Y-51106500D01*
X67731388Y-51106500D01*
X67685032Y-51101935D01*
X67646362Y-51090204D01*
X67610723Y-51071154D01*
X67579483Y-51045517D01*
X67553846Y-51014277D01*
X67534796Y-50978637D01*
X67523065Y-50939968D01*
X67518500Y-50893612D01*
X67518500Y-49817388D01*
X67523065Y-49771032D01*
X67534796Y-49732362D01*
X67553846Y-49696723D01*
X67579483Y-49665483D01*
X67610723Y-49639846D01*
X67646362Y-49620796D01*
X67685032Y-49609065D01*
X67731388Y-49604500D01*
X68382612Y-49604500D01*
X68428968Y-49609065D01*
G37*
G36*
X66553968Y-49609065D02*
G01*
X66592638Y-49620796D01*
X66628277Y-49639846D01*
X66659517Y-49665483D01*
X66685154Y-49696723D01*
X66704204Y-49732362D01*
X66715935Y-49771032D01*
X66720500Y-49817388D01*
X66720500Y-50893612D01*
X66715935Y-50939968D01*
X66704204Y-50978637D01*
X66685154Y-51014277D01*
X66659517Y-51045517D01*
X66628277Y-51071154D01*
X66592638Y-51090204D01*
X66553968Y-51101935D01*
X66507612Y-51106500D01*
X65856388Y-51106500D01*
X65810032Y-51101935D01*
X65771362Y-51090204D01*
X65735723Y-51071154D01*
X65704483Y-51045517D01*
X65678846Y-51014277D01*
X65659796Y-50978637D01*
X65648065Y-50939968D01*
X65643500Y-50893612D01*
X65643500Y-49817388D01*
X65648065Y-49771032D01*
X65659796Y-49732362D01*
X65678846Y-49696723D01*
X65704483Y-49665483D01*
X65735723Y-49639846D01*
X65771362Y-49620796D01*
X65810032Y-49609065D01*
X65856388Y-49604500D01*
X66507612Y-49604500D01*
X66553968Y-49609065D01*
G37*
G36*
X71704468Y-48663565D02*
G01*
X71743138Y-48675296D01*
X71778777Y-48694346D01*
X71810017Y-48719983D01*
X71835654Y-48751223D01*
X71854704Y-48786862D01*
X71866435Y-48825532D01*
X71871000Y-48871888D01*
X71871000Y-49523112D01*
X71866435Y-49569468D01*
X71854704Y-49608138D01*
X71835654Y-49643777D01*
X71810017Y-49675017D01*
X71778777Y-49700654D01*
X71743138Y-49719704D01*
X71704468Y-49731435D01*
X71658112Y-49736000D01*
X70581888Y-49736000D01*
X70535532Y-49731435D01*
X70496862Y-49719704D01*
X70461223Y-49700654D01*
X70429983Y-49675017D01*
X70404346Y-49643777D01*
X70385296Y-49608138D01*
X70373565Y-49569468D01*
X70369000Y-49523112D01*
X70369000Y-48871888D01*
X70373565Y-48825532D01*
X70385296Y-48786862D01*
X70404346Y-48751223D01*
X70429983Y-48719983D01*
X70461223Y-48694346D01*
X70496862Y-48675296D01*
X70535532Y-48663565D01*
X70581888Y-48659000D01*
X71658112Y-48659000D01*
X71704468Y-48663565D01*
G37*
G36*
X81991000Y-48354000D02*
G01*
X80389000Y-48354000D01*
X80389000Y-47252000D01*
X81991000Y-47252000D01*
X81991000Y-48354000D01*
G37*
G36*
X77091000Y-48354000D02*
G01*
X75489000Y-48354000D01*
X75489000Y-47252000D01*
X77091000Y-47252000D01*
X77091000Y-48354000D01*
G37*
G36*
X71704468Y-46788565D02*
G01*
X71743138Y-46800296D01*
X71778777Y-46819346D01*
X71810017Y-46844983D01*
X71835654Y-46876223D01*
X71854704Y-46911862D01*
X71866435Y-46950532D01*
X71871000Y-46996888D01*
X71871000Y-47648112D01*
X71866435Y-47694468D01*
X71854704Y-47733138D01*
X71835654Y-47768777D01*
X71810017Y-47800017D01*
X71778777Y-47825654D01*
X71743138Y-47844704D01*
X71704468Y-47856435D01*
X71658112Y-47861000D01*
X70581888Y-47861000D01*
X70535532Y-47856435D01*
X70496862Y-47844704D01*
X70461223Y-47825654D01*
X70429983Y-47800017D01*
X70404346Y-47768777D01*
X70385296Y-47733138D01*
X70373565Y-47694468D01*
X70369000Y-47648112D01*
X70369000Y-46996888D01*
X70373565Y-46950532D01*
X70385296Y-46911862D01*
X70404346Y-46876223D01*
X70429983Y-46844983D01*
X70461223Y-46819346D01*
X70496862Y-46800296D01*
X70535532Y-46788565D01*
X70581888Y-46784000D01*
X71658112Y-46784000D01*
X71704468Y-46788565D01*
G37*
G36*
X65063468Y-44338565D02*
G01*
X65102138Y-44350296D01*
X65137777Y-44369346D01*
X65169017Y-44394983D01*
X65194654Y-44426223D01*
X65213704Y-44461862D01*
X65225435Y-44500532D01*
X65230000Y-44546888D01*
X65230000Y-45623112D01*
X65225435Y-45669468D01*
X65213704Y-45708138D01*
X65194654Y-45743777D01*
X65169017Y-45775017D01*
X65137777Y-45800654D01*
X65102138Y-45819704D01*
X65063468Y-45831435D01*
X65017112Y-45836000D01*
X64365888Y-45836000D01*
X64319532Y-45831435D01*
X64280862Y-45819704D01*
X64245223Y-45800654D01*
X64213983Y-45775017D01*
X64188346Y-45743777D01*
X64169296Y-45708138D01*
X64157565Y-45669468D01*
X64153000Y-45623112D01*
X64153000Y-44546888D01*
X64157565Y-44500532D01*
X64169296Y-44461862D01*
X64188346Y-44426223D01*
X64213983Y-44394983D01*
X64245223Y-44369346D01*
X64280862Y-44350296D01*
X64319532Y-44338565D01*
X64365888Y-44334000D01*
X65017112Y-44334000D01*
X65063468Y-44338565D01*
G37*
G36*
X63188468Y-44338565D02*
G01*
X63227138Y-44350296D01*
X63262777Y-44369346D01*
X63294017Y-44394983D01*
X63319654Y-44426223D01*
X63338704Y-44461862D01*
X63350435Y-44500532D01*
X63355000Y-44546888D01*
X63355000Y-45623112D01*
X63350435Y-45669468D01*
X63338704Y-45708138D01*
X63319654Y-45743777D01*
X63294017Y-45775017D01*
X63262777Y-45800654D01*
X63227138Y-45819704D01*
X63188468Y-45831435D01*
X63142112Y-45836000D01*
X62490888Y-45836000D01*
X62444532Y-45831435D01*
X62405862Y-45819704D01*
X62370223Y-45800654D01*
X62338983Y-45775017D01*
X62313346Y-45743777D01*
X62294296Y-45708138D01*
X62282565Y-45669468D01*
X62278000Y-45623112D01*
X62278000Y-44546888D01*
X62282565Y-44500532D01*
X62294296Y-44461862D01*
X62313346Y-44426223D01*
X62338983Y-44394983D01*
X62370223Y-44369346D01*
X62405862Y-44350296D01*
X62444532Y-44338565D01*
X62490888Y-44334000D01*
X63142112Y-44334000D01*
X63188468Y-44338565D01*
G37*
G36*
X60274468Y-44487565D02*
G01*
X60313138Y-44499296D01*
X60348777Y-44518346D01*
X60380017Y-44543983D01*
X60405654Y-44575223D01*
X60424704Y-44610862D01*
X60436435Y-44649532D01*
X60441000Y-44695888D01*
X60441000Y-45347112D01*
X60436435Y-45393468D01*
X60424704Y-45432138D01*
X60405654Y-45467777D01*
X60380017Y-45499017D01*
X60348777Y-45524654D01*
X60313138Y-45543704D01*
X60274468Y-45555435D01*
X60228112Y-45560000D01*
X59151888Y-45560000D01*
X59105532Y-45555435D01*
X59066862Y-45543704D01*
X59031223Y-45524654D01*
X58999983Y-45499017D01*
X58974346Y-45467777D01*
X58955296Y-45432138D01*
X58943565Y-45393468D01*
X58939000Y-45347112D01*
X58939000Y-44695888D01*
X58943565Y-44649532D01*
X58955296Y-44610862D01*
X58974346Y-44575223D01*
X58999983Y-44543983D01*
X59031223Y-44518346D01*
X59066862Y-44499296D01*
X59105532Y-44487565D01*
X59151888Y-44483000D01*
X60228112Y-44483000D01*
X60274468Y-44487565D01*
G37*
G36*
X33604468Y-44472565D02*
G01*
X33643138Y-44484296D01*
X33678777Y-44503346D01*
X33710017Y-44528983D01*
X33735654Y-44560223D01*
X33754704Y-44595862D01*
X33766435Y-44634532D01*
X33771000Y-44680888D01*
X33771000Y-45332112D01*
X33766435Y-45378468D01*
X33754704Y-45417138D01*
X33735654Y-45452777D01*
X33710017Y-45484017D01*
X33678777Y-45509654D01*
X33643138Y-45528704D01*
X33604468Y-45540435D01*
X33558112Y-45545000D01*
X32481888Y-45545000D01*
X32435532Y-45540435D01*
X32396862Y-45528704D01*
X32361223Y-45509654D01*
X32329983Y-45484017D01*
X32304346Y-45452777D01*
X32285296Y-45417138D01*
X32273565Y-45378468D01*
X32269000Y-45332112D01*
X32269000Y-44680888D01*
X32273565Y-44634532D01*
X32285296Y-44595862D01*
X32304346Y-44560223D01*
X32329983Y-44528983D01*
X32361223Y-44503346D01*
X32396862Y-44484296D01*
X32435532Y-44472565D01*
X32481888Y-44468000D01*
X33558112Y-44468000D01*
X33604468Y-44472565D01*
G37*
G36*
X53162468Y-44472565D02*
G01*
X53201138Y-44484296D01*
X53236777Y-44503346D01*
X53268017Y-44528983D01*
X53293654Y-44560223D01*
X53312704Y-44595862D01*
X53324435Y-44634532D01*
X53329000Y-44680888D01*
X53329000Y-45332112D01*
X53324435Y-45378468D01*
X53312704Y-45417138D01*
X53293654Y-45452777D01*
X53268017Y-45484017D01*
X53236777Y-45509654D01*
X53201138Y-45528704D01*
X53162468Y-45540435D01*
X53116112Y-45545000D01*
X52039888Y-45545000D01*
X51993532Y-45540435D01*
X51954862Y-45528704D01*
X51919223Y-45509654D01*
X51887983Y-45484017D01*
X51862346Y-45452777D01*
X51843296Y-45417138D01*
X51831565Y-45378468D01*
X51827000Y-45332112D01*
X51827000Y-44680888D01*
X51831565Y-44634532D01*
X51843296Y-44595862D01*
X51862346Y-44560223D01*
X51887983Y-44528983D01*
X51919223Y-44503346D01*
X51954862Y-44484296D01*
X51993532Y-44472565D01*
X52039888Y-44468000D01*
X53116112Y-44468000D01*
X53162468Y-44472565D01*
G37*
G36*
X50114468Y-44472565D02*
G01*
X50153138Y-44484296D01*
X50188777Y-44503346D01*
X50220017Y-44528983D01*
X50245654Y-44560223D01*
X50264704Y-44595862D01*
X50276435Y-44634532D01*
X50281000Y-44680888D01*
X50281000Y-45332112D01*
X50276435Y-45378468D01*
X50264704Y-45417138D01*
X50245654Y-45452777D01*
X50220017Y-45484017D01*
X50188777Y-45509654D01*
X50153138Y-45528704D01*
X50114468Y-45540435D01*
X50068112Y-45545000D01*
X48991888Y-45545000D01*
X48945532Y-45540435D01*
X48906862Y-45528704D01*
X48871223Y-45509654D01*
X48839983Y-45484017D01*
X48814346Y-45452777D01*
X48795296Y-45417138D01*
X48783565Y-45378468D01*
X48779000Y-45332112D01*
X48779000Y-44680888D01*
X48783565Y-44634532D01*
X48795296Y-44595862D01*
X48814346Y-44560223D01*
X48839983Y-44528983D01*
X48871223Y-44503346D01*
X48906862Y-44484296D01*
X48945532Y-44472565D01*
X48991888Y-44468000D01*
X50068112Y-44468000D01*
X50114468Y-44472565D01*
G37*
G36*
X43256468Y-44472565D02*
G01*
X43295138Y-44484296D01*
X43330777Y-44503346D01*
X43362017Y-44528983D01*
X43387654Y-44560223D01*
X43406704Y-44595862D01*
X43418435Y-44634532D01*
X43423000Y-44680888D01*
X43423000Y-45332112D01*
X43418435Y-45378468D01*
X43406704Y-45417138D01*
X43387654Y-45452777D01*
X43362017Y-45484017D01*
X43330777Y-45509654D01*
X43295138Y-45528704D01*
X43256468Y-45540435D01*
X43210112Y-45545000D01*
X42133888Y-45545000D01*
X42087532Y-45540435D01*
X42048862Y-45528704D01*
X42013223Y-45509654D01*
X41981983Y-45484017D01*
X41956346Y-45452777D01*
X41937296Y-45417138D01*
X41925565Y-45378468D01*
X41921000Y-45332112D01*
X41921000Y-44680888D01*
X41925565Y-44634532D01*
X41937296Y-44595862D01*
X41956346Y-44560223D01*
X41981983Y-44528983D01*
X42013223Y-44503346D01*
X42048862Y-44484296D01*
X42087532Y-44472565D01*
X42133888Y-44468000D01*
X43210112Y-44468000D01*
X43256468Y-44472565D01*
G37*
G36*
X35890468Y-44472565D02*
G01*
X35929138Y-44484296D01*
X35964777Y-44503346D01*
X35996017Y-44528983D01*
X36021654Y-44560223D01*
X36040704Y-44595862D01*
X36052435Y-44634532D01*
X36057000Y-44680888D01*
X36057000Y-45332112D01*
X36052435Y-45378468D01*
X36040704Y-45417138D01*
X36021654Y-45452777D01*
X35996017Y-45484017D01*
X35964777Y-45509654D01*
X35929138Y-45528704D01*
X35890468Y-45540435D01*
X35844112Y-45545000D01*
X34767888Y-45545000D01*
X34721532Y-45540435D01*
X34682862Y-45528704D01*
X34647223Y-45509654D01*
X34615983Y-45484017D01*
X34590346Y-45452777D01*
X34571296Y-45417138D01*
X34559565Y-45378468D01*
X34555000Y-45332112D01*
X34555000Y-44680888D01*
X34559565Y-44634532D01*
X34571296Y-44595862D01*
X34590346Y-44560223D01*
X34615983Y-44528983D01*
X34647223Y-44503346D01*
X34682862Y-44484296D01*
X34721532Y-44472565D01*
X34767888Y-44468000D01*
X35844112Y-44468000D01*
X35890468Y-44472565D01*
G37*
G36*
X56210468Y-44472565D02*
G01*
X56249138Y-44484296D01*
X56284777Y-44503346D01*
X56316017Y-44528983D01*
X56341654Y-44560223D01*
X56360704Y-44595862D01*
X56372435Y-44634532D01*
X56377000Y-44680888D01*
X56377000Y-45332112D01*
X56372435Y-45378468D01*
X56360704Y-45417138D01*
X56341654Y-45452777D01*
X56316017Y-45484017D01*
X56284777Y-45509654D01*
X56249138Y-45528704D01*
X56210468Y-45540435D01*
X56164112Y-45545000D01*
X55087888Y-45545000D01*
X55041532Y-45540435D01*
X55002862Y-45528704D01*
X54967223Y-45509654D01*
X54935983Y-45484017D01*
X54910346Y-45452777D01*
X54891296Y-45417138D01*
X54879565Y-45378468D01*
X54875000Y-45332112D01*
X54875000Y-44680888D01*
X54879565Y-44634532D01*
X54891296Y-44595862D01*
X54910346Y-44560223D01*
X54935983Y-44528983D01*
X54967223Y-44503346D01*
X55002862Y-44484296D01*
X55041532Y-44472565D01*
X55087888Y-44468000D01*
X56164112Y-44468000D01*
X56210468Y-44472565D01*
G37*
G36*
X46812468Y-44472565D02*
G01*
X46851138Y-44484296D01*
X46886777Y-44503346D01*
X46918017Y-44528983D01*
X46943654Y-44560223D01*
X46962704Y-44595862D01*
X46974435Y-44634532D01*
X46979000Y-44680888D01*
X46979000Y-45332112D01*
X46974435Y-45378468D01*
X46962704Y-45417138D01*
X46943654Y-45452777D01*
X46918017Y-45484017D01*
X46886777Y-45509654D01*
X46851138Y-45528704D01*
X46812468Y-45540435D01*
X46766112Y-45545000D01*
X45689888Y-45545000D01*
X45643532Y-45540435D01*
X45604862Y-45528704D01*
X45569223Y-45509654D01*
X45537983Y-45484017D01*
X45512346Y-45452777D01*
X45493296Y-45417138D01*
X45481565Y-45378468D01*
X45477000Y-45332112D01*
X45477000Y-44680888D01*
X45481565Y-44634532D01*
X45493296Y-44595862D01*
X45512346Y-44560223D01*
X45537983Y-44528983D01*
X45569223Y-44503346D01*
X45604862Y-44484296D01*
X45643532Y-44472565D01*
X45689888Y-44468000D01*
X46766112Y-44468000D01*
X46812468Y-44472565D01*
G37*
G36*
X39954468Y-44472565D02*
G01*
X39993138Y-44484296D01*
X40028777Y-44503346D01*
X40060017Y-44528983D01*
X40085654Y-44560223D01*
X40104704Y-44595862D01*
X40116435Y-44634532D01*
X40121000Y-44680888D01*
X40121000Y-45332112D01*
X40116435Y-45378468D01*
X40104704Y-45417138D01*
X40085654Y-45452777D01*
X40060017Y-45484017D01*
X40028777Y-45509654D01*
X39993138Y-45528704D01*
X39954468Y-45540435D01*
X39908112Y-45545000D01*
X38831888Y-45545000D01*
X38785532Y-45540435D01*
X38746862Y-45528704D01*
X38711223Y-45509654D01*
X38679983Y-45484017D01*
X38654346Y-45452777D01*
X38635296Y-45417138D01*
X38623565Y-45378468D01*
X38619000Y-45332112D01*
X38619000Y-44680888D01*
X38623565Y-44634532D01*
X38635296Y-44595862D01*
X38654346Y-44560223D01*
X38679983Y-44528983D01*
X38711223Y-44503346D01*
X38746862Y-44484296D01*
X38785532Y-44472565D01*
X38831888Y-44468000D01*
X39908112Y-44468000D01*
X39954468Y-44472565D01*
G37*
G36*
X29695000Y-45470000D02*
G01*
X28693000Y-45470000D01*
X28693000Y-44568000D01*
X29695000Y-44568000D01*
X29695000Y-45470000D01*
G37*
G36*
X27695000Y-44520000D02*
G01*
X26693000Y-44520000D01*
X26693000Y-43618000D01*
X27695000Y-43618000D01*
X27695000Y-44520000D01*
G37*
G36*
X81991000Y-44188000D02*
G01*
X80389000Y-44188000D01*
X80389000Y-43086000D01*
X81991000Y-43086000D01*
X81991000Y-44188000D01*
G37*
G36*
X77091000Y-44188000D02*
G01*
X75489000Y-44188000D01*
X75489000Y-43086000D01*
X77091000Y-43086000D01*
X77091000Y-44188000D01*
G37*
G36*
X60274468Y-42612565D02*
G01*
X60313138Y-42624296D01*
X60348777Y-42643346D01*
X60380017Y-42668983D01*
X60405654Y-42700223D01*
X60424704Y-42735862D01*
X60436435Y-42774532D01*
X60441000Y-42820888D01*
X60441000Y-43472112D01*
X60436435Y-43518468D01*
X60424704Y-43557138D01*
X60405654Y-43592777D01*
X60380017Y-43624017D01*
X60348777Y-43649654D01*
X60313138Y-43668704D01*
X60274468Y-43680435D01*
X60228112Y-43685000D01*
X59151888Y-43685000D01*
X59105532Y-43680435D01*
X59066862Y-43668704D01*
X59031223Y-43649654D01*
X58999983Y-43624017D01*
X58974346Y-43592777D01*
X58955296Y-43557138D01*
X58943565Y-43518468D01*
X58939000Y-43472112D01*
X58939000Y-42820888D01*
X58943565Y-42774532D01*
X58955296Y-42735862D01*
X58974346Y-42700223D01*
X58999983Y-42668983D01*
X59031223Y-42643346D01*
X59066862Y-42624296D01*
X59105532Y-42612565D01*
X59151888Y-42608000D01*
X60228112Y-42608000D01*
X60274468Y-42612565D01*
G37*
G36*
X33604468Y-42597565D02*
G01*
X33643138Y-42609296D01*
X33678777Y-42628346D01*
X33710017Y-42653983D01*
X33735654Y-42685223D01*
X33754704Y-42720862D01*
X33766435Y-42759532D01*
X33771000Y-42805888D01*
X33771000Y-43457112D01*
X33766435Y-43503468D01*
X33754704Y-43542138D01*
X33735654Y-43577777D01*
X33710017Y-43609017D01*
X33678777Y-43634654D01*
X33643138Y-43653704D01*
X33604468Y-43665435D01*
X33558112Y-43670000D01*
X32481888Y-43670000D01*
X32435532Y-43665435D01*
X32396862Y-43653704D01*
X32361223Y-43634654D01*
X32329983Y-43609017D01*
X32304346Y-43577777D01*
X32285296Y-43542138D01*
X32273565Y-43503468D01*
X32269000Y-43457112D01*
X32269000Y-42805888D01*
X32273565Y-42759532D01*
X32285296Y-42720862D01*
X32304346Y-42685223D01*
X32329983Y-42653983D01*
X32361223Y-42628346D01*
X32396862Y-42609296D01*
X32435532Y-42597565D01*
X32481888Y-42593000D01*
X33558112Y-42593000D01*
X33604468Y-42597565D01*
G37*
G36*
X35890468Y-42597565D02*
G01*
X35929138Y-42609296D01*
X35964777Y-42628346D01*
X35996017Y-42653983D01*
X36021654Y-42685223D01*
X36040704Y-42720862D01*
X36052435Y-42759532D01*
X36057000Y-42805888D01*
X36057000Y-43457112D01*
X36052435Y-43503468D01*
X36040704Y-43542138D01*
X36021654Y-43577777D01*
X35996017Y-43609017D01*
X35964777Y-43634654D01*
X35929138Y-43653704D01*
X35890468Y-43665435D01*
X35844112Y-43670000D01*
X34767888Y-43670000D01*
X34721532Y-43665435D01*
X34682862Y-43653704D01*
X34647223Y-43634654D01*
X34615983Y-43609017D01*
X34590346Y-43577777D01*
X34571296Y-43542138D01*
X34559565Y-43503468D01*
X34555000Y-43457112D01*
X34555000Y-42805888D01*
X34559565Y-42759532D01*
X34571296Y-42720862D01*
X34590346Y-42685223D01*
X34615983Y-42653983D01*
X34647223Y-42628346D01*
X34682862Y-42609296D01*
X34721532Y-42597565D01*
X34767888Y-42593000D01*
X35844112Y-42593000D01*
X35890468Y-42597565D01*
G37*
G36*
X39954468Y-42597565D02*
G01*
X39993138Y-42609296D01*
X40028777Y-42628346D01*
X40060017Y-42653983D01*
X40085654Y-42685223D01*
X40104704Y-42720862D01*
X40116435Y-42759532D01*
X40121000Y-42805888D01*
X40121000Y-43457112D01*
X40116435Y-43503468D01*
X40104704Y-43542138D01*
X40085654Y-43577777D01*
X40060017Y-43609017D01*
X40028777Y-43634654D01*
X39993138Y-43653704D01*
X39954468Y-43665435D01*
X39908112Y-43670000D01*
X38831888Y-43670000D01*
X38785532Y-43665435D01*
X38746862Y-43653704D01*
X38711223Y-43634654D01*
X38679983Y-43609017D01*
X38654346Y-43577777D01*
X38635296Y-43542138D01*
X38623565Y-43503468D01*
X38619000Y-43457112D01*
X38619000Y-42805888D01*
X38623565Y-42759532D01*
X38635296Y-42720862D01*
X38654346Y-42685223D01*
X38679983Y-42653983D01*
X38711223Y-42628346D01*
X38746862Y-42609296D01*
X38785532Y-42597565D01*
X38831888Y-42593000D01*
X39908112Y-42593000D01*
X39954468Y-42597565D01*
G37*
G36*
X43256468Y-42597565D02*
G01*
X43295138Y-42609296D01*
X43330777Y-42628346D01*
X43362017Y-42653983D01*
X43387654Y-42685223D01*
X43406704Y-42720862D01*
X43418435Y-42759532D01*
X43423000Y-42805888D01*
X43423000Y-43457112D01*
X43418435Y-43503468D01*
X43406704Y-43542138D01*
X43387654Y-43577777D01*
X43362017Y-43609017D01*
X43330777Y-43634654D01*
X43295138Y-43653704D01*
X43256468Y-43665435D01*
X43210112Y-43670000D01*
X42133888Y-43670000D01*
X42087532Y-43665435D01*
X42048862Y-43653704D01*
X42013223Y-43634654D01*
X41981983Y-43609017D01*
X41956346Y-43577777D01*
X41937296Y-43542138D01*
X41925565Y-43503468D01*
X41921000Y-43457112D01*
X41921000Y-42805888D01*
X41925565Y-42759532D01*
X41937296Y-42720862D01*
X41956346Y-42685223D01*
X41981983Y-42653983D01*
X42013223Y-42628346D01*
X42048862Y-42609296D01*
X42087532Y-42597565D01*
X42133888Y-42593000D01*
X43210112Y-42593000D01*
X43256468Y-42597565D01*
G37*
G36*
X46812468Y-42597565D02*
G01*
X46851138Y-42609296D01*
X46886777Y-42628346D01*
X46918017Y-42653983D01*
X46943654Y-42685223D01*
X46962704Y-42720862D01*
X46974435Y-42759532D01*
X46979000Y-42805888D01*
X46979000Y-43457112D01*
X46974435Y-43503468D01*
X46962704Y-43542138D01*
X46943654Y-43577777D01*
X46918017Y-43609017D01*
X46886777Y-43634654D01*
X46851138Y-43653704D01*
X46812468Y-43665435D01*
X46766112Y-43670000D01*
X45689888Y-43670000D01*
X45643532Y-43665435D01*
X45604862Y-43653704D01*
X45569223Y-43634654D01*
X45537983Y-43609017D01*
X45512346Y-43577777D01*
X45493296Y-43542138D01*
X45481565Y-43503468D01*
X45477000Y-43457112D01*
X45477000Y-42805888D01*
X45481565Y-42759532D01*
X45493296Y-42720862D01*
X45512346Y-42685223D01*
X45537983Y-42653983D01*
X45569223Y-42628346D01*
X45604862Y-42609296D01*
X45643532Y-42597565D01*
X45689888Y-42593000D01*
X46766112Y-42593000D01*
X46812468Y-42597565D01*
G37*
G36*
X56210468Y-42597565D02*
G01*
X56249138Y-42609296D01*
X56284777Y-42628346D01*
X56316017Y-42653983D01*
X56341654Y-42685223D01*
X56360704Y-42720862D01*
X56372435Y-42759532D01*
X56377000Y-42805888D01*
X56377000Y-43457112D01*
X56372435Y-43503468D01*
X56360704Y-43542138D01*
X56341654Y-43577777D01*
X56316017Y-43609017D01*
X56284777Y-43634654D01*
X56249138Y-43653704D01*
X56210468Y-43665435D01*
X56164112Y-43670000D01*
X55087888Y-43670000D01*
X55041532Y-43665435D01*
X55002862Y-43653704D01*
X54967223Y-43634654D01*
X54935983Y-43609017D01*
X54910346Y-43577777D01*
X54891296Y-43542138D01*
X54879565Y-43503468D01*
X54875000Y-43457112D01*
X54875000Y-42805888D01*
X54879565Y-42759532D01*
X54891296Y-42720862D01*
X54910346Y-42685223D01*
X54935983Y-42653983D01*
X54967223Y-42628346D01*
X55002862Y-42609296D01*
X55041532Y-42597565D01*
X55087888Y-42593000D01*
X56164112Y-42593000D01*
X56210468Y-42597565D01*
G37*
G36*
X53162468Y-42597565D02*
G01*
X53201138Y-42609296D01*
X53236777Y-42628346D01*
X53268017Y-42653983D01*
X53293654Y-42685223D01*
X53312704Y-42720862D01*
X53324435Y-42759532D01*
X53329000Y-42805888D01*
X53329000Y-43457112D01*
X53324435Y-43503468D01*
X53312704Y-43542138D01*
X53293654Y-43577777D01*
X53268017Y-43609017D01*
X53236777Y-43634654D01*
X53201138Y-43653704D01*
X53162468Y-43665435D01*
X53116112Y-43670000D01*
X52039888Y-43670000D01*
X51993532Y-43665435D01*
X51954862Y-43653704D01*
X51919223Y-43634654D01*
X51887983Y-43609017D01*
X51862346Y-43577777D01*
X51843296Y-43542138D01*
X51831565Y-43503468D01*
X51827000Y-43457112D01*
X51827000Y-42805888D01*
X51831565Y-42759532D01*
X51843296Y-42720862D01*
X51862346Y-42685223D01*
X51887983Y-42653983D01*
X51919223Y-42628346D01*
X51954862Y-42609296D01*
X51993532Y-42597565D01*
X52039888Y-42593000D01*
X53116112Y-42593000D01*
X53162468Y-42597565D01*
G37*
G36*
X50114468Y-42597565D02*
G01*
X50153138Y-42609296D01*
X50188777Y-42628346D01*
X50220017Y-42653983D01*
X50245654Y-42685223D01*
X50264704Y-42720862D01*
X50276435Y-42759532D01*
X50281000Y-42805888D01*
X50281000Y-43457112D01*
X50276435Y-43503468D01*
X50264704Y-43542138D01*
X50245654Y-43577777D01*
X50220017Y-43609017D01*
X50188777Y-43634654D01*
X50153138Y-43653704D01*
X50114468Y-43665435D01*
X50068112Y-43670000D01*
X48991888Y-43670000D01*
X48945532Y-43665435D01*
X48906862Y-43653704D01*
X48871223Y-43634654D01*
X48839983Y-43609017D01*
X48814346Y-43577777D01*
X48795296Y-43542138D01*
X48783565Y-43503468D01*
X48779000Y-43457112D01*
X48779000Y-42805888D01*
X48783565Y-42759532D01*
X48795296Y-42720862D01*
X48814346Y-42685223D01*
X48839983Y-42653983D01*
X48871223Y-42628346D01*
X48906862Y-42609296D01*
X48945532Y-42597565D01*
X48991888Y-42593000D01*
X50068112Y-42593000D01*
X50114468Y-42597565D01*
G37*
G36*
X29695000Y-43570000D02*
G01*
X28693000Y-43570000D01*
X28693000Y-42668000D01*
X29695000Y-42668000D01*
X29695000Y-43570000D01*
G37*
G36*
X81991000Y-40988000D02*
G01*
X80389000Y-40988000D01*
X80389000Y-39886000D01*
X81991000Y-39886000D01*
X81991000Y-40988000D01*
G37*
G36*
X77091000Y-40988000D02*
G01*
X75489000Y-40988000D01*
X75489000Y-39886000D01*
X77091000Y-39886000D01*
X77091000Y-40988000D01*
G37*
G36*
X30459642Y-38218781D02*
G01*
X30605414Y-38279162D01*
X30605416Y-38279163D01*
X30736608Y-38366822D01*
X30848178Y-38478392D01*
X30935837Y-38609584D01*
X30935838Y-38609586D01*
X30996219Y-38755358D01*
X31027000Y-38910107D01*
X31027000Y-39067893D01*
X30996219Y-39222642D01*
X30935838Y-39368414D01*
X30935837Y-39368416D01*
X30848178Y-39499608D01*
X30736608Y-39611178D01*
X30605416Y-39698837D01*
X30605415Y-39698838D01*
X30605414Y-39698838D01*
X30459642Y-39759219D01*
X30304893Y-39790000D01*
X30147107Y-39790000D01*
X29992358Y-39759219D01*
X29846586Y-39698838D01*
X29846585Y-39698838D01*
X29846584Y-39698837D01*
X29715392Y-39611178D01*
X29603822Y-39499608D01*
X29516163Y-39368416D01*
X29516162Y-39368414D01*
X29455781Y-39222642D01*
X29425000Y-39067893D01*
X29425000Y-38910107D01*
X29455781Y-38755358D01*
X29516162Y-38609586D01*
X29516163Y-38609584D01*
X29603822Y-38478392D01*
X29715392Y-38366822D01*
X29846584Y-38279163D01*
X29846586Y-38279162D01*
X29992358Y-38218781D01*
X30147107Y-38188000D01*
X30304893Y-38188000D01*
X30459642Y-38218781D01*
G37*
G36*
X32999642Y-38218781D02*
G01*
X33145414Y-38279162D01*
X33145416Y-38279163D01*
X33276608Y-38366822D01*
X33388178Y-38478392D01*
X33475837Y-38609584D01*
X33475838Y-38609586D01*
X33536219Y-38755358D01*
X33567000Y-38910107D01*
X33567000Y-39067893D01*
X33536219Y-39222642D01*
X33475838Y-39368414D01*
X33475837Y-39368416D01*
X33388178Y-39499608D01*
X33276608Y-39611178D01*
X33145416Y-39698837D01*
X33145415Y-39698838D01*
X33145414Y-39698838D01*
X32999642Y-39759219D01*
X32844893Y-39790000D01*
X32687107Y-39790000D01*
X32532358Y-39759219D01*
X32386586Y-39698838D01*
X32386585Y-39698838D01*
X32386584Y-39698837D01*
X32255392Y-39611178D01*
X32143822Y-39499608D01*
X32056163Y-39368416D01*
X32056162Y-39368414D01*
X31995781Y-39222642D01*
X31965000Y-39067893D01*
X31965000Y-38910107D01*
X31995781Y-38755358D01*
X32056162Y-38609586D01*
X32056163Y-38609584D01*
X32143822Y-38478392D01*
X32255392Y-38366822D01*
X32386584Y-38279163D01*
X32386586Y-38279162D01*
X32532358Y-38218781D01*
X32687107Y-38188000D01*
X32844893Y-38188000D01*
X32999642Y-38218781D01*
G37*
G36*
X35539642Y-38218781D02*
G01*
X35685414Y-38279162D01*
X35685416Y-38279163D01*
X35816608Y-38366822D01*
X35928178Y-38478392D01*
X36015837Y-38609584D01*
X36015838Y-38609586D01*
X36076219Y-38755358D01*
X36107000Y-38910107D01*
X36107000Y-39067893D01*
X36076219Y-39222642D01*
X36015838Y-39368414D01*
X36015837Y-39368416D01*
X35928178Y-39499608D01*
X35816608Y-39611178D01*
X35685416Y-39698837D01*
X35685415Y-39698838D01*
X35685414Y-39698838D01*
X35539642Y-39759219D01*
X35384893Y-39790000D01*
X35227107Y-39790000D01*
X35072358Y-39759219D01*
X34926586Y-39698838D01*
X34926585Y-39698838D01*
X34926584Y-39698837D01*
X34795392Y-39611178D01*
X34683822Y-39499608D01*
X34596163Y-39368416D01*
X34596162Y-39368414D01*
X34535781Y-39222642D01*
X34505000Y-39067893D01*
X34505000Y-38910107D01*
X34535781Y-38755358D01*
X34596162Y-38609586D01*
X34596163Y-38609584D01*
X34683822Y-38478392D01*
X34795392Y-38366822D01*
X34926584Y-38279163D01*
X34926586Y-38279162D01*
X35072358Y-38218781D01*
X35227107Y-38188000D01*
X35384893Y-38188000D01*
X35539642Y-38218781D01*
G37*
G36*
X38079642Y-38218781D02*
G01*
X38225414Y-38279162D01*
X38225416Y-38279163D01*
X38356608Y-38366822D01*
X38468178Y-38478392D01*
X38555837Y-38609584D01*
X38555838Y-38609586D01*
X38616219Y-38755358D01*
X38647000Y-38910107D01*
X38647000Y-39067893D01*
X38616219Y-39222642D01*
X38555838Y-39368414D01*
X38555837Y-39368416D01*
X38468178Y-39499608D01*
X38356608Y-39611178D01*
X38225416Y-39698837D01*
X38225415Y-39698838D01*
X38225414Y-39698838D01*
X38079642Y-39759219D01*
X37924893Y-39790000D01*
X37767107Y-39790000D01*
X37612358Y-39759219D01*
X37466586Y-39698838D01*
X37466585Y-39698838D01*
X37466584Y-39698837D01*
X37335392Y-39611178D01*
X37223822Y-39499608D01*
X37136163Y-39368416D01*
X37136162Y-39368414D01*
X37075781Y-39222642D01*
X37045000Y-39067893D01*
X37045000Y-38910107D01*
X37075781Y-38755358D01*
X37136162Y-38609586D01*
X37136163Y-38609584D01*
X37223822Y-38478392D01*
X37335392Y-38366822D01*
X37466584Y-38279163D01*
X37466586Y-38279162D01*
X37612358Y-38218781D01*
X37767107Y-38188000D01*
X37924893Y-38188000D01*
X38079642Y-38218781D01*
G37*
G36*
X40619642Y-38218781D02*
G01*
X40765414Y-38279162D01*
X40765416Y-38279163D01*
X40896608Y-38366822D01*
X41008178Y-38478392D01*
X41095837Y-38609584D01*
X41095838Y-38609586D01*
X41156219Y-38755358D01*
X41187000Y-38910107D01*
X41187000Y-39067893D01*
X41156219Y-39222642D01*
X41095838Y-39368414D01*
X41095837Y-39368416D01*
X41008178Y-39499608D01*
X40896608Y-39611178D01*
X40765416Y-39698837D01*
X40765415Y-39698838D01*
X40765414Y-39698838D01*
X40619642Y-39759219D01*
X40464893Y-39790000D01*
X40307107Y-39790000D01*
X40152358Y-39759219D01*
X40006586Y-39698838D01*
X40006585Y-39698838D01*
X40006584Y-39698837D01*
X39875392Y-39611178D01*
X39763822Y-39499608D01*
X39676163Y-39368416D01*
X39676162Y-39368414D01*
X39615781Y-39222642D01*
X39585000Y-39067893D01*
X39585000Y-38910107D01*
X39615781Y-38755358D01*
X39676162Y-38609586D01*
X39676163Y-38609584D01*
X39763822Y-38478392D01*
X39875392Y-38366822D01*
X40006584Y-38279163D01*
X40006586Y-38279162D01*
X40152358Y-38218781D01*
X40307107Y-38188000D01*
X40464893Y-38188000D01*
X40619642Y-38218781D01*
G37*
G36*
X43159642Y-38218781D02*
G01*
X43305414Y-38279162D01*
X43305416Y-38279163D01*
X43436608Y-38366822D01*
X43548178Y-38478392D01*
X43635837Y-38609584D01*
X43635838Y-38609586D01*
X43696219Y-38755358D01*
X43727000Y-38910107D01*
X43727000Y-39067893D01*
X43696219Y-39222642D01*
X43635838Y-39368414D01*
X43635837Y-39368416D01*
X43548178Y-39499608D01*
X43436608Y-39611178D01*
X43305416Y-39698837D01*
X43305415Y-39698838D01*
X43305414Y-39698838D01*
X43159642Y-39759219D01*
X43004893Y-39790000D01*
X42847107Y-39790000D01*
X42692358Y-39759219D01*
X42546586Y-39698838D01*
X42546585Y-39698838D01*
X42546584Y-39698837D01*
X42415392Y-39611178D01*
X42303822Y-39499608D01*
X42216163Y-39368416D01*
X42216162Y-39368414D01*
X42155781Y-39222642D01*
X42125000Y-39067893D01*
X42125000Y-38910107D01*
X42155781Y-38755358D01*
X42216162Y-38609586D01*
X42216163Y-38609584D01*
X42303822Y-38478392D01*
X42415392Y-38366822D01*
X42546584Y-38279163D01*
X42546586Y-38279162D01*
X42692358Y-38218781D01*
X42847107Y-38188000D01*
X43004893Y-38188000D01*
X43159642Y-38218781D01*
G37*
G36*
X45699642Y-38218781D02*
G01*
X45845414Y-38279162D01*
X45845416Y-38279163D01*
X45976608Y-38366822D01*
X46088178Y-38478392D01*
X46175837Y-38609584D01*
X46175838Y-38609586D01*
X46236219Y-38755358D01*
X46267000Y-38910107D01*
X46267000Y-39067893D01*
X46236219Y-39222642D01*
X46175838Y-39368414D01*
X46175837Y-39368416D01*
X46088178Y-39499608D01*
X45976608Y-39611178D01*
X45845416Y-39698837D01*
X45845415Y-39698838D01*
X45845414Y-39698838D01*
X45699642Y-39759219D01*
X45544893Y-39790000D01*
X45387107Y-39790000D01*
X45232358Y-39759219D01*
X45086586Y-39698838D01*
X45086585Y-39698838D01*
X45086584Y-39698837D01*
X44955392Y-39611178D01*
X44843822Y-39499608D01*
X44756163Y-39368416D01*
X44756162Y-39368414D01*
X44695781Y-39222642D01*
X44665000Y-39067893D01*
X44665000Y-38910107D01*
X44695781Y-38755358D01*
X44756162Y-38609586D01*
X44756163Y-38609584D01*
X44843822Y-38478392D01*
X44955392Y-38366822D01*
X45086584Y-38279163D01*
X45086586Y-38279162D01*
X45232358Y-38218781D01*
X45387107Y-38188000D01*
X45544893Y-38188000D01*
X45699642Y-38218781D01*
G37*
G36*
X27919642Y-38218781D02*
G01*
X28065414Y-38279162D01*
X28065416Y-38279163D01*
X28196608Y-38366822D01*
X28308178Y-38478392D01*
X28395837Y-38609584D01*
X28395838Y-38609586D01*
X28456219Y-38755358D01*
X28487000Y-38910107D01*
X28487000Y-39067893D01*
X28456219Y-39222642D01*
X28395838Y-39368414D01*
X28395837Y-39368416D01*
X28308178Y-39499608D01*
X28196608Y-39611178D01*
X28065416Y-39698837D01*
X28065415Y-39698838D01*
X28065414Y-39698838D01*
X27919642Y-39759219D01*
X27764893Y-39790000D01*
X27607107Y-39790000D01*
X27452358Y-39759219D01*
X27306586Y-39698838D01*
X27306585Y-39698838D01*
X27306584Y-39698837D01*
X27175392Y-39611178D01*
X27063822Y-39499608D01*
X26976163Y-39368416D01*
X26976162Y-39368414D01*
X26915781Y-39222642D01*
X26885000Y-39067893D01*
X26885000Y-38910107D01*
X26915781Y-38755358D01*
X26976162Y-38609586D01*
X26976163Y-38609584D01*
X27063822Y-38478392D01*
X27175392Y-38366822D01*
X27306584Y-38279163D01*
X27306586Y-38279162D01*
X27452358Y-38218781D01*
X27607107Y-38188000D01*
X27764893Y-38188000D01*
X27919642Y-38218781D01*
G37*
G36*
X25947000Y-39790000D02*
G01*
X24345000Y-39790000D01*
X24345000Y-38188000D01*
X25947000Y-38188000D01*
X25947000Y-39790000D01*
G37*
G36*
X69383000Y-38278000D02*
G01*
X67757000Y-38278000D01*
X67757000Y-36652000D01*
X69383000Y-36652000D01*
X69383000Y-38278000D01*
G37*
G36*
X61207142Y-36683242D02*
G01*
X61355101Y-36744529D01*
X61488255Y-36833499D01*
X61601501Y-36946745D01*
X61690471Y-37079899D01*
X61751758Y-37227858D01*
X61783000Y-37384925D01*
X61783000Y-37545075D01*
X61751758Y-37702142D01*
X61690471Y-37850101D01*
X61601501Y-37983255D01*
X61488255Y-38096501D01*
X61355101Y-38185471D01*
X61207142Y-38246758D01*
X61050075Y-38278000D01*
X60889925Y-38278000D01*
X60732858Y-38246758D01*
X60584899Y-38185471D01*
X60451745Y-38096501D01*
X60338499Y-37983255D01*
X60249529Y-37850101D01*
X60188242Y-37702142D01*
X60157000Y-37545075D01*
X60157000Y-37384925D01*
X60188242Y-37227858D01*
X60249529Y-37079899D01*
X60338499Y-36946745D01*
X60451745Y-36833499D01*
X60584899Y-36744529D01*
X60732858Y-36683242D01*
X60889925Y-36652000D01*
X61050075Y-36652000D01*
X61207142Y-36683242D01*
G37*
G36*
X81991000Y-36822000D02*
G01*
X80389000Y-36822000D01*
X80389000Y-35720000D01*
X81991000Y-35720000D01*
X81991000Y-36822000D01*
G37*
G36*
X77091000Y-36822000D02*
G01*
X75489000Y-36822000D01*
X75489000Y-35720000D01*
X77091000Y-35720000D01*
X77091000Y-36822000D01*
G37*
G36*
X81991000Y-33622000D02*
G01*
X80389000Y-33622000D01*
X80389000Y-32520000D01*
X81991000Y-32520000D01*
X81991000Y-33622000D01*
G37*
G36*
X77091000Y-33622000D02*
G01*
X75489000Y-33622000D01*
X75489000Y-32520000D01*
X77091000Y-32520000D01*
X77091000Y-33622000D01*
G37*
G36*
X81991000Y-29710000D02*
G01*
X80389000Y-29710000D01*
X80389000Y-28608000D01*
X81991000Y-28608000D01*
X81991000Y-29710000D01*
G37*
G36*
X77091000Y-29710000D02*
G01*
X75489000Y-29710000D01*
X75489000Y-28608000D01*
X77091000Y-28608000D01*
X77091000Y-29710000D01*
G37*
G36*
X81991000Y-26510000D02*
G01*
X80389000Y-26510000D01*
X80389000Y-25408000D01*
X81991000Y-25408000D01*
X81991000Y-26510000D01*
G37*
G36*
X77091000Y-26510000D02*
G01*
X75489000Y-26510000D01*
X75489000Y-25408000D01*
X77091000Y-25408000D01*
X77091000Y-26510000D01*
G37*
G36*
X52731000Y-25811000D02*
G01*
X51079000Y-25811000D01*
X51079000Y-24409000D01*
X52731000Y-24409000D01*
X52731000Y-25811000D01*
G37*
G36*
X60681000Y-25811000D02*
G01*
X59029000Y-25811000D01*
X59029000Y-24409000D01*
X60681000Y-24409000D01*
X60681000Y-25811000D01*
G37*
G36*
X38079642Y-22978781D02*
G01*
X38225414Y-23039162D01*
X38225416Y-23039163D01*
X38356608Y-23126822D01*
X38468178Y-23238392D01*
X38555837Y-23369584D01*
X38555838Y-23369586D01*
X38616219Y-23515358D01*
X38647000Y-23670107D01*
X38647000Y-23827893D01*
X38616219Y-23982642D01*
X38555838Y-24128414D01*
X38555837Y-24128416D01*
X38468178Y-24259608D01*
X38356608Y-24371178D01*
X38225416Y-24458837D01*
X38225415Y-24458838D01*
X38225414Y-24458838D01*
X38079642Y-24519219D01*
X37924893Y-24550000D01*
X37767107Y-24550000D01*
X37612358Y-24519219D01*
X37466586Y-24458838D01*
X37466585Y-24458838D01*
X37466584Y-24458837D01*
X37335392Y-24371178D01*
X37223822Y-24259608D01*
X37136163Y-24128416D01*
X37136162Y-24128414D01*
X37075781Y-23982642D01*
X37045000Y-23827893D01*
X37045000Y-23670107D01*
X37075781Y-23515358D01*
X37136162Y-23369586D01*
X37136163Y-23369584D01*
X37223822Y-23238392D01*
X37335392Y-23126822D01*
X37466584Y-23039163D01*
X37466586Y-23039162D01*
X37612358Y-22978781D01*
X37767107Y-22948000D01*
X37924893Y-22948000D01*
X38079642Y-22978781D01*
G37*
G36*
X45699642Y-22978781D02*
G01*
X45845414Y-23039162D01*
X45845416Y-23039163D01*
X45976608Y-23126822D01*
X46088178Y-23238392D01*
X46175837Y-23369584D01*
X46175838Y-23369586D01*
X46236219Y-23515358D01*
X46267000Y-23670107D01*
X46267000Y-23827893D01*
X46236219Y-23982642D01*
X46175838Y-24128414D01*
X46175837Y-24128416D01*
X46088178Y-24259608D01*
X45976608Y-24371178D01*
X45845416Y-24458837D01*
X45845415Y-24458838D01*
X45845414Y-24458838D01*
X45699642Y-24519219D01*
X45544893Y-24550000D01*
X45387107Y-24550000D01*
X45232358Y-24519219D01*
X45086586Y-24458838D01*
X45086585Y-24458838D01*
X45086584Y-24458837D01*
X44955392Y-24371178D01*
X44843822Y-24259608D01*
X44756163Y-24128416D01*
X44756162Y-24128414D01*
X44695781Y-23982642D01*
X44665000Y-23827893D01*
X44665000Y-23670107D01*
X44695781Y-23515358D01*
X44756162Y-23369586D01*
X44756163Y-23369584D01*
X44843822Y-23238392D01*
X44955392Y-23126822D01*
X45086584Y-23039163D01*
X45086586Y-23039162D01*
X45232358Y-22978781D01*
X45387107Y-22948000D01*
X45544893Y-22948000D01*
X45699642Y-22978781D01*
G37*
G36*
X40619642Y-22978781D02*
G01*
X40765414Y-23039162D01*
X40765416Y-23039163D01*
X40896608Y-23126822D01*
X41008178Y-23238392D01*
X41095837Y-23369584D01*
X41095838Y-23369586D01*
X41156219Y-23515358D01*
X41187000Y-23670107D01*
X41187000Y-23827893D01*
X41156219Y-23982642D01*
X41095838Y-24128414D01*
X41095837Y-24128416D01*
X41008178Y-24259608D01*
X40896608Y-24371178D01*
X40765416Y-24458837D01*
X40765415Y-24458838D01*
X40765414Y-24458838D01*
X40619642Y-24519219D01*
X40464893Y-24550000D01*
X40307107Y-24550000D01*
X40152358Y-24519219D01*
X40006586Y-24458838D01*
X40006585Y-24458838D01*
X40006584Y-24458837D01*
X39875392Y-24371178D01*
X39763822Y-24259608D01*
X39676163Y-24128416D01*
X39676162Y-24128414D01*
X39615781Y-23982642D01*
X39585000Y-23827893D01*
X39585000Y-23670107D01*
X39615781Y-23515358D01*
X39676162Y-23369586D01*
X39676163Y-23369584D01*
X39763822Y-23238392D01*
X39875392Y-23126822D01*
X40006584Y-23039163D01*
X40006586Y-23039162D01*
X40152358Y-22978781D01*
X40307107Y-22948000D01*
X40464893Y-22948000D01*
X40619642Y-22978781D01*
G37*
G36*
X35539642Y-22978781D02*
G01*
X35685414Y-23039162D01*
X35685416Y-23039163D01*
X35816608Y-23126822D01*
X35928178Y-23238392D01*
X36015837Y-23369584D01*
X36015838Y-23369586D01*
X36076219Y-23515358D01*
X36107000Y-23670107D01*
X36107000Y-23827893D01*
X36076219Y-23982642D01*
X36015838Y-24128414D01*
X36015837Y-24128416D01*
X35928178Y-24259608D01*
X35816608Y-24371178D01*
X35685416Y-24458837D01*
X35685415Y-24458838D01*
X35685414Y-24458838D01*
X35539642Y-24519219D01*
X35384893Y-24550000D01*
X35227107Y-24550000D01*
X35072358Y-24519219D01*
X34926586Y-24458838D01*
X34926585Y-24458838D01*
X34926584Y-24458837D01*
X34795392Y-24371178D01*
X34683822Y-24259608D01*
X34596163Y-24128416D01*
X34596162Y-24128414D01*
X34535781Y-23982642D01*
X34505000Y-23827893D01*
X34505000Y-23670107D01*
X34535781Y-23515358D01*
X34596162Y-23369586D01*
X34596163Y-23369584D01*
X34683822Y-23238392D01*
X34795392Y-23126822D01*
X34926584Y-23039163D01*
X34926586Y-23039162D01*
X35072358Y-22978781D01*
X35227107Y-22948000D01*
X35384893Y-22948000D01*
X35539642Y-22978781D01*
G37*
G36*
X32999642Y-22978781D02*
G01*
X33145414Y-23039162D01*
X33145416Y-23039163D01*
X33276608Y-23126822D01*
X33388178Y-23238392D01*
X33475837Y-23369584D01*
X33475838Y-23369586D01*
X33536219Y-23515358D01*
X33567000Y-23670107D01*
X33567000Y-23827893D01*
X33536219Y-23982642D01*
X33475838Y-24128414D01*
X33475837Y-24128416D01*
X33388178Y-24259608D01*
X33276608Y-24371178D01*
X33145416Y-24458837D01*
X33145415Y-24458838D01*
X33145414Y-24458838D01*
X32999642Y-24519219D01*
X32844893Y-24550000D01*
X32687107Y-24550000D01*
X32532358Y-24519219D01*
X32386586Y-24458838D01*
X32386585Y-24458838D01*
X32386584Y-24458837D01*
X32255392Y-24371178D01*
X32143822Y-24259608D01*
X32056163Y-24128416D01*
X32056162Y-24128414D01*
X31995781Y-23982642D01*
X31965000Y-23827893D01*
X31965000Y-23670107D01*
X31995781Y-23515358D01*
X32056162Y-23369586D01*
X32056163Y-23369584D01*
X32143822Y-23238392D01*
X32255392Y-23126822D01*
X32386584Y-23039163D01*
X32386586Y-23039162D01*
X32532358Y-22978781D01*
X32687107Y-22948000D01*
X32844893Y-22948000D01*
X32999642Y-22978781D01*
G37*
G36*
X30459642Y-22978781D02*
G01*
X30605414Y-23039162D01*
X30605416Y-23039163D01*
X30736608Y-23126822D01*
X30848178Y-23238392D01*
X30935837Y-23369584D01*
X30935838Y-23369586D01*
X30996219Y-23515358D01*
X31027000Y-23670107D01*
X31027000Y-23827893D01*
X30996219Y-23982642D01*
X30935838Y-24128414D01*
X30935837Y-24128416D01*
X30848178Y-24259608D01*
X30736608Y-24371178D01*
X30605416Y-24458837D01*
X30605415Y-24458838D01*
X30605414Y-24458838D01*
X30459642Y-24519219D01*
X30304893Y-24550000D01*
X30147107Y-24550000D01*
X29992358Y-24519219D01*
X29846586Y-24458838D01*
X29846585Y-24458838D01*
X29846584Y-24458837D01*
X29715392Y-24371178D01*
X29603822Y-24259608D01*
X29516163Y-24128416D01*
X29516162Y-24128414D01*
X29455781Y-23982642D01*
X29425000Y-23827893D01*
X29425000Y-23670107D01*
X29455781Y-23515358D01*
X29516162Y-23369586D01*
X29516163Y-23369584D01*
X29603822Y-23238392D01*
X29715392Y-23126822D01*
X29846584Y-23039163D01*
X29846586Y-23039162D01*
X29992358Y-22978781D01*
X30147107Y-22948000D01*
X30304893Y-22948000D01*
X30459642Y-22978781D01*
G37*
G36*
X27919642Y-22978781D02*
G01*
X28065414Y-23039162D01*
X28065416Y-23039163D01*
X28196608Y-23126822D01*
X28308178Y-23238392D01*
X28395837Y-23369584D01*
X28395838Y-23369586D01*
X28456219Y-23515358D01*
X28487000Y-23670107D01*
X28487000Y-23827893D01*
X28456219Y-23982642D01*
X28395838Y-24128414D01*
X28395837Y-24128416D01*
X28308178Y-24259608D01*
X28196608Y-24371178D01*
X28065416Y-24458837D01*
X28065415Y-24458838D01*
X28065414Y-24458838D01*
X27919642Y-24519219D01*
X27764893Y-24550000D01*
X27607107Y-24550000D01*
X27452358Y-24519219D01*
X27306586Y-24458838D01*
X27306585Y-24458838D01*
X27306584Y-24458837D01*
X27175392Y-24371178D01*
X27063822Y-24259608D01*
X26976163Y-24128416D01*
X26976162Y-24128414D01*
X26915781Y-23982642D01*
X26885000Y-23827893D01*
X26885000Y-23670107D01*
X26915781Y-23515358D01*
X26976162Y-23369586D01*
X26976163Y-23369584D01*
X27063822Y-23238392D01*
X27175392Y-23126822D01*
X27306584Y-23039163D01*
X27306586Y-23039162D01*
X27452358Y-22978781D01*
X27607107Y-22948000D01*
X27764893Y-22948000D01*
X27919642Y-22978781D01*
G37*
G36*
X25379642Y-22978781D02*
G01*
X25525414Y-23039162D01*
X25525416Y-23039163D01*
X25656608Y-23126822D01*
X25768178Y-23238392D01*
X25855837Y-23369584D01*
X25855838Y-23369586D01*
X25916219Y-23515358D01*
X25947000Y-23670107D01*
X25947000Y-23827893D01*
X25916219Y-23982642D01*
X25855838Y-24128414D01*
X25855837Y-24128416D01*
X25768178Y-24259608D01*
X25656608Y-24371178D01*
X25525416Y-24458837D01*
X25525415Y-24458838D01*
X25525414Y-24458838D01*
X25379642Y-24519219D01*
X25224893Y-24550000D01*
X25067107Y-24550000D01*
X24912358Y-24519219D01*
X24766586Y-24458838D01*
X24766585Y-24458838D01*
X24766584Y-24458837D01*
X24635392Y-24371178D01*
X24523822Y-24259608D01*
X24436163Y-24128416D01*
X24436162Y-24128414D01*
X24375781Y-23982642D01*
X24345000Y-23827893D01*
X24345000Y-23670107D01*
X24375781Y-23515358D01*
X24436162Y-23369586D01*
X24436163Y-23369584D01*
X24523822Y-23238392D01*
X24635392Y-23126822D01*
X24766584Y-23039163D01*
X24766586Y-23039162D01*
X24912358Y-22978781D01*
X25067107Y-22948000D01*
X25224893Y-22948000D01*
X25379642Y-22978781D01*
G37*
G36*
X43159642Y-22978781D02*
G01*
X43305414Y-23039162D01*
X43305416Y-23039163D01*
X43436608Y-23126822D01*
X43548178Y-23238392D01*
X43635837Y-23369584D01*
X43635838Y-23369586D01*
X43696219Y-23515358D01*
X43727000Y-23670107D01*
X43727000Y-23827893D01*
X43696219Y-23982642D01*
X43635838Y-24128414D01*
X43635837Y-24128416D01*
X43548178Y-24259608D01*
X43436608Y-24371178D01*
X43305416Y-24458837D01*
X43305415Y-24458838D01*
X43305414Y-24458838D01*
X43159642Y-24519219D01*
X43004893Y-24550000D01*
X42847107Y-24550000D01*
X42692358Y-24519219D01*
X42546586Y-24458838D01*
X42546585Y-24458838D01*
X42546584Y-24458837D01*
X42415392Y-24371178D01*
X42303822Y-24259608D01*
X42216163Y-24128416D01*
X42216162Y-24128414D01*
X42155781Y-23982642D01*
X42125000Y-23827893D01*
X42125000Y-23670107D01*
X42155781Y-23515358D01*
X42216162Y-23369586D01*
X42216163Y-23369584D01*
X42303822Y-23238392D01*
X42415392Y-23126822D01*
X42546584Y-23039163D01*
X42546586Y-23039162D01*
X42692358Y-22978781D01*
X42847107Y-22948000D01*
X43004893Y-22948000D01*
X43159642Y-22978781D01*
G37*
G36*
X52731000Y-21311000D02*
G01*
X51079000Y-21311000D01*
X51079000Y-19909000D01*
X52731000Y-19909000D01*
X52731000Y-21311000D01*
G37*
G36*
X60681000Y-21311000D02*
G01*
X59029000Y-21311000D01*
X59029000Y-19909000D01*
X60681000Y-19909000D01*
X60681000Y-21311000D01*
G37*
G36*
X75137142Y-19538242D02*
G01*
X75285101Y-19599529D01*
X75418255Y-19688499D01*
X75531501Y-19801745D01*
X75620471Y-19934899D01*
X75681758Y-20082858D01*
X75713000Y-20239925D01*
X75713000Y-20400075D01*
X75681758Y-20557142D01*
X75620471Y-20705101D01*
X75531501Y-20838255D01*
X75418255Y-20951501D01*
X75285101Y-21040471D01*
X75137142Y-21101758D01*
X74980075Y-21133000D01*
X74819925Y-21133000D01*
X74662858Y-21101758D01*
X74514899Y-21040471D01*
X74381745Y-20951501D01*
X74268499Y-20838255D01*
X74179529Y-20705101D01*
X74118242Y-20557142D01*
X74087000Y-20400075D01*
X74087000Y-20239925D01*
X74118242Y-20082858D01*
X74179529Y-19934899D01*
X74268499Y-19801745D01*
X74381745Y-19688499D01*
X74514899Y-19599529D01*
X74662858Y-19538242D01*
X74819925Y-19507000D01*
X74980075Y-19507000D01*
X75137142Y-19538242D01*
G37*
G36*
X72597142Y-19538242D02*
G01*
X72745101Y-19599529D01*
X72878255Y-19688499D01*
X72991501Y-19801745D01*
X73080471Y-19934899D01*
X73141758Y-20082858D01*
X73173000Y-20239925D01*
X73173000Y-20400075D01*
X73141758Y-20557142D01*
X73080471Y-20705101D01*
X72991501Y-20838255D01*
X72878255Y-20951501D01*
X72745101Y-21040471D01*
X72597142Y-21101758D01*
X72440075Y-21133000D01*
X72279925Y-21133000D01*
X72122858Y-21101758D01*
X71974899Y-21040471D01*
X71841745Y-20951501D01*
X71728499Y-20838255D01*
X71639529Y-20705101D01*
X71578242Y-20557142D01*
X71547000Y-20400075D01*
X71547000Y-20239925D01*
X71578242Y-20082858D01*
X71639529Y-19934899D01*
X71728499Y-19801745D01*
X71841745Y-19688499D01*
X71974899Y-19599529D01*
X72122858Y-19538242D01*
X72279925Y-19507000D01*
X72440075Y-19507000D01*
X72597142Y-19538242D01*
G37*
G36*
X70057142Y-19538242D02*
G01*
X70205101Y-19599529D01*
X70338255Y-19688499D01*
X70451501Y-19801745D01*
X70540471Y-19934899D01*
X70601758Y-20082858D01*
X70633000Y-20239925D01*
X70633000Y-20400075D01*
X70601758Y-20557142D01*
X70540471Y-20705101D01*
X70451501Y-20838255D01*
X70338255Y-20951501D01*
X70205101Y-21040471D01*
X70057142Y-21101758D01*
X69900075Y-21133000D01*
X69739925Y-21133000D01*
X69582858Y-21101758D01*
X69434899Y-21040471D01*
X69301745Y-20951501D01*
X69188499Y-20838255D01*
X69099529Y-20705101D01*
X69038242Y-20557142D01*
X69007000Y-20400075D01*
X69007000Y-20239925D01*
X69038242Y-20082858D01*
X69099529Y-19934899D01*
X69188499Y-19801745D01*
X69301745Y-19688499D01*
X69434899Y-19599529D01*
X69582858Y-19538242D01*
X69739925Y-19507000D01*
X69900075Y-19507000D01*
X70057142Y-19538242D01*
G37*
G36*
X68093000Y-21133000D02*
G01*
X66467000Y-21133000D01*
X66467000Y-19507000D01*
X68093000Y-19507000D01*
X68093000Y-21133000D01*
G37*
M02*
