G04 #@! TF.GenerationSoftware,KiCad,Pcbnew,(5.1.5)-3*
G04 #@! TF.CreationDate,2020-04-28T22:27:17+02:00*
G04 #@! TF.ProjectId,czujnikParkowania,637a756a-6e69-46b5-9061-726b6f77616e,rev?*
G04 #@! TF.SameCoordinates,Original*
G04 #@! TF.FileFunction,Copper,L2,Bot*
G04 #@! TF.FilePolarity,Positive*
%FSLAX46Y46*%
G04 Gerber Fmt 4.6, Leading zero omitted, Abs format (unit mm)*
G04 Created by KiCad (PCBNEW (5.1.5)-3) date 2020-04-28 22:27:17*
%MOMM*%
%LPD*%
G04 APERTURE LIST*
%ADD10C,1.524000*%
%ADD11R,1.524000X1.524000*%
%ADD12R,1.600000X1.600000*%
%ADD13O,1.600000X1.600000*%
%ADD14C,1.600000*%
%ADD15R,2.200000X2.200000*%
%ADD16O,2.200000X2.200000*%
%ADD17R,2.600000X2.600000*%
%ADD18C,2.600000*%
%ADD19R,1.500000X1.500000*%
%ADD20C,1.500000*%
%ADD21R,1.905000X2.000000*%
%ADD22O,1.905000X2.000000*%
%ADD23C,0.800000*%
%ADD24C,0.250000*%
%ADD25C,0.254000*%
G04 APERTURE END LIST*
D10*
X58430000Y-35433000D03*
D11*
X66030000Y-35433000D03*
D12*
X62166500Y-47307500D03*
D13*
X29146500Y-62547500D03*
X59626500Y-47307500D03*
X31686500Y-62547500D03*
X57086500Y-47307500D03*
X34226500Y-62547500D03*
X54546500Y-47307500D03*
X36766500Y-62547500D03*
X52006500Y-47307500D03*
X39306500Y-62547500D03*
X49466500Y-47307500D03*
X41846500Y-62547500D03*
X46926500Y-47307500D03*
X44386500Y-62547500D03*
X44386500Y-47307500D03*
X46926500Y-62547500D03*
X41846500Y-47307500D03*
X49466500Y-62547500D03*
X39306500Y-47307500D03*
X52006500Y-62547500D03*
X36766500Y-47307500D03*
X54546500Y-62547500D03*
X34226500Y-47307500D03*
X57086500Y-62547500D03*
X31686500Y-47307500D03*
X59626500Y-62547500D03*
X29146500Y-47307500D03*
X62166500Y-62547500D03*
X26606500Y-47307500D03*
X26606500Y-62547500D03*
D12*
X59436000Y-75819000D03*
D14*
X59436000Y-77819000D03*
D12*
X72898000Y-75946000D03*
D14*
X72898000Y-78446000D03*
D15*
X50546000Y-82423000D03*
D16*
X40386000Y-82423000D03*
D14*
X40386000Y-78359000D03*
D13*
X35306000Y-78359000D03*
D17*
X26289000Y-81026000D03*
D18*
X26289000Y-75946000D03*
X26289000Y-70866000D03*
D19*
X22606000Y-36957000D03*
D20*
X25146000Y-36957000D03*
X27686000Y-36957000D03*
X30226000Y-36957000D03*
X32766000Y-36957000D03*
X35306000Y-36957000D03*
X37846000Y-36957000D03*
X40386000Y-36957000D03*
X42926000Y-36957000D03*
X42926000Y-21717000D03*
X40386000Y-21717000D03*
X37846000Y-21717000D03*
X35306000Y-21717000D03*
X32766000Y-21717000D03*
X30226000Y-21717000D03*
X27686000Y-21717000D03*
X25146000Y-21717000D03*
X22606000Y-21717000D03*
D21*
X60706000Y-70231000D03*
D22*
X63246000Y-70231000D03*
X65786000Y-70231000D03*
D10*
X57755000Y-19050000D03*
X60295000Y-19050000D03*
X62835000Y-19050000D03*
D11*
X55215000Y-19050000D03*
D23*
X66548000Y-56515000D03*
X70612000Y-56515000D03*
X54610000Y-60071000D03*
X54610000Y-56515000D03*
X40640000Y-30988000D03*
X35560000Y-29464000D03*
X31496000Y-27940000D03*
X72136000Y-36068000D03*
X72136000Y-41656000D03*
X42164000Y-59944000D03*
X47244000Y-59944000D03*
X56896000Y-56896000D03*
X58420000Y-56896000D03*
X47752000Y-74676000D03*
X47752000Y-75692000D03*
X27432000Y-34544000D03*
X22352000Y-35052000D03*
X32004000Y-55245000D03*
X35306000Y-55499000D03*
X33782000Y-23241000D03*
X37338000Y-50165000D03*
X23114000Y-42037000D03*
X20828000Y-42037000D03*
X30480000Y-25781000D03*
X39116000Y-25781000D03*
X42926000Y-29845000D03*
X31496000Y-24257000D03*
X41656000Y-24257000D03*
X38862000Y-34163000D03*
X36068000Y-34163000D03*
X37084000Y-38989000D03*
X34290000Y-35433000D03*
X31242000Y-32893000D03*
X33782000Y-39243000D03*
X38100000Y-39751000D03*
X38862000Y-35433000D03*
X38354000Y-41021000D03*
X33020000Y-31115000D03*
X29718000Y-30099000D03*
X73152000Y-63500000D03*
D24*
X66548000Y-56515000D02*
X70612000Y-56515000D01*
X54610000Y-60071000D02*
X54610000Y-56515000D01*
X60295000Y-19050000D02*
X48357000Y-30988000D01*
X48357000Y-30988000D02*
X48357000Y-38511000D01*
X48357000Y-38511000D02*
X42545000Y-44323000D01*
X42545000Y-44323000D02*
X34925000Y-44323000D01*
X34226500Y-45021500D02*
X34226500Y-47307500D01*
X34925000Y-44323000D02*
X34226500Y-45021500D01*
X57755000Y-20127630D02*
X47625000Y-30257630D01*
X57755000Y-19050000D02*
X57755000Y-20127630D01*
X47625000Y-30257630D02*
X47625000Y-37973000D01*
X47625000Y-37973000D02*
X41910000Y-43688000D01*
X41910000Y-43688000D02*
X33020000Y-43688000D01*
X31686500Y-45021500D02*
X31686500Y-47307500D01*
X33020000Y-43688000D02*
X31686500Y-45021500D01*
X32004000Y-55245000D02*
X35052000Y-55245000D01*
X35052000Y-55245000D02*
X35306000Y-55499000D01*
X33382001Y-22841001D02*
X31387999Y-22841001D01*
X33782000Y-23241000D02*
X33382001Y-22841001D01*
X30561499Y-47847501D02*
X32624998Y-49911000D01*
X30561499Y-47057497D02*
X30561499Y-47847501D01*
X31387999Y-22841001D02*
X23839001Y-30389999D01*
X23839001Y-40334999D02*
X30561499Y-47057497D01*
X23839001Y-30389999D02*
X23839001Y-40334999D01*
X32624998Y-49911000D02*
X37084000Y-49911000D01*
X37084000Y-49911000D02*
X37338000Y-50165000D01*
X23114000Y-42037000D02*
X20828000Y-42037000D01*
X30480000Y-25781000D02*
X39116000Y-25781000D01*
X42926000Y-29845000D02*
X42926000Y-21717000D01*
X31496000Y-24257000D02*
X41656000Y-24257000D01*
X38862000Y-34163000D02*
X36068000Y-34163000D01*
X37084000Y-38989000D02*
X36576000Y-38481000D01*
X36576000Y-38227000D02*
X35306000Y-36957000D01*
X36576000Y-38481000D02*
X36576000Y-38227000D01*
X34290000Y-35433000D02*
X31750000Y-32893000D01*
X31750000Y-32893000D02*
X31242000Y-32893000D01*
X33782000Y-39243000D02*
X34290000Y-39751000D01*
X34290000Y-39751000D02*
X38100000Y-39751000D01*
X39261999Y-40113001D02*
X38354000Y-41021000D01*
X38862000Y-35433000D02*
X39261999Y-35832999D01*
X39261999Y-35832999D02*
X39261999Y-40113001D01*
X33020000Y-31115000D02*
X30734000Y-31115000D01*
X30734000Y-31115000D02*
X29718000Y-30099000D01*
X73152000Y-63500000D02*
X73152000Y-61722000D01*
X73152000Y-61722000D02*
X70358000Y-58928000D01*
X70358000Y-58928000D02*
X65786000Y-58928000D01*
X62166500Y-55308500D02*
X62166500Y-47307500D01*
X65786000Y-58928000D02*
X62166500Y-55308500D01*
D25*
G36*
X54001815Y-17836815D02*
G01*
X53922463Y-17933506D01*
X53863498Y-18043820D01*
X53827188Y-18163518D01*
X53814928Y-18288000D01*
X53814928Y-19812000D01*
X53827188Y-19936482D01*
X53863498Y-20056180D01*
X53922463Y-20166494D01*
X54001815Y-20263185D01*
X54098506Y-20342537D01*
X54208820Y-20401502D01*
X54328518Y-20437812D01*
X54453000Y-20450072D01*
X55977000Y-20450072D01*
X56101482Y-20437812D01*
X56221180Y-20401502D01*
X56331494Y-20342537D01*
X56428185Y-20263185D01*
X56507537Y-20166494D01*
X56566502Y-20056180D01*
X56602812Y-19936482D01*
X56611080Y-19852535D01*
X56669880Y-19940535D01*
X56768586Y-20039241D01*
X47114003Y-29693826D01*
X47084999Y-29717629D01*
X47029871Y-29784804D01*
X46990026Y-29833354D01*
X46981130Y-29849998D01*
X46919454Y-29965384D01*
X46875997Y-30108645D01*
X46865000Y-30220298D01*
X46865000Y-30220308D01*
X46861324Y-30257630D01*
X46865000Y-30294952D01*
X46865001Y-37658197D01*
X41595199Y-42928000D01*
X33057325Y-42928000D01*
X33020000Y-42924324D01*
X32982675Y-42928000D01*
X32982667Y-42928000D01*
X32871014Y-42938997D01*
X32727753Y-42982454D01*
X32595724Y-43053026D01*
X32479999Y-43147999D01*
X32456201Y-43176997D01*
X31175503Y-44457696D01*
X31146499Y-44481499D01*
X31091371Y-44548674D01*
X31051526Y-44597224D01*
X30980955Y-44729253D01*
X30980954Y-44729254D01*
X30937497Y-44872515D01*
X30926500Y-44984168D01*
X30926500Y-44984178D01*
X30922824Y-45021500D01*
X30926500Y-45058823D01*
X30926500Y-46089456D01*
X30771741Y-46192863D01*
X30771704Y-46192900D01*
X24599001Y-40020198D01*
X24599001Y-38229538D01*
X24742011Y-38288775D01*
X25009589Y-38342000D01*
X25282411Y-38342000D01*
X25549989Y-38288775D01*
X25802043Y-38184371D01*
X26028886Y-38032799D01*
X26221799Y-37839886D01*
X26373371Y-37613043D01*
X26416000Y-37510127D01*
X26458629Y-37613043D01*
X26610201Y-37839886D01*
X26803114Y-38032799D01*
X27029957Y-38184371D01*
X27282011Y-38288775D01*
X27549589Y-38342000D01*
X27822411Y-38342000D01*
X28089989Y-38288775D01*
X28342043Y-38184371D01*
X28568886Y-38032799D01*
X28761799Y-37839886D01*
X28913371Y-37613043D01*
X28956000Y-37510127D01*
X28998629Y-37613043D01*
X29150201Y-37839886D01*
X29343114Y-38032799D01*
X29569957Y-38184371D01*
X29822011Y-38288775D01*
X30089589Y-38342000D01*
X30362411Y-38342000D01*
X30629989Y-38288775D01*
X30882043Y-38184371D01*
X31108886Y-38032799D01*
X31301799Y-37839886D01*
X31453371Y-37613043D01*
X31496000Y-37510127D01*
X31538629Y-37613043D01*
X31690201Y-37839886D01*
X31883114Y-38032799D01*
X32109957Y-38184371D01*
X32362011Y-38288775D01*
X32629589Y-38342000D01*
X32902411Y-38342000D01*
X33169989Y-38288775D01*
X33422043Y-38184371D01*
X33648886Y-38032799D01*
X33841799Y-37839886D01*
X33993371Y-37613043D01*
X34036000Y-37510127D01*
X34078629Y-37613043D01*
X34230201Y-37839886D01*
X34423114Y-38032799D01*
X34649957Y-38184371D01*
X34902011Y-38288775D01*
X35169589Y-38342000D01*
X35442411Y-38342000D01*
X35587365Y-38313167D01*
X35818564Y-38544366D01*
X35826997Y-38629985D01*
X35853089Y-38716000D01*
X35870454Y-38773246D01*
X35941026Y-38905276D01*
X35970428Y-38941102D01*
X36011378Y-38991000D01*
X34787151Y-38991000D01*
X34777226Y-38941102D01*
X34699205Y-38752744D01*
X34585937Y-38583226D01*
X34441774Y-38439063D01*
X34272256Y-38325795D01*
X34083898Y-38247774D01*
X33883939Y-38208000D01*
X33680061Y-38208000D01*
X33480102Y-38247774D01*
X33291744Y-38325795D01*
X33122226Y-38439063D01*
X32978063Y-38583226D01*
X32864795Y-38752744D01*
X32786774Y-38941102D01*
X32747000Y-39141061D01*
X32747000Y-39344939D01*
X32786774Y-39544898D01*
X32864795Y-39733256D01*
X32978063Y-39902774D01*
X33122226Y-40046937D01*
X33291744Y-40160205D01*
X33480102Y-40238226D01*
X33680061Y-40278000D01*
X33739329Y-40278000D01*
X33749999Y-40291001D01*
X33865724Y-40385974D01*
X33997753Y-40456546D01*
X34141014Y-40500003D01*
X34252667Y-40511000D01*
X34252676Y-40511000D01*
X34289999Y-40514676D01*
X34327322Y-40511000D01*
X37396289Y-40511000D01*
X37430714Y-40545425D01*
X37358774Y-40719102D01*
X37319000Y-40919061D01*
X37319000Y-41122939D01*
X37358774Y-41322898D01*
X37436795Y-41511256D01*
X37550063Y-41680774D01*
X37694226Y-41824937D01*
X37863744Y-41938205D01*
X38052102Y-42016226D01*
X38252061Y-42056000D01*
X38455939Y-42056000D01*
X38655898Y-42016226D01*
X38844256Y-41938205D01*
X39013774Y-41824937D01*
X39157937Y-41680774D01*
X39271205Y-41511256D01*
X39349226Y-41322898D01*
X39389000Y-41122939D01*
X39389000Y-41060802D01*
X39773002Y-40676800D01*
X39802000Y-40653002D01*
X39896973Y-40537277D01*
X39967545Y-40405248D01*
X40011002Y-40261987D01*
X40021999Y-40150334D01*
X40025676Y-40113001D01*
X40021999Y-40075668D01*
X40021999Y-38296729D01*
X40249589Y-38342000D01*
X40522411Y-38342000D01*
X40789989Y-38288775D01*
X41042043Y-38184371D01*
X41268886Y-38032799D01*
X41461799Y-37839886D01*
X41613371Y-37613043D01*
X41656000Y-37510127D01*
X41698629Y-37613043D01*
X41850201Y-37839886D01*
X42043114Y-38032799D01*
X42269957Y-38184371D01*
X42522011Y-38288775D01*
X42789589Y-38342000D01*
X43062411Y-38342000D01*
X43329989Y-38288775D01*
X43582043Y-38184371D01*
X43808886Y-38032799D01*
X44001799Y-37839886D01*
X44153371Y-37613043D01*
X44257775Y-37360989D01*
X44311000Y-37093411D01*
X44311000Y-36820589D01*
X44257775Y-36553011D01*
X44153371Y-36300957D01*
X44001799Y-36074114D01*
X43808886Y-35881201D01*
X43582043Y-35729629D01*
X43329989Y-35625225D01*
X43062411Y-35572000D01*
X42789589Y-35572000D01*
X42522011Y-35625225D01*
X42269957Y-35729629D01*
X42043114Y-35881201D01*
X41850201Y-36074114D01*
X41698629Y-36300957D01*
X41656000Y-36403873D01*
X41613371Y-36300957D01*
X41461799Y-36074114D01*
X41268886Y-35881201D01*
X41042043Y-35729629D01*
X40789989Y-35625225D01*
X40522411Y-35572000D01*
X40249589Y-35572000D01*
X39992534Y-35623132D01*
X39967545Y-35540752D01*
X39897000Y-35408774D01*
X39897000Y-35331061D01*
X39857226Y-35131102D01*
X39779205Y-34942744D01*
X39682490Y-34798000D01*
X39779205Y-34653256D01*
X39857226Y-34464898D01*
X39897000Y-34264939D01*
X39897000Y-34061061D01*
X39857226Y-33861102D01*
X39779205Y-33672744D01*
X39665937Y-33503226D01*
X39521774Y-33359063D01*
X39352256Y-33245795D01*
X39163898Y-33167774D01*
X38963939Y-33128000D01*
X38760061Y-33128000D01*
X38560102Y-33167774D01*
X38371744Y-33245795D01*
X38202226Y-33359063D01*
X38158289Y-33403000D01*
X36771711Y-33403000D01*
X36727774Y-33359063D01*
X36558256Y-33245795D01*
X36369898Y-33167774D01*
X36169939Y-33128000D01*
X35966061Y-33128000D01*
X35766102Y-33167774D01*
X35577744Y-33245795D01*
X35408226Y-33359063D01*
X35264063Y-33503226D01*
X35150795Y-33672744D01*
X35072774Y-33861102D01*
X35033000Y-34061061D01*
X35033000Y-34264939D01*
X35072774Y-34464898D01*
X35150795Y-34653256D01*
X35264063Y-34822774D01*
X35408226Y-34966937D01*
X35577744Y-35080205D01*
X35766102Y-35158226D01*
X35966061Y-35198000D01*
X36169939Y-35198000D01*
X36369898Y-35158226D01*
X36558256Y-35080205D01*
X36727774Y-34966937D01*
X36771711Y-34923000D01*
X37957987Y-34923000D01*
X37944795Y-34942744D01*
X37866774Y-35131102D01*
X37827000Y-35331061D01*
X37827000Y-35534939D01*
X37834372Y-35572000D01*
X37709589Y-35572000D01*
X37442011Y-35625225D01*
X37189957Y-35729629D01*
X36963114Y-35881201D01*
X36770201Y-36074114D01*
X36618629Y-36300957D01*
X36576000Y-36403873D01*
X36533371Y-36300957D01*
X36381799Y-36074114D01*
X36188886Y-35881201D01*
X35962043Y-35729629D01*
X35709989Y-35625225D01*
X35442411Y-35572000D01*
X35317628Y-35572000D01*
X35325000Y-35534939D01*
X35325000Y-35331061D01*
X35285226Y-35131102D01*
X35207205Y-34942744D01*
X35093937Y-34773226D01*
X34949774Y-34629063D01*
X34780256Y-34515795D01*
X34591898Y-34437774D01*
X34391939Y-34398000D01*
X34329803Y-34398000D01*
X32313804Y-32382003D01*
X32290001Y-32352999D01*
X32174276Y-32258026D01*
X32042247Y-32187454D01*
X31981842Y-32169131D01*
X31901774Y-32089063D01*
X31732256Y-31975795D01*
X31543898Y-31897774D01*
X31429404Y-31875000D01*
X32316289Y-31875000D01*
X32360226Y-31918937D01*
X32529744Y-32032205D01*
X32718102Y-32110226D01*
X32918061Y-32150000D01*
X33121939Y-32150000D01*
X33321898Y-32110226D01*
X33510256Y-32032205D01*
X33679774Y-31918937D01*
X33823937Y-31774774D01*
X33937205Y-31605256D01*
X34015226Y-31416898D01*
X34055000Y-31216939D01*
X34055000Y-31013061D01*
X34015226Y-30813102D01*
X33937205Y-30624744D01*
X33823937Y-30455226D01*
X33679774Y-30311063D01*
X33510256Y-30197795D01*
X33321898Y-30119774D01*
X33121939Y-30080000D01*
X32918061Y-30080000D01*
X32718102Y-30119774D01*
X32529744Y-30197795D01*
X32360226Y-30311063D01*
X32316289Y-30355000D01*
X31048802Y-30355000D01*
X30753000Y-30059199D01*
X30753000Y-29997061D01*
X30713226Y-29797102D01*
X30635205Y-29608744D01*
X30521937Y-29439226D01*
X30377774Y-29295063D01*
X30208256Y-29181795D01*
X30019898Y-29103774D01*
X29819939Y-29064000D01*
X29616061Y-29064000D01*
X29416102Y-29103774D01*
X29227744Y-29181795D01*
X29058226Y-29295063D01*
X28914063Y-29439226D01*
X28800795Y-29608744D01*
X28722774Y-29797102D01*
X28683000Y-29997061D01*
X28683000Y-30200939D01*
X28722774Y-30400898D01*
X28800795Y-30589256D01*
X28914063Y-30758774D01*
X29058226Y-30902937D01*
X29227744Y-31016205D01*
X29416102Y-31094226D01*
X29616061Y-31134000D01*
X29678199Y-31134000D01*
X30170201Y-31626003D01*
X30193999Y-31655001D01*
X30222997Y-31678799D01*
X30309723Y-31749974D01*
X30441753Y-31820546D01*
X30585014Y-31864003D01*
X30696667Y-31875000D01*
X30696677Y-31875000D01*
X30734000Y-31878676D01*
X30771322Y-31875000D01*
X31054596Y-31875000D01*
X30940102Y-31897774D01*
X30751744Y-31975795D01*
X30582226Y-32089063D01*
X30438063Y-32233226D01*
X30324795Y-32402744D01*
X30246774Y-32591102D01*
X30207000Y-32791061D01*
X30207000Y-32994939D01*
X30246774Y-33194898D01*
X30324795Y-33383256D01*
X30438063Y-33552774D01*
X30582226Y-33696937D01*
X30751744Y-33810205D01*
X30940102Y-33888226D01*
X31140061Y-33928000D01*
X31343939Y-33928000D01*
X31543898Y-33888226D01*
X31633366Y-33851167D01*
X33255000Y-35472803D01*
X33255000Y-35534939D01*
X33282204Y-35671706D01*
X33169989Y-35625225D01*
X32902411Y-35572000D01*
X32629589Y-35572000D01*
X32362011Y-35625225D01*
X32109957Y-35729629D01*
X31883114Y-35881201D01*
X31690201Y-36074114D01*
X31538629Y-36300957D01*
X31496000Y-36403873D01*
X31453371Y-36300957D01*
X31301799Y-36074114D01*
X31108886Y-35881201D01*
X30882043Y-35729629D01*
X30629989Y-35625225D01*
X30362411Y-35572000D01*
X30089589Y-35572000D01*
X29822011Y-35625225D01*
X29569957Y-35729629D01*
X29343114Y-35881201D01*
X29150201Y-36074114D01*
X28998629Y-36300957D01*
X28956000Y-36403873D01*
X28913371Y-36300957D01*
X28761799Y-36074114D01*
X28568886Y-35881201D01*
X28342043Y-35729629D01*
X28089989Y-35625225D01*
X27822411Y-35572000D01*
X27549589Y-35572000D01*
X27282011Y-35625225D01*
X27029957Y-35729629D01*
X26803114Y-35881201D01*
X26610201Y-36074114D01*
X26458629Y-36300957D01*
X26416000Y-36403873D01*
X26373371Y-36300957D01*
X26221799Y-36074114D01*
X26028886Y-35881201D01*
X25802043Y-35729629D01*
X25549989Y-35625225D01*
X25282411Y-35572000D01*
X25009589Y-35572000D01*
X24742011Y-35625225D01*
X24599001Y-35684462D01*
X24599001Y-30704800D01*
X29445000Y-25858802D01*
X29445000Y-25882939D01*
X29484774Y-26082898D01*
X29562795Y-26271256D01*
X29676063Y-26440774D01*
X29820226Y-26584937D01*
X29989744Y-26698205D01*
X30178102Y-26776226D01*
X30378061Y-26816000D01*
X30581939Y-26816000D01*
X30781898Y-26776226D01*
X30970256Y-26698205D01*
X31139774Y-26584937D01*
X31183711Y-26541000D01*
X38412289Y-26541000D01*
X38456226Y-26584937D01*
X38625744Y-26698205D01*
X38814102Y-26776226D01*
X39014061Y-26816000D01*
X39217939Y-26816000D01*
X39417898Y-26776226D01*
X39606256Y-26698205D01*
X39775774Y-26584937D01*
X39919937Y-26440774D01*
X40033205Y-26271256D01*
X40111226Y-26082898D01*
X40151000Y-25882939D01*
X40151000Y-25679061D01*
X40111226Y-25479102D01*
X40033205Y-25290744D01*
X39919937Y-25121226D01*
X39815711Y-25017000D01*
X40952289Y-25017000D01*
X40996226Y-25060937D01*
X41165744Y-25174205D01*
X41354102Y-25252226D01*
X41554061Y-25292000D01*
X41757939Y-25292000D01*
X41957898Y-25252226D01*
X42146256Y-25174205D01*
X42166001Y-25161012D01*
X42166000Y-29141289D01*
X42122063Y-29185226D01*
X42008795Y-29354744D01*
X41930774Y-29543102D01*
X41891000Y-29743061D01*
X41891000Y-29946939D01*
X41930774Y-30146898D01*
X42008795Y-30335256D01*
X42122063Y-30504774D01*
X42266226Y-30648937D01*
X42435744Y-30762205D01*
X42624102Y-30840226D01*
X42824061Y-30880000D01*
X43027939Y-30880000D01*
X43227898Y-30840226D01*
X43416256Y-30762205D01*
X43585774Y-30648937D01*
X43729937Y-30504774D01*
X43843205Y-30335256D01*
X43921226Y-30146898D01*
X43961000Y-29946939D01*
X43961000Y-29743061D01*
X43921226Y-29543102D01*
X43843205Y-29354744D01*
X43729937Y-29185226D01*
X43686000Y-29141289D01*
X43686000Y-22874909D01*
X43808886Y-22792799D01*
X44001799Y-22599886D01*
X44153371Y-22373043D01*
X44257775Y-22120989D01*
X44311000Y-21853411D01*
X44311000Y-21580589D01*
X44257775Y-21313011D01*
X44153371Y-21060957D01*
X44001799Y-20834114D01*
X43808886Y-20641201D01*
X43582043Y-20489629D01*
X43329989Y-20385225D01*
X43062411Y-20332000D01*
X42789589Y-20332000D01*
X42522011Y-20385225D01*
X42269957Y-20489629D01*
X42043114Y-20641201D01*
X41850201Y-20834114D01*
X41698629Y-21060957D01*
X41656000Y-21163873D01*
X41613371Y-21060957D01*
X41461799Y-20834114D01*
X41268886Y-20641201D01*
X41042043Y-20489629D01*
X40789989Y-20385225D01*
X40522411Y-20332000D01*
X40249589Y-20332000D01*
X39982011Y-20385225D01*
X39729957Y-20489629D01*
X39503114Y-20641201D01*
X39310201Y-20834114D01*
X39158629Y-21060957D01*
X39116000Y-21163873D01*
X39073371Y-21060957D01*
X38921799Y-20834114D01*
X38728886Y-20641201D01*
X38502043Y-20489629D01*
X38249989Y-20385225D01*
X37982411Y-20332000D01*
X37709589Y-20332000D01*
X37442011Y-20385225D01*
X37189957Y-20489629D01*
X36963114Y-20641201D01*
X36770201Y-20834114D01*
X36618629Y-21060957D01*
X36576000Y-21163873D01*
X36533371Y-21060957D01*
X36381799Y-20834114D01*
X36188886Y-20641201D01*
X35962043Y-20489629D01*
X35709989Y-20385225D01*
X35442411Y-20332000D01*
X35169589Y-20332000D01*
X34902011Y-20385225D01*
X34649957Y-20489629D01*
X34423114Y-20641201D01*
X34230201Y-20834114D01*
X34078629Y-21060957D01*
X34036000Y-21163873D01*
X33993371Y-21060957D01*
X33841799Y-20834114D01*
X33648886Y-20641201D01*
X33422043Y-20489629D01*
X33169989Y-20385225D01*
X32902411Y-20332000D01*
X32629589Y-20332000D01*
X32362011Y-20385225D01*
X32109957Y-20489629D01*
X31883114Y-20641201D01*
X31690201Y-20834114D01*
X31538629Y-21060957D01*
X31496000Y-21163873D01*
X31453371Y-21060957D01*
X31301799Y-20834114D01*
X31108886Y-20641201D01*
X30882043Y-20489629D01*
X30629989Y-20385225D01*
X30362411Y-20332000D01*
X30089589Y-20332000D01*
X29822011Y-20385225D01*
X29569957Y-20489629D01*
X29343114Y-20641201D01*
X29150201Y-20834114D01*
X28998629Y-21060957D01*
X28956000Y-21163873D01*
X28913371Y-21060957D01*
X28761799Y-20834114D01*
X28568886Y-20641201D01*
X28342043Y-20489629D01*
X28089989Y-20385225D01*
X27822411Y-20332000D01*
X27549589Y-20332000D01*
X27282011Y-20385225D01*
X27029957Y-20489629D01*
X26803114Y-20641201D01*
X26610201Y-20834114D01*
X26458629Y-21060957D01*
X26416000Y-21163873D01*
X26373371Y-21060957D01*
X26221799Y-20834114D01*
X26028886Y-20641201D01*
X25802043Y-20489629D01*
X25549989Y-20385225D01*
X25282411Y-20332000D01*
X25009589Y-20332000D01*
X24742011Y-20385225D01*
X24489957Y-20489629D01*
X24263114Y-20641201D01*
X24070201Y-20834114D01*
X23918629Y-21060957D01*
X23876000Y-21163873D01*
X23833371Y-21060957D01*
X23681799Y-20834114D01*
X23488886Y-20641201D01*
X23262043Y-20489629D01*
X23009989Y-20385225D01*
X22742411Y-20332000D01*
X22469589Y-20332000D01*
X22202011Y-20385225D01*
X21949957Y-20489629D01*
X21723114Y-20641201D01*
X21530201Y-20834114D01*
X21378629Y-21060957D01*
X21274225Y-21313011D01*
X21221000Y-21580589D01*
X21221000Y-21853411D01*
X21274225Y-22120989D01*
X21378629Y-22373043D01*
X21530201Y-22599886D01*
X21723114Y-22792799D01*
X21949957Y-22944371D01*
X22202011Y-23048775D01*
X22469589Y-23102000D01*
X22742411Y-23102000D01*
X23009989Y-23048775D01*
X23262043Y-22944371D01*
X23488886Y-22792799D01*
X23681799Y-22599886D01*
X23833371Y-22373043D01*
X23876000Y-22270127D01*
X23918629Y-22373043D01*
X24070201Y-22599886D01*
X24263114Y-22792799D01*
X24489957Y-22944371D01*
X24742011Y-23048775D01*
X25009589Y-23102000D01*
X25282411Y-23102000D01*
X25549989Y-23048775D01*
X25802043Y-22944371D01*
X26028886Y-22792799D01*
X26221799Y-22599886D01*
X26373371Y-22373043D01*
X26416000Y-22270127D01*
X26458629Y-22373043D01*
X26610201Y-22599886D01*
X26803114Y-22792799D01*
X27029957Y-22944371D01*
X27282011Y-23048775D01*
X27549589Y-23102000D01*
X27822411Y-23102000D01*
X28089989Y-23048775D01*
X28342043Y-22944371D01*
X28568886Y-22792799D01*
X28761799Y-22599886D01*
X28913371Y-22373043D01*
X28956000Y-22270127D01*
X28998629Y-22373043D01*
X29150201Y-22599886D01*
X29343114Y-22792799D01*
X29569957Y-22944371D01*
X29822011Y-23048775D01*
X30058402Y-23095796D01*
X23328004Y-29826195D01*
X23299000Y-29849998D01*
X23272464Y-29882333D01*
X23204027Y-29965723D01*
X23142944Y-30080000D01*
X23133455Y-30097753D01*
X23089998Y-30241014D01*
X23079001Y-30352667D01*
X23079001Y-30352677D01*
X23075325Y-30389999D01*
X23079001Y-30427321D01*
X23079002Y-35568928D01*
X21856000Y-35568928D01*
X21731518Y-35581188D01*
X21611820Y-35617498D01*
X21501506Y-35676463D01*
X21404815Y-35755815D01*
X21325463Y-35852506D01*
X21266498Y-35962820D01*
X21230188Y-36082518D01*
X21217928Y-36207000D01*
X21217928Y-37707000D01*
X21230188Y-37831482D01*
X21266498Y-37951180D01*
X21325463Y-38061494D01*
X21404815Y-38158185D01*
X21501506Y-38237537D01*
X21611820Y-38296502D01*
X21731518Y-38332812D01*
X21856000Y-38345072D01*
X23079002Y-38345072D01*
X23079002Y-40297667D01*
X23075325Y-40334999D01*
X23079002Y-40372332D01*
X23087297Y-40456546D01*
X23089999Y-40483984D01*
X23133455Y-40627245D01*
X23204027Y-40759275D01*
X23252671Y-40818547D01*
X23299001Y-40875000D01*
X23327999Y-40898798D01*
X23509921Y-41080720D01*
X23415898Y-41041774D01*
X23215939Y-41002000D01*
X23012061Y-41002000D01*
X22812102Y-41041774D01*
X22623744Y-41119795D01*
X22454226Y-41233063D01*
X22410289Y-41277000D01*
X21531711Y-41277000D01*
X21487774Y-41233063D01*
X21318256Y-41119795D01*
X21129898Y-41041774D01*
X20929939Y-41002000D01*
X20726061Y-41002000D01*
X20526102Y-41041774D01*
X20337744Y-41119795D01*
X20168226Y-41233063D01*
X20024063Y-41377226D01*
X19910795Y-41546744D01*
X19832774Y-41735102D01*
X19793000Y-41935061D01*
X19793000Y-42138939D01*
X19832774Y-42338898D01*
X19910795Y-42527256D01*
X20024063Y-42696774D01*
X20168226Y-42840937D01*
X20337744Y-42954205D01*
X20526102Y-43032226D01*
X20726061Y-43072000D01*
X20929939Y-43072000D01*
X21129898Y-43032226D01*
X21318256Y-42954205D01*
X21487774Y-42840937D01*
X21531711Y-42797000D01*
X22410289Y-42797000D01*
X22454226Y-42840937D01*
X22623744Y-42954205D01*
X22812102Y-43032226D01*
X23012061Y-43072000D01*
X23215939Y-43072000D01*
X23415898Y-43032226D01*
X23604256Y-42954205D01*
X23773774Y-42840937D01*
X23917937Y-42696774D01*
X24031205Y-42527256D01*
X24109226Y-42338898D01*
X24149000Y-42138939D01*
X24149000Y-41935061D01*
X24109226Y-41735102D01*
X24070280Y-41641079D01*
X28465722Y-46036522D01*
X28231741Y-46192863D01*
X28031863Y-46392741D01*
X27876500Y-46625259D01*
X27721137Y-46392741D01*
X27521259Y-46192863D01*
X27286227Y-46035820D01*
X27025074Y-45927647D01*
X26747835Y-45872500D01*
X26465165Y-45872500D01*
X26187926Y-45927647D01*
X25926773Y-46035820D01*
X25691741Y-46192863D01*
X25491863Y-46392741D01*
X25334820Y-46627773D01*
X25226647Y-46888926D01*
X25171500Y-47166165D01*
X25171500Y-47448835D01*
X25226647Y-47726074D01*
X25334820Y-47987227D01*
X25491863Y-48222259D01*
X25691741Y-48422137D01*
X25926773Y-48579180D01*
X26187926Y-48687353D01*
X26465165Y-48742500D01*
X26747835Y-48742500D01*
X27025074Y-48687353D01*
X27286227Y-48579180D01*
X27521259Y-48422137D01*
X27721137Y-48222259D01*
X27876500Y-47989741D01*
X28031863Y-48222259D01*
X28231741Y-48422137D01*
X28466773Y-48579180D01*
X28727926Y-48687353D01*
X29005165Y-48742500D01*
X29287835Y-48742500D01*
X29565074Y-48687353D01*
X29826227Y-48579180D01*
X30061259Y-48422137D01*
X30061296Y-48422100D01*
X32061198Y-50422002D01*
X32084997Y-50451001D01*
X32200722Y-50545974D01*
X32332751Y-50616546D01*
X32476012Y-50660003D01*
X32587665Y-50671000D01*
X32587674Y-50671000D01*
X32624997Y-50674676D01*
X32662320Y-50671000D01*
X36431315Y-50671000D01*
X36534063Y-50824774D01*
X36678226Y-50968937D01*
X36847744Y-51082205D01*
X37036102Y-51160226D01*
X37236061Y-51200000D01*
X37439939Y-51200000D01*
X37639898Y-51160226D01*
X37828256Y-51082205D01*
X37997774Y-50968937D01*
X38141937Y-50824774D01*
X38255205Y-50655256D01*
X38333226Y-50466898D01*
X38373000Y-50266939D01*
X38373000Y-50063061D01*
X38333226Y-49863102D01*
X38255205Y-49674744D01*
X38141937Y-49505226D01*
X37997774Y-49361063D01*
X37828256Y-49247795D01*
X37639898Y-49169774D01*
X37439939Y-49130000D01*
X37236061Y-49130000D01*
X37127455Y-49151603D01*
X37121333Y-49151000D01*
X37121322Y-49151000D01*
X37084000Y-49147324D01*
X37046678Y-49151000D01*
X32939800Y-49151000D01*
X32367278Y-48578478D01*
X32601259Y-48422137D01*
X32801137Y-48222259D01*
X32956500Y-47989741D01*
X33111863Y-48222259D01*
X33311741Y-48422137D01*
X33546773Y-48579180D01*
X33807926Y-48687353D01*
X34085165Y-48742500D01*
X34367835Y-48742500D01*
X34645074Y-48687353D01*
X34906227Y-48579180D01*
X35141259Y-48422137D01*
X35341137Y-48222259D01*
X35496500Y-47989741D01*
X35651863Y-48222259D01*
X35851741Y-48422137D01*
X36086773Y-48579180D01*
X36347926Y-48687353D01*
X36625165Y-48742500D01*
X36907835Y-48742500D01*
X37185074Y-48687353D01*
X37446227Y-48579180D01*
X37681259Y-48422137D01*
X37881137Y-48222259D01*
X38036500Y-47989741D01*
X38191863Y-48222259D01*
X38391741Y-48422137D01*
X38626773Y-48579180D01*
X38887926Y-48687353D01*
X39165165Y-48742500D01*
X39447835Y-48742500D01*
X39725074Y-48687353D01*
X39986227Y-48579180D01*
X40221259Y-48422137D01*
X40421137Y-48222259D01*
X40576500Y-47989741D01*
X40731863Y-48222259D01*
X40931741Y-48422137D01*
X41166773Y-48579180D01*
X41427926Y-48687353D01*
X41705165Y-48742500D01*
X41987835Y-48742500D01*
X42265074Y-48687353D01*
X42526227Y-48579180D01*
X42761259Y-48422137D01*
X42961137Y-48222259D01*
X43116500Y-47989741D01*
X43271863Y-48222259D01*
X43471741Y-48422137D01*
X43706773Y-48579180D01*
X43967926Y-48687353D01*
X44245165Y-48742500D01*
X44527835Y-48742500D01*
X44805074Y-48687353D01*
X45066227Y-48579180D01*
X45301259Y-48422137D01*
X45501137Y-48222259D01*
X45656500Y-47989741D01*
X45811863Y-48222259D01*
X46011741Y-48422137D01*
X46246773Y-48579180D01*
X46507926Y-48687353D01*
X46785165Y-48742500D01*
X47067835Y-48742500D01*
X47345074Y-48687353D01*
X47606227Y-48579180D01*
X47841259Y-48422137D01*
X48041137Y-48222259D01*
X48196500Y-47989741D01*
X48351863Y-48222259D01*
X48551741Y-48422137D01*
X48786773Y-48579180D01*
X49047926Y-48687353D01*
X49325165Y-48742500D01*
X49607835Y-48742500D01*
X49885074Y-48687353D01*
X50146227Y-48579180D01*
X50381259Y-48422137D01*
X50581137Y-48222259D01*
X50736500Y-47989741D01*
X50891863Y-48222259D01*
X51091741Y-48422137D01*
X51326773Y-48579180D01*
X51587926Y-48687353D01*
X51865165Y-48742500D01*
X52147835Y-48742500D01*
X52425074Y-48687353D01*
X52686227Y-48579180D01*
X52921259Y-48422137D01*
X53121137Y-48222259D01*
X53278180Y-47987227D01*
X53282567Y-47976635D01*
X53394115Y-48162631D01*
X53583086Y-48371019D01*
X53809080Y-48538537D01*
X54063413Y-48658746D01*
X54197461Y-48699404D01*
X54419500Y-48577415D01*
X54419500Y-47434500D01*
X54399500Y-47434500D01*
X54399500Y-47180500D01*
X54419500Y-47180500D01*
X54419500Y-46037585D01*
X54673500Y-46037585D01*
X54673500Y-47180500D01*
X54693500Y-47180500D01*
X54693500Y-47434500D01*
X54673500Y-47434500D01*
X54673500Y-48577415D01*
X54895539Y-48699404D01*
X55029587Y-48658746D01*
X55283920Y-48538537D01*
X55509914Y-48371019D01*
X55698885Y-48162631D01*
X55810433Y-47976635D01*
X55814820Y-47987227D01*
X55971863Y-48222259D01*
X56171741Y-48422137D01*
X56406773Y-48579180D01*
X56667926Y-48687353D01*
X56945165Y-48742500D01*
X57227835Y-48742500D01*
X57505074Y-48687353D01*
X57766227Y-48579180D01*
X58001259Y-48422137D01*
X58201137Y-48222259D01*
X58356500Y-47989741D01*
X58511863Y-48222259D01*
X58711741Y-48422137D01*
X58946773Y-48579180D01*
X59207926Y-48687353D01*
X59485165Y-48742500D01*
X59767835Y-48742500D01*
X60045074Y-48687353D01*
X60306227Y-48579180D01*
X60541259Y-48422137D01*
X60739857Y-48223539D01*
X60740688Y-48231982D01*
X60776998Y-48351680D01*
X60835963Y-48461994D01*
X60915315Y-48558685D01*
X61012006Y-48638037D01*
X61122320Y-48697002D01*
X61242018Y-48733312D01*
X61366500Y-48745572D01*
X61406501Y-48745572D01*
X61406500Y-55271178D01*
X61402824Y-55308500D01*
X61406500Y-55345822D01*
X61406500Y-55345832D01*
X61417497Y-55457485D01*
X61444620Y-55546898D01*
X61460954Y-55600746D01*
X61531526Y-55732776D01*
X61558790Y-55765997D01*
X61626499Y-55848501D01*
X61655503Y-55872304D01*
X65222200Y-59439002D01*
X65245999Y-59468001D01*
X65274997Y-59491799D01*
X65361723Y-59562974D01*
X65493753Y-59633546D01*
X65637014Y-59677003D01*
X65748667Y-59688000D01*
X65748677Y-59688000D01*
X65786000Y-59691676D01*
X65823322Y-59688000D01*
X70043199Y-59688000D01*
X72392001Y-62036803D01*
X72392000Y-62796289D01*
X72348063Y-62840226D01*
X72234795Y-63009744D01*
X72156774Y-63198102D01*
X72117000Y-63398061D01*
X72117000Y-63601939D01*
X72156774Y-63801898D01*
X72234795Y-63990256D01*
X72348063Y-64159774D01*
X72492226Y-64303937D01*
X72661744Y-64417205D01*
X72850102Y-64495226D01*
X73050061Y-64535000D01*
X73253939Y-64535000D01*
X73453898Y-64495226D01*
X73642256Y-64417205D01*
X73811774Y-64303937D01*
X73955937Y-64159774D01*
X74069205Y-63990256D01*
X74147226Y-63801898D01*
X74187000Y-63601939D01*
X74187000Y-63398061D01*
X74147226Y-63198102D01*
X74069205Y-63009744D01*
X73955937Y-62840226D01*
X73912000Y-62796289D01*
X73912000Y-61759325D01*
X73915676Y-61722000D01*
X73912000Y-61684675D01*
X73912000Y-61684667D01*
X73901003Y-61573014D01*
X73857546Y-61429753D01*
X73786974Y-61297724D01*
X73692001Y-61181999D01*
X73663003Y-61158201D01*
X70921804Y-58417003D01*
X70898001Y-58387999D01*
X70782276Y-58293026D01*
X70650247Y-58222454D01*
X70506986Y-58178997D01*
X70395333Y-58168000D01*
X70395322Y-58168000D01*
X70358000Y-58164324D01*
X70320678Y-58168000D01*
X66100802Y-58168000D01*
X64345863Y-56413061D01*
X65513000Y-56413061D01*
X65513000Y-56616939D01*
X65552774Y-56816898D01*
X65630795Y-57005256D01*
X65744063Y-57174774D01*
X65888226Y-57318937D01*
X66057744Y-57432205D01*
X66246102Y-57510226D01*
X66446061Y-57550000D01*
X66649939Y-57550000D01*
X66849898Y-57510226D01*
X67038256Y-57432205D01*
X67207774Y-57318937D01*
X67251711Y-57275000D01*
X69908289Y-57275000D01*
X69952226Y-57318937D01*
X70121744Y-57432205D01*
X70310102Y-57510226D01*
X70510061Y-57550000D01*
X70713939Y-57550000D01*
X70913898Y-57510226D01*
X71102256Y-57432205D01*
X71271774Y-57318937D01*
X71415937Y-57174774D01*
X71529205Y-57005256D01*
X71607226Y-56816898D01*
X71647000Y-56616939D01*
X71647000Y-56413061D01*
X71607226Y-56213102D01*
X71529205Y-56024744D01*
X71415937Y-55855226D01*
X71271774Y-55711063D01*
X71102256Y-55597795D01*
X70913898Y-55519774D01*
X70713939Y-55480000D01*
X70510061Y-55480000D01*
X70310102Y-55519774D01*
X70121744Y-55597795D01*
X69952226Y-55711063D01*
X69908289Y-55755000D01*
X67251711Y-55755000D01*
X67207774Y-55711063D01*
X67038256Y-55597795D01*
X66849898Y-55519774D01*
X66649939Y-55480000D01*
X66446061Y-55480000D01*
X66246102Y-55519774D01*
X66057744Y-55597795D01*
X65888226Y-55711063D01*
X65744063Y-55855226D01*
X65630795Y-56024744D01*
X65552774Y-56213102D01*
X65513000Y-56413061D01*
X64345863Y-56413061D01*
X62926500Y-54993699D01*
X62926500Y-48745572D01*
X62966500Y-48745572D01*
X63090982Y-48733312D01*
X63210680Y-48697002D01*
X63320994Y-48638037D01*
X63417685Y-48558685D01*
X63497037Y-48461994D01*
X63556002Y-48351680D01*
X63592312Y-48231982D01*
X63604572Y-48107500D01*
X63604572Y-46507500D01*
X63592312Y-46383018D01*
X63556002Y-46263320D01*
X63497037Y-46153006D01*
X63417685Y-46056315D01*
X63320994Y-45976963D01*
X63210680Y-45917998D01*
X63090982Y-45881688D01*
X62966500Y-45869428D01*
X61366500Y-45869428D01*
X61242018Y-45881688D01*
X61122320Y-45917998D01*
X61012006Y-45976963D01*
X60915315Y-46056315D01*
X60835963Y-46153006D01*
X60776998Y-46263320D01*
X60740688Y-46383018D01*
X60739857Y-46391461D01*
X60541259Y-46192863D01*
X60306227Y-46035820D01*
X60045074Y-45927647D01*
X59767835Y-45872500D01*
X59485165Y-45872500D01*
X59207926Y-45927647D01*
X58946773Y-46035820D01*
X58711741Y-46192863D01*
X58511863Y-46392741D01*
X58356500Y-46625259D01*
X58201137Y-46392741D01*
X58001259Y-46192863D01*
X57766227Y-46035820D01*
X57505074Y-45927647D01*
X57227835Y-45872500D01*
X56945165Y-45872500D01*
X56667926Y-45927647D01*
X56406773Y-46035820D01*
X56171741Y-46192863D01*
X55971863Y-46392741D01*
X55814820Y-46627773D01*
X55810433Y-46638365D01*
X55698885Y-46452369D01*
X55509914Y-46243981D01*
X55283920Y-46076463D01*
X55029587Y-45956254D01*
X54895539Y-45915596D01*
X54673500Y-46037585D01*
X54419500Y-46037585D01*
X54197461Y-45915596D01*
X54063413Y-45956254D01*
X53809080Y-46076463D01*
X53583086Y-46243981D01*
X53394115Y-46452369D01*
X53282567Y-46638365D01*
X53278180Y-46627773D01*
X53121137Y-46392741D01*
X52921259Y-46192863D01*
X52686227Y-46035820D01*
X52425074Y-45927647D01*
X52147835Y-45872500D01*
X51865165Y-45872500D01*
X51587926Y-45927647D01*
X51326773Y-46035820D01*
X51091741Y-46192863D01*
X50891863Y-46392741D01*
X50736500Y-46625259D01*
X50581137Y-46392741D01*
X50381259Y-46192863D01*
X50146227Y-46035820D01*
X49885074Y-45927647D01*
X49607835Y-45872500D01*
X49325165Y-45872500D01*
X49047926Y-45927647D01*
X48786773Y-46035820D01*
X48551741Y-46192863D01*
X48351863Y-46392741D01*
X48196500Y-46625259D01*
X48041137Y-46392741D01*
X47841259Y-46192863D01*
X47606227Y-46035820D01*
X47345074Y-45927647D01*
X47067835Y-45872500D01*
X46785165Y-45872500D01*
X46507926Y-45927647D01*
X46246773Y-46035820D01*
X46011741Y-46192863D01*
X45811863Y-46392741D01*
X45656500Y-46625259D01*
X45501137Y-46392741D01*
X45301259Y-46192863D01*
X45066227Y-46035820D01*
X44805074Y-45927647D01*
X44527835Y-45872500D01*
X44245165Y-45872500D01*
X43967926Y-45927647D01*
X43706773Y-46035820D01*
X43471741Y-46192863D01*
X43271863Y-46392741D01*
X43116500Y-46625259D01*
X42961137Y-46392741D01*
X42761259Y-46192863D01*
X42526227Y-46035820D01*
X42265074Y-45927647D01*
X41987835Y-45872500D01*
X41705165Y-45872500D01*
X41427926Y-45927647D01*
X41166773Y-46035820D01*
X40931741Y-46192863D01*
X40731863Y-46392741D01*
X40576500Y-46625259D01*
X40421137Y-46392741D01*
X40221259Y-46192863D01*
X39986227Y-46035820D01*
X39725074Y-45927647D01*
X39447835Y-45872500D01*
X39165165Y-45872500D01*
X38887926Y-45927647D01*
X38626773Y-46035820D01*
X38391741Y-46192863D01*
X38191863Y-46392741D01*
X38036500Y-46625259D01*
X37881137Y-46392741D01*
X37681259Y-46192863D01*
X37446227Y-46035820D01*
X37185074Y-45927647D01*
X36907835Y-45872500D01*
X36625165Y-45872500D01*
X36347926Y-45927647D01*
X36086773Y-46035820D01*
X35851741Y-46192863D01*
X35651863Y-46392741D01*
X35496500Y-46625259D01*
X35341137Y-46392741D01*
X35141259Y-46192863D01*
X34986500Y-46089457D01*
X34986500Y-45336301D01*
X35239802Y-45083000D01*
X42507678Y-45083000D01*
X42545000Y-45086676D01*
X42582322Y-45083000D01*
X42582333Y-45083000D01*
X42693986Y-45072003D01*
X42837247Y-45028546D01*
X42969276Y-44957974D01*
X43085001Y-44863001D01*
X43108804Y-44833997D01*
X48868003Y-39074799D01*
X48897001Y-39051001D01*
X48991974Y-38935276D01*
X49062546Y-38803247D01*
X49106003Y-38659986D01*
X49117000Y-38548333D01*
X49117000Y-38548324D01*
X49120676Y-38511001D01*
X49117000Y-38473678D01*
X49117000Y-35295408D01*
X57033000Y-35295408D01*
X57033000Y-35570592D01*
X57086686Y-35840490D01*
X57191995Y-36094727D01*
X57344880Y-36323535D01*
X57539465Y-36518120D01*
X57768273Y-36671005D01*
X58022510Y-36776314D01*
X58292408Y-36830000D01*
X58567592Y-36830000D01*
X58837490Y-36776314D01*
X59091727Y-36671005D01*
X59320535Y-36518120D01*
X59515120Y-36323535D01*
X59668005Y-36094727D01*
X59773314Y-35840490D01*
X59827000Y-35570592D01*
X59827000Y-35295408D01*
X59773314Y-35025510D01*
X59668005Y-34771273D01*
X59601005Y-34671000D01*
X64629928Y-34671000D01*
X64629928Y-36195000D01*
X64642188Y-36319482D01*
X64678498Y-36439180D01*
X64737463Y-36549494D01*
X64816815Y-36646185D01*
X64913506Y-36725537D01*
X65023820Y-36784502D01*
X65143518Y-36820812D01*
X65268000Y-36833072D01*
X66792000Y-36833072D01*
X66916482Y-36820812D01*
X67036180Y-36784502D01*
X67146494Y-36725537D01*
X67243185Y-36646185D01*
X67322537Y-36549494D01*
X67381502Y-36439180D01*
X67417812Y-36319482D01*
X67430072Y-36195000D01*
X67430072Y-34671000D01*
X67417812Y-34546518D01*
X67381502Y-34426820D01*
X67322537Y-34316506D01*
X67243185Y-34219815D01*
X67146494Y-34140463D01*
X67036180Y-34081498D01*
X66916482Y-34045188D01*
X66792000Y-34032928D01*
X65268000Y-34032928D01*
X65143518Y-34045188D01*
X65023820Y-34081498D01*
X64913506Y-34140463D01*
X64816815Y-34219815D01*
X64737463Y-34316506D01*
X64678498Y-34426820D01*
X64642188Y-34546518D01*
X64629928Y-34671000D01*
X59601005Y-34671000D01*
X59515120Y-34542465D01*
X59320535Y-34347880D01*
X59091727Y-34194995D01*
X58837490Y-34089686D01*
X58567592Y-34036000D01*
X58292408Y-34036000D01*
X58022510Y-34089686D01*
X57768273Y-34194995D01*
X57539465Y-34347880D01*
X57344880Y-34542465D01*
X57191995Y-34771273D01*
X57086686Y-35025510D01*
X57033000Y-35295408D01*
X49117000Y-35295408D01*
X49117000Y-31302801D01*
X60003430Y-20416372D01*
X60157408Y-20447000D01*
X60432592Y-20447000D01*
X60702490Y-20393314D01*
X60956727Y-20288005D01*
X61185535Y-20135120D01*
X61305090Y-20015565D01*
X62049040Y-20015565D01*
X62116020Y-20255656D01*
X62365048Y-20372756D01*
X62632135Y-20439023D01*
X62907017Y-20451910D01*
X63179133Y-20410922D01*
X63438023Y-20317636D01*
X63553980Y-20255656D01*
X63620960Y-20015565D01*
X62835000Y-19229605D01*
X62049040Y-20015565D01*
X61305090Y-20015565D01*
X61380120Y-19940535D01*
X61533005Y-19711727D01*
X61562692Y-19640057D01*
X61567364Y-19653023D01*
X61629344Y-19768980D01*
X61869435Y-19835960D01*
X62655395Y-19050000D01*
X63014605Y-19050000D01*
X63800565Y-19835960D01*
X64040656Y-19768980D01*
X64157756Y-19519952D01*
X64224023Y-19252865D01*
X64236910Y-18977983D01*
X64195922Y-18705867D01*
X64102636Y-18446977D01*
X64040656Y-18331020D01*
X63800565Y-18264040D01*
X63014605Y-19050000D01*
X62655395Y-19050000D01*
X61869435Y-18264040D01*
X61629344Y-18331020D01*
X61565515Y-18466760D01*
X61533005Y-18388273D01*
X61380120Y-18159465D01*
X61185535Y-17964880D01*
X60956727Y-17811995D01*
X60939840Y-17805000D01*
X62189628Y-17805000D01*
X62116020Y-17844344D01*
X62049040Y-18084435D01*
X62835000Y-18870395D01*
X63620960Y-18084435D01*
X63553980Y-17844344D01*
X63470310Y-17805000D01*
X81128000Y-17805000D01*
X81128001Y-86081000D01*
X17932000Y-86081000D01*
X17932000Y-79726000D01*
X24350928Y-79726000D01*
X24350928Y-82326000D01*
X24363188Y-82450482D01*
X24399498Y-82570180D01*
X24458463Y-82680494D01*
X24537815Y-82777185D01*
X24634506Y-82856537D01*
X24744820Y-82915502D01*
X24864518Y-82951812D01*
X24989000Y-82964072D01*
X27589000Y-82964072D01*
X27713482Y-82951812D01*
X27833180Y-82915502D01*
X27943494Y-82856537D01*
X28040185Y-82777185D01*
X28119537Y-82680494D01*
X28178502Y-82570180D01*
X28214812Y-82450482D01*
X28227072Y-82326000D01*
X28227072Y-82252117D01*
X38651000Y-82252117D01*
X38651000Y-82593883D01*
X38717675Y-82929081D01*
X38848463Y-83244831D01*
X39038337Y-83528998D01*
X39280002Y-83770663D01*
X39564169Y-83960537D01*
X39879919Y-84091325D01*
X40215117Y-84158000D01*
X40556883Y-84158000D01*
X40892081Y-84091325D01*
X41207831Y-83960537D01*
X41491998Y-83770663D01*
X41733663Y-83528998D01*
X41923537Y-83244831D01*
X42054325Y-82929081D01*
X42121000Y-82593883D01*
X42121000Y-82252117D01*
X42054325Y-81916919D01*
X41923537Y-81601169D01*
X41737671Y-81323000D01*
X48807928Y-81323000D01*
X48807928Y-83523000D01*
X48820188Y-83647482D01*
X48856498Y-83767180D01*
X48915463Y-83877494D01*
X48994815Y-83974185D01*
X49091506Y-84053537D01*
X49201820Y-84112502D01*
X49321518Y-84148812D01*
X49446000Y-84161072D01*
X51646000Y-84161072D01*
X51770482Y-84148812D01*
X51890180Y-84112502D01*
X52000494Y-84053537D01*
X52097185Y-83974185D01*
X52176537Y-83877494D01*
X52235502Y-83767180D01*
X52271812Y-83647482D01*
X52284072Y-83523000D01*
X52284072Y-81323000D01*
X52271812Y-81198518D01*
X52235502Y-81078820D01*
X52176537Y-80968506D01*
X52097185Y-80871815D01*
X52000494Y-80792463D01*
X51890180Y-80733498D01*
X51770482Y-80697188D01*
X51646000Y-80684928D01*
X49446000Y-80684928D01*
X49321518Y-80697188D01*
X49201820Y-80733498D01*
X49091506Y-80792463D01*
X48994815Y-80871815D01*
X48915463Y-80968506D01*
X48856498Y-81078820D01*
X48820188Y-81198518D01*
X48807928Y-81323000D01*
X41737671Y-81323000D01*
X41733663Y-81317002D01*
X41491998Y-81075337D01*
X41207831Y-80885463D01*
X40892081Y-80754675D01*
X40556883Y-80688000D01*
X40215117Y-80688000D01*
X39879919Y-80754675D01*
X39564169Y-80885463D01*
X39280002Y-81075337D01*
X39038337Y-81317002D01*
X38848463Y-81601169D01*
X38717675Y-81916919D01*
X38651000Y-82252117D01*
X28227072Y-82252117D01*
X28227072Y-79726000D01*
X28214812Y-79601518D01*
X28178502Y-79481820D01*
X28119537Y-79371506D01*
X28040185Y-79274815D01*
X27943494Y-79195463D01*
X27833180Y-79136498D01*
X27713482Y-79100188D01*
X27589000Y-79087928D01*
X24989000Y-79087928D01*
X24864518Y-79100188D01*
X24744820Y-79136498D01*
X24634506Y-79195463D01*
X24537815Y-79274815D01*
X24458463Y-79371506D01*
X24399498Y-79481820D01*
X24363188Y-79601518D01*
X24350928Y-79726000D01*
X17932000Y-79726000D01*
X17932000Y-78217665D01*
X33871000Y-78217665D01*
X33871000Y-78500335D01*
X33926147Y-78777574D01*
X34034320Y-79038727D01*
X34191363Y-79273759D01*
X34391241Y-79473637D01*
X34626273Y-79630680D01*
X34887426Y-79738853D01*
X35164665Y-79794000D01*
X35447335Y-79794000D01*
X35724574Y-79738853D01*
X35985727Y-79630680D01*
X36220759Y-79473637D01*
X36420637Y-79273759D01*
X36577680Y-79038727D01*
X36685853Y-78777574D01*
X36741000Y-78500335D01*
X36741000Y-78217665D01*
X38951000Y-78217665D01*
X38951000Y-78500335D01*
X39006147Y-78777574D01*
X39114320Y-79038727D01*
X39271363Y-79273759D01*
X39471241Y-79473637D01*
X39706273Y-79630680D01*
X39967426Y-79738853D01*
X40244665Y-79794000D01*
X40527335Y-79794000D01*
X40804574Y-79738853D01*
X41065727Y-79630680D01*
X41300759Y-79473637D01*
X41335694Y-79438702D01*
X72084903Y-79438702D01*
X72156486Y-79682671D01*
X72411996Y-79803571D01*
X72686184Y-79872300D01*
X72968512Y-79886217D01*
X73248130Y-79844787D01*
X73514292Y-79749603D01*
X73639514Y-79682671D01*
X73711097Y-79438702D01*
X72898000Y-78625605D01*
X72084903Y-79438702D01*
X41335694Y-79438702D01*
X41500637Y-79273759D01*
X41657680Y-79038727D01*
X41751716Y-78811702D01*
X58622903Y-78811702D01*
X58694486Y-79055671D01*
X58949996Y-79176571D01*
X59224184Y-79245300D01*
X59506512Y-79259217D01*
X59786130Y-79217787D01*
X60052292Y-79122603D01*
X60177514Y-79055671D01*
X60249097Y-78811702D01*
X59436000Y-77998605D01*
X58622903Y-78811702D01*
X41751716Y-78811702D01*
X41765853Y-78777574D01*
X41821000Y-78500335D01*
X41821000Y-78217665D01*
X41765853Y-77940426D01*
X41744764Y-77889512D01*
X57995783Y-77889512D01*
X58037213Y-78169130D01*
X58132397Y-78435292D01*
X58199329Y-78560514D01*
X58443298Y-78632097D01*
X59256395Y-77819000D01*
X59242253Y-77804858D01*
X59421858Y-77625253D01*
X59436000Y-77639395D01*
X59450143Y-77625253D01*
X59629748Y-77804858D01*
X59615605Y-77819000D01*
X60428702Y-78632097D01*
X60672671Y-78560514D01*
X60693491Y-78516512D01*
X71457783Y-78516512D01*
X71499213Y-78796130D01*
X71594397Y-79062292D01*
X71661329Y-79187514D01*
X71905298Y-79259097D01*
X72718395Y-78446000D01*
X73077605Y-78446000D01*
X73890702Y-79259097D01*
X74134671Y-79187514D01*
X74255571Y-78932004D01*
X74324300Y-78657816D01*
X74338217Y-78375488D01*
X74296787Y-78095870D01*
X74201603Y-77829708D01*
X74134671Y-77704486D01*
X73890702Y-77632903D01*
X73077605Y-78446000D01*
X72718395Y-78446000D01*
X71905298Y-77632903D01*
X71661329Y-77704486D01*
X71540429Y-77959996D01*
X71471700Y-78234184D01*
X71457783Y-78516512D01*
X60693491Y-78516512D01*
X60793571Y-78305004D01*
X60862300Y-78030816D01*
X60876217Y-77748488D01*
X60834787Y-77468870D01*
X60739603Y-77202708D01*
X60674384Y-77080691D01*
X60687185Y-77070185D01*
X60766537Y-76973494D01*
X60825502Y-76863180D01*
X60861812Y-76743482D01*
X60874072Y-76619000D01*
X60874072Y-75146000D01*
X71459928Y-75146000D01*
X71459928Y-76746000D01*
X71472188Y-76870482D01*
X71508498Y-76990180D01*
X71567463Y-77100494D01*
X71646815Y-77197185D01*
X71743506Y-77276537D01*
X71853820Y-77335502D01*
X71973518Y-77371812D01*
X72098000Y-77384072D01*
X72105215Y-77384072D01*
X72084903Y-77453298D01*
X72898000Y-78266395D01*
X73711097Y-77453298D01*
X73690785Y-77384072D01*
X73698000Y-77384072D01*
X73822482Y-77371812D01*
X73942180Y-77335502D01*
X74052494Y-77276537D01*
X74149185Y-77197185D01*
X74228537Y-77100494D01*
X74287502Y-76990180D01*
X74323812Y-76870482D01*
X74336072Y-76746000D01*
X74336072Y-75146000D01*
X74323812Y-75021518D01*
X74287502Y-74901820D01*
X74228537Y-74791506D01*
X74149185Y-74694815D01*
X74052494Y-74615463D01*
X73942180Y-74556498D01*
X73822482Y-74520188D01*
X73698000Y-74507928D01*
X72098000Y-74507928D01*
X71973518Y-74520188D01*
X71853820Y-74556498D01*
X71743506Y-74615463D01*
X71646815Y-74694815D01*
X71567463Y-74791506D01*
X71508498Y-74901820D01*
X71472188Y-75021518D01*
X71459928Y-75146000D01*
X60874072Y-75146000D01*
X60874072Y-75019000D01*
X60861812Y-74894518D01*
X60825502Y-74774820D01*
X60766537Y-74664506D01*
X60687185Y-74567815D01*
X60590494Y-74488463D01*
X60480180Y-74429498D01*
X60360482Y-74393188D01*
X60236000Y-74380928D01*
X58636000Y-74380928D01*
X58511518Y-74393188D01*
X58391820Y-74429498D01*
X58281506Y-74488463D01*
X58184815Y-74567815D01*
X58105463Y-74664506D01*
X58046498Y-74774820D01*
X58010188Y-74894518D01*
X57997928Y-75019000D01*
X57997928Y-76619000D01*
X58010188Y-76743482D01*
X58046498Y-76863180D01*
X58105463Y-76973494D01*
X58184815Y-77070185D01*
X58197758Y-77080807D01*
X58078429Y-77332996D01*
X58009700Y-77607184D01*
X57995783Y-77889512D01*
X41744764Y-77889512D01*
X41657680Y-77679273D01*
X41500637Y-77444241D01*
X41300759Y-77244363D01*
X41065727Y-77087320D01*
X40804574Y-76979147D01*
X40527335Y-76924000D01*
X40244665Y-76924000D01*
X39967426Y-76979147D01*
X39706273Y-77087320D01*
X39471241Y-77244363D01*
X39271363Y-77444241D01*
X39114320Y-77679273D01*
X39006147Y-77940426D01*
X38951000Y-78217665D01*
X36741000Y-78217665D01*
X36685853Y-77940426D01*
X36577680Y-77679273D01*
X36420637Y-77444241D01*
X36220759Y-77244363D01*
X35985727Y-77087320D01*
X35724574Y-76979147D01*
X35447335Y-76924000D01*
X35164665Y-76924000D01*
X34887426Y-76979147D01*
X34626273Y-77087320D01*
X34391241Y-77244363D01*
X34191363Y-77444241D01*
X34034320Y-77679273D01*
X33926147Y-77940426D01*
X33871000Y-78217665D01*
X17932000Y-78217665D01*
X17932000Y-77295224D01*
X25119381Y-77295224D01*
X25251317Y-77590312D01*
X25592045Y-77761159D01*
X25959557Y-77862250D01*
X26339729Y-77889701D01*
X26717951Y-77842457D01*
X27079690Y-77722333D01*
X27326683Y-77590312D01*
X27458619Y-77295224D01*
X26289000Y-76125605D01*
X25119381Y-77295224D01*
X17932000Y-77295224D01*
X17932000Y-75996729D01*
X24345299Y-75996729D01*
X24392543Y-76374951D01*
X24512667Y-76736690D01*
X24644688Y-76983683D01*
X24939776Y-77115619D01*
X26109395Y-75946000D01*
X26468605Y-75946000D01*
X27638224Y-77115619D01*
X27933312Y-76983683D01*
X28104159Y-76642955D01*
X28205250Y-76275443D01*
X28232701Y-75895271D01*
X28185457Y-75517049D01*
X28065333Y-75155310D01*
X27933312Y-74908317D01*
X27638224Y-74776381D01*
X26468605Y-75946000D01*
X26109395Y-75946000D01*
X24939776Y-74776381D01*
X24644688Y-74908317D01*
X24473841Y-75249045D01*
X24372750Y-75616557D01*
X24345299Y-75996729D01*
X17932000Y-75996729D01*
X17932000Y-74596776D01*
X25119381Y-74596776D01*
X26289000Y-75766395D01*
X27458619Y-74596776D01*
X27326683Y-74301688D01*
X26985955Y-74130841D01*
X26618443Y-74029750D01*
X26238271Y-74002299D01*
X25860049Y-74049543D01*
X25498310Y-74169667D01*
X25251317Y-74301688D01*
X25119381Y-74596776D01*
X17932000Y-74596776D01*
X17932000Y-70675419D01*
X24354000Y-70675419D01*
X24354000Y-71056581D01*
X24428361Y-71430419D01*
X24574225Y-71782566D01*
X24785987Y-72099491D01*
X25055509Y-72369013D01*
X25372434Y-72580775D01*
X25724581Y-72726639D01*
X26098419Y-72801000D01*
X26479581Y-72801000D01*
X26853419Y-72726639D01*
X27205566Y-72580775D01*
X27522491Y-72369013D01*
X27792013Y-72099491D01*
X28003775Y-71782566D01*
X28149639Y-71430419D01*
X28224000Y-71056581D01*
X28224000Y-70675419D01*
X28149639Y-70301581D01*
X28003775Y-69949434D01*
X27792013Y-69632509D01*
X27522491Y-69362987D01*
X27324959Y-69231000D01*
X59115428Y-69231000D01*
X59115428Y-71231000D01*
X59127688Y-71355482D01*
X59163998Y-71475180D01*
X59222963Y-71585494D01*
X59302315Y-71682185D01*
X59399006Y-71761537D01*
X59509320Y-71820502D01*
X59629018Y-71856812D01*
X59753500Y-71869072D01*
X61658500Y-71869072D01*
X61782982Y-71856812D01*
X61902680Y-71820502D01*
X62012994Y-71761537D01*
X62109685Y-71682185D01*
X62189037Y-71585494D01*
X62238059Y-71493781D01*
X62379077Y-71606969D01*
X62654906Y-71750571D01*
X62873020Y-71821563D01*
X63119000Y-71701594D01*
X63119000Y-70358000D01*
X63099000Y-70358000D01*
X63099000Y-70104000D01*
X63119000Y-70104000D01*
X63119000Y-68760406D01*
X63373000Y-68760406D01*
X63373000Y-70104000D01*
X63393000Y-70104000D01*
X63393000Y-70358000D01*
X63373000Y-70358000D01*
X63373000Y-71701594D01*
X63618980Y-71821563D01*
X63837094Y-71750571D01*
X64112923Y-71606969D01*
X64355437Y-71412315D01*
X64510837Y-71227101D01*
X64658037Y-71406463D01*
X64899766Y-71604845D01*
X65175552Y-71752255D01*
X65474797Y-71843030D01*
X65786000Y-71873681D01*
X66097204Y-71843030D01*
X66396449Y-71752255D01*
X66672235Y-71604845D01*
X66913963Y-71406463D01*
X67112345Y-71164734D01*
X67259755Y-70888948D01*
X67350530Y-70589703D01*
X67373500Y-70356485D01*
X67373500Y-70105514D01*
X67350530Y-69872296D01*
X67259755Y-69573051D01*
X67112345Y-69297265D01*
X66913963Y-69055537D01*
X66672234Y-68857155D01*
X66396448Y-68709745D01*
X66097203Y-68618970D01*
X65786000Y-68588319D01*
X65474796Y-68618970D01*
X65175551Y-68709745D01*
X64899765Y-68857155D01*
X64658037Y-69055537D01*
X64510838Y-69234900D01*
X64355437Y-69049685D01*
X64112923Y-68855031D01*
X63837094Y-68711429D01*
X63618980Y-68640437D01*
X63373000Y-68760406D01*
X63119000Y-68760406D01*
X62873020Y-68640437D01*
X62654906Y-68711429D01*
X62379077Y-68855031D01*
X62238059Y-68968219D01*
X62189037Y-68876506D01*
X62109685Y-68779815D01*
X62012994Y-68700463D01*
X61902680Y-68641498D01*
X61782982Y-68605188D01*
X61658500Y-68592928D01*
X59753500Y-68592928D01*
X59629018Y-68605188D01*
X59509320Y-68641498D01*
X59399006Y-68700463D01*
X59302315Y-68779815D01*
X59222963Y-68876506D01*
X59163998Y-68986820D01*
X59127688Y-69106518D01*
X59115428Y-69231000D01*
X27324959Y-69231000D01*
X27205566Y-69151225D01*
X26853419Y-69005361D01*
X26479581Y-68931000D01*
X26098419Y-68931000D01*
X25724581Y-69005361D01*
X25372434Y-69151225D01*
X25055509Y-69362987D01*
X24785987Y-69632509D01*
X24574225Y-69949434D01*
X24428361Y-70301581D01*
X24354000Y-70675419D01*
X17932000Y-70675419D01*
X17932000Y-62406165D01*
X25171500Y-62406165D01*
X25171500Y-62688835D01*
X25226647Y-62966074D01*
X25334820Y-63227227D01*
X25491863Y-63462259D01*
X25691741Y-63662137D01*
X25926773Y-63819180D01*
X26187926Y-63927353D01*
X26465165Y-63982500D01*
X26747835Y-63982500D01*
X27025074Y-63927353D01*
X27286227Y-63819180D01*
X27521259Y-63662137D01*
X27721137Y-63462259D01*
X27876500Y-63229741D01*
X28031863Y-63462259D01*
X28231741Y-63662137D01*
X28466773Y-63819180D01*
X28727926Y-63927353D01*
X29005165Y-63982500D01*
X29287835Y-63982500D01*
X29565074Y-63927353D01*
X29826227Y-63819180D01*
X30061259Y-63662137D01*
X30261137Y-63462259D01*
X30416500Y-63229741D01*
X30571863Y-63462259D01*
X30771741Y-63662137D01*
X31006773Y-63819180D01*
X31267926Y-63927353D01*
X31545165Y-63982500D01*
X31827835Y-63982500D01*
X32105074Y-63927353D01*
X32366227Y-63819180D01*
X32601259Y-63662137D01*
X32801137Y-63462259D01*
X32956500Y-63229741D01*
X33111863Y-63462259D01*
X33311741Y-63662137D01*
X33546773Y-63819180D01*
X33807926Y-63927353D01*
X34085165Y-63982500D01*
X34367835Y-63982500D01*
X34645074Y-63927353D01*
X34906227Y-63819180D01*
X35141259Y-63662137D01*
X35341137Y-63462259D01*
X35496500Y-63229741D01*
X35651863Y-63462259D01*
X35851741Y-63662137D01*
X36086773Y-63819180D01*
X36347926Y-63927353D01*
X36625165Y-63982500D01*
X36907835Y-63982500D01*
X37185074Y-63927353D01*
X37446227Y-63819180D01*
X37681259Y-63662137D01*
X37881137Y-63462259D01*
X38036500Y-63229741D01*
X38191863Y-63462259D01*
X38391741Y-63662137D01*
X38626773Y-63819180D01*
X38887926Y-63927353D01*
X39165165Y-63982500D01*
X39447835Y-63982500D01*
X39725074Y-63927353D01*
X39986227Y-63819180D01*
X40221259Y-63662137D01*
X40421137Y-63462259D01*
X40576500Y-63229741D01*
X40731863Y-63462259D01*
X40931741Y-63662137D01*
X41166773Y-63819180D01*
X41427926Y-63927353D01*
X41705165Y-63982500D01*
X41987835Y-63982500D01*
X42265074Y-63927353D01*
X42526227Y-63819180D01*
X42761259Y-63662137D01*
X42961137Y-63462259D01*
X43116500Y-63229741D01*
X43271863Y-63462259D01*
X43471741Y-63662137D01*
X43706773Y-63819180D01*
X43967926Y-63927353D01*
X44245165Y-63982500D01*
X44527835Y-63982500D01*
X44805074Y-63927353D01*
X45066227Y-63819180D01*
X45301259Y-63662137D01*
X45501137Y-63462259D01*
X45656500Y-63229741D01*
X45811863Y-63462259D01*
X46011741Y-63662137D01*
X46246773Y-63819180D01*
X46507926Y-63927353D01*
X46785165Y-63982500D01*
X47067835Y-63982500D01*
X47345074Y-63927353D01*
X47606227Y-63819180D01*
X47841259Y-63662137D01*
X48041137Y-63462259D01*
X48196500Y-63229741D01*
X48351863Y-63462259D01*
X48551741Y-63662137D01*
X48786773Y-63819180D01*
X49047926Y-63927353D01*
X49325165Y-63982500D01*
X49607835Y-63982500D01*
X49885074Y-63927353D01*
X50146227Y-63819180D01*
X50381259Y-63662137D01*
X50581137Y-63462259D01*
X50736500Y-63229741D01*
X50891863Y-63462259D01*
X51091741Y-63662137D01*
X51326773Y-63819180D01*
X51587926Y-63927353D01*
X51865165Y-63982500D01*
X52147835Y-63982500D01*
X52425074Y-63927353D01*
X52686227Y-63819180D01*
X52921259Y-63662137D01*
X53121137Y-63462259D01*
X53276500Y-63229741D01*
X53431863Y-63462259D01*
X53631741Y-63662137D01*
X53866773Y-63819180D01*
X54127926Y-63927353D01*
X54405165Y-63982500D01*
X54687835Y-63982500D01*
X54965074Y-63927353D01*
X55226227Y-63819180D01*
X55461259Y-63662137D01*
X55661137Y-63462259D01*
X55816500Y-63229741D01*
X55971863Y-63462259D01*
X56171741Y-63662137D01*
X56406773Y-63819180D01*
X56667926Y-63927353D01*
X56945165Y-63982500D01*
X57227835Y-63982500D01*
X57505074Y-63927353D01*
X57766227Y-63819180D01*
X58001259Y-63662137D01*
X58201137Y-63462259D01*
X58358180Y-63227227D01*
X58362567Y-63216635D01*
X58474115Y-63402631D01*
X58663086Y-63611019D01*
X58889080Y-63778537D01*
X59143413Y-63898746D01*
X59277461Y-63939404D01*
X59499500Y-63817415D01*
X59499500Y-62674500D01*
X59479500Y-62674500D01*
X59479500Y-62420500D01*
X59499500Y-62420500D01*
X59499500Y-61277585D01*
X59753500Y-61277585D01*
X59753500Y-62420500D01*
X59773500Y-62420500D01*
X59773500Y-62674500D01*
X59753500Y-62674500D01*
X59753500Y-63817415D01*
X59975539Y-63939404D01*
X60109587Y-63898746D01*
X60363920Y-63778537D01*
X60589914Y-63611019D01*
X60778885Y-63402631D01*
X60890433Y-63216635D01*
X60894820Y-63227227D01*
X61051863Y-63462259D01*
X61251741Y-63662137D01*
X61486773Y-63819180D01*
X61747926Y-63927353D01*
X62025165Y-63982500D01*
X62307835Y-63982500D01*
X62585074Y-63927353D01*
X62846227Y-63819180D01*
X63081259Y-63662137D01*
X63281137Y-63462259D01*
X63438180Y-63227227D01*
X63546353Y-62966074D01*
X63601500Y-62688835D01*
X63601500Y-62406165D01*
X63546353Y-62128926D01*
X63438180Y-61867773D01*
X63281137Y-61632741D01*
X63081259Y-61432863D01*
X62846227Y-61275820D01*
X62585074Y-61167647D01*
X62307835Y-61112500D01*
X62025165Y-61112500D01*
X61747926Y-61167647D01*
X61486773Y-61275820D01*
X61251741Y-61432863D01*
X61051863Y-61632741D01*
X60894820Y-61867773D01*
X60890433Y-61878365D01*
X60778885Y-61692369D01*
X60589914Y-61483981D01*
X60363920Y-61316463D01*
X60109587Y-61196254D01*
X59975539Y-61155596D01*
X59753500Y-61277585D01*
X59499500Y-61277585D01*
X59277461Y-61155596D01*
X59143413Y-61196254D01*
X58889080Y-61316463D01*
X58663086Y-61483981D01*
X58474115Y-61692369D01*
X58362567Y-61878365D01*
X58358180Y-61867773D01*
X58201137Y-61632741D01*
X58001259Y-61432863D01*
X57766227Y-61275820D01*
X57505074Y-61167647D01*
X57227835Y-61112500D01*
X56945165Y-61112500D01*
X56667926Y-61167647D01*
X56406773Y-61275820D01*
X56171741Y-61432863D01*
X55971863Y-61632741D01*
X55816500Y-61865259D01*
X55661137Y-61632741D01*
X55461259Y-61432863D01*
X55226227Y-61275820D01*
X54965074Y-61167647D01*
X54687835Y-61112500D01*
X54405165Y-61112500D01*
X54127926Y-61167647D01*
X53866773Y-61275820D01*
X53631741Y-61432863D01*
X53431863Y-61632741D01*
X53276500Y-61865259D01*
X53121137Y-61632741D01*
X52921259Y-61432863D01*
X52686227Y-61275820D01*
X52425074Y-61167647D01*
X52147835Y-61112500D01*
X51865165Y-61112500D01*
X51587926Y-61167647D01*
X51326773Y-61275820D01*
X51091741Y-61432863D01*
X50891863Y-61632741D01*
X50736500Y-61865259D01*
X50581137Y-61632741D01*
X50381259Y-61432863D01*
X50146227Y-61275820D01*
X49885074Y-61167647D01*
X49607835Y-61112500D01*
X49325165Y-61112500D01*
X49047926Y-61167647D01*
X48786773Y-61275820D01*
X48551741Y-61432863D01*
X48351863Y-61632741D01*
X48196500Y-61865259D01*
X48041137Y-61632741D01*
X47841259Y-61432863D01*
X47606227Y-61275820D01*
X47345074Y-61167647D01*
X47067835Y-61112500D01*
X46785165Y-61112500D01*
X46507926Y-61167647D01*
X46246773Y-61275820D01*
X46011741Y-61432863D01*
X45811863Y-61632741D01*
X45656500Y-61865259D01*
X45501137Y-61632741D01*
X45301259Y-61432863D01*
X45066227Y-61275820D01*
X44805074Y-61167647D01*
X44527835Y-61112500D01*
X44245165Y-61112500D01*
X43967926Y-61167647D01*
X43706773Y-61275820D01*
X43471741Y-61432863D01*
X43271863Y-61632741D01*
X43116500Y-61865259D01*
X42961137Y-61632741D01*
X42761259Y-61432863D01*
X42526227Y-61275820D01*
X42265074Y-61167647D01*
X41987835Y-61112500D01*
X41705165Y-61112500D01*
X41427926Y-61167647D01*
X41166773Y-61275820D01*
X40931741Y-61432863D01*
X40731863Y-61632741D01*
X40576500Y-61865259D01*
X40421137Y-61632741D01*
X40221259Y-61432863D01*
X39986227Y-61275820D01*
X39725074Y-61167647D01*
X39447835Y-61112500D01*
X39165165Y-61112500D01*
X38887926Y-61167647D01*
X38626773Y-61275820D01*
X38391741Y-61432863D01*
X38191863Y-61632741D01*
X38036500Y-61865259D01*
X37881137Y-61632741D01*
X37681259Y-61432863D01*
X37446227Y-61275820D01*
X37185074Y-61167647D01*
X36907835Y-61112500D01*
X36625165Y-61112500D01*
X36347926Y-61167647D01*
X36086773Y-61275820D01*
X35851741Y-61432863D01*
X35651863Y-61632741D01*
X35496500Y-61865259D01*
X35341137Y-61632741D01*
X35141259Y-61432863D01*
X34906227Y-61275820D01*
X34645074Y-61167647D01*
X34367835Y-61112500D01*
X34085165Y-61112500D01*
X33807926Y-61167647D01*
X33546773Y-61275820D01*
X33311741Y-61432863D01*
X33111863Y-61632741D01*
X32956500Y-61865259D01*
X32801137Y-61632741D01*
X32601259Y-61432863D01*
X32366227Y-61275820D01*
X32105074Y-61167647D01*
X31827835Y-61112500D01*
X31545165Y-61112500D01*
X31267926Y-61167647D01*
X31006773Y-61275820D01*
X30771741Y-61432863D01*
X30571863Y-61632741D01*
X30416500Y-61865259D01*
X30261137Y-61632741D01*
X30061259Y-61432863D01*
X29826227Y-61275820D01*
X29565074Y-61167647D01*
X29287835Y-61112500D01*
X29005165Y-61112500D01*
X28727926Y-61167647D01*
X28466773Y-61275820D01*
X28231741Y-61432863D01*
X28031863Y-61632741D01*
X27876500Y-61865259D01*
X27721137Y-61632741D01*
X27521259Y-61432863D01*
X27286227Y-61275820D01*
X27025074Y-61167647D01*
X26747835Y-61112500D01*
X26465165Y-61112500D01*
X26187926Y-61167647D01*
X25926773Y-61275820D01*
X25691741Y-61432863D01*
X25491863Y-61632741D01*
X25334820Y-61867773D01*
X25226647Y-62128926D01*
X25171500Y-62406165D01*
X17932000Y-62406165D01*
X17932000Y-55143061D01*
X30969000Y-55143061D01*
X30969000Y-55346939D01*
X31008774Y-55546898D01*
X31086795Y-55735256D01*
X31200063Y-55904774D01*
X31344226Y-56048937D01*
X31513744Y-56162205D01*
X31702102Y-56240226D01*
X31902061Y-56280000D01*
X32105939Y-56280000D01*
X32305898Y-56240226D01*
X32494256Y-56162205D01*
X32663774Y-56048937D01*
X32707711Y-56005000D01*
X34399315Y-56005000D01*
X34502063Y-56158774D01*
X34646226Y-56302937D01*
X34815744Y-56416205D01*
X35004102Y-56494226D01*
X35204061Y-56534000D01*
X35407939Y-56534000D01*
X35607898Y-56494226D01*
X35796256Y-56416205D01*
X35800961Y-56413061D01*
X53575000Y-56413061D01*
X53575000Y-56616939D01*
X53614774Y-56816898D01*
X53692795Y-57005256D01*
X53806063Y-57174774D01*
X53850001Y-57218712D01*
X53850000Y-59367289D01*
X53806063Y-59411226D01*
X53692795Y-59580744D01*
X53614774Y-59769102D01*
X53575000Y-59969061D01*
X53575000Y-60172939D01*
X53614774Y-60372898D01*
X53692795Y-60561256D01*
X53806063Y-60730774D01*
X53950226Y-60874937D01*
X54119744Y-60988205D01*
X54308102Y-61066226D01*
X54508061Y-61106000D01*
X54711939Y-61106000D01*
X54911898Y-61066226D01*
X55100256Y-60988205D01*
X55269774Y-60874937D01*
X55413937Y-60730774D01*
X55527205Y-60561256D01*
X55605226Y-60372898D01*
X55645000Y-60172939D01*
X55645000Y-59969061D01*
X55605226Y-59769102D01*
X55527205Y-59580744D01*
X55413937Y-59411226D01*
X55370000Y-59367289D01*
X55370000Y-57218711D01*
X55413937Y-57174774D01*
X55527205Y-57005256D01*
X55605226Y-56816898D01*
X55645000Y-56616939D01*
X55645000Y-56413061D01*
X55605226Y-56213102D01*
X55527205Y-56024744D01*
X55413937Y-55855226D01*
X55269774Y-55711063D01*
X55100256Y-55597795D01*
X54911898Y-55519774D01*
X54711939Y-55480000D01*
X54508061Y-55480000D01*
X54308102Y-55519774D01*
X54119744Y-55597795D01*
X53950226Y-55711063D01*
X53806063Y-55855226D01*
X53692795Y-56024744D01*
X53614774Y-56213102D01*
X53575000Y-56413061D01*
X35800961Y-56413061D01*
X35965774Y-56302937D01*
X36109937Y-56158774D01*
X36223205Y-55989256D01*
X36301226Y-55800898D01*
X36341000Y-55600939D01*
X36341000Y-55397061D01*
X36301226Y-55197102D01*
X36223205Y-55008744D01*
X36109937Y-54839226D01*
X35965774Y-54695063D01*
X35796256Y-54581795D01*
X35607898Y-54503774D01*
X35407939Y-54464000D01*
X35204061Y-54464000D01*
X35095455Y-54485603D01*
X35089333Y-54485000D01*
X35089322Y-54485000D01*
X35052000Y-54481324D01*
X35014678Y-54485000D01*
X32707711Y-54485000D01*
X32663774Y-54441063D01*
X32494256Y-54327795D01*
X32305898Y-54249774D01*
X32105939Y-54210000D01*
X31902061Y-54210000D01*
X31702102Y-54249774D01*
X31513744Y-54327795D01*
X31344226Y-54441063D01*
X31200063Y-54585226D01*
X31086795Y-54754744D01*
X31008774Y-54943102D01*
X30969000Y-55143061D01*
X17932000Y-55143061D01*
X17932000Y-17805000D01*
X54040582Y-17805000D01*
X54001815Y-17836815D01*
G37*
X54001815Y-17836815D02*
X53922463Y-17933506D01*
X53863498Y-18043820D01*
X53827188Y-18163518D01*
X53814928Y-18288000D01*
X53814928Y-19812000D01*
X53827188Y-19936482D01*
X53863498Y-20056180D01*
X53922463Y-20166494D01*
X54001815Y-20263185D01*
X54098506Y-20342537D01*
X54208820Y-20401502D01*
X54328518Y-20437812D01*
X54453000Y-20450072D01*
X55977000Y-20450072D01*
X56101482Y-20437812D01*
X56221180Y-20401502D01*
X56331494Y-20342537D01*
X56428185Y-20263185D01*
X56507537Y-20166494D01*
X56566502Y-20056180D01*
X56602812Y-19936482D01*
X56611080Y-19852535D01*
X56669880Y-19940535D01*
X56768586Y-20039241D01*
X47114003Y-29693826D01*
X47084999Y-29717629D01*
X47029871Y-29784804D01*
X46990026Y-29833354D01*
X46981130Y-29849998D01*
X46919454Y-29965384D01*
X46875997Y-30108645D01*
X46865000Y-30220298D01*
X46865000Y-30220308D01*
X46861324Y-30257630D01*
X46865000Y-30294952D01*
X46865001Y-37658197D01*
X41595199Y-42928000D01*
X33057325Y-42928000D01*
X33020000Y-42924324D01*
X32982675Y-42928000D01*
X32982667Y-42928000D01*
X32871014Y-42938997D01*
X32727753Y-42982454D01*
X32595724Y-43053026D01*
X32479999Y-43147999D01*
X32456201Y-43176997D01*
X31175503Y-44457696D01*
X31146499Y-44481499D01*
X31091371Y-44548674D01*
X31051526Y-44597224D01*
X30980955Y-44729253D01*
X30980954Y-44729254D01*
X30937497Y-44872515D01*
X30926500Y-44984168D01*
X30926500Y-44984178D01*
X30922824Y-45021500D01*
X30926500Y-45058823D01*
X30926500Y-46089456D01*
X30771741Y-46192863D01*
X30771704Y-46192900D01*
X24599001Y-40020198D01*
X24599001Y-38229538D01*
X24742011Y-38288775D01*
X25009589Y-38342000D01*
X25282411Y-38342000D01*
X25549989Y-38288775D01*
X25802043Y-38184371D01*
X26028886Y-38032799D01*
X26221799Y-37839886D01*
X26373371Y-37613043D01*
X26416000Y-37510127D01*
X26458629Y-37613043D01*
X26610201Y-37839886D01*
X26803114Y-38032799D01*
X27029957Y-38184371D01*
X27282011Y-38288775D01*
X27549589Y-38342000D01*
X27822411Y-38342000D01*
X28089989Y-38288775D01*
X28342043Y-38184371D01*
X28568886Y-38032799D01*
X28761799Y-37839886D01*
X28913371Y-37613043D01*
X28956000Y-37510127D01*
X28998629Y-37613043D01*
X29150201Y-37839886D01*
X29343114Y-38032799D01*
X29569957Y-38184371D01*
X29822011Y-38288775D01*
X30089589Y-38342000D01*
X30362411Y-38342000D01*
X30629989Y-38288775D01*
X30882043Y-38184371D01*
X31108886Y-38032799D01*
X31301799Y-37839886D01*
X31453371Y-37613043D01*
X31496000Y-37510127D01*
X31538629Y-37613043D01*
X31690201Y-37839886D01*
X31883114Y-38032799D01*
X32109957Y-38184371D01*
X32362011Y-38288775D01*
X32629589Y-38342000D01*
X32902411Y-38342000D01*
X33169989Y-38288775D01*
X33422043Y-38184371D01*
X33648886Y-38032799D01*
X33841799Y-37839886D01*
X33993371Y-37613043D01*
X34036000Y-37510127D01*
X34078629Y-37613043D01*
X34230201Y-37839886D01*
X34423114Y-38032799D01*
X34649957Y-38184371D01*
X34902011Y-38288775D01*
X35169589Y-38342000D01*
X35442411Y-38342000D01*
X35587365Y-38313167D01*
X35818564Y-38544366D01*
X35826997Y-38629985D01*
X35853089Y-38716000D01*
X35870454Y-38773246D01*
X35941026Y-38905276D01*
X35970428Y-38941102D01*
X36011378Y-38991000D01*
X34787151Y-38991000D01*
X34777226Y-38941102D01*
X34699205Y-38752744D01*
X34585937Y-38583226D01*
X34441774Y-38439063D01*
X34272256Y-38325795D01*
X34083898Y-38247774D01*
X33883939Y-38208000D01*
X33680061Y-38208000D01*
X33480102Y-38247774D01*
X33291744Y-38325795D01*
X33122226Y-38439063D01*
X32978063Y-38583226D01*
X32864795Y-38752744D01*
X32786774Y-38941102D01*
X32747000Y-39141061D01*
X32747000Y-39344939D01*
X32786774Y-39544898D01*
X32864795Y-39733256D01*
X32978063Y-39902774D01*
X33122226Y-40046937D01*
X33291744Y-40160205D01*
X33480102Y-40238226D01*
X33680061Y-40278000D01*
X33739329Y-40278000D01*
X33749999Y-40291001D01*
X33865724Y-40385974D01*
X33997753Y-40456546D01*
X34141014Y-40500003D01*
X34252667Y-40511000D01*
X34252676Y-40511000D01*
X34289999Y-40514676D01*
X34327322Y-40511000D01*
X37396289Y-40511000D01*
X37430714Y-40545425D01*
X37358774Y-40719102D01*
X37319000Y-40919061D01*
X37319000Y-41122939D01*
X37358774Y-41322898D01*
X37436795Y-41511256D01*
X37550063Y-41680774D01*
X37694226Y-41824937D01*
X37863744Y-41938205D01*
X38052102Y-42016226D01*
X38252061Y-42056000D01*
X38455939Y-42056000D01*
X38655898Y-42016226D01*
X38844256Y-41938205D01*
X39013774Y-41824937D01*
X39157937Y-41680774D01*
X39271205Y-41511256D01*
X39349226Y-41322898D01*
X39389000Y-41122939D01*
X39389000Y-41060802D01*
X39773002Y-40676800D01*
X39802000Y-40653002D01*
X39896973Y-40537277D01*
X39967545Y-40405248D01*
X40011002Y-40261987D01*
X40021999Y-40150334D01*
X40025676Y-40113001D01*
X40021999Y-40075668D01*
X40021999Y-38296729D01*
X40249589Y-38342000D01*
X40522411Y-38342000D01*
X40789989Y-38288775D01*
X41042043Y-38184371D01*
X41268886Y-38032799D01*
X41461799Y-37839886D01*
X41613371Y-37613043D01*
X41656000Y-37510127D01*
X41698629Y-37613043D01*
X41850201Y-37839886D01*
X42043114Y-38032799D01*
X42269957Y-38184371D01*
X42522011Y-38288775D01*
X42789589Y-38342000D01*
X43062411Y-38342000D01*
X43329989Y-38288775D01*
X43582043Y-38184371D01*
X43808886Y-38032799D01*
X44001799Y-37839886D01*
X44153371Y-37613043D01*
X44257775Y-37360989D01*
X44311000Y-37093411D01*
X44311000Y-36820589D01*
X44257775Y-36553011D01*
X44153371Y-36300957D01*
X44001799Y-36074114D01*
X43808886Y-35881201D01*
X43582043Y-35729629D01*
X43329989Y-35625225D01*
X43062411Y-35572000D01*
X42789589Y-35572000D01*
X42522011Y-35625225D01*
X42269957Y-35729629D01*
X42043114Y-35881201D01*
X41850201Y-36074114D01*
X41698629Y-36300957D01*
X41656000Y-36403873D01*
X41613371Y-36300957D01*
X41461799Y-36074114D01*
X41268886Y-35881201D01*
X41042043Y-35729629D01*
X40789989Y-35625225D01*
X40522411Y-35572000D01*
X40249589Y-35572000D01*
X39992534Y-35623132D01*
X39967545Y-35540752D01*
X39897000Y-35408774D01*
X39897000Y-35331061D01*
X39857226Y-35131102D01*
X39779205Y-34942744D01*
X39682490Y-34798000D01*
X39779205Y-34653256D01*
X39857226Y-34464898D01*
X39897000Y-34264939D01*
X39897000Y-34061061D01*
X39857226Y-33861102D01*
X39779205Y-33672744D01*
X39665937Y-33503226D01*
X39521774Y-33359063D01*
X39352256Y-33245795D01*
X39163898Y-33167774D01*
X38963939Y-33128000D01*
X38760061Y-33128000D01*
X38560102Y-33167774D01*
X38371744Y-33245795D01*
X38202226Y-33359063D01*
X38158289Y-33403000D01*
X36771711Y-33403000D01*
X36727774Y-33359063D01*
X36558256Y-33245795D01*
X36369898Y-33167774D01*
X36169939Y-33128000D01*
X35966061Y-33128000D01*
X35766102Y-33167774D01*
X35577744Y-33245795D01*
X35408226Y-33359063D01*
X35264063Y-33503226D01*
X35150795Y-33672744D01*
X35072774Y-33861102D01*
X35033000Y-34061061D01*
X35033000Y-34264939D01*
X35072774Y-34464898D01*
X35150795Y-34653256D01*
X35264063Y-34822774D01*
X35408226Y-34966937D01*
X35577744Y-35080205D01*
X35766102Y-35158226D01*
X35966061Y-35198000D01*
X36169939Y-35198000D01*
X36369898Y-35158226D01*
X36558256Y-35080205D01*
X36727774Y-34966937D01*
X36771711Y-34923000D01*
X37957987Y-34923000D01*
X37944795Y-34942744D01*
X37866774Y-35131102D01*
X37827000Y-35331061D01*
X37827000Y-35534939D01*
X37834372Y-35572000D01*
X37709589Y-35572000D01*
X37442011Y-35625225D01*
X37189957Y-35729629D01*
X36963114Y-35881201D01*
X36770201Y-36074114D01*
X36618629Y-36300957D01*
X36576000Y-36403873D01*
X36533371Y-36300957D01*
X36381799Y-36074114D01*
X36188886Y-35881201D01*
X35962043Y-35729629D01*
X35709989Y-35625225D01*
X35442411Y-35572000D01*
X35317628Y-35572000D01*
X35325000Y-35534939D01*
X35325000Y-35331061D01*
X35285226Y-35131102D01*
X35207205Y-34942744D01*
X35093937Y-34773226D01*
X34949774Y-34629063D01*
X34780256Y-34515795D01*
X34591898Y-34437774D01*
X34391939Y-34398000D01*
X34329803Y-34398000D01*
X32313804Y-32382003D01*
X32290001Y-32352999D01*
X32174276Y-32258026D01*
X32042247Y-32187454D01*
X31981842Y-32169131D01*
X31901774Y-32089063D01*
X31732256Y-31975795D01*
X31543898Y-31897774D01*
X31429404Y-31875000D01*
X32316289Y-31875000D01*
X32360226Y-31918937D01*
X32529744Y-32032205D01*
X32718102Y-32110226D01*
X32918061Y-32150000D01*
X33121939Y-32150000D01*
X33321898Y-32110226D01*
X33510256Y-32032205D01*
X33679774Y-31918937D01*
X33823937Y-31774774D01*
X33937205Y-31605256D01*
X34015226Y-31416898D01*
X34055000Y-31216939D01*
X34055000Y-31013061D01*
X34015226Y-30813102D01*
X33937205Y-30624744D01*
X33823937Y-30455226D01*
X33679774Y-30311063D01*
X33510256Y-30197795D01*
X33321898Y-30119774D01*
X33121939Y-30080000D01*
X32918061Y-30080000D01*
X32718102Y-30119774D01*
X32529744Y-30197795D01*
X32360226Y-30311063D01*
X32316289Y-30355000D01*
X31048802Y-30355000D01*
X30753000Y-30059199D01*
X30753000Y-29997061D01*
X30713226Y-29797102D01*
X30635205Y-29608744D01*
X30521937Y-29439226D01*
X30377774Y-29295063D01*
X30208256Y-29181795D01*
X30019898Y-29103774D01*
X29819939Y-29064000D01*
X29616061Y-29064000D01*
X29416102Y-29103774D01*
X29227744Y-29181795D01*
X29058226Y-29295063D01*
X28914063Y-29439226D01*
X28800795Y-29608744D01*
X28722774Y-29797102D01*
X28683000Y-29997061D01*
X28683000Y-30200939D01*
X28722774Y-30400898D01*
X28800795Y-30589256D01*
X28914063Y-30758774D01*
X29058226Y-30902937D01*
X29227744Y-31016205D01*
X29416102Y-31094226D01*
X29616061Y-31134000D01*
X29678199Y-31134000D01*
X30170201Y-31626003D01*
X30193999Y-31655001D01*
X30222997Y-31678799D01*
X30309723Y-31749974D01*
X30441753Y-31820546D01*
X30585014Y-31864003D01*
X30696667Y-31875000D01*
X30696677Y-31875000D01*
X30734000Y-31878676D01*
X30771322Y-31875000D01*
X31054596Y-31875000D01*
X30940102Y-31897774D01*
X30751744Y-31975795D01*
X30582226Y-32089063D01*
X30438063Y-32233226D01*
X30324795Y-32402744D01*
X30246774Y-32591102D01*
X30207000Y-32791061D01*
X30207000Y-32994939D01*
X30246774Y-33194898D01*
X30324795Y-33383256D01*
X30438063Y-33552774D01*
X30582226Y-33696937D01*
X30751744Y-33810205D01*
X30940102Y-33888226D01*
X31140061Y-33928000D01*
X31343939Y-33928000D01*
X31543898Y-33888226D01*
X31633366Y-33851167D01*
X33255000Y-35472803D01*
X33255000Y-35534939D01*
X33282204Y-35671706D01*
X33169989Y-35625225D01*
X32902411Y-35572000D01*
X32629589Y-35572000D01*
X32362011Y-35625225D01*
X32109957Y-35729629D01*
X31883114Y-35881201D01*
X31690201Y-36074114D01*
X31538629Y-36300957D01*
X31496000Y-36403873D01*
X31453371Y-36300957D01*
X31301799Y-36074114D01*
X31108886Y-35881201D01*
X30882043Y-35729629D01*
X30629989Y-35625225D01*
X30362411Y-35572000D01*
X30089589Y-35572000D01*
X29822011Y-35625225D01*
X29569957Y-35729629D01*
X29343114Y-35881201D01*
X29150201Y-36074114D01*
X28998629Y-36300957D01*
X28956000Y-36403873D01*
X28913371Y-36300957D01*
X28761799Y-36074114D01*
X28568886Y-35881201D01*
X28342043Y-35729629D01*
X28089989Y-35625225D01*
X27822411Y-35572000D01*
X27549589Y-35572000D01*
X27282011Y-35625225D01*
X27029957Y-35729629D01*
X26803114Y-35881201D01*
X26610201Y-36074114D01*
X26458629Y-36300957D01*
X26416000Y-36403873D01*
X26373371Y-36300957D01*
X26221799Y-36074114D01*
X26028886Y-35881201D01*
X25802043Y-35729629D01*
X25549989Y-35625225D01*
X25282411Y-35572000D01*
X25009589Y-35572000D01*
X24742011Y-35625225D01*
X24599001Y-35684462D01*
X24599001Y-30704800D01*
X29445000Y-25858802D01*
X29445000Y-25882939D01*
X29484774Y-26082898D01*
X29562795Y-26271256D01*
X29676063Y-26440774D01*
X29820226Y-26584937D01*
X29989744Y-26698205D01*
X30178102Y-26776226D01*
X30378061Y-26816000D01*
X30581939Y-26816000D01*
X30781898Y-26776226D01*
X30970256Y-26698205D01*
X31139774Y-26584937D01*
X31183711Y-26541000D01*
X38412289Y-26541000D01*
X38456226Y-26584937D01*
X38625744Y-26698205D01*
X38814102Y-26776226D01*
X39014061Y-26816000D01*
X39217939Y-26816000D01*
X39417898Y-26776226D01*
X39606256Y-26698205D01*
X39775774Y-26584937D01*
X39919937Y-26440774D01*
X40033205Y-26271256D01*
X40111226Y-26082898D01*
X40151000Y-25882939D01*
X40151000Y-25679061D01*
X40111226Y-25479102D01*
X40033205Y-25290744D01*
X39919937Y-25121226D01*
X39815711Y-25017000D01*
X40952289Y-25017000D01*
X40996226Y-25060937D01*
X41165744Y-25174205D01*
X41354102Y-25252226D01*
X41554061Y-25292000D01*
X41757939Y-25292000D01*
X41957898Y-25252226D01*
X42146256Y-25174205D01*
X42166001Y-25161012D01*
X42166000Y-29141289D01*
X42122063Y-29185226D01*
X42008795Y-29354744D01*
X41930774Y-29543102D01*
X41891000Y-29743061D01*
X41891000Y-29946939D01*
X41930774Y-30146898D01*
X42008795Y-30335256D01*
X42122063Y-30504774D01*
X42266226Y-30648937D01*
X42435744Y-30762205D01*
X42624102Y-30840226D01*
X42824061Y-30880000D01*
X43027939Y-30880000D01*
X43227898Y-30840226D01*
X43416256Y-30762205D01*
X43585774Y-30648937D01*
X43729937Y-30504774D01*
X43843205Y-30335256D01*
X43921226Y-30146898D01*
X43961000Y-29946939D01*
X43961000Y-29743061D01*
X43921226Y-29543102D01*
X43843205Y-29354744D01*
X43729937Y-29185226D01*
X43686000Y-29141289D01*
X43686000Y-22874909D01*
X43808886Y-22792799D01*
X44001799Y-22599886D01*
X44153371Y-22373043D01*
X44257775Y-22120989D01*
X44311000Y-21853411D01*
X44311000Y-21580589D01*
X44257775Y-21313011D01*
X44153371Y-21060957D01*
X44001799Y-20834114D01*
X43808886Y-20641201D01*
X43582043Y-20489629D01*
X43329989Y-20385225D01*
X43062411Y-20332000D01*
X42789589Y-20332000D01*
X42522011Y-20385225D01*
X42269957Y-20489629D01*
X42043114Y-20641201D01*
X41850201Y-20834114D01*
X41698629Y-21060957D01*
X41656000Y-21163873D01*
X41613371Y-21060957D01*
X41461799Y-20834114D01*
X41268886Y-20641201D01*
X41042043Y-20489629D01*
X40789989Y-20385225D01*
X40522411Y-20332000D01*
X40249589Y-20332000D01*
X39982011Y-20385225D01*
X39729957Y-20489629D01*
X39503114Y-20641201D01*
X39310201Y-20834114D01*
X39158629Y-21060957D01*
X39116000Y-21163873D01*
X39073371Y-21060957D01*
X38921799Y-20834114D01*
X38728886Y-20641201D01*
X38502043Y-20489629D01*
X38249989Y-20385225D01*
X37982411Y-20332000D01*
X37709589Y-20332000D01*
X37442011Y-20385225D01*
X37189957Y-20489629D01*
X36963114Y-20641201D01*
X36770201Y-20834114D01*
X36618629Y-21060957D01*
X36576000Y-21163873D01*
X36533371Y-21060957D01*
X36381799Y-20834114D01*
X36188886Y-20641201D01*
X35962043Y-20489629D01*
X35709989Y-20385225D01*
X35442411Y-20332000D01*
X35169589Y-20332000D01*
X34902011Y-20385225D01*
X34649957Y-20489629D01*
X34423114Y-20641201D01*
X34230201Y-20834114D01*
X34078629Y-21060957D01*
X34036000Y-21163873D01*
X33993371Y-21060957D01*
X33841799Y-20834114D01*
X33648886Y-20641201D01*
X33422043Y-20489629D01*
X33169989Y-20385225D01*
X32902411Y-20332000D01*
X32629589Y-20332000D01*
X32362011Y-20385225D01*
X32109957Y-20489629D01*
X31883114Y-20641201D01*
X31690201Y-20834114D01*
X31538629Y-21060957D01*
X31496000Y-21163873D01*
X31453371Y-21060957D01*
X31301799Y-20834114D01*
X31108886Y-20641201D01*
X30882043Y-20489629D01*
X30629989Y-20385225D01*
X30362411Y-20332000D01*
X30089589Y-20332000D01*
X29822011Y-20385225D01*
X29569957Y-20489629D01*
X29343114Y-20641201D01*
X29150201Y-20834114D01*
X28998629Y-21060957D01*
X28956000Y-21163873D01*
X28913371Y-21060957D01*
X28761799Y-20834114D01*
X28568886Y-20641201D01*
X28342043Y-20489629D01*
X28089989Y-20385225D01*
X27822411Y-20332000D01*
X27549589Y-20332000D01*
X27282011Y-20385225D01*
X27029957Y-20489629D01*
X26803114Y-20641201D01*
X26610201Y-20834114D01*
X26458629Y-21060957D01*
X26416000Y-21163873D01*
X26373371Y-21060957D01*
X26221799Y-20834114D01*
X26028886Y-20641201D01*
X25802043Y-20489629D01*
X25549989Y-20385225D01*
X25282411Y-20332000D01*
X25009589Y-20332000D01*
X24742011Y-20385225D01*
X24489957Y-20489629D01*
X24263114Y-20641201D01*
X24070201Y-20834114D01*
X23918629Y-21060957D01*
X23876000Y-21163873D01*
X23833371Y-21060957D01*
X23681799Y-20834114D01*
X23488886Y-20641201D01*
X23262043Y-20489629D01*
X23009989Y-20385225D01*
X22742411Y-20332000D01*
X22469589Y-20332000D01*
X22202011Y-20385225D01*
X21949957Y-20489629D01*
X21723114Y-20641201D01*
X21530201Y-20834114D01*
X21378629Y-21060957D01*
X21274225Y-21313011D01*
X21221000Y-21580589D01*
X21221000Y-21853411D01*
X21274225Y-22120989D01*
X21378629Y-22373043D01*
X21530201Y-22599886D01*
X21723114Y-22792799D01*
X21949957Y-22944371D01*
X22202011Y-23048775D01*
X22469589Y-23102000D01*
X22742411Y-23102000D01*
X23009989Y-23048775D01*
X23262043Y-22944371D01*
X23488886Y-22792799D01*
X23681799Y-22599886D01*
X23833371Y-22373043D01*
X23876000Y-22270127D01*
X23918629Y-22373043D01*
X24070201Y-22599886D01*
X24263114Y-22792799D01*
X24489957Y-22944371D01*
X24742011Y-23048775D01*
X25009589Y-23102000D01*
X25282411Y-23102000D01*
X25549989Y-23048775D01*
X25802043Y-22944371D01*
X26028886Y-22792799D01*
X26221799Y-22599886D01*
X26373371Y-22373043D01*
X26416000Y-22270127D01*
X26458629Y-22373043D01*
X26610201Y-22599886D01*
X26803114Y-22792799D01*
X27029957Y-22944371D01*
X27282011Y-23048775D01*
X27549589Y-23102000D01*
X27822411Y-23102000D01*
X28089989Y-23048775D01*
X28342043Y-22944371D01*
X28568886Y-22792799D01*
X28761799Y-22599886D01*
X28913371Y-22373043D01*
X28956000Y-22270127D01*
X28998629Y-22373043D01*
X29150201Y-22599886D01*
X29343114Y-22792799D01*
X29569957Y-22944371D01*
X29822011Y-23048775D01*
X30058402Y-23095796D01*
X23328004Y-29826195D01*
X23299000Y-29849998D01*
X23272464Y-29882333D01*
X23204027Y-29965723D01*
X23142944Y-30080000D01*
X23133455Y-30097753D01*
X23089998Y-30241014D01*
X23079001Y-30352667D01*
X23079001Y-30352677D01*
X23075325Y-30389999D01*
X23079001Y-30427321D01*
X23079002Y-35568928D01*
X21856000Y-35568928D01*
X21731518Y-35581188D01*
X21611820Y-35617498D01*
X21501506Y-35676463D01*
X21404815Y-35755815D01*
X21325463Y-35852506D01*
X21266498Y-35962820D01*
X21230188Y-36082518D01*
X21217928Y-36207000D01*
X21217928Y-37707000D01*
X21230188Y-37831482D01*
X21266498Y-37951180D01*
X21325463Y-38061494D01*
X21404815Y-38158185D01*
X21501506Y-38237537D01*
X21611820Y-38296502D01*
X21731518Y-38332812D01*
X21856000Y-38345072D01*
X23079002Y-38345072D01*
X23079002Y-40297667D01*
X23075325Y-40334999D01*
X23079002Y-40372332D01*
X23087297Y-40456546D01*
X23089999Y-40483984D01*
X23133455Y-40627245D01*
X23204027Y-40759275D01*
X23252671Y-40818547D01*
X23299001Y-40875000D01*
X23327999Y-40898798D01*
X23509921Y-41080720D01*
X23415898Y-41041774D01*
X23215939Y-41002000D01*
X23012061Y-41002000D01*
X22812102Y-41041774D01*
X22623744Y-41119795D01*
X22454226Y-41233063D01*
X22410289Y-41277000D01*
X21531711Y-41277000D01*
X21487774Y-41233063D01*
X21318256Y-41119795D01*
X21129898Y-41041774D01*
X20929939Y-41002000D01*
X20726061Y-41002000D01*
X20526102Y-41041774D01*
X20337744Y-41119795D01*
X20168226Y-41233063D01*
X20024063Y-41377226D01*
X19910795Y-41546744D01*
X19832774Y-41735102D01*
X19793000Y-41935061D01*
X19793000Y-42138939D01*
X19832774Y-42338898D01*
X19910795Y-42527256D01*
X20024063Y-42696774D01*
X20168226Y-42840937D01*
X20337744Y-42954205D01*
X20526102Y-43032226D01*
X20726061Y-43072000D01*
X20929939Y-43072000D01*
X21129898Y-43032226D01*
X21318256Y-42954205D01*
X21487774Y-42840937D01*
X21531711Y-42797000D01*
X22410289Y-42797000D01*
X22454226Y-42840937D01*
X22623744Y-42954205D01*
X22812102Y-43032226D01*
X23012061Y-43072000D01*
X23215939Y-43072000D01*
X23415898Y-43032226D01*
X23604256Y-42954205D01*
X23773774Y-42840937D01*
X23917937Y-42696774D01*
X24031205Y-42527256D01*
X24109226Y-42338898D01*
X24149000Y-42138939D01*
X24149000Y-41935061D01*
X24109226Y-41735102D01*
X24070280Y-41641079D01*
X28465722Y-46036522D01*
X28231741Y-46192863D01*
X28031863Y-46392741D01*
X27876500Y-46625259D01*
X27721137Y-46392741D01*
X27521259Y-46192863D01*
X27286227Y-46035820D01*
X27025074Y-45927647D01*
X26747835Y-45872500D01*
X26465165Y-45872500D01*
X26187926Y-45927647D01*
X25926773Y-46035820D01*
X25691741Y-46192863D01*
X25491863Y-46392741D01*
X25334820Y-46627773D01*
X25226647Y-46888926D01*
X25171500Y-47166165D01*
X25171500Y-47448835D01*
X25226647Y-47726074D01*
X25334820Y-47987227D01*
X25491863Y-48222259D01*
X25691741Y-48422137D01*
X25926773Y-48579180D01*
X26187926Y-48687353D01*
X26465165Y-48742500D01*
X26747835Y-48742500D01*
X27025074Y-48687353D01*
X27286227Y-48579180D01*
X27521259Y-48422137D01*
X27721137Y-48222259D01*
X27876500Y-47989741D01*
X28031863Y-48222259D01*
X28231741Y-48422137D01*
X28466773Y-48579180D01*
X28727926Y-48687353D01*
X29005165Y-48742500D01*
X29287835Y-48742500D01*
X29565074Y-48687353D01*
X29826227Y-48579180D01*
X30061259Y-48422137D01*
X30061296Y-48422100D01*
X32061198Y-50422002D01*
X32084997Y-50451001D01*
X32200722Y-50545974D01*
X32332751Y-50616546D01*
X32476012Y-50660003D01*
X32587665Y-50671000D01*
X32587674Y-50671000D01*
X32624997Y-50674676D01*
X32662320Y-50671000D01*
X36431315Y-50671000D01*
X36534063Y-50824774D01*
X36678226Y-50968937D01*
X36847744Y-51082205D01*
X37036102Y-51160226D01*
X37236061Y-51200000D01*
X37439939Y-51200000D01*
X37639898Y-51160226D01*
X37828256Y-51082205D01*
X37997774Y-50968937D01*
X38141937Y-50824774D01*
X38255205Y-50655256D01*
X38333226Y-50466898D01*
X38373000Y-50266939D01*
X38373000Y-50063061D01*
X38333226Y-49863102D01*
X38255205Y-49674744D01*
X38141937Y-49505226D01*
X37997774Y-49361063D01*
X37828256Y-49247795D01*
X37639898Y-49169774D01*
X37439939Y-49130000D01*
X37236061Y-49130000D01*
X37127455Y-49151603D01*
X37121333Y-49151000D01*
X37121322Y-49151000D01*
X37084000Y-49147324D01*
X37046678Y-49151000D01*
X32939800Y-49151000D01*
X32367278Y-48578478D01*
X32601259Y-48422137D01*
X32801137Y-48222259D01*
X32956500Y-47989741D01*
X33111863Y-48222259D01*
X33311741Y-48422137D01*
X33546773Y-48579180D01*
X33807926Y-48687353D01*
X34085165Y-48742500D01*
X34367835Y-48742500D01*
X34645074Y-48687353D01*
X34906227Y-48579180D01*
X35141259Y-48422137D01*
X35341137Y-48222259D01*
X35496500Y-47989741D01*
X35651863Y-48222259D01*
X35851741Y-48422137D01*
X36086773Y-48579180D01*
X36347926Y-48687353D01*
X36625165Y-48742500D01*
X36907835Y-48742500D01*
X37185074Y-48687353D01*
X37446227Y-48579180D01*
X37681259Y-48422137D01*
X37881137Y-48222259D01*
X38036500Y-47989741D01*
X38191863Y-48222259D01*
X38391741Y-48422137D01*
X38626773Y-48579180D01*
X38887926Y-48687353D01*
X39165165Y-48742500D01*
X39447835Y-48742500D01*
X39725074Y-48687353D01*
X39986227Y-48579180D01*
X40221259Y-48422137D01*
X40421137Y-48222259D01*
X40576500Y-47989741D01*
X40731863Y-48222259D01*
X40931741Y-48422137D01*
X41166773Y-48579180D01*
X41427926Y-48687353D01*
X41705165Y-48742500D01*
X41987835Y-48742500D01*
X42265074Y-48687353D01*
X42526227Y-48579180D01*
X42761259Y-48422137D01*
X42961137Y-48222259D01*
X43116500Y-47989741D01*
X43271863Y-48222259D01*
X43471741Y-48422137D01*
X43706773Y-48579180D01*
X43967926Y-48687353D01*
X44245165Y-48742500D01*
X44527835Y-48742500D01*
X44805074Y-48687353D01*
X45066227Y-48579180D01*
X45301259Y-48422137D01*
X45501137Y-48222259D01*
X45656500Y-47989741D01*
X45811863Y-48222259D01*
X46011741Y-48422137D01*
X46246773Y-48579180D01*
X46507926Y-48687353D01*
X46785165Y-48742500D01*
X47067835Y-48742500D01*
X47345074Y-48687353D01*
X47606227Y-48579180D01*
X47841259Y-48422137D01*
X48041137Y-48222259D01*
X48196500Y-47989741D01*
X48351863Y-48222259D01*
X48551741Y-48422137D01*
X48786773Y-48579180D01*
X49047926Y-48687353D01*
X49325165Y-48742500D01*
X49607835Y-48742500D01*
X49885074Y-48687353D01*
X50146227Y-48579180D01*
X50381259Y-48422137D01*
X50581137Y-48222259D01*
X50736500Y-47989741D01*
X50891863Y-48222259D01*
X51091741Y-48422137D01*
X51326773Y-48579180D01*
X51587926Y-48687353D01*
X51865165Y-48742500D01*
X52147835Y-48742500D01*
X52425074Y-48687353D01*
X52686227Y-48579180D01*
X52921259Y-48422137D01*
X53121137Y-48222259D01*
X53278180Y-47987227D01*
X53282567Y-47976635D01*
X53394115Y-48162631D01*
X53583086Y-48371019D01*
X53809080Y-48538537D01*
X54063413Y-48658746D01*
X54197461Y-48699404D01*
X54419500Y-48577415D01*
X54419500Y-47434500D01*
X54399500Y-47434500D01*
X54399500Y-47180500D01*
X54419500Y-47180500D01*
X54419500Y-46037585D01*
X54673500Y-46037585D01*
X54673500Y-47180500D01*
X54693500Y-47180500D01*
X54693500Y-47434500D01*
X54673500Y-47434500D01*
X54673500Y-48577415D01*
X54895539Y-48699404D01*
X55029587Y-48658746D01*
X55283920Y-48538537D01*
X55509914Y-48371019D01*
X55698885Y-48162631D01*
X55810433Y-47976635D01*
X55814820Y-47987227D01*
X55971863Y-48222259D01*
X56171741Y-48422137D01*
X56406773Y-48579180D01*
X56667926Y-48687353D01*
X56945165Y-48742500D01*
X57227835Y-48742500D01*
X57505074Y-48687353D01*
X57766227Y-48579180D01*
X58001259Y-48422137D01*
X58201137Y-48222259D01*
X58356500Y-47989741D01*
X58511863Y-48222259D01*
X58711741Y-48422137D01*
X58946773Y-48579180D01*
X59207926Y-48687353D01*
X59485165Y-48742500D01*
X59767835Y-48742500D01*
X60045074Y-48687353D01*
X60306227Y-48579180D01*
X60541259Y-48422137D01*
X60739857Y-48223539D01*
X60740688Y-48231982D01*
X60776998Y-48351680D01*
X60835963Y-48461994D01*
X60915315Y-48558685D01*
X61012006Y-48638037D01*
X61122320Y-48697002D01*
X61242018Y-48733312D01*
X61366500Y-48745572D01*
X61406501Y-48745572D01*
X61406500Y-55271178D01*
X61402824Y-55308500D01*
X61406500Y-55345822D01*
X61406500Y-55345832D01*
X61417497Y-55457485D01*
X61444620Y-55546898D01*
X61460954Y-55600746D01*
X61531526Y-55732776D01*
X61558790Y-55765997D01*
X61626499Y-55848501D01*
X61655503Y-55872304D01*
X65222200Y-59439002D01*
X65245999Y-59468001D01*
X65274997Y-59491799D01*
X65361723Y-59562974D01*
X65493753Y-59633546D01*
X65637014Y-59677003D01*
X65748667Y-59688000D01*
X65748677Y-59688000D01*
X65786000Y-59691676D01*
X65823322Y-59688000D01*
X70043199Y-59688000D01*
X72392001Y-62036803D01*
X72392000Y-62796289D01*
X72348063Y-62840226D01*
X72234795Y-63009744D01*
X72156774Y-63198102D01*
X72117000Y-63398061D01*
X72117000Y-63601939D01*
X72156774Y-63801898D01*
X72234795Y-63990256D01*
X72348063Y-64159774D01*
X72492226Y-64303937D01*
X72661744Y-64417205D01*
X72850102Y-64495226D01*
X73050061Y-64535000D01*
X73253939Y-64535000D01*
X73453898Y-64495226D01*
X73642256Y-64417205D01*
X73811774Y-64303937D01*
X73955937Y-64159774D01*
X74069205Y-63990256D01*
X74147226Y-63801898D01*
X74187000Y-63601939D01*
X74187000Y-63398061D01*
X74147226Y-63198102D01*
X74069205Y-63009744D01*
X73955937Y-62840226D01*
X73912000Y-62796289D01*
X73912000Y-61759325D01*
X73915676Y-61722000D01*
X73912000Y-61684675D01*
X73912000Y-61684667D01*
X73901003Y-61573014D01*
X73857546Y-61429753D01*
X73786974Y-61297724D01*
X73692001Y-61181999D01*
X73663003Y-61158201D01*
X70921804Y-58417003D01*
X70898001Y-58387999D01*
X70782276Y-58293026D01*
X70650247Y-58222454D01*
X70506986Y-58178997D01*
X70395333Y-58168000D01*
X70395322Y-58168000D01*
X70358000Y-58164324D01*
X70320678Y-58168000D01*
X66100802Y-58168000D01*
X64345863Y-56413061D01*
X65513000Y-56413061D01*
X65513000Y-56616939D01*
X65552774Y-56816898D01*
X65630795Y-57005256D01*
X65744063Y-57174774D01*
X65888226Y-57318937D01*
X66057744Y-57432205D01*
X66246102Y-57510226D01*
X66446061Y-57550000D01*
X66649939Y-57550000D01*
X66849898Y-57510226D01*
X67038256Y-57432205D01*
X67207774Y-57318937D01*
X67251711Y-57275000D01*
X69908289Y-57275000D01*
X69952226Y-57318937D01*
X70121744Y-57432205D01*
X70310102Y-57510226D01*
X70510061Y-57550000D01*
X70713939Y-57550000D01*
X70913898Y-57510226D01*
X71102256Y-57432205D01*
X71271774Y-57318937D01*
X71415937Y-57174774D01*
X71529205Y-57005256D01*
X71607226Y-56816898D01*
X71647000Y-56616939D01*
X71647000Y-56413061D01*
X71607226Y-56213102D01*
X71529205Y-56024744D01*
X71415937Y-55855226D01*
X71271774Y-55711063D01*
X71102256Y-55597795D01*
X70913898Y-55519774D01*
X70713939Y-55480000D01*
X70510061Y-55480000D01*
X70310102Y-55519774D01*
X70121744Y-55597795D01*
X69952226Y-55711063D01*
X69908289Y-55755000D01*
X67251711Y-55755000D01*
X67207774Y-55711063D01*
X67038256Y-55597795D01*
X66849898Y-55519774D01*
X66649939Y-55480000D01*
X66446061Y-55480000D01*
X66246102Y-55519774D01*
X66057744Y-55597795D01*
X65888226Y-55711063D01*
X65744063Y-55855226D01*
X65630795Y-56024744D01*
X65552774Y-56213102D01*
X65513000Y-56413061D01*
X64345863Y-56413061D01*
X62926500Y-54993699D01*
X62926500Y-48745572D01*
X62966500Y-48745572D01*
X63090982Y-48733312D01*
X63210680Y-48697002D01*
X63320994Y-48638037D01*
X63417685Y-48558685D01*
X63497037Y-48461994D01*
X63556002Y-48351680D01*
X63592312Y-48231982D01*
X63604572Y-48107500D01*
X63604572Y-46507500D01*
X63592312Y-46383018D01*
X63556002Y-46263320D01*
X63497037Y-46153006D01*
X63417685Y-46056315D01*
X63320994Y-45976963D01*
X63210680Y-45917998D01*
X63090982Y-45881688D01*
X62966500Y-45869428D01*
X61366500Y-45869428D01*
X61242018Y-45881688D01*
X61122320Y-45917998D01*
X61012006Y-45976963D01*
X60915315Y-46056315D01*
X60835963Y-46153006D01*
X60776998Y-46263320D01*
X60740688Y-46383018D01*
X60739857Y-46391461D01*
X60541259Y-46192863D01*
X60306227Y-46035820D01*
X60045074Y-45927647D01*
X59767835Y-45872500D01*
X59485165Y-45872500D01*
X59207926Y-45927647D01*
X58946773Y-46035820D01*
X58711741Y-46192863D01*
X58511863Y-46392741D01*
X58356500Y-46625259D01*
X58201137Y-46392741D01*
X58001259Y-46192863D01*
X57766227Y-46035820D01*
X57505074Y-45927647D01*
X57227835Y-45872500D01*
X56945165Y-45872500D01*
X56667926Y-45927647D01*
X56406773Y-46035820D01*
X56171741Y-46192863D01*
X55971863Y-46392741D01*
X55814820Y-46627773D01*
X55810433Y-46638365D01*
X55698885Y-46452369D01*
X55509914Y-46243981D01*
X55283920Y-46076463D01*
X55029587Y-45956254D01*
X54895539Y-45915596D01*
X54673500Y-46037585D01*
X54419500Y-46037585D01*
X54197461Y-45915596D01*
X54063413Y-45956254D01*
X53809080Y-46076463D01*
X53583086Y-46243981D01*
X53394115Y-46452369D01*
X53282567Y-46638365D01*
X53278180Y-46627773D01*
X53121137Y-46392741D01*
X52921259Y-46192863D01*
X52686227Y-46035820D01*
X52425074Y-45927647D01*
X52147835Y-45872500D01*
X51865165Y-45872500D01*
X51587926Y-45927647D01*
X51326773Y-46035820D01*
X51091741Y-46192863D01*
X50891863Y-46392741D01*
X50736500Y-46625259D01*
X50581137Y-46392741D01*
X50381259Y-46192863D01*
X50146227Y-46035820D01*
X49885074Y-45927647D01*
X49607835Y-45872500D01*
X49325165Y-45872500D01*
X49047926Y-45927647D01*
X48786773Y-46035820D01*
X48551741Y-46192863D01*
X48351863Y-46392741D01*
X48196500Y-46625259D01*
X48041137Y-46392741D01*
X47841259Y-46192863D01*
X47606227Y-46035820D01*
X47345074Y-45927647D01*
X47067835Y-45872500D01*
X46785165Y-45872500D01*
X46507926Y-45927647D01*
X46246773Y-46035820D01*
X46011741Y-46192863D01*
X45811863Y-46392741D01*
X45656500Y-46625259D01*
X45501137Y-46392741D01*
X45301259Y-46192863D01*
X45066227Y-46035820D01*
X44805074Y-45927647D01*
X44527835Y-45872500D01*
X44245165Y-45872500D01*
X43967926Y-45927647D01*
X43706773Y-46035820D01*
X43471741Y-46192863D01*
X43271863Y-46392741D01*
X43116500Y-46625259D01*
X42961137Y-46392741D01*
X42761259Y-46192863D01*
X42526227Y-46035820D01*
X42265074Y-45927647D01*
X41987835Y-45872500D01*
X41705165Y-45872500D01*
X41427926Y-45927647D01*
X41166773Y-46035820D01*
X40931741Y-46192863D01*
X40731863Y-46392741D01*
X40576500Y-46625259D01*
X40421137Y-46392741D01*
X40221259Y-46192863D01*
X39986227Y-46035820D01*
X39725074Y-45927647D01*
X39447835Y-45872500D01*
X39165165Y-45872500D01*
X38887926Y-45927647D01*
X38626773Y-46035820D01*
X38391741Y-46192863D01*
X38191863Y-46392741D01*
X38036500Y-46625259D01*
X37881137Y-46392741D01*
X37681259Y-46192863D01*
X37446227Y-46035820D01*
X37185074Y-45927647D01*
X36907835Y-45872500D01*
X36625165Y-45872500D01*
X36347926Y-45927647D01*
X36086773Y-46035820D01*
X35851741Y-46192863D01*
X35651863Y-46392741D01*
X35496500Y-46625259D01*
X35341137Y-46392741D01*
X35141259Y-46192863D01*
X34986500Y-46089457D01*
X34986500Y-45336301D01*
X35239802Y-45083000D01*
X42507678Y-45083000D01*
X42545000Y-45086676D01*
X42582322Y-45083000D01*
X42582333Y-45083000D01*
X42693986Y-45072003D01*
X42837247Y-45028546D01*
X42969276Y-44957974D01*
X43085001Y-44863001D01*
X43108804Y-44833997D01*
X48868003Y-39074799D01*
X48897001Y-39051001D01*
X48991974Y-38935276D01*
X49062546Y-38803247D01*
X49106003Y-38659986D01*
X49117000Y-38548333D01*
X49117000Y-38548324D01*
X49120676Y-38511001D01*
X49117000Y-38473678D01*
X49117000Y-35295408D01*
X57033000Y-35295408D01*
X57033000Y-35570592D01*
X57086686Y-35840490D01*
X57191995Y-36094727D01*
X57344880Y-36323535D01*
X57539465Y-36518120D01*
X57768273Y-36671005D01*
X58022510Y-36776314D01*
X58292408Y-36830000D01*
X58567592Y-36830000D01*
X58837490Y-36776314D01*
X59091727Y-36671005D01*
X59320535Y-36518120D01*
X59515120Y-36323535D01*
X59668005Y-36094727D01*
X59773314Y-35840490D01*
X59827000Y-35570592D01*
X59827000Y-35295408D01*
X59773314Y-35025510D01*
X59668005Y-34771273D01*
X59601005Y-34671000D01*
X64629928Y-34671000D01*
X64629928Y-36195000D01*
X64642188Y-36319482D01*
X64678498Y-36439180D01*
X64737463Y-36549494D01*
X64816815Y-36646185D01*
X64913506Y-36725537D01*
X65023820Y-36784502D01*
X65143518Y-36820812D01*
X65268000Y-36833072D01*
X66792000Y-36833072D01*
X66916482Y-36820812D01*
X67036180Y-36784502D01*
X67146494Y-36725537D01*
X67243185Y-36646185D01*
X67322537Y-36549494D01*
X67381502Y-36439180D01*
X67417812Y-36319482D01*
X67430072Y-36195000D01*
X67430072Y-34671000D01*
X67417812Y-34546518D01*
X67381502Y-34426820D01*
X67322537Y-34316506D01*
X67243185Y-34219815D01*
X67146494Y-34140463D01*
X67036180Y-34081498D01*
X66916482Y-34045188D01*
X66792000Y-34032928D01*
X65268000Y-34032928D01*
X65143518Y-34045188D01*
X65023820Y-34081498D01*
X64913506Y-34140463D01*
X64816815Y-34219815D01*
X64737463Y-34316506D01*
X64678498Y-34426820D01*
X64642188Y-34546518D01*
X64629928Y-34671000D01*
X59601005Y-34671000D01*
X59515120Y-34542465D01*
X59320535Y-34347880D01*
X59091727Y-34194995D01*
X58837490Y-34089686D01*
X58567592Y-34036000D01*
X58292408Y-34036000D01*
X58022510Y-34089686D01*
X57768273Y-34194995D01*
X57539465Y-34347880D01*
X57344880Y-34542465D01*
X57191995Y-34771273D01*
X57086686Y-35025510D01*
X57033000Y-35295408D01*
X49117000Y-35295408D01*
X49117000Y-31302801D01*
X60003430Y-20416372D01*
X60157408Y-20447000D01*
X60432592Y-20447000D01*
X60702490Y-20393314D01*
X60956727Y-20288005D01*
X61185535Y-20135120D01*
X61305090Y-20015565D01*
X62049040Y-20015565D01*
X62116020Y-20255656D01*
X62365048Y-20372756D01*
X62632135Y-20439023D01*
X62907017Y-20451910D01*
X63179133Y-20410922D01*
X63438023Y-20317636D01*
X63553980Y-20255656D01*
X63620960Y-20015565D01*
X62835000Y-19229605D01*
X62049040Y-20015565D01*
X61305090Y-20015565D01*
X61380120Y-19940535D01*
X61533005Y-19711727D01*
X61562692Y-19640057D01*
X61567364Y-19653023D01*
X61629344Y-19768980D01*
X61869435Y-19835960D01*
X62655395Y-19050000D01*
X63014605Y-19050000D01*
X63800565Y-19835960D01*
X64040656Y-19768980D01*
X64157756Y-19519952D01*
X64224023Y-19252865D01*
X64236910Y-18977983D01*
X64195922Y-18705867D01*
X64102636Y-18446977D01*
X64040656Y-18331020D01*
X63800565Y-18264040D01*
X63014605Y-19050000D01*
X62655395Y-19050000D01*
X61869435Y-18264040D01*
X61629344Y-18331020D01*
X61565515Y-18466760D01*
X61533005Y-18388273D01*
X61380120Y-18159465D01*
X61185535Y-17964880D01*
X60956727Y-17811995D01*
X60939840Y-17805000D01*
X62189628Y-17805000D01*
X62116020Y-17844344D01*
X62049040Y-18084435D01*
X62835000Y-18870395D01*
X63620960Y-18084435D01*
X63553980Y-17844344D01*
X63470310Y-17805000D01*
X81128000Y-17805000D01*
X81128001Y-86081000D01*
X17932000Y-86081000D01*
X17932000Y-79726000D01*
X24350928Y-79726000D01*
X24350928Y-82326000D01*
X24363188Y-82450482D01*
X24399498Y-82570180D01*
X24458463Y-82680494D01*
X24537815Y-82777185D01*
X24634506Y-82856537D01*
X24744820Y-82915502D01*
X24864518Y-82951812D01*
X24989000Y-82964072D01*
X27589000Y-82964072D01*
X27713482Y-82951812D01*
X27833180Y-82915502D01*
X27943494Y-82856537D01*
X28040185Y-82777185D01*
X28119537Y-82680494D01*
X28178502Y-82570180D01*
X28214812Y-82450482D01*
X28227072Y-82326000D01*
X28227072Y-82252117D01*
X38651000Y-82252117D01*
X38651000Y-82593883D01*
X38717675Y-82929081D01*
X38848463Y-83244831D01*
X39038337Y-83528998D01*
X39280002Y-83770663D01*
X39564169Y-83960537D01*
X39879919Y-84091325D01*
X40215117Y-84158000D01*
X40556883Y-84158000D01*
X40892081Y-84091325D01*
X41207831Y-83960537D01*
X41491998Y-83770663D01*
X41733663Y-83528998D01*
X41923537Y-83244831D01*
X42054325Y-82929081D01*
X42121000Y-82593883D01*
X42121000Y-82252117D01*
X42054325Y-81916919D01*
X41923537Y-81601169D01*
X41737671Y-81323000D01*
X48807928Y-81323000D01*
X48807928Y-83523000D01*
X48820188Y-83647482D01*
X48856498Y-83767180D01*
X48915463Y-83877494D01*
X48994815Y-83974185D01*
X49091506Y-84053537D01*
X49201820Y-84112502D01*
X49321518Y-84148812D01*
X49446000Y-84161072D01*
X51646000Y-84161072D01*
X51770482Y-84148812D01*
X51890180Y-84112502D01*
X52000494Y-84053537D01*
X52097185Y-83974185D01*
X52176537Y-83877494D01*
X52235502Y-83767180D01*
X52271812Y-83647482D01*
X52284072Y-83523000D01*
X52284072Y-81323000D01*
X52271812Y-81198518D01*
X52235502Y-81078820D01*
X52176537Y-80968506D01*
X52097185Y-80871815D01*
X52000494Y-80792463D01*
X51890180Y-80733498D01*
X51770482Y-80697188D01*
X51646000Y-80684928D01*
X49446000Y-80684928D01*
X49321518Y-80697188D01*
X49201820Y-80733498D01*
X49091506Y-80792463D01*
X48994815Y-80871815D01*
X48915463Y-80968506D01*
X48856498Y-81078820D01*
X48820188Y-81198518D01*
X48807928Y-81323000D01*
X41737671Y-81323000D01*
X41733663Y-81317002D01*
X41491998Y-81075337D01*
X41207831Y-80885463D01*
X40892081Y-80754675D01*
X40556883Y-80688000D01*
X40215117Y-80688000D01*
X39879919Y-80754675D01*
X39564169Y-80885463D01*
X39280002Y-81075337D01*
X39038337Y-81317002D01*
X38848463Y-81601169D01*
X38717675Y-81916919D01*
X38651000Y-82252117D01*
X28227072Y-82252117D01*
X28227072Y-79726000D01*
X28214812Y-79601518D01*
X28178502Y-79481820D01*
X28119537Y-79371506D01*
X28040185Y-79274815D01*
X27943494Y-79195463D01*
X27833180Y-79136498D01*
X27713482Y-79100188D01*
X27589000Y-79087928D01*
X24989000Y-79087928D01*
X24864518Y-79100188D01*
X24744820Y-79136498D01*
X24634506Y-79195463D01*
X24537815Y-79274815D01*
X24458463Y-79371506D01*
X24399498Y-79481820D01*
X24363188Y-79601518D01*
X24350928Y-79726000D01*
X17932000Y-79726000D01*
X17932000Y-78217665D01*
X33871000Y-78217665D01*
X33871000Y-78500335D01*
X33926147Y-78777574D01*
X34034320Y-79038727D01*
X34191363Y-79273759D01*
X34391241Y-79473637D01*
X34626273Y-79630680D01*
X34887426Y-79738853D01*
X35164665Y-79794000D01*
X35447335Y-79794000D01*
X35724574Y-79738853D01*
X35985727Y-79630680D01*
X36220759Y-79473637D01*
X36420637Y-79273759D01*
X36577680Y-79038727D01*
X36685853Y-78777574D01*
X36741000Y-78500335D01*
X36741000Y-78217665D01*
X38951000Y-78217665D01*
X38951000Y-78500335D01*
X39006147Y-78777574D01*
X39114320Y-79038727D01*
X39271363Y-79273759D01*
X39471241Y-79473637D01*
X39706273Y-79630680D01*
X39967426Y-79738853D01*
X40244665Y-79794000D01*
X40527335Y-79794000D01*
X40804574Y-79738853D01*
X41065727Y-79630680D01*
X41300759Y-79473637D01*
X41335694Y-79438702D01*
X72084903Y-79438702D01*
X72156486Y-79682671D01*
X72411996Y-79803571D01*
X72686184Y-79872300D01*
X72968512Y-79886217D01*
X73248130Y-79844787D01*
X73514292Y-79749603D01*
X73639514Y-79682671D01*
X73711097Y-79438702D01*
X72898000Y-78625605D01*
X72084903Y-79438702D01*
X41335694Y-79438702D01*
X41500637Y-79273759D01*
X41657680Y-79038727D01*
X41751716Y-78811702D01*
X58622903Y-78811702D01*
X58694486Y-79055671D01*
X58949996Y-79176571D01*
X59224184Y-79245300D01*
X59506512Y-79259217D01*
X59786130Y-79217787D01*
X60052292Y-79122603D01*
X60177514Y-79055671D01*
X60249097Y-78811702D01*
X59436000Y-77998605D01*
X58622903Y-78811702D01*
X41751716Y-78811702D01*
X41765853Y-78777574D01*
X41821000Y-78500335D01*
X41821000Y-78217665D01*
X41765853Y-77940426D01*
X41744764Y-77889512D01*
X57995783Y-77889512D01*
X58037213Y-78169130D01*
X58132397Y-78435292D01*
X58199329Y-78560514D01*
X58443298Y-78632097D01*
X59256395Y-77819000D01*
X59242253Y-77804858D01*
X59421858Y-77625253D01*
X59436000Y-77639395D01*
X59450143Y-77625253D01*
X59629748Y-77804858D01*
X59615605Y-77819000D01*
X60428702Y-78632097D01*
X60672671Y-78560514D01*
X60693491Y-78516512D01*
X71457783Y-78516512D01*
X71499213Y-78796130D01*
X71594397Y-79062292D01*
X71661329Y-79187514D01*
X71905298Y-79259097D01*
X72718395Y-78446000D01*
X73077605Y-78446000D01*
X73890702Y-79259097D01*
X74134671Y-79187514D01*
X74255571Y-78932004D01*
X74324300Y-78657816D01*
X74338217Y-78375488D01*
X74296787Y-78095870D01*
X74201603Y-77829708D01*
X74134671Y-77704486D01*
X73890702Y-77632903D01*
X73077605Y-78446000D01*
X72718395Y-78446000D01*
X71905298Y-77632903D01*
X71661329Y-77704486D01*
X71540429Y-77959996D01*
X71471700Y-78234184D01*
X71457783Y-78516512D01*
X60693491Y-78516512D01*
X60793571Y-78305004D01*
X60862300Y-78030816D01*
X60876217Y-77748488D01*
X60834787Y-77468870D01*
X60739603Y-77202708D01*
X60674384Y-77080691D01*
X60687185Y-77070185D01*
X60766537Y-76973494D01*
X60825502Y-76863180D01*
X60861812Y-76743482D01*
X60874072Y-76619000D01*
X60874072Y-75146000D01*
X71459928Y-75146000D01*
X71459928Y-76746000D01*
X71472188Y-76870482D01*
X71508498Y-76990180D01*
X71567463Y-77100494D01*
X71646815Y-77197185D01*
X71743506Y-77276537D01*
X71853820Y-77335502D01*
X71973518Y-77371812D01*
X72098000Y-77384072D01*
X72105215Y-77384072D01*
X72084903Y-77453298D01*
X72898000Y-78266395D01*
X73711097Y-77453298D01*
X73690785Y-77384072D01*
X73698000Y-77384072D01*
X73822482Y-77371812D01*
X73942180Y-77335502D01*
X74052494Y-77276537D01*
X74149185Y-77197185D01*
X74228537Y-77100494D01*
X74287502Y-76990180D01*
X74323812Y-76870482D01*
X74336072Y-76746000D01*
X74336072Y-75146000D01*
X74323812Y-75021518D01*
X74287502Y-74901820D01*
X74228537Y-74791506D01*
X74149185Y-74694815D01*
X74052494Y-74615463D01*
X73942180Y-74556498D01*
X73822482Y-74520188D01*
X73698000Y-74507928D01*
X72098000Y-74507928D01*
X71973518Y-74520188D01*
X71853820Y-74556498D01*
X71743506Y-74615463D01*
X71646815Y-74694815D01*
X71567463Y-74791506D01*
X71508498Y-74901820D01*
X71472188Y-75021518D01*
X71459928Y-75146000D01*
X60874072Y-75146000D01*
X60874072Y-75019000D01*
X60861812Y-74894518D01*
X60825502Y-74774820D01*
X60766537Y-74664506D01*
X60687185Y-74567815D01*
X60590494Y-74488463D01*
X60480180Y-74429498D01*
X60360482Y-74393188D01*
X60236000Y-74380928D01*
X58636000Y-74380928D01*
X58511518Y-74393188D01*
X58391820Y-74429498D01*
X58281506Y-74488463D01*
X58184815Y-74567815D01*
X58105463Y-74664506D01*
X58046498Y-74774820D01*
X58010188Y-74894518D01*
X57997928Y-75019000D01*
X57997928Y-76619000D01*
X58010188Y-76743482D01*
X58046498Y-76863180D01*
X58105463Y-76973494D01*
X58184815Y-77070185D01*
X58197758Y-77080807D01*
X58078429Y-77332996D01*
X58009700Y-77607184D01*
X57995783Y-77889512D01*
X41744764Y-77889512D01*
X41657680Y-77679273D01*
X41500637Y-77444241D01*
X41300759Y-77244363D01*
X41065727Y-77087320D01*
X40804574Y-76979147D01*
X40527335Y-76924000D01*
X40244665Y-76924000D01*
X39967426Y-76979147D01*
X39706273Y-77087320D01*
X39471241Y-77244363D01*
X39271363Y-77444241D01*
X39114320Y-77679273D01*
X39006147Y-77940426D01*
X38951000Y-78217665D01*
X36741000Y-78217665D01*
X36685853Y-77940426D01*
X36577680Y-77679273D01*
X36420637Y-77444241D01*
X36220759Y-77244363D01*
X35985727Y-77087320D01*
X35724574Y-76979147D01*
X35447335Y-76924000D01*
X35164665Y-76924000D01*
X34887426Y-76979147D01*
X34626273Y-77087320D01*
X34391241Y-77244363D01*
X34191363Y-77444241D01*
X34034320Y-77679273D01*
X33926147Y-77940426D01*
X33871000Y-78217665D01*
X17932000Y-78217665D01*
X17932000Y-77295224D01*
X25119381Y-77295224D01*
X25251317Y-77590312D01*
X25592045Y-77761159D01*
X25959557Y-77862250D01*
X26339729Y-77889701D01*
X26717951Y-77842457D01*
X27079690Y-77722333D01*
X27326683Y-77590312D01*
X27458619Y-77295224D01*
X26289000Y-76125605D01*
X25119381Y-77295224D01*
X17932000Y-77295224D01*
X17932000Y-75996729D01*
X24345299Y-75996729D01*
X24392543Y-76374951D01*
X24512667Y-76736690D01*
X24644688Y-76983683D01*
X24939776Y-77115619D01*
X26109395Y-75946000D01*
X26468605Y-75946000D01*
X27638224Y-77115619D01*
X27933312Y-76983683D01*
X28104159Y-76642955D01*
X28205250Y-76275443D01*
X28232701Y-75895271D01*
X28185457Y-75517049D01*
X28065333Y-75155310D01*
X27933312Y-74908317D01*
X27638224Y-74776381D01*
X26468605Y-75946000D01*
X26109395Y-75946000D01*
X24939776Y-74776381D01*
X24644688Y-74908317D01*
X24473841Y-75249045D01*
X24372750Y-75616557D01*
X24345299Y-75996729D01*
X17932000Y-75996729D01*
X17932000Y-74596776D01*
X25119381Y-74596776D01*
X26289000Y-75766395D01*
X27458619Y-74596776D01*
X27326683Y-74301688D01*
X26985955Y-74130841D01*
X26618443Y-74029750D01*
X26238271Y-74002299D01*
X25860049Y-74049543D01*
X25498310Y-74169667D01*
X25251317Y-74301688D01*
X25119381Y-74596776D01*
X17932000Y-74596776D01*
X17932000Y-70675419D01*
X24354000Y-70675419D01*
X24354000Y-71056581D01*
X24428361Y-71430419D01*
X24574225Y-71782566D01*
X24785987Y-72099491D01*
X25055509Y-72369013D01*
X25372434Y-72580775D01*
X25724581Y-72726639D01*
X26098419Y-72801000D01*
X26479581Y-72801000D01*
X26853419Y-72726639D01*
X27205566Y-72580775D01*
X27522491Y-72369013D01*
X27792013Y-72099491D01*
X28003775Y-71782566D01*
X28149639Y-71430419D01*
X28224000Y-71056581D01*
X28224000Y-70675419D01*
X28149639Y-70301581D01*
X28003775Y-69949434D01*
X27792013Y-69632509D01*
X27522491Y-69362987D01*
X27324959Y-69231000D01*
X59115428Y-69231000D01*
X59115428Y-71231000D01*
X59127688Y-71355482D01*
X59163998Y-71475180D01*
X59222963Y-71585494D01*
X59302315Y-71682185D01*
X59399006Y-71761537D01*
X59509320Y-71820502D01*
X59629018Y-71856812D01*
X59753500Y-71869072D01*
X61658500Y-71869072D01*
X61782982Y-71856812D01*
X61902680Y-71820502D01*
X62012994Y-71761537D01*
X62109685Y-71682185D01*
X62189037Y-71585494D01*
X62238059Y-71493781D01*
X62379077Y-71606969D01*
X62654906Y-71750571D01*
X62873020Y-71821563D01*
X63119000Y-71701594D01*
X63119000Y-70358000D01*
X63099000Y-70358000D01*
X63099000Y-70104000D01*
X63119000Y-70104000D01*
X63119000Y-68760406D01*
X63373000Y-68760406D01*
X63373000Y-70104000D01*
X63393000Y-70104000D01*
X63393000Y-70358000D01*
X63373000Y-70358000D01*
X63373000Y-71701594D01*
X63618980Y-71821563D01*
X63837094Y-71750571D01*
X64112923Y-71606969D01*
X64355437Y-71412315D01*
X64510837Y-71227101D01*
X64658037Y-71406463D01*
X64899766Y-71604845D01*
X65175552Y-71752255D01*
X65474797Y-71843030D01*
X65786000Y-71873681D01*
X66097204Y-71843030D01*
X66396449Y-71752255D01*
X66672235Y-71604845D01*
X66913963Y-71406463D01*
X67112345Y-71164734D01*
X67259755Y-70888948D01*
X67350530Y-70589703D01*
X67373500Y-70356485D01*
X67373500Y-70105514D01*
X67350530Y-69872296D01*
X67259755Y-69573051D01*
X67112345Y-69297265D01*
X66913963Y-69055537D01*
X66672234Y-68857155D01*
X66396448Y-68709745D01*
X66097203Y-68618970D01*
X65786000Y-68588319D01*
X65474796Y-68618970D01*
X65175551Y-68709745D01*
X64899765Y-68857155D01*
X64658037Y-69055537D01*
X64510838Y-69234900D01*
X64355437Y-69049685D01*
X64112923Y-68855031D01*
X63837094Y-68711429D01*
X63618980Y-68640437D01*
X63373000Y-68760406D01*
X63119000Y-68760406D01*
X62873020Y-68640437D01*
X62654906Y-68711429D01*
X62379077Y-68855031D01*
X62238059Y-68968219D01*
X62189037Y-68876506D01*
X62109685Y-68779815D01*
X62012994Y-68700463D01*
X61902680Y-68641498D01*
X61782982Y-68605188D01*
X61658500Y-68592928D01*
X59753500Y-68592928D01*
X59629018Y-68605188D01*
X59509320Y-68641498D01*
X59399006Y-68700463D01*
X59302315Y-68779815D01*
X59222963Y-68876506D01*
X59163998Y-68986820D01*
X59127688Y-69106518D01*
X59115428Y-69231000D01*
X27324959Y-69231000D01*
X27205566Y-69151225D01*
X26853419Y-69005361D01*
X26479581Y-68931000D01*
X26098419Y-68931000D01*
X25724581Y-69005361D01*
X25372434Y-69151225D01*
X25055509Y-69362987D01*
X24785987Y-69632509D01*
X24574225Y-69949434D01*
X24428361Y-70301581D01*
X24354000Y-70675419D01*
X17932000Y-70675419D01*
X17932000Y-62406165D01*
X25171500Y-62406165D01*
X25171500Y-62688835D01*
X25226647Y-62966074D01*
X25334820Y-63227227D01*
X25491863Y-63462259D01*
X25691741Y-63662137D01*
X25926773Y-63819180D01*
X26187926Y-63927353D01*
X26465165Y-63982500D01*
X26747835Y-63982500D01*
X27025074Y-63927353D01*
X27286227Y-63819180D01*
X27521259Y-63662137D01*
X27721137Y-63462259D01*
X27876500Y-63229741D01*
X28031863Y-63462259D01*
X28231741Y-63662137D01*
X28466773Y-63819180D01*
X28727926Y-63927353D01*
X29005165Y-63982500D01*
X29287835Y-63982500D01*
X29565074Y-63927353D01*
X29826227Y-63819180D01*
X30061259Y-63662137D01*
X30261137Y-63462259D01*
X30416500Y-63229741D01*
X30571863Y-63462259D01*
X30771741Y-63662137D01*
X31006773Y-63819180D01*
X31267926Y-63927353D01*
X31545165Y-63982500D01*
X31827835Y-63982500D01*
X32105074Y-63927353D01*
X32366227Y-63819180D01*
X32601259Y-63662137D01*
X32801137Y-63462259D01*
X32956500Y-63229741D01*
X33111863Y-63462259D01*
X33311741Y-63662137D01*
X33546773Y-63819180D01*
X33807926Y-63927353D01*
X34085165Y-63982500D01*
X34367835Y-63982500D01*
X34645074Y-63927353D01*
X34906227Y-63819180D01*
X35141259Y-63662137D01*
X35341137Y-63462259D01*
X35496500Y-63229741D01*
X35651863Y-63462259D01*
X35851741Y-63662137D01*
X36086773Y-63819180D01*
X36347926Y-63927353D01*
X36625165Y-63982500D01*
X36907835Y-63982500D01*
X37185074Y-63927353D01*
X37446227Y-63819180D01*
X37681259Y-63662137D01*
X37881137Y-63462259D01*
X38036500Y-63229741D01*
X38191863Y-63462259D01*
X38391741Y-63662137D01*
X38626773Y-63819180D01*
X38887926Y-63927353D01*
X39165165Y-63982500D01*
X39447835Y-63982500D01*
X39725074Y-63927353D01*
X39986227Y-63819180D01*
X40221259Y-63662137D01*
X40421137Y-63462259D01*
X40576500Y-63229741D01*
X40731863Y-63462259D01*
X40931741Y-63662137D01*
X41166773Y-63819180D01*
X41427926Y-63927353D01*
X41705165Y-63982500D01*
X41987835Y-63982500D01*
X42265074Y-63927353D01*
X42526227Y-63819180D01*
X42761259Y-63662137D01*
X42961137Y-63462259D01*
X43116500Y-63229741D01*
X43271863Y-63462259D01*
X43471741Y-63662137D01*
X43706773Y-63819180D01*
X43967926Y-63927353D01*
X44245165Y-63982500D01*
X44527835Y-63982500D01*
X44805074Y-63927353D01*
X45066227Y-63819180D01*
X45301259Y-63662137D01*
X45501137Y-63462259D01*
X45656500Y-63229741D01*
X45811863Y-63462259D01*
X46011741Y-63662137D01*
X46246773Y-63819180D01*
X46507926Y-63927353D01*
X46785165Y-63982500D01*
X47067835Y-63982500D01*
X47345074Y-63927353D01*
X47606227Y-63819180D01*
X47841259Y-63662137D01*
X48041137Y-63462259D01*
X48196500Y-63229741D01*
X48351863Y-63462259D01*
X48551741Y-63662137D01*
X48786773Y-63819180D01*
X49047926Y-63927353D01*
X49325165Y-63982500D01*
X49607835Y-63982500D01*
X49885074Y-63927353D01*
X50146227Y-63819180D01*
X50381259Y-63662137D01*
X50581137Y-63462259D01*
X50736500Y-63229741D01*
X50891863Y-63462259D01*
X51091741Y-63662137D01*
X51326773Y-63819180D01*
X51587926Y-63927353D01*
X51865165Y-63982500D01*
X52147835Y-63982500D01*
X52425074Y-63927353D01*
X52686227Y-63819180D01*
X52921259Y-63662137D01*
X53121137Y-63462259D01*
X53276500Y-63229741D01*
X53431863Y-63462259D01*
X53631741Y-63662137D01*
X53866773Y-63819180D01*
X54127926Y-63927353D01*
X54405165Y-63982500D01*
X54687835Y-63982500D01*
X54965074Y-63927353D01*
X55226227Y-63819180D01*
X55461259Y-63662137D01*
X55661137Y-63462259D01*
X55816500Y-63229741D01*
X55971863Y-63462259D01*
X56171741Y-63662137D01*
X56406773Y-63819180D01*
X56667926Y-63927353D01*
X56945165Y-63982500D01*
X57227835Y-63982500D01*
X57505074Y-63927353D01*
X57766227Y-63819180D01*
X58001259Y-63662137D01*
X58201137Y-63462259D01*
X58358180Y-63227227D01*
X58362567Y-63216635D01*
X58474115Y-63402631D01*
X58663086Y-63611019D01*
X58889080Y-63778537D01*
X59143413Y-63898746D01*
X59277461Y-63939404D01*
X59499500Y-63817415D01*
X59499500Y-62674500D01*
X59479500Y-62674500D01*
X59479500Y-62420500D01*
X59499500Y-62420500D01*
X59499500Y-61277585D01*
X59753500Y-61277585D01*
X59753500Y-62420500D01*
X59773500Y-62420500D01*
X59773500Y-62674500D01*
X59753500Y-62674500D01*
X59753500Y-63817415D01*
X59975539Y-63939404D01*
X60109587Y-63898746D01*
X60363920Y-63778537D01*
X60589914Y-63611019D01*
X60778885Y-63402631D01*
X60890433Y-63216635D01*
X60894820Y-63227227D01*
X61051863Y-63462259D01*
X61251741Y-63662137D01*
X61486773Y-63819180D01*
X61747926Y-63927353D01*
X62025165Y-63982500D01*
X62307835Y-63982500D01*
X62585074Y-63927353D01*
X62846227Y-63819180D01*
X63081259Y-63662137D01*
X63281137Y-63462259D01*
X63438180Y-63227227D01*
X63546353Y-62966074D01*
X63601500Y-62688835D01*
X63601500Y-62406165D01*
X63546353Y-62128926D01*
X63438180Y-61867773D01*
X63281137Y-61632741D01*
X63081259Y-61432863D01*
X62846227Y-61275820D01*
X62585074Y-61167647D01*
X62307835Y-61112500D01*
X62025165Y-61112500D01*
X61747926Y-61167647D01*
X61486773Y-61275820D01*
X61251741Y-61432863D01*
X61051863Y-61632741D01*
X60894820Y-61867773D01*
X60890433Y-61878365D01*
X60778885Y-61692369D01*
X60589914Y-61483981D01*
X60363920Y-61316463D01*
X60109587Y-61196254D01*
X59975539Y-61155596D01*
X59753500Y-61277585D01*
X59499500Y-61277585D01*
X59277461Y-61155596D01*
X59143413Y-61196254D01*
X58889080Y-61316463D01*
X58663086Y-61483981D01*
X58474115Y-61692369D01*
X58362567Y-61878365D01*
X58358180Y-61867773D01*
X58201137Y-61632741D01*
X58001259Y-61432863D01*
X57766227Y-61275820D01*
X57505074Y-61167647D01*
X57227835Y-61112500D01*
X56945165Y-61112500D01*
X56667926Y-61167647D01*
X56406773Y-61275820D01*
X56171741Y-61432863D01*
X55971863Y-61632741D01*
X55816500Y-61865259D01*
X55661137Y-61632741D01*
X55461259Y-61432863D01*
X55226227Y-61275820D01*
X54965074Y-61167647D01*
X54687835Y-61112500D01*
X54405165Y-61112500D01*
X54127926Y-61167647D01*
X53866773Y-61275820D01*
X53631741Y-61432863D01*
X53431863Y-61632741D01*
X53276500Y-61865259D01*
X53121137Y-61632741D01*
X52921259Y-61432863D01*
X52686227Y-61275820D01*
X52425074Y-61167647D01*
X52147835Y-61112500D01*
X51865165Y-61112500D01*
X51587926Y-61167647D01*
X51326773Y-61275820D01*
X51091741Y-61432863D01*
X50891863Y-61632741D01*
X50736500Y-61865259D01*
X50581137Y-61632741D01*
X50381259Y-61432863D01*
X50146227Y-61275820D01*
X49885074Y-61167647D01*
X49607835Y-61112500D01*
X49325165Y-61112500D01*
X49047926Y-61167647D01*
X48786773Y-61275820D01*
X48551741Y-61432863D01*
X48351863Y-61632741D01*
X48196500Y-61865259D01*
X48041137Y-61632741D01*
X47841259Y-61432863D01*
X47606227Y-61275820D01*
X47345074Y-61167647D01*
X47067835Y-61112500D01*
X46785165Y-61112500D01*
X46507926Y-61167647D01*
X46246773Y-61275820D01*
X46011741Y-61432863D01*
X45811863Y-61632741D01*
X45656500Y-61865259D01*
X45501137Y-61632741D01*
X45301259Y-61432863D01*
X45066227Y-61275820D01*
X44805074Y-61167647D01*
X44527835Y-61112500D01*
X44245165Y-61112500D01*
X43967926Y-61167647D01*
X43706773Y-61275820D01*
X43471741Y-61432863D01*
X43271863Y-61632741D01*
X43116500Y-61865259D01*
X42961137Y-61632741D01*
X42761259Y-61432863D01*
X42526227Y-61275820D01*
X42265074Y-61167647D01*
X41987835Y-61112500D01*
X41705165Y-61112500D01*
X41427926Y-61167647D01*
X41166773Y-61275820D01*
X40931741Y-61432863D01*
X40731863Y-61632741D01*
X40576500Y-61865259D01*
X40421137Y-61632741D01*
X40221259Y-61432863D01*
X39986227Y-61275820D01*
X39725074Y-61167647D01*
X39447835Y-61112500D01*
X39165165Y-61112500D01*
X38887926Y-61167647D01*
X38626773Y-61275820D01*
X38391741Y-61432863D01*
X38191863Y-61632741D01*
X38036500Y-61865259D01*
X37881137Y-61632741D01*
X37681259Y-61432863D01*
X37446227Y-61275820D01*
X37185074Y-61167647D01*
X36907835Y-61112500D01*
X36625165Y-61112500D01*
X36347926Y-61167647D01*
X36086773Y-61275820D01*
X35851741Y-61432863D01*
X35651863Y-61632741D01*
X35496500Y-61865259D01*
X35341137Y-61632741D01*
X35141259Y-61432863D01*
X34906227Y-61275820D01*
X34645074Y-61167647D01*
X34367835Y-61112500D01*
X34085165Y-61112500D01*
X33807926Y-61167647D01*
X33546773Y-61275820D01*
X33311741Y-61432863D01*
X33111863Y-61632741D01*
X32956500Y-61865259D01*
X32801137Y-61632741D01*
X32601259Y-61432863D01*
X32366227Y-61275820D01*
X32105074Y-61167647D01*
X31827835Y-61112500D01*
X31545165Y-61112500D01*
X31267926Y-61167647D01*
X31006773Y-61275820D01*
X30771741Y-61432863D01*
X30571863Y-61632741D01*
X30416500Y-61865259D01*
X30261137Y-61632741D01*
X30061259Y-61432863D01*
X29826227Y-61275820D01*
X29565074Y-61167647D01*
X29287835Y-61112500D01*
X29005165Y-61112500D01*
X28727926Y-61167647D01*
X28466773Y-61275820D01*
X28231741Y-61432863D01*
X28031863Y-61632741D01*
X27876500Y-61865259D01*
X27721137Y-61632741D01*
X27521259Y-61432863D01*
X27286227Y-61275820D01*
X27025074Y-61167647D01*
X26747835Y-61112500D01*
X26465165Y-61112500D01*
X26187926Y-61167647D01*
X25926773Y-61275820D01*
X25691741Y-61432863D01*
X25491863Y-61632741D01*
X25334820Y-61867773D01*
X25226647Y-62128926D01*
X25171500Y-62406165D01*
X17932000Y-62406165D01*
X17932000Y-55143061D01*
X30969000Y-55143061D01*
X30969000Y-55346939D01*
X31008774Y-55546898D01*
X31086795Y-55735256D01*
X31200063Y-55904774D01*
X31344226Y-56048937D01*
X31513744Y-56162205D01*
X31702102Y-56240226D01*
X31902061Y-56280000D01*
X32105939Y-56280000D01*
X32305898Y-56240226D01*
X32494256Y-56162205D01*
X32663774Y-56048937D01*
X32707711Y-56005000D01*
X34399315Y-56005000D01*
X34502063Y-56158774D01*
X34646226Y-56302937D01*
X34815744Y-56416205D01*
X35004102Y-56494226D01*
X35204061Y-56534000D01*
X35407939Y-56534000D01*
X35607898Y-56494226D01*
X35796256Y-56416205D01*
X35800961Y-56413061D01*
X53575000Y-56413061D01*
X53575000Y-56616939D01*
X53614774Y-56816898D01*
X53692795Y-57005256D01*
X53806063Y-57174774D01*
X53850001Y-57218712D01*
X53850000Y-59367289D01*
X53806063Y-59411226D01*
X53692795Y-59580744D01*
X53614774Y-59769102D01*
X53575000Y-59969061D01*
X53575000Y-60172939D01*
X53614774Y-60372898D01*
X53692795Y-60561256D01*
X53806063Y-60730774D01*
X53950226Y-60874937D01*
X54119744Y-60988205D01*
X54308102Y-61066226D01*
X54508061Y-61106000D01*
X54711939Y-61106000D01*
X54911898Y-61066226D01*
X55100256Y-60988205D01*
X55269774Y-60874937D01*
X55413937Y-60730774D01*
X55527205Y-60561256D01*
X55605226Y-60372898D01*
X55645000Y-60172939D01*
X55645000Y-59969061D01*
X55605226Y-59769102D01*
X55527205Y-59580744D01*
X55413937Y-59411226D01*
X55370000Y-59367289D01*
X55370000Y-57218711D01*
X55413937Y-57174774D01*
X55527205Y-57005256D01*
X55605226Y-56816898D01*
X55645000Y-56616939D01*
X55645000Y-56413061D01*
X55605226Y-56213102D01*
X55527205Y-56024744D01*
X55413937Y-55855226D01*
X55269774Y-55711063D01*
X55100256Y-55597795D01*
X54911898Y-55519774D01*
X54711939Y-55480000D01*
X54508061Y-55480000D01*
X54308102Y-55519774D01*
X54119744Y-55597795D01*
X53950226Y-55711063D01*
X53806063Y-55855226D01*
X53692795Y-56024744D01*
X53614774Y-56213102D01*
X53575000Y-56413061D01*
X35800961Y-56413061D01*
X35965774Y-56302937D01*
X36109937Y-56158774D01*
X36223205Y-55989256D01*
X36301226Y-55800898D01*
X36341000Y-55600939D01*
X36341000Y-55397061D01*
X36301226Y-55197102D01*
X36223205Y-55008744D01*
X36109937Y-54839226D01*
X35965774Y-54695063D01*
X35796256Y-54581795D01*
X35607898Y-54503774D01*
X35407939Y-54464000D01*
X35204061Y-54464000D01*
X35095455Y-54485603D01*
X35089333Y-54485000D01*
X35089322Y-54485000D01*
X35052000Y-54481324D01*
X35014678Y-54485000D01*
X32707711Y-54485000D01*
X32663774Y-54441063D01*
X32494256Y-54327795D01*
X32305898Y-54249774D01*
X32105939Y-54210000D01*
X31902061Y-54210000D01*
X31702102Y-54249774D01*
X31513744Y-54327795D01*
X31344226Y-54441063D01*
X31200063Y-54585226D01*
X31086795Y-54754744D01*
X31008774Y-54943102D01*
X30969000Y-55143061D01*
X17932000Y-55143061D01*
X17932000Y-17805000D01*
X54040582Y-17805000D01*
X54001815Y-17836815D01*
M02*
