G04 #@! TF.GenerationSoftware,KiCad,Pcbnew,(5.1.5)-3*
G04 #@! TF.CreationDate,2020-04-24T22:51:28+02:00*
G04 #@! TF.ProjectId,czujnikParkowania,637a756a-6e69-46b5-9061-726b6f77616e,rev?*
G04 #@! TF.SameCoordinates,Original*
G04 #@! TF.FileFunction,Soldermask,Top*
G04 #@! TF.FilePolarity,Negative*
%FSLAX46Y46*%
G04 Gerber Fmt 4.6, Leading zero omitted, Abs format (unit mm)*
G04 Created by KiCad (PCBNEW (5.1.5)-3) date 2020-04-24 22:51:28*
%MOMM*%
%LPD*%
G04 APERTURE LIST*
%ADD10C,0.100000*%
G04 APERTURE END LIST*
D10*
G36*
X43150549Y-83326116D02*
G01*
X43261734Y-83348232D01*
X43471203Y-83434997D01*
X43659720Y-83560960D01*
X43820040Y-83721280D01*
X43946003Y-83909797D01*
X44032768Y-84119266D01*
X44077000Y-84341636D01*
X44077000Y-84568364D01*
X44032768Y-84790734D01*
X43946003Y-85000203D01*
X43820040Y-85188720D01*
X43659720Y-85349040D01*
X43471203Y-85475003D01*
X43261734Y-85561768D01*
X43150549Y-85583884D01*
X43039365Y-85606000D01*
X42812635Y-85606000D01*
X42701451Y-85583884D01*
X42590266Y-85561768D01*
X42380797Y-85475003D01*
X42192280Y-85349040D01*
X42031960Y-85188720D01*
X41905997Y-85000203D01*
X41819232Y-84790734D01*
X41775000Y-84568364D01*
X41775000Y-84341636D01*
X41819232Y-84119266D01*
X41905997Y-83909797D01*
X42031960Y-83721280D01*
X42192280Y-83560960D01*
X42380797Y-83434997D01*
X42590266Y-83348232D01*
X42701451Y-83326116D01*
X42812635Y-83304000D01*
X43039365Y-83304000D01*
X43150549Y-83326116D01*
G37*
G36*
X54237000Y-85606000D02*
G01*
X51935000Y-85606000D01*
X51935000Y-83304000D01*
X54237000Y-83304000D01*
X54237000Y-85606000D01*
G37*
G36*
X30180000Y-84409000D02*
G01*
X27478000Y-84409000D01*
X27478000Y-81707000D01*
X30180000Y-81707000D01*
X30180000Y-84409000D01*
G37*
G36*
X56076428Y-79239264D02*
G01*
X56097509Y-79245660D01*
X56116945Y-79256048D01*
X56133976Y-79270024D01*
X56147952Y-79287055D01*
X56158340Y-79306491D01*
X56164736Y-79327572D01*
X56167500Y-79355640D01*
X56167500Y-81169360D01*
X56164736Y-81197428D01*
X56158340Y-81218509D01*
X56147952Y-81237945D01*
X56133976Y-81254976D01*
X56116945Y-81268952D01*
X56097509Y-81279340D01*
X56076428Y-81285736D01*
X56048360Y-81288500D01*
X55584640Y-81288500D01*
X55556572Y-81285736D01*
X55535491Y-81279340D01*
X55516055Y-81268952D01*
X55499024Y-81254976D01*
X55485048Y-81237945D01*
X55474660Y-81218509D01*
X55468264Y-81197428D01*
X55465500Y-81169360D01*
X55465500Y-79355640D01*
X55468264Y-79327572D01*
X55474660Y-79306491D01*
X55485048Y-79287055D01*
X55499024Y-79270024D01*
X55516055Y-79256048D01*
X55535491Y-79245660D01*
X55556572Y-79239264D01*
X55584640Y-79236500D01*
X56048360Y-79236500D01*
X56076428Y-79239264D01*
G37*
G36*
X53536428Y-79239264D02*
G01*
X53557509Y-79245660D01*
X53576945Y-79256048D01*
X53593976Y-79270024D01*
X53607952Y-79287055D01*
X53618340Y-79306491D01*
X53624736Y-79327572D01*
X53627500Y-79355640D01*
X53627500Y-81169360D01*
X53624736Y-81197428D01*
X53618340Y-81218509D01*
X53607952Y-81237945D01*
X53593976Y-81254976D01*
X53576945Y-81268952D01*
X53557509Y-81279340D01*
X53536428Y-81285736D01*
X53508360Y-81288500D01*
X53044640Y-81288500D01*
X53016572Y-81285736D01*
X52995491Y-81279340D01*
X52976055Y-81268952D01*
X52959024Y-81254976D01*
X52945048Y-81237945D01*
X52934660Y-81218509D01*
X52928264Y-81197428D01*
X52925500Y-81169360D01*
X52925500Y-79355640D01*
X52928264Y-79327572D01*
X52934660Y-79306491D01*
X52945048Y-79287055D01*
X52959024Y-79270024D01*
X52976055Y-79256048D01*
X52995491Y-79245660D01*
X53016572Y-79239264D01*
X53044640Y-79236500D01*
X53508360Y-79236500D01*
X53536428Y-79239264D01*
G37*
G36*
X54806428Y-79239264D02*
G01*
X54827509Y-79245660D01*
X54846945Y-79256048D01*
X54863976Y-79270024D01*
X54877952Y-79287055D01*
X54888340Y-79306491D01*
X54894736Y-79327572D01*
X54897500Y-79355640D01*
X54897500Y-81169360D01*
X54894736Y-81197428D01*
X54888340Y-81218509D01*
X54877952Y-81237945D01*
X54863976Y-81254976D01*
X54846945Y-81268952D01*
X54827509Y-81279340D01*
X54806428Y-81285736D01*
X54778360Y-81288500D01*
X54314640Y-81288500D01*
X54286572Y-81285736D01*
X54265491Y-81279340D01*
X54246055Y-81268952D01*
X54229024Y-81254976D01*
X54215048Y-81237945D01*
X54204660Y-81218509D01*
X54198264Y-81197428D01*
X54195500Y-81169360D01*
X54195500Y-79355640D01*
X54198264Y-79327572D01*
X54204660Y-79306491D01*
X54215048Y-79287055D01*
X54229024Y-79270024D01*
X54246055Y-79256048D01*
X54265491Y-79245660D01*
X54286572Y-79239264D01*
X54314640Y-79236500D01*
X54778360Y-79236500D01*
X54806428Y-79239264D01*
G37*
G36*
X57346428Y-79239264D02*
G01*
X57367509Y-79245660D01*
X57386945Y-79256048D01*
X57403976Y-79270024D01*
X57417952Y-79287055D01*
X57428340Y-79306491D01*
X57434736Y-79327572D01*
X57437500Y-79355640D01*
X57437500Y-81169360D01*
X57434736Y-81197428D01*
X57428340Y-81218509D01*
X57417952Y-81237945D01*
X57403976Y-81254976D01*
X57386945Y-81268952D01*
X57367509Y-81279340D01*
X57346428Y-81285736D01*
X57318360Y-81288500D01*
X56854640Y-81288500D01*
X56826572Y-81285736D01*
X56805491Y-81279340D01*
X56786055Y-81268952D01*
X56769024Y-81254976D01*
X56755048Y-81237945D01*
X56744660Y-81218509D01*
X56738264Y-81197428D01*
X56735500Y-81169360D01*
X56735500Y-79355640D01*
X56738264Y-79327572D01*
X56744660Y-79306491D01*
X56755048Y-79287055D01*
X56769024Y-79270024D01*
X56786055Y-79256048D01*
X56805491Y-79245660D01*
X56826572Y-79239264D01*
X56854640Y-79236500D01*
X57318360Y-79236500D01*
X57346428Y-79239264D01*
G37*
G36*
X43174228Y-79572703D02*
G01*
X43329100Y-79636853D01*
X43468481Y-79729985D01*
X43587015Y-79848519D01*
X43680147Y-79987900D01*
X43744297Y-80142772D01*
X43777000Y-80307184D01*
X43777000Y-80474816D01*
X43744297Y-80639228D01*
X43680147Y-80794100D01*
X43587015Y-80933481D01*
X43468481Y-81052015D01*
X43329100Y-81145147D01*
X43174228Y-81209297D01*
X43009816Y-81242000D01*
X42842184Y-81242000D01*
X42677772Y-81209297D01*
X42522900Y-81145147D01*
X42383519Y-81052015D01*
X42264985Y-80933481D01*
X42171853Y-80794100D01*
X42107703Y-80639228D01*
X42075000Y-80474816D01*
X42075000Y-80307184D01*
X42107703Y-80142772D01*
X42171853Y-79987900D01*
X42264985Y-79848519D01*
X42383519Y-79729985D01*
X42522900Y-79636853D01*
X42677772Y-79572703D01*
X42842184Y-79540000D01*
X43009816Y-79540000D01*
X43174228Y-79572703D01*
G37*
G36*
X38094228Y-79572703D02*
G01*
X38249100Y-79636853D01*
X38388481Y-79729985D01*
X38507015Y-79848519D01*
X38600147Y-79987900D01*
X38664297Y-80142772D01*
X38697000Y-80307184D01*
X38697000Y-80474816D01*
X38664297Y-80639228D01*
X38600147Y-80794100D01*
X38507015Y-80933481D01*
X38388481Y-81052015D01*
X38249100Y-81145147D01*
X38094228Y-81209297D01*
X37929816Y-81242000D01*
X37762184Y-81242000D01*
X37597772Y-81209297D01*
X37442900Y-81145147D01*
X37303519Y-81052015D01*
X37184985Y-80933481D01*
X37091853Y-80794100D01*
X37027703Y-80639228D01*
X36995000Y-80474816D01*
X36995000Y-80307184D01*
X37027703Y-80142772D01*
X37091853Y-79987900D01*
X37184985Y-79848519D01*
X37303519Y-79729985D01*
X37442900Y-79636853D01*
X37597772Y-79572703D01*
X37762184Y-79540000D01*
X37929816Y-79540000D01*
X38094228Y-79572703D01*
G37*
G36*
X62224228Y-79032703D02*
G01*
X62379100Y-79096853D01*
X62518481Y-79189985D01*
X62637015Y-79308519D01*
X62730147Y-79447900D01*
X62794297Y-79602772D01*
X62827000Y-79767184D01*
X62827000Y-79934816D01*
X62794297Y-80099228D01*
X62730147Y-80254100D01*
X62637015Y-80393481D01*
X62518481Y-80512015D01*
X62379100Y-80605147D01*
X62224228Y-80669297D01*
X62059816Y-80702000D01*
X61892184Y-80702000D01*
X61727772Y-80669297D01*
X61572900Y-80605147D01*
X61433519Y-80512015D01*
X61314985Y-80393481D01*
X61221853Y-80254100D01*
X61157703Y-80099228D01*
X61125000Y-79934816D01*
X61125000Y-79767184D01*
X61157703Y-79602772D01*
X61221853Y-79447900D01*
X61314985Y-79308519D01*
X61433519Y-79189985D01*
X61572900Y-79096853D01*
X61727772Y-79032703D01*
X61892184Y-79000000D01*
X62059816Y-79000000D01*
X62224228Y-79032703D01*
G37*
G36*
X48082468Y-79270565D02*
G01*
X48121138Y-79282296D01*
X48156777Y-79301346D01*
X48188017Y-79326983D01*
X48213654Y-79358223D01*
X48232704Y-79393862D01*
X48244435Y-79432532D01*
X48249000Y-79478888D01*
X48249000Y-80130112D01*
X48244435Y-80176468D01*
X48232704Y-80215138D01*
X48213654Y-80250777D01*
X48188017Y-80282017D01*
X48156777Y-80307654D01*
X48121138Y-80326704D01*
X48082468Y-80338435D01*
X48036112Y-80343000D01*
X46959888Y-80343000D01*
X46913532Y-80338435D01*
X46874862Y-80326704D01*
X46839223Y-80307654D01*
X46807983Y-80282017D01*
X46782346Y-80250777D01*
X46763296Y-80215138D01*
X46751565Y-80176468D01*
X46747000Y-80130112D01*
X46747000Y-79478888D01*
X46751565Y-79432532D01*
X46763296Y-79393862D01*
X46782346Y-79358223D01*
X46807983Y-79326983D01*
X46839223Y-79301346D01*
X46874862Y-79282296D01*
X46913532Y-79270565D01*
X46959888Y-79266000D01*
X48036112Y-79266000D01*
X48082468Y-79270565D01*
G37*
G36*
X75686228Y-78008703D02*
G01*
X75841100Y-78072853D01*
X75980481Y-78165985D01*
X76099015Y-78284519D01*
X76192147Y-78423900D01*
X76256297Y-78578772D01*
X76289000Y-78743184D01*
X76289000Y-78910816D01*
X76256297Y-79075228D01*
X76192147Y-79230100D01*
X76099015Y-79369481D01*
X75980481Y-79488015D01*
X75841100Y-79581147D01*
X75686228Y-79645297D01*
X75521816Y-79678000D01*
X75354184Y-79678000D01*
X75189772Y-79645297D01*
X75034900Y-79581147D01*
X74895519Y-79488015D01*
X74776985Y-79369481D01*
X74683853Y-79230100D01*
X74619703Y-79075228D01*
X74587000Y-78910816D01*
X74587000Y-78743184D01*
X74619703Y-78578772D01*
X74683853Y-78423900D01*
X74776985Y-78284519D01*
X74895519Y-78165985D01*
X75034900Y-78072853D01*
X75189772Y-78008703D01*
X75354184Y-77976000D01*
X75521816Y-77976000D01*
X75686228Y-78008703D01*
G37*
G36*
X29223072Y-76678918D02*
G01*
X29468939Y-76780759D01*
X29580328Y-76855187D01*
X29690211Y-76928609D01*
X29878391Y-77116789D01*
X29947129Y-77219663D01*
X30011983Y-77316722D01*
X30026242Y-77338063D01*
X30128082Y-77583928D01*
X30180000Y-77844937D01*
X30180000Y-78111063D01*
X30128082Y-78372072D01*
X30026242Y-78617937D01*
X29878391Y-78839211D01*
X29690211Y-79027391D01*
X29586256Y-79096852D01*
X29468939Y-79175241D01*
X29468938Y-79175242D01*
X29468937Y-79175242D01*
X29223072Y-79277082D01*
X28962063Y-79329000D01*
X28695937Y-79329000D01*
X28434928Y-79277082D01*
X28189063Y-79175242D01*
X28189062Y-79175242D01*
X28189061Y-79175241D01*
X28071744Y-79096852D01*
X27967789Y-79027391D01*
X27779609Y-78839211D01*
X27631758Y-78617937D01*
X27529918Y-78372072D01*
X27478000Y-78111063D01*
X27478000Y-77844937D01*
X27529918Y-77583928D01*
X27631758Y-77338063D01*
X27646018Y-77316722D01*
X27710871Y-77219663D01*
X27779609Y-77116789D01*
X27967789Y-76928609D01*
X28077672Y-76855187D01*
X28189061Y-76780759D01*
X28434928Y-76678918D01*
X28695937Y-76627000D01*
X28962063Y-76627000D01*
X29223072Y-76678918D01*
G37*
G36*
X62827000Y-78702000D02*
G01*
X61125000Y-78702000D01*
X61125000Y-77000000D01*
X62827000Y-77000000D01*
X62827000Y-78702000D01*
G37*
G36*
X68268468Y-77104565D02*
G01*
X68307138Y-77116296D01*
X68342777Y-77135346D01*
X68374017Y-77160983D01*
X68399654Y-77192223D01*
X68418704Y-77227862D01*
X68430435Y-77266532D01*
X68435000Y-77312888D01*
X68435000Y-78389112D01*
X68430435Y-78435468D01*
X68418704Y-78474138D01*
X68399654Y-78509777D01*
X68374017Y-78541017D01*
X68342777Y-78566654D01*
X68307138Y-78585704D01*
X68268468Y-78597435D01*
X68222112Y-78602000D01*
X67570888Y-78602000D01*
X67524532Y-78597435D01*
X67485862Y-78585704D01*
X67450223Y-78566654D01*
X67418983Y-78541017D01*
X67393346Y-78509777D01*
X67374296Y-78474138D01*
X67362565Y-78435468D01*
X67358000Y-78389112D01*
X67358000Y-77312888D01*
X67362565Y-77266532D01*
X67374296Y-77227862D01*
X67393346Y-77192223D01*
X67418983Y-77160983D01*
X67450223Y-77135346D01*
X67485862Y-77116296D01*
X67524532Y-77104565D01*
X67570888Y-77100000D01*
X68222112Y-77100000D01*
X68268468Y-77104565D01*
G37*
G36*
X70143468Y-77104565D02*
G01*
X70182138Y-77116296D01*
X70217777Y-77135346D01*
X70249017Y-77160983D01*
X70274654Y-77192223D01*
X70293704Y-77227862D01*
X70305435Y-77266532D01*
X70310000Y-77312888D01*
X70310000Y-78389112D01*
X70305435Y-78435468D01*
X70293704Y-78474138D01*
X70274654Y-78509777D01*
X70249017Y-78541017D01*
X70217777Y-78566654D01*
X70182138Y-78585704D01*
X70143468Y-78597435D01*
X70097112Y-78602000D01*
X69445888Y-78602000D01*
X69399532Y-78597435D01*
X69360862Y-78585704D01*
X69325223Y-78566654D01*
X69293983Y-78541017D01*
X69268346Y-78509777D01*
X69249296Y-78474138D01*
X69237565Y-78435468D01*
X69233000Y-78389112D01*
X69233000Y-77312888D01*
X69237565Y-77266532D01*
X69249296Y-77227862D01*
X69268346Y-77192223D01*
X69293983Y-77160983D01*
X69325223Y-77135346D01*
X69360862Y-77116296D01*
X69399532Y-77104565D01*
X69445888Y-77100000D01*
X70097112Y-77100000D01*
X70143468Y-77104565D01*
G37*
G36*
X48082468Y-77395565D02*
G01*
X48121138Y-77407296D01*
X48156777Y-77426346D01*
X48188017Y-77451983D01*
X48213654Y-77483223D01*
X48232704Y-77518862D01*
X48244435Y-77557532D01*
X48249000Y-77603888D01*
X48249000Y-78255112D01*
X48244435Y-78301468D01*
X48232704Y-78340138D01*
X48213654Y-78375777D01*
X48188017Y-78407017D01*
X48156777Y-78432654D01*
X48121138Y-78451704D01*
X48082468Y-78463435D01*
X48036112Y-78468000D01*
X46959888Y-78468000D01*
X46913532Y-78463435D01*
X46874862Y-78451704D01*
X46839223Y-78432654D01*
X46807983Y-78407017D01*
X46782346Y-78375777D01*
X46763296Y-78340138D01*
X46751565Y-78301468D01*
X46747000Y-78255112D01*
X46747000Y-77603888D01*
X46751565Y-77557532D01*
X46763296Y-77518862D01*
X46782346Y-77483223D01*
X46807983Y-77451983D01*
X46839223Y-77426346D01*
X46874862Y-77407296D01*
X46913532Y-77395565D01*
X46959888Y-77391000D01*
X48036112Y-77391000D01*
X48082468Y-77395565D01*
G37*
G36*
X76289000Y-77178000D02*
G01*
X74587000Y-77178000D01*
X74587000Y-75476000D01*
X76289000Y-75476000D01*
X76289000Y-77178000D01*
G37*
G36*
X53536428Y-74289264D02*
G01*
X53557509Y-74295660D01*
X53576945Y-74306048D01*
X53593976Y-74320024D01*
X53607952Y-74337055D01*
X53618340Y-74356491D01*
X53624736Y-74377572D01*
X53627500Y-74405640D01*
X53627500Y-76219360D01*
X53624736Y-76247428D01*
X53618340Y-76268509D01*
X53607952Y-76287945D01*
X53593976Y-76304976D01*
X53576945Y-76318952D01*
X53557509Y-76329340D01*
X53536428Y-76335736D01*
X53508360Y-76338500D01*
X53044640Y-76338500D01*
X53016572Y-76335736D01*
X52995491Y-76329340D01*
X52976055Y-76318952D01*
X52959024Y-76304976D01*
X52945048Y-76287945D01*
X52934660Y-76268509D01*
X52928264Y-76247428D01*
X52925500Y-76219360D01*
X52925500Y-74405640D01*
X52928264Y-74377572D01*
X52934660Y-74356491D01*
X52945048Y-74337055D01*
X52959024Y-74320024D01*
X52976055Y-74306048D01*
X52995491Y-74295660D01*
X53016572Y-74289264D01*
X53044640Y-74286500D01*
X53508360Y-74286500D01*
X53536428Y-74289264D01*
G37*
G36*
X57346428Y-74289264D02*
G01*
X57367509Y-74295660D01*
X57386945Y-74306048D01*
X57403976Y-74320024D01*
X57417952Y-74337055D01*
X57428340Y-74356491D01*
X57434736Y-74377572D01*
X57437500Y-74405640D01*
X57437500Y-76219360D01*
X57434736Y-76247428D01*
X57428340Y-76268509D01*
X57417952Y-76287945D01*
X57403976Y-76304976D01*
X57386945Y-76318952D01*
X57367509Y-76329340D01*
X57346428Y-76335736D01*
X57318360Y-76338500D01*
X56854640Y-76338500D01*
X56826572Y-76335736D01*
X56805491Y-76329340D01*
X56786055Y-76318952D01*
X56769024Y-76304976D01*
X56755048Y-76287945D01*
X56744660Y-76268509D01*
X56738264Y-76247428D01*
X56735500Y-76219360D01*
X56735500Y-74405640D01*
X56738264Y-74377572D01*
X56744660Y-74356491D01*
X56755048Y-74337055D01*
X56769024Y-74320024D01*
X56786055Y-74306048D01*
X56805491Y-74295660D01*
X56826572Y-74289264D01*
X56854640Y-74286500D01*
X57318360Y-74286500D01*
X57346428Y-74289264D01*
G37*
G36*
X56076428Y-74289264D02*
G01*
X56097509Y-74295660D01*
X56116945Y-74306048D01*
X56133976Y-74320024D01*
X56147952Y-74337055D01*
X56158340Y-74356491D01*
X56164736Y-74377572D01*
X56167500Y-74405640D01*
X56167500Y-76219360D01*
X56164736Y-76247428D01*
X56158340Y-76268509D01*
X56147952Y-76287945D01*
X56133976Y-76304976D01*
X56116945Y-76318952D01*
X56097509Y-76329340D01*
X56076428Y-76335736D01*
X56048360Y-76338500D01*
X55584640Y-76338500D01*
X55556572Y-76335736D01*
X55535491Y-76329340D01*
X55516055Y-76318952D01*
X55499024Y-76304976D01*
X55485048Y-76287945D01*
X55474660Y-76268509D01*
X55468264Y-76247428D01*
X55465500Y-76219360D01*
X55465500Y-74405640D01*
X55468264Y-74377572D01*
X55474660Y-74356491D01*
X55485048Y-74337055D01*
X55499024Y-74320024D01*
X55516055Y-74306048D01*
X55535491Y-74295660D01*
X55556572Y-74289264D01*
X55584640Y-74286500D01*
X56048360Y-74286500D01*
X56076428Y-74289264D01*
G37*
G36*
X54806428Y-74289264D02*
G01*
X54827509Y-74295660D01*
X54846945Y-74306048D01*
X54863976Y-74320024D01*
X54877952Y-74337055D01*
X54888340Y-74356491D01*
X54894736Y-74377572D01*
X54897500Y-74405640D01*
X54897500Y-76219360D01*
X54894736Y-76247428D01*
X54888340Y-76268509D01*
X54877952Y-76287945D01*
X54863976Y-76304976D01*
X54846945Y-76318952D01*
X54827509Y-76329340D01*
X54806428Y-76335736D01*
X54778360Y-76338500D01*
X54314640Y-76338500D01*
X54286572Y-76335736D01*
X54265491Y-76329340D01*
X54246055Y-76318952D01*
X54229024Y-76304976D01*
X54215048Y-76287945D01*
X54204660Y-76268509D01*
X54198264Y-76247428D01*
X54195500Y-76219360D01*
X54195500Y-74405640D01*
X54198264Y-74377572D01*
X54204660Y-74356491D01*
X54215048Y-74337055D01*
X54229024Y-74320024D01*
X54246055Y-74306048D01*
X54265491Y-74295660D01*
X54286572Y-74289264D01*
X54314640Y-74286500D01*
X54778360Y-74286500D01*
X54806428Y-74289264D01*
G37*
G36*
X43252500Y-75886500D02*
G01*
X42250500Y-75886500D01*
X42250500Y-74984500D01*
X43252500Y-74984500D01*
X43252500Y-75886500D01*
G37*
G36*
X47884968Y-73739065D02*
G01*
X47923638Y-73750796D01*
X47959277Y-73769846D01*
X47990517Y-73795483D01*
X48016154Y-73826723D01*
X48035204Y-73862362D01*
X48046935Y-73901032D01*
X48051500Y-73947388D01*
X48051500Y-75023612D01*
X48046935Y-75069968D01*
X48035204Y-75108638D01*
X48016154Y-75144277D01*
X47990517Y-75175517D01*
X47959277Y-75201154D01*
X47923638Y-75220204D01*
X47884968Y-75231935D01*
X47838612Y-75236500D01*
X47187388Y-75236500D01*
X47141032Y-75231935D01*
X47102362Y-75220204D01*
X47066723Y-75201154D01*
X47035483Y-75175517D01*
X47009846Y-75144277D01*
X46990796Y-75108638D01*
X46979065Y-75069968D01*
X46974500Y-75023612D01*
X46974500Y-73947388D01*
X46979065Y-73901032D01*
X46990796Y-73862362D01*
X47009846Y-73826723D01*
X47035483Y-73795483D01*
X47066723Y-73769846D01*
X47102362Y-73750796D01*
X47141032Y-73739065D01*
X47187388Y-73734500D01*
X47838612Y-73734500D01*
X47884968Y-73739065D01*
G37*
G36*
X49759968Y-73739065D02*
G01*
X49798638Y-73750796D01*
X49834277Y-73769846D01*
X49865517Y-73795483D01*
X49891154Y-73826723D01*
X49910204Y-73862362D01*
X49921935Y-73901032D01*
X49926500Y-73947388D01*
X49926500Y-75023612D01*
X49921935Y-75069968D01*
X49910204Y-75108638D01*
X49891154Y-75144277D01*
X49865517Y-75175517D01*
X49834277Y-75201154D01*
X49798638Y-75220204D01*
X49759968Y-75231935D01*
X49713612Y-75236500D01*
X49062388Y-75236500D01*
X49016032Y-75231935D01*
X48977362Y-75220204D01*
X48941723Y-75201154D01*
X48910483Y-75175517D01*
X48884846Y-75144277D01*
X48865796Y-75108638D01*
X48854065Y-75069968D01*
X48849500Y-75023612D01*
X48849500Y-73947388D01*
X48854065Y-73901032D01*
X48865796Y-73862362D01*
X48884846Y-73826723D01*
X48910483Y-73795483D01*
X48941723Y-73769846D01*
X48977362Y-73750796D01*
X49016032Y-73739065D01*
X49062388Y-73734500D01*
X49713612Y-73734500D01*
X49759968Y-73739065D01*
G37*
G36*
X45252500Y-74936500D02*
G01*
X44250500Y-74936500D01*
X44250500Y-74034500D01*
X45252500Y-74034500D01*
X45252500Y-74936500D01*
G37*
G36*
X38486968Y-72786565D02*
G01*
X38525638Y-72798296D01*
X38561277Y-72817346D01*
X38592517Y-72842983D01*
X38618154Y-72874223D01*
X38637204Y-72909862D01*
X38648935Y-72948532D01*
X38653500Y-72994888D01*
X38653500Y-74071112D01*
X38648935Y-74117468D01*
X38637204Y-74156138D01*
X38618154Y-74191777D01*
X38592517Y-74223017D01*
X38561277Y-74248654D01*
X38525638Y-74267704D01*
X38486968Y-74279435D01*
X38440612Y-74284000D01*
X37789388Y-74284000D01*
X37743032Y-74279435D01*
X37704362Y-74267704D01*
X37668723Y-74248654D01*
X37637483Y-74223017D01*
X37611846Y-74191777D01*
X37592796Y-74156138D01*
X37581065Y-74117468D01*
X37576500Y-74071112D01*
X37576500Y-72994888D01*
X37581065Y-72948532D01*
X37592796Y-72909862D01*
X37611846Y-72874223D01*
X37637483Y-72842983D01*
X37668723Y-72817346D01*
X37704362Y-72798296D01*
X37743032Y-72786565D01*
X37789388Y-72782000D01*
X38440612Y-72782000D01*
X38486968Y-72786565D01*
G37*
G36*
X40361968Y-72786565D02*
G01*
X40400638Y-72798296D01*
X40436277Y-72817346D01*
X40467517Y-72842983D01*
X40493154Y-72874223D01*
X40512204Y-72909862D01*
X40523935Y-72948532D01*
X40528500Y-72994888D01*
X40528500Y-74071112D01*
X40523935Y-74117468D01*
X40512204Y-74156138D01*
X40493154Y-74191777D01*
X40467517Y-74223017D01*
X40436277Y-74248654D01*
X40400638Y-74267704D01*
X40361968Y-74279435D01*
X40315612Y-74284000D01*
X39664388Y-74284000D01*
X39618032Y-74279435D01*
X39579362Y-74267704D01*
X39543723Y-74248654D01*
X39512483Y-74223017D01*
X39486846Y-74191777D01*
X39467796Y-74156138D01*
X39456065Y-74117468D01*
X39451500Y-74071112D01*
X39451500Y-72994888D01*
X39456065Y-72948532D01*
X39467796Y-72909862D01*
X39486846Y-72874223D01*
X39512483Y-72842983D01*
X39543723Y-72817346D01*
X39579362Y-72798296D01*
X39618032Y-72786565D01*
X39664388Y-72782000D01*
X40315612Y-72782000D01*
X40361968Y-72786565D01*
G37*
G36*
X29223072Y-71598918D02*
G01*
X29447190Y-71691750D01*
X29468939Y-71700759D01*
X29534069Y-71744278D01*
X29690211Y-71848609D01*
X29878391Y-72036789D01*
X30026242Y-72258063D01*
X30128082Y-72503928D01*
X30180000Y-72764937D01*
X30180000Y-73031063D01*
X30128082Y-73292072D01*
X30026242Y-73537937D01*
X29878391Y-73759211D01*
X29690211Y-73947391D01*
X29631680Y-73986500D01*
X29468939Y-74095241D01*
X29468938Y-74095242D01*
X29468937Y-74095242D01*
X29223072Y-74197082D01*
X28962063Y-74249000D01*
X28695937Y-74249000D01*
X28434928Y-74197082D01*
X28189063Y-74095242D01*
X28189062Y-74095242D01*
X28189061Y-74095241D01*
X28026320Y-73986500D01*
X27967789Y-73947391D01*
X27779609Y-73759211D01*
X27631758Y-73537937D01*
X27529918Y-73292072D01*
X27478000Y-73031063D01*
X27478000Y-72764937D01*
X27529918Y-72503928D01*
X27631758Y-72258063D01*
X27779609Y-72036789D01*
X27967789Y-71848609D01*
X28123931Y-71744278D01*
X28189061Y-71700759D01*
X28210811Y-71691750D01*
X28434928Y-71598918D01*
X28695937Y-71547000D01*
X28962063Y-71547000D01*
X29223072Y-71598918D01*
G37*
G36*
X43252500Y-73986500D02*
G01*
X42250500Y-73986500D01*
X42250500Y-73084500D01*
X43252500Y-73084500D01*
X43252500Y-73986500D01*
G37*
G36*
X68522719Y-71226520D02*
G01*
X68711880Y-71283901D01*
X68711883Y-71283902D01*
X68804333Y-71333318D01*
X68886212Y-71377083D01*
X69039015Y-71502485D01*
X69164417Y-71655288D01*
X69257599Y-71829619D01*
X69314980Y-72018780D01*
X69329500Y-72166206D01*
X69329500Y-72359793D01*
X69314980Y-72507219D01*
X69257599Y-72696380D01*
X69257598Y-72696383D01*
X69220955Y-72764937D01*
X69164417Y-72870712D01*
X69039015Y-73023515D01*
X68886212Y-73148917D01*
X68711881Y-73242099D01*
X68522720Y-73299480D01*
X68326000Y-73318855D01*
X68129281Y-73299480D01*
X67940120Y-73242099D01*
X67765788Y-73148917D01*
X67612985Y-73023515D01*
X67487583Y-72870712D01*
X67394401Y-72696381D01*
X67337020Y-72507220D01*
X67322500Y-72359794D01*
X67322500Y-72166207D01*
X67337020Y-72018781D01*
X67394401Y-71829620D01*
X67394402Y-71829617D01*
X67443818Y-71737167D01*
X67487583Y-71655288D01*
X67612985Y-71502485D01*
X67765788Y-71377083D01*
X67940119Y-71283901D01*
X68129280Y-71226520D01*
X68326000Y-71207145D01*
X68522719Y-71226520D01*
G37*
G36*
X65982719Y-71226520D02*
G01*
X66171880Y-71283901D01*
X66171883Y-71283902D01*
X66264333Y-71333318D01*
X66346212Y-71377083D01*
X66499015Y-71502485D01*
X66624417Y-71655288D01*
X66717599Y-71829619D01*
X66774980Y-72018780D01*
X66789500Y-72166206D01*
X66789500Y-72359793D01*
X66774980Y-72507219D01*
X66717599Y-72696380D01*
X66717598Y-72696383D01*
X66680955Y-72764937D01*
X66624417Y-72870712D01*
X66499015Y-73023515D01*
X66346212Y-73148917D01*
X66171881Y-73242099D01*
X65982720Y-73299480D01*
X65786000Y-73318855D01*
X65589281Y-73299480D01*
X65400120Y-73242099D01*
X65225788Y-73148917D01*
X65072985Y-73023515D01*
X64947583Y-72870712D01*
X64854401Y-72696381D01*
X64797020Y-72507220D01*
X64782500Y-72359794D01*
X64782500Y-72166207D01*
X64797020Y-72018781D01*
X64854401Y-71829620D01*
X64854402Y-71829617D01*
X64903818Y-71737167D01*
X64947583Y-71655288D01*
X65072985Y-71502485D01*
X65225788Y-71377083D01*
X65400119Y-71283901D01*
X65589280Y-71226520D01*
X65786000Y-71207145D01*
X65982719Y-71226520D01*
G37*
G36*
X64249500Y-73314000D02*
G01*
X62242500Y-73314000D01*
X62242500Y-71212000D01*
X64249500Y-71212000D01*
X64249500Y-73314000D01*
G37*
G36*
X57734468Y-70888565D02*
G01*
X57773138Y-70900296D01*
X57808777Y-70919346D01*
X57840017Y-70944983D01*
X57865654Y-70976223D01*
X57884704Y-71011862D01*
X57896435Y-71050532D01*
X57901000Y-71096888D01*
X57901000Y-71748112D01*
X57896435Y-71794468D01*
X57884704Y-71833138D01*
X57865654Y-71868777D01*
X57840017Y-71900017D01*
X57808777Y-71925654D01*
X57773138Y-71944704D01*
X57734468Y-71956435D01*
X57688112Y-71961000D01*
X56611888Y-71961000D01*
X56565532Y-71956435D01*
X56526862Y-71944704D01*
X56491223Y-71925654D01*
X56459983Y-71900017D01*
X56434346Y-71868777D01*
X56415296Y-71833138D01*
X56403565Y-71794468D01*
X56399000Y-71748112D01*
X56399000Y-71096888D01*
X56403565Y-71050532D01*
X56415296Y-71011862D01*
X56434346Y-70976223D01*
X56459983Y-70944983D01*
X56491223Y-70919346D01*
X56526862Y-70900296D01*
X56565532Y-70888565D01*
X56611888Y-70884000D01*
X57688112Y-70884000D01*
X57734468Y-70888565D01*
G37*
G36*
X57734468Y-69013565D02*
G01*
X57773138Y-69025296D01*
X57808777Y-69044346D01*
X57840017Y-69069983D01*
X57865654Y-69101223D01*
X57884704Y-69136862D01*
X57896435Y-69175532D01*
X57901000Y-69221888D01*
X57901000Y-69873112D01*
X57896435Y-69919468D01*
X57884704Y-69958138D01*
X57865654Y-69993777D01*
X57840017Y-70025017D01*
X57808777Y-70050654D01*
X57773138Y-70069704D01*
X57734468Y-70081435D01*
X57688112Y-70086000D01*
X56611888Y-70086000D01*
X56565532Y-70081435D01*
X56526862Y-70069704D01*
X56491223Y-70050654D01*
X56459983Y-70025017D01*
X56434346Y-69993777D01*
X56415296Y-69958138D01*
X56403565Y-69919468D01*
X56399000Y-69873112D01*
X56399000Y-69221888D01*
X56403565Y-69175532D01*
X56415296Y-69136862D01*
X56434346Y-69101223D01*
X56459983Y-69069983D01*
X56491223Y-69044346D01*
X56526862Y-69025296D01*
X56565532Y-69013565D01*
X56611888Y-69009000D01*
X57688112Y-69009000D01*
X57734468Y-69013565D01*
G37*
G36*
X71704468Y-65300565D02*
G01*
X71743138Y-65312296D01*
X71778777Y-65331346D01*
X71810017Y-65356983D01*
X71835654Y-65388223D01*
X71854704Y-65423862D01*
X71866435Y-65462532D01*
X71871000Y-65508888D01*
X71871000Y-66160112D01*
X71866435Y-66206468D01*
X71854704Y-66245138D01*
X71835654Y-66280777D01*
X71810017Y-66312017D01*
X71778777Y-66337654D01*
X71743138Y-66356704D01*
X71704468Y-66368435D01*
X71658112Y-66373000D01*
X70581888Y-66373000D01*
X70535532Y-66368435D01*
X70496862Y-66356704D01*
X70461223Y-66337654D01*
X70429983Y-66312017D01*
X70404346Y-66280777D01*
X70385296Y-66245138D01*
X70373565Y-66206468D01*
X70369000Y-66160112D01*
X70369000Y-65508888D01*
X70373565Y-65462532D01*
X70385296Y-65423862D01*
X70404346Y-65388223D01*
X70429983Y-65356983D01*
X70461223Y-65331346D01*
X70496862Y-65312296D01*
X70535532Y-65300565D01*
X70581888Y-65296000D01*
X71658112Y-65296000D01*
X71704468Y-65300565D01*
G37*
G36*
X37014728Y-63761203D02*
G01*
X37169600Y-63825353D01*
X37308981Y-63918485D01*
X37427515Y-64037019D01*
X37520647Y-64176400D01*
X37584797Y-64331272D01*
X37617500Y-64495684D01*
X37617500Y-64663316D01*
X37584797Y-64827728D01*
X37520647Y-64982600D01*
X37427515Y-65121981D01*
X37308981Y-65240515D01*
X37169600Y-65333647D01*
X37014728Y-65397797D01*
X36850316Y-65430500D01*
X36682684Y-65430500D01*
X36518272Y-65397797D01*
X36363400Y-65333647D01*
X36224019Y-65240515D01*
X36105485Y-65121981D01*
X36012353Y-64982600D01*
X35948203Y-64827728D01*
X35915500Y-64663316D01*
X35915500Y-64495684D01*
X35948203Y-64331272D01*
X36012353Y-64176400D01*
X36105485Y-64037019D01*
X36224019Y-63918485D01*
X36363400Y-63825353D01*
X36518272Y-63761203D01*
X36682684Y-63728500D01*
X36850316Y-63728500D01*
X37014728Y-63761203D01*
G37*
G36*
X52254728Y-63761203D02*
G01*
X52409600Y-63825353D01*
X52548981Y-63918485D01*
X52667515Y-64037019D01*
X52760647Y-64176400D01*
X52824797Y-64331272D01*
X52857500Y-64495684D01*
X52857500Y-64663316D01*
X52824797Y-64827728D01*
X52760647Y-64982600D01*
X52667515Y-65121981D01*
X52548981Y-65240515D01*
X52409600Y-65333647D01*
X52254728Y-65397797D01*
X52090316Y-65430500D01*
X51922684Y-65430500D01*
X51758272Y-65397797D01*
X51603400Y-65333647D01*
X51464019Y-65240515D01*
X51345485Y-65121981D01*
X51252353Y-64982600D01*
X51188203Y-64827728D01*
X51155500Y-64663316D01*
X51155500Y-64495684D01*
X51188203Y-64331272D01*
X51252353Y-64176400D01*
X51345485Y-64037019D01*
X51464019Y-63918485D01*
X51603400Y-63825353D01*
X51758272Y-63761203D01*
X51922684Y-63728500D01*
X52090316Y-63728500D01*
X52254728Y-63761203D01*
G37*
G36*
X64954728Y-63761203D02*
G01*
X65109600Y-63825353D01*
X65248981Y-63918485D01*
X65367515Y-64037019D01*
X65460647Y-64176400D01*
X65524797Y-64331272D01*
X65557500Y-64495684D01*
X65557500Y-64663316D01*
X65524797Y-64827728D01*
X65460647Y-64982600D01*
X65367515Y-65121981D01*
X65248981Y-65240515D01*
X65109600Y-65333647D01*
X64954728Y-65397797D01*
X64790316Y-65430500D01*
X64622684Y-65430500D01*
X64458272Y-65397797D01*
X64303400Y-65333647D01*
X64164019Y-65240515D01*
X64045485Y-65121981D01*
X63952353Y-64982600D01*
X63888203Y-64827728D01*
X63855500Y-64663316D01*
X63855500Y-64495684D01*
X63888203Y-64331272D01*
X63952353Y-64176400D01*
X64045485Y-64037019D01*
X64164019Y-63918485D01*
X64303400Y-63825353D01*
X64458272Y-63761203D01*
X64622684Y-63728500D01*
X64790316Y-63728500D01*
X64954728Y-63761203D01*
G37*
G36*
X62414728Y-63761203D02*
G01*
X62569600Y-63825353D01*
X62708981Y-63918485D01*
X62827515Y-64037019D01*
X62920647Y-64176400D01*
X62984797Y-64331272D01*
X63017500Y-64495684D01*
X63017500Y-64663316D01*
X62984797Y-64827728D01*
X62920647Y-64982600D01*
X62827515Y-65121981D01*
X62708981Y-65240515D01*
X62569600Y-65333647D01*
X62414728Y-65397797D01*
X62250316Y-65430500D01*
X62082684Y-65430500D01*
X61918272Y-65397797D01*
X61763400Y-65333647D01*
X61624019Y-65240515D01*
X61505485Y-65121981D01*
X61412353Y-64982600D01*
X61348203Y-64827728D01*
X61315500Y-64663316D01*
X61315500Y-64495684D01*
X61348203Y-64331272D01*
X61412353Y-64176400D01*
X61505485Y-64037019D01*
X61624019Y-63918485D01*
X61763400Y-63825353D01*
X61918272Y-63761203D01*
X62082684Y-63728500D01*
X62250316Y-63728500D01*
X62414728Y-63761203D01*
G37*
G36*
X59874728Y-63761203D02*
G01*
X60029600Y-63825353D01*
X60168981Y-63918485D01*
X60287515Y-64037019D01*
X60380647Y-64176400D01*
X60444797Y-64331272D01*
X60477500Y-64495684D01*
X60477500Y-64663316D01*
X60444797Y-64827728D01*
X60380647Y-64982600D01*
X60287515Y-65121981D01*
X60168981Y-65240515D01*
X60029600Y-65333647D01*
X59874728Y-65397797D01*
X59710316Y-65430500D01*
X59542684Y-65430500D01*
X59378272Y-65397797D01*
X59223400Y-65333647D01*
X59084019Y-65240515D01*
X58965485Y-65121981D01*
X58872353Y-64982600D01*
X58808203Y-64827728D01*
X58775500Y-64663316D01*
X58775500Y-64495684D01*
X58808203Y-64331272D01*
X58872353Y-64176400D01*
X58965485Y-64037019D01*
X59084019Y-63918485D01*
X59223400Y-63825353D01*
X59378272Y-63761203D01*
X59542684Y-63728500D01*
X59710316Y-63728500D01*
X59874728Y-63761203D01*
G37*
G36*
X57334728Y-63761203D02*
G01*
X57489600Y-63825353D01*
X57628981Y-63918485D01*
X57747515Y-64037019D01*
X57840647Y-64176400D01*
X57904797Y-64331272D01*
X57937500Y-64495684D01*
X57937500Y-64663316D01*
X57904797Y-64827728D01*
X57840647Y-64982600D01*
X57747515Y-65121981D01*
X57628981Y-65240515D01*
X57489600Y-65333647D01*
X57334728Y-65397797D01*
X57170316Y-65430500D01*
X57002684Y-65430500D01*
X56838272Y-65397797D01*
X56683400Y-65333647D01*
X56544019Y-65240515D01*
X56425485Y-65121981D01*
X56332353Y-64982600D01*
X56268203Y-64827728D01*
X56235500Y-64663316D01*
X56235500Y-64495684D01*
X56268203Y-64331272D01*
X56332353Y-64176400D01*
X56425485Y-64037019D01*
X56544019Y-63918485D01*
X56683400Y-63825353D01*
X56838272Y-63761203D01*
X57002684Y-63728500D01*
X57170316Y-63728500D01*
X57334728Y-63761203D01*
G37*
G36*
X54794728Y-63761203D02*
G01*
X54949600Y-63825353D01*
X55088981Y-63918485D01*
X55207515Y-64037019D01*
X55300647Y-64176400D01*
X55364797Y-64331272D01*
X55397500Y-64495684D01*
X55397500Y-64663316D01*
X55364797Y-64827728D01*
X55300647Y-64982600D01*
X55207515Y-65121981D01*
X55088981Y-65240515D01*
X54949600Y-65333647D01*
X54794728Y-65397797D01*
X54630316Y-65430500D01*
X54462684Y-65430500D01*
X54298272Y-65397797D01*
X54143400Y-65333647D01*
X54004019Y-65240515D01*
X53885485Y-65121981D01*
X53792353Y-64982600D01*
X53728203Y-64827728D01*
X53695500Y-64663316D01*
X53695500Y-64495684D01*
X53728203Y-64331272D01*
X53792353Y-64176400D01*
X53885485Y-64037019D01*
X54004019Y-63918485D01*
X54143400Y-63825353D01*
X54298272Y-63761203D01*
X54462684Y-63728500D01*
X54630316Y-63728500D01*
X54794728Y-63761203D01*
G37*
G36*
X29394728Y-63761203D02*
G01*
X29549600Y-63825353D01*
X29688981Y-63918485D01*
X29807515Y-64037019D01*
X29900647Y-64176400D01*
X29964797Y-64331272D01*
X29997500Y-64495684D01*
X29997500Y-64663316D01*
X29964797Y-64827728D01*
X29900647Y-64982600D01*
X29807515Y-65121981D01*
X29688981Y-65240515D01*
X29549600Y-65333647D01*
X29394728Y-65397797D01*
X29230316Y-65430500D01*
X29062684Y-65430500D01*
X28898272Y-65397797D01*
X28743400Y-65333647D01*
X28604019Y-65240515D01*
X28485485Y-65121981D01*
X28392353Y-64982600D01*
X28328203Y-64827728D01*
X28295500Y-64663316D01*
X28295500Y-64495684D01*
X28328203Y-64331272D01*
X28392353Y-64176400D01*
X28485485Y-64037019D01*
X28604019Y-63918485D01*
X28743400Y-63825353D01*
X28898272Y-63761203D01*
X29062684Y-63728500D01*
X29230316Y-63728500D01*
X29394728Y-63761203D01*
G37*
G36*
X47174728Y-63761203D02*
G01*
X47329600Y-63825353D01*
X47468981Y-63918485D01*
X47587515Y-64037019D01*
X47680647Y-64176400D01*
X47744797Y-64331272D01*
X47777500Y-64495684D01*
X47777500Y-64663316D01*
X47744797Y-64827728D01*
X47680647Y-64982600D01*
X47587515Y-65121981D01*
X47468981Y-65240515D01*
X47329600Y-65333647D01*
X47174728Y-65397797D01*
X47010316Y-65430500D01*
X46842684Y-65430500D01*
X46678272Y-65397797D01*
X46523400Y-65333647D01*
X46384019Y-65240515D01*
X46265485Y-65121981D01*
X46172353Y-64982600D01*
X46108203Y-64827728D01*
X46075500Y-64663316D01*
X46075500Y-64495684D01*
X46108203Y-64331272D01*
X46172353Y-64176400D01*
X46265485Y-64037019D01*
X46384019Y-63918485D01*
X46523400Y-63825353D01*
X46678272Y-63761203D01*
X46842684Y-63728500D01*
X47010316Y-63728500D01*
X47174728Y-63761203D01*
G37*
G36*
X42094728Y-63761203D02*
G01*
X42249600Y-63825353D01*
X42388981Y-63918485D01*
X42507515Y-64037019D01*
X42600647Y-64176400D01*
X42664797Y-64331272D01*
X42697500Y-64495684D01*
X42697500Y-64663316D01*
X42664797Y-64827728D01*
X42600647Y-64982600D01*
X42507515Y-65121981D01*
X42388981Y-65240515D01*
X42249600Y-65333647D01*
X42094728Y-65397797D01*
X41930316Y-65430500D01*
X41762684Y-65430500D01*
X41598272Y-65397797D01*
X41443400Y-65333647D01*
X41304019Y-65240515D01*
X41185485Y-65121981D01*
X41092353Y-64982600D01*
X41028203Y-64827728D01*
X40995500Y-64663316D01*
X40995500Y-64495684D01*
X41028203Y-64331272D01*
X41092353Y-64176400D01*
X41185485Y-64037019D01*
X41304019Y-63918485D01*
X41443400Y-63825353D01*
X41598272Y-63761203D01*
X41762684Y-63728500D01*
X41930316Y-63728500D01*
X42094728Y-63761203D01*
G37*
G36*
X49714728Y-63761203D02*
G01*
X49869600Y-63825353D01*
X50008981Y-63918485D01*
X50127515Y-64037019D01*
X50220647Y-64176400D01*
X50284797Y-64331272D01*
X50317500Y-64495684D01*
X50317500Y-64663316D01*
X50284797Y-64827728D01*
X50220647Y-64982600D01*
X50127515Y-65121981D01*
X50008981Y-65240515D01*
X49869600Y-65333647D01*
X49714728Y-65397797D01*
X49550316Y-65430500D01*
X49382684Y-65430500D01*
X49218272Y-65397797D01*
X49063400Y-65333647D01*
X48924019Y-65240515D01*
X48805485Y-65121981D01*
X48712353Y-64982600D01*
X48648203Y-64827728D01*
X48615500Y-64663316D01*
X48615500Y-64495684D01*
X48648203Y-64331272D01*
X48712353Y-64176400D01*
X48805485Y-64037019D01*
X48924019Y-63918485D01*
X49063400Y-63825353D01*
X49218272Y-63761203D01*
X49382684Y-63728500D01*
X49550316Y-63728500D01*
X49714728Y-63761203D01*
G37*
G36*
X34474728Y-63761203D02*
G01*
X34629600Y-63825353D01*
X34768981Y-63918485D01*
X34887515Y-64037019D01*
X34980647Y-64176400D01*
X35044797Y-64331272D01*
X35077500Y-64495684D01*
X35077500Y-64663316D01*
X35044797Y-64827728D01*
X34980647Y-64982600D01*
X34887515Y-65121981D01*
X34768981Y-65240515D01*
X34629600Y-65333647D01*
X34474728Y-65397797D01*
X34310316Y-65430500D01*
X34142684Y-65430500D01*
X33978272Y-65397797D01*
X33823400Y-65333647D01*
X33684019Y-65240515D01*
X33565485Y-65121981D01*
X33472353Y-64982600D01*
X33408203Y-64827728D01*
X33375500Y-64663316D01*
X33375500Y-64495684D01*
X33408203Y-64331272D01*
X33472353Y-64176400D01*
X33565485Y-64037019D01*
X33684019Y-63918485D01*
X33823400Y-63825353D01*
X33978272Y-63761203D01*
X34142684Y-63728500D01*
X34310316Y-63728500D01*
X34474728Y-63761203D01*
G37*
G36*
X31934728Y-63761203D02*
G01*
X32089600Y-63825353D01*
X32228981Y-63918485D01*
X32347515Y-64037019D01*
X32440647Y-64176400D01*
X32504797Y-64331272D01*
X32537500Y-64495684D01*
X32537500Y-64663316D01*
X32504797Y-64827728D01*
X32440647Y-64982600D01*
X32347515Y-65121981D01*
X32228981Y-65240515D01*
X32089600Y-65333647D01*
X31934728Y-65397797D01*
X31770316Y-65430500D01*
X31602684Y-65430500D01*
X31438272Y-65397797D01*
X31283400Y-65333647D01*
X31144019Y-65240515D01*
X31025485Y-65121981D01*
X30932353Y-64982600D01*
X30868203Y-64827728D01*
X30835500Y-64663316D01*
X30835500Y-64495684D01*
X30868203Y-64331272D01*
X30932353Y-64176400D01*
X31025485Y-64037019D01*
X31144019Y-63918485D01*
X31283400Y-63825353D01*
X31438272Y-63761203D01*
X31602684Y-63728500D01*
X31770316Y-63728500D01*
X31934728Y-63761203D01*
G37*
G36*
X39554728Y-63761203D02*
G01*
X39709600Y-63825353D01*
X39848981Y-63918485D01*
X39967515Y-64037019D01*
X40060647Y-64176400D01*
X40124797Y-64331272D01*
X40157500Y-64495684D01*
X40157500Y-64663316D01*
X40124797Y-64827728D01*
X40060647Y-64982600D01*
X39967515Y-65121981D01*
X39848981Y-65240515D01*
X39709600Y-65333647D01*
X39554728Y-65397797D01*
X39390316Y-65430500D01*
X39222684Y-65430500D01*
X39058272Y-65397797D01*
X38903400Y-65333647D01*
X38764019Y-65240515D01*
X38645485Y-65121981D01*
X38552353Y-64982600D01*
X38488203Y-64827728D01*
X38455500Y-64663316D01*
X38455500Y-64495684D01*
X38488203Y-64331272D01*
X38552353Y-64176400D01*
X38645485Y-64037019D01*
X38764019Y-63918485D01*
X38903400Y-63825353D01*
X39058272Y-63761203D01*
X39222684Y-63728500D01*
X39390316Y-63728500D01*
X39554728Y-63761203D01*
G37*
G36*
X44634728Y-63761203D02*
G01*
X44789600Y-63825353D01*
X44928981Y-63918485D01*
X45047515Y-64037019D01*
X45140647Y-64176400D01*
X45204797Y-64331272D01*
X45237500Y-64495684D01*
X45237500Y-64663316D01*
X45204797Y-64827728D01*
X45140647Y-64982600D01*
X45047515Y-65121981D01*
X44928981Y-65240515D01*
X44789600Y-65333647D01*
X44634728Y-65397797D01*
X44470316Y-65430500D01*
X44302684Y-65430500D01*
X44138272Y-65397797D01*
X43983400Y-65333647D01*
X43844019Y-65240515D01*
X43725485Y-65121981D01*
X43632353Y-64982600D01*
X43568203Y-64827728D01*
X43535500Y-64663316D01*
X43535500Y-64495684D01*
X43568203Y-64331272D01*
X43632353Y-64176400D01*
X43725485Y-64037019D01*
X43844019Y-63918485D01*
X43983400Y-63825353D01*
X44138272Y-63761203D01*
X44302684Y-63728500D01*
X44470316Y-63728500D01*
X44634728Y-63761203D01*
G37*
G36*
X71704468Y-63425565D02*
G01*
X71743138Y-63437296D01*
X71778777Y-63456346D01*
X71810017Y-63481983D01*
X71835654Y-63513223D01*
X71854704Y-63548862D01*
X71866435Y-63587532D01*
X71871000Y-63633888D01*
X71871000Y-64285112D01*
X71866435Y-64331468D01*
X71854704Y-64370138D01*
X71835654Y-64405777D01*
X71810017Y-64437017D01*
X71778777Y-64462654D01*
X71743138Y-64481704D01*
X71704468Y-64493435D01*
X71658112Y-64498000D01*
X70581888Y-64498000D01*
X70535532Y-64493435D01*
X70496862Y-64481704D01*
X70461223Y-64462654D01*
X70429983Y-64437017D01*
X70404346Y-64405777D01*
X70385296Y-64370138D01*
X70373565Y-64331468D01*
X70369000Y-64285112D01*
X70369000Y-63633888D01*
X70373565Y-63587532D01*
X70385296Y-63548862D01*
X70404346Y-63513223D01*
X70429983Y-63481983D01*
X70461223Y-63456346D01*
X70496862Y-63437296D01*
X70535532Y-63425565D01*
X70581888Y-63421000D01*
X71658112Y-63421000D01*
X71704468Y-63425565D01*
G37*
G36*
X32775000Y-61218000D02*
G01*
X31773000Y-61218000D01*
X31773000Y-60316000D01*
X32775000Y-60316000D01*
X32775000Y-61218000D01*
G37*
G36*
X29794468Y-60142065D02*
G01*
X29833138Y-60153796D01*
X29868777Y-60172846D01*
X29900017Y-60198483D01*
X29925654Y-60229723D01*
X29944704Y-60265362D01*
X29956435Y-60304032D01*
X29961000Y-60350388D01*
X29961000Y-61001612D01*
X29956435Y-61047968D01*
X29944704Y-61086638D01*
X29925654Y-61122277D01*
X29900017Y-61153517D01*
X29868777Y-61179154D01*
X29833138Y-61198204D01*
X29794468Y-61209935D01*
X29748112Y-61214500D01*
X28671888Y-61214500D01*
X28625532Y-61209935D01*
X28586862Y-61198204D01*
X28551223Y-61179154D01*
X28519983Y-61153517D01*
X28494346Y-61122277D01*
X28475296Y-61086638D01*
X28463565Y-61047968D01*
X28459000Y-61001612D01*
X28459000Y-60350388D01*
X28463565Y-60304032D01*
X28475296Y-60265362D01*
X28494346Y-60229723D01*
X28519983Y-60198483D01*
X28551223Y-60172846D01*
X28586862Y-60153796D01*
X28625532Y-60142065D01*
X28671888Y-60137500D01*
X29748112Y-60137500D01*
X29794468Y-60142065D01*
G37*
G36*
X34775000Y-60268000D02*
G01*
X33773000Y-60268000D01*
X33773000Y-59366000D01*
X34775000Y-59366000D01*
X34775000Y-60268000D01*
G37*
G36*
X29794468Y-58267065D02*
G01*
X29833138Y-58278796D01*
X29868777Y-58297846D01*
X29900017Y-58323483D01*
X29925654Y-58354723D01*
X29944704Y-58390362D01*
X29956435Y-58429032D01*
X29961000Y-58475388D01*
X29961000Y-59126612D01*
X29956435Y-59172968D01*
X29944704Y-59211638D01*
X29925654Y-59247277D01*
X29900017Y-59278517D01*
X29868777Y-59304154D01*
X29833138Y-59323204D01*
X29794468Y-59334935D01*
X29748112Y-59339500D01*
X28671888Y-59339500D01*
X28625532Y-59334935D01*
X28586862Y-59323204D01*
X28551223Y-59304154D01*
X28519983Y-59278517D01*
X28494346Y-59247277D01*
X28475296Y-59211638D01*
X28463565Y-59172968D01*
X28459000Y-59126612D01*
X28459000Y-58475388D01*
X28463565Y-58429032D01*
X28475296Y-58390362D01*
X28494346Y-58354723D01*
X28519983Y-58323483D01*
X28551223Y-58297846D01*
X28586862Y-58278796D01*
X28625532Y-58267065D01*
X28671888Y-58262500D01*
X29748112Y-58262500D01*
X29794468Y-58267065D01*
G37*
G36*
X32775000Y-59318000D02*
G01*
X31773000Y-59318000D01*
X31773000Y-58416000D01*
X32775000Y-58416000D01*
X32775000Y-59318000D01*
G37*
G36*
X81991000Y-59174000D02*
G01*
X80389000Y-59174000D01*
X80389000Y-58072000D01*
X81991000Y-58072000D01*
X81991000Y-59174000D01*
G37*
G36*
X77091000Y-59174000D02*
G01*
X75489000Y-59174000D01*
X75489000Y-58072000D01*
X77091000Y-58072000D01*
X77091000Y-59174000D01*
G37*
G36*
X77091000Y-55974000D02*
G01*
X75489000Y-55974000D01*
X75489000Y-54872000D01*
X77091000Y-54872000D01*
X77091000Y-55974000D01*
G37*
G36*
X81991000Y-55974000D02*
G01*
X80389000Y-55974000D01*
X80389000Y-54872000D01*
X81991000Y-54872000D01*
X81991000Y-55974000D01*
G37*
G36*
X36839000Y-55376000D02*
G01*
X35837000Y-55376000D01*
X35837000Y-54474000D01*
X36839000Y-54474000D01*
X36839000Y-55376000D01*
G37*
G36*
X60274468Y-54124565D02*
G01*
X60313138Y-54136296D01*
X60348777Y-54155346D01*
X60380017Y-54180983D01*
X60405654Y-54212223D01*
X60424704Y-54247862D01*
X60436435Y-54286532D01*
X60441000Y-54332888D01*
X60441000Y-54984112D01*
X60436435Y-55030468D01*
X60424704Y-55069138D01*
X60405654Y-55104777D01*
X60380017Y-55136017D01*
X60348777Y-55161654D01*
X60313138Y-55180704D01*
X60274468Y-55192435D01*
X60228112Y-55197000D01*
X59151888Y-55197000D01*
X59105532Y-55192435D01*
X59066862Y-55180704D01*
X59031223Y-55161654D01*
X58999983Y-55136017D01*
X58974346Y-55104777D01*
X58955296Y-55069138D01*
X58943565Y-55030468D01*
X58939000Y-54984112D01*
X58939000Y-54332888D01*
X58943565Y-54286532D01*
X58955296Y-54247862D01*
X58974346Y-54212223D01*
X58999983Y-54180983D01*
X59031223Y-54155346D01*
X59066862Y-54136296D01*
X59105532Y-54124565D01*
X59151888Y-54120000D01*
X60228112Y-54120000D01*
X60274468Y-54124565D01*
G37*
G36*
X38839000Y-54426000D02*
G01*
X37837000Y-54426000D01*
X37837000Y-53524000D01*
X38839000Y-53524000D01*
X38839000Y-54426000D01*
G37*
G36*
X31946468Y-52466565D02*
G01*
X31985138Y-52478296D01*
X32020777Y-52497346D01*
X32052017Y-52522983D01*
X32077654Y-52554223D01*
X32096704Y-52589862D01*
X32108435Y-52628532D01*
X32113000Y-52674888D01*
X32113000Y-53751112D01*
X32108435Y-53797468D01*
X32096704Y-53836138D01*
X32077654Y-53871777D01*
X32052017Y-53903017D01*
X32020777Y-53928654D01*
X31985138Y-53947704D01*
X31946468Y-53959435D01*
X31900112Y-53964000D01*
X31248888Y-53964000D01*
X31202532Y-53959435D01*
X31163862Y-53947704D01*
X31128223Y-53928654D01*
X31096983Y-53903017D01*
X31071346Y-53871777D01*
X31052296Y-53836138D01*
X31040565Y-53797468D01*
X31036000Y-53751112D01*
X31036000Y-52674888D01*
X31040565Y-52628532D01*
X31052296Y-52589862D01*
X31071346Y-52554223D01*
X31096983Y-52522983D01*
X31128223Y-52497346D01*
X31163862Y-52478296D01*
X31202532Y-52466565D01*
X31248888Y-52462000D01*
X31900112Y-52462000D01*
X31946468Y-52466565D01*
G37*
G36*
X33821468Y-52466565D02*
G01*
X33860138Y-52478296D01*
X33895777Y-52497346D01*
X33927017Y-52522983D01*
X33952654Y-52554223D01*
X33971704Y-52589862D01*
X33983435Y-52628532D01*
X33988000Y-52674888D01*
X33988000Y-53751112D01*
X33983435Y-53797468D01*
X33971704Y-53836138D01*
X33952654Y-53871777D01*
X33927017Y-53903017D01*
X33895777Y-53928654D01*
X33860138Y-53947704D01*
X33821468Y-53959435D01*
X33775112Y-53964000D01*
X33123888Y-53964000D01*
X33077532Y-53959435D01*
X33038862Y-53947704D01*
X33003223Y-53928654D01*
X32971983Y-53903017D01*
X32946346Y-53871777D01*
X32927296Y-53836138D01*
X32915565Y-53797468D01*
X32911000Y-53751112D01*
X32911000Y-52674888D01*
X32915565Y-52628532D01*
X32927296Y-52589862D01*
X32946346Y-52554223D01*
X32971983Y-52522983D01*
X33003223Y-52497346D01*
X33038862Y-52478296D01*
X33077532Y-52466565D01*
X33123888Y-52462000D01*
X33775112Y-52462000D01*
X33821468Y-52466565D01*
G37*
G36*
X36839000Y-53476000D02*
G01*
X35837000Y-53476000D01*
X35837000Y-52574000D01*
X36839000Y-52574000D01*
X36839000Y-53476000D01*
G37*
G36*
X60274468Y-52249565D02*
G01*
X60313138Y-52261296D01*
X60348777Y-52280346D01*
X60380017Y-52305983D01*
X60405654Y-52337223D01*
X60424704Y-52372862D01*
X60436435Y-52411532D01*
X60441000Y-52457888D01*
X60441000Y-53109112D01*
X60436435Y-53155468D01*
X60424704Y-53194138D01*
X60405654Y-53229777D01*
X60380017Y-53261017D01*
X60348777Y-53286654D01*
X60313138Y-53305704D01*
X60274468Y-53317435D01*
X60228112Y-53322000D01*
X59151888Y-53322000D01*
X59105532Y-53317435D01*
X59066862Y-53305704D01*
X59031223Y-53286654D01*
X58999983Y-53261017D01*
X58974346Y-53229777D01*
X58955296Y-53194138D01*
X58943565Y-53155468D01*
X58939000Y-53109112D01*
X58939000Y-52457888D01*
X58943565Y-52411532D01*
X58955296Y-52372862D01*
X58974346Y-52337223D01*
X58999983Y-52305983D01*
X59031223Y-52280346D01*
X59066862Y-52261296D01*
X59105532Y-52249565D01*
X59151888Y-52245000D01*
X60228112Y-52245000D01*
X60274468Y-52249565D01*
G37*
G36*
X81991000Y-51554000D02*
G01*
X80389000Y-51554000D01*
X80389000Y-50452000D01*
X81991000Y-50452000D01*
X81991000Y-51554000D01*
G37*
G36*
X77091000Y-51554000D02*
G01*
X75489000Y-51554000D01*
X75489000Y-50452000D01*
X77091000Y-50452000D01*
X77091000Y-51554000D01*
G37*
G36*
X54794728Y-48521203D02*
G01*
X54949600Y-48585353D01*
X55088981Y-48678485D01*
X55207515Y-48797019D01*
X55300647Y-48936400D01*
X55364797Y-49091272D01*
X55397500Y-49255684D01*
X55397500Y-49423316D01*
X55364797Y-49587728D01*
X55300647Y-49742600D01*
X55207515Y-49881981D01*
X55088981Y-50000515D01*
X54949600Y-50093647D01*
X54794728Y-50157797D01*
X54630316Y-50190500D01*
X54462684Y-50190500D01*
X54298272Y-50157797D01*
X54143400Y-50093647D01*
X54004019Y-50000515D01*
X53885485Y-49881981D01*
X53792353Y-49742600D01*
X53728203Y-49587728D01*
X53695500Y-49423316D01*
X53695500Y-49255684D01*
X53728203Y-49091272D01*
X53792353Y-48936400D01*
X53885485Y-48797019D01*
X54004019Y-48678485D01*
X54143400Y-48585353D01*
X54298272Y-48521203D01*
X54462684Y-48488500D01*
X54630316Y-48488500D01*
X54794728Y-48521203D01*
G37*
G36*
X57334728Y-48521203D02*
G01*
X57489600Y-48585353D01*
X57628981Y-48678485D01*
X57747515Y-48797019D01*
X57840647Y-48936400D01*
X57904797Y-49091272D01*
X57937500Y-49255684D01*
X57937500Y-49423316D01*
X57904797Y-49587728D01*
X57840647Y-49742600D01*
X57747515Y-49881981D01*
X57628981Y-50000515D01*
X57489600Y-50093647D01*
X57334728Y-50157797D01*
X57170316Y-50190500D01*
X57002684Y-50190500D01*
X56838272Y-50157797D01*
X56683400Y-50093647D01*
X56544019Y-50000515D01*
X56425485Y-49881981D01*
X56332353Y-49742600D01*
X56268203Y-49587728D01*
X56235500Y-49423316D01*
X56235500Y-49255684D01*
X56268203Y-49091272D01*
X56332353Y-48936400D01*
X56425485Y-48797019D01*
X56544019Y-48678485D01*
X56683400Y-48585353D01*
X56838272Y-48521203D01*
X57002684Y-48488500D01*
X57170316Y-48488500D01*
X57334728Y-48521203D01*
G37*
G36*
X47174728Y-48521203D02*
G01*
X47329600Y-48585353D01*
X47468981Y-48678485D01*
X47587515Y-48797019D01*
X47680647Y-48936400D01*
X47744797Y-49091272D01*
X47777500Y-49255684D01*
X47777500Y-49423316D01*
X47744797Y-49587728D01*
X47680647Y-49742600D01*
X47587515Y-49881981D01*
X47468981Y-50000515D01*
X47329600Y-50093647D01*
X47174728Y-50157797D01*
X47010316Y-50190500D01*
X46842684Y-50190500D01*
X46678272Y-50157797D01*
X46523400Y-50093647D01*
X46384019Y-50000515D01*
X46265485Y-49881981D01*
X46172353Y-49742600D01*
X46108203Y-49587728D01*
X46075500Y-49423316D01*
X46075500Y-49255684D01*
X46108203Y-49091272D01*
X46172353Y-48936400D01*
X46265485Y-48797019D01*
X46384019Y-48678485D01*
X46523400Y-48585353D01*
X46678272Y-48521203D01*
X46842684Y-48488500D01*
X47010316Y-48488500D01*
X47174728Y-48521203D01*
G37*
G36*
X59874728Y-48521203D02*
G01*
X60029600Y-48585353D01*
X60168981Y-48678485D01*
X60287515Y-48797019D01*
X60380647Y-48936400D01*
X60444797Y-49091272D01*
X60477500Y-49255684D01*
X60477500Y-49423316D01*
X60444797Y-49587728D01*
X60380647Y-49742600D01*
X60287515Y-49881981D01*
X60168981Y-50000515D01*
X60029600Y-50093647D01*
X59874728Y-50157797D01*
X59710316Y-50190500D01*
X59542684Y-50190500D01*
X59378272Y-50157797D01*
X59223400Y-50093647D01*
X59084019Y-50000515D01*
X58965485Y-49881981D01*
X58872353Y-49742600D01*
X58808203Y-49587728D01*
X58775500Y-49423316D01*
X58775500Y-49255684D01*
X58808203Y-49091272D01*
X58872353Y-48936400D01*
X58965485Y-48797019D01*
X59084019Y-48678485D01*
X59223400Y-48585353D01*
X59378272Y-48521203D01*
X59542684Y-48488500D01*
X59710316Y-48488500D01*
X59874728Y-48521203D01*
G37*
G36*
X62414728Y-48521203D02*
G01*
X62569600Y-48585353D01*
X62708981Y-48678485D01*
X62827515Y-48797019D01*
X62920647Y-48936400D01*
X62984797Y-49091272D01*
X63017500Y-49255684D01*
X63017500Y-49423316D01*
X62984797Y-49587728D01*
X62920647Y-49742600D01*
X62827515Y-49881981D01*
X62708981Y-50000515D01*
X62569600Y-50093647D01*
X62414728Y-50157797D01*
X62250316Y-50190500D01*
X62082684Y-50190500D01*
X61918272Y-50157797D01*
X61763400Y-50093647D01*
X61624019Y-50000515D01*
X61505485Y-49881981D01*
X61412353Y-49742600D01*
X61348203Y-49587728D01*
X61315500Y-49423316D01*
X61315500Y-49255684D01*
X61348203Y-49091272D01*
X61412353Y-48936400D01*
X61505485Y-48797019D01*
X61624019Y-48678485D01*
X61763400Y-48585353D01*
X61918272Y-48521203D01*
X62082684Y-48488500D01*
X62250316Y-48488500D01*
X62414728Y-48521203D01*
G37*
G36*
X65557500Y-50190500D02*
G01*
X63855500Y-50190500D01*
X63855500Y-48488500D01*
X65557500Y-48488500D01*
X65557500Y-50190500D01*
G37*
G36*
X52254728Y-48521203D02*
G01*
X52409600Y-48585353D01*
X52548981Y-48678485D01*
X52667515Y-48797019D01*
X52760647Y-48936400D01*
X52824797Y-49091272D01*
X52857500Y-49255684D01*
X52857500Y-49423316D01*
X52824797Y-49587728D01*
X52760647Y-49742600D01*
X52667515Y-49881981D01*
X52548981Y-50000515D01*
X52409600Y-50093647D01*
X52254728Y-50157797D01*
X52090316Y-50190500D01*
X51922684Y-50190500D01*
X51758272Y-50157797D01*
X51603400Y-50093647D01*
X51464019Y-50000515D01*
X51345485Y-49881981D01*
X51252353Y-49742600D01*
X51188203Y-49587728D01*
X51155500Y-49423316D01*
X51155500Y-49255684D01*
X51188203Y-49091272D01*
X51252353Y-48936400D01*
X51345485Y-48797019D01*
X51464019Y-48678485D01*
X51603400Y-48585353D01*
X51758272Y-48521203D01*
X51922684Y-48488500D01*
X52090316Y-48488500D01*
X52254728Y-48521203D01*
G37*
G36*
X29394728Y-48521203D02*
G01*
X29549600Y-48585353D01*
X29688981Y-48678485D01*
X29807515Y-48797019D01*
X29900647Y-48936400D01*
X29964797Y-49091272D01*
X29997500Y-49255684D01*
X29997500Y-49423316D01*
X29964797Y-49587728D01*
X29900647Y-49742600D01*
X29807515Y-49881981D01*
X29688981Y-50000515D01*
X29549600Y-50093647D01*
X29394728Y-50157797D01*
X29230316Y-50190500D01*
X29062684Y-50190500D01*
X28898272Y-50157797D01*
X28743400Y-50093647D01*
X28604019Y-50000515D01*
X28485485Y-49881981D01*
X28392353Y-49742600D01*
X28328203Y-49587728D01*
X28295500Y-49423316D01*
X28295500Y-49255684D01*
X28328203Y-49091272D01*
X28392353Y-48936400D01*
X28485485Y-48797019D01*
X28604019Y-48678485D01*
X28743400Y-48585353D01*
X28898272Y-48521203D01*
X29062684Y-48488500D01*
X29230316Y-48488500D01*
X29394728Y-48521203D01*
G37*
G36*
X34474728Y-48521203D02*
G01*
X34629600Y-48585353D01*
X34768981Y-48678485D01*
X34887515Y-48797019D01*
X34980647Y-48936400D01*
X35044797Y-49091272D01*
X35077500Y-49255684D01*
X35077500Y-49423316D01*
X35044797Y-49587728D01*
X34980647Y-49742600D01*
X34887515Y-49881981D01*
X34768981Y-50000515D01*
X34629600Y-50093647D01*
X34474728Y-50157797D01*
X34310316Y-50190500D01*
X34142684Y-50190500D01*
X33978272Y-50157797D01*
X33823400Y-50093647D01*
X33684019Y-50000515D01*
X33565485Y-49881981D01*
X33472353Y-49742600D01*
X33408203Y-49587728D01*
X33375500Y-49423316D01*
X33375500Y-49255684D01*
X33408203Y-49091272D01*
X33472353Y-48936400D01*
X33565485Y-48797019D01*
X33684019Y-48678485D01*
X33823400Y-48585353D01*
X33978272Y-48521203D01*
X34142684Y-48488500D01*
X34310316Y-48488500D01*
X34474728Y-48521203D01*
G37*
G36*
X31934728Y-48521203D02*
G01*
X32089600Y-48585353D01*
X32228981Y-48678485D01*
X32347515Y-48797019D01*
X32440647Y-48936400D01*
X32504797Y-49091272D01*
X32537500Y-49255684D01*
X32537500Y-49423316D01*
X32504797Y-49587728D01*
X32440647Y-49742600D01*
X32347515Y-49881981D01*
X32228981Y-50000515D01*
X32089600Y-50093647D01*
X31934728Y-50157797D01*
X31770316Y-50190500D01*
X31602684Y-50190500D01*
X31438272Y-50157797D01*
X31283400Y-50093647D01*
X31144019Y-50000515D01*
X31025485Y-49881981D01*
X30932353Y-49742600D01*
X30868203Y-49587728D01*
X30835500Y-49423316D01*
X30835500Y-49255684D01*
X30868203Y-49091272D01*
X30932353Y-48936400D01*
X31025485Y-48797019D01*
X31144019Y-48678485D01*
X31283400Y-48585353D01*
X31438272Y-48521203D01*
X31602684Y-48488500D01*
X31770316Y-48488500D01*
X31934728Y-48521203D01*
G37*
G36*
X49714728Y-48521203D02*
G01*
X49869600Y-48585353D01*
X50008981Y-48678485D01*
X50127515Y-48797019D01*
X50220647Y-48936400D01*
X50284797Y-49091272D01*
X50317500Y-49255684D01*
X50317500Y-49423316D01*
X50284797Y-49587728D01*
X50220647Y-49742600D01*
X50127515Y-49881981D01*
X50008981Y-50000515D01*
X49869600Y-50093647D01*
X49714728Y-50157797D01*
X49550316Y-50190500D01*
X49382684Y-50190500D01*
X49218272Y-50157797D01*
X49063400Y-50093647D01*
X48924019Y-50000515D01*
X48805485Y-49881981D01*
X48712353Y-49742600D01*
X48648203Y-49587728D01*
X48615500Y-49423316D01*
X48615500Y-49255684D01*
X48648203Y-49091272D01*
X48712353Y-48936400D01*
X48805485Y-48797019D01*
X48924019Y-48678485D01*
X49063400Y-48585353D01*
X49218272Y-48521203D01*
X49382684Y-48488500D01*
X49550316Y-48488500D01*
X49714728Y-48521203D01*
G37*
G36*
X37014728Y-48521203D02*
G01*
X37169600Y-48585353D01*
X37308981Y-48678485D01*
X37427515Y-48797019D01*
X37520647Y-48936400D01*
X37584797Y-49091272D01*
X37617500Y-49255684D01*
X37617500Y-49423316D01*
X37584797Y-49587728D01*
X37520647Y-49742600D01*
X37427515Y-49881981D01*
X37308981Y-50000515D01*
X37169600Y-50093647D01*
X37014728Y-50157797D01*
X36850316Y-50190500D01*
X36682684Y-50190500D01*
X36518272Y-50157797D01*
X36363400Y-50093647D01*
X36224019Y-50000515D01*
X36105485Y-49881981D01*
X36012353Y-49742600D01*
X35948203Y-49587728D01*
X35915500Y-49423316D01*
X35915500Y-49255684D01*
X35948203Y-49091272D01*
X36012353Y-48936400D01*
X36105485Y-48797019D01*
X36224019Y-48678485D01*
X36363400Y-48585353D01*
X36518272Y-48521203D01*
X36682684Y-48488500D01*
X36850316Y-48488500D01*
X37014728Y-48521203D01*
G37*
G36*
X42094728Y-48521203D02*
G01*
X42249600Y-48585353D01*
X42388981Y-48678485D01*
X42507515Y-48797019D01*
X42600647Y-48936400D01*
X42664797Y-49091272D01*
X42697500Y-49255684D01*
X42697500Y-49423316D01*
X42664797Y-49587728D01*
X42600647Y-49742600D01*
X42507515Y-49881981D01*
X42388981Y-50000515D01*
X42249600Y-50093647D01*
X42094728Y-50157797D01*
X41930316Y-50190500D01*
X41762684Y-50190500D01*
X41598272Y-50157797D01*
X41443400Y-50093647D01*
X41304019Y-50000515D01*
X41185485Y-49881981D01*
X41092353Y-49742600D01*
X41028203Y-49587728D01*
X40995500Y-49423316D01*
X40995500Y-49255684D01*
X41028203Y-49091272D01*
X41092353Y-48936400D01*
X41185485Y-48797019D01*
X41304019Y-48678485D01*
X41443400Y-48585353D01*
X41598272Y-48521203D01*
X41762684Y-48488500D01*
X41930316Y-48488500D01*
X42094728Y-48521203D01*
G37*
G36*
X39554728Y-48521203D02*
G01*
X39709600Y-48585353D01*
X39848981Y-48678485D01*
X39967515Y-48797019D01*
X40060647Y-48936400D01*
X40124797Y-49091272D01*
X40157500Y-49255684D01*
X40157500Y-49423316D01*
X40124797Y-49587728D01*
X40060647Y-49742600D01*
X39967515Y-49881981D01*
X39848981Y-50000515D01*
X39709600Y-50093647D01*
X39554728Y-50157797D01*
X39390316Y-50190500D01*
X39222684Y-50190500D01*
X39058272Y-50157797D01*
X38903400Y-50093647D01*
X38764019Y-50000515D01*
X38645485Y-49881981D01*
X38552353Y-49742600D01*
X38488203Y-49587728D01*
X38455500Y-49423316D01*
X38455500Y-49255684D01*
X38488203Y-49091272D01*
X38552353Y-48936400D01*
X38645485Y-48797019D01*
X38764019Y-48678485D01*
X38903400Y-48585353D01*
X39058272Y-48521203D01*
X39222684Y-48488500D01*
X39390316Y-48488500D01*
X39554728Y-48521203D01*
G37*
G36*
X44634728Y-48521203D02*
G01*
X44789600Y-48585353D01*
X44928981Y-48678485D01*
X45047515Y-48797019D01*
X45140647Y-48936400D01*
X45204797Y-49091272D01*
X45237500Y-49255684D01*
X45237500Y-49423316D01*
X45204797Y-49587728D01*
X45140647Y-49742600D01*
X45047515Y-49881981D01*
X44928981Y-50000515D01*
X44789600Y-50093647D01*
X44634728Y-50157797D01*
X44470316Y-50190500D01*
X44302684Y-50190500D01*
X44138272Y-50157797D01*
X43983400Y-50093647D01*
X43844019Y-50000515D01*
X43725485Y-49881981D01*
X43632353Y-49742600D01*
X43568203Y-49587728D01*
X43535500Y-49423316D01*
X43535500Y-49255684D01*
X43568203Y-49091272D01*
X43632353Y-48936400D01*
X43725485Y-48797019D01*
X43844019Y-48678485D01*
X43983400Y-48585353D01*
X44138272Y-48521203D01*
X44302684Y-48488500D01*
X44470316Y-48488500D01*
X44634728Y-48521203D01*
G37*
G36*
X77091000Y-48354000D02*
G01*
X75489000Y-48354000D01*
X75489000Y-47252000D01*
X77091000Y-47252000D01*
X77091000Y-48354000D01*
G37*
G36*
X81991000Y-48354000D02*
G01*
X80389000Y-48354000D01*
X80389000Y-47252000D01*
X81991000Y-47252000D01*
X81991000Y-48354000D01*
G37*
G36*
X63188468Y-44338565D02*
G01*
X63227138Y-44350296D01*
X63262777Y-44369346D01*
X63294017Y-44394983D01*
X63319654Y-44426223D01*
X63338704Y-44461862D01*
X63350435Y-44500532D01*
X63355000Y-44546888D01*
X63355000Y-45623112D01*
X63350435Y-45669468D01*
X63338704Y-45708138D01*
X63319654Y-45743777D01*
X63294017Y-45775017D01*
X63262777Y-45800654D01*
X63227138Y-45819704D01*
X63188468Y-45831435D01*
X63142112Y-45836000D01*
X62490888Y-45836000D01*
X62444532Y-45831435D01*
X62405862Y-45819704D01*
X62370223Y-45800654D01*
X62338983Y-45775017D01*
X62313346Y-45743777D01*
X62294296Y-45708138D01*
X62282565Y-45669468D01*
X62278000Y-45623112D01*
X62278000Y-44546888D01*
X62282565Y-44500532D01*
X62294296Y-44461862D01*
X62313346Y-44426223D01*
X62338983Y-44394983D01*
X62370223Y-44369346D01*
X62405862Y-44350296D01*
X62444532Y-44338565D01*
X62490888Y-44334000D01*
X63142112Y-44334000D01*
X63188468Y-44338565D01*
G37*
G36*
X65063468Y-44338565D02*
G01*
X65102138Y-44350296D01*
X65137777Y-44369346D01*
X65169017Y-44394983D01*
X65194654Y-44426223D01*
X65213704Y-44461862D01*
X65225435Y-44500532D01*
X65230000Y-44546888D01*
X65230000Y-45623112D01*
X65225435Y-45669468D01*
X65213704Y-45708138D01*
X65194654Y-45743777D01*
X65169017Y-45775017D01*
X65137777Y-45800654D01*
X65102138Y-45819704D01*
X65063468Y-45831435D01*
X65017112Y-45836000D01*
X64365888Y-45836000D01*
X64319532Y-45831435D01*
X64280862Y-45819704D01*
X64245223Y-45800654D01*
X64213983Y-45775017D01*
X64188346Y-45743777D01*
X64169296Y-45708138D01*
X64157565Y-45669468D01*
X64153000Y-45623112D01*
X64153000Y-44546888D01*
X64157565Y-44500532D01*
X64169296Y-44461862D01*
X64188346Y-44426223D01*
X64213983Y-44394983D01*
X64245223Y-44369346D01*
X64280862Y-44350296D01*
X64319532Y-44338565D01*
X64365888Y-44334000D01*
X65017112Y-44334000D01*
X65063468Y-44338565D01*
G37*
G36*
X46812468Y-44472565D02*
G01*
X46851138Y-44484296D01*
X46886777Y-44503346D01*
X46918017Y-44528983D01*
X46943654Y-44560223D01*
X46962704Y-44595862D01*
X46974435Y-44634532D01*
X46979000Y-44680888D01*
X46979000Y-45332112D01*
X46974435Y-45378468D01*
X46962704Y-45417138D01*
X46943654Y-45452777D01*
X46918017Y-45484017D01*
X46886777Y-45509654D01*
X46851138Y-45528704D01*
X46812468Y-45540435D01*
X46766112Y-45545000D01*
X45689888Y-45545000D01*
X45643532Y-45540435D01*
X45604862Y-45528704D01*
X45569223Y-45509654D01*
X45537983Y-45484017D01*
X45512346Y-45452777D01*
X45493296Y-45417138D01*
X45481565Y-45378468D01*
X45477000Y-45332112D01*
X45477000Y-44680888D01*
X45481565Y-44634532D01*
X45493296Y-44595862D01*
X45512346Y-44560223D01*
X45537983Y-44528983D01*
X45569223Y-44503346D01*
X45604862Y-44484296D01*
X45643532Y-44472565D01*
X45689888Y-44468000D01*
X46766112Y-44468000D01*
X46812468Y-44472565D01*
G37*
G36*
X50114468Y-44472565D02*
G01*
X50153138Y-44484296D01*
X50188777Y-44503346D01*
X50220017Y-44528983D01*
X50245654Y-44560223D01*
X50264704Y-44595862D01*
X50276435Y-44634532D01*
X50281000Y-44680888D01*
X50281000Y-45332112D01*
X50276435Y-45378468D01*
X50264704Y-45417138D01*
X50245654Y-45452777D01*
X50220017Y-45484017D01*
X50188777Y-45509654D01*
X50153138Y-45528704D01*
X50114468Y-45540435D01*
X50068112Y-45545000D01*
X48991888Y-45545000D01*
X48945532Y-45540435D01*
X48906862Y-45528704D01*
X48871223Y-45509654D01*
X48839983Y-45484017D01*
X48814346Y-45452777D01*
X48795296Y-45417138D01*
X48783565Y-45378468D01*
X48779000Y-45332112D01*
X48779000Y-44680888D01*
X48783565Y-44634532D01*
X48795296Y-44595862D01*
X48814346Y-44560223D01*
X48839983Y-44528983D01*
X48871223Y-44503346D01*
X48906862Y-44484296D01*
X48945532Y-44472565D01*
X48991888Y-44468000D01*
X50068112Y-44468000D01*
X50114468Y-44472565D01*
G37*
G36*
X56210468Y-44472565D02*
G01*
X56249138Y-44484296D01*
X56284777Y-44503346D01*
X56316017Y-44528983D01*
X56341654Y-44560223D01*
X56360704Y-44595862D01*
X56372435Y-44634532D01*
X56377000Y-44680888D01*
X56377000Y-45332112D01*
X56372435Y-45378468D01*
X56360704Y-45417138D01*
X56341654Y-45452777D01*
X56316017Y-45484017D01*
X56284777Y-45509654D01*
X56249138Y-45528704D01*
X56210468Y-45540435D01*
X56164112Y-45545000D01*
X55087888Y-45545000D01*
X55041532Y-45540435D01*
X55002862Y-45528704D01*
X54967223Y-45509654D01*
X54935983Y-45484017D01*
X54910346Y-45452777D01*
X54891296Y-45417138D01*
X54879565Y-45378468D01*
X54875000Y-45332112D01*
X54875000Y-44680888D01*
X54879565Y-44634532D01*
X54891296Y-44595862D01*
X54910346Y-44560223D01*
X54935983Y-44528983D01*
X54967223Y-44503346D01*
X55002862Y-44484296D01*
X55041532Y-44472565D01*
X55087888Y-44468000D01*
X56164112Y-44468000D01*
X56210468Y-44472565D01*
G37*
G36*
X39954468Y-44472565D02*
G01*
X39993138Y-44484296D01*
X40028777Y-44503346D01*
X40060017Y-44528983D01*
X40085654Y-44560223D01*
X40104704Y-44595862D01*
X40116435Y-44634532D01*
X40121000Y-44680888D01*
X40121000Y-45332112D01*
X40116435Y-45378468D01*
X40104704Y-45417138D01*
X40085654Y-45452777D01*
X40060017Y-45484017D01*
X40028777Y-45509654D01*
X39993138Y-45528704D01*
X39954468Y-45540435D01*
X39908112Y-45545000D01*
X38831888Y-45545000D01*
X38785532Y-45540435D01*
X38746862Y-45528704D01*
X38711223Y-45509654D01*
X38679983Y-45484017D01*
X38654346Y-45452777D01*
X38635296Y-45417138D01*
X38623565Y-45378468D01*
X38619000Y-45332112D01*
X38619000Y-44680888D01*
X38623565Y-44634532D01*
X38635296Y-44595862D01*
X38654346Y-44560223D01*
X38679983Y-44528983D01*
X38711223Y-44503346D01*
X38746862Y-44484296D01*
X38785532Y-44472565D01*
X38831888Y-44468000D01*
X39908112Y-44468000D01*
X39954468Y-44472565D01*
G37*
G36*
X33604468Y-44472565D02*
G01*
X33643138Y-44484296D01*
X33678777Y-44503346D01*
X33710017Y-44528983D01*
X33735654Y-44560223D01*
X33754704Y-44595862D01*
X33766435Y-44634532D01*
X33771000Y-44680888D01*
X33771000Y-45332112D01*
X33766435Y-45378468D01*
X33754704Y-45417138D01*
X33735654Y-45452777D01*
X33710017Y-45484017D01*
X33678777Y-45509654D01*
X33643138Y-45528704D01*
X33604468Y-45540435D01*
X33558112Y-45545000D01*
X32481888Y-45545000D01*
X32435532Y-45540435D01*
X32396862Y-45528704D01*
X32361223Y-45509654D01*
X32329983Y-45484017D01*
X32304346Y-45452777D01*
X32285296Y-45417138D01*
X32273565Y-45378468D01*
X32269000Y-45332112D01*
X32269000Y-44680888D01*
X32273565Y-44634532D01*
X32285296Y-44595862D01*
X32304346Y-44560223D01*
X32329983Y-44528983D01*
X32361223Y-44503346D01*
X32396862Y-44484296D01*
X32435532Y-44472565D01*
X32481888Y-44468000D01*
X33558112Y-44468000D01*
X33604468Y-44472565D01*
G37*
G36*
X43256468Y-44472565D02*
G01*
X43295138Y-44484296D01*
X43330777Y-44503346D01*
X43362017Y-44528983D01*
X43387654Y-44560223D01*
X43406704Y-44595862D01*
X43418435Y-44634532D01*
X43423000Y-44680888D01*
X43423000Y-45332112D01*
X43418435Y-45378468D01*
X43406704Y-45417138D01*
X43387654Y-45452777D01*
X43362017Y-45484017D01*
X43330777Y-45509654D01*
X43295138Y-45528704D01*
X43256468Y-45540435D01*
X43210112Y-45545000D01*
X42133888Y-45545000D01*
X42087532Y-45540435D01*
X42048862Y-45528704D01*
X42013223Y-45509654D01*
X41981983Y-45484017D01*
X41956346Y-45452777D01*
X41937296Y-45417138D01*
X41925565Y-45378468D01*
X41921000Y-45332112D01*
X41921000Y-44680888D01*
X41925565Y-44634532D01*
X41937296Y-44595862D01*
X41956346Y-44560223D01*
X41981983Y-44528983D01*
X42013223Y-44503346D01*
X42048862Y-44484296D01*
X42087532Y-44472565D01*
X42133888Y-44468000D01*
X43210112Y-44468000D01*
X43256468Y-44472565D01*
G37*
G36*
X53162468Y-44472565D02*
G01*
X53201138Y-44484296D01*
X53236777Y-44503346D01*
X53268017Y-44528983D01*
X53293654Y-44560223D01*
X53312704Y-44595862D01*
X53324435Y-44634532D01*
X53329000Y-44680888D01*
X53329000Y-45332112D01*
X53324435Y-45378468D01*
X53312704Y-45417138D01*
X53293654Y-45452777D01*
X53268017Y-45484017D01*
X53236777Y-45509654D01*
X53201138Y-45528704D01*
X53162468Y-45540435D01*
X53116112Y-45545000D01*
X52039888Y-45545000D01*
X51993532Y-45540435D01*
X51954862Y-45528704D01*
X51919223Y-45509654D01*
X51887983Y-45484017D01*
X51862346Y-45452777D01*
X51843296Y-45417138D01*
X51831565Y-45378468D01*
X51827000Y-45332112D01*
X51827000Y-44680888D01*
X51831565Y-44634532D01*
X51843296Y-44595862D01*
X51862346Y-44560223D01*
X51887983Y-44528983D01*
X51919223Y-44503346D01*
X51954862Y-44484296D01*
X51993532Y-44472565D01*
X52039888Y-44468000D01*
X53116112Y-44468000D01*
X53162468Y-44472565D01*
G37*
G36*
X35890468Y-44472565D02*
G01*
X35929138Y-44484296D01*
X35964777Y-44503346D01*
X35996017Y-44528983D01*
X36021654Y-44560223D01*
X36040704Y-44595862D01*
X36052435Y-44634532D01*
X36057000Y-44680888D01*
X36057000Y-45332112D01*
X36052435Y-45378468D01*
X36040704Y-45417138D01*
X36021654Y-45452777D01*
X35996017Y-45484017D01*
X35964777Y-45509654D01*
X35929138Y-45528704D01*
X35890468Y-45540435D01*
X35844112Y-45545000D01*
X34767888Y-45545000D01*
X34721532Y-45540435D01*
X34682862Y-45528704D01*
X34647223Y-45509654D01*
X34615983Y-45484017D01*
X34590346Y-45452777D01*
X34571296Y-45417138D01*
X34559565Y-45378468D01*
X34555000Y-45332112D01*
X34555000Y-44680888D01*
X34559565Y-44634532D01*
X34571296Y-44595862D01*
X34590346Y-44560223D01*
X34615983Y-44528983D01*
X34647223Y-44503346D01*
X34682862Y-44484296D01*
X34721532Y-44472565D01*
X34767888Y-44468000D01*
X35844112Y-44468000D01*
X35890468Y-44472565D01*
G37*
G36*
X29695000Y-45470000D02*
G01*
X28693000Y-45470000D01*
X28693000Y-44568000D01*
X29695000Y-44568000D01*
X29695000Y-45470000D01*
G37*
G36*
X27695000Y-44520000D02*
G01*
X26693000Y-44520000D01*
X26693000Y-43618000D01*
X27695000Y-43618000D01*
X27695000Y-44520000D01*
G37*
G36*
X81991000Y-44188000D02*
G01*
X80389000Y-44188000D01*
X80389000Y-43086000D01*
X81991000Y-43086000D01*
X81991000Y-44188000D01*
G37*
G36*
X77091000Y-44188000D02*
G01*
X75489000Y-44188000D01*
X75489000Y-43086000D01*
X77091000Y-43086000D01*
X77091000Y-44188000D01*
G37*
G36*
X56210468Y-42597565D02*
G01*
X56249138Y-42609296D01*
X56284777Y-42628346D01*
X56316017Y-42653983D01*
X56341654Y-42685223D01*
X56360704Y-42720862D01*
X56372435Y-42759532D01*
X56377000Y-42805888D01*
X56377000Y-43457112D01*
X56372435Y-43503468D01*
X56360704Y-43542138D01*
X56341654Y-43577777D01*
X56316017Y-43609017D01*
X56284777Y-43634654D01*
X56249138Y-43653704D01*
X56210468Y-43665435D01*
X56164112Y-43670000D01*
X55087888Y-43670000D01*
X55041532Y-43665435D01*
X55002862Y-43653704D01*
X54967223Y-43634654D01*
X54935983Y-43609017D01*
X54910346Y-43577777D01*
X54891296Y-43542138D01*
X54879565Y-43503468D01*
X54875000Y-43457112D01*
X54875000Y-42805888D01*
X54879565Y-42759532D01*
X54891296Y-42720862D01*
X54910346Y-42685223D01*
X54935983Y-42653983D01*
X54967223Y-42628346D01*
X55002862Y-42609296D01*
X55041532Y-42597565D01*
X55087888Y-42593000D01*
X56164112Y-42593000D01*
X56210468Y-42597565D01*
G37*
G36*
X35890468Y-42597565D02*
G01*
X35929138Y-42609296D01*
X35964777Y-42628346D01*
X35996017Y-42653983D01*
X36021654Y-42685223D01*
X36040704Y-42720862D01*
X36052435Y-42759532D01*
X36057000Y-42805888D01*
X36057000Y-43457112D01*
X36052435Y-43503468D01*
X36040704Y-43542138D01*
X36021654Y-43577777D01*
X35996017Y-43609017D01*
X35964777Y-43634654D01*
X35929138Y-43653704D01*
X35890468Y-43665435D01*
X35844112Y-43670000D01*
X34767888Y-43670000D01*
X34721532Y-43665435D01*
X34682862Y-43653704D01*
X34647223Y-43634654D01*
X34615983Y-43609017D01*
X34590346Y-43577777D01*
X34571296Y-43542138D01*
X34559565Y-43503468D01*
X34555000Y-43457112D01*
X34555000Y-42805888D01*
X34559565Y-42759532D01*
X34571296Y-42720862D01*
X34590346Y-42685223D01*
X34615983Y-42653983D01*
X34647223Y-42628346D01*
X34682862Y-42609296D01*
X34721532Y-42597565D01*
X34767888Y-42593000D01*
X35844112Y-42593000D01*
X35890468Y-42597565D01*
G37*
G36*
X39954468Y-42597565D02*
G01*
X39993138Y-42609296D01*
X40028777Y-42628346D01*
X40060017Y-42653983D01*
X40085654Y-42685223D01*
X40104704Y-42720862D01*
X40116435Y-42759532D01*
X40121000Y-42805888D01*
X40121000Y-43457112D01*
X40116435Y-43503468D01*
X40104704Y-43542138D01*
X40085654Y-43577777D01*
X40060017Y-43609017D01*
X40028777Y-43634654D01*
X39993138Y-43653704D01*
X39954468Y-43665435D01*
X39908112Y-43670000D01*
X38831888Y-43670000D01*
X38785532Y-43665435D01*
X38746862Y-43653704D01*
X38711223Y-43634654D01*
X38679983Y-43609017D01*
X38654346Y-43577777D01*
X38635296Y-43542138D01*
X38623565Y-43503468D01*
X38619000Y-43457112D01*
X38619000Y-42805888D01*
X38623565Y-42759532D01*
X38635296Y-42720862D01*
X38654346Y-42685223D01*
X38679983Y-42653983D01*
X38711223Y-42628346D01*
X38746862Y-42609296D01*
X38785532Y-42597565D01*
X38831888Y-42593000D01*
X39908112Y-42593000D01*
X39954468Y-42597565D01*
G37*
G36*
X46812468Y-42597565D02*
G01*
X46851138Y-42609296D01*
X46886777Y-42628346D01*
X46918017Y-42653983D01*
X46943654Y-42685223D01*
X46962704Y-42720862D01*
X46974435Y-42759532D01*
X46979000Y-42805888D01*
X46979000Y-43457112D01*
X46974435Y-43503468D01*
X46962704Y-43542138D01*
X46943654Y-43577777D01*
X46918017Y-43609017D01*
X46886777Y-43634654D01*
X46851138Y-43653704D01*
X46812468Y-43665435D01*
X46766112Y-43670000D01*
X45689888Y-43670000D01*
X45643532Y-43665435D01*
X45604862Y-43653704D01*
X45569223Y-43634654D01*
X45537983Y-43609017D01*
X45512346Y-43577777D01*
X45493296Y-43542138D01*
X45481565Y-43503468D01*
X45477000Y-43457112D01*
X45477000Y-42805888D01*
X45481565Y-42759532D01*
X45493296Y-42720862D01*
X45512346Y-42685223D01*
X45537983Y-42653983D01*
X45569223Y-42628346D01*
X45604862Y-42609296D01*
X45643532Y-42597565D01*
X45689888Y-42593000D01*
X46766112Y-42593000D01*
X46812468Y-42597565D01*
G37*
G36*
X50114468Y-42597565D02*
G01*
X50153138Y-42609296D01*
X50188777Y-42628346D01*
X50220017Y-42653983D01*
X50245654Y-42685223D01*
X50264704Y-42720862D01*
X50276435Y-42759532D01*
X50281000Y-42805888D01*
X50281000Y-43457112D01*
X50276435Y-43503468D01*
X50264704Y-43542138D01*
X50245654Y-43577777D01*
X50220017Y-43609017D01*
X50188777Y-43634654D01*
X50153138Y-43653704D01*
X50114468Y-43665435D01*
X50068112Y-43670000D01*
X48991888Y-43670000D01*
X48945532Y-43665435D01*
X48906862Y-43653704D01*
X48871223Y-43634654D01*
X48839983Y-43609017D01*
X48814346Y-43577777D01*
X48795296Y-43542138D01*
X48783565Y-43503468D01*
X48779000Y-43457112D01*
X48779000Y-42805888D01*
X48783565Y-42759532D01*
X48795296Y-42720862D01*
X48814346Y-42685223D01*
X48839983Y-42653983D01*
X48871223Y-42628346D01*
X48906862Y-42609296D01*
X48945532Y-42597565D01*
X48991888Y-42593000D01*
X50068112Y-42593000D01*
X50114468Y-42597565D01*
G37*
G36*
X33604468Y-42597565D02*
G01*
X33643138Y-42609296D01*
X33678777Y-42628346D01*
X33710017Y-42653983D01*
X33735654Y-42685223D01*
X33754704Y-42720862D01*
X33766435Y-42759532D01*
X33771000Y-42805888D01*
X33771000Y-43457112D01*
X33766435Y-43503468D01*
X33754704Y-43542138D01*
X33735654Y-43577777D01*
X33710017Y-43609017D01*
X33678777Y-43634654D01*
X33643138Y-43653704D01*
X33604468Y-43665435D01*
X33558112Y-43670000D01*
X32481888Y-43670000D01*
X32435532Y-43665435D01*
X32396862Y-43653704D01*
X32361223Y-43634654D01*
X32329983Y-43609017D01*
X32304346Y-43577777D01*
X32285296Y-43542138D01*
X32273565Y-43503468D01*
X32269000Y-43457112D01*
X32269000Y-42805888D01*
X32273565Y-42759532D01*
X32285296Y-42720862D01*
X32304346Y-42685223D01*
X32329983Y-42653983D01*
X32361223Y-42628346D01*
X32396862Y-42609296D01*
X32435532Y-42597565D01*
X32481888Y-42593000D01*
X33558112Y-42593000D01*
X33604468Y-42597565D01*
G37*
G36*
X53162468Y-42597565D02*
G01*
X53201138Y-42609296D01*
X53236777Y-42628346D01*
X53268017Y-42653983D01*
X53293654Y-42685223D01*
X53312704Y-42720862D01*
X53324435Y-42759532D01*
X53329000Y-42805888D01*
X53329000Y-43457112D01*
X53324435Y-43503468D01*
X53312704Y-43542138D01*
X53293654Y-43577777D01*
X53268017Y-43609017D01*
X53236777Y-43634654D01*
X53201138Y-43653704D01*
X53162468Y-43665435D01*
X53116112Y-43670000D01*
X52039888Y-43670000D01*
X51993532Y-43665435D01*
X51954862Y-43653704D01*
X51919223Y-43634654D01*
X51887983Y-43609017D01*
X51862346Y-43577777D01*
X51843296Y-43542138D01*
X51831565Y-43503468D01*
X51827000Y-43457112D01*
X51827000Y-42805888D01*
X51831565Y-42759532D01*
X51843296Y-42720862D01*
X51862346Y-42685223D01*
X51887983Y-42653983D01*
X51919223Y-42628346D01*
X51954862Y-42609296D01*
X51993532Y-42597565D01*
X52039888Y-42593000D01*
X53116112Y-42593000D01*
X53162468Y-42597565D01*
G37*
G36*
X43256468Y-42597565D02*
G01*
X43295138Y-42609296D01*
X43330777Y-42628346D01*
X43362017Y-42653983D01*
X43387654Y-42685223D01*
X43406704Y-42720862D01*
X43418435Y-42759532D01*
X43423000Y-42805888D01*
X43423000Y-43457112D01*
X43418435Y-43503468D01*
X43406704Y-43542138D01*
X43387654Y-43577777D01*
X43362017Y-43609017D01*
X43330777Y-43634654D01*
X43295138Y-43653704D01*
X43256468Y-43665435D01*
X43210112Y-43670000D01*
X42133888Y-43670000D01*
X42087532Y-43665435D01*
X42048862Y-43653704D01*
X42013223Y-43634654D01*
X41981983Y-43609017D01*
X41956346Y-43577777D01*
X41937296Y-43542138D01*
X41925565Y-43503468D01*
X41921000Y-43457112D01*
X41921000Y-42805888D01*
X41925565Y-42759532D01*
X41937296Y-42720862D01*
X41956346Y-42685223D01*
X41981983Y-42653983D01*
X42013223Y-42628346D01*
X42048862Y-42609296D01*
X42087532Y-42597565D01*
X42133888Y-42593000D01*
X43210112Y-42593000D01*
X43256468Y-42597565D01*
G37*
G36*
X29695000Y-43570000D02*
G01*
X28693000Y-43570000D01*
X28693000Y-42668000D01*
X29695000Y-42668000D01*
X29695000Y-43570000D01*
G37*
G36*
X77091000Y-40988000D02*
G01*
X75489000Y-40988000D01*
X75489000Y-39886000D01*
X77091000Y-39886000D01*
X77091000Y-40988000D01*
G37*
G36*
X81991000Y-40988000D02*
G01*
X80389000Y-40988000D01*
X80389000Y-39886000D01*
X81991000Y-39886000D01*
X81991000Y-40988000D01*
G37*
G36*
X38079642Y-38218781D02*
G01*
X38225414Y-38279162D01*
X38225416Y-38279163D01*
X38356608Y-38366822D01*
X38468178Y-38478392D01*
X38555837Y-38609584D01*
X38555838Y-38609586D01*
X38616219Y-38755358D01*
X38647000Y-38910107D01*
X38647000Y-39067893D01*
X38616219Y-39222642D01*
X38555838Y-39368414D01*
X38555837Y-39368416D01*
X38468178Y-39499608D01*
X38356608Y-39611178D01*
X38225416Y-39698837D01*
X38225415Y-39698838D01*
X38225414Y-39698838D01*
X38079642Y-39759219D01*
X37924893Y-39790000D01*
X37767107Y-39790000D01*
X37612358Y-39759219D01*
X37466586Y-39698838D01*
X37466585Y-39698838D01*
X37466584Y-39698837D01*
X37335392Y-39611178D01*
X37223822Y-39499608D01*
X37136163Y-39368416D01*
X37136162Y-39368414D01*
X37075781Y-39222642D01*
X37045000Y-39067893D01*
X37045000Y-38910107D01*
X37075781Y-38755358D01*
X37136162Y-38609586D01*
X37136163Y-38609584D01*
X37223822Y-38478392D01*
X37335392Y-38366822D01*
X37466584Y-38279163D01*
X37466586Y-38279162D01*
X37612358Y-38218781D01*
X37767107Y-38188000D01*
X37924893Y-38188000D01*
X38079642Y-38218781D01*
G37*
G36*
X35539642Y-38218781D02*
G01*
X35685414Y-38279162D01*
X35685416Y-38279163D01*
X35816608Y-38366822D01*
X35928178Y-38478392D01*
X36015837Y-38609584D01*
X36015838Y-38609586D01*
X36076219Y-38755358D01*
X36107000Y-38910107D01*
X36107000Y-39067893D01*
X36076219Y-39222642D01*
X36015838Y-39368414D01*
X36015837Y-39368416D01*
X35928178Y-39499608D01*
X35816608Y-39611178D01*
X35685416Y-39698837D01*
X35685415Y-39698838D01*
X35685414Y-39698838D01*
X35539642Y-39759219D01*
X35384893Y-39790000D01*
X35227107Y-39790000D01*
X35072358Y-39759219D01*
X34926586Y-39698838D01*
X34926585Y-39698838D01*
X34926584Y-39698837D01*
X34795392Y-39611178D01*
X34683822Y-39499608D01*
X34596163Y-39368416D01*
X34596162Y-39368414D01*
X34535781Y-39222642D01*
X34505000Y-39067893D01*
X34505000Y-38910107D01*
X34535781Y-38755358D01*
X34596162Y-38609586D01*
X34596163Y-38609584D01*
X34683822Y-38478392D01*
X34795392Y-38366822D01*
X34926584Y-38279163D01*
X34926586Y-38279162D01*
X35072358Y-38218781D01*
X35227107Y-38188000D01*
X35384893Y-38188000D01*
X35539642Y-38218781D01*
G37*
G36*
X30459642Y-38218781D02*
G01*
X30605414Y-38279162D01*
X30605416Y-38279163D01*
X30736608Y-38366822D01*
X30848178Y-38478392D01*
X30935837Y-38609584D01*
X30935838Y-38609586D01*
X30996219Y-38755358D01*
X31027000Y-38910107D01*
X31027000Y-39067893D01*
X30996219Y-39222642D01*
X30935838Y-39368414D01*
X30935837Y-39368416D01*
X30848178Y-39499608D01*
X30736608Y-39611178D01*
X30605416Y-39698837D01*
X30605415Y-39698838D01*
X30605414Y-39698838D01*
X30459642Y-39759219D01*
X30304893Y-39790000D01*
X30147107Y-39790000D01*
X29992358Y-39759219D01*
X29846586Y-39698838D01*
X29846585Y-39698838D01*
X29846584Y-39698837D01*
X29715392Y-39611178D01*
X29603822Y-39499608D01*
X29516163Y-39368416D01*
X29516162Y-39368414D01*
X29455781Y-39222642D01*
X29425000Y-39067893D01*
X29425000Y-38910107D01*
X29455781Y-38755358D01*
X29516162Y-38609586D01*
X29516163Y-38609584D01*
X29603822Y-38478392D01*
X29715392Y-38366822D01*
X29846584Y-38279163D01*
X29846586Y-38279162D01*
X29992358Y-38218781D01*
X30147107Y-38188000D01*
X30304893Y-38188000D01*
X30459642Y-38218781D01*
G37*
G36*
X27919642Y-38218781D02*
G01*
X28065414Y-38279162D01*
X28065416Y-38279163D01*
X28196608Y-38366822D01*
X28308178Y-38478392D01*
X28395837Y-38609584D01*
X28395838Y-38609586D01*
X28456219Y-38755358D01*
X28487000Y-38910107D01*
X28487000Y-39067893D01*
X28456219Y-39222642D01*
X28395838Y-39368414D01*
X28395837Y-39368416D01*
X28308178Y-39499608D01*
X28196608Y-39611178D01*
X28065416Y-39698837D01*
X28065415Y-39698838D01*
X28065414Y-39698838D01*
X27919642Y-39759219D01*
X27764893Y-39790000D01*
X27607107Y-39790000D01*
X27452358Y-39759219D01*
X27306586Y-39698838D01*
X27306585Y-39698838D01*
X27306584Y-39698837D01*
X27175392Y-39611178D01*
X27063822Y-39499608D01*
X26976163Y-39368416D01*
X26976162Y-39368414D01*
X26915781Y-39222642D01*
X26885000Y-39067893D01*
X26885000Y-38910107D01*
X26915781Y-38755358D01*
X26976162Y-38609586D01*
X26976163Y-38609584D01*
X27063822Y-38478392D01*
X27175392Y-38366822D01*
X27306584Y-38279163D01*
X27306586Y-38279162D01*
X27452358Y-38218781D01*
X27607107Y-38188000D01*
X27764893Y-38188000D01*
X27919642Y-38218781D01*
G37*
G36*
X25947000Y-39790000D02*
G01*
X24345000Y-39790000D01*
X24345000Y-38188000D01*
X25947000Y-38188000D01*
X25947000Y-39790000D01*
G37*
G36*
X40619642Y-38218781D02*
G01*
X40765414Y-38279162D01*
X40765416Y-38279163D01*
X40896608Y-38366822D01*
X41008178Y-38478392D01*
X41095837Y-38609584D01*
X41095838Y-38609586D01*
X41156219Y-38755358D01*
X41187000Y-38910107D01*
X41187000Y-39067893D01*
X41156219Y-39222642D01*
X41095838Y-39368414D01*
X41095837Y-39368416D01*
X41008178Y-39499608D01*
X40896608Y-39611178D01*
X40765416Y-39698837D01*
X40765415Y-39698838D01*
X40765414Y-39698838D01*
X40619642Y-39759219D01*
X40464893Y-39790000D01*
X40307107Y-39790000D01*
X40152358Y-39759219D01*
X40006586Y-39698838D01*
X40006585Y-39698838D01*
X40006584Y-39698837D01*
X39875392Y-39611178D01*
X39763822Y-39499608D01*
X39676163Y-39368416D01*
X39676162Y-39368414D01*
X39615781Y-39222642D01*
X39585000Y-39067893D01*
X39585000Y-38910107D01*
X39615781Y-38755358D01*
X39676162Y-38609586D01*
X39676163Y-38609584D01*
X39763822Y-38478392D01*
X39875392Y-38366822D01*
X40006584Y-38279163D01*
X40006586Y-38279162D01*
X40152358Y-38218781D01*
X40307107Y-38188000D01*
X40464893Y-38188000D01*
X40619642Y-38218781D01*
G37*
G36*
X43159642Y-38218781D02*
G01*
X43305414Y-38279162D01*
X43305416Y-38279163D01*
X43436608Y-38366822D01*
X43548178Y-38478392D01*
X43635837Y-38609584D01*
X43635838Y-38609586D01*
X43696219Y-38755358D01*
X43727000Y-38910107D01*
X43727000Y-39067893D01*
X43696219Y-39222642D01*
X43635838Y-39368414D01*
X43635837Y-39368416D01*
X43548178Y-39499608D01*
X43436608Y-39611178D01*
X43305416Y-39698837D01*
X43305415Y-39698838D01*
X43305414Y-39698838D01*
X43159642Y-39759219D01*
X43004893Y-39790000D01*
X42847107Y-39790000D01*
X42692358Y-39759219D01*
X42546586Y-39698838D01*
X42546585Y-39698838D01*
X42546584Y-39698837D01*
X42415392Y-39611178D01*
X42303822Y-39499608D01*
X42216163Y-39368416D01*
X42216162Y-39368414D01*
X42155781Y-39222642D01*
X42125000Y-39067893D01*
X42125000Y-38910107D01*
X42155781Y-38755358D01*
X42216162Y-38609586D01*
X42216163Y-38609584D01*
X42303822Y-38478392D01*
X42415392Y-38366822D01*
X42546584Y-38279163D01*
X42546586Y-38279162D01*
X42692358Y-38218781D01*
X42847107Y-38188000D01*
X43004893Y-38188000D01*
X43159642Y-38218781D01*
G37*
G36*
X45699642Y-38218781D02*
G01*
X45845414Y-38279162D01*
X45845416Y-38279163D01*
X45976608Y-38366822D01*
X46088178Y-38478392D01*
X46175837Y-38609584D01*
X46175838Y-38609586D01*
X46236219Y-38755358D01*
X46267000Y-38910107D01*
X46267000Y-39067893D01*
X46236219Y-39222642D01*
X46175838Y-39368414D01*
X46175837Y-39368416D01*
X46088178Y-39499608D01*
X45976608Y-39611178D01*
X45845416Y-39698837D01*
X45845415Y-39698838D01*
X45845414Y-39698838D01*
X45699642Y-39759219D01*
X45544893Y-39790000D01*
X45387107Y-39790000D01*
X45232358Y-39759219D01*
X45086586Y-39698838D01*
X45086585Y-39698838D01*
X45086584Y-39698837D01*
X44955392Y-39611178D01*
X44843822Y-39499608D01*
X44756163Y-39368416D01*
X44756162Y-39368414D01*
X44695781Y-39222642D01*
X44665000Y-39067893D01*
X44665000Y-38910107D01*
X44695781Y-38755358D01*
X44756162Y-38609586D01*
X44756163Y-38609584D01*
X44843822Y-38478392D01*
X44955392Y-38366822D01*
X45086584Y-38279163D01*
X45086586Y-38279162D01*
X45232358Y-38218781D01*
X45387107Y-38188000D01*
X45544893Y-38188000D01*
X45699642Y-38218781D01*
G37*
G36*
X32999642Y-38218781D02*
G01*
X33145414Y-38279162D01*
X33145416Y-38279163D01*
X33276608Y-38366822D01*
X33388178Y-38478392D01*
X33475837Y-38609584D01*
X33475838Y-38609586D01*
X33536219Y-38755358D01*
X33567000Y-38910107D01*
X33567000Y-39067893D01*
X33536219Y-39222642D01*
X33475838Y-39368414D01*
X33475837Y-39368416D01*
X33388178Y-39499608D01*
X33276608Y-39611178D01*
X33145416Y-39698837D01*
X33145415Y-39698838D01*
X33145414Y-39698838D01*
X32999642Y-39759219D01*
X32844893Y-39790000D01*
X32687107Y-39790000D01*
X32532358Y-39759219D01*
X32386586Y-39698838D01*
X32386585Y-39698838D01*
X32386584Y-39698837D01*
X32255392Y-39611178D01*
X32143822Y-39499608D01*
X32056163Y-39368416D01*
X32056162Y-39368414D01*
X31995781Y-39222642D01*
X31965000Y-39067893D01*
X31965000Y-38910107D01*
X31995781Y-38755358D01*
X32056162Y-38609586D01*
X32056163Y-38609584D01*
X32143822Y-38478392D01*
X32255392Y-38366822D01*
X32386584Y-38279163D01*
X32386586Y-38279162D01*
X32532358Y-38218781D01*
X32687107Y-38188000D01*
X32844893Y-38188000D01*
X32999642Y-38218781D01*
G37*
G36*
X61207142Y-36683242D02*
G01*
X61355101Y-36744529D01*
X61488255Y-36833499D01*
X61601501Y-36946745D01*
X61690471Y-37079899D01*
X61751758Y-37227858D01*
X61783000Y-37384925D01*
X61783000Y-37545075D01*
X61751758Y-37702142D01*
X61690471Y-37850101D01*
X61601501Y-37983255D01*
X61488255Y-38096501D01*
X61355101Y-38185471D01*
X61207142Y-38246758D01*
X61050075Y-38278000D01*
X60889925Y-38278000D01*
X60732858Y-38246758D01*
X60584899Y-38185471D01*
X60451745Y-38096501D01*
X60338499Y-37983255D01*
X60249529Y-37850101D01*
X60188242Y-37702142D01*
X60157000Y-37545075D01*
X60157000Y-37384925D01*
X60188242Y-37227858D01*
X60249529Y-37079899D01*
X60338499Y-36946745D01*
X60451745Y-36833499D01*
X60584899Y-36744529D01*
X60732858Y-36683242D01*
X60889925Y-36652000D01*
X61050075Y-36652000D01*
X61207142Y-36683242D01*
G37*
G36*
X69383000Y-38278000D02*
G01*
X67757000Y-38278000D01*
X67757000Y-36652000D01*
X69383000Y-36652000D01*
X69383000Y-38278000D01*
G37*
G36*
X77091000Y-36822000D02*
G01*
X75489000Y-36822000D01*
X75489000Y-35720000D01*
X77091000Y-35720000D01*
X77091000Y-36822000D01*
G37*
G36*
X81991000Y-36822000D02*
G01*
X80389000Y-36822000D01*
X80389000Y-35720000D01*
X81991000Y-35720000D01*
X81991000Y-36822000D01*
G37*
G36*
X77091000Y-33622000D02*
G01*
X75489000Y-33622000D01*
X75489000Y-32520000D01*
X77091000Y-32520000D01*
X77091000Y-33622000D01*
G37*
G36*
X81991000Y-33622000D02*
G01*
X80389000Y-33622000D01*
X80389000Y-32520000D01*
X81991000Y-32520000D01*
X81991000Y-33622000D01*
G37*
G36*
X81991000Y-29710000D02*
G01*
X80389000Y-29710000D01*
X80389000Y-28608000D01*
X81991000Y-28608000D01*
X81991000Y-29710000D01*
G37*
G36*
X77091000Y-29710000D02*
G01*
X75489000Y-29710000D01*
X75489000Y-28608000D01*
X77091000Y-28608000D01*
X77091000Y-29710000D01*
G37*
G36*
X81991000Y-26510000D02*
G01*
X80389000Y-26510000D01*
X80389000Y-25408000D01*
X81991000Y-25408000D01*
X81991000Y-26510000D01*
G37*
G36*
X77091000Y-26510000D02*
G01*
X75489000Y-26510000D01*
X75489000Y-25408000D01*
X77091000Y-25408000D01*
X77091000Y-26510000D01*
G37*
G36*
X40619642Y-22978781D02*
G01*
X40765414Y-23039162D01*
X40765416Y-23039163D01*
X40896608Y-23126822D01*
X41008178Y-23238392D01*
X41095837Y-23369584D01*
X41095838Y-23369586D01*
X41156219Y-23515358D01*
X41187000Y-23670107D01*
X41187000Y-23827893D01*
X41156219Y-23982642D01*
X41095838Y-24128414D01*
X41095837Y-24128416D01*
X41008178Y-24259608D01*
X40896608Y-24371178D01*
X40765416Y-24458837D01*
X40765415Y-24458838D01*
X40765414Y-24458838D01*
X40619642Y-24519219D01*
X40464893Y-24550000D01*
X40307107Y-24550000D01*
X40152358Y-24519219D01*
X40006586Y-24458838D01*
X40006585Y-24458838D01*
X40006584Y-24458837D01*
X39875392Y-24371178D01*
X39763822Y-24259608D01*
X39676163Y-24128416D01*
X39676162Y-24128414D01*
X39615781Y-23982642D01*
X39585000Y-23827893D01*
X39585000Y-23670107D01*
X39615781Y-23515358D01*
X39676162Y-23369586D01*
X39676163Y-23369584D01*
X39763822Y-23238392D01*
X39875392Y-23126822D01*
X40006584Y-23039163D01*
X40006586Y-23039162D01*
X40152358Y-22978781D01*
X40307107Y-22948000D01*
X40464893Y-22948000D01*
X40619642Y-22978781D01*
G37*
G36*
X25379642Y-22978781D02*
G01*
X25525414Y-23039162D01*
X25525416Y-23039163D01*
X25656608Y-23126822D01*
X25768178Y-23238392D01*
X25855837Y-23369584D01*
X25855838Y-23369586D01*
X25916219Y-23515358D01*
X25947000Y-23670107D01*
X25947000Y-23827893D01*
X25916219Y-23982642D01*
X25855838Y-24128414D01*
X25855837Y-24128416D01*
X25768178Y-24259608D01*
X25656608Y-24371178D01*
X25525416Y-24458837D01*
X25525415Y-24458838D01*
X25525414Y-24458838D01*
X25379642Y-24519219D01*
X25224893Y-24550000D01*
X25067107Y-24550000D01*
X24912358Y-24519219D01*
X24766586Y-24458838D01*
X24766585Y-24458838D01*
X24766584Y-24458837D01*
X24635392Y-24371178D01*
X24523822Y-24259608D01*
X24436163Y-24128416D01*
X24436162Y-24128414D01*
X24375781Y-23982642D01*
X24345000Y-23827893D01*
X24345000Y-23670107D01*
X24375781Y-23515358D01*
X24436162Y-23369586D01*
X24436163Y-23369584D01*
X24523822Y-23238392D01*
X24635392Y-23126822D01*
X24766584Y-23039163D01*
X24766586Y-23039162D01*
X24912358Y-22978781D01*
X25067107Y-22948000D01*
X25224893Y-22948000D01*
X25379642Y-22978781D01*
G37*
G36*
X27919642Y-22978781D02*
G01*
X28065414Y-23039162D01*
X28065416Y-23039163D01*
X28196608Y-23126822D01*
X28308178Y-23238392D01*
X28395837Y-23369584D01*
X28395838Y-23369586D01*
X28456219Y-23515358D01*
X28487000Y-23670107D01*
X28487000Y-23827893D01*
X28456219Y-23982642D01*
X28395838Y-24128414D01*
X28395837Y-24128416D01*
X28308178Y-24259608D01*
X28196608Y-24371178D01*
X28065416Y-24458837D01*
X28065415Y-24458838D01*
X28065414Y-24458838D01*
X27919642Y-24519219D01*
X27764893Y-24550000D01*
X27607107Y-24550000D01*
X27452358Y-24519219D01*
X27306586Y-24458838D01*
X27306585Y-24458838D01*
X27306584Y-24458837D01*
X27175392Y-24371178D01*
X27063822Y-24259608D01*
X26976163Y-24128416D01*
X26976162Y-24128414D01*
X26915781Y-23982642D01*
X26885000Y-23827893D01*
X26885000Y-23670107D01*
X26915781Y-23515358D01*
X26976162Y-23369586D01*
X26976163Y-23369584D01*
X27063822Y-23238392D01*
X27175392Y-23126822D01*
X27306584Y-23039163D01*
X27306586Y-23039162D01*
X27452358Y-22978781D01*
X27607107Y-22948000D01*
X27764893Y-22948000D01*
X27919642Y-22978781D01*
G37*
G36*
X30459642Y-22978781D02*
G01*
X30605414Y-23039162D01*
X30605416Y-23039163D01*
X30736608Y-23126822D01*
X30848178Y-23238392D01*
X30935837Y-23369584D01*
X30935838Y-23369586D01*
X30996219Y-23515358D01*
X31027000Y-23670107D01*
X31027000Y-23827893D01*
X30996219Y-23982642D01*
X30935838Y-24128414D01*
X30935837Y-24128416D01*
X30848178Y-24259608D01*
X30736608Y-24371178D01*
X30605416Y-24458837D01*
X30605415Y-24458838D01*
X30605414Y-24458838D01*
X30459642Y-24519219D01*
X30304893Y-24550000D01*
X30147107Y-24550000D01*
X29992358Y-24519219D01*
X29846586Y-24458838D01*
X29846585Y-24458838D01*
X29846584Y-24458837D01*
X29715392Y-24371178D01*
X29603822Y-24259608D01*
X29516163Y-24128416D01*
X29516162Y-24128414D01*
X29455781Y-23982642D01*
X29425000Y-23827893D01*
X29425000Y-23670107D01*
X29455781Y-23515358D01*
X29516162Y-23369586D01*
X29516163Y-23369584D01*
X29603822Y-23238392D01*
X29715392Y-23126822D01*
X29846584Y-23039163D01*
X29846586Y-23039162D01*
X29992358Y-22978781D01*
X30147107Y-22948000D01*
X30304893Y-22948000D01*
X30459642Y-22978781D01*
G37*
G36*
X32999642Y-22978781D02*
G01*
X33145414Y-23039162D01*
X33145416Y-23039163D01*
X33276608Y-23126822D01*
X33388178Y-23238392D01*
X33475837Y-23369584D01*
X33475838Y-23369586D01*
X33536219Y-23515358D01*
X33567000Y-23670107D01*
X33567000Y-23827893D01*
X33536219Y-23982642D01*
X33475838Y-24128414D01*
X33475837Y-24128416D01*
X33388178Y-24259608D01*
X33276608Y-24371178D01*
X33145416Y-24458837D01*
X33145415Y-24458838D01*
X33145414Y-24458838D01*
X32999642Y-24519219D01*
X32844893Y-24550000D01*
X32687107Y-24550000D01*
X32532358Y-24519219D01*
X32386586Y-24458838D01*
X32386585Y-24458838D01*
X32386584Y-24458837D01*
X32255392Y-24371178D01*
X32143822Y-24259608D01*
X32056163Y-24128416D01*
X32056162Y-24128414D01*
X31995781Y-23982642D01*
X31965000Y-23827893D01*
X31965000Y-23670107D01*
X31995781Y-23515358D01*
X32056162Y-23369586D01*
X32056163Y-23369584D01*
X32143822Y-23238392D01*
X32255392Y-23126822D01*
X32386584Y-23039163D01*
X32386586Y-23039162D01*
X32532358Y-22978781D01*
X32687107Y-22948000D01*
X32844893Y-22948000D01*
X32999642Y-22978781D01*
G37*
G36*
X35539642Y-22978781D02*
G01*
X35685414Y-23039162D01*
X35685416Y-23039163D01*
X35816608Y-23126822D01*
X35928178Y-23238392D01*
X36015837Y-23369584D01*
X36015838Y-23369586D01*
X36076219Y-23515358D01*
X36107000Y-23670107D01*
X36107000Y-23827893D01*
X36076219Y-23982642D01*
X36015838Y-24128414D01*
X36015837Y-24128416D01*
X35928178Y-24259608D01*
X35816608Y-24371178D01*
X35685416Y-24458837D01*
X35685415Y-24458838D01*
X35685414Y-24458838D01*
X35539642Y-24519219D01*
X35384893Y-24550000D01*
X35227107Y-24550000D01*
X35072358Y-24519219D01*
X34926586Y-24458838D01*
X34926585Y-24458838D01*
X34926584Y-24458837D01*
X34795392Y-24371178D01*
X34683822Y-24259608D01*
X34596163Y-24128416D01*
X34596162Y-24128414D01*
X34535781Y-23982642D01*
X34505000Y-23827893D01*
X34505000Y-23670107D01*
X34535781Y-23515358D01*
X34596162Y-23369586D01*
X34596163Y-23369584D01*
X34683822Y-23238392D01*
X34795392Y-23126822D01*
X34926584Y-23039163D01*
X34926586Y-23039162D01*
X35072358Y-22978781D01*
X35227107Y-22948000D01*
X35384893Y-22948000D01*
X35539642Y-22978781D01*
G37*
G36*
X38079642Y-22978781D02*
G01*
X38225414Y-23039162D01*
X38225416Y-23039163D01*
X38356608Y-23126822D01*
X38468178Y-23238392D01*
X38555837Y-23369584D01*
X38555838Y-23369586D01*
X38616219Y-23515358D01*
X38647000Y-23670107D01*
X38647000Y-23827893D01*
X38616219Y-23982642D01*
X38555838Y-24128414D01*
X38555837Y-24128416D01*
X38468178Y-24259608D01*
X38356608Y-24371178D01*
X38225416Y-24458837D01*
X38225415Y-24458838D01*
X38225414Y-24458838D01*
X38079642Y-24519219D01*
X37924893Y-24550000D01*
X37767107Y-24550000D01*
X37612358Y-24519219D01*
X37466586Y-24458838D01*
X37466585Y-24458838D01*
X37466584Y-24458837D01*
X37335392Y-24371178D01*
X37223822Y-24259608D01*
X37136163Y-24128416D01*
X37136162Y-24128414D01*
X37075781Y-23982642D01*
X37045000Y-23827893D01*
X37045000Y-23670107D01*
X37075781Y-23515358D01*
X37136162Y-23369586D01*
X37136163Y-23369584D01*
X37223822Y-23238392D01*
X37335392Y-23126822D01*
X37466584Y-23039163D01*
X37466586Y-23039162D01*
X37612358Y-22978781D01*
X37767107Y-22948000D01*
X37924893Y-22948000D01*
X38079642Y-22978781D01*
G37*
G36*
X43159642Y-22978781D02*
G01*
X43305414Y-23039162D01*
X43305416Y-23039163D01*
X43436608Y-23126822D01*
X43548178Y-23238392D01*
X43635837Y-23369584D01*
X43635838Y-23369586D01*
X43696219Y-23515358D01*
X43727000Y-23670107D01*
X43727000Y-23827893D01*
X43696219Y-23982642D01*
X43635838Y-24128414D01*
X43635837Y-24128416D01*
X43548178Y-24259608D01*
X43436608Y-24371178D01*
X43305416Y-24458837D01*
X43305415Y-24458838D01*
X43305414Y-24458838D01*
X43159642Y-24519219D01*
X43004893Y-24550000D01*
X42847107Y-24550000D01*
X42692358Y-24519219D01*
X42546586Y-24458838D01*
X42546585Y-24458838D01*
X42546584Y-24458837D01*
X42415392Y-24371178D01*
X42303822Y-24259608D01*
X42216163Y-24128416D01*
X42216162Y-24128414D01*
X42155781Y-23982642D01*
X42125000Y-23827893D01*
X42125000Y-23670107D01*
X42155781Y-23515358D01*
X42216162Y-23369586D01*
X42216163Y-23369584D01*
X42303822Y-23238392D01*
X42415392Y-23126822D01*
X42546584Y-23039163D01*
X42546586Y-23039162D01*
X42692358Y-22978781D01*
X42847107Y-22948000D01*
X43004893Y-22948000D01*
X43159642Y-22978781D01*
G37*
G36*
X45699642Y-22978781D02*
G01*
X45845414Y-23039162D01*
X45845416Y-23039163D01*
X45976608Y-23126822D01*
X46088178Y-23238392D01*
X46175837Y-23369584D01*
X46175838Y-23369586D01*
X46236219Y-23515358D01*
X46267000Y-23670107D01*
X46267000Y-23827893D01*
X46236219Y-23982642D01*
X46175838Y-24128414D01*
X46175837Y-24128416D01*
X46088178Y-24259608D01*
X45976608Y-24371178D01*
X45845416Y-24458837D01*
X45845415Y-24458838D01*
X45845414Y-24458838D01*
X45699642Y-24519219D01*
X45544893Y-24550000D01*
X45387107Y-24550000D01*
X45232358Y-24519219D01*
X45086586Y-24458838D01*
X45086585Y-24458838D01*
X45086584Y-24458837D01*
X44955392Y-24371178D01*
X44843822Y-24259608D01*
X44756163Y-24128416D01*
X44756162Y-24128414D01*
X44695781Y-23982642D01*
X44665000Y-23827893D01*
X44665000Y-23670107D01*
X44695781Y-23515358D01*
X44756162Y-23369586D01*
X44756163Y-23369584D01*
X44843822Y-23238392D01*
X44955392Y-23126822D01*
X45086584Y-23039163D01*
X45086586Y-23039162D01*
X45232358Y-22978781D01*
X45387107Y-22948000D01*
X45544893Y-22948000D01*
X45699642Y-22978781D01*
G37*
G36*
X63072142Y-20300242D02*
G01*
X63220101Y-20361529D01*
X63353255Y-20450499D01*
X63466501Y-20563745D01*
X63555471Y-20696899D01*
X63616758Y-20844858D01*
X63648000Y-21001925D01*
X63648000Y-21162075D01*
X63616758Y-21319142D01*
X63555471Y-21467101D01*
X63466501Y-21600255D01*
X63353255Y-21713501D01*
X63220101Y-21802471D01*
X63072142Y-21863758D01*
X62915075Y-21895000D01*
X62754925Y-21895000D01*
X62597858Y-21863758D01*
X62449899Y-21802471D01*
X62316745Y-21713501D01*
X62203499Y-21600255D01*
X62114529Y-21467101D01*
X62053242Y-21319142D01*
X62022000Y-21162075D01*
X62022000Y-21001925D01*
X62053242Y-20844858D01*
X62114529Y-20696899D01*
X62203499Y-20563745D01*
X62316745Y-20450499D01*
X62449899Y-20361529D01*
X62597858Y-20300242D01*
X62754925Y-20269000D01*
X62915075Y-20269000D01*
X63072142Y-20300242D01*
G37*
G36*
X65612142Y-20300242D02*
G01*
X65760101Y-20361529D01*
X65893255Y-20450499D01*
X66006501Y-20563745D01*
X66095471Y-20696899D01*
X66156758Y-20844858D01*
X66188000Y-21001925D01*
X66188000Y-21162075D01*
X66156758Y-21319142D01*
X66095471Y-21467101D01*
X66006501Y-21600255D01*
X65893255Y-21713501D01*
X65760101Y-21802471D01*
X65612142Y-21863758D01*
X65455075Y-21895000D01*
X65294925Y-21895000D01*
X65137858Y-21863758D01*
X64989899Y-21802471D01*
X64856745Y-21713501D01*
X64743499Y-21600255D01*
X64654529Y-21467101D01*
X64593242Y-21319142D01*
X64562000Y-21162075D01*
X64562000Y-21001925D01*
X64593242Y-20844858D01*
X64654529Y-20696899D01*
X64743499Y-20563745D01*
X64856745Y-20450499D01*
X64989899Y-20361529D01*
X65137858Y-20300242D01*
X65294925Y-20269000D01*
X65455075Y-20269000D01*
X65612142Y-20300242D01*
G37*
G36*
X60532142Y-20300242D02*
G01*
X60680101Y-20361529D01*
X60813255Y-20450499D01*
X60926501Y-20563745D01*
X61015471Y-20696899D01*
X61076758Y-20844858D01*
X61108000Y-21001925D01*
X61108000Y-21162075D01*
X61076758Y-21319142D01*
X61015471Y-21467101D01*
X60926501Y-21600255D01*
X60813255Y-21713501D01*
X60680101Y-21802471D01*
X60532142Y-21863758D01*
X60375075Y-21895000D01*
X60214925Y-21895000D01*
X60057858Y-21863758D01*
X59909899Y-21802471D01*
X59776745Y-21713501D01*
X59663499Y-21600255D01*
X59574529Y-21467101D01*
X59513242Y-21319142D01*
X59482000Y-21162075D01*
X59482000Y-21001925D01*
X59513242Y-20844858D01*
X59574529Y-20696899D01*
X59663499Y-20563745D01*
X59776745Y-20450499D01*
X59909899Y-20361529D01*
X60057858Y-20300242D01*
X60214925Y-20269000D01*
X60375075Y-20269000D01*
X60532142Y-20300242D01*
G37*
G36*
X58568000Y-21895000D02*
G01*
X56942000Y-21895000D01*
X56942000Y-20269000D01*
X58568000Y-20269000D01*
X58568000Y-21895000D01*
G37*
M02*
