G04 #@! TF.GenerationSoftware,KiCad,Pcbnew,(5.1.5)-3*
G04 #@! TF.CreationDate,2020-04-27T21:50:17+02:00*
G04 #@! TF.ProjectId,czujnikParkowania,637a756a-6e69-46b5-9061-726b6f77616e,rev?*
G04 #@! TF.SameCoordinates,Original*
G04 #@! TF.FileFunction,Paste,Top*
G04 #@! TF.FilePolarity,Positive*
%FSLAX46Y46*%
G04 Gerber Fmt 4.6, Leading zero omitted, Abs format (unit mm)*
G04 Created by KiCad (PCBNEW (5.1.5)-3) date 2020-04-27 21:50:17*
%MOMM*%
%LPD*%
G04 APERTURE LIST*
%ADD10C,0.100000*%
%ADD11R,1.500000X1.000000*%
%ADD12R,0.900000X0.800000*%
%ADD13R,0.800000X0.900000*%
%ADD14R,1.600000X0.550000*%
%ADD15R,0.550000X1.600000*%
%ADD16R,1.500000X2.500000*%
%ADD17R,1.550000X1.300000*%
G04 APERTURE END LIST*
D10*
G36*
X57630142Y-70936174D02*
G01*
X57653803Y-70939684D01*
X57677007Y-70945496D01*
X57699529Y-70953554D01*
X57721153Y-70963782D01*
X57741670Y-70976079D01*
X57760883Y-70990329D01*
X57778607Y-71006393D01*
X57794671Y-71024117D01*
X57808921Y-71043330D01*
X57821218Y-71063847D01*
X57831446Y-71085471D01*
X57839504Y-71107993D01*
X57845316Y-71131197D01*
X57848826Y-71154858D01*
X57850000Y-71178750D01*
X57850000Y-71666250D01*
X57848826Y-71690142D01*
X57845316Y-71713803D01*
X57839504Y-71737007D01*
X57831446Y-71759529D01*
X57821218Y-71781153D01*
X57808921Y-71801670D01*
X57794671Y-71820883D01*
X57778607Y-71838607D01*
X57760883Y-71854671D01*
X57741670Y-71868921D01*
X57721153Y-71881218D01*
X57699529Y-71891446D01*
X57677007Y-71899504D01*
X57653803Y-71905316D01*
X57630142Y-71908826D01*
X57606250Y-71910000D01*
X56693750Y-71910000D01*
X56669858Y-71908826D01*
X56646197Y-71905316D01*
X56622993Y-71899504D01*
X56600471Y-71891446D01*
X56578847Y-71881218D01*
X56558330Y-71868921D01*
X56539117Y-71854671D01*
X56521393Y-71838607D01*
X56505329Y-71820883D01*
X56491079Y-71801670D01*
X56478782Y-71781153D01*
X56468554Y-71759529D01*
X56460496Y-71737007D01*
X56454684Y-71713803D01*
X56451174Y-71690142D01*
X56450000Y-71666250D01*
X56450000Y-71178750D01*
X56451174Y-71154858D01*
X56454684Y-71131197D01*
X56460496Y-71107993D01*
X56468554Y-71085471D01*
X56478782Y-71063847D01*
X56491079Y-71043330D01*
X56505329Y-71024117D01*
X56521393Y-71006393D01*
X56539117Y-70990329D01*
X56558330Y-70976079D01*
X56578847Y-70963782D01*
X56600471Y-70953554D01*
X56622993Y-70945496D01*
X56646197Y-70939684D01*
X56669858Y-70936174D01*
X56693750Y-70935000D01*
X57606250Y-70935000D01*
X57630142Y-70936174D01*
G37*
G36*
X57630142Y-69061174D02*
G01*
X57653803Y-69064684D01*
X57677007Y-69070496D01*
X57699529Y-69078554D01*
X57721153Y-69088782D01*
X57741670Y-69101079D01*
X57760883Y-69115329D01*
X57778607Y-69131393D01*
X57794671Y-69149117D01*
X57808921Y-69168330D01*
X57821218Y-69188847D01*
X57831446Y-69210471D01*
X57839504Y-69232993D01*
X57845316Y-69256197D01*
X57848826Y-69279858D01*
X57850000Y-69303750D01*
X57850000Y-69791250D01*
X57848826Y-69815142D01*
X57845316Y-69838803D01*
X57839504Y-69862007D01*
X57831446Y-69884529D01*
X57821218Y-69906153D01*
X57808921Y-69926670D01*
X57794671Y-69945883D01*
X57778607Y-69963607D01*
X57760883Y-69979671D01*
X57741670Y-69993921D01*
X57721153Y-70006218D01*
X57699529Y-70016446D01*
X57677007Y-70024504D01*
X57653803Y-70030316D01*
X57630142Y-70033826D01*
X57606250Y-70035000D01*
X56693750Y-70035000D01*
X56669858Y-70033826D01*
X56646197Y-70030316D01*
X56622993Y-70024504D01*
X56600471Y-70016446D01*
X56578847Y-70006218D01*
X56558330Y-69993921D01*
X56539117Y-69979671D01*
X56521393Y-69963607D01*
X56505329Y-69945883D01*
X56491079Y-69926670D01*
X56478782Y-69906153D01*
X56468554Y-69884529D01*
X56460496Y-69862007D01*
X56454684Y-69838803D01*
X56451174Y-69815142D01*
X56450000Y-69791250D01*
X56450000Y-69303750D01*
X56451174Y-69279858D01*
X56454684Y-69256197D01*
X56460496Y-69232993D01*
X56468554Y-69210471D01*
X56478782Y-69188847D01*
X56491079Y-69168330D01*
X56505329Y-69149117D01*
X56521393Y-69131393D01*
X56539117Y-69115329D01*
X56558330Y-69101079D01*
X56578847Y-69088782D01*
X56600471Y-69078554D01*
X56622993Y-69070496D01*
X56646197Y-69064684D01*
X56669858Y-69061174D01*
X56693750Y-69060000D01*
X57606250Y-69060000D01*
X57630142Y-69061174D01*
G37*
G36*
X68164142Y-77152174D02*
G01*
X68187803Y-77155684D01*
X68211007Y-77161496D01*
X68233529Y-77169554D01*
X68255153Y-77179782D01*
X68275670Y-77192079D01*
X68294883Y-77206329D01*
X68312607Y-77222393D01*
X68328671Y-77240117D01*
X68342921Y-77259330D01*
X68355218Y-77279847D01*
X68365446Y-77301471D01*
X68373504Y-77323993D01*
X68379316Y-77347197D01*
X68382826Y-77370858D01*
X68384000Y-77394750D01*
X68384000Y-78307250D01*
X68382826Y-78331142D01*
X68379316Y-78354803D01*
X68373504Y-78378007D01*
X68365446Y-78400529D01*
X68355218Y-78422153D01*
X68342921Y-78442670D01*
X68328671Y-78461883D01*
X68312607Y-78479607D01*
X68294883Y-78495671D01*
X68275670Y-78509921D01*
X68255153Y-78522218D01*
X68233529Y-78532446D01*
X68211007Y-78540504D01*
X68187803Y-78546316D01*
X68164142Y-78549826D01*
X68140250Y-78551000D01*
X67652750Y-78551000D01*
X67628858Y-78549826D01*
X67605197Y-78546316D01*
X67581993Y-78540504D01*
X67559471Y-78532446D01*
X67537847Y-78522218D01*
X67517330Y-78509921D01*
X67498117Y-78495671D01*
X67480393Y-78479607D01*
X67464329Y-78461883D01*
X67450079Y-78442670D01*
X67437782Y-78422153D01*
X67427554Y-78400529D01*
X67419496Y-78378007D01*
X67413684Y-78354803D01*
X67410174Y-78331142D01*
X67409000Y-78307250D01*
X67409000Y-77394750D01*
X67410174Y-77370858D01*
X67413684Y-77347197D01*
X67419496Y-77323993D01*
X67427554Y-77301471D01*
X67437782Y-77279847D01*
X67450079Y-77259330D01*
X67464329Y-77240117D01*
X67480393Y-77222393D01*
X67498117Y-77206329D01*
X67517330Y-77192079D01*
X67537847Y-77179782D01*
X67559471Y-77169554D01*
X67581993Y-77161496D01*
X67605197Y-77155684D01*
X67628858Y-77152174D01*
X67652750Y-77151000D01*
X68140250Y-77151000D01*
X68164142Y-77152174D01*
G37*
G36*
X70039142Y-77152174D02*
G01*
X70062803Y-77155684D01*
X70086007Y-77161496D01*
X70108529Y-77169554D01*
X70130153Y-77179782D01*
X70150670Y-77192079D01*
X70169883Y-77206329D01*
X70187607Y-77222393D01*
X70203671Y-77240117D01*
X70217921Y-77259330D01*
X70230218Y-77279847D01*
X70240446Y-77301471D01*
X70248504Y-77323993D01*
X70254316Y-77347197D01*
X70257826Y-77370858D01*
X70259000Y-77394750D01*
X70259000Y-78307250D01*
X70257826Y-78331142D01*
X70254316Y-78354803D01*
X70248504Y-78378007D01*
X70240446Y-78400529D01*
X70230218Y-78422153D01*
X70217921Y-78442670D01*
X70203671Y-78461883D01*
X70187607Y-78479607D01*
X70169883Y-78495671D01*
X70150670Y-78509921D01*
X70130153Y-78522218D01*
X70108529Y-78532446D01*
X70086007Y-78540504D01*
X70062803Y-78546316D01*
X70039142Y-78549826D01*
X70015250Y-78551000D01*
X69527750Y-78551000D01*
X69503858Y-78549826D01*
X69480197Y-78546316D01*
X69456993Y-78540504D01*
X69434471Y-78532446D01*
X69412847Y-78522218D01*
X69392330Y-78509921D01*
X69373117Y-78495671D01*
X69355393Y-78479607D01*
X69339329Y-78461883D01*
X69325079Y-78442670D01*
X69312782Y-78422153D01*
X69302554Y-78400529D01*
X69294496Y-78378007D01*
X69288684Y-78354803D01*
X69285174Y-78331142D01*
X69284000Y-78307250D01*
X69284000Y-77394750D01*
X69285174Y-77370858D01*
X69288684Y-77347197D01*
X69294496Y-77323993D01*
X69302554Y-77301471D01*
X69312782Y-77279847D01*
X69325079Y-77259330D01*
X69339329Y-77240117D01*
X69355393Y-77222393D01*
X69373117Y-77206329D01*
X69392330Y-77192079D01*
X69412847Y-77179782D01*
X69434471Y-77169554D01*
X69456993Y-77161496D01*
X69480197Y-77155684D01*
X69503858Y-77152174D01*
X69527750Y-77151000D01*
X70015250Y-77151000D01*
X70039142Y-77152174D01*
G37*
G36*
X71600142Y-63473174D02*
G01*
X71623803Y-63476684D01*
X71647007Y-63482496D01*
X71669529Y-63490554D01*
X71691153Y-63500782D01*
X71711670Y-63513079D01*
X71730883Y-63527329D01*
X71748607Y-63543393D01*
X71764671Y-63561117D01*
X71778921Y-63580330D01*
X71791218Y-63600847D01*
X71801446Y-63622471D01*
X71809504Y-63644993D01*
X71815316Y-63668197D01*
X71818826Y-63691858D01*
X71820000Y-63715750D01*
X71820000Y-64203250D01*
X71818826Y-64227142D01*
X71815316Y-64250803D01*
X71809504Y-64274007D01*
X71801446Y-64296529D01*
X71791218Y-64318153D01*
X71778921Y-64338670D01*
X71764671Y-64357883D01*
X71748607Y-64375607D01*
X71730883Y-64391671D01*
X71711670Y-64405921D01*
X71691153Y-64418218D01*
X71669529Y-64428446D01*
X71647007Y-64436504D01*
X71623803Y-64442316D01*
X71600142Y-64445826D01*
X71576250Y-64447000D01*
X70663750Y-64447000D01*
X70639858Y-64445826D01*
X70616197Y-64442316D01*
X70592993Y-64436504D01*
X70570471Y-64428446D01*
X70548847Y-64418218D01*
X70528330Y-64405921D01*
X70509117Y-64391671D01*
X70491393Y-64375607D01*
X70475329Y-64357883D01*
X70461079Y-64338670D01*
X70448782Y-64318153D01*
X70438554Y-64296529D01*
X70430496Y-64274007D01*
X70424684Y-64250803D01*
X70421174Y-64227142D01*
X70420000Y-64203250D01*
X70420000Y-63715750D01*
X70421174Y-63691858D01*
X70424684Y-63668197D01*
X70430496Y-63644993D01*
X70438554Y-63622471D01*
X70448782Y-63600847D01*
X70461079Y-63580330D01*
X70475329Y-63561117D01*
X70491393Y-63543393D01*
X70509117Y-63527329D01*
X70528330Y-63513079D01*
X70548847Y-63500782D01*
X70570471Y-63490554D01*
X70592993Y-63482496D01*
X70616197Y-63476684D01*
X70639858Y-63473174D01*
X70663750Y-63472000D01*
X71576250Y-63472000D01*
X71600142Y-63473174D01*
G37*
G36*
X71600142Y-65348174D02*
G01*
X71623803Y-65351684D01*
X71647007Y-65357496D01*
X71669529Y-65365554D01*
X71691153Y-65375782D01*
X71711670Y-65388079D01*
X71730883Y-65402329D01*
X71748607Y-65418393D01*
X71764671Y-65436117D01*
X71778921Y-65455330D01*
X71791218Y-65475847D01*
X71801446Y-65497471D01*
X71809504Y-65519993D01*
X71815316Y-65543197D01*
X71818826Y-65566858D01*
X71820000Y-65590750D01*
X71820000Y-66078250D01*
X71818826Y-66102142D01*
X71815316Y-66125803D01*
X71809504Y-66149007D01*
X71801446Y-66171529D01*
X71791218Y-66193153D01*
X71778921Y-66213670D01*
X71764671Y-66232883D01*
X71748607Y-66250607D01*
X71730883Y-66266671D01*
X71711670Y-66280921D01*
X71691153Y-66293218D01*
X71669529Y-66303446D01*
X71647007Y-66311504D01*
X71623803Y-66317316D01*
X71600142Y-66320826D01*
X71576250Y-66322000D01*
X70663750Y-66322000D01*
X70639858Y-66320826D01*
X70616197Y-66317316D01*
X70592993Y-66311504D01*
X70570471Y-66303446D01*
X70548847Y-66293218D01*
X70528330Y-66280921D01*
X70509117Y-66266671D01*
X70491393Y-66250607D01*
X70475329Y-66232883D01*
X70461079Y-66213670D01*
X70448782Y-66193153D01*
X70438554Y-66171529D01*
X70430496Y-66149007D01*
X70424684Y-66125803D01*
X70421174Y-66102142D01*
X70420000Y-66078250D01*
X70420000Y-65590750D01*
X70421174Y-65566858D01*
X70424684Y-65543197D01*
X70430496Y-65519993D01*
X70438554Y-65497471D01*
X70448782Y-65475847D01*
X70461079Y-65455330D01*
X70475329Y-65436117D01*
X70491393Y-65418393D01*
X70509117Y-65402329D01*
X70528330Y-65388079D01*
X70548847Y-65375782D01*
X70570471Y-65365554D01*
X70592993Y-65357496D01*
X70616197Y-65351684D01*
X70639858Y-65348174D01*
X70663750Y-65347000D01*
X71576250Y-65347000D01*
X71600142Y-65348174D01*
G37*
G36*
X71466142Y-54673174D02*
G01*
X71489803Y-54676684D01*
X71513007Y-54682496D01*
X71535529Y-54690554D01*
X71557153Y-54700782D01*
X71577670Y-54713079D01*
X71596883Y-54727329D01*
X71614607Y-54743393D01*
X71630671Y-54761117D01*
X71644921Y-54780330D01*
X71657218Y-54800847D01*
X71667446Y-54822471D01*
X71675504Y-54844993D01*
X71681316Y-54868197D01*
X71684826Y-54891858D01*
X71686000Y-54915750D01*
X71686000Y-55828250D01*
X71684826Y-55852142D01*
X71681316Y-55875803D01*
X71675504Y-55899007D01*
X71667446Y-55921529D01*
X71657218Y-55943153D01*
X71644921Y-55963670D01*
X71630671Y-55982883D01*
X71614607Y-56000607D01*
X71596883Y-56016671D01*
X71577670Y-56030921D01*
X71557153Y-56043218D01*
X71535529Y-56053446D01*
X71513007Y-56061504D01*
X71489803Y-56067316D01*
X71466142Y-56070826D01*
X71442250Y-56072000D01*
X70954750Y-56072000D01*
X70930858Y-56070826D01*
X70907197Y-56067316D01*
X70883993Y-56061504D01*
X70861471Y-56053446D01*
X70839847Y-56043218D01*
X70819330Y-56030921D01*
X70800117Y-56016671D01*
X70782393Y-56000607D01*
X70766329Y-55982883D01*
X70752079Y-55963670D01*
X70739782Y-55943153D01*
X70729554Y-55921529D01*
X70721496Y-55899007D01*
X70715684Y-55875803D01*
X70712174Y-55852142D01*
X70711000Y-55828250D01*
X70711000Y-54915750D01*
X70712174Y-54891858D01*
X70715684Y-54868197D01*
X70721496Y-54844993D01*
X70729554Y-54822471D01*
X70739782Y-54800847D01*
X70752079Y-54780330D01*
X70766329Y-54761117D01*
X70782393Y-54743393D01*
X70800117Y-54727329D01*
X70819330Y-54713079D01*
X70839847Y-54700782D01*
X70861471Y-54690554D01*
X70883993Y-54682496D01*
X70907197Y-54676684D01*
X70930858Y-54673174D01*
X70954750Y-54672000D01*
X71442250Y-54672000D01*
X71466142Y-54673174D01*
G37*
G36*
X73341142Y-54673174D02*
G01*
X73364803Y-54676684D01*
X73388007Y-54682496D01*
X73410529Y-54690554D01*
X73432153Y-54700782D01*
X73452670Y-54713079D01*
X73471883Y-54727329D01*
X73489607Y-54743393D01*
X73505671Y-54761117D01*
X73519921Y-54780330D01*
X73532218Y-54800847D01*
X73542446Y-54822471D01*
X73550504Y-54844993D01*
X73556316Y-54868197D01*
X73559826Y-54891858D01*
X73561000Y-54915750D01*
X73561000Y-55828250D01*
X73559826Y-55852142D01*
X73556316Y-55875803D01*
X73550504Y-55899007D01*
X73542446Y-55921529D01*
X73532218Y-55943153D01*
X73519921Y-55963670D01*
X73505671Y-55982883D01*
X73489607Y-56000607D01*
X73471883Y-56016671D01*
X73452670Y-56030921D01*
X73432153Y-56043218D01*
X73410529Y-56053446D01*
X73388007Y-56061504D01*
X73364803Y-56067316D01*
X73341142Y-56070826D01*
X73317250Y-56072000D01*
X72829750Y-56072000D01*
X72805858Y-56070826D01*
X72782197Y-56067316D01*
X72758993Y-56061504D01*
X72736471Y-56053446D01*
X72714847Y-56043218D01*
X72694330Y-56030921D01*
X72675117Y-56016671D01*
X72657393Y-56000607D01*
X72641329Y-55982883D01*
X72627079Y-55963670D01*
X72614782Y-55943153D01*
X72604554Y-55921529D01*
X72596496Y-55899007D01*
X72590684Y-55875803D01*
X72587174Y-55852142D01*
X72586000Y-55828250D01*
X72586000Y-54915750D01*
X72587174Y-54891858D01*
X72590684Y-54868197D01*
X72596496Y-54844993D01*
X72604554Y-54822471D01*
X72614782Y-54800847D01*
X72627079Y-54780330D01*
X72641329Y-54761117D01*
X72657393Y-54743393D01*
X72675117Y-54727329D01*
X72694330Y-54713079D01*
X72714847Y-54700782D01*
X72736471Y-54690554D01*
X72758993Y-54682496D01*
X72782197Y-54676684D01*
X72805858Y-54673174D01*
X72829750Y-54672000D01*
X73317250Y-54672000D01*
X73341142Y-54673174D01*
G37*
D11*
X76290000Y-55423000D03*
X76290000Y-58623000D03*
X81190000Y-55423000D03*
X81190000Y-58623000D03*
X81190000Y-51003000D03*
X81190000Y-47803000D03*
X76290000Y-51003000D03*
X76290000Y-47803000D03*
X76290000Y-40437000D03*
X76290000Y-43637000D03*
X81190000Y-40437000D03*
X81190000Y-43637000D03*
X81190000Y-36271000D03*
X81190000Y-33071000D03*
X76290000Y-36271000D03*
X76290000Y-33071000D03*
X76290000Y-25959000D03*
X76290000Y-29159000D03*
X81190000Y-25959000D03*
X81190000Y-29159000D03*
D12*
X44751500Y-74485500D03*
X42751500Y-75435500D03*
X42751500Y-73535500D03*
D10*
G36*
X57251203Y-74338222D02*
G01*
X57265764Y-74340382D01*
X57280043Y-74343959D01*
X57293903Y-74348918D01*
X57307210Y-74355212D01*
X57319836Y-74362780D01*
X57331659Y-74371548D01*
X57342566Y-74381434D01*
X57352452Y-74392341D01*
X57361220Y-74404164D01*
X57368788Y-74416790D01*
X57375082Y-74430097D01*
X57380041Y-74443957D01*
X57383618Y-74458236D01*
X57385778Y-74472797D01*
X57386500Y-74487500D01*
X57386500Y-76137500D01*
X57385778Y-76152203D01*
X57383618Y-76166764D01*
X57380041Y-76181043D01*
X57375082Y-76194903D01*
X57368788Y-76208210D01*
X57361220Y-76220836D01*
X57352452Y-76232659D01*
X57342566Y-76243566D01*
X57331659Y-76253452D01*
X57319836Y-76262220D01*
X57307210Y-76269788D01*
X57293903Y-76276082D01*
X57280043Y-76281041D01*
X57265764Y-76284618D01*
X57251203Y-76286778D01*
X57236500Y-76287500D01*
X56936500Y-76287500D01*
X56921797Y-76286778D01*
X56907236Y-76284618D01*
X56892957Y-76281041D01*
X56879097Y-76276082D01*
X56865790Y-76269788D01*
X56853164Y-76262220D01*
X56841341Y-76253452D01*
X56830434Y-76243566D01*
X56820548Y-76232659D01*
X56811780Y-76220836D01*
X56804212Y-76208210D01*
X56797918Y-76194903D01*
X56792959Y-76181043D01*
X56789382Y-76166764D01*
X56787222Y-76152203D01*
X56786500Y-76137500D01*
X56786500Y-74487500D01*
X56787222Y-74472797D01*
X56789382Y-74458236D01*
X56792959Y-74443957D01*
X56797918Y-74430097D01*
X56804212Y-74416790D01*
X56811780Y-74404164D01*
X56820548Y-74392341D01*
X56830434Y-74381434D01*
X56841341Y-74371548D01*
X56853164Y-74362780D01*
X56865790Y-74355212D01*
X56879097Y-74348918D01*
X56892957Y-74343959D01*
X56907236Y-74340382D01*
X56921797Y-74338222D01*
X56936500Y-74337500D01*
X57236500Y-74337500D01*
X57251203Y-74338222D01*
G37*
G36*
X55981203Y-74338222D02*
G01*
X55995764Y-74340382D01*
X56010043Y-74343959D01*
X56023903Y-74348918D01*
X56037210Y-74355212D01*
X56049836Y-74362780D01*
X56061659Y-74371548D01*
X56072566Y-74381434D01*
X56082452Y-74392341D01*
X56091220Y-74404164D01*
X56098788Y-74416790D01*
X56105082Y-74430097D01*
X56110041Y-74443957D01*
X56113618Y-74458236D01*
X56115778Y-74472797D01*
X56116500Y-74487500D01*
X56116500Y-76137500D01*
X56115778Y-76152203D01*
X56113618Y-76166764D01*
X56110041Y-76181043D01*
X56105082Y-76194903D01*
X56098788Y-76208210D01*
X56091220Y-76220836D01*
X56082452Y-76232659D01*
X56072566Y-76243566D01*
X56061659Y-76253452D01*
X56049836Y-76262220D01*
X56037210Y-76269788D01*
X56023903Y-76276082D01*
X56010043Y-76281041D01*
X55995764Y-76284618D01*
X55981203Y-76286778D01*
X55966500Y-76287500D01*
X55666500Y-76287500D01*
X55651797Y-76286778D01*
X55637236Y-76284618D01*
X55622957Y-76281041D01*
X55609097Y-76276082D01*
X55595790Y-76269788D01*
X55583164Y-76262220D01*
X55571341Y-76253452D01*
X55560434Y-76243566D01*
X55550548Y-76232659D01*
X55541780Y-76220836D01*
X55534212Y-76208210D01*
X55527918Y-76194903D01*
X55522959Y-76181043D01*
X55519382Y-76166764D01*
X55517222Y-76152203D01*
X55516500Y-76137500D01*
X55516500Y-74487500D01*
X55517222Y-74472797D01*
X55519382Y-74458236D01*
X55522959Y-74443957D01*
X55527918Y-74430097D01*
X55534212Y-74416790D01*
X55541780Y-74404164D01*
X55550548Y-74392341D01*
X55560434Y-74381434D01*
X55571341Y-74371548D01*
X55583164Y-74362780D01*
X55595790Y-74355212D01*
X55609097Y-74348918D01*
X55622957Y-74343959D01*
X55637236Y-74340382D01*
X55651797Y-74338222D01*
X55666500Y-74337500D01*
X55966500Y-74337500D01*
X55981203Y-74338222D01*
G37*
G36*
X54711203Y-74338222D02*
G01*
X54725764Y-74340382D01*
X54740043Y-74343959D01*
X54753903Y-74348918D01*
X54767210Y-74355212D01*
X54779836Y-74362780D01*
X54791659Y-74371548D01*
X54802566Y-74381434D01*
X54812452Y-74392341D01*
X54821220Y-74404164D01*
X54828788Y-74416790D01*
X54835082Y-74430097D01*
X54840041Y-74443957D01*
X54843618Y-74458236D01*
X54845778Y-74472797D01*
X54846500Y-74487500D01*
X54846500Y-76137500D01*
X54845778Y-76152203D01*
X54843618Y-76166764D01*
X54840041Y-76181043D01*
X54835082Y-76194903D01*
X54828788Y-76208210D01*
X54821220Y-76220836D01*
X54812452Y-76232659D01*
X54802566Y-76243566D01*
X54791659Y-76253452D01*
X54779836Y-76262220D01*
X54767210Y-76269788D01*
X54753903Y-76276082D01*
X54740043Y-76281041D01*
X54725764Y-76284618D01*
X54711203Y-76286778D01*
X54696500Y-76287500D01*
X54396500Y-76287500D01*
X54381797Y-76286778D01*
X54367236Y-76284618D01*
X54352957Y-76281041D01*
X54339097Y-76276082D01*
X54325790Y-76269788D01*
X54313164Y-76262220D01*
X54301341Y-76253452D01*
X54290434Y-76243566D01*
X54280548Y-76232659D01*
X54271780Y-76220836D01*
X54264212Y-76208210D01*
X54257918Y-76194903D01*
X54252959Y-76181043D01*
X54249382Y-76166764D01*
X54247222Y-76152203D01*
X54246500Y-76137500D01*
X54246500Y-74487500D01*
X54247222Y-74472797D01*
X54249382Y-74458236D01*
X54252959Y-74443957D01*
X54257918Y-74430097D01*
X54264212Y-74416790D01*
X54271780Y-74404164D01*
X54280548Y-74392341D01*
X54290434Y-74381434D01*
X54301341Y-74371548D01*
X54313164Y-74362780D01*
X54325790Y-74355212D01*
X54339097Y-74348918D01*
X54352957Y-74343959D01*
X54367236Y-74340382D01*
X54381797Y-74338222D01*
X54396500Y-74337500D01*
X54696500Y-74337500D01*
X54711203Y-74338222D01*
G37*
G36*
X53441203Y-74338222D02*
G01*
X53455764Y-74340382D01*
X53470043Y-74343959D01*
X53483903Y-74348918D01*
X53497210Y-74355212D01*
X53509836Y-74362780D01*
X53521659Y-74371548D01*
X53532566Y-74381434D01*
X53542452Y-74392341D01*
X53551220Y-74404164D01*
X53558788Y-74416790D01*
X53565082Y-74430097D01*
X53570041Y-74443957D01*
X53573618Y-74458236D01*
X53575778Y-74472797D01*
X53576500Y-74487500D01*
X53576500Y-76137500D01*
X53575778Y-76152203D01*
X53573618Y-76166764D01*
X53570041Y-76181043D01*
X53565082Y-76194903D01*
X53558788Y-76208210D01*
X53551220Y-76220836D01*
X53542452Y-76232659D01*
X53532566Y-76243566D01*
X53521659Y-76253452D01*
X53509836Y-76262220D01*
X53497210Y-76269788D01*
X53483903Y-76276082D01*
X53470043Y-76281041D01*
X53455764Y-76284618D01*
X53441203Y-76286778D01*
X53426500Y-76287500D01*
X53126500Y-76287500D01*
X53111797Y-76286778D01*
X53097236Y-76284618D01*
X53082957Y-76281041D01*
X53069097Y-76276082D01*
X53055790Y-76269788D01*
X53043164Y-76262220D01*
X53031341Y-76253452D01*
X53020434Y-76243566D01*
X53010548Y-76232659D01*
X53001780Y-76220836D01*
X52994212Y-76208210D01*
X52987918Y-76194903D01*
X52982959Y-76181043D01*
X52979382Y-76166764D01*
X52977222Y-76152203D01*
X52976500Y-76137500D01*
X52976500Y-74487500D01*
X52977222Y-74472797D01*
X52979382Y-74458236D01*
X52982959Y-74443957D01*
X52987918Y-74430097D01*
X52994212Y-74416790D01*
X53001780Y-74404164D01*
X53010548Y-74392341D01*
X53020434Y-74381434D01*
X53031341Y-74371548D01*
X53043164Y-74362780D01*
X53055790Y-74355212D01*
X53069097Y-74348918D01*
X53082957Y-74343959D01*
X53097236Y-74340382D01*
X53111797Y-74338222D01*
X53126500Y-74337500D01*
X53426500Y-74337500D01*
X53441203Y-74338222D01*
G37*
G36*
X53441203Y-79288222D02*
G01*
X53455764Y-79290382D01*
X53470043Y-79293959D01*
X53483903Y-79298918D01*
X53497210Y-79305212D01*
X53509836Y-79312780D01*
X53521659Y-79321548D01*
X53532566Y-79331434D01*
X53542452Y-79342341D01*
X53551220Y-79354164D01*
X53558788Y-79366790D01*
X53565082Y-79380097D01*
X53570041Y-79393957D01*
X53573618Y-79408236D01*
X53575778Y-79422797D01*
X53576500Y-79437500D01*
X53576500Y-81087500D01*
X53575778Y-81102203D01*
X53573618Y-81116764D01*
X53570041Y-81131043D01*
X53565082Y-81144903D01*
X53558788Y-81158210D01*
X53551220Y-81170836D01*
X53542452Y-81182659D01*
X53532566Y-81193566D01*
X53521659Y-81203452D01*
X53509836Y-81212220D01*
X53497210Y-81219788D01*
X53483903Y-81226082D01*
X53470043Y-81231041D01*
X53455764Y-81234618D01*
X53441203Y-81236778D01*
X53426500Y-81237500D01*
X53126500Y-81237500D01*
X53111797Y-81236778D01*
X53097236Y-81234618D01*
X53082957Y-81231041D01*
X53069097Y-81226082D01*
X53055790Y-81219788D01*
X53043164Y-81212220D01*
X53031341Y-81203452D01*
X53020434Y-81193566D01*
X53010548Y-81182659D01*
X53001780Y-81170836D01*
X52994212Y-81158210D01*
X52987918Y-81144903D01*
X52982959Y-81131043D01*
X52979382Y-81116764D01*
X52977222Y-81102203D01*
X52976500Y-81087500D01*
X52976500Y-79437500D01*
X52977222Y-79422797D01*
X52979382Y-79408236D01*
X52982959Y-79393957D01*
X52987918Y-79380097D01*
X52994212Y-79366790D01*
X53001780Y-79354164D01*
X53010548Y-79342341D01*
X53020434Y-79331434D01*
X53031341Y-79321548D01*
X53043164Y-79312780D01*
X53055790Y-79305212D01*
X53069097Y-79298918D01*
X53082957Y-79293959D01*
X53097236Y-79290382D01*
X53111797Y-79288222D01*
X53126500Y-79287500D01*
X53426500Y-79287500D01*
X53441203Y-79288222D01*
G37*
G36*
X54711203Y-79288222D02*
G01*
X54725764Y-79290382D01*
X54740043Y-79293959D01*
X54753903Y-79298918D01*
X54767210Y-79305212D01*
X54779836Y-79312780D01*
X54791659Y-79321548D01*
X54802566Y-79331434D01*
X54812452Y-79342341D01*
X54821220Y-79354164D01*
X54828788Y-79366790D01*
X54835082Y-79380097D01*
X54840041Y-79393957D01*
X54843618Y-79408236D01*
X54845778Y-79422797D01*
X54846500Y-79437500D01*
X54846500Y-81087500D01*
X54845778Y-81102203D01*
X54843618Y-81116764D01*
X54840041Y-81131043D01*
X54835082Y-81144903D01*
X54828788Y-81158210D01*
X54821220Y-81170836D01*
X54812452Y-81182659D01*
X54802566Y-81193566D01*
X54791659Y-81203452D01*
X54779836Y-81212220D01*
X54767210Y-81219788D01*
X54753903Y-81226082D01*
X54740043Y-81231041D01*
X54725764Y-81234618D01*
X54711203Y-81236778D01*
X54696500Y-81237500D01*
X54396500Y-81237500D01*
X54381797Y-81236778D01*
X54367236Y-81234618D01*
X54352957Y-81231041D01*
X54339097Y-81226082D01*
X54325790Y-81219788D01*
X54313164Y-81212220D01*
X54301341Y-81203452D01*
X54290434Y-81193566D01*
X54280548Y-81182659D01*
X54271780Y-81170836D01*
X54264212Y-81158210D01*
X54257918Y-81144903D01*
X54252959Y-81131043D01*
X54249382Y-81116764D01*
X54247222Y-81102203D01*
X54246500Y-81087500D01*
X54246500Y-79437500D01*
X54247222Y-79422797D01*
X54249382Y-79408236D01*
X54252959Y-79393957D01*
X54257918Y-79380097D01*
X54264212Y-79366790D01*
X54271780Y-79354164D01*
X54280548Y-79342341D01*
X54290434Y-79331434D01*
X54301341Y-79321548D01*
X54313164Y-79312780D01*
X54325790Y-79305212D01*
X54339097Y-79298918D01*
X54352957Y-79293959D01*
X54367236Y-79290382D01*
X54381797Y-79288222D01*
X54396500Y-79287500D01*
X54696500Y-79287500D01*
X54711203Y-79288222D01*
G37*
G36*
X55981203Y-79288222D02*
G01*
X55995764Y-79290382D01*
X56010043Y-79293959D01*
X56023903Y-79298918D01*
X56037210Y-79305212D01*
X56049836Y-79312780D01*
X56061659Y-79321548D01*
X56072566Y-79331434D01*
X56082452Y-79342341D01*
X56091220Y-79354164D01*
X56098788Y-79366790D01*
X56105082Y-79380097D01*
X56110041Y-79393957D01*
X56113618Y-79408236D01*
X56115778Y-79422797D01*
X56116500Y-79437500D01*
X56116500Y-81087500D01*
X56115778Y-81102203D01*
X56113618Y-81116764D01*
X56110041Y-81131043D01*
X56105082Y-81144903D01*
X56098788Y-81158210D01*
X56091220Y-81170836D01*
X56082452Y-81182659D01*
X56072566Y-81193566D01*
X56061659Y-81203452D01*
X56049836Y-81212220D01*
X56037210Y-81219788D01*
X56023903Y-81226082D01*
X56010043Y-81231041D01*
X55995764Y-81234618D01*
X55981203Y-81236778D01*
X55966500Y-81237500D01*
X55666500Y-81237500D01*
X55651797Y-81236778D01*
X55637236Y-81234618D01*
X55622957Y-81231041D01*
X55609097Y-81226082D01*
X55595790Y-81219788D01*
X55583164Y-81212220D01*
X55571341Y-81203452D01*
X55560434Y-81193566D01*
X55550548Y-81182659D01*
X55541780Y-81170836D01*
X55534212Y-81158210D01*
X55527918Y-81144903D01*
X55522959Y-81131043D01*
X55519382Y-81116764D01*
X55517222Y-81102203D01*
X55516500Y-81087500D01*
X55516500Y-79437500D01*
X55517222Y-79422797D01*
X55519382Y-79408236D01*
X55522959Y-79393957D01*
X55527918Y-79380097D01*
X55534212Y-79366790D01*
X55541780Y-79354164D01*
X55550548Y-79342341D01*
X55560434Y-79331434D01*
X55571341Y-79321548D01*
X55583164Y-79312780D01*
X55595790Y-79305212D01*
X55609097Y-79298918D01*
X55622957Y-79293959D01*
X55637236Y-79290382D01*
X55651797Y-79288222D01*
X55666500Y-79287500D01*
X55966500Y-79287500D01*
X55981203Y-79288222D01*
G37*
G36*
X57251203Y-79288222D02*
G01*
X57265764Y-79290382D01*
X57280043Y-79293959D01*
X57293903Y-79298918D01*
X57307210Y-79305212D01*
X57319836Y-79312780D01*
X57331659Y-79321548D01*
X57342566Y-79331434D01*
X57352452Y-79342341D01*
X57361220Y-79354164D01*
X57368788Y-79366790D01*
X57375082Y-79380097D01*
X57380041Y-79393957D01*
X57383618Y-79408236D01*
X57385778Y-79422797D01*
X57386500Y-79437500D01*
X57386500Y-81087500D01*
X57385778Y-81102203D01*
X57383618Y-81116764D01*
X57380041Y-81131043D01*
X57375082Y-81144903D01*
X57368788Y-81158210D01*
X57361220Y-81170836D01*
X57352452Y-81182659D01*
X57342566Y-81193566D01*
X57331659Y-81203452D01*
X57319836Y-81212220D01*
X57307210Y-81219788D01*
X57293903Y-81226082D01*
X57280043Y-81231041D01*
X57265764Y-81234618D01*
X57251203Y-81236778D01*
X57236500Y-81237500D01*
X56936500Y-81237500D01*
X56921797Y-81236778D01*
X56907236Y-81234618D01*
X56892957Y-81231041D01*
X56879097Y-81226082D01*
X56865790Y-81219788D01*
X56853164Y-81212220D01*
X56841341Y-81203452D01*
X56830434Y-81193566D01*
X56820548Y-81182659D01*
X56811780Y-81170836D01*
X56804212Y-81158210D01*
X56797918Y-81144903D01*
X56792959Y-81131043D01*
X56789382Y-81116764D01*
X56787222Y-81102203D01*
X56786500Y-81087500D01*
X56786500Y-79437500D01*
X56787222Y-79422797D01*
X56789382Y-79408236D01*
X56792959Y-79393957D01*
X56797918Y-79380097D01*
X56804212Y-79366790D01*
X56811780Y-79354164D01*
X56820548Y-79342341D01*
X56830434Y-79331434D01*
X56841341Y-79321548D01*
X56853164Y-79312780D01*
X56865790Y-79305212D01*
X56879097Y-79298918D01*
X56892957Y-79293959D01*
X56907236Y-79290382D01*
X56921797Y-79288222D01*
X56936500Y-79287500D01*
X57236500Y-79287500D01*
X57251203Y-79288222D01*
G37*
D13*
X28514000Y-57388000D03*
X30414000Y-57388000D03*
X29464000Y-55388000D03*
D12*
X26940000Y-49850000D03*
X26940000Y-51750000D03*
X28940000Y-50800000D03*
X27194000Y-44069000D03*
X29194000Y-43119000D03*
X29194000Y-45019000D03*
D10*
G36*
X47978142Y-77443174D02*
G01*
X48001803Y-77446684D01*
X48025007Y-77452496D01*
X48047529Y-77460554D01*
X48069153Y-77470782D01*
X48089670Y-77483079D01*
X48108883Y-77497329D01*
X48126607Y-77513393D01*
X48142671Y-77531117D01*
X48156921Y-77550330D01*
X48169218Y-77570847D01*
X48179446Y-77592471D01*
X48187504Y-77614993D01*
X48193316Y-77638197D01*
X48196826Y-77661858D01*
X48198000Y-77685750D01*
X48198000Y-78173250D01*
X48196826Y-78197142D01*
X48193316Y-78220803D01*
X48187504Y-78244007D01*
X48179446Y-78266529D01*
X48169218Y-78288153D01*
X48156921Y-78308670D01*
X48142671Y-78327883D01*
X48126607Y-78345607D01*
X48108883Y-78361671D01*
X48089670Y-78375921D01*
X48069153Y-78388218D01*
X48047529Y-78398446D01*
X48025007Y-78406504D01*
X48001803Y-78412316D01*
X47978142Y-78415826D01*
X47954250Y-78417000D01*
X47041750Y-78417000D01*
X47017858Y-78415826D01*
X46994197Y-78412316D01*
X46970993Y-78406504D01*
X46948471Y-78398446D01*
X46926847Y-78388218D01*
X46906330Y-78375921D01*
X46887117Y-78361671D01*
X46869393Y-78345607D01*
X46853329Y-78327883D01*
X46839079Y-78308670D01*
X46826782Y-78288153D01*
X46816554Y-78266529D01*
X46808496Y-78244007D01*
X46802684Y-78220803D01*
X46799174Y-78197142D01*
X46798000Y-78173250D01*
X46798000Y-77685750D01*
X46799174Y-77661858D01*
X46802684Y-77638197D01*
X46808496Y-77614993D01*
X46816554Y-77592471D01*
X46826782Y-77570847D01*
X46839079Y-77550330D01*
X46853329Y-77531117D01*
X46869393Y-77513393D01*
X46887117Y-77497329D01*
X46906330Y-77483079D01*
X46926847Y-77470782D01*
X46948471Y-77460554D01*
X46970993Y-77452496D01*
X46994197Y-77446684D01*
X47017858Y-77443174D01*
X47041750Y-77442000D01*
X47954250Y-77442000D01*
X47978142Y-77443174D01*
G37*
G36*
X47978142Y-79318174D02*
G01*
X48001803Y-79321684D01*
X48025007Y-79327496D01*
X48047529Y-79335554D01*
X48069153Y-79345782D01*
X48089670Y-79358079D01*
X48108883Y-79372329D01*
X48126607Y-79388393D01*
X48142671Y-79406117D01*
X48156921Y-79425330D01*
X48169218Y-79445847D01*
X48179446Y-79467471D01*
X48187504Y-79489993D01*
X48193316Y-79513197D01*
X48196826Y-79536858D01*
X48198000Y-79560750D01*
X48198000Y-80048250D01*
X48196826Y-80072142D01*
X48193316Y-80095803D01*
X48187504Y-80119007D01*
X48179446Y-80141529D01*
X48169218Y-80163153D01*
X48156921Y-80183670D01*
X48142671Y-80202883D01*
X48126607Y-80220607D01*
X48108883Y-80236671D01*
X48089670Y-80250921D01*
X48069153Y-80263218D01*
X48047529Y-80273446D01*
X48025007Y-80281504D01*
X48001803Y-80287316D01*
X47978142Y-80290826D01*
X47954250Y-80292000D01*
X47041750Y-80292000D01*
X47017858Y-80290826D01*
X46994197Y-80287316D01*
X46970993Y-80281504D01*
X46948471Y-80273446D01*
X46926847Y-80263218D01*
X46906330Y-80250921D01*
X46887117Y-80236671D01*
X46869393Y-80220607D01*
X46853329Y-80202883D01*
X46839079Y-80183670D01*
X46826782Y-80163153D01*
X46816554Y-80141529D01*
X46808496Y-80119007D01*
X46802684Y-80095803D01*
X46799174Y-80072142D01*
X46798000Y-80048250D01*
X46798000Y-79560750D01*
X46799174Y-79536858D01*
X46802684Y-79513197D01*
X46808496Y-79489993D01*
X46816554Y-79467471D01*
X46826782Y-79445847D01*
X46839079Y-79425330D01*
X46853329Y-79406117D01*
X46869393Y-79388393D01*
X46887117Y-79372329D01*
X46906330Y-79358079D01*
X46926847Y-79345782D01*
X46948471Y-79335554D01*
X46970993Y-79327496D01*
X46994197Y-79321684D01*
X47017858Y-79318174D01*
X47041750Y-79317000D01*
X47954250Y-79317000D01*
X47978142Y-79318174D01*
G37*
G36*
X49655642Y-73786674D02*
G01*
X49679303Y-73790184D01*
X49702507Y-73795996D01*
X49725029Y-73804054D01*
X49746653Y-73814282D01*
X49767170Y-73826579D01*
X49786383Y-73840829D01*
X49804107Y-73856893D01*
X49820171Y-73874617D01*
X49834421Y-73893830D01*
X49846718Y-73914347D01*
X49856946Y-73935971D01*
X49865004Y-73958493D01*
X49870816Y-73981697D01*
X49874326Y-74005358D01*
X49875500Y-74029250D01*
X49875500Y-74941750D01*
X49874326Y-74965642D01*
X49870816Y-74989303D01*
X49865004Y-75012507D01*
X49856946Y-75035029D01*
X49846718Y-75056653D01*
X49834421Y-75077170D01*
X49820171Y-75096383D01*
X49804107Y-75114107D01*
X49786383Y-75130171D01*
X49767170Y-75144421D01*
X49746653Y-75156718D01*
X49725029Y-75166946D01*
X49702507Y-75175004D01*
X49679303Y-75180816D01*
X49655642Y-75184326D01*
X49631750Y-75185500D01*
X49144250Y-75185500D01*
X49120358Y-75184326D01*
X49096697Y-75180816D01*
X49073493Y-75175004D01*
X49050971Y-75166946D01*
X49029347Y-75156718D01*
X49008830Y-75144421D01*
X48989617Y-75130171D01*
X48971893Y-75114107D01*
X48955829Y-75096383D01*
X48941579Y-75077170D01*
X48929282Y-75056653D01*
X48919054Y-75035029D01*
X48910996Y-75012507D01*
X48905184Y-74989303D01*
X48901674Y-74965642D01*
X48900500Y-74941750D01*
X48900500Y-74029250D01*
X48901674Y-74005358D01*
X48905184Y-73981697D01*
X48910996Y-73958493D01*
X48919054Y-73935971D01*
X48929282Y-73914347D01*
X48941579Y-73893830D01*
X48955829Y-73874617D01*
X48971893Y-73856893D01*
X48989617Y-73840829D01*
X49008830Y-73826579D01*
X49029347Y-73814282D01*
X49050971Y-73804054D01*
X49073493Y-73795996D01*
X49096697Y-73790184D01*
X49120358Y-73786674D01*
X49144250Y-73785500D01*
X49631750Y-73785500D01*
X49655642Y-73786674D01*
G37*
G36*
X47780642Y-73786674D02*
G01*
X47804303Y-73790184D01*
X47827507Y-73795996D01*
X47850029Y-73804054D01*
X47871653Y-73814282D01*
X47892170Y-73826579D01*
X47911383Y-73840829D01*
X47929107Y-73856893D01*
X47945171Y-73874617D01*
X47959421Y-73893830D01*
X47971718Y-73914347D01*
X47981946Y-73935971D01*
X47990004Y-73958493D01*
X47995816Y-73981697D01*
X47999326Y-74005358D01*
X48000500Y-74029250D01*
X48000500Y-74941750D01*
X47999326Y-74965642D01*
X47995816Y-74989303D01*
X47990004Y-75012507D01*
X47981946Y-75035029D01*
X47971718Y-75056653D01*
X47959421Y-75077170D01*
X47945171Y-75096383D01*
X47929107Y-75114107D01*
X47911383Y-75130171D01*
X47892170Y-75144421D01*
X47871653Y-75156718D01*
X47850029Y-75166946D01*
X47827507Y-75175004D01*
X47804303Y-75180816D01*
X47780642Y-75184326D01*
X47756750Y-75185500D01*
X47269250Y-75185500D01*
X47245358Y-75184326D01*
X47221697Y-75180816D01*
X47198493Y-75175004D01*
X47175971Y-75166946D01*
X47154347Y-75156718D01*
X47133830Y-75144421D01*
X47114617Y-75130171D01*
X47096893Y-75114107D01*
X47080829Y-75096383D01*
X47066579Y-75077170D01*
X47054282Y-75056653D01*
X47044054Y-75035029D01*
X47035996Y-75012507D01*
X47030184Y-74989303D01*
X47026674Y-74965642D01*
X47025500Y-74941750D01*
X47025500Y-74029250D01*
X47026674Y-74005358D01*
X47030184Y-73981697D01*
X47035996Y-73958493D01*
X47044054Y-73935971D01*
X47054282Y-73914347D01*
X47066579Y-73893830D01*
X47080829Y-73874617D01*
X47096893Y-73856893D01*
X47114617Y-73840829D01*
X47133830Y-73826579D01*
X47154347Y-73814282D01*
X47175971Y-73804054D01*
X47198493Y-73795996D01*
X47221697Y-73790184D01*
X47245358Y-73786674D01*
X47269250Y-73785500D01*
X47756750Y-73785500D01*
X47780642Y-73786674D01*
G37*
G36*
X38382642Y-72834174D02*
G01*
X38406303Y-72837684D01*
X38429507Y-72843496D01*
X38452029Y-72851554D01*
X38473653Y-72861782D01*
X38494170Y-72874079D01*
X38513383Y-72888329D01*
X38531107Y-72904393D01*
X38547171Y-72922117D01*
X38561421Y-72941330D01*
X38573718Y-72961847D01*
X38583946Y-72983471D01*
X38592004Y-73005993D01*
X38597816Y-73029197D01*
X38601326Y-73052858D01*
X38602500Y-73076750D01*
X38602500Y-73989250D01*
X38601326Y-74013142D01*
X38597816Y-74036803D01*
X38592004Y-74060007D01*
X38583946Y-74082529D01*
X38573718Y-74104153D01*
X38561421Y-74124670D01*
X38547171Y-74143883D01*
X38531107Y-74161607D01*
X38513383Y-74177671D01*
X38494170Y-74191921D01*
X38473653Y-74204218D01*
X38452029Y-74214446D01*
X38429507Y-74222504D01*
X38406303Y-74228316D01*
X38382642Y-74231826D01*
X38358750Y-74233000D01*
X37871250Y-74233000D01*
X37847358Y-74231826D01*
X37823697Y-74228316D01*
X37800493Y-74222504D01*
X37777971Y-74214446D01*
X37756347Y-74204218D01*
X37735830Y-74191921D01*
X37716617Y-74177671D01*
X37698893Y-74161607D01*
X37682829Y-74143883D01*
X37668579Y-74124670D01*
X37656282Y-74104153D01*
X37646054Y-74082529D01*
X37637996Y-74060007D01*
X37632184Y-74036803D01*
X37628674Y-74013142D01*
X37627500Y-73989250D01*
X37627500Y-73076750D01*
X37628674Y-73052858D01*
X37632184Y-73029197D01*
X37637996Y-73005993D01*
X37646054Y-72983471D01*
X37656282Y-72961847D01*
X37668579Y-72941330D01*
X37682829Y-72922117D01*
X37698893Y-72904393D01*
X37716617Y-72888329D01*
X37735830Y-72874079D01*
X37756347Y-72861782D01*
X37777971Y-72851554D01*
X37800493Y-72843496D01*
X37823697Y-72837684D01*
X37847358Y-72834174D01*
X37871250Y-72833000D01*
X38358750Y-72833000D01*
X38382642Y-72834174D01*
G37*
G36*
X40257642Y-72834174D02*
G01*
X40281303Y-72837684D01*
X40304507Y-72843496D01*
X40327029Y-72851554D01*
X40348653Y-72861782D01*
X40369170Y-72874079D01*
X40388383Y-72888329D01*
X40406107Y-72904393D01*
X40422171Y-72922117D01*
X40436421Y-72941330D01*
X40448718Y-72961847D01*
X40458946Y-72983471D01*
X40467004Y-73005993D01*
X40472816Y-73029197D01*
X40476326Y-73052858D01*
X40477500Y-73076750D01*
X40477500Y-73989250D01*
X40476326Y-74013142D01*
X40472816Y-74036803D01*
X40467004Y-74060007D01*
X40458946Y-74082529D01*
X40448718Y-74104153D01*
X40436421Y-74124670D01*
X40422171Y-74143883D01*
X40406107Y-74161607D01*
X40388383Y-74177671D01*
X40369170Y-74191921D01*
X40348653Y-74204218D01*
X40327029Y-74214446D01*
X40304507Y-74222504D01*
X40281303Y-74228316D01*
X40257642Y-74231826D01*
X40233750Y-74233000D01*
X39746250Y-74233000D01*
X39722358Y-74231826D01*
X39698697Y-74228316D01*
X39675493Y-74222504D01*
X39652971Y-74214446D01*
X39631347Y-74204218D01*
X39610830Y-74191921D01*
X39591617Y-74177671D01*
X39573893Y-74161607D01*
X39557829Y-74143883D01*
X39543579Y-74124670D01*
X39531282Y-74104153D01*
X39521054Y-74082529D01*
X39512996Y-74060007D01*
X39507184Y-74036803D01*
X39503674Y-74013142D01*
X39502500Y-73989250D01*
X39502500Y-73076750D01*
X39503674Y-73052858D01*
X39507184Y-73029197D01*
X39512996Y-73005993D01*
X39521054Y-72983471D01*
X39531282Y-72961847D01*
X39543579Y-72941330D01*
X39557829Y-72922117D01*
X39573893Y-72904393D01*
X39591617Y-72888329D01*
X39610830Y-72874079D01*
X39631347Y-72861782D01*
X39652971Y-72851554D01*
X39675493Y-72843496D01*
X39698697Y-72837684D01*
X39722358Y-72834174D01*
X39746250Y-72833000D01*
X40233750Y-72833000D01*
X40257642Y-72834174D01*
G37*
G36*
X60170142Y-54172174D02*
G01*
X60193803Y-54175684D01*
X60217007Y-54181496D01*
X60239529Y-54189554D01*
X60261153Y-54199782D01*
X60281670Y-54212079D01*
X60300883Y-54226329D01*
X60318607Y-54242393D01*
X60334671Y-54260117D01*
X60348921Y-54279330D01*
X60361218Y-54299847D01*
X60371446Y-54321471D01*
X60379504Y-54343993D01*
X60385316Y-54367197D01*
X60388826Y-54390858D01*
X60390000Y-54414750D01*
X60390000Y-54902250D01*
X60388826Y-54926142D01*
X60385316Y-54949803D01*
X60379504Y-54973007D01*
X60371446Y-54995529D01*
X60361218Y-55017153D01*
X60348921Y-55037670D01*
X60334671Y-55056883D01*
X60318607Y-55074607D01*
X60300883Y-55090671D01*
X60281670Y-55104921D01*
X60261153Y-55117218D01*
X60239529Y-55127446D01*
X60217007Y-55135504D01*
X60193803Y-55141316D01*
X60170142Y-55144826D01*
X60146250Y-55146000D01*
X59233750Y-55146000D01*
X59209858Y-55144826D01*
X59186197Y-55141316D01*
X59162993Y-55135504D01*
X59140471Y-55127446D01*
X59118847Y-55117218D01*
X59098330Y-55104921D01*
X59079117Y-55090671D01*
X59061393Y-55074607D01*
X59045329Y-55056883D01*
X59031079Y-55037670D01*
X59018782Y-55017153D01*
X59008554Y-54995529D01*
X59000496Y-54973007D01*
X58994684Y-54949803D01*
X58991174Y-54926142D01*
X58990000Y-54902250D01*
X58990000Y-54414750D01*
X58991174Y-54390858D01*
X58994684Y-54367197D01*
X59000496Y-54343993D01*
X59008554Y-54321471D01*
X59018782Y-54299847D01*
X59031079Y-54279330D01*
X59045329Y-54260117D01*
X59061393Y-54242393D01*
X59079117Y-54226329D01*
X59098330Y-54212079D01*
X59118847Y-54199782D01*
X59140471Y-54189554D01*
X59162993Y-54181496D01*
X59186197Y-54175684D01*
X59209858Y-54172174D01*
X59233750Y-54171000D01*
X60146250Y-54171000D01*
X60170142Y-54172174D01*
G37*
G36*
X60170142Y-52297174D02*
G01*
X60193803Y-52300684D01*
X60217007Y-52306496D01*
X60239529Y-52314554D01*
X60261153Y-52324782D01*
X60281670Y-52337079D01*
X60300883Y-52351329D01*
X60318607Y-52367393D01*
X60334671Y-52385117D01*
X60348921Y-52404330D01*
X60361218Y-52424847D01*
X60371446Y-52446471D01*
X60379504Y-52468993D01*
X60385316Y-52492197D01*
X60388826Y-52515858D01*
X60390000Y-52539750D01*
X60390000Y-53027250D01*
X60388826Y-53051142D01*
X60385316Y-53074803D01*
X60379504Y-53098007D01*
X60371446Y-53120529D01*
X60361218Y-53142153D01*
X60348921Y-53162670D01*
X60334671Y-53181883D01*
X60318607Y-53199607D01*
X60300883Y-53215671D01*
X60281670Y-53229921D01*
X60261153Y-53242218D01*
X60239529Y-53252446D01*
X60217007Y-53260504D01*
X60193803Y-53266316D01*
X60170142Y-53269826D01*
X60146250Y-53271000D01*
X59233750Y-53271000D01*
X59209858Y-53269826D01*
X59186197Y-53266316D01*
X59162993Y-53260504D01*
X59140471Y-53252446D01*
X59118847Y-53242218D01*
X59098330Y-53229921D01*
X59079117Y-53215671D01*
X59061393Y-53199607D01*
X59045329Y-53181883D01*
X59031079Y-53162670D01*
X59018782Y-53142153D01*
X59008554Y-53120529D01*
X59000496Y-53098007D01*
X58994684Y-53074803D01*
X58991174Y-53051142D01*
X58990000Y-53027250D01*
X58990000Y-52539750D01*
X58991174Y-52515858D01*
X58994684Y-52492197D01*
X59000496Y-52468993D01*
X59008554Y-52446471D01*
X59018782Y-52424847D01*
X59031079Y-52404330D01*
X59045329Y-52385117D01*
X59061393Y-52367393D01*
X59079117Y-52351329D01*
X59098330Y-52337079D01*
X59118847Y-52324782D01*
X59140471Y-52314554D01*
X59162993Y-52306496D01*
X59186197Y-52300684D01*
X59209858Y-52297174D01*
X59233750Y-52296000D01*
X60146250Y-52296000D01*
X60170142Y-52297174D01*
G37*
G36*
X30960142Y-59028174D02*
G01*
X30983803Y-59031684D01*
X31007007Y-59037496D01*
X31029529Y-59045554D01*
X31051153Y-59055782D01*
X31071670Y-59068079D01*
X31090883Y-59082329D01*
X31108607Y-59098393D01*
X31124671Y-59116117D01*
X31138921Y-59135330D01*
X31151218Y-59155847D01*
X31161446Y-59177471D01*
X31169504Y-59199993D01*
X31175316Y-59223197D01*
X31178826Y-59246858D01*
X31180000Y-59270750D01*
X31180000Y-59758250D01*
X31178826Y-59782142D01*
X31175316Y-59805803D01*
X31169504Y-59829007D01*
X31161446Y-59851529D01*
X31151218Y-59873153D01*
X31138921Y-59893670D01*
X31124671Y-59912883D01*
X31108607Y-59930607D01*
X31090883Y-59946671D01*
X31071670Y-59960921D01*
X31051153Y-59973218D01*
X31029529Y-59983446D01*
X31007007Y-59991504D01*
X30983803Y-59997316D01*
X30960142Y-60000826D01*
X30936250Y-60002000D01*
X30023750Y-60002000D01*
X29999858Y-60000826D01*
X29976197Y-59997316D01*
X29952993Y-59991504D01*
X29930471Y-59983446D01*
X29908847Y-59973218D01*
X29888330Y-59960921D01*
X29869117Y-59946671D01*
X29851393Y-59930607D01*
X29835329Y-59912883D01*
X29821079Y-59893670D01*
X29808782Y-59873153D01*
X29798554Y-59851529D01*
X29790496Y-59829007D01*
X29784684Y-59805803D01*
X29781174Y-59782142D01*
X29780000Y-59758250D01*
X29780000Y-59270750D01*
X29781174Y-59246858D01*
X29784684Y-59223197D01*
X29790496Y-59199993D01*
X29798554Y-59177471D01*
X29808782Y-59155847D01*
X29821079Y-59135330D01*
X29835329Y-59116117D01*
X29851393Y-59098393D01*
X29869117Y-59082329D01*
X29888330Y-59068079D01*
X29908847Y-59055782D01*
X29930471Y-59045554D01*
X29952993Y-59037496D01*
X29976197Y-59031684D01*
X29999858Y-59028174D01*
X30023750Y-59027000D01*
X30936250Y-59027000D01*
X30960142Y-59028174D01*
G37*
G36*
X30960142Y-60903174D02*
G01*
X30983803Y-60906684D01*
X31007007Y-60912496D01*
X31029529Y-60920554D01*
X31051153Y-60930782D01*
X31071670Y-60943079D01*
X31090883Y-60957329D01*
X31108607Y-60973393D01*
X31124671Y-60991117D01*
X31138921Y-61010330D01*
X31151218Y-61030847D01*
X31161446Y-61052471D01*
X31169504Y-61074993D01*
X31175316Y-61098197D01*
X31178826Y-61121858D01*
X31180000Y-61145750D01*
X31180000Y-61633250D01*
X31178826Y-61657142D01*
X31175316Y-61680803D01*
X31169504Y-61704007D01*
X31161446Y-61726529D01*
X31151218Y-61748153D01*
X31138921Y-61768670D01*
X31124671Y-61787883D01*
X31108607Y-61805607D01*
X31090883Y-61821671D01*
X31071670Y-61835921D01*
X31051153Y-61848218D01*
X31029529Y-61858446D01*
X31007007Y-61866504D01*
X30983803Y-61872316D01*
X30960142Y-61875826D01*
X30936250Y-61877000D01*
X30023750Y-61877000D01*
X29999858Y-61875826D01*
X29976197Y-61872316D01*
X29952993Y-61866504D01*
X29930471Y-61858446D01*
X29908847Y-61848218D01*
X29888330Y-61835921D01*
X29869117Y-61821671D01*
X29851393Y-61805607D01*
X29835329Y-61787883D01*
X29821079Y-61768670D01*
X29808782Y-61748153D01*
X29798554Y-61726529D01*
X29790496Y-61704007D01*
X29784684Y-61680803D01*
X29781174Y-61657142D01*
X29780000Y-61633250D01*
X29780000Y-61145750D01*
X29781174Y-61121858D01*
X29784684Y-61098197D01*
X29790496Y-61074993D01*
X29798554Y-61052471D01*
X29808782Y-61030847D01*
X29821079Y-61010330D01*
X29835329Y-60991117D01*
X29851393Y-60973393D01*
X29869117Y-60957329D01*
X29888330Y-60943079D01*
X29908847Y-60930782D01*
X29930471Y-60920554D01*
X29952993Y-60912496D01*
X29976197Y-60906684D01*
X29999858Y-60903174D01*
X30023750Y-60902000D01*
X30936250Y-60902000D01*
X30960142Y-60903174D01*
G37*
G36*
X32484142Y-49297674D02*
G01*
X32507803Y-49301184D01*
X32531007Y-49306996D01*
X32553529Y-49315054D01*
X32575153Y-49325282D01*
X32595670Y-49337579D01*
X32614883Y-49351829D01*
X32632607Y-49367893D01*
X32648671Y-49385617D01*
X32662921Y-49404830D01*
X32675218Y-49425347D01*
X32685446Y-49446971D01*
X32693504Y-49469493D01*
X32699316Y-49492697D01*
X32702826Y-49516358D01*
X32704000Y-49540250D01*
X32704000Y-50027750D01*
X32702826Y-50051642D01*
X32699316Y-50075303D01*
X32693504Y-50098507D01*
X32685446Y-50121029D01*
X32675218Y-50142653D01*
X32662921Y-50163170D01*
X32648671Y-50182383D01*
X32632607Y-50200107D01*
X32614883Y-50216171D01*
X32595670Y-50230421D01*
X32575153Y-50242718D01*
X32553529Y-50252946D01*
X32531007Y-50261004D01*
X32507803Y-50266816D01*
X32484142Y-50270326D01*
X32460250Y-50271500D01*
X31547750Y-50271500D01*
X31523858Y-50270326D01*
X31500197Y-50266816D01*
X31476993Y-50261004D01*
X31454471Y-50252946D01*
X31432847Y-50242718D01*
X31412330Y-50230421D01*
X31393117Y-50216171D01*
X31375393Y-50200107D01*
X31359329Y-50182383D01*
X31345079Y-50163170D01*
X31332782Y-50142653D01*
X31322554Y-50121029D01*
X31314496Y-50098507D01*
X31308684Y-50075303D01*
X31305174Y-50051642D01*
X31304000Y-50027750D01*
X31304000Y-49540250D01*
X31305174Y-49516358D01*
X31308684Y-49492697D01*
X31314496Y-49469493D01*
X31322554Y-49446971D01*
X31332782Y-49425347D01*
X31345079Y-49404830D01*
X31359329Y-49385617D01*
X31375393Y-49367893D01*
X31393117Y-49351829D01*
X31412330Y-49337579D01*
X31432847Y-49325282D01*
X31454471Y-49315054D01*
X31476993Y-49306996D01*
X31500197Y-49301184D01*
X31523858Y-49297674D01*
X31547750Y-49296500D01*
X32460250Y-49296500D01*
X32484142Y-49297674D01*
G37*
G36*
X32484142Y-51172674D02*
G01*
X32507803Y-51176184D01*
X32531007Y-51181996D01*
X32553529Y-51190054D01*
X32575153Y-51200282D01*
X32595670Y-51212579D01*
X32614883Y-51226829D01*
X32632607Y-51242893D01*
X32648671Y-51260617D01*
X32662921Y-51279830D01*
X32675218Y-51300347D01*
X32685446Y-51321971D01*
X32693504Y-51344493D01*
X32699316Y-51367697D01*
X32702826Y-51391358D01*
X32704000Y-51415250D01*
X32704000Y-51902750D01*
X32702826Y-51926642D01*
X32699316Y-51950303D01*
X32693504Y-51973507D01*
X32685446Y-51996029D01*
X32675218Y-52017653D01*
X32662921Y-52038170D01*
X32648671Y-52057383D01*
X32632607Y-52075107D01*
X32614883Y-52091171D01*
X32595670Y-52105421D01*
X32575153Y-52117718D01*
X32553529Y-52127946D01*
X32531007Y-52136004D01*
X32507803Y-52141816D01*
X32484142Y-52145326D01*
X32460250Y-52146500D01*
X31547750Y-52146500D01*
X31523858Y-52145326D01*
X31500197Y-52141816D01*
X31476993Y-52136004D01*
X31454471Y-52127946D01*
X31432847Y-52117718D01*
X31412330Y-52105421D01*
X31393117Y-52091171D01*
X31375393Y-52075107D01*
X31359329Y-52057383D01*
X31345079Y-52038170D01*
X31332782Y-52017653D01*
X31322554Y-51996029D01*
X31314496Y-51973507D01*
X31308684Y-51950303D01*
X31305174Y-51926642D01*
X31304000Y-51902750D01*
X31304000Y-51415250D01*
X31305174Y-51391358D01*
X31308684Y-51367697D01*
X31314496Y-51344493D01*
X31322554Y-51321971D01*
X31332782Y-51300347D01*
X31345079Y-51279830D01*
X31359329Y-51260617D01*
X31375393Y-51242893D01*
X31393117Y-51226829D01*
X31412330Y-51212579D01*
X31432847Y-51200282D01*
X31454471Y-51190054D01*
X31476993Y-51181996D01*
X31500197Y-51176184D01*
X31523858Y-51172674D01*
X31547750Y-51171500D01*
X32460250Y-51171500D01*
X32484142Y-51172674D01*
G37*
G36*
X56106142Y-42645174D02*
G01*
X56129803Y-42648684D01*
X56153007Y-42654496D01*
X56175529Y-42662554D01*
X56197153Y-42672782D01*
X56217670Y-42685079D01*
X56236883Y-42699329D01*
X56254607Y-42715393D01*
X56270671Y-42733117D01*
X56284921Y-42752330D01*
X56297218Y-42772847D01*
X56307446Y-42794471D01*
X56315504Y-42816993D01*
X56321316Y-42840197D01*
X56324826Y-42863858D01*
X56326000Y-42887750D01*
X56326000Y-43375250D01*
X56324826Y-43399142D01*
X56321316Y-43422803D01*
X56315504Y-43446007D01*
X56307446Y-43468529D01*
X56297218Y-43490153D01*
X56284921Y-43510670D01*
X56270671Y-43529883D01*
X56254607Y-43547607D01*
X56236883Y-43563671D01*
X56217670Y-43577921D01*
X56197153Y-43590218D01*
X56175529Y-43600446D01*
X56153007Y-43608504D01*
X56129803Y-43614316D01*
X56106142Y-43617826D01*
X56082250Y-43619000D01*
X55169750Y-43619000D01*
X55145858Y-43617826D01*
X55122197Y-43614316D01*
X55098993Y-43608504D01*
X55076471Y-43600446D01*
X55054847Y-43590218D01*
X55034330Y-43577921D01*
X55015117Y-43563671D01*
X54997393Y-43547607D01*
X54981329Y-43529883D01*
X54967079Y-43510670D01*
X54954782Y-43490153D01*
X54944554Y-43468529D01*
X54936496Y-43446007D01*
X54930684Y-43422803D01*
X54927174Y-43399142D01*
X54926000Y-43375250D01*
X54926000Y-42887750D01*
X54927174Y-42863858D01*
X54930684Y-42840197D01*
X54936496Y-42816993D01*
X54944554Y-42794471D01*
X54954782Y-42772847D01*
X54967079Y-42752330D01*
X54981329Y-42733117D01*
X54997393Y-42715393D01*
X55015117Y-42699329D01*
X55034330Y-42685079D01*
X55054847Y-42672782D01*
X55076471Y-42662554D01*
X55098993Y-42654496D01*
X55122197Y-42648684D01*
X55145858Y-42645174D01*
X55169750Y-42644000D01*
X56082250Y-42644000D01*
X56106142Y-42645174D01*
G37*
G36*
X56106142Y-44520174D02*
G01*
X56129803Y-44523684D01*
X56153007Y-44529496D01*
X56175529Y-44537554D01*
X56197153Y-44547782D01*
X56217670Y-44560079D01*
X56236883Y-44574329D01*
X56254607Y-44590393D01*
X56270671Y-44608117D01*
X56284921Y-44627330D01*
X56297218Y-44647847D01*
X56307446Y-44669471D01*
X56315504Y-44691993D01*
X56321316Y-44715197D01*
X56324826Y-44738858D01*
X56326000Y-44762750D01*
X56326000Y-45250250D01*
X56324826Y-45274142D01*
X56321316Y-45297803D01*
X56315504Y-45321007D01*
X56307446Y-45343529D01*
X56297218Y-45365153D01*
X56284921Y-45385670D01*
X56270671Y-45404883D01*
X56254607Y-45422607D01*
X56236883Y-45438671D01*
X56217670Y-45452921D01*
X56197153Y-45465218D01*
X56175529Y-45475446D01*
X56153007Y-45483504D01*
X56129803Y-45489316D01*
X56106142Y-45492826D01*
X56082250Y-45494000D01*
X55169750Y-45494000D01*
X55145858Y-45492826D01*
X55122197Y-45489316D01*
X55098993Y-45483504D01*
X55076471Y-45475446D01*
X55054847Y-45465218D01*
X55034330Y-45452921D01*
X55015117Y-45438671D01*
X54997393Y-45422607D01*
X54981329Y-45404883D01*
X54967079Y-45385670D01*
X54954782Y-45365153D01*
X54944554Y-45343529D01*
X54936496Y-45321007D01*
X54930684Y-45297803D01*
X54927174Y-45274142D01*
X54926000Y-45250250D01*
X54926000Y-44762750D01*
X54927174Y-44738858D01*
X54930684Y-44715197D01*
X54936496Y-44691993D01*
X54944554Y-44669471D01*
X54954782Y-44647847D01*
X54967079Y-44627330D01*
X54981329Y-44608117D01*
X54997393Y-44590393D01*
X55015117Y-44574329D01*
X55034330Y-44560079D01*
X55054847Y-44547782D01*
X55076471Y-44537554D01*
X55098993Y-44529496D01*
X55122197Y-44523684D01*
X55145858Y-44520174D01*
X55169750Y-44519000D01*
X56082250Y-44519000D01*
X56106142Y-44520174D01*
G37*
G36*
X53058142Y-44520174D02*
G01*
X53081803Y-44523684D01*
X53105007Y-44529496D01*
X53127529Y-44537554D01*
X53149153Y-44547782D01*
X53169670Y-44560079D01*
X53188883Y-44574329D01*
X53206607Y-44590393D01*
X53222671Y-44608117D01*
X53236921Y-44627330D01*
X53249218Y-44647847D01*
X53259446Y-44669471D01*
X53267504Y-44691993D01*
X53273316Y-44715197D01*
X53276826Y-44738858D01*
X53278000Y-44762750D01*
X53278000Y-45250250D01*
X53276826Y-45274142D01*
X53273316Y-45297803D01*
X53267504Y-45321007D01*
X53259446Y-45343529D01*
X53249218Y-45365153D01*
X53236921Y-45385670D01*
X53222671Y-45404883D01*
X53206607Y-45422607D01*
X53188883Y-45438671D01*
X53169670Y-45452921D01*
X53149153Y-45465218D01*
X53127529Y-45475446D01*
X53105007Y-45483504D01*
X53081803Y-45489316D01*
X53058142Y-45492826D01*
X53034250Y-45494000D01*
X52121750Y-45494000D01*
X52097858Y-45492826D01*
X52074197Y-45489316D01*
X52050993Y-45483504D01*
X52028471Y-45475446D01*
X52006847Y-45465218D01*
X51986330Y-45452921D01*
X51967117Y-45438671D01*
X51949393Y-45422607D01*
X51933329Y-45404883D01*
X51919079Y-45385670D01*
X51906782Y-45365153D01*
X51896554Y-45343529D01*
X51888496Y-45321007D01*
X51882684Y-45297803D01*
X51879174Y-45274142D01*
X51878000Y-45250250D01*
X51878000Y-44762750D01*
X51879174Y-44738858D01*
X51882684Y-44715197D01*
X51888496Y-44691993D01*
X51896554Y-44669471D01*
X51906782Y-44647847D01*
X51919079Y-44627330D01*
X51933329Y-44608117D01*
X51949393Y-44590393D01*
X51967117Y-44574329D01*
X51986330Y-44560079D01*
X52006847Y-44547782D01*
X52028471Y-44537554D01*
X52050993Y-44529496D01*
X52074197Y-44523684D01*
X52097858Y-44520174D01*
X52121750Y-44519000D01*
X53034250Y-44519000D01*
X53058142Y-44520174D01*
G37*
G36*
X53058142Y-42645174D02*
G01*
X53081803Y-42648684D01*
X53105007Y-42654496D01*
X53127529Y-42662554D01*
X53149153Y-42672782D01*
X53169670Y-42685079D01*
X53188883Y-42699329D01*
X53206607Y-42715393D01*
X53222671Y-42733117D01*
X53236921Y-42752330D01*
X53249218Y-42772847D01*
X53259446Y-42794471D01*
X53267504Y-42816993D01*
X53273316Y-42840197D01*
X53276826Y-42863858D01*
X53278000Y-42887750D01*
X53278000Y-43375250D01*
X53276826Y-43399142D01*
X53273316Y-43422803D01*
X53267504Y-43446007D01*
X53259446Y-43468529D01*
X53249218Y-43490153D01*
X53236921Y-43510670D01*
X53222671Y-43529883D01*
X53206607Y-43547607D01*
X53188883Y-43563671D01*
X53169670Y-43577921D01*
X53149153Y-43590218D01*
X53127529Y-43600446D01*
X53105007Y-43608504D01*
X53081803Y-43614316D01*
X53058142Y-43617826D01*
X53034250Y-43619000D01*
X52121750Y-43619000D01*
X52097858Y-43617826D01*
X52074197Y-43614316D01*
X52050993Y-43608504D01*
X52028471Y-43600446D01*
X52006847Y-43590218D01*
X51986330Y-43577921D01*
X51967117Y-43563671D01*
X51949393Y-43547607D01*
X51933329Y-43529883D01*
X51919079Y-43510670D01*
X51906782Y-43490153D01*
X51896554Y-43468529D01*
X51888496Y-43446007D01*
X51882684Y-43422803D01*
X51879174Y-43399142D01*
X51878000Y-43375250D01*
X51878000Y-42887750D01*
X51879174Y-42863858D01*
X51882684Y-42840197D01*
X51888496Y-42816993D01*
X51896554Y-42794471D01*
X51906782Y-42772847D01*
X51919079Y-42752330D01*
X51933329Y-42733117D01*
X51949393Y-42715393D01*
X51967117Y-42699329D01*
X51986330Y-42685079D01*
X52006847Y-42672782D01*
X52028471Y-42662554D01*
X52050993Y-42654496D01*
X52074197Y-42648684D01*
X52097858Y-42645174D01*
X52121750Y-42644000D01*
X53034250Y-42644000D01*
X53058142Y-42645174D01*
G37*
G36*
X50010142Y-42645174D02*
G01*
X50033803Y-42648684D01*
X50057007Y-42654496D01*
X50079529Y-42662554D01*
X50101153Y-42672782D01*
X50121670Y-42685079D01*
X50140883Y-42699329D01*
X50158607Y-42715393D01*
X50174671Y-42733117D01*
X50188921Y-42752330D01*
X50201218Y-42772847D01*
X50211446Y-42794471D01*
X50219504Y-42816993D01*
X50225316Y-42840197D01*
X50228826Y-42863858D01*
X50230000Y-42887750D01*
X50230000Y-43375250D01*
X50228826Y-43399142D01*
X50225316Y-43422803D01*
X50219504Y-43446007D01*
X50211446Y-43468529D01*
X50201218Y-43490153D01*
X50188921Y-43510670D01*
X50174671Y-43529883D01*
X50158607Y-43547607D01*
X50140883Y-43563671D01*
X50121670Y-43577921D01*
X50101153Y-43590218D01*
X50079529Y-43600446D01*
X50057007Y-43608504D01*
X50033803Y-43614316D01*
X50010142Y-43617826D01*
X49986250Y-43619000D01*
X49073750Y-43619000D01*
X49049858Y-43617826D01*
X49026197Y-43614316D01*
X49002993Y-43608504D01*
X48980471Y-43600446D01*
X48958847Y-43590218D01*
X48938330Y-43577921D01*
X48919117Y-43563671D01*
X48901393Y-43547607D01*
X48885329Y-43529883D01*
X48871079Y-43510670D01*
X48858782Y-43490153D01*
X48848554Y-43468529D01*
X48840496Y-43446007D01*
X48834684Y-43422803D01*
X48831174Y-43399142D01*
X48830000Y-43375250D01*
X48830000Y-42887750D01*
X48831174Y-42863858D01*
X48834684Y-42840197D01*
X48840496Y-42816993D01*
X48848554Y-42794471D01*
X48858782Y-42772847D01*
X48871079Y-42752330D01*
X48885329Y-42733117D01*
X48901393Y-42715393D01*
X48919117Y-42699329D01*
X48938330Y-42685079D01*
X48958847Y-42672782D01*
X48980471Y-42662554D01*
X49002993Y-42654496D01*
X49026197Y-42648684D01*
X49049858Y-42645174D01*
X49073750Y-42644000D01*
X49986250Y-42644000D01*
X50010142Y-42645174D01*
G37*
G36*
X50010142Y-44520174D02*
G01*
X50033803Y-44523684D01*
X50057007Y-44529496D01*
X50079529Y-44537554D01*
X50101153Y-44547782D01*
X50121670Y-44560079D01*
X50140883Y-44574329D01*
X50158607Y-44590393D01*
X50174671Y-44608117D01*
X50188921Y-44627330D01*
X50201218Y-44647847D01*
X50211446Y-44669471D01*
X50219504Y-44691993D01*
X50225316Y-44715197D01*
X50228826Y-44738858D01*
X50230000Y-44762750D01*
X50230000Y-45250250D01*
X50228826Y-45274142D01*
X50225316Y-45297803D01*
X50219504Y-45321007D01*
X50211446Y-45343529D01*
X50201218Y-45365153D01*
X50188921Y-45385670D01*
X50174671Y-45404883D01*
X50158607Y-45422607D01*
X50140883Y-45438671D01*
X50121670Y-45452921D01*
X50101153Y-45465218D01*
X50079529Y-45475446D01*
X50057007Y-45483504D01*
X50033803Y-45489316D01*
X50010142Y-45492826D01*
X49986250Y-45494000D01*
X49073750Y-45494000D01*
X49049858Y-45492826D01*
X49026197Y-45489316D01*
X49002993Y-45483504D01*
X48980471Y-45475446D01*
X48958847Y-45465218D01*
X48938330Y-45452921D01*
X48919117Y-45438671D01*
X48901393Y-45422607D01*
X48885329Y-45404883D01*
X48871079Y-45385670D01*
X48858782Y-45365153D01*
X48848554Y-45343529D01*
X48840496Y-45321007D01*
X48834684Y-45297803D01*
X48831174Y-45274142D01*
X48830000Y-45250250D01*
X48830000Y-44762750D01*
X48831174Y-44738858D01*
X48834684Y-44715197D01*
X48840496Y-44691993D01*
X48848554Y-44669471D01*
X48858782Y-44647847D01*
X48871079Y-44627330D01*
X48885329Y-44608117D01*
X48901393Y-44590393D01*
X48919117Y-44574329D01*
X48938330Y-44560079D01*
X48958847Y-44547782D01*
X48980471Y-44537554D01*
X49002993Y-44529496D01*
X49026197Y-44523684D01*
X49049858Y-44520174D01*
X49073750Y-44519000D01*
X49986250Y-44519000D01*
X50010142Y-44520174D01*
G37*
G36*
X46708142Y-44520174D02*
G01*
X46731803Y-44523684D01*
X46755007Y-44529496D01*
X46777529Y-44537554D01*
X46799153Y-44547782D01*
X46819670Y-44560079D01*
X46838883Y-44574329D01*
X46856607Y-44590393D01*
X46872671Y-44608117D01*
X46886921Y-44627330D01*
X46899218Y-44647847D01*
X46909446Y-44669471D01*
X46917504Y-44691993D01*
X46923316Y-44715197D01*
X46926826Y-44738858D01*
X46928000Y-44762750D01*
X46928000Y-45250250D01*
X46926826Y-45274142D01*
X46923316Y-45297803D01*
X46917504Y-45321007D01*
X46909446Y-45343529D01*
X46899218Y-45365153D01*
X46886921Y-45385670D01*
X46872671Y-45404883D01*
X46856607Y-45422607D01*
X46838883Y-45438671D01*
X46819670Y-45452921D01*
X46799153Y-45465218D01*
X46777529Y-45475446D01*
X46755007Y-45483504D01*
X46731803Y-45489316D01*
X46708142Y-45492826D01*
X46684250Y-45494000D01*
X45771750Y-45494000D01*
X45747858Y-45492826D01*
X45724197Y-45489316D01*
X45700993Y-45483504D01*
X45678471Y-45475446D01*
X45656847Y-45465218D01*
X45636330Y-45452921D01*
X45617117Y-45438671D01*
X45599393Y-45422607D01*
X45583329Y-45404883D01*
X45569079Y-45385670D01*
X45556782Y-45365153D01*
X45546554Y-45343529D01*
X45538496Y-45321007D01*
X45532684Y-45297803D01*
X45529174Y-45274142D01*
X45528000Y-45250250D01*
X45528000Y-44762750D01*
X45529174Y-44738858D01*
X45532684Y-44715197D01*
X45538496Y-44691993D01*
X45546554Y-44669471D01*
X45556782Y-44647847D01*
X45569079Y-44627330D01*
X45583329Y-44608117D01*
X45599393Y-44590393D01*
X45617117Y-44574329D01*
X45636330Y-44560079D01*
X45656847Y-44547782D01*
X45678471Y-44537554D01*
X45700993Y-44529496D01*
X45724197Y-44523684D01*
X45747858Y-44520174D01*
X45771750Y-44519000D01*
X46684250Y-44519000D01*
X46708142Y-44520174D01*
G37*
G36*
X46708142Y-42645174D02*
G01*
X46731803Y-42648684D01*
X46755007Y-42654496D01*
X46777529Y-42662554D01*
X46799153Y-42672782D01*
X46819670Y-42685079D01*
X46838883Y-42699329D01*
X46856607Y-42715393D01*
X46872671Y-42733117D01*
X46886921Y-42752330D01*
X46899218Y-42772847D01*
X46909446Y-42794471D01*
X46917504Y-42816993D01*
X46923316Y-42840197D01*
X46926826Y-42863858D01*
X46928000Y-42887750D01*
X46928000Y-43375250D01*
X46926826Y-43399142D01*
X46923316Y-43422803D01*
X46917504Y-43446007D01*
X46909446Y-43468529D01*
X46899218Y-43490153D01*
X46886921Y-43510670D01*
X46872671Y-43529883D01*
X46856607Y-43547607D01*
X46838883Y-43563671D01*
X46819670Y-43577921D01*
X46799153Y-43590218D01*
X46777529Y-43600446D01*
X46755007Y-43608504D01*
X46731803Y-43614316D01*
X46708142Y-43617826D01*
X46684250Y-43619000D01*
X45771750Y-43619000D01*
X45747858Y-43617826D01*
X45724197Y-43614316D01*
X45700993Y-43608504D01*
X45678471Y-43600446D01*
X45656847Y-43590218D01*
X45636330Y-43577921D01*
X45617117Y-43563671D01*
X45599393Y-43547607D01*
X45583329Y-43529883D01*
X45569079Y-43510670D01*
X45556782Y-43490153D01*
X45546554Y-43468529D01*
X45538496Y-43446007D01*
X45532684Y-43422803D01*
X45529174Y-43399142D01*
X45528000Y-43375250D01*
X45528000Y-42887750D01*
X45529174Y-42863858D01*
X45532684Y-42840197D01*
X45538496Y-42816993D01*
X45546554Y-42794471D01*
X45556782Y-42772847D01*
X45569079Y-42752330D01*
X45583329Y-42733117D01*
X45599393Y-42715393D01*
X45617117Y-42699329D01*
X45636330Y-42685079D01*
X45656847Y-42672782D01*
X45678471Y-42662554D01*
X45700993Y-42654496D01*
X45724197Y-42648684D01*
X45747858Y-42645174D01*
X45771750Y-42644000D01*
X46684250Y-42644000D01*
X46708142Y-42645174D01*
G37*
G36*
X43152142Y-42645174D02*
G01*
X43175803Y-42648684D01*
X43199007Y-42654496D01*
X43221529Y-42662554D01*
X43243153Y-42672782D01*
X43263670Y-42685079D01*
X43282883Y-42699329D01*
X43300607Y-42715393D01*
X43316671Y-42733117D01*
X43330921Y-42752330D01*
X43343218Y-42772847D01*
X43353446Y-42794471D01*
X43361504Y-42816993D01*
X43367316Y-42840197D01*
X43370826Y-42863858D01*
X43372000Y-42887750D01*
X43372000Y-43375250D01*
X43370826Y-43399142D01*
X43367316Y-43422803D01*
X43361504Y-43446007D01*
X43353446Y-43468529D01*
X43343218Y-43490153D01*
X43330921Y-43510670D01*
X43316671Y-43529883D01*
X43300607Y-43547607D01*
X43282883Y-43563671D01*
X43263670Y-43577921D01*
X43243153Y-43590218D01*
X43221529Y-43600446D01*
X43199007Y-43608504D01*
X43175803Y-43614316D01*
X43152142Y-43617826D01*
X43128250Y-43619000D01*
X42215750Y-43619000D01*
X42191858Y-43617826D01*
X42168197Y-43614316D01*
X42144993Y-43608504D01*
X42122471Y-43600446D01*
X42100847Y-43590218D01*
X42080330Y-43577921D01*
X42061117Y-43563671D01*
X42043393Y-43547607D01*
X42027329Y-43529883D01*
X42013079Y-43510670D01*
X42000782Y-43490153D01*
X41990554Y-43468529D01*
X41982496Y-43446007D01*
X41976684Y-43422803D01*
X41973174Y-43399142D01*
X41972000Y-43375250D01*
X41972000Y-42887750D01*
X41973174Y-42863858D01*
X41976684Y-42840197D01*
X41982496Y-42816993D01*
X41990554Y-42794471D01*
X42000782Y-42772847D01*
X42013079Y-42752330D01*
X42027329Y-42733117D01*
X42043393Y-42715393D01*
X42061117Y-42699329D01*
X42080330Y-42685079D01*
X42100847Y-42672782D01*
X42122471Y-42662554D01*
X42144993Y-42654496D01*
X42168197Y-42648684D01*
X42191858Y-42645174D01*
X42215750Y-42644000D01*
X43128250Y-42644000D01*
X43152142Y-42645174D01*
G37*
G36*
X43152142Y-44520174D02*
G01*
X43175803Y-44523684D01*
X43199007Y-44529496D01*
X43221529Y-44537554D01*
X43243153Y-44547782D01*
X43263670Y-44560079D01*
X43282883Y-44574329D01*
X43300607Y-44590393D01*
X43316671Y-44608117D01*
X43330921Y-44627330D01*
X43343218Y-44647847D01*
X43353446Y-44669471D01*
X43361504Y-44691993D01*
X43367316Y-44715197D01*
X43370826Y-44738858D01*
X43372000Y-44762750D01*
X43372000Y-45250250D01*
X43370826Y-45274142D01*
X43367316Y-45297803D01*
X43361504Y-45321007D01*
X43353446Y-45343529D01*
X43343218Y-45365153D01*
X43330921Y-45385670D01*
X43316671Y-45404883D01*
X43300607Y-45422607D01*
X43282883Y-45438671D01*
X43263670Y-45452921D01*
X43243153Y-45465218D01*
X43221529Y-45475446D01*
X43199007Y-45483504D01*
X43175803Y-45489316D01*
X43152142Y-45492826D01*
X43128250Y-45494000D01*
X42215750Y-45494000D01*
X42191858Y-45492826D01*
X42168197Y-45489316D01*
X42144993Y-45483504D01*
X42122471Y-45475446D01*
X42100847Y-45465218D01*
X42080330Y-45452921D01*
X42061117Y-45438671D01*
X42043393Y-45422607D01*
X42027329Y-45404883D01*
X42013079Y-45385670D01*
X42000782Y-45365153D01*
X41990554Y-45343529D01*
X41982496Y-45321007D01*
X41976684Y-45297803D01*
X41973174Y-45274142D01*
X41972000Y-45250250D01*
X41972000Y-44762750D01*
X41973174Y-44738858D01*
X41976684Y-44715197D01*
X41982496Y-44691993D01*
X41990554Y-44669471D01*
X42000782Y-44647847D01*
X42013079Y-44627330D01*
X42027329Y-44608117D01*
X42043393Y-44590393D01*
X42061117Y-44574329D01*
X42080330Y-44560079D01*
X42100847Y-44547782D01*
X42122471Y-44537554D01*
X42144993Y-44529496D01*
X42168197Y-44523684D01*
X42191858Y-44520174D01*
X42215750Y-44519000D01*
X43128250Y-44519000D01*
X43152142Y-44520174D01*
G37*
G36*
X39850142Y-44520174D02*
G01*
X39873803Y-44523684D01*
X39897007Y-44529496D01*
X39919529Y-44537554D01*
X39941153Y-44547782D01*
X39961670Y-44560079D01*
X39980883Y-44574329D01*
X39998607Y-44590393D01*
X40014671Y-44608117D01*
X40028921Y-44627330D01*
X40041218Y-44647847D01*
X40051446Y-44669471D01*
X40059504Y-44691993D01*
X40065316Y-44715197D01*
X40068826Y-44738858D01*
X40070000Y-44762750D01*
X40070000Y-45250250D01*
X40068826Y-45274142D01*
X40065316Y-45297803D01*
X40059504Y-45321007D01*
X40051446Y-45343529D01*
X40041218Y-45365153D01*
X40028921Y-45385670D01*
X40014671Y-45404883D01*
X39998607Y-45422607D01*
X39980883Y-45438671D01*
X39961670Y-45452921D01*
X39941153Y-45465218D01*
X39919529Y-45475446D01*
X39897007Y-45483504D01*
X39873803Y-45489316D01*
X39850142Y-45492826D01*
X39826250Y-45494000D01*
X38913750Y-45494000D01*
X38889858Y-45492826D01*
X38866197Y-45489316D01*
X38842993Y-45483504D01*
X38820471Y-45475446D01*
X38798847Y-45465218D01*
X38778330Y-45452921D01*
X38759117Y-45438671D01*
X38741393Y-45422607D01*
X38725329Y-45404883D01*
X38711079Y-45385670D01*
X38698782Y-45365153D01*
X38688554Y-45343529D01*
X38680496Y-45321007D01*
X38674684Y-45297803D01*
X38671174Y-45274142D01*
X38670000Y-45250250D01*
X38670000Y-44762750D01*
X38671174Y-44738858D01*
X38674684Y-44715197D01*
X38680496Y-44691993D01*
X38688554Y-44669471D01*
X38698782Y-44647847D01*
X38711079Y-44627330D01*
X38725329Y-44608117D01*
X38741393Y-44590393D01*
X38759117Y-44574329D01*
X38778330Y-44560079D01*
X38798847Y-44547782D01*
X38820471Y-44537554D01*
X38842993Y-44529496D01*
X38866197Y-44523684D01*
X38889858Y-44520174D01*
X38913750Y-44519000D01*
X39826250Y-44519000D01*
X39850142Y-44520174D01*
G37*
G36*
X39850142Y-42645174D02*
G01*
X39873803Y-42648684D01*
X39897007Y-42654496D01*
X39919529Y-42662554D01*
X39941153Y-42672782D01*
X39961670Y-42685079D01*
X39980883Y-42699329D01*
X39998607Y-42715393D01*
X40014671Y-42733117D01*
X40028921Y-42752330D01*
X40041218Y-42772847D01*
X40051446Y-42794471D01*
X40059504Y-42816993D01*
X40065316Y-42840197D01*
X40068826Y-42863858D01*
X40070000Y-42887750D01*
X40070000Y-43375250D01*
X40068826Y-43399142D01*
X40065316Y-43422803D01*
X40059504Y-43446007D01*
X40051446Y-43468529D01*
X40041218Y-43490153D01*
X40028921Y-43510670D01*
X40014671Y-43529883D01*
X39998607Y-43547607D01*
X39980883Y-43563671D01*
X39961670Y-43577921D01*
X39941153Y-43590218D01*
X39919529Y-43600446D01*
X39897007Y-43608504D01*
X39873803Y-43614316D01*
X39850142Y-43617826D01*
X39826250Y-43619000D01*
X38913750Y-43619000D01*
X38889858Y-43617826D01*
X38866197Y-43614316D01*
X38842993Y-43608504D01*
X38820471Y-43600446D01*
X38798847Y-43590218D01*
X38778330Y-43577921D01*
X38759117Y-43563671D01*
X38741393Y-43547607D01*
X38725329Y-43529883D01*
X38711079Y-43510670D01*
X38698782Y-43490153D01*
X38688554Y-43468529D01*
X38680496Y-43446007D01*
X38674684Y-43422803D01*
X38671174Y-43399142D01*
X38670000Y-43375250D01*
X38670000Y-42887750D01*
X38671174Y-42863858D01*
X38674684Y-42840197D01*
X38680496Y-42816993D01*
X38688554Y-42794471D01*
X38698782Y-42772847D01*
X38711079Y-42752330D01*
X38725329Y-42733117D01*
X38741393Y-42715393D01*
X38759117Y-42699329D01*
X38778330Y-42685079D01*
X38798847Y-42672782D01*
X38820471Y-42662554D01*
X38842993Y-42654496D01*
X38866197Y-42648684D01*
X38889858Y-42645174D01*
X38913750Y-42644000D01*
X39826250Y-42644000D01*
X39850142Y-42645174D01*
G37*
G36*
X35786142Y-42645174D02*
G01*
X35809803Y-42648684D01*
X35833007Y-42654496D01*
X35855529Y-42662554D01*
X35877153Y-42672782D01*
X35897670Y-42685079D01*
X35916883Y-42699329D01*
X35934607Y-42715393D01*
X35950671Y-42733117D01*
X35964921Y-42752330D01*
X35977218Y-42772847D01*
X35987446Y-42794471D01*
X35995504Y-42816993D01*
X36001316Y-42840197D01*
X36004826Y-42863858D01*
X36006000Y-42887750D01*
X36006000Y-43375250D01*
X36004826Y-43399142D01*
X36001316Y-43422803D01*
X35995504Y-43446007D01*
X35987446Y-43468529D01*
X35977218Y-43490153D01*
X35964921Y-43510670D01*
X35950671Y-43529883D01*
X35934607Y-43547607D01*
X35916883Y-43563671D01*
X35897670Y-43577921D01*
X35877153Y-43590218D01*
X35855529Y-43600446D01*
X35833007Y-43608504D01*
X35809803Y-43614316D01*
X35786142Y-43617826D01*
X35762250Y-43619000D01*
X34849750Y-43619000D01*
X34825858Y-43617826D01*
X34802197Y-43614316D01*
X34778993Y-43608504D01*
X34756471Y-43600446D01*
X34734847Y-43590218D01*
X34714330Y-43577921D01*
X34695117Y-43563671D01*
X34677393Y-43547607D01*
X34661329Y-43529883D01*
X34647079Y-43510670D01*
X34634782Y-43490153D01*
X34624554Y-43468529D01*
X34616496Y-43446007D01*
X34610684Y-43422803D01*
X34607174Y-43399142D01*
X34606000Y-43375250D01*
X34606000Y-42887750D01*
X34607174Y-42863858D01*
X34610684Y-42840197D01*
X34616496Y-42816993D01*
X34624554Y-42794471D01*
X34634782Y-42772847D01*
X34647079Y-42752330D01*
X34661329Y-42733117D01*
X34677393Y-42715393D01*
X34695117Y-42699329D01*
X34714330Y-42685079D01*
X34734847Y-42672782D01*
X34756471Y-42662554D01*
X34778993Y-42654496D01*
X34802197Y-42648684D01*
X34825858Y-42645174D01*
X34849750Y-42644000D01*
X35762250Y-42644000D01*
X35786142Y-42645174D01*
G37*
G36*
X35786142Y-44520174D02*
G01*
X35809803Y-44523684D01*
X35833007Y-44529496D01*
X35855529Y-44537554D01*
X35877153Y-44547782D01*
X35897670Y-44560079D01*
X35916883Y-44574329D01*
X35934607Y-44590393D01*
X35950671Y-44608117D01*
X35964921Y-44627330D01*
X35977218Y-44647847D01*
X35987446Y-44669471D01*
X35995504Y-44691993D01*
X36001316Y-44715197D01*
X36004826Y-44738858D01*
X36006000Y-44762750D01*
X36006000Y-45250250D01*
X36004826Y-45274142D01*
X36001316Y-45297803D01*
X35995504Y-45321007D01*
X35987446Y-45343529D01*
X35977218Y-45365153D01*
X35964921Y-45385670D01*
X35950671Y-45404883D01*
X35934607Y-45422607D01*
X35916883Y-45438671D01*
X35897670Y-45452921D01*
X35877153Y-45465218D01*
X35855529Y-45475446D01*
X35833007Y-45483504D01*
X35809803Y-45489316D01*
X35786142Y-45492826D01*
X35762250Y-45494000D01*
X34849750Y-45494000D01*
X34825858Y-45492826D01*
X34802197Y-45489316D01*
X34778993Y-45483504D01*
X34756471Y-45475446D01*
X34734847Y-45465218D01*
X34714330Y-45452921D01*
X34695117Y-45438671D01*
X34677393Y-45422607D01*
X34661329Y-45404883D01*
X34647079Y-45385670D01*
X34634782Y-45365153D01*
X34624554Y-45343529D01*
X34616496Y-45321007D01*
X34610684Y-45297803D01*
X34607174Y-45274142D01*
X34606000Y-45250250D01*
X34606000Y-44762750D01*
X34607174Y-44738858D01*
X34610684Y-44715197D01*
X34616496Y-44691993D01*
X34624554Y-44669471D01*
X34634782Y-44647847D01*
X34647079Y-44627330D01*
X34661329Y-44608117D01*
X34677393Y-44590393D01*
X34695117Y-44574329D01*
X34714330Y-44560079D01*
X34734847Y-44547782D01*
X34756471Y-44537554D01*
X34778993Y-44529496D01*
X34802197Y-44523684D01*
X34825858Y-44520174D01*
X34849750Y-44519000D01*
X35762250Y-44519000D01*
X35786142Y-44520174D01*
G37*
G36*
X33500142Y-44520174D02*
G01*
X33523803Y-44523684D01*
X33547007Y-44529496D01*
X33569529Y-44537554D01*
X33591153Y-44547782D01*
X33611670Y-44560079D01*
X33630883Y-44574329D01*
X33648607Y-44590393D01*
X33664671Y-44608117D01*
X33678921Y-44627330D01*
X33691218Y-44647847D01*
X33701446Y-44669471D01*
X33709504Y-44691993D01*
X33715316Y-44715197D01*
X33718826Y-44738858D01*
X33720000Y-44762750D01*
X33720000Y-45250250D01*
X33718826Y-45274142D01*
X33715316Y-45297803D01*
X33709504Y-45321007D01*
X33701446Y-45343529D01*
X33691218Y-45365153D01*
X33678921Y-45385670D01*
X33664671Y-45404883D01*
X33648607Y-45422607D01*
X33630883Y-45438671D01*
X33611670Y-45452921D01*
X33591153Y-45465218D01*
X33569529Y-45475446D01*
X33547007Y-45483504D01*
X33523803Y-45489316D01*
X33500142Y-45492826D01*
X33476250Y-45494000D01*
X32563750Y-45494000D01*
X32539858Y-45492826D01*
X32516197Y-45489316D01*
X32492993Y-45483504D01*
X32470471Y-45475446D01*
X32448847Y-45465218D01*
X32428330Y-45452921D01*
X32409117Y-45438671D01*
X32391393Y-45422607D01*
X32375329Y-45404883D01*
X32361079Y-45385670D01*
X32348782Y-45365153D01*
X32338554Y-45343529D01*
X32330496Y-45321007D01*
X32324684Y-45297803D01*
X32321174Y-45274142D01*
X32320000Y-45250250D01*
X32320000Y-44762750D01*
X32321174Y-44738858D01*
X32324684Y-44715197D01*
X32330496Y-44691993D01*
X32338554Y-44669471D01*
X32348782Y-44647847D01*
X32361079Y-44627330D01*
X32375329Y-44608117D01*
X32391393Y-44590393D01*
X32409117Y-44574329D01*
X32428330Y-44560079D01*
X32448847Y-44547782D01*
X32470471Y-44537554D01*
X32492993Y-44529496D01*
X32516197Y-44523684D01*
X32539858Y-44520174D01*
X32563750Y-44519000D01*
X33476250Y-44519000D01*
X33500142Y-44520174D01*
G37*
G36*
X33500142Y-42645174D02*
G01*
X33523803Y-42648684D01*
X33547007Y-42654496D01*
X33569529Y-42662554D01*
X33591153Y-42672782D01*
X33611670Y-42685079D01*
X33630883Y-42699329D01*
X33648607Y-42715393D01*
X33664671Y-42733117D01*
X33678921Y-42752330D01*
X33691218Y-42772847D01*
X33701446Y-42794471D01*
X33709504Y-42816993D01*
X33715316Y-42840197D01*
X33718826Y-42863858D01*
X33720000Y-42887750D01*
X33720000Y-43375250D01*
X33718826Y-43399142D01*
X33715316Y-43422803D01*
X33709504Y-43446007D01*
X33701446Y-43468529D01*
X33691218Y-43490153D01*
X33678921Y-43510670D01*
X33664671Y-43529883D01*
X33648607Y-43547607D01*
X33630883Y-43563671D01*
X33611670Y-43577921D01*
X33591153Y-43590218D01*
X33569529Y-43600446D01*
X33547007Y-43608504D01*
X33523803Y-43614316D01*
X33500142Y-43617826D01*
X33476250Y-43619000D01*
X32563750Y-43619000D01*
X32539858Y-43617826D01*
X32516197Y-43614316D01*
X32492993Y-43608504D01*
X32470471Y-43600446D01*
X32448847Y-43590218D01*
X32428330Y-43577921D01*
X32409117Y-43563671D01*
X32391393Y-43547607D01*
X32375329Y-43529883D01*
X32361079Y-43510670D01*
X32348782Y-43490153D01*
X32338554Y-43468529D01*
X32330496Y-43446007D01*
X32324684Y-43422803D01*
X32321174Y-43399142D01*
X32320000Y-43375250D01*
X32320000Y-42887750D01*
X32321174Y-42863858D01*
X32324684Y-42840197D01*
X32330496Y-42816993D01*
X32338554Y-42794471D01*
X32348782Y-42772847D01*
X32361079Y-42752330D01*
X32375329Y-42733117D01*
X32391393Y-42715393D01*
X32409117Y-42699329D01*
X32428330Y-42685079D01*
X32448847Y-42672782D01*
X32470471Y-42662554D01*
X32492993Y-42654496D01*
X32516197Y-42648684D01*
X32539858Y-42645174D01*
X32563750Y-42644000D01*
X33476250Y-42644000D01*
X33500142Y-42645174D01*
G37*
G36*
X30960142Y-63346174D02*
G01*
X30983803Y-63349684D01*
X31007007Y-63355496D01*
X31029529Y-63363554D01*
X31051153Y-63373782D01*
X31071670Y-63386079D01*
X31090883Y-63400329D01*
X31108607Y-63416393D01*
X31124671Y-63434117D01*
X31138921Y-63453330D01*
X31151218Y-63473847D01*
X31161446Y-63495471D01*
X31169504Y-63517993D01*
X31175316Y-63541197D01*
X31178826Y-63564858D01*
X31180000Y-63588750D01*
X31180000Y-64076250D01*
X31178826Y-64100142D01*
X31175316Y-64123803D01*
X31169504Y-64147007D01*
X31161446Y-64169529D01*
X31151218Y-64191153D01*
X31138921Y-64211670D01*
X31124671Y-64230883D01*
X31108607Y-64248607D01*
X31090883Y-64264671D01*
X31071670Y-64278921D01*
X31051153Y-64291218D01*
X31029529Y-64301446D01*
X31007007Y-64309504D01*
X30983803Y-64315316D01*
X30960142Y-64318826D01*
X30936250Y-64320000D01*
X30023750Y-64320000D01*
X29999858Y-64318826D01*
X29976197Y-64315316D01*
X29952993Y-64309504D01*
X29930471Y-64301446D01*
X29908847Y-64291218D01*
X29888330Y-64278921D01*
X29869117Y-64264671D01*
X29851393Y-64248607D01*
X29835329Y-64230883D01*
X29821079Y-64211670D01*
X29808782Y-64191153D01*
X29798554Y-64169529D01*
X29790496Y-64147007D01*
X29784684Y-64123803D01*
X29781174Y-64100142D01*
X29780000Y-64076250D01*
X29780000Y-63588750D01*
X29781174Y-63564858D01*
X29784684Y-63541197D01*
X29790496Y-63517993D01*
X29798554Y-63495471D01*
X29808782Y-63473847D01*
X29821079Y-63453330D01*
X29835329Y-63434117D01*
X29851393Y-63416393D01*
X29869117Y-63400329D01*
X29888330Y-63386079D01*
X29908847Y-63373782D01*
X29930471Y-63363554D01*
X29952993Y-63355496D01*
X29976197Y-63349684D01*
X29999858Y-63346174D01*
X30023750Y-63345000D01*
X30936250Y-63345000D01*
X30960142Y-63346174D01*
G37*
G36*
X30960142Y-65221174D02*
G01*
X30983803Y-65224684D01*
X31007007Y-65230496D01*
X31029529Y-65238554D01*
X31051153Y-65248782D01*
X31071670Y-65261079D01*
X31090883Y-65275329D01*
X31108607Y-65291393D01*
X31124671Y-65309117D01*
X31138921Y-65328330D01*
X31151218Y-65348847D01*
X31161446Y-65370471D01*
X31169504Y-65392993D01*
X31175316Y-65416197D01*
X31178826Y-65439858D01*
X31180000Y-65463750D01*
X31180000Y-65951250D01*
X31178826Y-65975142D01*
X31175316Y-65998803D01*
X31169504Y-66022007D01*
X31161446Y-66044529D01*
X31151218Y-66066153D01*
X31138921Y-66086670D01*
X31124671Y-66105883D01*
X31108607Y-66123607D01*
X31090883Y-66139671D01*
X31071670Y-66153921D01*
X31051153Y-66166218D01*
X31029529Y-66176446D01*
X31007007Y-66184504D01*
X30983803Y-66190316D01*
X30960142Y-66193826D01*
X30936250Y-66195000D01*
X30023750Y-66195000D01*
X29999858Y-66193826D01*
X29976197Y-66190316D01*
X29952993Y-66184504D01*
X29930471Y-66176446D01*
X29908847Y-66166218D01*
X29888330Y-66153921D01*
X29869117Y-66139671D01*
X29851393Y-66123607D01*
X29835329Y-66105883D01*
X29821079Y-66086670D01*
X29808782Y-66066153D01*
X29798554Y-66044529D01*
X29790496Y-66022007D01*
X29784684Y-65998803D01*
X29781174Y-65975142D01*
X29780000Y-65951250D01*
X29780000Y-65463750D01*
X29781174Y-65439858D01*
X29784684Y-65416197D01*
X29790496Y-65392993D01*
X29798554Y-65370471D01*
X29808782Y-65348847D01*
X29821079Y-65328330D01*
X29835329Y-65309117D01*
X29851393Y-65291393D01*
X29869117Y-65275329D01*
X29888330Y-65261079D01*
X29908847Y-65248782D01*
X29930471Y-65238554D01*
X29952993Y-65230496D01*
X29976197Y-65224684D01*
X29999858Y-65221174D01*
X30023750Y-65220000D01*
X30936250Y-65220000D01*
X30960142Y-65221174D01*
G37*
G36*
X55210142Y-50101174D02*
G01*
X55233803Y-50104684D01*
X55257007Y-50110496D01*
X55279529Y-50118554D01*
X55301153Y-50128782D01*
X55321670Y-50141079D01*
X55340883Y-50155329D01*
X55358607Y-50171393D01*
X55374671Y-50189117D01*
X55388921Y-50208330D01*
X55401218Y-50228847D01*
X55411446Y-50250471D01*
X55419504Y-50272993D01*
X55425316Y-50296197D01*
X55428826Y-50319858D01*
X55430000Y-50343750D01*
X55430000Y-51256250D01*
X55428826Y-51280142D01*
X55425316Y-51303803D01*
X55419504Y-51327007D01*
X55411446Y-51349529D01*
X55401218Y-51371153D01*
X55388921Y-51391670D01*
X55374671Y-51410883D01*
X55358607Y-51428607D01*
X55340883Y-51444671D01*
X55321670Y-51458921D01*
X55301153Y-51471218D01*
X55279529Y-51481446D01*
X55257007Y-51489504D01*
X55233803Y-51495316D01*
X55210142Y-51498826D01*
X55186250Y-51500000D01*
X54698750Y-51500000D01*
X54674858Y-51498826D01*
X54651197Y-51495316D01*
X54627993Y-51489504D01*
X54605471Y-51481446D01*
X54583847Y-51471218D01*
X54563330Y-51458921D01*
X54544117Y-51444671D01*
X54526393Y-51428607D01*
X54510329Y-51410883D01*
X54496079Y-51391670D01*
X54483782Y-51371153D01*
X54473554Y-51349529D01*
X54465496Y-51327007D01*
X54459684Y-51303803D01*
X54456174Y-51280142D01*
X54455000Y-51256250D01*
X54455000Y-50343750D01*
X54456174Y-50319858D01*
X54459684Y-50296197D01*
X54465496Y-50272993D01*
X54473554Y-50250471D01*
X54483782Y-50228847D01*
X54496079Y-50208330D01*
X54510329Y-50189117D01*
X54526393Y-50171393D01*
X54544117Y-50155329D01*
X54563330Y-50141079D01*
X54583847Y-50128782D01*
X54605471Y-50118554D01*
X54627993Y-50110496D01*
X54651197Y-50104684D01*
X54674858Y-50101174D01*
X54698750Y-50100000D01*
X55186250Y-50100000D01*
X55210142Y-50101174D01*
G37*
G36*
X57085142Y-50101174D02*
G01*
X57108803Y-50104684D01*
X57132007Y-50110496D01*
X57154529Y-50118554D01*
X57176153Y-50128782D01*
X57196670Y-50141079D01*
X57215883Y-50155329D01*
X57233607Y-50171393D01*
X57249671Y-50189117D01*
X57263921Y-50208330D01*
X57276218Y-50228847D01*
X57286446Y-50250471D01*
X57294504Y-50272993D01*
X57300316Y-50296197D01*
X57303826Y-50319858D01*
X57305000Y-50343750D01*
X57305000Y-51256250D01*
X57303826Y-51280142D01*
X57300316Y-51303803D01*
X57294504Y-51327007D01*
X57286446Y-51349529D01*
X57276218Y-51371153D01*
X57263921Y-51391670D01*
X57249671Y-51410883D01*
X57233607Y-51428607D01*
X57215883Y-51444671D01*
X57196670Y-51458921D01*
X57176153Y-51471218D01*
X57154529Y-51481446D01*
X57132007Y-51489504D01*
X57108803Y-51495316D01*
X57085142Y-51498826D01*
X57061250Y-51500000D01*
X56573750Y-51500000D01*
X56549858Y-51498826D01*
X56526197Y-51495316D01*
X56502993Y-51489504D01*
X56480471Y-51481446D01*
X56458847Y-51471218D01*
X56438330Y-51458921D01*
X56419117Y-51444671D01*
X56401393Y-51428607D01*
X56385329Y-51410883D01*
X56371079Y-51391670D01*
X56358782Y-51371153D01*
X56348554Y-51349529D01*
X56340496Y-51327007D01*
X56334684Y-51303803D01*
X56331174Y-51280142D01*
X56330000Y-51256250D01*
X56330000Y-50343750D01*
X56331174Y-50319858D01*
X56334684Y-50296197D01*
X56340496Y-50272993D01*
X56348554Y-50250471D01*
X56358782Y-50228847D01*
X56371079Y-50208330D01*
X56385329Y-50189117D01*
X56401393Y-50171393D01*
X56419117Y-50155329D01*
X56438330Y-50141079D01*
X56458847Y-50128782D01*
X56480471Y-50118554D01*
X56502993Y-50110496D01*
X56526197Y-50104684D01*
X56549858Y-50101174D01*
X56573750Y-50100000D01*
X57061250Y-50100000D01*
X57085142Y-50101174D01*
G37*
G36*
X53529142Y-69913174D02*
G01*
X53552803Y-69916684D01*
X53576007Y-69922496D01*
X53598529Y-69930554D01*
X53620153Y-69940782D01*
X53640670Y-69953079D01*
X53659883Y-69967329D01*
X53677607Y-69983393D01*
X53693671Y-70001117D01*
X53707921Y-70020330D01*
X53720218Y-70040847D01*
X53730446Y-70062471D01*
X53738504Y-70084993D01*
X53744316Y-70108197D01*
X53747826Y-70131858D01*
X53749000Y-70155750D01*
X53749000Y-71068250D01*
X53747826Y-71092142D01*
X53744316Y-71115803D01*
X53738504Y-71139007D01*
X53730446Y-71161529D01*
X53720218Y-71183153D01*
X53707921Y-71203670D01*
X53693671Y-71222883D01*
X53677607Y-71240607D01*
X53659883Y-71256671D01*
X53640670Y-71270921D01*
X53620153Y-71283218D01*
X53598529Y-71293446D01*
X53576007Y-71301504D01*
X53552803Y-71307316D01*
X53529142Y-71310826D01*
X53505250Y-71312000D01*
X53017750Y-71312000D01*
X52993858Y-71310826D01*
X52970197Y-71307316D01*
X52946993Y-71301504D01*
X52924471Y-71293446D01*
X52902847Y-71283218D01*
X52882330Y-71270921D01*
X52863117Y-71256671D01*
X52845393Y-71240607D01*
X52829329Y-71222883D01*
X52815079Y-71203670D01*
X52802782Y-71183153D01*
X52792554Y-71161529D01*
X52784496Y-71139007D01*
X52778684Y-71115803D01*
X52775174Y-71092142D01*
X52774000Y-71068250D01*
X52774000Y-70155750D01*
X52775174Y-70131858D01*
X52778684Y-70108197D01*
X52784496Y-70084993D01*
X52792554Y-70062471D01*
X52802782Y-70040847D01*
X52815079Y-70020330D01*
X52829329Y-70001117D01*
X52845393Y-69983393D01*
X52863117Y-69967329D01*
X52882330Y-69953079D01*
X52902847Y-69940782D01*
X52924471Y-69930554D01*
X52946993Y-69922496D01*
X52970197Y-69916684D01*
X52993858Y-69913174D01*
X53017750Y-69912000D01*
X53505250Y-69912000D01*
X53529142Y-69913174D01*
G37*
G36*
X51654142Y-69913174D02*
G01*
X51677803Y-69916684D01*
X51701007Y-69922496D01*
X51723529Y-69930554D01*
X51745153Y-69940782D01*
X51765670Y-69953079D01*
X51784883Y-69967329D01*
X51802607Y-69983393D01*
X51818671Y-70001117D01*
X51832921Y-70020330D01*
X51845218Y-70040847D01*
X51855446Y-70062471D01*
X51863504Y-70084993D01*
X51869316Y-70108197D01*
X51872826Y-70131858D01*
X51874000Y-70155750D01*
X51874000Y-71068250D01*
X51872826Y-71092142D01*
X51869316Y-71115803D01*
X51863504Y-71139007D01*
X51855446Y-71161529D01*
X51845218Y-71183153D01*
X51832921Y-71203670D01*
X51818671Y-71222883D01*
X51802607Y-71240607D01*
X51784883Y-71256671D01*
X51765670Y-71270921D01*
X51745153Y-71283218D01*
X51723529Y-71293446D01*
X51701007Y-71301504D01*
X51677803Y-71307316D01*
X51654142Y-71310826D01*
X51630250Y-71312000D01*
X51142750Y-71312000D01*
X51118858Y-71310826D01*
X51095197Y-71307316D01*
X51071993Y-71301504D01*
X51049471Y-71293446D01*
X51027847Y-71283218D01*
X51007330Y-71270921D01*
X50988117Y-71256671D01*
X50970393Y-71240607D01*
X50954329Y-71222883D01*
X50940079Y-71203670D01*
X50927782Y-71183153D01*
X50917554Y-71161529D01*
X50909496Y-71139007D01*
X50903684Y-71115803D01*
X50900174Y-71092142D01*
X50899000Y-71068250D01*
X50899000Y-70155750D01*
X50900174Y-70131858D01*
X50903684Y-70108197D01*
X50909496Y-70084993D01*
X50917554Y-70062471D01*
X50927782Y-70040847D01*
X50940079Y-70020330D01*
X50954329Y-70001117D01*
X50970393Y-69983393D01*
X50988117Y-69967329D01*
X51007330Y-69953079D01*
X51027847Y-69940782D01*
X51049471Y-69930554D01*
X51071993Y-69922496D01*
X51095197Y-69916684D01*
X51118858Y-69913174D01*
X51142750Y-69912000D01*
X51630250Y-69912000D01*
X51654142Y-69913174D01*
G37*
G36*
X41755142Y-68123674D02*
G01*
X41778803Y-68127184D01*
X41802007Y-68132996D01*
X41824529Y-68141054D01*
X41846153Y-68151282D01*
X41866670Y-68163579D01*
X41885883Y-68177829D01*
X41903607Y-68193893D01*
X41919671Y-68211617D01*
X41933921Y-68230830D01*
X41946218Y-68251347D01*
X41956446Y-68272971D01*
X41964504Y-68295493D01*
X41970316Y-68318697D01*
X41973826Y-68342358D01*
X41975000Y-68366250D01*
X41975000Y-68853750D01*
X41973826Y-68877642D01*
X41970316Y-68901303D01*
X41964504Y-68924507D01*
X41956446Y-68947029D01*
X41946218Y-68968653D01*
X41933921Y-68989170D01*
X41919671Y-69008383D01*
X41903607Y-69026107D01*
X41885883Y-69042171D01*
X41866670Y-69056421D01*
X41846153Y-69068718D01*
X41824529Y-69078946D01*
X41802007Y-69087004D01*
X41778803Y-69092816D01*
X41755142Y-69096326D01*
X41731250Y-69097500D01*
X40818750Y-69097500D01*
X40794858Y-69096326D01*
X40771197Y-69092816D01*
X40747993Y-69087004D01*
X40725471Y-69078946D01*
X40703847Y-69068718D01*
X40683330Y-69056421D01*
X40664117Y-69042171D01*
X40646393Y-69026107D01*
X40630329Y-69008383D01*
X40616079Y-68989170D01*
X40603782Y-68968653D01*
X40593554Y-68947029D01*
X40585496Y-68924507D01*
X40579684Y-68901303D01*
X40576174Y-68877642D01*
X40575000Y-68853750D01*
X40575000Y-68366250D01*
X40576174Y-68342358D01*
X40579684Y-68318697D01*
X40585496Y-68295493D01*
X40593554Y-68272971D01*
X40603782Y-68251347D01*
X40616079Y-68230830D01*
X40630329Y-68211617D01*
X40646393Y-68193893D01*
X40664117Y-68177829D01*
X40683330Y-68163579D01*
X40703847Y-68151282D01*
X40725471Y-68141054D01*
X40747993Y-68132996D01*
X40771197Y-68127184D01*
X40794858Y-68123674D01*
X40818750Y-68122500D01*
X41731250Y-68122500D01*
X41755142Y-68123674D01*
G37*
G36*
X41755142Y-69998674D02*
G01*
X41778803Y-70002184D01*
X41802007Y-70007996D01*
X41824529Y-70016054D01*
X41846153Y-70026282D01*
X41866670Y-70038579D01*
X41885883Y-70052829D01*
X41903607Y-70068893D01*
X41919671Y-70086617D01*
X41933921Y-70105830D01*
X41946218Y-70126347D01*
X41956446Y-70147971D01*
X41964504Y-70170493D01*
X41970316Y-70193697D01*
X41973826Y-70217358D01*
X41975000Y-70241250D01*
X41975000Y-70728750D01*
X41973826Y-70752642D01*
X41970316Y-70776303D01*
X41964504Y-70799507D01*
X41956446Y-70822029D01*
X41946218Y-70843653D01*
X41933921Y-70864170D01*
X41919671Y-70883383D01*
X41903607Y-70901107D01*
X41885883Y-70917171D01*
X41866670Y-70931421D01*
X41846153Y-70943718D01*
X41824529Y-70953946D01*
X41802007Y-70962004D01*
X41778803Y-70967816D01*
X41755142Y-70971326D01*
X41731250Y-70972500D01*
X40818750Y-70972500D01*
X40794858Y-70971326D01*
X40771197Y-70967816D01*
X40747993Y-70962004D01*
X40725471Y-70953946D01*
X40703847Y-70943718D01*
X40683330Y-70931421D01*
X40664117Y-70917171D01*
X40646393Y-70901107D01*
X40630329Y-70883383D01*
X40616079Y-70864170D01*
X40603782Y-70843653D01*
X40593554Y-70822029D01*
X40585496Y-70799507D01*
X40579684Y-70776303D01*
X40576174Y-70752642D01*
X40575000Y-70728750D01*
X40575000Y-70241250D01*
X40576174Y-70217358D01*
X40579684Y-70193697D01*
X40585496Y-70170493D01*
X40593554Y-70147971D01*
X40603782Y-70126347D01*
X40616079Y-70105830D01*
X40630329Y-70086617D01*
X40646393Y-70068893D01*
X40664117Y-70052829D01*
X40683330Y-70038579D01*
X40703847Y-70026282D01*
X40725471Y-70016054D01*
X40747993Y-70007996D01*
X40771197Y-70002184D01*
X40794858Y-69998674D01*
X40818750Y-69997500D01*
X41731250Y-69997500D01*
X41755142Y-69998674D01*
G37*
D14*
X44890000Y-61728000D03*
X44890000Y-60928000D03*
X44890000Y-60128000D03*
X44890000Y-59328000D03*
X44890000Y-58528000D03*
X44890000Y-57728000D03*
X44890000Y-56928000D03*
X44890000Y-56128000D03*
D15*
X43440000Y-54678000D03*
X42640000Y-54678000D03*
X41840000Y-54678000D03*
X41040000Y-54678000D03*
X40240000Y-54678000D03*
X39440000Y-54678000D03*
X38640000Y-54678000D03*
X37840000Y-54678000D03*
D14*
X36390000Y-56128000D03*
X36390000Y-56928000D03*
X36390000Y-57728000D03*
X36390000Y-58528000D03*
X36390000Y-59328000D03*
X36390000Y-60128000D03*
X36390000Y-60928000D03*
X36390000Y-61728000D03*
D15*
X37840000Y-63178000D03*
X38640000Y-63178000D03*
X39440000Y-63178000D03*
X40240000Y-63178000D03*
X41040000Y-63178000D03*
X41840000Y-63178000D03*
X42640000Y-63178000D03*
X43440000Y-63178000D03*
D16*
X54610000Y-54125000D03*
X54610000Y-66525000D03*
D17*
X73495000Y-68616000D03*
X81445000Y-68616000D03*
X73495000Y-73116000D03*
X81445000Y-73116000D03*
D10*
G36*
X71466142Y-39687174D02*
G01*
X71489803Y-39690684D01*
X71513007Y-39696496D01*
X71535529Y-39704554D01*
X71557153Y-39714782D01*
X71577670Y-39727079D01*
X71596883Y-39741329D01*
X71614607Y-39757393D01*
X71630671Y-39775117D01*
X71644921Y-39794330D01*
X71657218Y-39814847D01*
X71667446Y-39836471D01*
X71675504Y-39858993D01*
X71681316Y-39882197D01*
X71684826Y-39905858D01*
X71686000Y-39929750D01*
X71686000Y-40842250D01*
X71684826Y-40866142D01*
X71681316Y-40889803D01*
X71675504Y-40913007D01*
X71667446Y-40935529D01*
X71657218Y-40957153D01*
X71644921Y-40977670D01*
X71630671Y-40996883D01*
X71614607Y-41014607D01*
X71596883Y-41030671D01*
X71577670Y-41044921D01*
X71557153Y-41057218D01*
X71535529Y-41067446D01*
X71513007Y-41075504D01*
X71489803Y-41081316D01*
X71466142Y-41084826D01*
X71442250Y-41086000D01*
X70954750Y-41086000D01*
X70930858Y-41084826D01*
X70907197Y-41081316D01*
X70883993Y-41075504D01*
X70861471Y-41067446D01*
X70839847Y-41057218D01*
X70819330Y-41044921D01*
X70800117Y-41030671D01*
X70782393Y-41014607D01*
X70766329Y-40996883D01*
X70752079Y-40977670D01*
X70739782Y-40957153D01*
X70729554Y-40935529D01*
X70721496Y-40913007D01*
X70715684Y-40889803D01*
X70712174Y-40866142D01*
X70711000Y-40842250D01*
X70711000Y-39929750D01*
X70712174Y-39905858D01*
X70715684Y-39882197D01*
X70721496Y-39858993D01*
X70729554Y-39836471D01*
X70739782Y-39814847D01*
X70752079Y-39794330D01*
X70766329Y-39775117D01*
X70782393Y-39757393D01*
X70800117Y-39741329D01*
X70819330Y-39727079D01*
X70839847Y-39714782D01*
X70861471Y-39704554D01*
X70883993Y-39696496D01*
X70907197Y-39690684D01*
X70930858Y-39687174D01*
X70954750Y-39686000D01*
X71442250Y-39686000D01*
X71466142Y-39687174D01*
G37*
G36*
X73341142Y-39687174D02*
G01*
X73364803Y-39690684D01*
X73388007Y-39696496D01*
X73410529Y-39704554D01*
X73432153Y-39714782D01*
X73452670Y-39727079D01*
X73471883Y-39741329D01*
X73489607Y-39757393D01*
X73505671Y-39775117D01*
X73519921Y-39794330D01*
X73532218Y-39814847D01*
X73542446Y-39836471D01*
X73550504Y-39858993D01*
X73556316Y-39882197D01*
X73559826Y-39905858D01*
X73561000Y-39929750D01*
X73561000Y-40842250D01*
X73559826Y-40866142D01*
X73556316Y-40889803D01*
X73550504Y-40913007D01*
X73542446Y-40935529D01*
X73532218Y-40957153D01*
X73519921Y-40977670D01*
X73505671Y-40996883D01*
X73489607Y-41014607D01*
X73471883Y-41030671D01*
X73452670Y-41044921D01*
X73432153Y-41057218D01*
X73410529Y-41067446D01*
X73388007Y-41075504D01*
X73364803Y-41081316D01*
X73341142Y-41084826D01*
X73317250Y-41086000D01*
X72829750Y-41086000D01*
X72805858Y-41084826D01*
X72782197Y-41081316D01*
X72758993Y-41075504D01*
X72736471Y-41067446D01*
X72714847Y-41057218D01*
X72694330Y-41044921D01*
X72675117Y-41030671D01*
X72657393Y-41014607D01*
X72641329Y-40996883D01*
X72627079Y-40977670D01*
X72614782Y-40957153D01*
X72604554Y-40935529D01*
X72596496Y-40913007D01*
X72590684Y-40889803D01*
X72587174Y-40866142D01*
X72586000Y-40842250D01*
X72586000Y-39929750D01*
X72587174Y-39905858D01*
X72590684Y-39882197D01*
X72596496Y-39858993D01*
X72604554Y-39836471D01*
X72614782Y-39814847D01*
X72627079Y-39794330D01*
X72641329Y-39775117D01*
X72657393Y-39757393D01*
X72675117Y-39741329D01*
X72694330Y-39727079D01*
X72714847Y-39714782D01*
X72736471Y-39704554D01*
X72758993Y-39696496D01*
X72782197Y-39690684D01*
X72805858Y-39687174D01*
X72829750Y-39686000D01*
X73317250Y-39686000D01*
X73341142Y-39687174D01*
G37*
G36*
X73341142Y-47053174D02*
G01*
X73364803Y-47056684D01*
X73388007Y-47062496D01*
X73410529Y-47070554D01*
X73432153Y-47080782D01*
X73452670Y-47093079D01*
X73471883Y-47107329D01*
X73489607Y-47123393D01*
X73505671Y-47141117D01*
X73519921Y-47160330D01*
X73532218Y-47180847D01*
X73542446Y-47202471D01*
X73550504Y-47224993D01*
X73556316Y-47248197D01*
X73559826Y-47271858D01*
X73561000Y-47295750D01*
X73561000Y-48208250D01*
X73559826Y-48232142D01*
X73556316Y-48255803D01*
X73550504Y-48279007D01*
X73542446Y-48301529D01*
X73532218Y-48323153D01*
X73519921Y-48343670D01*
X73505671Y-48362883D01*
X73489607Y-48380607D01*
X73471883Y-48396671D01*
X73452670Y-48410921D01*
X73432153Y-48423218D01*
X73410529Y-48433446D01*
X73388007Y-48441504D01*
X73364803Y-48447316D01*
X73341142Y-48450826D01*
X73317250Y-48452000D01*
X72829750Y-48452000D01*
X72805858Y-48450826D01*
X72782197Y-48447316D01*
X72758993Y-48441504D01*
X72736471Y-48433446D01*
X72714847Y-48423218D01*
X72694330Y-48410921D01*
X72675117Y-48396671D01*
X72657393Y-48380607D01*
X72641329Y-48362883D01*
X72627079Y-48343670D01*
X72614782Y-48323153D01*
X72604554Y-48301529D01*
X72596496Y-48279007D01*
X72590684Y-48255803D01*
X72587174Y-48232142D01*
X72586000Y-48208250D01*
X72586000Y-47295750D01*
X72587174Y-47271858D01*
X72590684Y-47248197D01*
X72596496Y-47224993D01*
X72604554Y-47202471D01*
X72614782Y-47180847D01*
X72627079Y-47160330D01*
X72641329Y-47141117D01*
X72657393Y-47123393D01*
X72675117Y-47107329D01*
X72694330Y-47093079D01*
X72714847Y-47080782D01*
X72736471Y-47070554D01*
X72758993Y-47062496D01*
X72782197Y-47056684D01*
X72805858Y-47053174D01*
X72829750Y-47052000D01*
X73317250Y-47052000D01*
X73341142Y-47053174D01*
G37*
G36*
X71466142Y-47053174D02*
G01*
X71489803Y-47056684D01*
X71513007Y-47062496D01*
X71535529Y-47070554D01*
X71557153Y-47080782D01*
X71577670Y-47093079D01*
X71596883Y-47107329D01*
X71614607Y-47123393D01*
X71630671Y-47141117D01*
X71644921Y-47160330D01*
X71657218Y-47180847D01*
X71667446Y-47202471D01*
X71675504Y-47224993D01*
X71681316Y-47248197D01*
X71684826Y-47271858D01*
X71686000Y-47295750D01*
X71686000Y-48208250D01*
X71684826Y-48232142D01*
X71681316Y-48255803D01*
X71675504Y-48279007D01*
X71667446Y-48301529D01*
X71657218Y-48323153D01*
X71644921Y-48343670D01*
X71630671Y-48362883D01*
X71614607Y-48380607D01*
X71596883Y-48396671D01*
X71577670Y-48410921D01*
X71557153Y-48423218D01*
X71535529Y-48433446D01*
X71513007Y-48441504D01*
X71489803Y-48447316D01*
X71466142Y-48450826D01*
X71442250Y-48452000D01*
X70954750Y-48452000D01*
X70930858Y-48450826D01*
X70907197Y-48447316D01*
X70883993Y-48441504D01*
X70861471Y-48433446D01*
X70839847Y-48423218D01*
X70819330Y-48410921D01*
X70800117Y-48396671D01*
X70782393Y-48380607D01*
X70766329Y-48362883D01*
X70752079Y-48343670D01*
X70739782Y-48323153D01*
X70729554Y-48301529D01*
X70721496Y-48279007D01*
X70715684Y-48255803D01*
X70712174Y-48232142D01*
X70711000Y-48208250D01*
X70711000Y-47295750D01*
X70712174Y-47271858D01*
X70715684Y-47248197D01*
X70721496Y-47224993D01*
X70729554Y-47202471D01*
X70739782Y-47180847D01*
X70752079Y-47160330D01*
X70766329Y-47141117D01*
X70782393Y-47123393D01*
X70800117Y-47107329D01*
X70819330Y-47093079D01*
X70839847Y-47080782D01*
X70861471Y-47070554D01*
X70883993Y-47062496D01*
X70907197Y-47056684D01*
X70930858Y-47053174D01*
X70954750Y-47052000D01*
X71442250Y-47052000D01*
X71466142Y-47053174D01*
G37*
G36*
X71466142Y-25463174D02*
G01*
X71489803Y-25466684D01*
X71513007Y-25472496D01*
X71535529Y-25480554D01*
X71557153Y-25490782D01*
X71577670Y-25503079D01*
X71596883Y-25517329D01*
X71614607Y-25533393D01*
X71630671Y-25551117D01*
X71644921Y-25570330D01*
X71657218Y-25590847D01*
X71667446Y-25612471D01*
X71675504Y-25634993D01*
X71681316Y-25658197D01*
X71684826Y-25681858D01*
X71686000Y-25705750D01*
X71686000Y-26618250D01*
X71684826Y-26642142D01*
X71681316Y-26665803D01*
X71675504Y-26689007D01*
X71667446Y-26711529D01*
X71657218Y-26733153D01*
X71644921Y-26753670D01*
X71630671Y-26772883D01*
X71614607Y-26790607D01*
X71596883Y-26806671D01*
X71577670Y-26820921D01*
X71557153Y-26833218D01*
X71535529Y-26843446D01*
X71513007Y-26851504D01*
X71489803Y-26857316D01*
X71466142Y-26860826D01*
X71442250Y-26862000D01*
X70954750Y-26862000D01*
X70930858Y-26860826D01*
X70907197Y-26857316D01*
X70883993Y-26851504D01*
X70861471Y-26843446D01*
X70839847Y-26833218D01*
X70819330Y-26820921D01*
X70800117Y-26806671D01*
X70782393Y-26790607D01*
X70766329Y-26772883D01*
X70752079Y-26753670D01*
X70739782Y-26733153D01*
X70729554Y-26711529D01*
X70721496Y-26689007D01*
X70715684Y-26665803D01*
X70712174Y-26642142D01*
X70711000Y-26618250D01*
X70711000Y-25705750D01*
X70712174Y-25681858D01*
X70715684Y-25658197D01*
X70721496Y-25634993D01*
X70729554Y-25612471D01*
X70739782Y-25590847D01*
X70752079Y-25570330D01*
X70766329Y-25551117D01*
X70782393Y-25533393D01*
X70800117Y-25517329D01*
X70819330Y-25503079D01*
X70839847Y-25490782D01*
X70861471Y-25480554D01*
X70883993Y-25472496D01*
X70907197Y-25466684D01*
X70930858Y-25463174D01*
X70954750Y-25462000D01*
X71442250Y-25462000D01*
X71466142Y-25463174D01*
G37*
G36*
X73341142Y-25463174D02*
G01*
X73364803Y-25466684D01*
X73388007Y-25472496D01*
X73410529Y-25480554D01*
X73432153Y-25490782D01*
X73452670Y-25503079D01*
X73471883Y-25517329D01*
X73489607Y-25533393D01*
X73505671Y-25551117D01*
X73519921Y-25570330D01*
X73532218Y-25590847D01*
X73542446Y-25612471D01*
X73550504Y-25634993D01*
X73556316Y-25658197D01*
X73559826Y-25681858D01*
X73561000Y-25705750D01*
X73561000Y-26618250D01*
X73559826Y-26642142D01*
X73556316Y-26665803D01*
X73550504Y-26689007D01*
X73542446Y-26711529D01*
X73532218Y-26733153D01*
X73519921Y-26753670D01*
X73505671Y-26772883D01*
X73489607Y-26790607D01*
X73471883Y-26806671D01*
X73452670Y-26820921D01*
X73432153Y-26833218D01*
X73410529Y-26843446D01*
X73388007Y-26851504D01*
X73364803Y-26857316D01*
X73341142Y-26860826D01*
X73317250Y-26862000D01*
X72829750Y-26862000D01*
X72805858Y-26860826D01*
X72782197Y-26857316D01*
X72758993Y-26851504D01*
X72736471Y-26843446D01*
X72714847Y-26833218D01*
X72694330Y-26820921D01*
X72675117Y-26806671D01*
X72657393Y-26790607D01*
X72641329Y-26772883D01*
X72627079Y-26753670D01*
X72614782Y-26733153D01*
X72604554Y-26711529D01*
X72596496Y-26689007D01*
X72590684Y-26665803D01*
X72587174Y-26642142D01*
X72586000Y-26618250D01*
X72586000Y-25705750D01*
X72587174Y-25681858D01*
X72590684Y-25658197D01*
X72596496Y-25634993D01*
X72604554Y-25612471D01*
X72614782Y-25590847D01*
X72627079Y-25570330D01*
X72641329Y-25551117D01*
X72657393Y-25533393D01*
X72675117Y-25517329D01*
X72694330Y-25503079D01*
X72714847Y-25490782D01*
X72736471Y-25480554D01*
X72758993Y-25472496D01*
X72782197Y-25466684D01*
X72805858Y-25463174D01*
X72829750Y-25462000D01*
X73317250Y-25462000D01*
X73341142Y-25463174D01*
G37*
G36*
X73341142Y-32321174D02*
G01*
X73364803Y-32324684D01*
X73388007Y-32330496D01*
X73410529Y-32338554D01*
X73432153Y-32348782D01*
X73452670Y-32361079D01*
X73471883Y-32375329D01*
X73489607Y-32391393D01*
X73505671Y-32409117D01*
X73519921Y-32428330D01*
X73532218Y-32448847D01*
X73542446Y-32470471D01*
X73550504Y-32492993D01*
X73556316Y-32516197D01*
X73559826Y-32539858D01*
X73561000Y-32563750D01*
X73561000Y-33476250D01*
X73559826Y-33500142D01*
X73556316Y-33523803D01*
X73550504Y-33547007D01*
X73542446Y-33569529D01*
X73532218Y-33591153D01*
X73519921Y-33611670D01*
X73505671Y-33630883D01*
X73489607Y-33648607D01*
X73471883Y-33664671D01*
X73452670Y-33678921D01*
X73432153Y-33691218D01*
X73410529Y-33701446D01*
X73388007Y-33709504D01*
X73364803Y-33715316D01*
X73341142Y-33718826D01*
X73317250Y-33720000D01*
X72829750Y-33720000D01*
X72805858Y-33718826D01*
X72782197Y-33715316D01*
X72758993Y-33709504D01*
X72736471Y-33701446D01*
X72714847Y-33691218D01*
X72694330Y-33678921D01*
X72675117Y-33664671D01*
X72657393Y-33648607D01*
X72641329Y-33630883D01*
X72627079Y-33611670D01*
X72614782Y-33591153D01*
X72604554Y-33569529D01*
X72596496Y-33547007D01*
X72590684Y-33523803D01*
X72587174Y-33500142D01*
X72586000Y-33476250D01*
X72586000Y-32563750D01*
X72587174Y-32539858D01*
X72590684Y-32516197D01*
X72596496Y-32492993D01*
X72604554Y-32470471D01*
X72614782Y-32448847D01*
X72627079Y-32428330D01*
X72641329Y-32409117D01*
X72657393Y-32391393D01*
X72675117Y-32375329D01*
X72694330Y-32361079D01*
X72714847Y-32348782D01*
X72736471Y-32338554D01*
X72758993Y-32330496D01*
X72782197Y-32324684D01*
X72805858Y-32321174D01*
X72829750Y-32320000D01*
X73317250Y-32320000D01*
X73341142Y-32321174D01*
G37*
G36*
X71466142Y-32321174D02*
G01*
X71489803Y-32324684D01*
X71513007Y-32330496D01*
X71535529Y-32338554D01*
X71557153Y-32348782D01*
X71577670Y-32361079D01*
X71596883Y-32375329D01*
X71614607Y-32391393D01*
X71630671Y-32409117D01*
X71644921Y-32428330D01*
X71657218Y-32448847D01*
X71667446Y-32470471D01*
X71675504Y-32492993D01*
X71681316Y-32516197D01*
X71684826Y-32539858D01*
X71686000Y-32563750D01*
X71686000Y-33476250D01*
X71684826Y-33500142D01*
X71681316Y-33523803D01*
X71675504Y-33547007D01*
X71667446Y-33569529D01*
X71657218Y-33591153D01*
X71644921Y-33611670D01*
X71630671Y-33630883D01*
X71614607Y-33648607D01*
X71596883Y-33664671D01*
X71577670Y-33678921D01*
X71557153Y-33691218D01*
X71535529Y-33701446D01*
X71513007Y-33709504D01*
X71489803Y-33715316D01*
X71466142Y-33718826D01*
X71442250Y-33720000D01*
X70954750Y-33720000D01*
X70930858Y-33718826D01*
X70907197Y-33715316D01*
X70883993Y-33709504D01*
X70861471Y-33701446D01*
X70839847Y-33691218D01*
X70819330Y-33678921D01*
X70800117Y-33664671D01*
X70782393Y-33648607D01*
X70766329Y-33630883D01*
X70752079Y-33611670D01*
X70739782Y-33591153D01*
X70729554Y-33569529D01*
X70721496Y-33547007D01*
X70715684Y-33523803D01*
X70712174Y-33500142D01*
X70711000Y-33476250D01*
X70711000Y-32563750D01*
X70712174Y-32539858D01*
X70715684Y-32516197D01*
X70721496Y-32492993D01*
X70729554Y-32470471D01*
X70739782Y-32448847D01*
X70752079Y-32428330D01*
X70766329Y-32409117D01*
X70782393Y-32391393D01*
X70800117Y-32375329D01*
X70819330Y-32361079D01*
X70839847Y-32348782D01*
X70861471Y-32338554D01*
X70883993Y-32330496D01*
X70907197Y-32324684D01*
X70930858Y-32321174D01*
X70954750Y-32320000D01*
X71442250Y-32320000D01*
X71466142Y-32321174D01*
G37*
M02*
