M48
; DRILL file {KiCad (5.1.5)-3} date 2020-04-26 21:37:00
; FORMAT={-:-/ absolute / inch / decimal}
; #@! TF.CreationDate,2020-04-26T21:37:00+02:00
; #@! TF.GenerationSoftware,Kicad,Pcbnew,(5.1.5)-3
; #@! TF.FileFunction,Plated,1,2,PTH
FMAT,2
INCH
T1C0.0157
T2C0.0300
T3C0.0315
T4C0.0394
T5C0.0433
T6C0.0512
%
G90
G05
T1
X0.745Y-2.525
X0.8325Y-1.9425
X0.8975Y-1.835
X0.96Y-1.67
X0.975Y-2.24
X0.99Y-1.054
X1.0225Y-2.1475
X1.0525Y-2.0865
X1.115Y-1.4525
X1.215Y-1.67
X1.215Y-2.33
X1.23Y-2.525
X1.2575Y-1.4525
X1.265Y-2.3
X1.3025Y-1.835
X1.332Y-1.026
X1.335Y-1.2075
X1.4575Y-1.3775
X1.48Y-1.65
X1.49Y-0.874
X1.562Y-1.648
X1.585Y-1.3775
X1.64Y-0.874
X1.69Y-1.3325
X1.8Y-2.725
X1.8125Y-2.3425
X1.845Y-2.265
X1.8525Y-1.9175
X1.875Y-2.3175
X1.88Y-2.43
X1.9075Y-2.28
X1.94Y-2.2425
X1.975Y-2.725
X1.9925Y-2.435
X2.022Y-1.576
X2.05Y-2.1
X2.112Y-1.6009
X2.125Y-1.3325
X2.135Y-2.5225
X2.155Y-2.4
X2.175Y-2.1
X2.2025Y-2.4
X2.23Y-2.18
X2.23Y-2.32
X2.275Y-1.625
X2.275Y-2.5
X2.325Y-2.175
X2.325Y-2.4
X2.41Y-1.875
X2.48Y-2.12
X2.57Y-1.875
X2.58Y-2.205
X2.845Y-2.725
X2.88Y-2.305
X3.005Y-2.73
T2
X2.6488Y-0.8
X2.7488Y-0.8
X2.8488Y-0.8
X2.9488Y-0.8
X2.4004Y-1.475
X2.6996Y-1.475
T3
X2.97Y-3.005
X2.97Y-3.1034
X1.49Y-3.165
X1.69Y-3.165
X0.8325Y-2.0225
X0.8325Y-2.6225
X0.9325Y-2.0225
X0.9325Y-2.6225
X1.0325Y-2.0225
X1.0325Y-2.6225
X1.1325Y-2.0225
X1.1325Y-2.6225
X1.2325Y-2.0225
X1.2325Y-2.6225
X1.3325Y-2.0225
X1.3325Y-2.6225
X1.4325Y-2.0225
X1.4325Y-2.6225
X1.5325Y-2.0225
X1.5325Y-2.6225
X1.6325Y-2.0225
X1.6325Y-2.6225
X1.7325Y-2.0225
X1.7325Y-2.6225
X1.8325Y-2.0225
X1.8325Y-2.6225
X1.9325Y-2.0225
X1.9325Y-2.6225
X2.0325Y-2.0225
X2.0325Y-2.6225
X2.1325Y-2.0225
X2.1325Y-2.6225
X2.2325Y-2.0225
X2.2325Y-2.6225
X2.44Y-3.065
X2.44Y-3.1437
T4
X0.99Y-0.935
X0.99Y-1.535
X1.09Y-0.935
X1.09Y-1.535
X1.19Y-0.935
X1.19Y-1.535
X1.29Y-0.935
X1.29Y-1.535
X1.39Y-0.935
X1.39Y-1.535
X1.49Y-0.935
X1.49Y-1.535
X1.59Y-0.935
X1.59Y-1.535
X1.69Y-0.935
X1.69Y-1.535
X1.79Y-0.935
X1.79Y-1.535
T5
X1.69Y-3.325
X2.09Y-3.325
X2.49Y-2.845
X2.59Y-2.845
X2.69Y-2.845
T6
X1.135Y-2.87
X1.135Y-3.07
X1.135Y-3.27
T0
M30
