G04 #@! TF.GenerationSoftware,KiCad,Pcbnew,(5.1.5)-3*
G04 #@! TF.CreationDate,2020-04-28T22:27:17+02:00*
G04 #@! TF.ProjectId,czujnikParkowania,637a756a-6e69-46b5-9061-726b6f77616e,rev?*
G04 #@! TF.SameCoordinates,Original*
G04 #@! TF.FileFunction,Legend,Top*
G04 #@! TF.FilePolarity,Positive*
%FSLAX46Y46*%
G04 Gerber Fmt 4.6, Leading zero omitted, Abs format (unit mm)*
G04 Created by KiCad (PCBNEW (5.1.5)-3) date 2020-04-28 22:27:17*
%MOMM*%
%LPD*%
G04 APERTURE LIST*
%ADD10C,0.120000*%
%ADD11C,0.150000*%
G04 APERTURE END LIST*
D10*
X67076648Y-35433000D02*
G75*
G03X67076648Y-35433000I-4846648J0D01*
G01*
X60896500Y-48577500D02*
X63436500Y-48577500D01*
X63436500Y-48577500D02*
X63436500Y-45907500D01*
X60896500Y-45907500D02*
X22666500Y-45907500D01*
X66106500Y-45907500D02*
X63436500Y-45907500D01*
X63436500Y-61277500D02*
X63436500Y-63947500D01*
X63436500Y-61277500D02*
X25336500Y-61277500D01*
X25336500Y-61277500D02*
X25336500Y-63947500D01*
X60896500Y-48577500D02*
X60896500Y-45907500D01*
X60896500Y-48577500D02*
X25336500Y-48577500D01*
X25336500Y-48577500D02*
X25336500Y-45907500D01*
X22666500Y-45907500D02*
X22666500Y-63947500D01*
X22666500Y-63947500D02*
X66106500Y-63947500D01*
X66106500Y-63947500D02*
X66106500Y-45907500D01*
X62056000Y-76819000D02*
G75*
G03X62056000Y-76819000I-2620000J0D01*
G01*
X58396000Y-76819000D02*
X56856000Y-76819000D01*
X62016000Y-76819000D02*
X60476000Y-76819000D01*
X58396000Y-76859000D02*
X56856000Y-76859000D01*
X62016000Y-76859000D02*
X60476000Y-76859000D01*
X62015000Y-76899000D02*
X60476000Y-76899000D01*
X58396000Y-76899000D02*
X56857000Y-76899000D01*
X62014000Y-76939000D02*
X60476000Y-76939000D01*
X58396000Y-76939000D02*
X56858000Y-76939000D01*
X62012000Y-76979000D02*
X60476000Y-76979000D01*
X58396000Y-76979000D02*
X56860000Y-76979000D01*
X62009000Y-77019000D02*
X60476000Y-77019000D01*
X58396000Y-77019000D02*
X56863000Y-77019000D01*
X62005000Y-77059000D02*
X60476000Y-77059000D01*
X58396000Y-77059000D02*
X56867000Y-77059000D01*
X62001000Y-77099000D02*
X60476000Y-77099000D01*
X58396000Y-77099000D02*
X56871000Y-77099000D01*
X61997000Y-77139000D02*
X60476000Y-77139000D01*
X58396000Y-77139000D02*
X56875000Y-77139000D01*
X61992000Y-77179000D02*
X60476000Y-77179000D01*
X58396000Y-77179000D02*
X56880000Y-77179000D01*
X61986000Y-77219000D02*
X60476000Y-77219000D01*
X58396000Y-77219000D02*
X56886000Y-77219000D01*
X61979000Y-77259000D02*
X60476000Y-77259000D01*
X58396000Y-77259000D02*
X56893000Y-77259000D01*
X61972000Y-77299000D02*
X60476000Y-77299000D01*
X58396000Y-77299000D02*
X56900000Y-77299000D01*
X61964000Y-77339000D02*
X60476000Y-77339000D01*
X58396000Y-77339000D02*
X56908000Y-77339000D01*
X61956000Y-77379000D02*
X60476000Y-77379000D01*
X58396000Y-77379000D02*
X56916000Y-77379000D01*
X61947000Y-77419000D02*
X60476000Y-77419000D01*
X58396000Y-77419000D02*
X56925000Y-77419000D01*
X61937000Y-77459000D02*
X60476000Y-77459000D01*
X58396000Y-77459000D02*
X56935000Y-77459000D01*
X61927000Y-77499000D02*
X60476000Y-77499000D01*
X58396000Y-77499000D02*
X56945000Y-77499000D01*
X61916000Y-77540000D02*
X60476000Y-77540000D01*
X58396000Y-77540000D02*
X56956000Y-77540000D01*
X61904000Y-77580000D02*
X60476000Y-77580000D01*
X58396000Y-77580000D02*
X56968000Y-77580000D01*
X61891000Y-77620000D02*
X60476000Y-77620000D01*
X58396000Y-77620000D02*
X56981000Y-77620000D01*
X61878000Y-77660000D02*
X60476000Y-77660000D01*
X58396000Y-77660000D02*
X56994000Y-77660000D01*
X61864000Y-77700000D02*
X60476000Y-77700000D01*
X58396000Y-77700000D02*
X57008000Y-77700000D01*
X61850000Y-77740000D02*
X60476000Y-77740000D01*
X58396000Y-77740000D02*
X57022000Y-77740000D01*
X61834000Y-77780000D02*
X60476000Y-77780000D01*
X58396000Y-77780000D02*
X57038000Y-77780000D01*
X61818000Y-77820000D02*
X60476000Y-77820000D01*
X58396000Y-77820000D02*
X57054000Y-77820000D01*
X61801000Y-77860000D02*
X60476000Y-77860000D01*
X58396000Y-77860000D02*
X57071000Y-77860000D01*
X61784000Y-77900000D02*
X60476000Y-77900000D01*
X58396000Y-77900000D02*
X57088000Y-77900000D01*
X61765000Y-77940000D02*
X60476000Y-77940000D01*
X58396000Y-77940000D02*
X57107000Y-77940000D01*
X61746000Y-77980000D02*
X60476000Y-77980000D01*
X58396000Y-77980000D02*
X57126000Y-77980000D01*
X61726000Y-78020000D02*
X60476000Y-78020000D01*
X58396000Y-78020000D02*
X57146000Y-78020000D01*
X61704000Y-78060000D02*
X60476000Y-78060000D01*
X58396000Y-78060000D02*
X57168000Y-78060000D01*
X61683000Y-78100000D02*
X60476000Y-78100000D01*
X58396000Y-78100000D02*
X57189000Y-78100000D01*
X61660000Y-78140000D02*
X60476000Y-78140000D01*
X58396000Y-78140000D02*
X57212000Y-78140000D01*
X61636000Y-78180000D02*
X60476000Y-78180000D01*
X58396000Y-78180000D02*
X57236000Y-78180000D01*
X61611000Y-78220000D02*
X60476000Y-78220000D01*
X58396000Y-78220000D02*
X57261000Y-78220000D01*
X61585000Y-78260000D02*
X60476000Y-78260000D01*
X58396000Y-78260000D02*
X57287000Y-78260000D01*
X61558000Y-78300000D02*
X60476000Y-78300000D01*
X58396000Y-78300000D02*
X57314000Y-78300000D01*
X61531000Y-78340000D02*
X60476000Y-78340000D01*
X58396000Y-78340000D02*
X57341000Y-78340000D01*
X61501000Y-78380000D02*
X60476000Y-78380000D01*
X58396000Y-78380000D02*
X57371000Y-78380000D01*
X61471000Y-78420000D02*
X60476000Y-78420000D01*
X58396000Y-78420000D02*
X57401000Y-78420000D01*
X61440000Y-78460000D02*
X60476000Y-78460000D01*
X58396000Y-78460000D02*
X57432000Y-78460000D01*
X61407000Y-78500000D02*
X60476000Y-78500000D01*
X58396000Y-78500000D02*
X57465000Y-78500000D01*
X61373000Y-78540000D02*
X60476000Y-78540000D01*
X58396000Y-78540000D02*
X57499000Y-78540000D01*
X61337000Y-78580000D02*
X60476000Y-78580000D01*
X58396000Y-78580000D02*
X57535000Y-78580000D01*
X61300000Y-78620000D02*
X60476000Y-78620000D01*
X58396000Y-78620000D02*
X57572000Y-78620000D01*
X61262000Y-78660000D02*
X60476000Y-78660000D01*
X58396000Y-78660000D02*
X57610000Y-78660000D01*
X61221000Y-78700000D02*
X60476000Y-78700000D01*
X58396000Y-78700000D02*
X57651000Y-78700000D01*
X61179000Y-78740000D02*
X60476000Y-78740000D01*
X58396000Y-78740000D02*
X57693000Y-78740000D01*
X61135000Y-78780000D02*
X60476000Y-78780000D01*
X58396000Y-78780000D02*
X57737000Y-78780000D01*
X61089000Y-78820000D02*
X60476000Y-78820000D01*
X58396000Y-78820000D02*
X57783000Y-78820000D01*
X61041000Y-78860000D02*
X57831000Y-78860000D01*
X60990000Y-78900000D02*
X57882000Y-78900000D01*
X60936000Y-78940000D02*
X57936000Y-78940000D01*
X60879000Y-78980000D02*
X57993000Y-78980000D01*
X60819000Y-79020000D02*
X58053000Y-79020000D01*
X60755000Y-79060000D02*
X58117000Y-79060000D01*
X60687000Y-79100000D02*
X58185000Y-79100000D01*
X60614000Y-79140000D02*
X58258000Y-79140000D01*
X60534000Y-79180000D02*
X58338000Y-79180000D01*
X60447000Y-79220000D02*
X58425000Y-79220000D01*
X60351000Y-79260000D02*
X58521000Y-79260000D01*
X60241000Y-79300000D02*
X58631000Y-79300000D01*
X60113000Y-79340000D02*
X58759000Y-79340000D01*
X59954000Y-79380000D02*
X58918000Y-79380000D01*
X59720000Y-79420000D02*
X59152000Y-79420000D01*
X60911000Y-74014225D02*
X60911000Y-74514225D01*
X61161000Y-74264225D02*
X60661000Y-74264225D01*
X53900000Y-68711578D02*
X53900000Y-68194422D01*
X55320000Y-68711578D02*
X55320000Y-68194422D01*
X66552578Y-75109000D02*
X66035422Y-75109000D01*
X66552578Y-76529000D02*
X66035422Y-76529000D01*
X75518000Y-77196000D02*
G75*
G03X75518000Y-77196000I-2620000J0D01*
G01*
X75478000Y-77196000D02*
X70318000Y-77196000D01*
X75478000Y-77236000D02*
X70318000Y-77236000D01*
X75477000Y-77276000D02*
X70319000Y-77276000D01*
X75476000Y-77316000D02*
X70320000Y-77316000D01*
X75474000Y-77356000D02*
X70322000Y-77356000D01*
X75471000Y-77396000D02*
X70325000Y-77396000D01*
X75467000Y-77436000D02*
X73938000Y-77436000D01*
X71858000Y-77436000D02*
X70329000Y-77436000D01*
X75463000Y-77476000D02*
X73938000Y-77476000D01*
X71858000Y-77476000D02*
X70333000Y-77476000D01*
X75459000Y-77516000D02*
X73938000Y-77516000D01*
X71858000Y-77516000D02*
X70337000Y-77516000D01*
X75454000Y-77556000D02*
X73938000Y-77556000D01*
X71858000Y-77556000D02*
X70342000Y-77556000D01*
X75448000Y-77596000D02*
X73938000Y-77596000D01*
X71858000Y-77596000D02*
X70348000Y-77596000D01*
X75441000Y-77636000D02*
X73938000Y-77636000D01*
X71858000Y-77636000D02*
X70355000Y-77636000D01*
X75434000Y-77676000D02*
X73938000Y-77676000D01*
X71858000Y-77676000D02*
X70362000Y-77676000D01*
X75426000Y-77716000D02*
X73938000Y-77716000D01*
X71858000Y-77716000D02*
X70370000Y-77716000D01*
X75418000Y-77756000D02*
X73938000Y-77756000D01*
X71858000Y-77756000D02*
X70378000Y-77756000D01*
X75409000Y-77796000D02*
X73938000Y-77796000D01*
X71858000Y-77796000D02*
X70387000Y-77796000D01*
X75399000Y-77836000D02*
X73938000Y-77836000D01*
X71858000Y-77836000D02*
X70397000Y-77836000D01*
X75389000Y-77876000D02*
X73938000Y-77876000D01*
X71858000Y-77876000D02*
X70407000Y-77876000D01*
X75378000Y-77917000D02*
X73938000Y-77917000D01*
X71858000Y-77917000D02*
X70418000Y-77917000D01*
X75366000Y-77957000D02*
X73938000Y-77957000D01*
X71858000Y-77957000D02*
X70430000Y-77957000D01*
X75353000Y-77997000D02*
X73938000Y-77997000D01*
X71858000Y-77997000D02*
X70443000Y-77997000D01*
X75340000Y-78037000D02*
X73938000Y-78037000D01*
X71858000Y-78037000D02*
X70456000Y-78037000D01*
X75326000Y-78077000D02*
X73938000Y-78077000D01*
X71858000Y-78077000D02*
X70470000Y-78077000D01*
X75312000Y-78117000D02*
X73938000Y-78117000D01*
X71858000Y-78117000D02*
X70484000Y-78117000D01*
X75296000Y-78157000D02*
X73938000Y-78157000D01*
X71858000Y-78157000D02*
X70500000Y-78157000D01*
X75280000Y-78197000D02*
X73938000Y-78197000D01*
X71858000Y-78197000D02*
X70516000Y-78197000D01*
X75263000Y-78237000D02*
X73938000Y-78237000D01*
X71858000Y-78237000D02*
X70533000Y-78237000D01*
X75246000Y-78277000D02*
X73938000Y-78277000D01*
X71858000Y-78277000D02*
X70550000Y-78277000D01*
X75227000Y-78317000D02*
X73938000Y-78317000D01*
X71858000Y-78317000D02*
X70569000Y-78317000D01*
X75208000Y-78357000D02*
X73938000Y-78357000D01*
X71858000Y-78357000D02*
X70588000Y-78357000D01*
X75188000Y-78397000D02*
X73938000Y-78397000D01*
X71858000Y-78397000D02*
X70608000Y-78397000D01*
X75166000Y-78437000D02*
X73938000Y-78437000D01*
X71858000Y-78437000D02*
X70630000Y-78437000D01*
X75145000Y-78477000D02*
X73938000Y-78477000D01*
X71858000Y-78477000D02*
X70651000Y-78477000D01*
X75122000Y-78517000D02*
X73938000Y-78517000D01*
X71858000Y-78517000D02*
X70674000Y-78517000D01*
X75098000Y-78557000D02*
X73938000Y-78557000D01*
X71858000Y-78557000D02*
X70698000Y-78557000D01*
X75073000Y-78597000D02*
X73938000Y-78597000D01*
X71858000Y-78597000D02*
X70723000Y-78597000D01*
X75047000Y-78637000D02*
X73938000Y-78637000D01*
X71858000Y-78637000D02*
X70749000Y-78637000D01*
X75020000Y-78677000D02*
X73938000Y-78677000D01*
X71858000Y-78677000D02*
X70776000Y-78677000D01*
X74993000Y-78717000D02*
X73938000Y-78717000D01*
X71858000Y-78717000D02*
X70803000Y-78717000D01*
X74963000Y-78757000D02*
X73938000Y-78757000D01*
X71858000Y-78757000D02*
X70833000Y-78757000D01*
X74933000Y-78797000D02*
X73938000Y-78797000D01*
X71858000Y-78797000D02*
X70863000Y-78797000D01*
X74902000Y-78837000D02*
X73938000Y-78837000D01*
X71858000Y-78837000D02*
X70894000Y-78837000D01*
X74869000Y-78877000D02*
X73938000Y-78877000D01*
X71858000Y-78877000D02*
X70927000Y-78877000D01*
X74835000Y-78917000D02*
X73938000Y-78917000D01*
X71858000Y-78917000D02*
X70961000Y-78917000D01*
X74799000Y-78957000D02*
X73938000Y-78957000D01*
X71858000Y-78957000D02*
X70997000Y-78957000D01*
X74762000Y-78997000D02*
X73938000Y-78997000D01*
X71858000Y-78997000D02*
X71034000Y-78997000D01*
X74724000Y-79037000D02*
X73938000Y-79037000D01*
X71858000Y-79037000D02*
X71072000Y-79037000D01*
X74683000Y-79077000D02*
X73938000Y-79077000D01*
X71858000Y-79077000D02*
X71113000Y-79077000D01*
X74641000Y-79117000D02*
X73938000Y-79117000D01*
X71858000Y-79117000D02*
X71155000Y-79117000D01*
X74597000Y-79157000D02*
X73938000Y-79157000D01*
X71858000Y-79157000D02*
X71199000Y-79157000D01*
X74551000Y-79197000D02*
X73938000Y-79197000D01*
X71858000Y-79197000D02*
X71245000Y-79197000D01*
X74503000Y-79237000D02*
X73938000Y-79237000D01*
X71858000Y-79237000D02*
X71293000Y-79237000D01*
X74452000Y-79277000D02*
X73938000Y-79277000D01*
X71858000Y-79277000D02*
X71344000Y-79277000D01*
X74398000Y-79317000D02*
X73938000Y-79317000D01*
X71858000Y-79317000D02*
X71398000Y-79317000D01*
X74341000Y-79357000D02*
X73938000Y-79357000D01*
X71858000Y-79357000D02*
X71455000Y-79357000D01*
X74281000Y-79397000D02*
X73938000Y-79397000D01*
X71858000Y-79397000D02*
X71515000Y-79397000D01*
X74217000Y-79437000D02*
X73938000Y-79437000D01*
X71858000Y-79437000D02*
X71579000Y-79437000D01*
X74149000Y-79477000D02*
X73938000Y-79477000D01*
X71858000Y-79477000D02*
X71647000Y-79477000D01*
X74076000Y-79517000D02*
X71720000Y-79517000D01*
X73996000Y-79557000D02*
X71800000Y-79557000D01*
X73909000Y-79597000D02*
X71887000Y-79597000D01*
X73813000Y-79637000D02*
X71983000Y-79637000D01*
X73703000Y-79677000D02*
X72093000Y-79677000D01*
X73575000Y-79717000D02*
X72221000Y-79717000D01*
X73416000Y-79757000D02*
X72380000Y-79757000D01*
X73182000Y-79797000D02*
X72614000Y-79797000D01*
X74373000Y-74391225D02*
X74373000Y-74891225D01*
X74623000Y-74641225D02*
X74123000Y-74641225D01*
X69290000Y-62606422D02*
X69290000Y-63123578D01*
X67870000Y-62606422D02*
X67870000Y-63123578D01*
X70108578Y-52884000D02*
X69591422Y-52884000D01*
X70108578Y-54304000D02*
X69591422Y-54304000D01*
X79850000Y-57741000D02*
X72550000Y-57741000D01*
X79850000Y-52241000D02*
X72550000Y-52241000D01*
X72550000Y-52241000D02*
X72550000Y-53391000D01*
X48186000Y-83893000D02*
X48186000Y-80953000D01*
X48186000Y-80953000D02*
X42746000Y-80953000D01*
X42746000Y-80953000D02*
X42746000Y-83893000D01*
X42746000Y-83893000D02*
X48186000Y-83893000D01*
X49206000Y-82423000D02*
X48186000Y-82423000D01*
X41726000Y-82423000D02*
X42746000Y-82423000D01*
X47286000Y-83893000D02*
X47286000Y-80953000D01*
X47166000Y-83893000D02*
X47166000Y-80953000D01*
X47406000Y-83893000D02*
X47406000Y-80953000D01*
X72550000Y-44621000D02*
X79850000Y-44621000D01*
X72550000Y-50121000D02*
X79850000Y-50121000D01*
X79850000Y-50121000D02*
X79850000Y-48971000D01*
X79850000Y-42755000D02*
X79850000Y-41605000D01*
X72550000Y-42755000D02*
X79850000Y-42755000D01*
X72550000Y-37255000D02*
X79850000Y-37255000D01*
X72550000Y-29889000D02*
X79850000Y-29889000D01*
X72550000Y-35389000D02*
X79850000Y-35389000D01*
X79850000Y-35389000D02*
X79850000Y-34239000D01*
X79850000Y-28277000D02*
X79850000Y-27127000D01*
X72550000Y-28277000D02*
X79850000Y-28277000D01*
X72550000Y-22777000D02*
X79850000Y-22777000D01*
X41756000Y-78359000D02*
G75*
G03X41756000Y-78359000I-1370000J0D01*
G01*
X39016000Y-78359000D02*
X36406000Y-78359000D01*
X28469000Y-81026000D02*
G75*
G03X28469000Y-81026000I-2180000J0D01*
G01*
X28469000Y-75946000D02*
G75*
G03X28469000Y-75946000I-2180000J0D01*
G01*
X28469000Y-70866000D02*
G75*
G03X28469000Y-70866000I-2180000J0D01*
G01*
X31089000Y-83626000D02*
X31089000Y-68266000D01*
X28589000Y-83626000D02*
X28589000Y-68266000D01*
X22389000Y-83626000D02*
X22389000Y-68266000D01*
X20329000Y-83626000D02*
X20329000Y-68266000D01*
X31649000Y-83626000D02*
X31649000Y-68266000D01*
X20329000Y-83626000D02*
X31649000Y-83626000D01*
X20329000Y-68266000D02*
X31649000Y-68266000D01*
X24901000Y-79372000D02*
X25008000Y-79479000D01*
X27836000Y-82308000D02*
X27943000Y-82414000D01*
X24635000Y-79638000D02*
X24742000Y-79745000D01*
X27570000Y-82574000D02*
X27677000Y-82680000D01*
X24901000Y-74292000D02*
X25297000Y-74687000D01*
X27563000Y-76953000D02*
X27943000Y-77333000D01*
X24635000Y-74558000D02*
X25015000Y-74938000D01*
X27281000Y-77204000D02*
X27677000Y-77599000D01*
X24901000Y-69212000D02*
X25297000Y-69607000D01*
X27563000Y-71873000D02*
X27943000Y-72253000D01*
X24635000Y-69478000D02*
X25015000Y-69858000D01*
X27281000Y-72124000D02*
X27677000Y-72519000D01*
X31149000Y-83866000D02*
X31889000Y-83866000D01*
X31889000Y-83866000D02*
X31889000Y-83366000D01*
X41971500Y-74033500D02*
X40511500Y-74033500D01*
X41971500Y-70873500D02*
X39811500Y-70873500D01*
X41971500Y-70873500D02*
X41971500Y-71803500D01*
X41971500Y-74033500D02*
X41971500Y-73103500D01*
X50081500Y-75755500D02*
X50081500Y-77705500D01*
X50081500Y-75755500D02*
X50081500Y-73805500D01*
X55201500Y-75755500D02*
X55201500Y-77705500D01*
X55201500Y-75755500D02*
X55201500Y-72305500D01*
X31494000Y-59365000D02*
X31494000Y-58435000D01*
X31494000Y-56205000D02*
X31494000Y-57135000D01*
X31494000Y-56205000D02*
X29334000Y-56205000D01*
X31494000Y-59365000D02*
X30034000Y-59365000D01*
X35558000Y-53523000D02*
X35558000Y-52593000D01*
X35558000Y-50363000D02*
X35558000Y-51293000D01*
X35558000Y-50363000D02*
X33398000Y-50363000D01*
X35558000Y-53523000D02*
X34098000Y-53523000D01*
X24894000Y-40457000D02*
X26354000Y-40457000D01*
X24894000Y-43617000D02*
X27054000Y-43617000D01*
X24894000Y-43617000D02*
X24894000Y-42687000D01*
X24894000Y-40457000D02*
X24894000Y-41387000D01*
X45668000Y-77093578D02*
X45668000Y-76576422D01*
X44248000Y-77093578D02*
X44248000Y-76576422D01*
X46169078Y-73163500D02*
X45651922Y-73163500D01*
X46169078Y-71743500D02*
X45651922Y-71743500D01*
X36771078Y-70791000D02*
X36253922Y-70791000D01*
X36771078Y-72211000D02*
X36253922Y-72211000D01*
X56440000Y-51947578D02*
X56440000Y-51430422D01*
X57860000Y-51947578D02*
X57860000Y-51430422D01*
X27380000Y-57965078D02*
X27380000Y-57447922D01*
X25960000Y-57965078D02*
X25960000Y-57447922D01*
X30230578Y-51891000D02*
X29713422Y-51891000D01*
X30230578Y-50471000D02*
X29713422Y-50471000D01*
X53796000Y-41778422D02*
X53796000Y-42295578D01*
X52376000Y-41778422D02*
X52376000Y-42295578D01*
X49328000Y-41778422D02*
X49328000Y-42295578D01*
X50748000Y-41778422D02*
X50748000Y-42295578D01*
X47700000Y-41778422D02*
X47700000Y-42295578D01*
X46280000Y-41778422D02*
X46280000Y-42295578D01*
X42978000Y-41778422D02*
X42978000Y-42295578D01*
X44398000Y-41778422D02*
X44398000Y-42295578D01*
X40842000Y-41778422D02*
X40842000Y-42295578D01*
X39422000Y-41778422D02*
X39422000Y-42295578D01*
X36120000Y-41778422D02*
X36120000Y-42295578D01*
X37540000Y-41778422D02*
X37540000Y-42295578D01*
X33476000Y-41778422D02*
X33476000Y-42295578D01*
X32056000Y-41778422D02*
X32056000Y-42295578D01*
X29770000Y-41778422D02*
X29770000Y-42295578D01*
X31190000Y-41778422D02*
X31190000Y-42295578D01*
X19886000Y-39237000D02*
X19886000Y-36957000D01*
X19896000Y-39237000D02*
X22606000Y-39237000D01*
X20146000Y-38982000D02*
X20146000Y-19692000D01*
X20146000Y-19692000D02*
X45396000Y-19692000D01*
X45396000Y-19692000D02*
X45396000Y-38982000D01*
X45396000Y-38982000D02*
X20146000Y-38982000D01*
X58126000Y-66961000D02*
X68366000Y-66961000D01*
X58126000Y-71602000D02*
X68366000Y-71602000D01*
X58126000Y-66961000D02*
X58126000Y-71602000D01*
X68366000Y-66961000D02*
X68366000Y-71602000D01*
X58126000Y-68471000D02*
X68366000Y-68471000D01*
X61396000Y-66961000D02*
X61396000Y-68471000D01*
X65097000Y-66961000D02*
X65097000Y-68471000D01*
X54155000Y-19850000D02*
X54155000Y-20350000D01*
X54155000Y-20350000D02*
X54555000Y-20350000D01*
X54155000Y-18450000D02*
X54155000Y-17950000D01*
X54155000Y-17950000D02*
X54555000Y-17950000D01*
X63555000Y-17950000D02*
X63955000Y-17950000D01*
X63955000Y-17950000D02*
X63955000Y-18350000D01*
X63955000Y-19750000D02*
X63955000Y-20250000D01*
X63955000Y-20250000D02*
X63555000Y-20250000D01*
X71526000Y-65634000D02*
X71526000Y-65384000D01*
X71526000Y-65384000D02*
X77826000Y-65384000D01*
X77826000Y-65384000D02*
X77826000Y-65634000D01*
X71526000Y-70134000D02*
X71526000Y-67534000D01*
X77826000Y-72034000D02*
X77826000Y-72284000D01*
X77826000Y-72284000D02*
X71526000Y-72284000D01*
X71526000Y-72284000D02*
X71526000Y-72034000D01*
X77826000Y-67534000D02*
X77826000Y-70134000D01*
X70108578Y-39318000D02*
X69591422Y-39318000D01*
X70108578Y-37898000D02*
X69591422Y-37898000D01*
X70108578Y-45264000D02*
X69591422Y-45264000D01*
X70108578Y-46684000D02*
X69591422Y-46684000D01*
X70108578Y-24840000D02*
X69591422Y-24840000D01*
X70108578Y-23420000D02*
X69591422Y-23420000D01*
X70108578Y-30532000D02*
X69591422Y-30532000D01*
X70108578Y-31952000D02*
X69591422Y-31952000D01*
D11*
X61349047Y-32361571D02*
X61491904Y-32409190D01*
X61539523Y-32456809D01*
X61587142Y-32552047D01*
X61587142Y-32694904D01*
X61539523Y-32790142D01*
X61491904Y-32837761D01*
X61396666Y-32885380D01*
X61015714Y-32885380D01*
X61015714Y-31885380D01*
X61349047Y-31885380D01*
X61444285Y-31933000D01*
X61491904Y-31980619D01*
X61539523Y-32075857D01*
X61539523Y-32171095D01*
X61491904Y-32266333D01*
X61444285Y-32313952D01*
X61349047Y-32361571D01*
X61015714Y-32361571D01*
X61920476Y-31885380D02*
X62587142Y-31885380D01*
X61920476Y-32885380D01*
X62587142Y-32885380D01*
X63491904Y-32885380D02*
X62920476Y-32885380D01*
X63206190Y-32885380D02*
X63206190Y-31885380D01*
X63110952Y-32028238D01*
X63015714Y-32123476D01*
X62920476Y-32171095D01*
X67413166Y-55641785D02*
X67413166Y-55165595D01*
X67698880Y-55737023D02*
X66698880Y-55403690D01*
X67698880Y-55070357D01*
X67698880Y-54213214D02*
X67698880Y-54784642D01*
X67698880Y-54498928D02*
X66698880Y-54498928D01*
X66841738Y-54594166D01*
X66936976Y-54689404D01*
X66984595Y-54784642D01*
X63543142Y-76985666D02*
X63590761Y-77033285D01*
X63638380Y-77176142D01*
X63638380Y-77271380D01*
X63590761Y-77414238D01*
X63495523Y-77509476D01*
X63400285Y-77557095D01*
X63209809Y-77604714D01*
X63066952Y-77604714D01*
X62876476Y-77557095D01*
X62781238Y-77509476D01*
X62686000Y-77414238D01*
X62638380Y-77271380D01*
X62638380Y-77176142D01*
X62686000Y-77033285D01*
X62733619Y-76985666D01*
X63638380Y-76033285D02*
X63638380Y-76604714D01*
X63638380Y-76319000D02*
X62638380Y-76319000D01*
X62781238Y-76414238D01*
X62876476Y-76509476D01*
X62924095Y-76604714D01*
X53317142Y-68619666D02*
X53364761Y-68667285D01*
X53412380Y-68810142D01*
X53412380Y-68905380D01*
X53364761Y-69048238D01*
X53269523Y-69143476D01*
X53174285Y-69191095D01*
X52983809Y-69238714D01*
X52840952Y-69238714D01*
X52650476Y-69191095D01*
X52555238Y-69143476D01*
X52460000Y-69048238D01*
X52412380Y-68905380D01*
X52412380Y-68810142D01*
X52460000Y-68667285D01*
X52507619Y-68619666D01*
X52507619Y-68238714D02*
X52460000Y-68191095D01*
X52412380Y-68095857D01*
X52412380Y-67857761D01*
X52460000Y-67762523D01*
X52507619Y-67714904D01*
X52602857Y-67667285D01*
X52698095Y-67667285D01*
X52840952Y-67714904D01*
X53412380Y-68286333D01*
X53412380Y-67667285D01*
X66127333Y-77826142D02*
X66079714Y-77873761D01*
X65936857Y-77921380D01*
X65841619Y-77921380D01*
X65698761Y-77873761D01*
X65603523Y-77778523D01*
X65555904Y-77683285D01*
X65508285Y-77492809D01*
X65508285Y-77349952D01*
X65555904Y-77159476D01*
X65603523Y-77064238D01*
X65698761Y-76969000D01*
X65841619Y-76921380D01*
X65936857Y-76921380D01*
X66079714Y-76969000D01*
X66127333Y-77016619D01*
X66460666Y-76921380D02*
X67079714Y-76921380D01*
X66746380Y-77302333D01*
X66889238Y-77302333D01*
X66984476Y-77349952D01*
X67032095Y-77397571D01*
X67079714Y-77492809D01*
X67079714Y-77730904D01*
X67032095Y-77826142D01*
X66984476Y-77873761D01*
X66889238Y-77921380D01*
X66603523Y-77921380D01*
X66508285Y-77873761D01*
X66460666Y-77826142D01*
X77005142Y-77362666D02*
X77052761Y-77410285D01*
X77100380Y-77553142D01*
X77100380Y-77648380D01*
X77052761Y-77791238D01*
X76957523Y-77886476D01*
X76862285Y-77934095D01*
X76671809Y-77981714D01*
X76528952Y-77981714D01*
X76338476Y-77934095D01*
X76243238Y-77886476D01*
X76148000Y-77791238D01*
X76100380Y-77648380D01*
X76100380Y-77553142D01*
X76148000Y-77410285D01*
X76195619Y-77362666D01*
X76433714Y-76505523D02*
X77100380Y-76505523D01*
X76052761Y-76743619D02*
X76767047Y-76981714D01*
X76767047Y-76362666D01*
X70587142Y-63031666D02*
X70634761Y-63079285D01*
X70682380Y-63222142D01*
X70682380Y-63317380D01*
X70634761Y-63460238D01*
X70539523Y-63555476D01*
X70444285Y-63603095D01*
X70253809Y-63650714D01*
X70110952Y-63650714D01*
X69920476Y-63603095D01*
X69825238Y-63555476D01*
X69730000Y-63460238D01*
X69682380Y-63317380D01*
X69682380Y-63222142D01*
X69730000Y-63079285D01*
X69777619Y-63031666D01*
X69682380Y-62126904D02*
X69682380Y-62603095D01*
X70158571Y-62650714D01*
X70110952Y-62603095D01*
X70063333Y-62507857D01*
X70063333Y-62269761D01*
X70110952Y-62174523D01*
X70158571Y-62126904D01*
X70253809Y-62079285D01*
X70491904Y-62079285D01*
X70587142Y-62126904D01*
X70634761Y-62174523D01*
X70682380Y-62269761D01*
X70682380Y-62507857D01*
X70634761Y-62603095D01*
X70587142Y-62650714D01*
X69683333Y-55601142D02*
X69635714Y-55648761D01*
X69492857Y-55696380D01*
X69397619Y-55696380D01*
X69254761Y-55648761D01*
X69159523Y-55553523D01*
X69111904Y-55458285D01*
X69064285Y-55267809D01*
X69064285Y-55124952D01*
X69111904Y-54934476D01*
X69159523Y-54839238D01*
X69254761Y-54744000D01*
X69397619Y-54696380D01*
X69492857Y-54696380D01*
X69635714Y-54744000D01*
X69683333Y-54791619D01*
X70540476Y-54696380D02*
X70350000Y-54696380D01*
X70254761Y-54744000D01*
X70207142Y-54791619D01*
X70111904Y-54934476D01*
X70064285Y-55124952D01*
X70064285Y-55505904D01*
X70111904Y-55601142D01*
X70159523Y-55648761D01*
X70254761Y-55696380D01*
X70445238Y-55696380D01*
X70540476Y-55648761D01*
X70588095Y-55601142D01*
X70635714Y-55505904D01*
X70635714Y-55267809D01*
X70588095Y-55172571D01*
X70540476Y-55124952D01*
X70445238Y-55077333D01*
X70254761Y-55077333D01*
X70159523Y-55124952D01*
X70111904Y-55172571D01*
X70064285Y-55267809D01*
X75461904Y-58943380D02*
X75461904Y-57943380D01*
X75700000Y-57943380D01*
X75842857Y-57991000D01*
X75938095Y-58086238D01*
X75985714Y-58181476D01*
X76033333Y-58371952D01*
X76033333Y-58514809D01*
X75985714Y-58705285D01*
X75938095Y-58800523D01*
X75842857Y-58895761D01*
X75700000Y-58943380D01*
X75461904Y-58943380D01*
X76985714Y-58943380D02*
X76414285Y-58943380D01*
X76700000Y-58943380D02*
X76700000Y-57943380D01*
X76604761Y-58086238D01*
X76509523Y-58181476D01*
X76414285Y-58229095D01*
X80635714Y-57043380D02*
X80064285Y-57043380D01*
X80350000Y-57043380D02*
X80350000Y-56043380D01*
X80254761Y-56186238D01*
X80159523Y-56281476D01*
X80064285Y-56329095D01*
X44727904Y-85345380D02*
X44727904Y-84345380D01*
X44966000Y-84345380D01*
X45108857Y-84393000D01*
X45204095Y-84488238D01*
X45251714Y-84583476D01*
X45299333Y-84773952D01*
X45299333Y-84916809D01*
X45251714Y-85107285D01*
X45204095Y-85202523D01*
X45108857Y-85297761D01*
X44966000Y-85345380D01*
X44727904Y-85345380D01*
X45680285Y-84440619D02*
X45727904Y-84393000D01*
X45823142Y-84345380D01*
X46061238Y-84345380D01*
X46156476Y-84393000D01*
X46204095Y-84440619D01*
X46251714Y-84535857D01*
X46251714Y-84631095D01*
X46204095Y-84773952D01*
X45632666Y-85345380D01*
X46251714Y-85345380D01*
X50284095Y-84975380D02*
X50284095Y-83975380D01*
X50855523Y-84975380D02*
X50426952Y-84403952D01*
X50855523Y-83975380D02*
X50284095Y-84546809D01*
X75461904Y-44323380D02*
X75461904Y-43323380D01*
X75700000Y-43323380D01*
X75842857Y-43371000D01*
X75938095Y-43466238D01*
X75985714Y-43561476D01*
X76033333Y-43751952D01*
X76033333Y-43894809D01*
X75985714Y-44085285D01*
X75938095Y-44180523D01*
X75842857Y-44275761D01*
X75700000Y-44323380D01*
X75461904Y-44323380D01*
X76366666Y-43323380D02*
X76985714Y-43323380D01*
X76652380Y-43704333D01*
X76795238Y-43704333D01*
X76890476Y-43751952D01*
X76938095Y-43799571D01*
X76985714Y-43894809D01*
X76985714Y-44132904D01*
X76938095Y-44228142D01*
X76890476Y-44275761D01*
X76795238Y-44323380D01*
X76509523Y-44323380D01*
X76414285Y-44275761D01*
X76366666Y-44228142D01*
X75461904Y-36957380D02*
X75461904Y-35957380D01*
X75700000Y-35957380D01*
X75842857Y-36005000D01*
X75938095Y-36100238D01*
X75985714Y-36195476D01*
X76033333Y-36385952D01*
X76033333Y-36528809D01*
X75985714Y-36719285D01*
X75938095Y-36814523D01*
X75842857Y-36909761D01*
X75700000Y-36957380D01*
X75461904Y-36957380D01*
X76890476Y-36290714D02*
X76890476Y-36957380D01*
X76652380Y-35909761D02*
X76414285Y-36624047D01*
X77033333Y-36624047D01*
X72335714Y-38857380D02*
X71764285Y-38857380D01*
X72050000Y-38857380D02*
X72050000Y-37857380D01*
X71954761Y-38000238D01*
X71859523Y-38095476D01*
X71764285Y-38143095D01*
X75461904Y-29591380D02*
X75461904Y-28591380D01*
X75700000Y-28591380D01*
X75842857Y-28639000D01*
X75938095Y-28734238D01*
X75985714Y-28829476D01*
X76033333Y-29019952D01*
X76033333Y-29162809D01*
X75985714Y-29353285D01*
X75938095Y-29448523D01*
X75842857Y-29543761D01*
X75700000Y-29591380D01*
X75461904Y-29591380D01*
X76938095Y-28591380D02*
X76461904Y-28591380D01*
X76414285Y-29067571D01*
X76461904Y-29019952D01*
X76557142Y-28972333D01*
X76795238Y-28972333D01*
X76890476Y-29019952D01*
X76938095Y-29067571D01*
X76985714Y-29162809D01*
X76985714Y-29400904D01*
X76938095Y-29496142D01*
X76890476Y-29543761D01*
X76795238Y-29591380D01*
X76557142Y-29591380D01*
X76461904Y-29543761D01*
X76414285Y-29496142D01*
X72335714Y-31491380D02*
X71764285Y-31491380D01*
X72050000Y-31491380D02*
X72050000Y-30491380D01*
X71954761Y-30634238D01*
X71859523Y-30729476D01*
X71764285Y-30777095D01*
X75461904Y-22479380D02*
X75461904Y-21479380D01*
X75700000Y-21479380D01*
X75842857Y-21527000D01*
X75938095Y-21622238D01*
X75985714Y-21717476D01*
X76033333Y-21907952D01*
X76033333Y-22050809D01*
X75985714Y-22241285D01*
X75938095Y-22336523D01*
X75842857Y-22431761D01*
X75700000Y-22479380D01*
X75461904Y-22479380D01*
X76890476Y-21479380D02*
X76700000Y-21479380D01*
X76604761Y-21527000D01*
X76557142Y-21574619D01*
X76461904Y-21717476D01*
X76414285Y-21907952D01*
X76414285Y-22288904D01*
X76461904Y-22384142D01*
X76509523Y-22431761D01*
X76604761Y-22479380D01*
X76795238Y-22479380D01*
X76890476Y-22431761D01*
X76938095Y-22384142D01*
X76985714Y-22288904D01*
X76985714Y-22050809D01*
X76938095Y-21955571D01*
X76890476Y-21907952D01*
X76795238Y-21860333D01*
X76604761Y-21860333D01*
X76509523Y-21907952D01*
X76461904Y-21955571D01*
X76414285Y-22050809D01*
X37512666Y-80657571D02*
X37179333Y-80657571D01*
X37179333Y-81181380D02*
X37179333Y-80181380D01*
X37655523Y-80181380D01*
X38560285Y-81181380D02*
X37988857Y-81181380D01*
X38274571Y-81181380D02*
X38274571Y-80181380D01*
X38179333Y-80324238D01*
X38084095Y-80419476D01*
X37988857Y-80467095D01*
X18781380Y-76279333D02*
X19495666Y-76279333D01*
X19638523Y-76326952D01*
X19733761Y-76422190D01*
X19781380Y-76565047D01*
X19781380Y-76660285D01*
X19781380Y-75279333D02*
X19781380Y-75850761D01*
X19781380Y-75565047D02*
X18781380Y-75565047D01*
X18924238Y-75660285D01*
X19019476Y-75755523D01*
X19067095Y-75850761D01*
X41116261Y-70501119D02*
X41021023Y-70453500D01*
X40925785Y-70358261D01*
X40782928Y-70215404D01*
X40687690Y-70167785D01*
X40592452Y-70167785D01*
X40640071Y-70405880D02*
X40544833Y-70358261D01*
X40449595Y-70263023D01*
X40401976Y-70072547D01*
X40401976Y-69739214D01*
X40449595Y-69548738D01*
X40544833Y-69453500D01*
X40640071Y-69405880D01*
X40830547Y-69405880D01*
X40925785Y-69453500D01*
X41021023Y-69548738D01*
X41068642Y-69739214D01*
X41068642Y-70072547D01*
X41021023Y-70263023D01*
X40925785Y-70358261D01*
X40830547Y-70405880D01*
X40640071Y-70405880D01*
X42021023Y-70405880D02*
X41449595Y-70405880D01*
X41735309Y-70405880D02*
X41735309Y-69405880D01*
X41640071Y-69548738D01*
X41544833Y-69643976D01*
X41449595Y-69691595D01*
X56681619Y-75660238D02*
X56634000Y-75755476D01*
X56538761Y-75850714D01*
X56395904Y-75993571D01*
X56348285Y-76088809D01*
X56348285Y-76184047D01*
X56586380Y-76136428D02*
X56538761Y-76231666D01*
X56443523Y-76326904D01*
X56253047Y-76374523D01*
X55919714Y-76374523D01*
X55729238Y-76326904D01*
X55634000Y-76231666D01*
X55586380Y-76136428D01*
X55586380Y-75945952D01*
X55634000Y-75850714D01*
X55729238Y-75755476D01*
X55919714Y-75707857D01*
X56253047Y-75707857D01*
X56443523Y-75755476D01*
X56538761Y-75850714D01*
X56586380Y-75945952D01*
X56586380Y-76136428D01*
X55681619Y-75326904D02*
X55634000Y-75279285D01*
X55586380Y-75184047D01*
X55586380Y-74945952D01*
X55634000Y-74850714D01*
X55681619Y-74803095D01*
X55776857Y-74755476D01*
X55872095Y-74755476D01*
X56014952Y-74803095D01*
X56586380Y-75374523D01*
X56586380Y-74755476D01*
X30638761Y-55832619D02*
X30543523Y-55785000D01*
X30448285Y-55689761D01*
X30305428Y-55546904D01*
X30210190Y-55499285D01*
X30114952Y-55499285D01*
X30162571Y-55737380D02*
X30067333Y-55689761D01*
X29972095Y-55594523D01*
X29924476Y-55404047D01*
X29924476Y-55070714D01*
X29972095Y-54880238D01*
X30067333Y-54785000D01*
X30162571Y-54737380D01*
X30353047Y-54737380D01*
X30448285Y-54785000D01*
X30543523Y-54880238D01*
X30591142Y-55070714D01*
X30591142Y-55404047D01*
X30543523Y-55594523D01*
X30448285Y-55689761D01*
X30353047Y-55737380D01*
X30162571Y-55737380D01*
X30924476Y-54737380D02*
X31543523Y-54737380D01*
X31210190Y-55118333D01*
X31353047Y-55118333D01*
X31448285Y-55165952D01*
X31495904Y-55213571D01*
X31543523Y-55308809D01*
X31543523Y-55546904D01*
X31495904Y-55642142D01*
X31448285Y-55689761D01*
X31353047Y-55737380D01*
X31067333Y-55737380D01*
X30972095Y-55689761D01*
X30924476Y-55642142D01*
X34702761Y-49990619D02*
X34607523Y-49943000D01*
X34512285Y-49847761D01*
X34369428Y-49704904D01*
X34274190Y-49657285D01*
X34178952Y-49657285D01*
X34226571Y-49895380D02*
X34131333Y-49847761D01*
X34036095Y-49752523D01*
X33988476Y-49562047D01*
X33988476Y-49228714D01*
X34036095Y-49038238D01*
X34131333Y-48943000D01*
X34226571Y-48895380D01*
X34417047Y-48895380D01*
X34512285Y-48943000D01*
X34607523Y-49038238D01*
X34655142Y-49228714D01*
X34655142Y-49562047D01*
X34607523Y-49752523D01*
X34512285Y-49847761D01*
X34417047Y-49895380D01*
X34226571Y-49895380D01*
X35512285Y-49228714D02*
X35512285Y-49895380D01*
X35274190Y-48847761D02*
X35036095Y-49562047D01*
X35655142Y-49562047D01*
X25558761Y-45084619D02*
X25463523Y-45037000D01*
X25368285Y-44941761D01*
X25225428Y-44798904D01*
X25130190Y-44751285D01*
X25034952Y-44751285D01*
X25082571Y-44989380D02*
X24987333Y-44941761D01*
X24892095Y-44846523D01*
X24844476Y-44656047D01*
X24844476Y-44322714D01*
X24892095Y-44132238D01*
X24987333Y-44037000D01*
X25082571Y-43989380D01*
X25273047Y-43989380D01*
X25368285Y-44037000D01*
X25463523Y-44132238D01*
X25511142Y-44322714D01*
X25511142Y-44656047D01*
X25463523Y-44846523D01*
X25368285Y-44941761D01*
X25273047Y-44989380D01*
X25082571Y-44989380D01*
X26415904Y-43989380D02*
X25939714Y-43989380D01*
X25892095Y-44465571D01*
X25939714Y-44417952D01*
X26034952Y-44370333D01*
X26273047Y-44370333D01*
X26368285Y-44417952D01*
X26415904Y-44465571D01*
X26463523Y-44560809D01*
X26463523Y-44798904D01*
X26415904Y-44894142D01*
X26368285Y-44941761D01*
X26273047Y-44989380D01*
X26034952Y-44989380D01*
X25939714Y-44941761D01*
X25892095Y-44894142D01*
X43760380Y-77001666D02*
X43284190Y-77335000D01*
X43760380Y-77573095D02*
X42760380Y-77573095D01*
X42760380Y-77192142D01*
X42808000Y-77096904D01*
X42855619Y-77049285D01*
X42950857Y-77001666D01*
X43093714Y-77001666D01*
X43188952Y-77049285D01*
X43236571Y-77096904D01*
X43284190Y-77192142D01*
X43284190Y-77573095D01*
X43760380Y-76049285D02*
X43760380Y-76620714D01*
X43760380Y-76335000D02*
X42760380Y-76335000D01*
X42903238Y-76430238D01*
X42998476Y-76525476D01*
X43046095Y-76620714D01*
X45743833Y-74555880D02*
X45410500Y-74079690D01*
X45172404Y-74555880D02*
X45172404Y-73555880D01*
X45553357Y-73555880D01*
X45648595Y-73603500D01*
X45696214Y-73651119D01*
X45743833Y-73746357D01*
X45743833Y-73889214D01*
X45696214Y-73984452D01*
X45648595Y-74032071D01*
X45553357Y-74079690D01*
X45172404Y-74079690D01*
X46124785Y-73651119D02*
X46172404Y-73603500D01*
X46267642Y-73555880D01*
X46505738Y-73555880D01*
X46600976Y-73603500D01*
X46648595Y-73651119D01*
X46696214Y-73746357D01*
X46696214Y-73841595D01*
X46648595Y-73984452D01*
X46077166Y-74555880D01*
X46696214Y-74555880D01*
X36345833Y-73603380D02*
X36012500Y-73127190D01*
X35774404Y-73603380D02*
X35774404Y-72603380D01*
X36155357Y-72603380D01*
X36250595Y-72651000D01*
X36298214Y-72698619D01*
X36345833Y-72793857D01*
X36345833Y-72936714D01*
X36298214Y-73031952D01*
X36250595Y-73079571D01*
X36155357Y-73127190D01*
X35774404Y-73127190D01*
X36679166Y-72603380D02*
X37298214Y-72603380D01*
X36964880Y-72984333D01*
X37107738Y-72984333D01*
X37202976Y-73031952D01*
X37250595Y-73079571D01*
X37298214Y-73174809D01*
X37298214Y-73412904D01*
X37250595Y-73508142D01*
X37202976Y-73555761D01*
X37107738Y-73603380D01*
X36822023Y-73603380D01*
X36726785Y-73555761D01*
X36679166Y-73508142D01*
X55940379Y-52144167D02*
X55464189Y-52477501D01*
X55940379Y-52715596D02*
X54940379Y-52715596D01*
X54940379Y-52334643D01*
X54987999Y-52239405D01*
X55035618Y-52191786D01*
X55130856Y-52144167D01*
X55273713Y-52144167D01*
X55368951Y-52191786D01*
X55416570Y-52239405D01*
X55464189Y-52334643D01*
X55464189Y-52715596D01*
X55273713Y-51287024D02*
X55940379Y-51287024D01*
X54892760Y-51525120D02*
X55607046Y-51763215D01*
X55607046Y-51144167D01*
X25472380Y-57873166D02*
X24996190Y-58206500D01*
X25472380Y-58444595D02*
X24472380Y-58444595D01*
X24472380Y-58063642D01*
X24520000Y-57968404D01*
X24567619Y-57920785D01*
X24662857Y-57873166D01*
X24805714Y-57873166D01*
X24900952Y-57920785D01*
X24948571Y-57968404D01*
X24996190Y-58063642D01*
X24996190Y-58444595D01*
X24472380Y-56968404D02*
X24472380Y-57444595D01*
X24948571Y-57492214D01*
X24900952Y-57444595D01*
X24853333Y-57349357D01*
X24853333Y-57111261D01*
X24900952Y-57016023D01*
X24948571Y-56968404D01*
X25043809Y-56920785D01*
X25281904Y-56920785D01*
X25377142Y-56968404D01*
X25424761Y-57016023D01*
X25472380Y-57111261D01*
X25472380Y-57349357D01*
X25424761Y-57444595D01*
X25377142Y-57492214D01*
X29805333Y-53283380D02*
X29472000Y-52807190D01*
X29233904Y-53283380D02*
X29233904Y-52283380D01*
X29614857Y-52283380D01*
X29710095Y-52331000D01*
X29757714Y-52378619D01*
X29805333Y-52473857D01*
X29805333Y-52616714D01*
X29757714Y-52711952D01*
X29710095Y-52759571D01*
X29614857Y-52807190D01*
X29233904Y-52807190D01*
X30662476Y-52283380D02*
X30472000Y-52283380D01*
X30376761Y-52331000D01*
X30329142Y-52378619D01*
X30233904Y-52521476D01*
X30186285Y-52711952D01*
X30186285Y-53092904D01*
X30233904Y-53188142D01*
X30281523Y-53235761D01*
X30376761Y-53283380D01*
X30567238Y-53283380D01*
X30662476Y-53235761D01*
X30710095Y-53188142D01*
X30757714Y-53092904D01*
X30757714Y-52854809D01*
X30710095Y-52759571D01*
X30662476Y-52711952D01*
X30567238Y-52664333D01*
X30376761Y-52664333D01*
X30281523Y-52711952D01*
X30233904Y-52759571D01*
X30186285Y-52854809D01*
X55188380Y-42203666D02*
X54712190Y-42537000D01*
X55188380Y-42775095D02*
X54188380Y-42775095D01*
X54188380Y-42394142D01*
X54236000Y-42298904D01*
X54283619Y-42251285D01*
X54378857Y-42203666D01*
X54521714Y-42203666D01*
X54616952Y-42251285D01*
X54664571Y-42298904D01*
X54712190Y-42394142D01*
X54712190Y-42775095D01*
X54188380Y-41870333D02*
X54188380Y-41203666D01*
X55188380Y-41632238D01*
X51671881Y-42580165D02*
X51195691Y-42913499D01*
X51671881Y-43151594D02*
X50671881Y-43151594D01*
X50671881Y-42770641D01*
X50719501Y-42675403D01*
X50767120Y-42627784D01*
X50862358Y-42580165D01*
X51005215Y-42580165D01*
X51100453Y-42627784D01*
X51148072Y-42675403D01*
X51195691Y-42770641D01*
X51195691Y-43151594D01*
X51100453Y-42008737D02*
X51052834Y-42103975D01*
X51005215Y-42151594D01*
X50909977Y-42199213D01*
X50862358Y-42199213D01*
X50767120Y-42151594D01*
X50719501Y-42103975D01*
X50671881Y-42008737D01*
X50671881Y-41818260D01*
X50719501Y-41723022D01*
X50767120Y-41675403D01*
X50862358Y-41627784D01*
X50909977Y-41627784D01*
X51005215Y-41675403D01*
X51052834Y-41723022D01*
X51100453Y-41818260D01*
X51100453Y-42008737D01*
X51148072Y-42103975D01*
X51195691Y-42151594D01*
X51290929Y-42199213D01*
X51481405Y-42199213D01*
X51576643Y-42151594D01*
X51624262Y-42103975D01*
X51671881Y-42008737D01*
X51671881Y-41818260D01*
X51624262Y-41723022D01*
X51576643Y-41675403D01*
X51481405Y-41627784D01*
X51290929Y-41627784D01*
X51195691Y-41675403D01*
X51148072Y-41723022D01*
X51100453Y-41818260D01*
X48839380Y-42506166D02*
X48363190Y-42839500D01*
X48839380Y-43077595D02*
X47839380Y-43077595D01*
X47839380Y-42696642D01*
X47887000Y-42601404D01*
X47934619Y-42553785D01*
X48029857Y-42506166D01*
X48172714Y-42506166D01*
X48267952Y-42553785D01*
X48315571Y-42601404D01*
X48363190Y-42696642D01*
X48363190Y-43077595D01*
X48839380Y-42029976D02*
X48839380Y-41839500D01*
X48791761Y-41744261D01*
X48744142Y-41696642D01*
X48601285Y-41601404D01*
X48410809Y-41553785D01*
X48029857Y-41553785D01*
X47934619Y-41601404D01*
X47887000Y-41649023D01*
X47839380Y-41744261D01*
X47839380Y-41934738D01*
X47887000Y-42029976D01*
X47934619Y-42077595D01*
X48029857Y-42125214D01*
X48267952Y-42125214D01*
X48363190Y-42077595D01*
X48410809Y-42029976D01*
X48458428Y-41934738D01*
X48458428Y-41744261D01*
X48410809Y-41649023D01*
X48363190Y-41601404D01*
X48267952Y-41553785D01*
X45790380Y-42679857D02*
X45314190Y-43013190D01*
X45790380Y-43251285D02*
X44790380Y-43251285D01*
X44790380Y-42870333D01*
X44838000Y-42775095D01*
X44885619Y-42727476D01*
X44980857Y-42679857D01*
X45123714Y-42679857D01*
X45218952Y-42727476D01*
X45266571Y-42775095D01*
X45314190Y-42870333D01*
X45314190Y-43251285D01*
X45790380Y-41727476D02*
X45790380Y-42298904D01*
X45790380Y-42013190D02*
X44790380Y-42013190D01*
X44933238Y-42108428D01*
X45028476Y-42203666D01*
X45076095Y-42298904D01*
X44790380Y-41108428D02*
X44790380Y-41013190D01*
X44838000Y-40917952D01*
X44885619Y-40870333D01*
X44980857Y-40822714D01*
X45171333Y-40775095D01*
X45409428Y-40775095D01*
X45599904Y-40822714D01*
X45695142Y-40870333D01*
X45742761Y-40917952D01*
X45790380Y-41013190D01*
X45790380Y-41108428D01*
X45742761Y-41203666D01*
X45695142Y-41251285D01*
X45599904Y-41298904D01*
X45409428Y-41346523D01*
X45171333Y-41346523D01*
X44980857Y-41298904D01*
X44885619Y-41251285D01*
X44838000Y-41203666D01*
X44790380Y-41108428D01*
X42234380Y-42679857D02*
X41758190Y-43013190D01*
X42234380Y-43251285D02*
X41234380Y-43251285D01*
X41234380Y-42870333D01*
X41282000Y-42775095D01*
X41329619Y-42727476D01*
X41424857Y-42679857D01*
X41567714Y-42679857D01*
X41662952Y-42727476D01*
X41710571Y-42775095D01*
X41758190Y-42870333D01*
X41758190Y-43251285D01*
X42234380Y-41727476D02*
X42234380Y-42298904D01*
X42234380Y-42013190D02*
X41234380Y-42013190D01*
X41377238Y-42108428D01*
X41472476Y-42203666D01*
X41520095Y-42298904D01*
X42234380Y-40775095D02*
X42234380Y-41346523D01*
X42234380Y-41060809D02*
X41234380Y-41060809D01*
X41377238Y-41156047D01*
X41472476Y-41251285D01*
X41520095Y-41346523D01*
X38932380Y-42679857D02*
X38456190Y-43013190D01*
X38932380Y-43251285D02*
X37932380Y-43251285D01*
X37932380Y-42870333D01*
X37980000Y-42775095D01*
X38027619Y-42727476D01*
X38122857Y-42679857D01*
X38265714Y-42679857D01*
X38360952Y-42727476D01*
X38408571Y-42775095D01*
X38456190Y-42870333D01*
X38456190Y-43251285D01*
X38932380Y-41727476D02*
X38932380Y-42298904D01*
X38932380Y-42013190D02*
X37932380Y-42013190D01*
X38075238Y-42108428D01*
X38170476Y-42203666D01*
X38218095Y-42298904D01*
X38027619Y-41346523D02*
X37980000Y-41298904D01*
X37932380Y-41203666D01*
X37932380Y-40965571D01*
X37980000Y-40870333D01*
X38027619Y-40822714D01*
X38122857Y-40775095D01*
X38218095Y-40775095D01*
X38360952Y-40822714D01*
X38932380Y-41394142D01*
X38932380Y-40775095D01*
X34742380Y-42679857D02*
X34266190Y-43013190D01*
X34742380Y-43251285D02*
X33742380Y-43251285D01*
X33742380Y-42870333D01*
X33790000Y-42775095D01*
X33837619Y-42727476D01*
X33932857Y-42679857D01*
X34075714Y-42679857D01*
X34170952Y-42727476D01*
X34218571Y-42775095D01*
X34266190Y-42870333D01*
X34266190Y-43251285D01*
X34742380Y-41727476D02*
X34742380Y-42298904D01*
X34742380Y-42013190D02*
X33742380Y-42013190D01*
X33885238Y-42108428D01*
X33980476Y-42203666D01*
X34028095Y-42298904D01*
X33742380Y-41394142D02*
X33742380Y-40775095D01*
X34123333Y-41108428D01*
X34123333Y-40965571D01*
X34170952Y-40870333D01*
X34218571Y-40822714D01*
X34313809Y-40775095D01*
X34551904Y-40775095D01*
X34647142Y-40822714D01*
X34694761Y-40870333D01*
X34742380Y-40965571D01*
X34742380Y-41251285D01*
X34694761Y-41346523D01*
X34647142Y-41394142D01*
X29154380Y-42679857D02*
X28678190Y-43013190D01*
X29154380Y-43251285D02*
X28154380Y-43251285D01*
X28154380Y-42870333D01*
X28202000Y-42775095D01*
X28249619Y-42727476D01*
X28344857Y-42679857D01*
X28487714Y-42679857D01*
X28582952Y-42727476D01*
X28630571Y-42775095D01*
X28678190Y-42870333D01*
X28678190Y-43251285D01*
X29154380Y-41727476D02*
X29154380Y-42298904D01*
X29154380Y-42013190D02*
X28154380Y-42013190D01*
X28297238Y-42108428D01*
X28392476Y-42203666D01*
X28440095Y-42298904D01*
X28487714Y-40870333D02*
X29154380Y-40870333D01*
X28106761Y-41108428D02*
X28821047Y-41346523D01*
X28821047Y-40727476D01*
X18058380Y-37718904D02*
X18867904Y-37718904D01*
X18963142Y-37671285D01*
X19010761Y-37623666D01*
X19058380Y-37528428D01*
X19058380Y-37337952D01*
X19010761Y-37242714D01*
X18963142Y-37195095D01*
X18867904Y-37147476D01*
X18058380Y-37147476D01*
X19058380Y-36147476D02*
X19058380Y-36718904D01*
X19058380Y-36433190D02*
X18058380Y-36433190D01*
X18201238Y-36528428D01*
X18296476Y-36623666D01*
X18344095Y-36718904D01*
X62484095Y-65413380D02*
X62484095Y-66222904D01*
X62531714Y-66318142D01*
X62579333Y-66365761D01*
X62674571Y-66413380D01*
X62865047Y-66413380D01*
X62960285Y-66365761D01*
X63007904Y-66318142D01*
X63055523Y-66222904D01*
X63055523Y-65413380D01*
X63484095Y-65508619D02*
X63531714Y-65461000D01*
X63626952Y-65413380D01*
X63865047Y-65413380D01*
X63960285Y-65461000D01*
X64007904Y-65508619D01*
X64055523Y-65603857D01*
X64055523Y-65699095D01*
X64007904Y-65841952D01*
X63436476Y-66413380D01*
X64055523Y-66413380D01*
X58293095Y-20302380D02*
X58293095Y-21111904D01*
X58340714Y-21207142D01*
X58388333Y-21254761D01*
X58483571Y-21302380D01*
X58674047Y-21302380D01*
X58769285Y-21254761D01*
X58816904Y-21207142D01*
X58864523Y-21111904D01*
X58864523Y-20302380D01*
X59245476Y-20302380D02*
X59864523Y-20302380D01*
X59531190Y-20683333D01*
X59674047Y-20683333D01*
X59769285Y-20730952D01*
X59816904Y-20778571D01*
X59864523Y-20873809D01*
X59864523Y-21111904D01*
X59816904Y-21207142D01*
X59769285Y-21254761D01*
X59674047Y-21302380D01*
X59388333Y-21302380D01*
X59293095Y-21254761D01*
X59245476Y-21207142D01*
X73342666Y-64738761D02*
X73485523Y-64786380D01*
X73723619Y-64786380D01*
X73818857Y-64738761D01*
X73866476Y-64691142D01*
X73914095Y-64595904D01*
X73914095Y-64500666D01*
X73866476Y-64405428D01*
X73818857Y-64357809D01*
X73723619Y-64310190D01*
X73533142Y-64262571D01*
X73437904Y-64214952D01*
X73390285Y-64167333D01*
X73342666Y-64072095D01*
X73342666Y-63976857D01*
X73390285Y-63881619D01*
X73437904Y-63834000D01*
X73533142Y-63786380D01*
X73771238Y-63786380D01*
X73914095Y-63834000D01*
X74247428Y-63786380D02*
X74485523Y-64786380D01*
X74676000Y-64072095D01*
X74866476Y-64786380D01*
X75104571Y-63786380D01*
X76009333Y-64786380D02*
X75437904Y-64786380D01*
X75723619Y-64786380D02*
X75723619Y-63786380D01*
X75628380Y-63929238D01*
X75533142Y-64024476D01*
X75437904Y-64072095D01*
X69683333Y-40615142D02*
X69635714Y-40662761D01*
X69492857Y-40710380D01*
X69397619Y-40710380D01*
X69254761Y-40662761D01*
X69159523Y-40567523D01*
X69111904Y-40472285D01*
X69064285Y-40281809D01*
X69064285Y-40138952D01*
X69111904Y-39948476D01*
X69159523Y-39853238D01*
X69254761Y-39758000D01*
X69397619Y-39710380D01*
X69492857Y-39710380D01*
X69635714Y-39758000D01*
X69683333Y-39805619D01*
X70016666Y-39710380D02*
X70683333Y-39710380D01*
X70254761Y-40710380D01*
X69683333Y-47981142D02*
X69635714Y-48028761D01*
X69492857Y-48076380D01*
X69397619Y-48076380D01*
X69254761Y-48028761D01*
X69159523Y-47933523D01*
X69111904Y-47838285D01*
X69064285Y-47647809D01*
X69064285Y-47504952D01*
X69111904Y-47314476D01*
X69159523Y-47219238D01*
X69254761Y-47124000D01*
X69397619Y-47076380D01*
X69492857Y-47076380D01*
X69635714Y-47124000D01*
X69683333Y-47171619D01*
X70254761Y-47504952D02*
X70159523Y-47457333D01*
X70111904Y-47409714D01*
X70064285Y-47314476D01*
X70064285Y-47266857D01*
X70111904Y-47171619D01*
X70159523Y-47124000D01*
X70254761Y-47076380D01*
X70445238Y-47076380D01*
X70540476Y-47124000D01*
X70588095Y-47171619D01*
X70635714Y-47266857D01*
X70635714Y-47314476D01*
X70588095Y-47409714D01*
X70540476Y-47457333D01*
X70445238Y-47504952D01*
X70254761Y-47504952D01*
X70159523Y-47552571D01*
X70111904Y-47600190D01*
X70064285Y-47695428D01*
X70064285Y-47885904D01*
X70111904Y-47981142D01*
X70159523Y-48028761D01*
X70254761Y-48076380D01*
X70445238Y-48076380D01*
X70540476Y-48028761D01*
X70588095Y-47981142D01*
X70635714Y-47885904D01*
X70635714Y-47695428D01*
X70588095Y-47600190D01*
X70540476Y-47552571D01*
X70445238Y-47504952D01*
X69683333Y-26137142D02*
X69635714Y-26184761D01*
X69492857Y-26232380D01*
X69397619Y-26232380D01*
X69254761Y-26184761D01*
X69159523Y-26089523D01*
X69111904Y-25994285D01*
X69064285Y-25803809D01*
X69064285Y-25660952D01*
X69111904Y-25470476D01*
X69159523Y-25375238D01*
X69254761Y-25280000D01*
X69397619Y-25232380D01*
X69492857Y-25232380D01*
X69635714Y-25280000D01*
X69683333Y-25327619D01*
X70159523Y-26232380D02*
X70350000Y-26232380D01*
X70445238Y-26184761D01*
X70492857Y-26137142D01*
X70588095Y-25994285D01*
X70635714Y-25803809D01*
X70635714Y-25422857D01*
X70588095Y-25327619D01*
X70540476Y-25280000D01*
X70445238Y-25232380D01*
X70254761Y-25232380D01*
X70159523Y-25280000D01*
X70111904Y-25327619D01*
X70064285Y-25422857D01*
X70064285Y-25660952D01*
X70111904Y-25756190D01*
X70159523Y-25803809D01*
X70254761Y-25851428D01*
X70445238Y-25851428D01*
X70540476Y-25803809D01*
X70588095Y-25756190D01*
X70635714Y-25660952D01*
X69207142Y-33249142D02*
X69159523Y-33296761D01*
X69016666Y-33344380D01*
X68921428Y-33344380D01*
X68778571Y-33296761D01*
X68683333Y-33201523D01*
X68635714Y-33106285D01*
X68588095Y-32915809D01*
X68588095Y-32772952D01*
X68635714Y-32582476D01*
X68683333Y-32487238D01*
X68778571Y-32392000D01*
X68921428Y-32344380D01*
X69016666Y-32344380D01*
X69159523Y-32392000D01*
X69207142Y-32439619D01*
X70159523Y-33344380D02*
X69588095Y-33344380D01*
X69873809Y-33344380D02*
X69873809Y-32344380D01*
X69778571Y-32487238D01*
X69683333Y-32582476D01*
X69588095Y-32630095D01*
X70778571Y-32344380D02*
X70873809Y-32344380D01*
X70969047Y-32392000D01*
X71016666Y-32439619D01*
X71064285Y-32534857D01*
X71111904Y-32725333D01*
X71111904Y-32963428D01*
X71064285Y-33153904D01*
X71016666Y-33249142D01*
X70969047Y-33296761D01*
X70873809Y-33344380D01*
X70778571Y-33344380D01*
X70683333Y-33296761D01*
X70635714Y-33249142D01*
X70588095Y-33153904D01*
X70540476Y-32963428D01*
X70540476Y-32725333D01*
X70588095Y-32534857D01*
X70635714Y-32439619D01*
X70683333Y-32392000D01*
X70778571Y-32344380D01*
M02*
