G04 #@! TF.GenerationSoftware,KiCad,Pcbnew,(5.1.5)-3*
G04 #@! TF.CreationDate,2020-04-27T21:57:51+02:00*
G04 #@! TF.ProjectId,czujnikParkowania,637a756a-6e69-46b5-9061-726b6f77616e,rev?*
G04 #@! TF.SameCoordinates,Original*
G04 #@! TF.FileFunction,Soldermask,Bot*
G04 #@! TF.FilePolarity,Negative*
%FSLAX46Y46*%
G04 Gerber Fmt 4.6, Leading zero omitted, Abs format (unit mm)*
G04 Created by KiCad (PCBNEW (5.1.5)-3) date 2020-04-27 21:57:51*
%MOMM*%
%LPD*%
G04 APERTURE LIST*
%ADD10C,0.100000*%
G04 APERTURE END LIST*
D10*
G36*
X54237000Y-85606000D02*
G01*
X51935000Y-85606000D01*
X51935000Y-83304000D01*
X54237000Y-83304000D01*
X54237000Y-85606000D01*
G37*
G36*
X43150549Y-83326116D02*
G01*
X43261734Y-83348232D01*
X43471203Y-83434997D01*
X43659720Y-83560960D01*
X43820040Y-83721280D01*
X43946003Y-83909797D01*
X44032768Y-84119266D01*
X44077000Y-84341636D01*
X44077000Y-84568364D01*
X44032768Y-84790734D01*
X43946003Y-85000203D01*
X43820040Y-85188720D01*
X43659720Y-85349040D01*
X43471203Y-85475003D01*
X43261734Y-85561768D01*
X43150549Y-85583884D01*
X43039365Y-85606000D01*
X42812635Y-85606000D01*
X42701451Y-85583884D01*
X42590266Y-85561768D01*
X42380797Y-85475003D01*
X42192280Y-85349040D01*
X42031960Y-85188720D01*
X41905997Y-85000203D01*
X41819232Y-84790734D01*
X41775000Y-84568364D01*
X41775000Y-84341636D01*
X41819232Y-84119266D01*
X41905997Y-83909797D01*
X42031960Y-83721280D01*
X42192280Y-83560960D01*
X42380797Y-83434997D01*
X42590266Y-83348232D01*
X42701451Y-83326116D01*
X42812635Y-83304000D01*
X43039365Y-83304000D01*
X43150549Y-83326116D01*
G37*
G36*
X30180000Y-84409000D02*
G01*
X27478000Y-84409000D01*
X27478000Y-81707000D01*
X30180000Y-81707000D01*
X30180000Y-84409000D01*
G37*
G36*
X75686228Y-79659703D02*
G01*
X75841100Y-79723853D01*
X75980481Y-79816985D01*
X76099015Y-79935519D01*
X76192147Y-80074900D01*
X76256297Y-80229772D01*
X76289000Y-80394184D01*
X76289000Y-80561816D01*
X76256297Y-80726228D01*
X76192147Y-80881100D01*
X76099015Y-81020481D01*
X75980481Y-81139015D01*
X75841100Y-81232147D01*
X75686228Y-81296297D01*
X75521816Y-81329000D01*
X75354184Y-81329000D01*
X75189772Y-81296297D01*
X75034900Y-81232147D01*
X74895519Y-81139015D01*
X74776985Y-81020481D01*
X74683853Y-80881100D01*
X74619703Y-80726228D01*
X74587000Y-80561816D01*
X74587000Y-80394184D01*
X74619703Y-80229772D01*
X74683853Y-80074900D01*
X74776985Y-79935519D01*
X74895519Y-79816985D01*
X75034900Y-79723853D01*
X75189772Y-79659703D01*
X75354184Y-79627000D01*
X75521816Y-79627000D01*
X75686228Y-79659703D01*
G37*
G36*
X43174228Y-79572703D02*
G01*
X43329100Y-79636853D01*
X43468481Y-79729985D01*
X43587015Y-79848519D01*
X43680147Y-79987900D01*
X43744297Y-80142772D01*
X43777000Y-80307184D01*
X43777000Y-80474816D01*
X43744297Y-80639228D01*
X43680147Y-80794100D01*
X43587015Y-80933481D01*
X43468481Y-81052015D01*
X43329100Y-81145147D01*
X43174228Y-81209297D01*
X43009816Y-81242000D01*
X42842184Y-81242000D01*
X42677772Y-81209297D01*
X42522900Y-81145147D01*
X42383519Y-81052015D01*
X42264985Y-80933481D01*
X42171853Y-80794100D01*
X42107703Y-80639228D01*
X42075000Y-80474816D01*
X42075000Y-80307184D01*
X42107703Y-80142772D01*
X42171853Y-79987900D01*
X42264985Y-79848519D01*
X42383519Y-79729985D01*
X42522900Y-79636853D01*
X42677772Y-79572703D01*
X42842184Y-79540000D01*
X43009816Y-79540000D01*
X43174228Y-79572703D01*
G37*
G36*
X38094228Y-79572703D02*
G01*
X38249100Y-79636853D01*
X38388481Y-79729985D01*
X38507015Y-79848519D01*
X38600147Y-79987900D01*
X38664297Y-80142772D01*
X38697000Y-80307184D01*
X38697000Y-80474816D01*
X38664297Y-80639228D01*
X38600147Y-80794100D01*
X38507015Y-80933481D01*
X38388481Y-81052015D01*
X38249100Y-81145147D01*
X38094228Y-81209297D01*
X37929816Y-81242000D01*
X37762184Y-81242000D01*
X37597772Y-81209297D01*
X37442900Y-81145147D01*
X37303519Y-81052015D01*
X37184985Y-80933481D01*
X37091853Y-80794100D01*
X37027703Y-80639228D01*
X36995000Y-80474816D01*
X36995000Y-80307184D01*
X37027703Y-80142772D01*
X37091853Y-79987900D01*
X37184985Y-79848519D01*
X37303519Y-79729985D01*
X37442900Y-79636853D01*
X37597772Y-79572703D01*
X37762184Y-79540000D01*
X37929816Y-79540000D01*
X38094228Y-79572703D01*
G37*
G36*
X62224228Y-79032703D02*
G01*
X62379100Y-79096853D01*
X62518481Y-79189985D01*
X62637015Y-79308519D01*
X62730147Y-79447900D01*
X62794297Y-79602772D01*
X62827000Y-79767184D01*
X62827000Y-79934816D01*
X62794297Y-80099228D01*
X62730147Y-80254100D01*
X62637015Y-80393481D01*
X62518481Y-80512015D01*
X62379100Y-80605147D01*
X62224228Y-80669297D01*
X62059816Y-80702000D01*
X61892184Y-80702000D01*
X61727772Y-80669297D01*
X61572900Y-80605147D01*
X61433519Y-80512015D01*
X61314985Y-80393481D01*
X61221853Y-80254100D01*
X61157703Y-80099228D01*
X61125000Y-79934816D01*
X61125000Y-79767184D01*
X61157703Y-79602772D01*
X61221853Y-79447900D01*
X61314985Y-79308519D01*
X61433519Y-79189985D01*
X61572900Y-79096853D01*
X61727772Y-79032703D01*
X61892184Y-79000000D01*
X62059816Y-79000000D01*
X62224228Y-79032703D01*
G37*
G36*
X29223072Y-76678918D02*
G01*
X29468939Y-76780759D01*
X29580328Y-76855187D01*
X29690211Y-76928609D01*
X29878391Y-77116789D01*
X30026242Y-77338063D01*
X30128082Y-77583928D01*
X30180000Y-77844937D01*
X30180000Y-78111063D01*
X30128082Y-78372072D01*
X30026242Y-78617937D01*
X29885214Y-78829000D01*
X29878390Y-78839212D01*
X29690212Y-79027390D01*
X29468939Y-79175241D01*
X29468938Y-79175242D01*
X29468937Y-79175242D01*
X29223072Y-79277082D01*
X28962063Y-79329000D01*
X28695937Y-79329000D01*
X28434928Y-79277082D01*
X28189063Y-79175242D01*
X28189062Y-79175242D01*
X28189061Y-79175241D01*
X27967788Y-79027390D01*
X27779610Y-78839212D01*
X27772787Y-78829000D01*
X27631758Y-78617937D01*
X27529918Y-78372072D01*
X27478000Y-78111063D01*
X27478000Y-77844937D01*
X27529918Y-77583928D01*
X27631758Y-77338063D01*
X27779609Y-77116789D01*
X27967789Y-76928609D01*
X28077672Y-76855187D01*
X28189061Y-76780759D01*
X28434928Y-76678918D01*
X28695937Y-76627000D01*
X28962063Y-76627000D01*
X29223072Y-76678918D01*
G37*
G36*
X76289000Y-78829000D02*
G01*
X74587000Y-78829000D01*
X74587000Y-77127000D01*
X76289000Y-77127000D01*
X76289000Y-78829000D01*
G37*
G36*
X62827000Y-78702000D02*
G01*
X61125000Y-78702000D01*
X61125000Y-77000000D01*
X62827000Y-77000000D01*
X62827000Y-78702000D01*
G37*
G36*
X29223072Y-71598918D02*
G01*
X29468939Y-71700759D01*
X29580328Y-71775187D01*
X29690211Y-71848609D01*
X29878391Y-72036789D01*
X30026242Y-72258063D01*
X30128082Y-72503928D01*
X30180000Y-72764938D01*
X30180000Y-73031062D01*
X30128082Y-73292072D01*
X30026241Y-73537939D01*
X29878390Y-73759212D01*
X29690212Y-73947390D01*
X29468939Y-74095241D01*
X29468938Y-74095242D01*
X29468937Y-74095242D01*
X29223072Y-74197082D01*
X28962063Y-74249000D01*
X28695937Y-74249000D01*
X28434928Y-74197082D01*
X28189063Y-74095242D01*
X28189062Y-74095242D01*
X28189061Y-74095241D01*
X27967788Y-73947390D01*
X27779610Y-73759212D01*
X27631759Y-73537939D01*
X27529918Y-73292072D01*
X27478000Y-73031062D01*
X27478000Y-72764938D01*
X27529918Y-72503928D01*
X27631758Y-72258063D01*
X27779609Y-72036789D01*
X27967789Y-71848609D01*
X28077672Y-71775187D01*
X28189061Y-71700759D01*
X28434928Y-71598918D01*
X28695937Y-71547000D01*
X28962063Y-71547000D01*
X29223072Y-71598918D01*
G37*
G36*
X65982719Y-71226520D02*
G01*
X66171880Y-71283901D01*
X66171883Y-71283902D01*
X66264333Y-71333318D01*
X66346212Y-71377083D01*
X66499015Y-71502485D01*
X66624417Y-71655288D01*
X66717599Y-71829619D01*
X66774980Y-72018780D01*
X66789500Y-72166206D01*
X66789500Y-72359793D01*
X66774980Y-72507219D01*
X66717599Y-72696380D01*
X66717598Y-72696383D01*
X66680955Y-72764937D01*
X66624417Y-72870712D01*
X66499015Y-73023515D01*
X66346212Y-73148917D01*
X66171881Y-73242099D01*
X65982720Y-73299480D01*
X65786000Y-73318855D01*
X65589281Y-73299480D01*
X65400120Y-73242099D01*
X65225788Y-73148917D01*
X65072985Y-73023515D01*
X64947583Y-72870712D01*
X64854401Y-72696381D01*
X64797020Y-72507220D01*
X64782500Y-72359794D01*
X64782500Y-72166207D01*
X64797020Y-72018781D01*
X64854401Y-71829620D01*
X64854402Y-71829617D01*
X64903818Y-71737167D01*
X64947583Y-71655288D01*
X65072985Y-71502485D01*
X65225788Y-71377083D01*
X65400119Y-71283901D01*
X65589280Y-71226520D01*
X65786000Y-71207145D01*
X65982719Y-71226520D01*
G37*
G36*
X68522719Y-71226520D02*
G01*
X68711880Y-71283901D01*
X68711883Y-71283902D01*
X68804333Y-71333318D01*
X68886212Y-71377083D01*
X69039015Y-71502485D01*
X69164417Y-71655288D01*
X69257599Y-71829619D01*
X69314980Y-72018780D01*
X69329500Y-72166206D01*
X69329500Y-72359793D01*
X69314980Y-72507219D01*
X69257599Y-72696380D01*
X69257598Y-72696383D01*
X69220955Y-72764937D01*
X69164417Y-72870712D01*
X69039015Y-73023515D01*
X68886212Y-73148917D01*
X68711881Y-73242099D01*
X68522720Y-73299480D01*
X68326000Y-73318855D01*
X68129281Y-73299480D01*
X67940120Y-73242099D01*
X67765788Y-73148917D01*
X67612985Y-73023515D01*
X67487583Y-72870712D01*
X67394401Y-72696381D01*
X67337020Y-72507220D01*
X67322500Y-72359794D01*
X67322500Y-72166207D01*
X67337020Y-72018781D01*
X67394401Y-71829620D01*
X67394402Y-71829617D01*
X67443818Y-71737167D01*
X67487583Y-71655288D01*
X67612985Y-71502485D01*
X67765788Y-71377083D01*
X67940119Y-71283901D01*
X68129280Y-71226520D01*
X68326000Y-71207145D01*
X68522719Y-71226520D01*
G37*
G36*
X64249500Y-73314000D02*
G01*
X62242500Y-73314000D01*
X62242500Y-71212000D01*
X64249500Y-71212000D01*
X64249500Y-73314000D01*
G37*
G36*
X62414728Y-63761203D02*
G01*
X62569600Y-63825353D01*
X62708981Y-63918485D01*
X62827515Y-64037019D01*
X62920647Y-64176400D01*
X62984797Y-64331272D01*
X63017500Y-64495684D01*
X63017500Y-64663316D01*
X62984797Y-64827728D01*
X62920647Y-64982600D01*
X62827515Y-65121981D01*
X62708981Y-65240515D01*
X62569600Y-65333647D01*
X62414728Y-65397797D01*
X62250316Y-65430500D01*
X62082684Y-65430500D01*
X61918272Y-65397797D01*
X61763400Y-65333647D01*
X61624019Y-65240515D01*
X61505485Y-65121981D01*
X61412353Y-64982600D01*
X61348203Y-64827728D01*
X61315500Y-64663316D01*
X61315500Y-64495684D01*
X61348203Y-64331272D01*
X61412353Y-64176400D01*
X61505485Y-64037019D01*
X61624019Y-63918485D01*
X61763400Y-63825353D01*
X61918272Y-63761203D01*
X62082684Y-63728500D01*
X62250316Y-63728500D01*
X62414728Y-63761203D01*
G37*
G36*
X52254728Y-63761203D02*
G01*
X52409600Y-63825353D01*
X52548981Y-63918485D01*
X52667515Y-64037019D01*
X52760647Y-64176400D01*
X52824797Y-64331272D01*
X52857500Y-64495684D01*
X52857500Y-64663316D01*
X52824797Y-64827728D01*
X52760647Y-64982600D01*
X52667515Y-65121981D01*
X52548981Y-65240515D01*
X52409600Y-65333647D01*
X52254728Y-65397797D01*
X52090316Y-65430500D01*
X51922684Y-65430500D01*
X51758272Y-65397797D01*
X51603400Y-65333647D01*
X51464019Y-65240515D01*
X51345485Y-65121981D01*
X51252353Y-64982600D01*
X51188203Y-64827728D01*
X51155500Y-64663316D01*
X51155500Y-64495684D01*
X51188203Y-64331272D01*
X51252353Y-64176400D01*
X51345485Y-64037019D01*
X51464019Y-63918485D01*
X51603400Y-63825353D01*
X51758272Y-63761203D01*
X51922684Y-63728500D01*
X52090316Y-63728500D01*
X52254728Y-63761203D01*
G37*
G36*
X49714728Y-63761203D02*
G01*
X49869600Y-63825353D01*
X50008981Y-63918485D01*
X50127515Y-64037019D01*
X50220647Y-64176400D01*
X50284797Y-64331272D01*
X50317500Y-64495684D01*
X50317500Y-64663316D01*
X50284797Y-64827728D01*
X50220647Y-64982600D01*
X50127515Y-65121981D01*
X50008981Y-65240515D01*
X49869600Y-65333647D01*
X49714728Y-65397797D01*
X49550316Y-65430500D01*
X49382684Y-65430500D01*
X49218272Y-65397797D01*
X49063400Y-65333647D01*
X48924019Y-65240515D01*
X48805485Y-65121981D01*
X48712353Y-64982600D01*
X48648203Y-64827728D01*
X48615500Y-64663316D01*
X48615500Y-64495684D01*
X48648203Y-64331272D01*
X48712353Y-64176400D01*
X48805485Y-64037019D01*
X48924019Y-63918485D01*
X49063400Y-63825353D01*
X49218272Y-63761203D01*
X49382684Y-63728500D01*
X49550316Y-63728500D01*
X49714728Y-63761203D01*
G37*
G36*
X47174728Y-63761203D02*
G01*
X47329600Y-63825353D01*
X47468981Y-63918485D01*
X47587515Y-64037019D01*
X47680647Y-64176400D01*
X47744797Y-64331272D01*
X47777500Y-64495684D01*
X47777500Y-64663316D01*
X47744797Y-64827728D01*
X47680647Y-64982600D01*
X47587515Y-65121981D01*
X47468981Y-65240515D01*
X47329600Y-65333647D01*
X47174728Y-65397797D01*
X47010316Y-65430500D01*
X46842684Y-65430500D01*
X46678272Y-65397797D01*
X46523400Y-65333647D01*
X46384019Y-65240515D01*
X46265485Y-65121981D01*
X46172353Y-64982600D01*
X46108203Y-64827728D01*
X46075500Y-64663316D01*
X46075500Y-64495684D01*
X46108203Y-64331272D01*
X46172353Y-64176400D01*
X46265485Y-64037019D01*
X46384019Y-63918485D01*
X46523400Y-63825353D01*
X46678272Y-63761203D01*
X46842684Y-63728500D01*
X47010316Y-63728500D01*
X47174728Y-63761203D01*
G37*
G36*
X44634728Y-63761203D02*
G01*
X44789600Y-63825353D01*
X44928981Y-63918485D01*
X45047515Y-64037019D01*
X45140647Y-64176400D01*
X45204797Y-64331272D01*
X45237500Y-64495684D01*
X45237500Y-64663316D01*
X45204797Y-64827728D01*
X45140647Y-64982600D01*
X45047515Y-65121981D01*
X44928981Y-65240515D01*
X44789600Y-65333647D01*
X44634728Y-65397797D01*
X44470316Y-65430500D01*
X44302684Y-65430500D01*
X44138272Y-65397797D01*
X43983400Y-65333647D01*
X43844019Y-65240515D01*
X43725485Y-65121981D01*
X43632353Y-64982600D01*
X43568203Y-64827728D01*
X43535500Y-64663316D01*
X43535500Y-64495684D01*
X43568203Y-64331272D01*
X43632353Y-64176400D01*
X43725485Y-64037019D01*
X43844019Y-63918485D01*
X43983400Y-63825353D01*
X44138272Y-63761203D01*
X44302684Y-63728500D01*
X44470316Y-63728500D01*
X44634728Y-63761203D01*
G37*
G36*
X42094728Y-63761203D02*
G01*
X42249600Y-63825353D01*
X42388981Y-63918485D01*
X42507515Y-64037019D01*
X42600647Y-64176400D01*
X42664797Y-64331272D01*
X42697500Y-64495684D01*
X42697500Y-64663316D01*
X42664797Y-64827728D01*
X42600647Y-64982600D01*
X42507515Y-65121981D01*
X42388981Y-65240515D01*
X42249600Y-65333647D01*
X42094728Y-65397797D01*
X41930316Y-65430500D01*
X41762684Y-65430500D01*
X41598272Y-65397797D01*
X41443400Y-65333647D01*
X41304019Y-65240515D01*
X41185485Y-65121981D01*
X41092353Y-64982600D01*
X41028203Y-64827728D01*
X40995500Y-64663316D01*
X40995500Y-64495684D01*
X41028203Y-64331272D01*
X41092353Y-64176400D01*
X41185485Y-64037019D01*
X41304019Y-63918485D01*
X41443400Y-63825353D01*
X41598272Y-63761203D01*
X41762684Y-63728500D01*
X41930316Y-63728500D01*
X42094728Y-63761203D01*
G37*
G36*
X39554728Y-63761203D02*
G01*
X39709600Y-63825353D01*
X39848981Y-63918485D01*
X39967515Y-64037019D01*
X40060647Y-64176400D01*
X40124797Y-64331272D01*
X40157500Y-64495684D01*
X40157500Y-64663316D01*
X40124797Y-64827728D01*
X40060647Y-64982600D01*
X39967515Y-65121981D01*
X39848981Y-65240515D01*
X39709600Y-65333647D01*
X39554728Y-65397797D01*
X39390316Y-65430500D01*
X39222684Y-65430500D01*
X39058272Y-65397797D01*
X38903400Y-65333647D01*
X38764019Y-65240515D01*
X38645485Y-65121981D01*
X38552353Y-64982600D01*
X38488203Y-64827728D01*
X38455500Y-64663316D01*
X38455500Y-64495684D01*
X38488203Y-64331272D01*
X38552353Y-64176400D01*
X38645485Y-64037019D01*
X38764019Y-63918485D01*
X38903400Y-63825353D01*
X39058272Y-63761203D01*
X39222684Y-63728500D01*
X39390316Y-63728500D01*
X39554728Y-63761203D01*
G37*
G36*
X37014728Y-63761203D02*
G01*
X37169600Y-63825353D01*
X37308981Y-63918485D01*
X37427515Y-64037019D01*
X37520647Y-64176400D01*
X37584797Y-64331272D01*
X37617500Y-64495684D01*
X37617500Y-64663316D01*
X37584797Y-64827728D01*
X37520647Y-64982600D01*
X37427515Y-65121981D01*
X37308981Y-65240515D01*
X37169600Y-65333647D01*
X37014728Y-65397797D01*
X36850316Y-65430500D01*
X36682684Y-65430500D01*
X36518272Y-65397797D01*
X36363400Y-65333647D01*
X36224019Y-65240515D01*
X36105485Y-65121981D01*
X36012353Y-64982600D01*
X35948203Y-64827728D01*
X35915500Y-64663316D01*
X35915500Y-64495684D01*
X35948203Y-64331272D01*
X36012353Y-64176400D01*
X36105485Y-64037019D01*
X36224019Y-63918485D01*
X36363400Y-63825353D01*
X36518272Y-63761203D01*
X36682684Y-63728500D01*
X36850316Y-63728500D01*
X37014728Y-63761203D01*
G37*
G36*
X31934728Y-63761203D02*
G01*
X32089600Y-63825353D01*
X32228981Y-63918485D01*
X32347515Y-64037019D01*
X32440647Y-64176400D01*
X32504797Y-64331272D01*
X32537500Y-64495684D01*
X32537500Y-64663316D01*
X32504797Y-64827728D01*
X32440647Y-64982600D01*
X32347515Y-65121981D01*
X32228981Y-65240515D01*
X32089600Y-65333647D01*
X31934728Y-65397797D01*
X31770316Y-65430500D01*
X31602684Y-65430500D01*
X31438272Y-65397797D01*
X31283400Y-65333647D01*
X31144019Y-65240515D01*
X31025485Y-65121981D01*
X30932353Y-64982600D01*
X30868203Y-64827728D01*
X30835500Y-64663316D01*
X30835500Y-64495684D01*
X30868203Y-64331272D01*
X30932353Y-64176400D01*
X31025485Y-64037019D01*
X31144019Y-63918485D01*
X31283400Y-63825353D01*
X31438272Y-63761203D01*
X31602684Y-63728500D01*
X31770316Y-63728500D01*
X31934728Y-63761203D01*
G37*
G36*
X34474728Y-63761203D02*
G01*
X34629600Y-63825353D01*
X34768981Y-63918485D01*
X34887515Y-64037019D01*
X34980647Y-64176400D01*
X35044797Y-64331272D01*
X35077500Y-64495684D01*
X35077500Y-64663316D01*
X35044797Y-64827728D01*
X34980647Y-64982600D01*
X34887515Y-65121981D01*
X34768981Y-65240515D01*
X34629600Y-65333647D01*
X34474728Y-65397797D01*
X34310316Y-65430500D01*
X34142684Y-65430500D01*
X33978272Y-65397797D01*
X33823400Y-65333647D01*
X33684019Y-65240515D01*
X33565485Y-65121981D01*
X33472353Y-64982600D01*
X33408203Y-64827728D01*
X33375500Y-64663316D01*
X33375500Y-64495684D01*
X33408203Y-64331272D01*
X33472353Y-64176400D01*
X33565485Y-64037019D01*
X33684019Y-63918485D01*
X33823400Y-63825353D01*
X33978272Y-63761203D01*
X34142684Y-63728500D01*
X34310316Y-63728500D01*
X34474728Y-63761203D01*
G37*
G36*
X59874728Y-63761203D02*
G01*
X60029600Y-63825353D01*
X60168981Y-63918485D01*
X60287515Y-64037019D01*
X60380647Y-64176400D01*
X60444797Y-64331272D01*
X60477500Y-64495684D01*
X60477500Y-64663316D01*
X60444797Y-64827728D01*
X60380647Y-64982600D01*
X60287515Y-65121981D01*
X60168981Y-65240515D01*
X60029600Y-65333647D01*
X59874728Y-65397797D01*
X59710316Y-65430500D01*
X59542684Y-65430500D01*
X59378272Y-65397797D01*
X59223400Y-65333647D01*
X59084019Y-65240515D01*
X58965485Y-65121981D01*
X58872353Y-64982600D01*
X58808203Y-64827728D01*
X58775500Y-64663316D01*
X58775500Y-64495684D01*
X58808203Y-64331272D01*
X58872353Y-64176400D01*
X58965485Y-64037019D01*
X59084019Y-63918485D01*
X59223400Y-63825353D01*
X59378272Y-63761203D01*
X59542684Y-63728500D01*
X59710316Y-63728500D01*
X59874728Y-63761203D01*
G37*
G36*
X57334728Y-63761203D02*
G01*
X57489600Y-63825353D01*
X57628981Y-63918485D01*
X57747515Y-64037019D01*
X57840647Y-64176400D01*
X57904797Y-64331272D01*
X57937500Y-64495684D01*
X57937500Y-64663316D01*
X57904797Y-64827728D01*
X57840647Y-64982600D01*
X57747515Y-65121981D01*
X57628981Y-65240515D01*
X57489600Y-65333647D01*
X57334728Y-65397797D01*
X57170316Y-65430500D01*
X57002684Y-65430500D01*
X56838272Y-65397797D01*
X56683400Y-65333647D01*
X56544019Y-65240515D01*
X56425485Y-65121981D01*
X56332353Y-64982600D01*
X56268203Y-64827728D01*
X56235500Y-64663316D01*
X56235500Y-64495684D01*
X56268203Y-64331272D01*
X56332353Y-64176400D01*
X56425485Y-64037019D01*
X56544019Y-63918485D01*
X56683400Y-63825353D01*
X56838272Y-63761203D01*
X57002684Y-63728500D01*
X57170316Y-63728500D01*
X57334728Y-63761203D01*
G37*
G36*
X54794728Y-63761203D02*
G01*
X54949600Y-63825353D01*
X55088981Y-63918485D01*
X55207515Y-64037019D01*
X55300647Y-64176400D01*
X55364797Y-64331272D01*
X55397500Y-64495684D01*
X55397500Y-64663316D01*
X55364797Y-64827728D01*
X55300647Y-64982600D01*
X55207515Y-65121981D01*
X55088981Y-65240515D01*
X54949600Y-65333647D01*
X54794728Y-65397797D01*
X54630316Y-65430500D01*
X54462684Y-65430500D01*
X54298272Y-65397797D01*
X54143400Y-65333647D01*
X54004019Y-65240515D01*
X53885485Y-65121981D01*
X53792353Y-64982600D01*
X53728203Y-64827728D01*
X53695500Y-64663316D01*
X53695500Y-64495684D01*
X53728203Y-64331272D01*
X53792353Y-64176400D01*
X53885485Y-64037019D01*
X54004019Y-63918485D01*
X54143400Y-63825353D01*
X54298272Y-63761203D01*
X54462684Y-63728500D01*
X54630316Y-63728500D01*
X54794728Y-63761203D01*
G37*
G36*
X29394728Y-63761203D02*
G01*
X29549600Y-63825353D01*
X29688981Y-63918485D01*
X29807515Y-64037019D01*
X29900647Y-64176400D01*
X29964797Y-64331272D01*
X29997500Y-64495684D01*
X29997500Y-64663316D01*
X29964797Y-64827728D01*
X29900647Y-64982600D01*
X29807515Y-65121981D01*
X29688981Y-65240515D01*
X29549600Y-65333647D01*
X29394728Y-65397797D01*
X29230316Y-65430500D01*
X29062684Y-65430500D01*
X28898272Y-65397797D01*
X28743400Y-65333647D01*
X28604019Y-65240515D01*
X28485485Y-65121981D01*
X28392353Y-64982600D01*
X28328203Y-64827728D01*
X28295500Y-64663316D01*
X28295500Y-64495684D01*
X28328203Y-64331272D01*
X28392353Y-64176400D01*
X28485485Y-64037019D01*
X28604019Y-63918485D01*
X28743400Y-63825353D01*
X28898272Y-63761203D01*
X29062684Y-63728500D01*
X29230316Y-63728500D01*
X29394728Y-63761203D01*
G37*
G36*
X64954728Y-63761203D02*
G01*
X65109600Y-63825353D01*
X65248981Y-63918485D01*
X65367515Y-64037019D01*
X65460647Y-64176400D01*
X65524797Y-64331272D01*
X65557500Y-64495684D01*
X65557500Y-64663316D01*
X65524797Y-64827728D01*
X65460647Y-64982600D01*
X65367515Y-65121981D01*
X65248981Y-65240515D01*
X65109600Y-65333647D01*
X64954728Y-65397797D01*
X64790316Y-65430500D01*
X64622684Y-65430500D01*
X64458272Y-65397797D01*
X64303400Y-65333647D01*
X64164019Y-65240515D01*
X64045485Y-65121981D01*
X63952353Y-64982600D01*
X63888203Y-64827728D01*
X63855500Y-64663316D01*
X63855500Y-64495684D01*
X63888203Y-64331272D01*
X63952353Y-64176400D01*
X64045485Y-64037019D01*
X64164019Y-63918485D01*
X64303400Y-63825353D01*
X64458272Y-63761203D01*
X64622684Y-63728500D01*
X64790316Y-63728500D01*
X64954728Y-63761203D01*
G37*
G36*
X65557500Y-50190500D02*
G01*
X63855500Y-50190500D01*
X63855500Y-48488500D01*
X65557500Y-48488500D01*
X65557500Y-50190500D01*
G37*
G36*
X37014728Y-48521203D02*
G01*
X37169600Y-48585353D01*
X37308981Y-48678485D01*
X37427515Y-48797019D01*
X37520647Y-48936400D01*
X37584797Y-49091272D01*
X37617500Y-49255684D01*
X37617500Y-49423316D01*
X37584797Y-49587728D01*
X37520647Y-49742600D01*
X37427515Y-49881981D01*
X37308981Y-50000515D01*
X37169600Y-50093647D01*
X37014728Y-50157797D01*
X36850316Y-50190500D01*
X36682684Y-50190500D01*
X36518272Y-50157797D01*
X36363400Y-50093647D01*
X36224019Y-50000515D01*
X36105485Y-49881981D01*
X36012353Y-49742600D01*
X35948203Y-49587728D01*
X35915500Y-49423316D01*
X35915500Y-49255684D01*
X35948203Y-49091272D01*
X36012353Y-48936400D01*
X36105485Y-48797019D01*
X36224019Y-48678485D01*
X36363400Y-48585353D01*
X36518272Y-48521203D01*
X36682684Y-48488500D01*
X36850316Y-48488500D01*
X37014728Y-48521203D01*
G37*
G36*
X34474728Y-48521203D02*
G01*
X34629600Y-48585353D01*
X34768981Y-48678485D01*
X34887515Y-48797019D01*
X34980647Y-48936400D01*
X35044797Y-49091272D01*
X35077500Y-49255684D01*
X35077500Y-49423316D01*
X35044797Y-49587728D01*
X34980647Y-49742600D01*
X34887515Y-49881981D01*
X34768981Y-50000515D01*
X34629600Y-50093647D01*
X34474728Y-50157797D01*
X34310316Y-50190500D01*
X34142684Y-50190500D01*
X33978272Y-50157797D01*
X33823400Y-50093647D01*
X33684019Y-50000515D01*
X33565485Y-49881981D01*
X33472353Y-49742600D01*
X33408203Y-49587728D01*
X33375500Y-49423316D01*
X33375500Y-49255684D01*
X33408203Y-49091272D01*
X33472353Y-48936400D01*
X33565485Y-48797019D01*
X33684019Y-48678485D01*
X33823400Y-48585353D01*
X33978272Y-48521203D01*
X34142684Y-48488500D01*
X34310316Y-48488500D01*
X34474728Y-48521203D01*
G37*
G36*
X31934728Y-48521203D02*
G01*
X32089600Y-48585353D01*
X32228981Y-48678485D01*
X32347515Y-48797019D01*
X32440647Y-48936400D01*
X32504797Y-49091272D01*
X32537500Y-49255684D01*
X32537500Y-49423316D01*
X32504797Y-49587728D01*
X32440647Y-49742600D01*
X32347515Y-49881981D01*
X32228981Y-50000515D01*
X32089600Y-50093647D01*
X31934728Y-50157797D01*
X31770316Y-50190500D01*
X31602684Y-50190500D01*
X31438272Y-50157797D01*
X31283400Y-50093647D01*
X31144019Y-50000515D01*
X31025485Y-49881981D01*
X30932353Y-49742600D01*
X30868203Y-49587728D01*
X30835500Y-49423316D01*
X30835500Y-49255684D01*
X30868203Y-49091272D01*
X30932353Y-48936400D01*
X31025485Y-48797019D01*
X31144019Y-48678485D01*
X31283400Y-48585353D01*
X31438272Y-48521203D01*
X31602684Y-48488500D01*
X31770316Y-48488500D01*
X31934728Y-48521203D01*
G37*
G36*
X29394728Y-48521203D02*
G01*
X29549600Y-48585353D01*
X29688981Y-48678485D01*
X29807515Y-48797019D01*
X29900647Y-48936400D01*
X29964797Y-49091272D01*
X29997500Y-49255684D01*
X29997500Y-49423316D01*
X29964797Y-49587728D01*
X29900647Y-49742600D01*
X29807515Y-49881981D01*
X29688981Y-50000515D01*
X29549600Y-50093647D01*
X29394728Y-50157797D01*
X29230316Y-50190500D01*
X29062684Y-50190500D01*
X28898272Y-50157797D01*
X28743400Y-50093647D01*
X28604019Y-50000515D01*
X28485485Y-49881981D01*
X28392353Y-49742600D01*
X28328203Y-49587728D01*
X28295500Y-49423316D01*
X28295500Y-49255684D01*
X28328203Y-49091272D01*
X28392353Y-48936400D01*
X28485485Y-48797019D01*
X28604019Y-48678485D01*
X28743400Y-48585353D01*
X28898272Y-48521203D01*
X29062684Y-48488500D01*
X29230316Y-48488500D01*
X29394728Y-48521203D01*
G37*
G36*
X39554728Y-48521203D02*
G01*
X39709600Y-48585353D01*
X39848981Y-48678485D01*
X39967515Y-48797019D01*
X40060647Y-48936400D01*
X40124797Y-49091272D01*
X40157500Y-49255684D01*
X40157500Y-49423316D01*
X40124797Y-49587728D01*
X40060647Y-49742600D01*
X39967515Y-49881981D01*
X39848981Y-50000515D01*
X39709600Y-50093647D01*
X39554728Y-50157797D01*
X39390316Y-50190500D01*
X39222684Y-50190500D01*
X39058272Y-50157797D01*
X38903400Y-50093647D01*
X38764019Y-50000515D01*
X38645485Y-49881981D01*
X38552353Y-49742600D01*
X38488203Y-49587728D01*
X38455500Y-49423316D01*
X38455500Y-49255684D01*
X38488203Y-49091272D01*
X38552353Y-48936400D01*
X38645485Y-48797019D01*
X38764019Y-48678485D01*
X38903400Y-48585353D01*
X39058272Y-48521203D01*
X39222684Y-48488500D01*
X39390316Y-48488500D01*
X39554728Y-48521203D01*
G37*
G36*
X44634728Y-48521203D02*
G01*
X44789600Y-48585353D01*
X44928981Y-48678485D01*
X45047515Y-48797019D01*
X45140647Y-48936400D01*
X45204797Y-49091272D01*
X45237500Y-49255684D01*
X45237500Y-49423316D01*
X45204797Y-49587728D01*
X45140647Y-49742600D01*
X45047515Y-49881981D01*
X44928981Y-50000515D01*
X44789600Y-50093647D01*
X44634728Y-50157797D01*
X44470316Y-50190500D01*
X44302684Y-50190500D01*
X44138272Y-50157797D01*
X43983400Y-50093647D01*
X43844019Y-50000515D01*
X43725485Y-49881981D01*
X43632353Y-49742600D01*
X43568203Y-49587728D01*
X43535500Y-49423316D01*
X43535500Y-49255684D01*
X43568203Y-49091272D01*
X43632353Y-48936400D01*
X43725485Y-48797019D01*
X43844019Y-48678485D01*
X43983400Y-48585353D01*
X44138272Y-48521203D01*
X44302684Y-48488500D01*
X44470316Y-48488500D01*
X44634728Y-48521203D01*
G37*
G36*
X47174728Y-48521203D02*
G01*
X47329600Y-48585353D01*
X47468981Y-48678485D01*
X47587515Y-48797019D01*
X47680647Y-48936400D01*
X47744797Y-49091272D01*
X47777500Y-49255684D01*
X47777500Y-49423316D01*
X47744797Y-49587728D01*
X47680647Y-49742600D01*
X47587515Y-49881981D01*
X47468981Y-50000515D01*
X47329600Y-50093647D01*
X47174728Y-50157797D01*
X47010316Y-50190500D01*
X46842684Y-50190500D01*
X46678272Y-50157797D01*
X46523400Y-50093647D01*
X46384019Y-50000515D01*
X46265485Y-49881981D01*
X46172353Y-49742600D01*
X46108203Y-49587728D01*
X46075500Y-49423316D01*
X46075500Y-49255684D01*
X46108203Y-49091272D01*
X46172353Y-48936400D01*
X46265485Y-48797019D01*
X46384019Y-48678485D01*
X46523400Y-48585353D01*
X46678272Y-48521203D01*
X46842684Y-48488500D01*
X47010316Y-48488500D01*
X47174728Y-48521203D01*
G37*
G36*
X49714728Y-48521203D02*
G01*
X49869600Y-48585353D01*
X50008981Y-48678485D01*
X50127515Y-48797019D01*
X50220647Y-48936400D01*
X50284797Y-49091272D01*
X50317500Y-49255684D01*
X50317500Y-49423316D01*
X50284797Y-49587728D01*
X50220647Y-49742600D01*
X50127515Y-49881981D01*
X50008981Y-50000515D01*
X49869600Y-50093647D01*
X49714728Y-50157797D01*
X49550316Y-50190500D01*
X49382684Y-50190500D01*
X49218272Y-50157797D01*
X49063400Y-50093647D01*
X48924019Y-50000515D01*
X48805485Y-49881981D01*
X48712353Y-49742600D01*
X48648203Y-49587728D01*
X48615500Y-49423316D01*
X48615500Y-49255684D01*
X48648203Y-49091272D01*
X48712353Y-48936400D01*
X48805485Y-48797019D01*
X48924019Y-48678485D01*
X49063400Y-48585353D01*
X49218272Y-48521203D01*
X49382684Y-48488500D01*
X49550316Y-48488500D01*
X49714728Y-48521203D01*
G37*
G36*
X52254728Y-48521203D02*
G01*
X52409600Y-48585353D01*
X52548981Y-48678485D01*
X52667515Y-48797019D01*
X52760647Y-48936400D01*
X52824797Y-49091272D01*
X52857500Y-49255684D01*
X52857500Y-49423316D01*
X52824797Y-49587728D01*
X52760647Y-49742600D01*
X52667515Y-49881981D01*
X52548981Y-50000515D01*
X52409600Y-50093647D01*
X52254728Y-50157797D01*
X52090316Y-50190500D01*
X51922684Y-50190500D01*
X51758272Y-50157797D01*
X51603400Y-50093647D01*
X51464019Y-50000515D01*
X51345485Y-49881981D01*
X51252353Y-49742600D01*
X51188203Y-49587728D01*
X51155500Y-49423316D01*
X51155500Y-49255684D01*
X51188203Y-49091272D01*
X51252353Y-48936400D01*
X51345485Y-48797019D01*
X51464019Y-48678485D01*
X51603400Y-48585353D01*
X51758272Y-48521203D01*
X51922684Y-48488500D01*
X52090316Y-48488500D01*
X52254728Y-48521203D01*
G37*
G36*
X57334728Y-48521203D02*
G01*
X57489600Y-48585353D01*
X57628981Y-48678485D01*
X57747515Y-48797019D01*
X57840647Y-48936400D01*
X57904797Y-49091272D01*
X57937500Y-49255684D01*
X57937500Y-49423316D01*
X57904797Y-49587728D01*
X57840647Y-49742600D01*
X57747515Y-49881981D01*
X57628981Y-50000515D01*
X57489600Y-50093647D01*
X57334728Y-50157797D01*
X57170316Y-50190500D01*
X57002684Y-50190500D01*
X56838272Y-50157797D01*
X56683400Y-50093647D01*
X56544019Y-50000515D01*
X56425485Y-49881981D01*
X56332353Y-49742600D01*
X56268203Y-49587728D01*
X56235500Y-49423316D01*
X56235500Y-49255684D01*
X56268203Y-49091272D01*
X56332353Y-48936400D01*
X56425485Y-48797019D01*
X56544019Y-48678485D01*
X56683400Y-48585353D01*
X56838272Y-48521203D01*
X57002684Y-48488500D01*
X57170316Y-48488500D01*
X57334728Y-48521203D01*
G37*
G36*
X59874728Y-48521203D02*
G01*
X60029600Y-48585353D01*
X60168981Y-48678485D01*
X60287515Y-48797019D01*
X60380647Y-48936400D01*
X60444797Y-49091272D01*
X60477500Y-49255684D01*
X60477500Y-49423316D01*
X60444797Y-49587728D01*
X60380647Y-49742600D01*
X60287515Y-49881981D01*
X60168981Y-50000515D01*
X60029600Y-50093647D01*
X59874728Y-50157797D01*
X59710316Y-50190500D01*
X59542684Y-50190500D01*
X59378272Y-50157797D01*
X59223400Y-50093647D01*
X59084019Y-50000515D01*
X58965485Y-49881981D01*
X58872353Y-49742600D01*
X58808203Y-49587728D01*
X58775500Y-49423316D01*
X58775500Y-49255684D01*
X58808203Y-49091272D01*
X58872353Y-48936400D01*
X58965485Y-48797019D01*
X59084019Y-48678485D01*
X59223400Y-48585353D01*
X59378272Y-48521203D01*
X59542684Y-48488500D01*
X59710316Y-48488500D01*
X59874728Y-48521203D01*
G37*
G36*
X54794728Y-48521203D02*
G01*
X54949600Y-48585353D01*
X55088981Y-48678485D01*
X55207515Y-48797019D01*
X55300647Y-48936400D01*
X55364797Y-49091272D01*
X55397500Y-49255684D01*
X55397500Y-49423316D01*
X55364797Y-49587728D01*
X55300647Y-49742600D01*
X55207515Y-49881981D01*
X55088981Y-50000515D01*
X54949600Y-50093647D01*
X54794728Y-50157797D01*
X54630316Y-50190500D01*
X54462684Y-50190500D01*
X54298272Y-50157797D01*
X54143400Y-50093647D01*
X54004019Y-50000515D01*
X53885485Y-49881981D01*
X53792353Y-49742600D01*
X53728203Y-49587728D01*
X53695500Y-49423316D01*
X53695500Y-49255684D01*
X53728203Y-49091272D01*
X53792353Y-48936400D01*
X53885485Y-48797019D01*
X54004019Y-48678485D01*
X54143400Y-48585353D01*
X54298272Y-48521203D01*
X54462684Y-48488500D01*
X54630316Y-48488500D01*
X54794728Y-48521203D01*
G37*
G36*
X62414728Y-48521203D02*
G01*
X62569600Y-48585353D01*
X62708981Y-48678485D01*
X62827515Y-48797019D01*
X62920647Y-48936400D01*
X62984797Y-49091272D01*
X63017500Y-49255684D01*
X63017500Y-49423316D01*
X62984797Y-49587728D01*
X62920647Y-49742600D01*
X62827515Y-49881981D01*
X62708981Y-50000515D01*
X62569600Y-50093647D01*
X62414728Y-50157797D01*
X62250316Y-50190500D01*
X62082684Y-50190500D01*
X61918272Y-50157797D01*
X61763400Y-50093647D01*
X61624019Y-50000515D01*
X61505485Y-49881981D01*
X61412353Y-49742600D01*
X61348203Y-49587728D01*
X61315500Y-49423316D01*
X61315500Y-49255684D01*
X61348203Y-49091272D01*
X61412353Y-48936400D01*
X61505485Y-48797019D01*
X61624019Y-48678485D01*
X61763400Y-48585353D01*
X61918272Y-48521203D01*
X62082684Y-48488500D01*
X62250316Y-48488500D01*
X62414728Y-48521203D01*
G37*
G36*
X42094728Y-48521203D02*
G01*
X42249600Y-48585353D01*
X42388981Y-48678485D01*
X42507515Y-48797019D01*
X42600647Y-48936400D01*
X42664797Y-49091272D01*
X42697500Y-49255684D01*
X42697500Y-49423316D01*
X42664797Y-49587728D01*
X42600647Y-49742600D01*
X42507515Y-49881981D01*
X42388981Y-50000515D01*
X42249600Y-50093647D01*
X42094728Y-50157797D01*
X41930316Y-50190500D01*
X41762684Y-50190500D01*
X41598272Y-50157797D01*
X41443400Y-50093647D01*
X41304019Y-50000515D01*
X41185485Y-49881981D01*
X41092353Y-49742600D01*
X41028203Y-49587728D01*
X40995500Y-49423316D01*
X40995500Y-49255684D01*
X41028203Y-49091272D01*
X41092353Y-48936400D01*
X41185485Y-48797019D01*
X41304019Y-48678485D01*
X41443400Y-48585353D01*
X41598272Y-48521203D01*
X41762684Y-48488500D01*
X41930316Y-48488500D01*
X42094728Y-48521203D01*
G37*
G36*
X25947000Y-39790000D02*
G01*
X24345000Y-39790000D01*
X24345000Y-38188000D01*
X25947000Y-38188000D01*
X25947000Y-39790000D01*
G37*
G36*
X30459642Y-38218781D02*
G01*
X30605414Y-38279162D01*
X30605416Y-38279163D01*
X30736608Y-38366822D01*
X30848178Y-38478392D01*
X30935837Y-38609584D01*
X30935838Y-38609586D01*
X30996219Y-38755358D01*
X31027000Y-38910107D01*
X31027000Y-39067893D01*
X30996219Y-39222642D01*
X30935838Y-39368414D01*
X30935837Y-39368416D01*
X30848178Y-39499608D01*
X30736608Y-39611178D01*
X30605416Y-39698837D01*
X30605415Y-39698838D01*
X30605414Y-39698838D01*
X30459642Y-39759219D01*
X30304893Y-39790000D01*
X30147107Y-39790000D01*
X29992358Y-39759219D01*
X29846586Y-39698838D01*
X29846585Y-39698838D01*
X29846584Y-39698837D01*
X29715392Y-39611178D01*
X29603822Y-39499608D01*
X29516163Y-39368416D01*
X29516162Y-39368414D01*
X29455781Y-39222642D01*
X29425000Y-39067893D01*
X29425000Y-38910107D01*
X29455781Y-38755358D01*
X29516162Y-38609586D01*
X29516163Y-38609584D01*
X29603822Y-38478392D01*
X29715392Y-38366822D01*
X29846584Y-38279163D01*
X29846586Y-38279162D01*
X29992358Y-38218781D01*
X30147107Y-38188000D01*
X30304893Y-38188000D01*
X30459642Y-38218781D01*
G37*
G36*
X32999642Y-38218781D02*
G01*
X33145414Y-38279162D01*
X33145416Y-38279163D01*
X33276608Y-38366822D01*
X33388178Y-38478392D01*
X33475837Y-38609584D01*
X33475838Y-38609586D01*
X33536219Y-38755358D01*
X33567000Y-38910107D01*
X33567000Y-39067893D01*
X33536219Y-39222642D01*
X33475838Y-39368414D01*
X33475837Y-39368416D01*
X33388178Y-39499608D01*
X33276608Y-39611178D01*
X33145416Y-39698837D01*
X33145415Y-39698838D01*
X33145414Y-39698838D01*
X32999642Y-39759219D01*
X32844893Y-39790000D01*
X32687107Y-39790000D01*
X32532358Y-39759219D01*
X32386586Y-39698838D01*
X32386585Y-39698838D01*
X32386584Y-39698837D01*
X32255392Y-39611178D01*
X32143822Y-39499608D01*
X32056163Y-39368416D01*
X32056162Y-39368414D01*
X31995781Y-39222642D01*
X31965000Y-39067893D01*
X31965000Y-38910107D01*
X31995781Y-38755358D01*
X32056162Y-38609586D01*
X32056163Y-38609584D01*
X32143822Y-38478392D01*
X32255392Y-38366822D01*
X32386584Y-38279163D01*
X32386586Y-38279162D01*
X32532358Y-38218781D01*
X32687107Y-38188000D01*
X32844893Y-38188000D01*
X32999642Y-38218781D01*
G37*
G36*
X35539642Y-38218781D02*
G01*
X35685414Y-38279162D01*
X35685416Y-38279163D01*
X35816608Y-38366822D01*
X35928178Y-38478392D01*
X36015837Y-38609584D01*
X36015838Y-38609586D01*
X36076219Y-38755358D01*
X36107000Y-38910107D01*
X36107000Y-39067893D01*
X36076219Y-39222642D01*
X36015838Y-39368414D01*
X36015837Y-39368416D01*
X35928178Y-39499608D01*
X35816608Y-39611178D01*
X35685416Y-39698837D01*
X35685415Y-39698838D01*
X35685414Y-39698838D01*
X35539642Y-39759219D01*
X35384893Y-39790000D01*
X35227107Y-39790000D01*
X35072358Y-39759219D01*
X34926586Y-39698838D01*
X34926585Y-39698838D01*
X34926584Y-39698837D01*
X34795392Y-39611178D01*
X34683822Y-39499608D01*
X34596163Y-39368416D01*
X34596162Y-39368414D01*
X34535781Y-39222642D01*
X34505000Y-39067893D01*
X34505000Y-38910107D01*
X34535781Y-38755358D01*
X34596162Y-38609586D01*
X34596163Y-38609584D01*
X34683822Y-38478392D01*
X34795392Y-38366822D01*
X34926584Y-38279163D01*
X34926586Y-38279162D01*
X35072358Y-38218781D01*
X35227107Y-38188000D01*
X35384893Y-38188000D01*
X35539642Y-38218781D01*
G37*
G36*
X43159642Y-38218781D02*
G01*
X43305414Y-38279162D01*
X43305416Y-38279163D01*
X43436608Y-38366822D01*
X43548178Y-38478392D01*
X43635837Y-38609584D01*
X43635838Y-38609586D01*
X43696219Y-38755358D01*
X43727000Y-38910107D01*
X43727000Y-39067893D01*
X43696219Y-39222642D01*
X43635838Y-39368414D01*
X43635837Y-39368416D01*
X43548178Y-39499608D01*
X43436608Y-39611178D01*
X43305416Y-39698837D01*
X43305415Y-39698838D01*
X43305414Y-39698838D01*
X43159642Y-39759219D01*
X43004893Y-39790000D01*
X42847107Y-39790000D01*
X42692358Y-39759219D01*
X42546586Y-39698838D01*
X42546585Y-39698838D01*
X42546584Y-39698837D01*
X42415392Y-39611178D01*
X42303822Y-39499608D01*
X42216163Y-39368416D01*
X42216162Y-39368414D01*
X42155781Y-39222642D01*
X42125000Y-39067893D01*
X42125000Y-38910107D01*
X42155781Y-38755358D01*
X42216162Y-38609586D01*
X42216163Y-38609584D01*
X42303822Y-38478392D01*
X42415392Y-38366822D01*
X42546584Y-38279163D01*
X42546586Y-38279162D01*
X42692358Y-38218781D01*
X42847107Y-38188000D01*
X43004893Y-38188000D01*
X43159642Y-38218781D01*
G37*
G36*
X45699642Y-38218781D02*
G01*
X45845414Y-38279162D01*
X45845416Y-38279163D01*
X45976608Y-38366822D01*
X46088178Y-38478392D01*
X46175837Y-38609584D01*
X46175838Y-38609586D01*
X46236219Y-38755358D01*
X46267000Y-38910107D01*
X46267000Y-39067893D01*
X46236219Y-39222642D01*
X46175838Y-39368414D01*
X46175837Y-39368416D01*
X46088178Y-39499608D01*
X45976608Y-39611178D01*
X45845416Y-39698837D01*
X45845415Y-39698838D01*
X45845414Y-39698838D01*
X45699642Y-39759219D01*
X45544893Y-39790000D01*
X45387107Y-39790000D01*
X45232358Y-39759219D01*
X45086586Y-39698838D01*
X45086585Y-39698838D01*
X45086584Y-39698837D01*
X44955392Y-39611178D01*
X44843822Y-39499608D01*
X44756163Y-39368416D01*
X44756162Y-39368414D01*
X44695781Y-39222642D01*
X44665000Y-39067893D01*
X44665000Y-38910107D01*
X44695781Y-38755358D01*
X44756162Y-38609586D01*
X44756163Y-38609584D01*
X44843822Y-38478392D01*
X44955392Y-38366822D01*
X45086584Y-38279163D01*
X45086586Y-38279162D01*
X45232358Y-38218781D01*
X45387107Y-38188000D01*
X45544893Y-38188000D01*
X45699642Y-38218781D01*
G37*
G36*
X27919642Y-38218781D02*
G01*
X28065414Y-38279162D01*
X28065416Y-38279163D01*
X28196608Y-38366822D01*
X28308178Y-38478392D01*
X28395837Y-38609584D01*
X28395838Y-38609586D01*
X28456219Y-38755358D01*
X28487000Y-38910107D01*
X28487000Y-39067893D01*
X28456219Y-39222642D01*
X28395838Y-39368414D01*
X28395837Y-39368416D01*
X28308178Y-39499608D01*
X28196608Y-39611178D01*
X28065416Y-39698837D01*
X28065415Y-39698838D01*
X28065414Y-39698838D01*
X27919642Y-39759219D01*
X27764893Y-39790000D01*
X27607107Y-39790000D01*
X27452358Y-39759219D01*
X27306586Y-39698838D01*
X27306585Y-39698838D01*
X27306584Y-39698837D01*
X27175392Y-39611178D01*
X27063822Y-39499608D01*
X26976163Y-39368416D01*
X26976162Y-39368414D01*
X26915781Y-39222642D01*
X26885000Y-39067893D01*
X26885000Y-38910107D01*
X26915781Y-38755358D01*
X26976162Y-38609586D01*
X26976163Y-38609584D01*
X27063822Y-38478392D01*
X27175392Y-38366822D01*
X27306584Y-38279163D01*
X27306586Y-38279162D01*
X27452358Y-38218781D01*
X27607107Y-38188000D01*
X27764893Y-38188000D01*
X27919642Y-38218781D01*
G37*
G36*
X40619642Y-38218781D02*
G01*
X40765414Y-38279162D01*
X40765416Y-38279163D01*
X40896608Y-38366822D01*
X41008178Y-38478392D01*
X41095837Y-38609584D01*
X41095838Y-38609586D01*
X41156219Y-38755358D01*
X41187000Y-38910107D01*
X41187000Y-39067893D01*
X41156219Y-39222642D01*
X41095838Y-39368414D01*
X41095837Y-39368416D01*
X41008178Y-39499608D01*
X40896608Y-39611178D01*
X40765416Y-39698837D01*
X40765415Y-39698838D01*
X40765414Y-39698838D01*
X40619642Y-39759219D01*
X40464893Y-39790000D01*
X40307107Y-39790000D01*
X40152358Y-39759219D01*
X40006586Y-39698838D01*
X40006585Y-39698838D01*
X40006584Y-39698837D01*
X39875392Y-39611178D01*
X39763822Y-39499608D01*
X39676163Y-39368416D01*
X39676162Y-39368414D01*
X39615781Y-39222642D01*
X39585000Y-39067893D01*
X39585000Y-38910107D01*
X39615781Y-38755358D01*
X39676162Y-38609586D01*
X39676163Y-38609584D01*
X39763822Y-38478392D01*
X39875392Y-38366822D01*
X40006584Y-38279163D01*
X40006586Y-38279162D01*
X40152358Y-38218781D01*
X40307107Y-38188000D01*
X40464893Y-38188000D01*
X40619642Y-38218781D01*
G37*
G36*
X38079642Y-38218781D02*
G01*
X38225414Y-38279162D01*
X38225416Y-38279163D01*
X38356608Y-38366822D01*
X38468178Y-38478392D01*
X38555837Y-38609584D01*
X38555838Y-38609586D01*
X38616219Y-38755358D01*
X38647000Y-38910107D01*
X38647000Y-39067893D01*
X38616219Y-39222642D01*
X38555838Y-39368414D01*
X38555837Y-39368416D01*
X38468178Y-39499608D01*
X38356608Y-39611178D01*
X38225416Y-39698837D01*
X38225415Y-39698838D01*
X38225414Y-39698838D01*
X38079642Y-39759219D01*
X37924893Y-39790000D01*
X37767107Y-39790000D01*
X37612358Y-39759219D01*
X37466586Y-39698838D01*
X37466585Y-39698838D01*
X37466584Y-39698837D01*
X37335392Y-39611178D01*
X37223822Y-39499608D01*
X37136163Y-39368416D01*
X37136162Y-39368414D01*
X37075781Y-39222642D01*
X37045000Y-39067893D01*
X37045000Y-38910107D01*
X37075781Y-38755358D01*
X37136162Y-38609586D01*
X37136163Y-38609584D01*
X37223822Y-38478392D01*
X37335392Y-38366822D01*
X37466584Y-38279163D01*
X37466586Y-38279162D01*
X37612358Y-38218781D01*
X37767107Y-38188000D01*
X37924893Y-38188000D01*
X38079642Y-38218781D01*
G37*
G36*
X61207142Y-36683242D02*
G01*
X61355101Y-36744529D01*
X61488255Y-36833499D01*
X61601501Y-36946745D01*
X61690471Y-37079899D01*
X61751758Y-37227858D01*
X61783000Y-37384925D01*
X61783000Y-37545075D01*
X61751758Y-37702142D01*
X61690471Y-37850101D01*
X61601501Y-37983255D01*
X61488255Y-38096501D01*
X61355101Y-38185471D01*
X61207142Y-38246758D01*
X61050075Y-38278000D01*
X60889925Y-38278000D01*
X60732858Y-38246758D01*
X60584899Y-38185471D01*
X60451745Y-38096501D01*
X60338499Y-37983255D01*
X60249529Y-37850101D01*
X60188242Y-37702142D01*
X60157000Y-37545075D01*
X60157000Y-37384925D01*
X60188242Y-37227858D01*
X60249529Y-37079899D01*
X60338499Y-36946745D01*
X60451745Y-36833499D01*
X60584899Y-36744529D01*
X60732858Y-36683242D01*
X60889925Y-36652000D01*
X61050075Y-36652000D01*
X61207142Y-36683242D01*
G37*
G36*
X69383000Y-38278000D02*
G01*
X67757000Y-38278000D01*
X67757000Y-36652000D01*
X69383000Y-36652000D01*
X69383000Y-38278000D01*
G37*
G36*
X30459642Y-22978781D02*
G01*
X30605414Y-23039162D01*
X30605416Y-23039163D01*
X30736608Y-23126822D01*
X30848178Y-23238392D01*
X30935837Y-23369584D01*
X30935838Y-23369586D01*
X30996219Y-23515358D01*
X31027000Y-23670107D01*
X31027000Y-23827893D01*
X30996219Y-23982642D01*
X30935838Y-24128414D01*
X30935837Y-24128416D01*
X30848178Y-24259608D01*
X30736608Y-24371178D01*
X30605416Y-24458837D01*
X30605415Y-24458838D01*
X30605414Y-24458838D01*
X30459642Y-24519219D01*
X30304893Y-24550000D01*
X30147107Y-24550000D01*
X29992358Y-24519219D01*
X29846586Y-24458838D01*
X29846585Y-24458838D01*
X29846584Y-24458837D01*
X29715392Y-24371178D01*
X29603822Y-24259608D01*
X29516163Y-24128416D01*
X29516162Y-24128414D01*
X29455781Y-23982642D01*
X29425000Y-23827893D01*
X29425000Y-23670107D01*
X29455781Y-23515358D01*
X29516162Y-23369586D01*
X29516163Y-23369584D01*
X29603822Y-23238392D01*
X29715392Y-23126822D01*
X29846584Y-23039163D01*
X29846586Y-23039162D01*
X29992358Y-22978781D01*
X30147107Y-22948000D01*
X30304893Y-22948000D01*
X30459642Y-22978781D01*
G37*
G36*
X43159642Y-22978781D02*
G01*
X43305414Y-23039162D01*
X43305416Y-23039163D01*
X43436608Y-23126822D01*
X43548178Y-23238392D01*
X43635837Y-23369584D01*
X43635838Y-23369586D01*
X43696219Y-23515358D01*
X43727000Y-23670107D01*
X43727000Y-23827893D01*
X43696219Y-23982642D01*
X43635838Y-24128414D01*
X43635837Y-24128416D01*
X43548178Y-24259608D01*
X43436608Y-24371178D01*
X43305416Y-24458837D01*
X43305415Y-24458838D01*
X43305414Y-24458838D01*
X43159642Y-24519219D01*
X43004893Y-24550000D01*
X42847107Y-24550000D01*
X42692358Y-24519219D01*
X42546586Y-24458838D01*
X42546585Y-24458838D01*
X42546584Y-24458837D01*
X42415392Y-24371178D01*
X42303822Y-24259608D01*
X42216163Y-24128416D01*
X42216162Y-24128414D01*
X42155781Y-23982642D01*
X42125000Y-23827893D01*
X42125000Y-23670107D01*
X42155781Y-23515358D01*
X42216162Y-23369586D01*
X42216163Y-23369584D01*
X42303822Y-23238392D01*
X42415392Y-23126822D01*
X42546584Y-23039163D01*
X42546586Y-23039162D01*
X42692358Y-22978781D01*
X42847107Y-22948000D01*
X43004893Y-22948000D01*
X43159642Y-22978781D01*
G37*
G36*
X40619642Y-22978781D02*
G01*
X40765414Y-23039162D01*
X40765416Y-23039163D01*
X40896608Y-23126822D01*
X41008178Y-23238392D01*
X41095837Y-23369584D01*
X41095838Y-23369586D01*
X41156219Y-23515358D01*
X41187000Y-23670107D01*
X41187000Y-23827893D01*
X41156219Y-23982642D01*
X41095838Y-24128414D01*
X41095837Y-24128416D01*
X41008178Y-24259608D01*
X40896608Y-24371178D01*
X40765416Y-24458837D01*
X40765415Y-24458838D01*
X40765414Y-24458838D01*
X40619642Y-24519219D01*
X40464893Y-24550000D01*
X40307107Y-24550000D01*
X40152358Y-24519219D01*
X40006586Y-24458838D01*
X40006585Y-24458838D01*
X40006584Y-24458837D01*
X39875392Y-24371178D01*
X39763822Y-24259608D01*
X39676163Y-24128416D01*
X39676162Y-24128414D01*
X39615781Y-23982642D01*
X39585000Y-23827893D01*
X39585000Y-23670107D01*
X39615781Y-23515358D01*
X39676162Y-23369586D01*
X39676163Y-23369584D01*
X39763822Y-23238392D01*
X39875392Y-23126822D01*
X40006584Y-23039163D01*
X40006586Y-23039162D01*
X40152358Y-22978781D01*
X40307107Y-22948000D01*
X40464893Y-22948000D01*
X40619642Y-22978781D01*
G37*
G36*
X38079642Y-22978781D02*
G01*
X38225414Y-23039162D01*
X38225416Y-23039163D01*
X38356608Y-23126822D01*
X38468178Y-23238392D01*
X38555837Y-23369584D01*
X38555838Y-23369586D01*
X38616219Y-23515358D01*
X38647000Y-23670107D01*
X38647000Y-23827893D01*
X38616219Y-23982642D01*
X38555838Y-24128414D01*
X38555837Y-24128416D01*
X38468178Y-24259608D01*
X38356608Y-24371178D01*
X38225416Y-24458837D01*
X38225415Y-24458838D01*
X38225414Y-24458838D01*
X38079642Y-24519219D01*
X37924893Y-24550000D01*
X37767107Y-24550000D01*
X37612358Y-24519219D01*
X37466586Y-24458838D01*
X37466585Y-24458838D01*
X37466584Y-24458837D01*
X37335392Y-24371178D01*
X37223822Y-24259608D01*
X37136163Y-24128416D01*
X37136162Y-24128414D01*
X37075781Y-23982642D01*
X37045000Y-23827893D01*
X37045000Y-23670107D01*
X37075781Y-23515358D01*
X37136162Y-23369586D01*
X37136163Y-23369584D01*
X37223822Y-23238392D01*
X37335392Y-23126822D01*
X37466584Y-23039163D01*
X37466586Y-23039162D01*
X37612358Y-22978781D01*
X37767107Y-22948000D01*
X37924893Y-22948000D01*
X38079642Y-22978781D01*
G37*
G36*
X35539642Y-22978781D02*
G01*
X35685414Y-23039162D01*
X35685416Y-23039163D01*
X35816608Y-23126822D01*
X35928178Y-23238392D01*
X36015837Y-23369584D01*
X36015838Y-23369586D01*
X36076219Y-23515358D01*
X36107000Y-23670107D01*
X36107000Y-23827893D01*
X36076219Y-23982642D01*
X36015838Y-24128414D01*
X36015837Y-24128416D01*
X35928178Y-24259608D01*
X35816608Y-24371178D01*
X35685416Y-24458837D01*
X35685415Y-24458838D01*
X35685414Y-24458838D01*
X35539642Y-24519219D01*
X35384893Y-24550000D01*
X35227107Y-24550000D01*
X35072358Y-24519219D01*
X34926586Y-24458838D01*
X34926585Y-24458838D01*
X34926584Y-24458837D01*
X34795392Y-24371178D01*
X34683822Y-24259608D01*
X34596163Y-24128416D01*
X34596162Y-24128414D01*
X34535781Y-23982642D01*
X34505000Y-23827893D01*
X34505000Y-23670107D01*
X34535781Y-23515358D01*
X34596162Y-23369586D01*
X34596163Y-23369584D01*
X34683822Y-23238392D01*
X34795392Y-23126822D01*
X34926584Y-23039163D01*
X34926586Y-23039162D01*
X35072358Y-22978781D01*
X35227107Y-22948000D01*
X35384893Y-22948000D01*
X35539642Y-22978781D01*
G37*
G36*
X32999642Y-22978781D02*
G01*
X33145414Y-23039162D01*
X33145416Y-23039163D01*
X33276608Y-23126822D01*
X33388178Y-23238392D01*
X33475837Y-23369584D01*
X33475838Y-23369586D01*
X33536219Y-23515358D01*
X33567000Y-23670107D01*
X33567000Y-23827893D01*
X33536219Y-23982642D01*
X33475838Y-24128414D01*
X33475837Y-24128416D01*
X33388178Y-24259608D01*
X33276608Y-24371178D01*
X33145416Y-24458837D01*
X33145415Y-24458838D01*
X33145414Y-24458838D01*
X32999642Y-24519219D01*
X32844893Y-24550000D01*
X32687107Y-24550000D01*
X32532358Y-24519219D01*
X32386586Y-24458838D01*
X32386585Y-24458838D01*
X32386584Y-24458837D01*
X32255392Y-24371178D01*
X32143822Y-24259608D01*
X32056163Y-24128416D01*
X32056162Y-24128414D01*
X31995781Y-23982642D01*
X31965000Y-23827893D01*
X31965000Y-23670107D01*
X31995781Y-23515358D01*
X32056162Y-23369586D01*
X32056163Y-23369584D01*
X32143822Y-23238392D01*
X32255392Y-23126822D01*
X32386584Y-23039163D01*
X32386586Y-23039162D01*
X32532358Y-22978781D01*
X32687107Y-22948000D01*
X32844893Y-22948000D01*
X32999642Y-22978781D01*
G37*
G36*
X27919642Y-22978781D02*
G01*
X28065414Y-23039162D01*
X28065416Y-23039163D01*
X28196608Y-23126822D01*
X28308178Y-23238392D01*
X28395837Y-23369584D01*
X28395838Y-23369586D01*
X28456219Y-23515358D01*
X28487000Y-23670107D01*
X28487000Y-23827893D01*
X28456219Y-23982642D01*
X28395838Y-24128414D01*
X28395837Y-24128416D01*
X28308178Y-24259608D01*
X28196608Y-24371178D01*
X28065416Y-24458837D01*
X28065415Y-24458838D01*
X28065414Y-24458838D01*
X27919642Y-24519219D01*
X27764893Y-24550000D01*
X27607107Y-24550000D01*
X27452358Y-24519219D01*
X27306586Y-24458838D01*
X27306585Y-24458838D01*
X27306584Y-24458837D01*
X27175392Y-24371178D01*
X27063822Y-24259608D01*
X26976163Y-24128416D01*
X26976162Y-24128414D01*
X26915781Y-23982642D01*
X26885000Y-23827893D01*
X26885000Y-23670107D01*
X26915781Y-23515358D01*
X26976162Y-23369586D01*
X26976163Y-23369584D01*
X27063822Y-23238392D01*
X27175392Y-23126822D01*
X27306584Y-23039163D01*
X27306586Y-23039162D01*
X27452358Y-22978781D01*
X27607107Y-22948000D01*
X27764893Y-22948000D01*
X27919642Y-22978781D01*
G37*
G36*
X25379642Y-22978781D02*
G01*
X25525414Y-23039162D01*
X25525416Y-23039163D01*
X25656608Y-23126822D01*
X25768178Y-23238392D01*
X25855837Y-23369584D01*
X25855838Y-23369586D01*
X25916219Y-23515358D01*
X25947000Y-23670107D01*
X25947000Y-23827893D01*
X25916219Y-23982642D01*
X25855838Y-24128414D01*
X25855837Y-24128416D01*
X25768178Y-24259608D01*
X25656608Y-24371178D01*
X25525416Y-24458837D01*
X25525415Y-24458838D01*
X25525414Y-24458838D01*
X25379642Y-24519219D01*
X25224893Y-24550000D01*
X25067107Y-24550000D01*
X24912358Y-24519219D01*
X24766586Y-24458838D01*
X24766585Y-24458838D01*
X24766584Y-24458837D01*
X24635392Y-24371178D01*
X24523822Y-24259608D01*
X24436163Y-24128416D01*
X24436162Y-24128414D01*
X24375781Y-23982642D01*
X24345000Y-23827893D01*
X24345000Y-23670107D01*
X24375781Y-23515358D01*
X24436162Y-23369586D01*
X24436163Y-23369584D01*
X24523822Y-23238392D01*
X24635392Y-23126822D01*
X24766584Y-23039163D01*
X24766586Y-23039162D01*
X24912358Y-22978781D01*
X25067107Y-22948000D01*
X25224893Y-22948000D01*
X25379642Y-22978781D01*
G37*
G36*
X45699642Y-22978781D02*
G01*
X45845414Y-23039162D01*
X45845416Y-23039163D01*
X45976608Y-23126822D01*
X46088178Y-23238392D01*
X46175837Y-23369584D01*
X46175838Y-23369586D01*
X46236219Y-23515358D01*
X46267000Y-23670107D01*
X46267000Y-23827893D01*
X46236219Y-23982642D01*
X46175838Y-24128414D01*
X46175837Y-24128416D01*
X46088178Y-24259608D01*
X45976608Y-24371178D01*
X45845416Y-24458837D01*
X45845415Y-24458838D01*
X45845414Y-24458838D01*
X45699642Y-24519219D01*
X45544893Y-24550000D01*
X45387107Y-24550000D01*
X45232358Y-24519219D01*
X45086586Y-24458838D01*
X45086585Y-24458838D01*
X45086584Y-24458837D01*
X44955392Y-24371178D01*
X44843822Y-24259608D01*
X44756163Y-24128416D01*
X44756162Y-24128414D01*
X44695781Y-23982642D01*
X44665000Y-23827893D01*
X44665000Y-23670107D01*
X44695781Y-23515358D01*
X44756162Y-23369586D01*
X44756163Y-23369584D01*
X44843822Y-23238392D01*
X44955392Y-23126822D01*
X45086584Y-23039163D01*
X45086586Y-23039162D01*
X45232358Y-22978781D01*
X45387107Y-22948000D01*
X45544893Y-22948000D01*
X45699642Y-22978781D01*
G37*
G36*
X58568000Y-21895000D02*
G01*
X56942000Y-21895000D01*
X56942000Y-20269000D01*
X58568000Y-20269000D01*
X58568000Y-21895000D01*
G37*
G36*
X63072142Y-20300242D02*
G01*
X63220101Y-20361529D01*
X63353255Y-20450499D01*
X63466501Y-20563745D01*
X63555471Y-20696899D01*
X63616758Y-20844858D01*
X63648000Y-21001925D01*
X63648000Y-21162075D01*
X63616758Y-21319142D01*
X63555471Y-21467101D01*
X63466501Y-21600255D01*
X63353255Y-21713501D01*
X63220101Y-21802471D01*
X63072142Y-21863758D01*
X62915075Y-21895000D01*
X62754925Y-21895000D01*
X62597858Y-21863758D01*
X62449899Y-21802471D01*
X62316745Y-21713501D01*
X62203499Y-21600255D01*
X62114529Y-21467101D01*
X62053242Y-21319142D01*
X62022000Y-21162075D01*
X62022000Y-21001925D01*
X62053242Y-20844858D01*
X62114529Y-20696899D01*
X62203499Y-20563745D01*
X62316745Y-20450499D01*
X62449899Y-20361529D01*
X62597858Y-20300242D01*
X62754925Y-20269000D01*
X62915075Y-20269000D01*
X63072142Y-20300242D01*
G37*
G36*
X65612142Y-20300242D02*
G01*
X65760101Y-20361529D01*
X65893255Y-20450499D01*
X66006501Y-20563745D01*
X66095471Y-20696899D01*
X66156758Y-20844858D01*
X66188000Y-21001925D01*
X66188000Y-21162075D01*
X66156758Y-21319142D01*
X66095471Y-21467101D01*
X66006501Y-21600255D01*
X65893255Y-21713501D01*
X65760101Y-21802471D01*
X65612142Y-21863758D01*
X65455075Y-21895000D01*
X65294925Y-21895000D01*
X65137858Y-21863758D01*
X64989899Y-21802471D01*
X64856745Y-21713501D01*
X64743499Y-21600255D01*
X64654529Y-21467101D01*
X64593242Y-21319142D01*
X64562000Y-21162075D01*
X64562000Y-21001925D01*
X64593242Y-20844858D01*
X64654529Y-20696899D01*
X64743499Y-20563745D01*
X64856745Y-20450499D01*
X64989899Y-20361529D01*
X65137858Y-20300242D01*
X65294925Y-20269000D01*
X65455075Y-20269000D01*
X65612142Y-20300242D01*
G37*
G36*
X60532142Y-20300242D02*
G01*
X60680101Y-20361529D01*
X60813255Y-20450499D01*
X60926501Y-20563745D01*
X61015471Y-20696899D01*
X61076758Y-20844858D01*
X61108000Y-21001925D01*
X61108000Y-21162075D01*
X61076758Y-21319142D01*
X61015471Y-21467101D01*
X60926501Y-21600255D01*
X60813255Y-21713501D01*
X60680101Y-21802471D01*
X60532142Y-21863758D01*
X60375075Y-21895000D01*
X60214925Y-21895000D01*
X60057858Y-21863758D01*
X59909899Y-21802471D01*
X59776745Y-21713501D01*
X59663499Y-21600255D01*
X59574529Y-21467101D01*
X59513242Y-21319142D01*
X59482000Y-21162075D01*
X59482000Y-21001925D01*
X59513242Y-20844858D01*
X59574529Y-20696899D01*
X59663499Y-20563745D01*
X59776745Y-20450499D01*
X59909899Y-20361529D01*
X60057858Y-20300242D01*
X60214925Y-20269000D01*
X60375075Y-20269000D01*
X60532142Y-20300242D01*
G37*
M02*
