M48
; DRILL file {KiCad (5.1.5)-3} date 2020-04-24 22:51:42
; FORMAT={-:-/ absolute / inch / decimal}
; #@! TF.CreationDate,2020-04-24T22:51:42+02:00
; #@! TF.GenerationSoftware,Kicad,Pcbnew,(5.1.5)-3
; #@! TF.FileFunction,Plated,1,2,PTH
FMAT,2
INCH
T1C0.0157
T2C0.0300
T3C0.0315
T4C0.0394
T5C0.0433
T6C0.0512
%
G90
G05
T1
X0.92Y-1.735
X1.01Y-1.735
X1.27Y-1.265
X1.3Y-1.095
X1.33Y-1.375
X1.34Y-1.035
X1.36Y-2.255
X1.4Y-1.305
X1.43Y-0.995
X1.43Y-1.625
X1.45Y-1.475
X1.49Y-2.265
X1.52Y-1.425
X1.56Y-1.615
X1.57Y-2.055
X1.6Y-1.645
X1.61Y-1.695
X1.63Y-1.425
X1.63Y-1.475
X1.64Y-1.095
X1.74Y-1.035
X1.79Y-1.255
X2.25Y-2.305
X2.25Y-2.445
X2.72Y-2.305
X2.88Y-2.305
T2
X2.2738Y-0.83
X2.3738Y-0.83
X2.4738Y-0.83
X2.5738Y-0.83
X2.4004Y-1.475
X2.6996Y-1.475
T3
X2.97Y-3.005
X2.97Y-3.1034
X1.1475Y-1.9425
X1.1475Y-2.5425
X1.2475Y-1.9425
X1.2475Y-2.5425
X1.3475Y-1.9425
X1.3475Y-2.5425
X1.4475Y-1.9425
X1.4475Y-2.5425
X1.5475Y-1.9425
X1.5475Y-2.5425
X1.6475Y-1.9425
X1.6475Y-2.5425
X1.7475Y-1.9425
X1.7475Y-2.5425
X1.8475Y-1.9425
X1.8475Y-2.5425
X1.9475Y-1.9425
X1.9475Y-2.5425
X2.0475Y-1.9425
X2.0475Y-2.5425
X2.1475Y-1.9425
X2.1475Y-2.5425
X2.2475Y-1.9425
X2.2475Y-2.5425
X2.3475Y-1.9425
X2.3475Y-2.5425
X2.4475Y-1.9425
X2.4475Y-2.5425
X2.5475Y-1.9425
X2.5475Y-2.5425
X2.44Y-3.065
X2.44Y-3.1437
X1.49Y-3.165
X1.69Y-3.165
T4
X0.99Y-0.935
X0.99Y-1.535
X1.09Y-0.935
X1.09Y-1.535
X1.19Y-0.935
X1.19Y-1.535
X1.29Y-0.935
X1.29Y-1.535
X1.39Y-0.935
X1.39Y-1.535
X1.49Y-0.935
X1.49Y-1.535
X1.59Y-0.935
X1.59Y-1.535
X1.69Y-0.935
X1.69Y-1.535
X1.79Y-0.935
X1.79Y-1.535
T5
X1.69Y-3.325
X2.09Y-3.325
X2.49Y-2.845
X2.59Y-2.845
X2.69Y-2.845
T6
X1.135Y-2.87
X1.135Y-3.07
X1.135Y-3.27
T0
M30
