G04 #@! TF.GenerationSoftware,KiCad,Pcbnew,(5.1.5)-3*
G04 #@! TF.CreationDate,2020-05-01T20:08:20+02:00*
G04 #@! TF.ProjectId,czujnikParkowania,637a756a-6e69-46b5-9061-726b6f77616e,rev?*
G04 #@! TF.SameCoordinates,Original*
G04 #@! TF.FileFunction,Soldermask,Bot*
G04 #@! TF.FilePolarity,Negative*
%FSLAX46Y46*%
G04 Gerber Fmt 4.6, Leading zero omitted, Abs format (unit mm)*
G04 Created by KiCad (PCBNEW (5.1.5)-3) date 2020-05-01 20:08:20*
%MOMM*%
%LPD*%
G04 APERTURE LIST*
%ADD10C,0.100000*%
G04 APERTURE END LIST*
D10*
G36*
X54237000Y-85606000D02*
G01*
X51935000Y-85606000D01*
X51935000Y-83304000D01*
X54237000Y-83304000D01*
X54237000Y-85606000D01*
G37*
G36*
X43150549Y-83326116D02*
G01*
X43261734Y-83348232D01*
X43471203Y-83434997D01*
X43659720Y-83560960D01*
X43820040Y-83721280D01*
X43946003Y-83909797D01*
X44032768Y-84119266D01*
X44077000Y-84341636D01*
X44077000Y-84568364D01*
X44032768Y-84790734D01*
X43946003Y-85000203D01*
X43820040Y-85188720D01*
X43659720Y-85349040D01*
X43471203Y-85475003D01*
X43261734Y-85561768D01*
X43150549Y-85583884D01*
X43039365Y-85606000D01*
X42812635Y-85606000D01*
X42701451Y-85583884D01*
X42590266Y-85561768D01*
X42380797Y-85475003D01*
X42192280Y-85349040D01*
X42031960Y-85188720D01*
X41905997Y-85000203D01*
X41819232Y-84790734D01*
X41775000Y-84568364D01*
X41775000Y-84341636D01*
X41819232Y-84119266D01*
X41905997Y-83909797D01*
X42031960Y-83721280D01*
X42192280Y-83560960D01*
X42380797Y-83434997D01*
X42590266Y-83348232D01*
X42701451Y-83326116D01*
X42812635Y-83304000D01*
X43039365Y-83304000D01*
X43150549Y-83326116D01*
G37*
G36*
X30180000Y-84409000D02*
G01*
X27478000Y-84409000D01*
X27478000Y-81707000D01*
X30180000Y-81707000D01*
X30180000Y-84409000D01*
G37*
G36*
X75686228Y-79659703D02*
G01*
X75841100Y-79723853D01*
X75980481Y-79816985D01*
X76099015Y-79935519D01*
X76192147Y-80074900D01*
X76256297Y-80229772D01*
X76289000Y-80394184D01*
X76289000Y-80561816D01*
X76256297Y-80726228D01*
X76192147Y-80881100D01*
X76099015Y-81020481D01*
X75980481Y-81139015D01*
X75841100Y-81232147D01*
X75686228Y-81296297D01*
X75521816Y-81329000D01*
X75354184Y-81329000D01*
X75189772Y-81296297D01*
X75034900Y-81232147D01*
X74895519Y-81139015D01*
X74776985Y-81020481D01*
X74683853Y-80881100D01*
X74619703Y-80726228D01*
X74587000Y-80561816D01*
X74587000Y-80394184D01*
X74619703Y-80229772D01*
X74683853Y-80074900D01*
X74776985Y-79935519D01*
X74895519Y-79816985D01*
X75034900Y-79723853D01*
X75189772Y-79659703D01*
X75354184Y-79627000D01*
X75521816Y-79627000D01*
X75686228Y-79659703D01*
G37*
G36*
X38094228Y-79572703D02*
G01*
X38249100Y-79636853D01*
X38388481Y-79729985D01*
X38507015Y-79848519D01*
X38600147Y-79987900D01*
X38664297Y-80142772D01*
X38697000Y-80307184D01*
X38697000Y-80474816D01*
X38664297Y-80639228D01*
X38600147Y-80794100D01*
X38507015Y-80933481D01*
X38388481Y-81052015D01*
X38249100Y-81145147D01*
X38094228Y-81209297D01*
X37929816Y-81242000D01*
X37762184Y-81242000D01*
X37597772Y-81209297D01*
X37442900Y-81145147D01*
X37303519Y-81052015D01*
X37184985Y-80933481D01*
X37091853Y-80794100D01*
X37027703Y-80639228D01*
X36995000Y-80474816D01*
X36995000Y-80307184D01*
X37027703Y-80142772D01*
X37091853Y-79987900D01*
X37184985Y-79848519D01*
X37303519Y-79729985D01*
X37442900Y-79636853D01*
X37597772Y-79572703D01*
X37762184Y-79540000D01*
X37929816Y-79540000D01*
X38094228Y-79572703D01*
G37*
G36*
X43174228Y-79572703D02*
G01*
X43329100Y-79636853D01*
X43468481Y-79729985D01*
X43587015Y-79848519D01*
X43680147Y-79987900D01*
X43744297Y-80142772D01*
X43777000Y-80307184D01*
X43777000Y-80474816D01*
X43744297Y-80639228D01*
X43680147Y-80794100D01*
X43587015Y-80933481D01*
X43468481Y-81052015D01*
X43329100Y-81145147D01*
X43174228Y-81209297D01*
X43009816Y-81242000D01*
X42842184Y-81242000D01*
X42677772Y-81209297D01*
X42522900Y-81145147D01*
X42383519Y-81052015D01*
X42264985Y-80933481D01*
X42171853Y-80794100D01*
X42107703Y-80639228D01*
X42075000Y-80474816D01*
X42075000Y-80307184D01*
X42107703Y-80142772D01*
X42171853Y-79987900D01*
X42264985Y-79848519D01*
X42383519Y-79729985D01*
X42522900Y-79636853D01*
X42677772Y-79572703D01*
X42842184Y-79540000D01*
X43009816Y-79540000D01*
X43174228Y-79572703D01*
G37*
G36*
X62224228Y-79032703D02*
G01*
X62379100Y-79096853D01*
X62518481Y-79189985D01*
X62637015Y-79308519D01*
X62730147Y-79447900D01*
X62794297Y-79602772D01*
X62827000Y-79767184D01*
X62827000Y-79934816D01*
X62794297Y-80099228D01*
X62730147Y-80254100D01*
X62637015Y-80393481D01*
X62518481Y-80512015D01*
X62379100Y-80605147D01*
X62224228Y-80669297D01*
X62059816Y-80702000D01*
X61892184Y-80702000D01*
X61727772Y-80669297D01*
X61572900Y-80605147D01*
X61433519Y-80512015D01*
X61314985Y-80393481D01*
X61221853Y-80254100D01*
X61157703Y-80099228D01*
X61125000Y-79934816D01*
X61125000Y-79767184D01*
X61157703Y-79602772D01*
X61221853Y-79447900D01*
X61314985Y-79308519D01*
X61433519Y-79189985D01*
X61572900Y-79096853D01*
X61727772Y-79032703D01*
X61892184Y-79000000D01*
X62059816Y-79000000D01*
X62224228Y-79032703D01*
G37*
G36*
X29223072Y-76678918D02*
G01*
X29468939Y-76780759D01*
X29580328Y-76855187D01*
X29690211Y-76928609D01*
X29878391Y-77116789D01*
X30026242Y-77338063D01*
X30128082Y-77583928D01*
X30180000Y-77844937D01*
X30180000Y-78111063D01*
X30128082Y-78372072D01*
X30026242Y-78617937D01*
X29885214Y-78829000D01*
X29878390Y-78839212D01*
X29690212Y-79027390D01*
X29468939Y-79175241D01*
X29468938Y-79175242D01*
X29468937Y-79175242D01*
X29223072Y-79277082D01*
X28962063Y-79329000D01*
X28695937Y-79329000D01*
X28434928Y-79277082D01*
X28189063Y-79175242D01*
X28189062Y-79175242D01*
X28189061Y-79175241D01*
X27967788Y-79027390D01*
X27779610Y-78839212D01*
X27772787Y-78829000D01*
X27631758Y-78617937D01*
X27529918Y-78372072D01*
X27478000Y-78111063D01*
X27478000Y-77844937D01*
X27529918Y-77583928D01*
X27631758Y-77338063D01*
X27779609Y-77116789D01*
X27967789Y-76928609D01*
X28077672Y-76855187D01*
X28189061Y-76780759D01*
X28434928Y-76678918D01*
X28695937Y-76627000D01*
X28962063Y-76627000D01*
X29223072Y-76678918D01*
G37*
G36*
X76289000Y-78829000D02*
G01*
X74587000Y-78829000D01*
X74587000Y-77127000D01*
X76289000Y-77127000D01*
X76289000Y-78829000D01*
G37*
G36*
X62827000Y-78702000D02*
G01*
X61125000Y-78702000D01*
X61125000Y-77000000D01*
X62827000Y-77000000D01*
X62827000Y-78702000D01*
G37*
G36*
X29223072Y-71598918D02*
G01*
X29468939Y-71700759D01*
X29580328Y-71775187D01*
X29690211Y-71848609D01*
X29878391Y-72036789D01*
X30026242Y-72258063D01*
X30128082Y-72503928D01*
X30180000Y-72764938D01*
X30180000Y-73031062D01*
X30128082Y-73292072D01*
X30026241Y-73537939D01*
X29878390Y-73759212D01*
X29690212Y-73947390D01*
X29468939Y-74095241D01*
X29468938Y-74095242D01*
X29468937Y-74095242D01*
X29223072Y-74197082D01*
X28962063Y-74249000D01*
X28695937Y-74249000D01*
X28434928Y-74197082D01*
X28189063Y-74095242D01*
X28189062Y-74095242D01*
X28189061Y-74095241D01*
X27967788Y-73947390D01*
X27779610Y-73759212D01*
X27631759Y-73537939D01*
X27529918Y-73292072D01*
X27478000Y-73031062D01*
X27478000Y-72764938D01*
X27529918Y-72503928D01*
X27631758Y-72258063D01*
X27779609Y-72036789D01*
X27967789Y-71848609D01*
X28077672Y-71775187D01*
X28189061Y-71700759D01*
X28434928Y-71598918D01*
X28695937Y-71547000D01*
X28962063Y-71547000D01*
X29223072Y-71598918D01*
G37*
G36*
X68522719Y-71226520D02*
G01*
X68711880Y-71283901D01*
X68711883Y-71283902D01*
X68804333Y-71333318D01*
X68886212Y-71377083D01*
X69039015Y-71502485D01*
X69164417Y-71655288D01*
X69257599Y-71829619D01*
X69314980Y-72018780D01*
X69329500Y-72166206D01*
X69329500Y-72359793D01*
X69314980Y-72507219D01*
X69257599Y-72696380D01*
X69257598Y-72696383D01*
X69220955Y-72764937D01*
X69164417Y-72870712D01*
X69039015Y-73023515D01*
X68886212Y-73148917D01*
X68711881Y-73242099D01*
X68522720Y-73299480D01*
X68326000Y-73318855D01*
X68129281Y-73299480D01*
X67940120Y-73242099D01*
X67765788Y-73148917D01*
X67612985Y-73023515D01*
X67487583Y-72870712D01*
X67394401Y-72696381D01*
X67337020Y-72507220D01*
X67322500Y-72359794D01*
X67322500Y-72166207D01*
X67337020Y-72018781D01*
X67394401Y-71829620D01*
X67394402Y-71829617D01*
X67443818Y-71737167D01*
X67487583Y-71655288D01*
X67612985Y-71502485D01*
X67765788Y-71377083D01*
X67940119Y-71283901D01*
X68129280Y-71226520D01*
X68326000Y-71207145D01*
X68522719Y-71226520D01*
G37*
G36*
X65982719Y-71226520D02*
G01*
X66171880Y-71283901D01*
X66171883Y-71283902D01*
X66264333Y-71333318D01*
X66346212Y-71377083D01*
X66499015Y-71502485D01*
X66624417Y-71655288D01*
X66717599Y-71829619D01*
X66774980Y-72018780D01*
X66789500Y-72166206D01*
X66789500Y-72359793D01*
X66774980Y-72507219D01*
X66717599Y-72696380D01*
X66717598Y-72696383D01*
X66680955Y-72764937D01*
X66624417Y-72870712D01*
X66499015Y-73023515D01*
X66346212Y-73148917D01*
X66171881Y-73242099D01*
X65982720Y-73299480D01*
X65786000Y-73318855D01*
X65589281Y-73299480D01*
X65400120Y-73242099D01*
X65225788Y-73148917D01*
X65072985Y-73023515D01*
X64947583Y-72870712D01*
X64854401Y-72696381D01*
X64797020Y-72507220D01*
X64782500Y-72359794D01*
X64782500Y-72166207D01*
X64797020Y-72018781D01*
X64854401Y-71829620D01*
X64854402Y-71829617D01*
X64903818Y-71737167D01*
X64947583Y-71655288D01*
X65072985Y-71502485D01*
X65225788Y-71377083D01*
X65400119Y-71283901D01*
X65589280Y-71226520D01*
X65786000Y-71207145D01*
X65982719Y-71226520D01*
G37*
G36*
X64249500Y-73314000D02*
G01*
X62242500Y-73314000D01*
X62242500Y-71212000D01*
X64249500Y-71212000D01*
X64249500Y-73314000D01*
G37*
G36*
X25947000Y-39790000D02*
G01*
X24345000Y-39790000D01*
X24345000Y-38188000D01*
X25947000Y-38188000D01*
X25947000Y-39790000D01*
G37*
G36*
X27919642Y-38218781D02*
G01*
X28065414Y-38279162D01*
X28065416Y-38279163D01*
X28196608Y-38366822D01*
X28308178Y-38478392D01*
X28395837Y-38609584D01*
X28395838Y-38609586D01*
X28456219Y-38755358D01*
X28487000Y-38910107D01*
X28487000Y-39067893D01*
X28456219Y-39222642D01*
X28395838Y-39368414D01*
X28395837Y-39368416D01*
X28308178Y-39499608D01*
X28196608Y-39611178D01*
X28065416Y-39698837D01*
X28065415Y-39698838D01*
X28065414Y-39698838D01*
X27919642Y-39759219D01*
X27764893Y-39790000D01*
X27607107Y-39790000D01*
X27452358Y-39759219D01*
X27306586Y-39698838D01*
X27306585Y-39698838D01*
X27306584Y-39698837D01*
X27175392Y-39611178D01*
X27063822Y-39499608D01*
X26976163Y-39368416D01*
X26976162Y-39368414D01*
X26915781Y-39222642D01*
X26885000Y-39067893D01*
X26885000Y-38910107D01*
X26915781Y-38755358D01*
X26976162Y-38609586D01*
X26976163Y-38609584D01*
X27063822Y-38478392D01*
X27175392Y-38366822D01*
X27306584Y-38279163D01*
X27306586Y-38279162D01*
X27452358Y-38218781D01*
X27607107Y-38188000D01*
X27764893Y-38188000D01*
X27919642Y-38218781D01*
G37*
G36*
X30459642Y-38218781D02*
G01*
X30605414Y-38279162D01*
X30605416Y-38279163D01*
X30736608Y-38366822D01*
X30848178Y-38478392D01*
X30935837Y-38609584D01*
X30935838Y-38609586D01*
X30996219Y-38755358D01*
X31027000Y-38910107D01*
X31027000Y-39067893D01*
X30996219Y-39222642D01*
X30935838Y-39368414D01*
X30935837Y-39368416D01*
X30848178Y-39499608D01*
X30736608Y-39611178D01*
X30605416Y-39698837D01*
X30605415Y-39698838D01*
X30605414Y-39698838D01*
X30459642Y-39759219D01*
X30304893Y-39790000D01*
X30147107Y-39790000D01*
X29992358Y-39759219D01*
X29846586Y-39698838D01*
X29846585Y-39698838D01*
X29846584Y-39698837D01*
X29715392Y-39611178D01*
X29603822Y-39499608D01*
X29516163Y-39368416D01*
X29516162Y-39368414D01*
X29455781Y-39222642D01*
X29425000Y-39067893D01*
X29425000Y-38910107D01*
X29455781Y-38755358D01*
X29516162Y-38609586D01*
X29516163Y-38609584D01*
X29603822Y-38478392D01*
X29715392Y-38366822D01*
X29846584Y-38279163D01*
X29846586Y-38279162D01*
X29992358Y-38218781D01*
X30147107Y-38188000D01*
X30304893Y-38188000D01*
X30459642Y-38218781D01*
G37*
G36*
X32999642Y-38218781D02*
G01*
X33145414Y-38279162D01*
X33145416Y-38279163D01*
X33276608Y-38366822D01*
X33388178Y-38478392D01*
X33475837Y-38609584D01*
X33475838Y-38609586D01*
X33536219Y-38755358D01*
X33567000Y-38910107D01*
X33567000Y-39067893D01*
X33536219Y-39222642D01*
X33475838Y-39368414D01*
X33475837Y-39368416D01*
X33388178Y-39499608D01*
X33276608Y-39611178D01*
X33145416Y-39698837D01*
X33145415Y-39698838D01*
X33145414Y-39698838D01*
X32999642Y-39759219D01*
X32844893Y-39790000D01*
X32687107Y-39790000D01*
X32532358Y-39759219D01*
X32386586Y-39698838D01*
X32386585Y-39698838D01*
X32386584Y-39698837D01*
X32255392Y-39611178D01*
X32143822Y-39499608D01*
X32056163Y-39368416D01*
X32056162Y-39368414D01*
X31995781Y-39222642D01*
X31965000Y-39067893D01*
X31965000Y-38910107D01*
X31995781Y-38755358D01*
X32056162Y-38609586D01*
X32056163Y-38609584D01*
X32143822Y-38478392D01*
X32255392Y-38366822D01*
X32386584Y-38279163D01*
X32386586Y-38279162D01*
X32532358Y-38218781D01*
X32687107Y-38188000D01*
X32844893Y-38188000D01*
X32999642Y-38218781D01*
G37*
G36*
X38079642Y-38218781D02*
G01*
X38225414Y-38279162D01*
X38225416Y-38279163D01*
X38356608Y-38366822D01*
X38468178Y-38478392D01*
X38555837Y-38609584D01*
X38555838Y-38609586D01*
X38616219Y-38755358D01*
X38647000Y-38910107D01*
X38647000Y-39067893D01*
X38616219Y-39222642D01*
X38555838Y-39368414D01*
X38555837Y-39368416D01*
X38468178Y-39499608D01*
X38356608Y-39611178D01*
X38225416Y-39698837D01*
X38225415Y-39698838D01*
X38225414Y-39698838D01*
X38079642Y-39759219D01*
X37924893Y-39790000D01*
X37767107Y-39790000D01*
X37612358Y-39759219D01*
X37466586Y-39698838D01*
X37466585Y-39698838D01*
X37466584Y-39698837D01*
X37335392Y-39611178D01*
X37223822Y-39499608D01*
X37136163Y-39368416D01*
X37136162Y-39368414D01*
X37075781Y-39222642D01*
X37045000Y-39067893D01*
X37045000Y-38910107D01*
X37075781Y-38755358D01*
X37136162Y-38609586D01*
X37136163Y-38609584D01*
X37223822Y-38478392D01*
X37335392Y-38366822D01*
X37466584Y-38279163D01*
X37466586Y-38279162D01*
X37612358Y-38218781D01*
X37767107Y-38188000D01*
X37924893Y-38188000D01*
X38079642Y-38218781D01*
G37*
G36*
X40619642Y-38218781D02*
G01*
X40765414Y-38279162D01*
X40765416Y-38279163D01*
X40896608Y-38366822D01*
X41008178Y-38478392D01*
X41095837Y-38609584D01*
X41095838Y-38609586D01*
X41156219Y-38755358D01*
X41187000Y-38910107D01*
X41187000Y-39067893D01*
X41156219Y-39222642D01*
X41095838Y-39368414D01*
X41095837Y-39368416D01*
X41008178Y-39499608D01*
X40896608Y-39611178D01*
X40765416Y-39698837D01*
X40765415Y-39698838D01*
X40765414Y-39698838D01*
X40619642Y-39759219D01*
X40464893Y-39790000D01*
X40307107Y-39790000D01*
X40152358Y-39759219D01*
X40006586Y-39698838D01*
X40006585Y-39698838D01*
X40006584Y-39698837D01*
X39875392Y-39611178D01*
X39763822Y-39499608D01*
X39676163Y-39368416D01*
X39676162Y-39368414D01*
X39615781Y-39222642D01*
X39585000Y-39067893D01*
X39585000Y-38910107D01*
X39615781Y-38755358D01*
X39676162Y-38609586D01*
X39676163Y-38609584D01*
X39763822Y-38478392D01*
X39875392Y-38366822D01*
X40006584Y-38279163D01*
X40006586Y-38279162D01*
X40152358Y-38218781D01*
X40307107Y-38188000D01*
X40464893Y-38188000D01*
X40619642Y-38218781D01*
G37*
G36*
X43159642Y-38218781D02*
G01*
X43305414Y-38279162D01*
X43305416Y-38279163D01*
X43436608Y-38366822D01*
X43548178Y-38478392D01*
X43635837Y-38609584D01*
X43635838Y-38609586D01*
X43696219Y-38755358D01*
X43727000Y-38910107D01*
X43727000Y-39067893D01*
X43696219Y-39222642D01*
X43635838Y-39368414D01*
X43635837Y-39368416D01*
X43548178Y-39499608D01*
X43436608Y-39611178D01*
X43305416Y-39698837D01*
X43305415Y-39698838D01*
X43305414Y-39698838D01*
X43159642Y-39759219D01*
X43004893Y-39790000D01*
X42847107Y-39790000D01*
X42692358Y-39759219D01*
X42546586Y-39698838D01*
X42546585Y-39698838D01*
X42546584Y-39698837D01*
X42415392Y-39611178D01*
X42303822Y-39499608D01*
X42216163Y-39368416D01*
X42216162Y-39368414D01*
X42155781Y-39222642D01*
X42125000Y-39067893D01*
X42125000Y-38910107D01*
X42155781Y-38755358D01*
X42216162Y-38609586D01*
X42216163Y-38609584D01*
X42303822Y-38478392D01*
X42415392Y-38366822D01*
X42546584Y-38279163D01*
X42546586Y-38279162D01*
X42692358Y-38218781D01*
X42847107Y-38188000D01*
X43004893Y-38188000D01*
X43159642Y-38218781D01*
G37*
G36*
X45699642Y-38218781D02*
G01*
X45845414Y-38279162D01*
X45845416Y-38279163D01*
X45976608Y-38366822D01*
X46088178Y-38478392D01*
X46175837Y-38609584D01*
X46175838Y-38609586D01*
X46236219Y-38755358D01*
X46267000Y-38910107D01*
X46267000Y-39067893D01*
X46236219Y-39222642D01*
X46175838Y-39368414D01*
X46175837Y-39368416D01*
X46088178Y-39499608D01*
X45976608Y-39611178D01*
X45845416Y-39698837D01*
X45845415Y-39698838D01*
X45845414Y-39698838D01*
X45699642Y-39759219D01*
X45544893Y-39790000D01*
X45387107Y-39790000D01*
X45232358Y-39759219D01*
X45086586Y-39698838D01*
X45086585Y-39698838D01*
X45086584Y-39698837D01*
X44955392Y-39611178D01*
X44843822Y-39499608D01*
X44756163Y-39368416D01*
X44756162Y-39368414D01*
X44695781Y-39222642D01*
X44665000Y-39067893D01*
X44665000Y-38910107D01*
X44695781Y-38755358D01*
X44756162Y-38609586D01*
X44756163Y-38609584D01*
X44843822Y-38478392D01*
X44955392Y-38366822D01*
X45086584Y-38279163D01*
X45086586Y-38279162D01*
X45232358Y-38218781D01*
X45387107Y-38188000D01*
X45544893Y-38188000D01*
X45699642Y-38218781D01*
G37*
G36*
X35539642Y-38218781D02*
G01*
X35685414Y-38279162D01*
X35685416Y-38279163D01*
X35816608Y-38366822D01*
X35928178Y-38478392D01*
X36015837Y-38609584D01*
X36015838Y-38609586D01*
X36076219Y-38755358D01*
X36107000Y-38910107D01*
X36107000Y-39067893D01*
X36076219Y-39222642D01*
X36015838Y-39368414D01*
X36015837Y-39368416D01*
X35928178Y-39499608D01*
X35816608Y-39611178D01*
X35685416Y-39698837D01*
X35685415Y-39698838D01*
X35685414Y-39698838D01*
X35539642Y-39759219D01*
X35384893Y-39790000D01*
X35227107Y-39790000D01*
X35072358Y-39759219D01*
X34926586Y-39698838D01*
X34926585Y-39698838D01*
X34926584Y-39698837D01*
X34795392Y-39611178D01*
X34683822Y-39499608D01*
X34596163Y-39368416D01*
X34596162Y-39368414D01*
X34535781Y-39222642D01*
X34505000Y-39067893D01*
X34505000Y-38910107D01*
X34535781Y-38755358D01*
X34596162Y-38609586D01*
X34596163Y-38609584D01*
X34683822Y-38478392D01*
X34795392Y-38366822D01*
X34926584Y-38279163D01*
X34926586Y-38279162D01*
X35072358Y-38218781D01*
X35227107Y-38188000D01*
X35384893Y-38188000D01*
X35539642Y-38218781D01*
G37*
G36*
X69383000Y-38278000D02*
G01*
X67757000Y-38278000D01*
X67757000Y-36652000D01*
X69383000Y-36652000D01*
X69383000Y-38278000D01*
G37*
G36*
X61207142Y-36683242D02*
G01*
X61355101Y-36744529D01*
X61488255Y-36833499D01*
X61601501Y-36946745D01*
X61690471Y-37079899D01*
X61751758Y-37227858D01*
X61783000Y-37384925D01*
X61783000Y-37545075D01*
X61751758Y-37702142D01*
X61690471Y-37850101D01*
X61601501Y-37983255D01*
X61488255Y-38096501D01*
X61355101Y-38185471D01*
X61207142Y-38246758D01*
X61050075Y-38278000D01*
X60889925Y-38278000D01*
X60732858Y-38246758D01*
X60584899Y-38185471D01*
X60451745Y-38096501D01*
X60338499Y-37983255D01*
X60249529Y-37850101D01*
X60188242Y-37702142D01*
X60157000Y-37545075D01*
X60157000Y-37384925D01*
X60188242Y-37227858D01*
X60249529Y-37079899D01*
X60338499Y-36946745D01*
X60451745Y-36833499D01*
X60584899Y-36744529D01*
X60732858Y-36683242D01*
X60889925Y-36652000D01*
X61050075Y-36652000D01*
X61207142Y-36683242D01*
G37*
G36*
X40619642Y-22978781D02*
G01*
X40765414Y-23039162D01*
X40765416Y-23039163D01*
X40896608Y-23126822D01*
X41008178Y-23238392D01*
X41095837Y-23369584D01*
X41095838Y-23369586D01*
X41156219Y-23515358D01*
X41187000Y-23670107D01*
X41187000Y-23827893D01*
X41156219Y-23982642D01*
X41095838Y-24128414D01*
X41095837Y-24128416D01*
X41008178Y-24259608D01*
X40896608Y-24371178D01*
X40765416Y-24458837D01*
X40765415Y-24458838D01*
X40765414Y-24458838D01*
X40619642Y-24519219D01*
X40464893Y-24550000D01*
X40307107Y-24550000D01*
X40152358Y-24519219D01*
X40006586Y-24458838D01*
X40006585Y-24458838D01*
X40006584Y-24458837D01*
X39875392Y-24371178D01*
X39763822Y-24259608D01*
X39676163Y-24128416D01*
X39676162Y-24128414D01*
X39615781Y-23982642D01*
X39585000Y-23827893D01*
X39585000Y-23670107D01*
X39615781Y-23515358D01*
X39676162Y-23369586D01*
X39676163Y-23369584D01*
X39763822Y-23238392D01*
X39875392Y-23126822D01*
X40006584Y-23039163D01*
X40006586Y-23039162D01*
X40152358Y-22978781D01*
X40307107Y-22948000D01*
X40464893Y-22948000D01*
X40619642Y-22978781D01*
G37*
G36*
X38079642Y-22978781D02*
G01*
X38225414Y-23039162D01*
X38225416Y-23039163D01*
X38356608Y-23126822D01*
X38468178Y-23238392D01*
X38555837Y-23369584D01*
X38555838Y-23369586D01*
X38616219Y-23515358D01*
X38647000Y-23670107D01*
X38647000Y-23827893D01*
X38616219Y-23982642D01*
X38555838Y-24128414D01*
X38555837Y-24128416D01*
X38468178Y-24259608D01*
X38356608Y-24371178D01*
X38225416Y-24458837D01*
X38225415Y-24458838D01*
X38225414Y-24458838D01*
X38079642Y-24519219D01*
X37924893Y-24550000D01*
X37767107Y-24550000D01*
X37612358Y-24519219D01*
X37466586Y-24458838D01*
X37466585Y-24458838D01*
X37466584Y-24458837D01*
X37335392Y-24371178D01*
X37223822Y-24259608D01*
X37136163Y-24128416D01*
X37136162Y-24128414D01*
X37075781Y-23982642D01*
X37045000Y-23827893D01*
X37045000Y-23670107D01*
X37075781Y-23515358D01*
X37136162Y-23369586D01*
X37136163Y-23369584D01*
X37223822Y-23238392D01*
X37335392Y-23126822D01*
X37466584Y-23039163D01*
X37466586Y-23039162D01*
X37612358Y-22978781D01*
X37767107Y-22948000D01*
X37924893Y-22948000D01*
X38079642Y-22978781D01*
G37*
G36*
X35539642Y-22978781D02*
G01*
X35685414Y-23039162D01*
X35685416Y-23039163D01*
X35816608Y-23126822D01*
X35928178Y-23238392D01*
X36015837Y-23369584D01*
X36015838Y-23369586D01*
X36076219Y-23515358D01*
X36107000Y-23670107D01*
X36107000Y-23827893D01*
X36076219Y-23982642D01*
X36015838Y-24128414D01*
X36015837Y-24128416D01*
X35928178Y-24259608D01*
X35816608Y-24371178D01*
X35685416Y-24458837D01*
X35685415Y-24458838D01*
X35685414Y-24458838D01*
X35539642Y-24519219D01*
X35384893Y-24550000D01*
X35227107Y-24550000D01*
X35072358Y-24519219D01*
X34926586Y-24458838D01*
X34926585Y-24458838D01*
X34926584Y-24458837D01*
X34795392Y-24371178D01*
X34683822Y-24259608D01*
X34596163Y-24128416D01*
X34596162Y-24128414D01*
X34535781Y-23982642D01*
X34505000Y-23827893D01*
X34505000Y-23670107D01*
X34535781Y-23515358D01*
X34596162Y-23369586D01*
X34596163Y-23369584D01*
X34683822Y-23238392D01*
X34795392Y-23126822D01*
X34926584Y-23039163D01*
X34926586Y-23039162D01*
X35072358Y-22978781D01*
X35227107Y-22948000D01*
X35384893Y-22948000D01*
X35539642Y-22978781D01*
G37*
G36*
X32999642Y-22978781D02*
G01*
X33145414Y-23039162D01*
X33145416Y-23039163D01*
X33276608Y-23126822D01*
X33388178Y-23238392D01*
X33475837Y-23369584D01*
X33475838Y-23369586D01*
X33536219Y-23515358D01*
X33567000Y-23670107D01*
X33567000Y-23827893D01*
X33536219Y-23982642D01*
X33475838Y-24128414D01*
X33475837Y-24128416D01*
X33388178Y-24259608D01*
X33276608Y-24371178D01*
X33145416Y-24458837D01*
X33145415Y-24458838D01*
X33145414Y-24458838D01*
X32999642Y-24519219D01*
X32844893Y-24550000D01*
X32687107Y-24550000D01*
X32532358Y-24519219D01*
X32386586Y-24458838D01*
X32386585Y-24458838D01*
X32386584Y-24458837D01*
X32255392Y-24371178D01*
X32143822Y-24259608D01*
X32056163Y-24128416D01*
X32056162Y-24128414D01*
X31995781Y-23982642D01*
X31965000Y-23827893D01*
X31965000Y-23670107D01*
X31995781Y-23515358D01*
X32056162Y-23369586D01*
X32056163Y-23369584D01*
X32143822Y-23238392D01*
X32255392Y-23126822D01*
X32386584Y-23039163D01*
X32386586Y-23039162D01*
X32532358Y-22978781D01*
X32687107Y-22948000D01*
X32844893Y-22948000D01*
X32999642Y-22978781D01*
G37*
G36*
X30459642Y-22978781D02*
G01*
X30605414Y-23039162D01*
X30605416Y-23039163D01*
X30736608Y-23126822D01*
X30848178Y-23238392D01*
X30935837Y-23369584D01*
X30935838Y-23369586D01*
X30996219Y-23515358D01*
X31027000Y-23670107D01*
X31027000Y-23827893D01*
X30996219Y-23982642D01*
X30935838Y-24128414D01*
X30935837Y-24128416D01*
X30848178Y-24259608D01*
X30736608Y-24371178D01*
X30605416Y-24458837D01*
X30605415Y-24458838D01*
X30605414Y-24458838D01*
X30459642Y-24519219D01*
X30304893Y-24550000D01*
X30147107Y-24550000D01*
X29992358Y-24519219D01*
X29846586Y-24458838D01*
X29846585Y-24458838D01*
X29846584Y-24458837D01*
X29715392Y-24371178D01*
X29603822Y-24259608D01*
X29516163Y-24128416D01*
X29516162Y-24128414D01*
X29455781Y-23982642D01*
X29425000Y-23827893D01*
X29425000Y-23670107D01*
X29455781Y-23515358D01*
X29516162Y-23369586D01*
X29516163Y-23369584D01*
X29603822Y-23238392D01*
X29715392Y-23126822D01*
X29846584Y-23039163D01*
X29846586Y-23039162D01*
X29992358Y-22978781D01*
X30147107Y-22948000D01*
X30304893Y-22948000D01*
X30459642Y-22978781D01*
G37*
G36*
X25379642Y-22978781D02*
G01*
X25525414Y-23039162D01*
X25525416Y-23039163D01*
X25656608Y-23126822D01*
X25768178Y-23238392D01*
X25855837Y-23369584D01*
X25855838Y-23369586D01*
X25916219Y-23515358D01*
X25947000Y-23670107D01*
X25947000Y-23827893D01*
X25916219Y-23982642D01*
X25855838Y-24128414D01*
X25855837Y-24128416D01*
X25768178Y-24259608D01*
X25656608Y-24371178D01*
X25525416Y-24458837D01*
X25525415Y-24458838D01*
X25525414Y-24458838D01*
X25379642Y-24519219D01*
X25224893Y-24550000D01*
X25067107Y-24550000D01*
X24912358Y-24519219D01*
X24766586Y-24458838D01*
X24766585Y-24458838D01*
X24766584Y-24458837D01*
X24635392Y-24371178D01*
X24523822Y-24259608D01*
X24436163Y-24128416D01*
X24436162Y-24128414D01*
X24375781Y-23982642D01*
X24345000Y-23827893D01*
X24345000Y-23670107D01*
X24375781Y-23515358D01*
X24436162Y-23369586D01*
X24436163Y-23369584D01*
X24523822Y-23238392D01*
X24635392Y-23126822D01*
X24766584Y-23039163D01*
X24766586Y-23039162D01*
X24912358Y-22978781D01*
X25067107Y-22948000D01*
X25224893Y-22948000D01*
X25379642Y-22978781D01*
G37*
G36*
X43159642Y-22978781D02*
G01*
X43305414Y-23039162D01*
X43305416Y-23039163D01*
X43436608Y-23126822D01*
X43548178Y-23238392D01*
X43635837Y-23369584D01*
X43635838Y-23369586D01*
X43696219Y-23515358D01*
X43727000Y-23670107D01*
X43727000Y-23827893D01*
X43696219Y-23982642D01*
X43635838Y-24128414D01*
X43635837Y-24128416D01*
X43548178Y-24259608D01*
X43436608Y-24371178D01*
X43305416Y-24458837D01*
X43305415Y-24458838D01*
X43305414Y-24458838D01*
X43159642Y-24519219D01*
X43004893Y-24550000D01*
X42847107Y-24550000D01*
X42692358Y-24519219D01*
X42546586Y-24458838D01*
X42546585Y-24458838D01*
X42546584Y-24458837D01*
X42415392Y-24371178D01*
X42303822Y-24259608D01*
X42216163Y-24128416D01*
X42216162Y-24128414D01*
X42155781Y-23982642D01*
X42125000Y-23827893D01*
X42125000Y-23670107D01*
X42155781Y-23515358D01*
X42216162Y-23369586D01*
X42216163Y-23369584D01*
X42303822Y-23238392D01*
X42415392Y-23126822D01*
X42546584Y-23039163D01*
X42546586Y-23039162D01*
X42692358Y-22978781D01*
X42847107Y-22948000D01*
X43004893Y-22948000D01*
X43159642Y-22978781D01*
G37*
G36*
X45699642Y-22978781D02*
G01*
X45845414Y-23039162D01*
X45845416Y-23039163D01*
X45976608Y-23126822D01*
X46088178Y-23238392D01*
X46175837Y-23369584D01*
X46175838Y-23369586D01*
X46236219Y-23515358D01*
X46267000Y-23670107D01*
X46267000Y-23827893D01*
X46236219Y-23982642D01*
X46175838Y-24128414D01*
X46175837Y-24128416D01*
X46088178Y-24259608D01*
X45976608Y-24371178D01*
X45845416Y-24458837D01*
X45845415Y-24458838D01*
X45845414Y-24458838D01*
X45699642Y-24519219D01*
X45544893Y-24550000D01*
X45387107Y-24550000D01*
X45232358Y-24519219D01*
X45086586Y-24458838D01*
X45086585Y-24458838D01*
X45086584Y-24458837D01*
X44955392Y-24371178D01*
X44843822Y-24259608D01*
X44756163Y-24128416D01*
X44756162Y-24128414D01*
X44695781Y-23982642D01*
X44665000Y-23827893D01*
X44665000Y-23670107D01*
X44695781Y-23515358D01*
X44756162Y-23369586D01*
X44756163Y-23369584D01*
X44843822Y-23238392D01*
X44955392Y-23126822D01*
X45086584Y-23039163D01*
X45086586Y-23039162D01*
X45232358Y-22978781D01*
X45387107Y-22948000D01*
X45544893Y-22948000D01*
X45699642Y-22978781D01*
G37*
G36*
X27919642Y-22978781D02*
G01*
X28065414Y-23039162D01*
X28065416Y-23039163D01*
X28196608Y-23126822D01*
X28308178Y-23238392D01*
X28395837Y-23369584D01*
X28395838Y-23369586D01*
X28456219Y-23515358D01*
X28487000Y-23670107D01*
X28487000Y-23827893D01*
X28456219Y-23982642D01*
X28395838Y-24128414D01*
X28395837Y-24128416D01*
X28308178Y-24259608D01*
X28196608Y-24371178D01*
X28065416Y-24458837D01*
X28065415Y-24458838D01*
X28065414Y-24458838D01*
X27919642Y-24519219D01*
X27764893Y-24550000D01*
X27607107Y-24550000D01*
X27452358Y-24519219D01*
X27306586Y-24458838D01*
X27306585Y-24458838D01*
X27306584Y-24458837D01*
X27175392Y-24371178D01*
X27063822Y-24259608D01*
X26976163Y-24128416D01*
X26976162Y-24128414D01*
X26915781Y-23982642D01*
X26885000Y-23827893D01*
X26885000Y-23670107D01*
X26915781Y-23515358D01*
X26976162Y-23369586D01*
X26976163Y-23369584D01*
X27063822Y-23238392D01*
X27175392Y-23126822D01*
X27306584Y-23039163D01*
X27306586Y-23039162D01*
X27452358Y-22978781D01*
X27607107Y-22948000D01*
X27764893Y-22948000D01*
X27919642Y-22978781D01*
G37*
G36*
X58568000Y-21895000D02*
G01*
X56942000Y-21895000D01*
X56942000Y-20269000D01*
X58568000Y-20269000D01*
X58568000Y-21895000D01*
G37*
G36*
X63072142Y-20300242D02*
G01*
X63220101Y-20361529D01*
X63353255Y-20450499D01*
X63466501Y-20563745D01*
X63555471Y-20696899D01*
X63616758Y-20844858D01*
X63648000Y-21001925D01*
X63648000Y-21162075D01*
X63616758Y-21319142D01*
X63555471Y-21467101D01*
X63466501Y-21600255D01*
X63353255Y-21713501D01*
X63220101Y-21802471D01*
X63072142Y-21863758D01*
X62915075Y-21895000D01*
X62754925Y-21895000D01*
X62597858Y-21863758D01*
X62449899Y-21802471D01*
X62316745Y-21713501D01*
X62203499Y-21600255D01*
X62114529Y-21467101D01*
X62053242Y-21319142D01*
X62022000Y-21162075D01*
X62022000Y-21001925D01*
X62053242Y-20844858D01*
X62114529Y-20696899D01*
X62203499Y-20563745D01*
X62316745Y-20450499D01*
X62449899Y-20361529D01*
X62597858Y-20300242D01*
X62754925Y-20269000D01*
X62915075Y-20269000D01*
X63072142Y-20300242D01*
G37*
G36*
X65612142Y-20300242D02*
G01*
X65760101Y-20361529D01*
X65893255Y-20450499D01*
X66006501Y-20563745D01*
X66095471Y-20696899D01*
X66156758Y-20844858D01*
X66188000Y-21001925D01*
X66188000Y-21162075D01*
X66156758Y-21319142D01*
X66095471Y-21467101D01*
X66006501Y-21600255D01*
X65893255Y-21713501D01*
X65760101Y-21802471D01*
X65612142Y-21863758D01*
X65455075Y-21895000D01*
X65294925Y-21895000D01*
X65137858Y-21863758D01*
X64989899Y-21802471D01*
X64856745Y-21713501D01*
X64743499Y-21600255D01*
X64654529Y-21467101D01*
X64593242Y-21319142D01*
X64562000Y-21162075D01*
X64562000Y-21001925D01*
X64593242Y-20844858D01*
X64654529Y-20696899D01*
X64743499Y-20563745D01*
X64856745Y-20450499D01*
X64989899Y-20361529D01*
X65137858Y-20300242D01*
X65294925Y-20269000D01*
X65455075Y-20269000D01*
X65612142Y-20300242D01*
G37*
G36*
X60532142Y-20300242D02*
G01*
X60680101Y-20361529D01*
X60813255Y-20450499D01*
X60926501Y-20563745D01*
X61015471Y-20696899D01*
X61076758Y-20844858D01*
X61108000Y-21001925D01*
X61108000Y-21162075D01*
X61076758Y-21319142D01*
X61015471Y-21467101D01*
X60926501Y-21600255D01*
X60813255Y-21713501D01*
X60680101Y-21802471D01*
X60532142Y-21863758D01*
X60375075Y-21895000D01*
X60214925Y-21895000D01*
X60057858Y-21863758D01*
X59909899Y-21802471D01*
X59776745Y-21713501D01*
X59663499Y-21600255D01*
X59574529Y-21467101D01*
X59513242Y-21319142D01*
X59482000Y-21162075D01*
X59482000Y-21001925D01*
X59513242Y-20844858D01*
X59574529Y-20696899D01*
X59663499Y-20563745D01*
X59776745Y-20450499D01*
X59909899Y-20361529D01*
X60057858Y-20300242D01*
X60214925Y-20269000D01*
X60375075Y-20269000D01*
X60532142Y-20300242D01*
G37*
M02*
