G04 #@! TF.GenerationSoftware,KiCad,Pcbnew,(5.1.5)-3*
G04 #@! TF.CreationDate,2020-04-26T21:59:09+02:00*
G04 #@! TF.ProjectId,czujnikParkowania,637a756a-6e69-46b5-9061-726b6f77616e,rev?*
G04 #@! TF.SameCoordinates,Original*
G04 #@! TF.FileFunction,Copper,L2,Bot*
G04 #@! TF.FilePolarity,Positive*
%FSLAX46Y46*%
G04 Gerber Fmt 4.6, Leading zero omitted, Abs format (unit mm)*
G04 Created by KiCad (PCBNEW (5.1.5)-3) date 2020-04-26 21:59:09*
%MOMM*%
%LPD*%
G04 APERTURE LIST*
%ADD10R,1.600000X1.600000*%
%ADD11O,1.600000X1.600000*%
%ADD12R,1.500000X1.500000*%
%ADD13C,1.500000*%
%ADD14C,1.524000*%
%ADD15R,1.524000X1.524000*%
%ADD16C,1.600000*%
%ADD17R,2.200000X2.200000*%
%ADD18O,2.200000X2.200000*%
%ADD19R,2.600000X2.600000*%
%ADD20C,2.600000*%
%ADD21R,1.905000X2.000000*%
%ADD22O,1.905000X2.000000*%
%ADD23C,0.800000*%
%ADD24C,0.250000*%
%ADD25C,0.500000*%
G04 APERTURE END LIST*
D10*
X56705500Y-51371500D03*
D11*
X23685500Y-66611500D03*
X54165500Y-51371500D03*
X26225500Y-66611500D03*
X51625500Y-51371500D03*
X28765500Y-66611500D03*
X49085500Y-51371500D03*
X31305500Y-66611500D03*
X46545500Y-51371500D03*
X33845500Y-66611500D03*
X44005500Y-51371500D03*
X36385500Y-66611500D03*
X41465500Y-51371500D03*
X38925500Y-66611500D03*
X38925500Y-51371500D03*
X41465500Y-66611500D03*
X36385500Y-51371500D03*
X44005500Y-66611500D03*
X33845500Y-51371500D03*
X46545500Y-66611500D03*
X31305500Y-51371500D03*
X49085500Y-66611500D03*
X28765500Y-51371500D03*
X51625500Y-66611500D03*
X26225500Y-51371500D03*
X54165500Y-66611500D03*
X23685500Y-51371500D03*
X56705500Y-66611500D03*
X21145500Y-51371500D03*
X21145500Y-66611500D03*
D12*
X25146000Y-38989000D03*
D13*
X27686000Y-38989000D03*
X30226000Y-38989000D03*
X32766000Y-38989000D03*
X35306000Y-38989000D03*
X37846000Y-38989000D03*
X40386000Y-38989000D03*
X42926000Y-38989000D03*
X45466000Y-38989000D03*
X45466000Y-23749000D03*
X42926000Y-23749000D03*
X40386000Y-23749000D03*
X37846000Y-23749000D03*
X35306000Y-23749000D03*
X32766000Y-23749000D03*
X30226000Y-23749000D03*
X27686000Y-23749000D03*
X25146000Y-23749000D03*
D14*
X60970000Y-37465000D03*
D15*
X68570000Y-37465000D03*
D10*
X61976000Y-77851000D03*
D16*
X61976000Y-79851000D03*
D10*
X75438000Y-76327000D03*
D16*
X75438000Y-78827000D03*
D17*
X53086000Y-84455000D03*
D18*
X42926000Y-84455000D03*
D16*
X42926000Y-80391000D03*
D11*
X37846000Y-80391000D03*
D19*
X28829000Y-83058000D03*
D20*
X28829000Y-77978000D03*
X28829000Y-72898000D03*
D21*
X63246000Y-72263000D03*
D22*
X65786000Y-72263000D03*
X68326000Y-72263000D03*
D14*
X69820000Y-20320000D03*
X72360000Y-20320000D03*
X74900000Y-20320000D03*
D15*
X67280000Y-20320000D03*
D23*
X73152000Y-58547000D03*
X54229000Y-64071500D03*
X65278000Y-47625000D03*
X61214000Y-47625000D03*
X57785000Y-63500000D03*
X55245000Y-53340000D03*
X51308000Y-76200000D03*
X38100000Y-28956000D03*
X73152000Y-38354000D03*
X46482000Y-36830000D03*
X53848000Y-36830000D03*
X50038000Y-30480000D03*
X73152000Y-43434000D03*
X76327000Y-69342000D03*
X72263000Y-69215000D03*
X47752000Y-61722000D03*
X31242000Y-64135000D03*
X18923000Y-64135000D03*
X30861000Y-59182000D03*
X30861000Y-42418000D03*
X24384000Y-42418000D03*
X56642000Y-55372000D03*
X56642000Y-58928000D03*
X52070000Y-53340000D03*
X65532000Y-56007000D03*
X62992000Y-53848000D03*
X45720000Y-69215000D03*
X50165000Y-69215000D03*
X69088000Y-43434000D03*
X50038000Y-25908000D03*
X51054000Y-36830000D03*
X38100000Y-32258000D03*
X51308000Y-72898000D03*
X50609500Y-61849000D03*
X55943500Y-60960000D03*
X47053500Y-48704500D03*
X54737000Y-60960000D03*
X49276000Y-56959500D03*
X48450500Y-57912000D03*
X47625000Y-58864500D03*
X26733500Y-52996000D03*
X46863000Y-57531000D03*
X46037500Y-59499500D03*
X24765000Y-56896000D03*
X25971500Y-54546500D03*
X22796500Y-46609000D03*
X21145500Y-49339500D03*
X53975000Y-33845500D03*
X42926000Y-33845500D03*
X33909000Y-30670500D03*
X32131000Y-58420000D03*
X33083500Y-46609000D03*
X25146000Y-26771600D03*
X33832800Y-26060400D03*
X53644800Y-40662800D03*
X51358800Y-40030400D03*
X41656000Y-22199600D03*
X37846000Y-22199600D03*
X40259000Y-34988500D03*
X37020500Y-34988500D03*
X28321000Y-36893500D03*
X31940500Y-36893500D03*
X39674800Y-41859200D03*
X37592000Y-41910000D03*
X57785000Y-41275000D03*
X59055000Y-60960000D03*
X59055000Y-55245000D03*
D24*
X54229000Y-51435000D02*
X54165500Y-51371500D01*
X67100501Y-64471499D02*
X67691000Y-63881000D01*
X54628999Y-64471499D02*
X67100501Y-64471499D01*
X54229000Y-64071500D02*
X54628999Y-64471499D01*
X67627500Y-64071500D02*
X67691000Y-63881000D01*
X67691000Y-63881000D02*
X73152000Y-58547000D01*
X54628999Y-63671501D02*
X54229000Y-64071500D01*
X56668501Y-61631999D02*
X54628999Y-63671501D01*
X56668501Y-60027503D02*
X56668501Y-61631999D01*
X54165500Y-57524502D02*
X56668501Y-60027503D01*
X54165500Y-51371500D02*
X54165500Y-57524502D01*
X65278000Y-47625000D02*
X61214000Y-47625000D01*
X55683002Y-53340000D02*
X55245000Y-53340000D01*
X57785000Y-63500000D02*
X57785000Y-55441998D01*
X57785000Y-55441998D02*
X55683002Y-53340000D01*
D25*
X72390000Y-69342000D02*
X72263000Y-69215000D01*
X76327000Y-69342000D02*
X72390000Y-69342000D01*
D24*
X54165500Y-66611500D02*
X50927000Y-63373000D01*
X50927000Y-63373000D02*
X49403000Y-63373000D01*
X49403000Y-63373000D02*
X47752000Y-61722000D01*
X30861000Y-63754000D02*
X31242000Y-64135000D01*
X30861000Y-59182000D02*
X30861000Y-63754000D01*
X18923000Y-64135000D02*
X31242000Y-64135000D01*
X30461001Y-42817999D02*
X30861000Y-42418000D01*
X24783999Y-42817999D02*
X30461001Y-42817999D01*
X24384000Y-42418000D02*
X24783999Y-42817999D01*
X56642000Y-58928000D02*
X56642000Y-55372000D01*
X63373000Y-53848000D02*
X62992000Y-53848000D01*
X65532000Y-56007000D02*
X63373000Y-53848000D01*
X45720000Y-69215000D02*
X50165000Y-69215000D01*
X69088000Y-43434000D02*
X73152000Y-43434000D01*
X50038000Y-25908000D02*
X50038000Y-30480000D01*
X51054000Y-36830000D02*
X53848000Y-36830000D01*
X51054000Y-36830000D02*
X46482000Y-36830000D01*
X73152000Y-38354000D02*
X73152000Y-43434000D01*
X38100000Y-28956000D02*
X38100000Y-32258000D01*
X51308000Y-72898000D02*
X51308000Y-76200000D01*
X46545500Y-53155998D02*
X46545500Y-51371500D01*
X50609500Y-61849000D02*
X50609500Y-57219998D01*
X50609500Y-57219998D02*
X46545500Y-53155998D01*
X55943500Y-60394315D02*
X50355500Y-54806315D01*
X55943500Y-60960000D02*
X55943500Y-60394315D01*
X50355500Y-54806315D02*
X50355500Y-50976498D01*
X50355500Y-50976498D02*
X50355500Y-49657000D01*
X50355500Y-49657000D02*
X49403000Y-48704500D01*
X49403000Y-48704500D02*
X47053500Y-48704500D01*
X41783000Y-49022000D02*
X41465500Y-49339500D01*
X54737000Y-60394315D02*
X47815500Y-53472815D01*
X54737000Y-60960000D02*
X54737000Y-60394315D01*
X41465500Y-49339500D02*
X41465500Y-51371500D01*
X45861002Y-49022000D02*
X41783000Y-49022000D01*
X47815500Y-53472815D02*
X47815500Y-50976498D01*
X47815500Y-50976498D02*
X45861002Y-49022000D01*
X48710315Y-56959500D02*
X44900315Y-53149500D01*
X49276000Y-56959500D02*
X48710315Y-56959500D01*
X35623500Y-53149500D02*
X33845500Y-51371500D01*
X44900315Y-53149500D02*
X35623500Y-53149500D01*
X48050501Y-57512001D02*
X48050501Y-57448501D01*
X48450500Y-57912000D02*
X48050501Y-57512001D01*
X48050501Y-57448501D02*
X44323000Y-53721000D01*
X33655000Y-53721000D02*
X31305500Y-51371500D01*
X44323000Y-53721000D02*
X33655000Y-53721000D01*
X47225001Y-58464501D02*
X44812001Y-58464501D01*
X47625000Y-58864500D02*
X47225001Y-58464501D01*
X44812001Y-58464501D02*
X42545000Y-56197500D01*
X42545000Y-56197500D02*
X27622500Y-56197500D01*
X27622500Y-56197500D02*
X26733500Y-55308500D01*
X26733500Y-55308500D02*
X26733500Y-52996000D01*
X28765500Y-48958500D02*
X28765500Y-51371500D01*
X29744501Y-47979499D02*
X28765500Y-48958500D01*
X49366001Y-47979499D02*
X29744501Y-47979499D01*
X56445030Y-40900470D02*
X49366001Y-47979499D01*
X72360000Y-21397630D02*
X72360000Y-20320000D01*
X72360000Y-22256410D02*
X72360000Y-21397630D01*
X56445030Y-38171380D02*
X72360000Y-22256410D01*
X56445030Y-40900470D02*
X56445030Y-38171380D01*
X46863000Y-57531000D02*
X43688000Y-54356000D01*
X29210000Y-54356000D02*
X26225500Y-51371500D01*
X43688000Y-54356000D02*
X29210000Y-54356000D01*
X26225500Y-48069500D02*
X26225500Y-51371500D01*
X55930800Y-40563800D02*
X48996600Y-47498000D01*
X26797000Y-47498000D02*
X26225500Y-48069500D01*
X48996600Y-47498000D02*
X26797000Y-47498000D01*
X69820000Y-20320000D02*
X69820000Y-24160000D01*
X55930800Y-38049200D02*
X55930800Y-40563800D01*
X69820000Y-24160000D02*
X55930800Y-38049200D01*
X45637501Y-59099501D02*
X44113501Y-59099501D01*
X46037500Y-59499500D02*
X45637501Y-59099501D01*
X44113501Y-59099501D02*
X43923001Y-59099501D01*
X43923001Y-59099501D02*
X41656000Y-56832500D01*
X41656000Y-56832500D02*
X24828500Y-56832500D01*
X24828500Y-56832500D02*
X24765000Y-56896000D01*
X25971500Y-53657500D02*
X25082500Y-52768500D01*
X25971500Y-54546500D02*
X25971500Y-53657500D01*
X25082500Y-52768500D02*
X23812500Y-52768500D01*
X23685500Y-52641500D02*
X23685500Y-51371500D01*
X23812500Y-52768500D02*
X23685500Y-52641500D01*
X22396501Y-47008999D02*
X22396501Y-48088499D01*
X22796500Y-46609000D02*
X22396501Y-47008999D01*
X22396501Y-48088499D02*
X21145500Y-49339500D01*
X53975000Y-33845500D02*
X42926000Y-33845500D01*
X33343315Y-30670500D02*
X30295315Y-33718500D01*
X33909000Y-30670500D02*
X33343315Y-30670500D01*
X30295315Y-33718500D02*
X23876000Y-33718500D01*
X23876000Y-33718500D02*
X19304000Y-38290500D01*
X19304000Y-38290500D02*
X19304000Y-56261000D01*
X19304000Y-56261000D02*
X21463000Y-58420000D01*
X21463000Y-58420000D02*
X32131000Y-58420000D01*
X34230999Y-38472999D02*
X34230999Y-45321801D01*
X35306000Y-23749000D02*
X35306000Y-37397998D01*
X35306000Y-37397998D02*
X34230999Y-38472999D01*
X34230999Y-45321801D02*
X34230999Y-45461501D01*
X34230999Y-45461501D02*
X33083500Y-46609000D01*
X25146000Y-26771600D02*
X33121600Y-26771600D01*
X33121600Y-26771600D02*
X33832800Y-26060400D01*
X53644800Y-40662800D02*
X51991200Y-40662800D01*
X51991200Y-40662800D02*
X51358800Y-40030400D01*
X41656000Y-22199600D02*
X37846000Y-22199600D01*
X40259000Y-34988500D02*
X37020500Y-34988500D01*
X28321000Y-36893500D02*
X31940500Y-36893500D01*
X40386000Y-24809660D02*
X41656000Y-26079660D01*
X40386000Y-23749000D02*
X40386000Y-24809660D01*
X41656000Y-26079660D02*
X41656000Y-39878000D01*
X41656000Y-39878000D02*
X39674800Y-41859200D01*
X40386000Y-39116000D02*
X40386000Y-38989000D01*
X37592000Y-41910000D02*
X40386000Y-39116000D01*
X57785000Y-41275000D02*
X57785000Y-48260000D01*
X56705500Y-49339500D02*
X56705500Y-51371500D01*
X57785000Y-48260000D02*
X56705500Y-49339500D01*
X59055000Y-60960000D02*
X59055000Y-55245000D01*
M02*
