M48
; DRILL file {KiCad (5.1.5)-3} date 2020-04-28 22:27:19
; FORMAT={-:-/ absolute / inch / decimal}
; #@! TF.CreationDate,2020-04-28T22:27:19+02:00
; #@! TF.GenerationSoftware,Kicad,Pcbnew,(5.1.5)-3
; #@! TF.FileFunction,Plated,1,2,PTH
FMAT,2
INCH
T1C0.0157
T2C0.0300
T3C0.0315
T4C0.0394
T5C0.0433
T6C0.0512
%
G90
G05
T1
X0.82Y-1.655
X0.88Y-1.38
X0.91Y-1.655
X1.08Y-1.36
X1.17Y-1.185
X1.2Y-1.015
X1.23Y-1.295
X1.24Y-0.955
X1.24Y-1.1
X1.26Y-2.175
X1.3Y-1.225
X1.33Y-0.915
X1.33Y-1.545
X1.35Y-1.395
X1.39Y-2.185
X1.4Y-1.16
X1.42Y-1.345
X1.46Y-1.535
X1.47Y-1.975
X1.5Y-1.565
X1.51Y-1.615
X1.53Y-1.345
X1.53Y-1.395
X1.54Y-1.015
X1.6Y-1.22
X1.64Y-0.955
X1.66Y-2.36
X1.69Y-1.175
X1.86Y-2.36
X1.88Y-2.94
X1.88Y-2.98
X2.15Y-2.225
X2.15Y-2.365
X2.24Y-2.24
X2.3Y-2.24
X2.62Y-2.225
X2.78Y-2.225
X2.84Y-1.42
X2.84Y-1.64
X2.88Y-2.5
T2
X2.3004Y-1.395
X2.5996Y-1.395
X2.1738Y-0.75
X2.2738Y-0.75
X2.3738Y-0.75
X2.4738Y-0.75
T3
X2.34Y-2.985
X2.34Y-3.0637
X1.39Y-3.085
X1.59Y-3.085
X1.0475Y-1.8625
X1.0475Y-2.4625
X1.1475Y-1.8625
X1.1475Y-2.4625
X1.2475Y-1.8625
X1.2475Y-2.4625
X1.3475Y-1.8625
X1.3475Y-2.4625
X1.4475Y-1.8625
X1.4475Y-2.4625
X1.5475Y-1.8625
X1.5475Y-2.4625
X1.6475Y-1.8625
X1.6475Y-2.4625
X1.7475Y-1.8625
X1.7475Y-2.4625
X1.8475Y-1.8625
X1.8475Y-2.4625
X1.9475Y-1.8625
X1.9475Y-2.4625
X2.0475Y-1.8625
X2.0475Y-2.4625
X2.1475Y-1.8625
X2.1475Y-2.4625
X2.2475Y-1.8625
X2.2475Y-2.4625
X2.3475Y-1.8625
X2.3475Y-2.4625
X2.4475Y-1.8625
X2.4475Y-2.4625
X2.87Y-2.99
X2.87Y-3.0884
T4
X0.89Y-0.855
X0.89Y-1.455
X0.99Y-0.855
X0.99Y-1.455
X1.09Y-0.855
X1.09Y-1.455
X1.19Y-0.855
X1.19Y-1.455
X1.29Y-0.855
X1.29Y-1.455
X1.39Y-0.855
X1.39Y-1.455
X1.49Y-0.855
X1.49Y-1.455
X1.59Y-0.855
X1.59Y-1.455
X1.69Y-0.855
X1.69Y-1.455
T5
X1.59Y-3.245
X1.99Y-3.245
X2.39Y-2.765
X2.49Y-2.765
X2.59Y-2.765
T6
X1.035Y-2.79
X1.035Y-2.99
X1.035Y-3.19
T0
M30
