G04 #@! TF.GenerationSoftware,KiCad,Pcbnew,(5.1.5)-3*
G04 #@! TF.CreationDate,2020-05-01T20:08:20+02:00*
G04 #@! TF.ProjectId,czujnikParkowania,637a756a-6e69-46b5-9061-726b6f77616e,rev?*
G04 #@! TF.SameCoordinates,Original*
G04 #@! TF.FileFunction,Copper,L2,Bot*
G04 #@! TF.FilePolarity,Positive*
%FSLAX46Y46*%
G04 Gerber Fmt 4.6, Leading zero omitted, Abs format (unit mm)*
G04 Created by KiCad (PCBNEW (5.1.5)-3) date 2020-05-01 20:08:20*
%MOMM*%
%LPD*%
G04 APERTURE LIST*
%ADD10R,1.500000X1.500000*%
%ADD11C,1.500000*%
%ADD12C,1.524000*%
%ADD13R,1.524000X1.524000*%
%ADD14R,1.600000X1.600000*%
%ADD15C,1.600000*%
%ADD16R,2.200000X2.200000*%
%ADD17O,2.200000X2.200000*%
%ADD18O,1.600000X1.600000*%
%ADD19R,2.600000X2.600000*%
%ADD20C,2.600000*%
%ADD21R,1.905000X2.000000*%
%ADD22O,1.905000X2.000000*%
%ADD23C,0.800000*%
%ADD24C,0.250000*%
%ADD25C,0.254000*%
G04 APERTURE END LIST*
D10*
X25146000Y-38989000D03*
D11*
X27686000Y-38989000D03*
X30226000Y-38989000D03*
X32766000Y-38989000D03*
X35306000Y-38989000D03*
X37846000Y-38989000D03*
X40386000Y-38989000D03*
X42926000Y-38989000D03*
X45466000Y-38989000D03*
X45466000Y-23749000D03*
X42926000Y-23749000D03*
X40386000Y-23749000D03*
X37846000Y-23749000D03*
X35306000Y-23749000D03*
X32766000Y-23749000D03*
X30226000Y-23749000D03*
X27686000Y-23749000D03*
X25146000Y-23749000D03*
D12*
X60970000Y-37465000D03*
D13*
X68570000Y-37465000D03*
D14*
X61976000Y-77851000D03*
D15*
X61976000Y-79851000D03*
D14*
X75438000Y-77978000D03*
D15*
X75438000Y-80478000D03*
D16*
X53086000Y-84455000D03*
D17*
X42926000Y-84455000D03*
D15*
X42926000Y-80391000D03*
D18*
X37846000Y-80391000D03*
D19*
X28829000Y-83058000D03*
D20*
X28829000Y-77978000D03*
X28829000Y-72898000D03*
D21*
X63246000Y-72263000D03*
D22*
X65786000Y-72263000D03*
X68326000Y-72263000D03*
D12*
X60295000Y-21082000D03*
X62835000Y-21082000D03*
X65375000Y-21082000D03*
D13*
X57755000Y-21082000D03*
D23*
X73152000Y-58547000D03*
X62890400Y-60655200D03*
X48056800Y-59334400D03*
X52781200Y-59334400D03*
X52832000Y-61976000D03*
X46228000Y-29464000D03*
X46228000Y-27940000D03*
X74168000Y-42672000D03*
X74168000Y-36576000D03*
X43129200Y-58521600D03*
X39573200Y-59334400D03*
X35966400Y-65786000D03*
X54610000Y-48260000D03*
X60960000Y-48260000D03*
X30734000Y-42418000D03*
X30734000Y-46482000D03*
X40233600Y-51460400D03*
X39420800Y-50444400D03*
X36677600Y-51663600D03*
X38709600Y-51663600D03*
X33121600Y-55422800D03*
X30276800Y-49276000D03*
X25146000Y-26771600D03*
X33832800Y-26060400D03*
X53644800Y-40662800D03*
X51358800Y-40030400D03*
X41656000Y-22199600D03*
X37846000Y-22199600D03*
X40005000Y-34290000D03*
X36830000Y-34290000D03*
X33655000Y-36830000D03*
X39674800Y-41859200D03*
X37592000Y-41910000D03*
X51257200Y-56946800D03*
X48666400Y-56946800D03*
X46939200Y-56134000D03*
X49428400Y-66548000D03*
X44450000Y-65024000D03*
X70866000Y-67818000D03*
D24*
X69088000Y-58547000D02*
X73152000Y-58547000D01*
X66979800Y-60655200D02*
X69088000Y-58547000D01*
X62890400Y-60655200D02*
X66979800Y-60655200D01*
X48056800Y-59334400D02*
X52781200Y-59334400D01*
X52832000Y-59385200D02*
X52781200Y-59334400D01*
X52832000Y-61976000D02*
X52832000Y-59385200D01*
X43129200Y-58521600D02*
X40386000Y-58521600D01*
X40386000Y-58521600D02*
X39573200Y-59334400D01*
X31133999Y-46082001D02*
X30734000Y-46482000D01*
X31133999Y-42817999D02*
X31133999Y-46082001D01*
X30734000Y-42418000D02*
X31133999Y-42817999D01*
X62835000Y-22159630D02*
X56445030Y-28549600D01*
X62835000Y-21082000D02*
X62835000Y-22159630D01*
X56445030Y-28549600D02*
X56445030Y-40684570D01*
X56445030Y-40684570D02*
X45669200Y-51460400D01*
X45669200Y-51460400D02*
X40233600Y-51460400D01*
X39820799Y-50044401D02*
X46272399Y-50044401D01*
X46272399Y-50044401D02*
X55930800Y-40386000D01*
X55930800Y-40386000D02*
X55930800Y-28295600D01*
X60295000Y-23931400D02*
X60295000Y-22042600D01*
X55930800Y-28295600D02*
X60295000Y-23931400D01*
X60295000Y-21082000D02*
X60295000Y-22042600D01*
X60295000Y-22042600D02*
X60295000Y-22159630D01*
X39420800Y-50444400D02*
X39820799Y-50044401D01*
X36677600Y-51663600D02*
X38709600Y-51663600D01*
X60970000Y-37465000D02*
X43012200Y-55422800D01*
X43012200Y-55422800D02*
X33121600Y-55422800D01*
X34230999Y-45321801D02*
X30276800Y-49276000D01*
X34230999Y-38472999D02*
X34230999Y-45321801D01*
X35306000Y-23749000D02*
X35306000Y-37397998D01*
X35306000Y-37397998D02*
X34230999Y-38472999D01*
X25146000Y-26771600D02*
X33121600Y-26771600D01*
X33121600Y-26771600D02*
X33832800Y-26060400D01*
X53644800Y-40662800D02*
X51991200Y-40662800D01*
X51991200Y-40662800D02*
X51358800Y-40030400D01*
X41656000Y-22199600D02*
X37846000Y-22199600D01*
X40005000Y-34290000D02*
X36830000Y-34290000D01*
X27686000Y-38989000D02*
X29845000Y-36830000D01*
X29845000Y-36830000D02*
X33655000Y-36830000D01*
X40386000Y-24809660D02*
X41656000Y-26079660D01*
X40386000Y-23749000D02*
X40386000Y-24809660D01*
X41656000Y-26079660D02*
X41656000Y-39878000D01*
X41656000Y-39878000D02*
X39674800Y-41859200D01*
X40386000Y-39116000D02*
X40386000Y-38989000D01*
X37592000Y-41910000D02*
X40386000Y-39116000D01*
X51257200Y-56946800D02*
X48666400Y-56946800D01*
X46939200Y-56134000D02*
X46939200Y-64058800D01*
X46939200Y-64058800D02*
X49428400Y-66548000D01*
X44450000Y-65024000D02*
X44450000Y-66040000D01*
X44450000Y-66040000D02*
X46228000Y-67818000D01*
X46228000Y-67818000D02*
X70866000Y-67818000D01*
D25*
G36*
X83668000Y-88748000D02*
G01*
X20472000Y-88748000D01*
X20472000Y-81758000D01*
X26890928Y-81758000D01*
X26890928Y-84358000D01*
X26903188Y-84482482D01*
X26939498Y-84602180D01*
X26998463Y-84712494D01*
X27077815Y-84809185D01*
X27174506Y-84888537D01*
X27284820Y-84947502D01*
X27404518Y-84983812D01*
X27529000Y-84996072D01*
X30129000Y-84996072D01*
X30253482Y-84983812D01*
X30373180Y-84947502D01*
X30483494Y-84888537D01*
X30580185Y-84809185D01*
X30659537Y-84712494D01*
X30718502Y-84602180D01*
X30754812Y-84482482D01*
X30767072Y-84358000D01*
X30767072Y-84284117D01*
X41191000Y-84284117D01*
X41191000Y-84625883D01*
X41257675Y-84961081D01*
X41388463Y-85276831D01*
X41578337Y-85560998D01*
X41820002Y-85802663D01*
X42104169Y-85992537D01*
X42419919Y-86123325D01*
X42755117Y-86190000D01*
X43096883Y-86190000D01*
X43432081Y-86123325D01*
X43747831Y-85992537D01*
X44031998Y-85802663D01*
X44273663Y-85560998D01*
X44463537Y-85276831D01*
X44594325Y-84961081D01*
X44661000Y-84625883D01*
X44661000Y-84284117D01*
X44594325Y-83948919D01*
X44463537Y-83633169D01*
X44277671Y-83355000D01*
X51347928Y-83355000D01*
X51347928Y-85555000D01*
X51360188Y-85679482D01*
X51396498Y-85799180D01*
X51455463Y-85909494D01*
X51534815Y-86006185D01*
X51631506Y-86085537D01*
X51741820Y-86144502D01*
X51861518Y-86180812D01*
X51986000Y-86193072D01*
X54186000Y-86193072D01*
X54310482Y-86180812D01*
X54430180Y-86144502D01*
X54540494Y-86085537D01*
X54637185Y-86006185D01*
X54716537Y-85909494D01*
X54775502Y-85799180D01*
X54811812Y-85679482D01*
X54824072Y-85555000D01*
X54824072Y-83355000D01*
X54811812Y-83230518D01*
X54775502Y-83110820D01*
X54716537Y-83000506D01*
X54637185Y-82903815D01*
X54540494Y-82824463D01*
X54430180Y-82765498D01*
X54310482Y-82729188D01*
X54186000Y-82716928D01*
X51986000Y-82716928D01*
X51861518Y-82729188D01*
X51741820Y-82765498D01*
X51631506Y-82824463D01*
X51534815Y-82903815D01*
X51455463Y-83000506D01*
X51396498Y-83110820D01*
X51360188Y-83230518D01*
X51347928Y-83355000D01*
X44277671Y-83355000D01*
X44273663Y-83349002D01*
X44031998Y-83107337D01*
X43747831Y-82917463D01*
X43432081Y-82786675D01*
X43096883Y-82720000D01*
X42755117Y-82720000D01*
X42419919Y-82786675D01*
X42104169Y-82917463D01*
X41820002Y-83107337D01*
X41578337Y-83349002D01*
X41388463Y-83633169D01*
X41257675Y-83948919D01*
X41191000Y-84284117D01*
X30767072Y-84284117D01*
X30767072Y-81758000D01*
X30754812Y-81633518D01*
X30718502Y-81513820D01*
X30659537Y-81403506D01*
X30580185Y-81306815D01*
X30483494Y-81227463D01*
X30373180Y-81168498D01*
X30253482Y-81132188D01*
X30129000Y-81119928D01*
X27529000Y-81119928D01*
X27404518Y-81132188D01*
X27284820Y-81168498D01*
X27174506Y-81227463D01*
X27077815Y-81306815D01*
X26998463Y-81403506D01*
X26939498Y-81513820D01*
X26903188Y-81633518D01*
X26890928Y-81758000D01*
X20472000Y-81758000D01*
X20472000Y-80249665D01*
X36411000Y-80249665D01*
X36411000Y-80532335D01*
X36466147Y-80809574D01*
X36574320Y-81070727D01*
X36731363Y-81305759D01*
X36931241Y-81505637D01*
X37166273Y-81662680D01*
X37427426Y-81770853D01*
X37704665Y-81826000D01*
X37987335Y-81826000D01*
X38264574Y-81770853D01*
X38525727Y-81662680D01*
X38760759Y-81505637D01*
X38960637Y-81305759D01*
X39117680Y-81070727D01*
X39225853Y-80809574D01*
X39281000Y-80532335D01*
X39281000Y-80249665D01*
X41491000Y-80249665D01*
X41491000Y-80532335D01*
X41546147Y-80809574D01*
X41654320Y-81070727D01*
X41811363Y-81305759D01*
X42011241Y-81505637D01*
X42246273Y-81662680D01*
X42507426Y-81770853D01*
X42784665Y-81826000D01*
X43067335Y-81826000D01*
X43344574Y-81770853D01*
X43605727Y-81662680D01*
X43840759Y-81505637D01*
X43875694Y-81470702D01*
X74624903Y-81470702D01*
X74696486Y-81714671D01*
X74951996Y-81835571D01*
X75226184Y-81904300D01*
X75508512Y-81918217D01*
X75788130Y-81876787D01*
X76054292Y-81781603D01*
X76179514Y-81714671D01*
X76251097Y-81470702D01*
X75438000Y-80657605D01*
X74624903Y-81470702D01*
X43875694Y-81470702D01*
X44040637Y-81305759D01*
X44197680Y-81070727D01*
X44291716Y-80843702D01*
X61162903Y-80843702D01*
X61234486Y-81087671D01*
X61489996Y-81208571D01*
X61764184Y-81277300D01*
X62046512Y-81291217D01*
X62326130Y-81249787D01*
X62592292Y-81154603D01*
X62717514Y-81087671D01*
X62789097Y-80843702D01*
X61976000Y-80030605D01*
X61162903Y-80843702D01*
X44291716Y-80843702D01*
X44305853Y-80809574D01*
X44361000Y-80532335D01*
X44361000Y-80249665D01*
X44305853Y-79972426D01*
X44284764Y-79921512D01*
X60535783Y-79921512D01*
X60577213Y-80201130D01*
X60672397Y-80467292D01*
X60739329Y-80592514D01*
X60983298Y-80664097D01*
X61796395Y-79851000D01*
X61782253Y-79836858D01*
X61961858Y-79657253D01*
X61976000Y-79671395D01*
X61990143Y-79657253D01*
X62169748Y-79836858D01*
X62155605Y-79851000D01*
X62968702Y-80664097D01*
X63212671Y-80592514D01*
X63233491Y-80548512D01*
X73997783Y-80548512D01*
X74039213Y-80828130D01*
X74134397Y-81094292D01*
X74201329Y-81219514D01*
X74445298Y-81291097D01*
X75258395Y-80478000D01*
X75617605Y-80478000D01*
X76430702Y-81291097D01*
X76674671Y-81219514D01*
X76795571Y-80964004D01*
X76864300Y-80689816D01*
X76878217Y-80407488D01*
X76836787Y-80127870D01*
X76741603Y-79861708D01*
X76674671Y-79736486D01*
X76430702Y-79664903D01*
X75617605Y-80478000D01*
X75258395Y-80478000D01*
X74445298Y-79664903D01*
X74201329Y-79736486D01*
X74080429Y-79991996D01*
X74011700Y-80266184D01*
X73997783Y-80548512D01*
X63233491Y-80548512D01*
X63333571Y-80337004D01*
X63402300Y-80062816D01*
X63416217Y-79780488D01*
X63374787Y-79500870D01*
X63279603Y-79234708D01*
X63214384Y-79112691D01*
X63227185Y-79102185D01*
X63306537Y-79005494D01*
X63365502Y-78895180D01*
X63401812Y-78775482D01*
X63414072Y-78651000D01*
X63414072Y-77178000D01*
X73999928Y-77178000D01*
X73999928Y-78778000D01*
X74012188Y-78902482D01*
X74048498Y-79022180D01*
X74107463Y-79132494D01*
X74186815Y-79229185D01*
X74283506Y-79308537D01*
X74393820Y-79367502D01*
X74513518Y-79403812D01*
X74638000Y-79416072D01*
X74645215Y-79416072D01*
X74624903Y-79485298D01*
X75438000Y-80298395D01*
X76251097Y-79485298D01*
X76230785Y-79416072D01*
X76238000Y-79416072D01*
X76362482Y-79403812D01*
X76482180Y-79367502D01*
X76592494Y-79308537D01*
X76689185Y-79229185D01*
X76768537Y-79132494D01*
X76827502Y-79022180D01*
X76863812Y-78902482D01*
X76876072Y-78778000D01*
X76876072Y-77178000D01*
X76863812Y-77053518D01*
X76827502Y-76933820D01*
X76768537Y-76823506D01*
X76689185Y-76726815D01*
X76592494Y-76647463D01*
X76482180Y-76588498D01*
X76362482Y-76552188D01*
X76238000Y-76539928D01*
X74638000Y-76539928D01*
X74513518Y-76552188D01*
X74393820Y-76588498D01*
X74283506Y-76647463D01*
X74186815Y-76726815D01*
X74107463Y-76823506D01*
X74048498Y-76933820D01*
X74012188Y-77053518D01*
X73999928Y-77178000D01*
X63414072Y-77178000D01*
X63414072Y-77051000D01*
X63401812Y-76926518D01*
X63365502Y-76806820D01*
X63306537Y-76696506D01*
X63227185Y-76599815D01*
X63130494Y-76520463D01*
X63020180Y-76461498D01*
X62900482Y-76425188D01*
X62776000Y-76412928D01*
X61176000Y-76412928D01*
X61051518Y-76425188D01*
X60931820Y-76461498D01*
X60821506Y-76520463D01*
X60724815Y-76599815D01*
X60645463Y-76696506D01*
X60586498Y-76806820D01*
X60550188Y-76926518D01*
X60537928Y-77051000D01*
X60537928Y-78651000D01*
X60550188Y-78775482D01*
X60586498Y-78895180D01*
X60645463Y-79005494D01*
X60724815Y-79102185D01*
X60737758Y-79112807D01*
X60618429Y-79364996D01*
X60549700Y-79639184D01*
X60535783Y-79921512D01*
X44284764Y-79921512D01*
X44197680Y-79711273D01*
X44040637Y-79476241D01*
X43840759Y-79276363D01*
X43605727Y-79119320D01*
X43344574Y-79011147D01*
X43067335Y-78956000D01*
X42784665Y-78956000D01*
X42507426Y-79011147D01*
X42246273Y-79119320D01*
X42011241Y-79276363D01*
X41811363Y-79476241D01*
X41654320Y-79711273D01*
X41546147Y-79972426D01*
X41491000Y-80249665D01*
X39281000Y-80249665D01*
X39225853Y-79972426D01*
X39117680Y-79711273D01*
X38960637Y-79476241D01*
X38760759Y-79276363D01*
X38525727Y-79119320D01*
X38264574Y-79011147D01*
X37987335Y-78956000D01*
X37704665Y-78956000D01*
X37427426Y-79011147D01*
X37166273Y-79119320D01*
X36931241Y-79276363D01*
X36731363Y-79476241D01*
X36574320Y-79711273D01*
X36466147Y-79972426D01*
X36411000Y-80249665D01*
X20472000Y-80249665D01*
X20472000Y-79327224D01*
X27659381Y-79327224D01*
X27791317Y-79622312D01*
X28132045Y-79793159D01*
X28499557Y-79894250D01*
X28879729Y-79921701D01*
X29257951Y-79874457D01*
X29619690Y-79754333D01*
X29866683Y-79622312D01*
X29998619Y-79327224D01*
X28829000Y-78157605D01*
X27659381Y-79327224D01*
X20472000Y-79327224D01*
X20472000Y-78028729D01*
X26885299Y-78028729D01*
X26932543Y-78406951D01*
X27052667Y-78768690D01*
X27184688Y-79015683D01*
X27479776Y-79147619D01*
X28649395Y-77978000D01*
X29008605Y-77978000D01*
X30178224Y-79147619D01*
X30473312Y-79015683D01*
X30644159Y-78674955D01*
X30745250Y-78307443D01*
X30772701Y-77927271D01*
X30725457Y-77549049D01*
X30605333Y-77187310D01*
X30473312Y-76940317D01*
X30178224Y-76808381D01*
X29008605Y-77978000D01*
X28649395Y-77978000D01*
X27479776Y-76808381D01*
X27184688Y-76940317D01*
X27013841Y-77281045D01*
X26912750Y-77648557D01*
X26885299Y-78028729D01*
X20472000Y-78028729D01*
X20472000Y-76628776D01*
X27659381Y-76628776D01*
X28829000Y-77798395D01*
X29998619Y-76628776D01*
X29866683Y-76333688D01*
X29525955Y-76162841D01*
X29158443Y-76061750D01*
X28778271Y-76034299D01*
X28400049Y-76081543D01*
X28038310Y-76201667D01*
X27791317Y-76333688D01*
X27659381Y-76628776D01*
X20472000Y-76628776D01*
X20472000Y-72707419D01*
X26894000Y-72707419D01*
X26894000Y-73088581D01*
X26968361Y-73462419D01*
X27114225Y-73814566D01*
X27325987Y-74131491D01*
X27595509Y-74401013D01*
X27912434Y-74612775D01*
X28264581Y-74758639D01*
X28638419Y-74833000D01*
X29019581Y-74833000D01*
X29393419Y-74758639D01*
X29745566Y-74612775D01*
X30062491Y-74401013D01*
X30332013Y-74131491D01*
X30543775Y-73814566D01*
X30689639Y-73462419D01*
X30764000Y-73088581D01*
X30764000Y-72707419D01*
X30689639Y-72333581D01*
X30543775Y-71981434D01*
X30332013Y-71664509D01*
X30062491Y-71394987D01*
X29864959Y-71263000D01*
X61655428Y-71263000D01*
X61655428Y-73263000D01*
X61667688Y-73387482D01*
X61703998Y-73507180D01*
X61762963Y-73617494D01*
X61842315Y-73714185D01*
X61939006Y-73793537D01*
X62049320Y-73852502D01*
X62169018Y-73888812D01*
X62293500Y-73901072D01*
X64198500Y-73901072D01*
X64322982Y-73888812D01*
X64442680Y-73852502D01*
X64552994Y-73793537D01*
X64649685Y-73714185D01*
X64729037Y-73617494D01*
X64778059Y-73525781D01*
X64919077Y-73638969D01*
X65194906Y-73782571D01*
X65413020Y-73853563D01*
X65659000Y-73733594D01*
X65659000Y-72390000D01*
X65639000Y-72390000D01*
X65639000Y-72136000D01*
X65659000Y-72136000D01*
X65659000Y-70792406D01*
X65913000Y-70792406D01*
X65913000Y-72136000D01*
X65933000Y-72136000D01*
X65933000Y-72390000D01*
X65913000Y-72390000D01*
X65913000Y-73733594D01*
X66158980Y-73853563D01*
X66377094Y-73782571D01*
X66652923Y-73638969D01*
X66895437Y-73444315D01*
X67050837Y-73259101D01*
X67198037Y-73438463D01*
X67439766Y-73636845D01*
X67715552Y-73784255D01*
X68014797Y-73875030D01*
X68326000Y-73905681D01*
X68637204Y-73875030D01*
X68936449Y-73784255D01*
X69212235Y-73636845D01*
X69453963Y-73438463D01*
X69652345Y-73196734D01*
X69799755Y-72920948D01*
X69890530Y-72621703D01*
X69913500Y-72388485D01*
X69913500Y-72137514D01*
X69890530Y-71904296D01*
X69799755Y-71605051D01*
X69652345Y-71329265D01*
X69453963Y-71087537D01*
X69212234Y-70889155D01*
X68936448Y-70741745D01*
X68637203Y-70650970D01*
X68326000Y-70620319D01*
X68014796Y-70650970D01*
X67715551Y-70741745D01*
X67439765Y-70889155D01*
X67198037Y-71087537D01*
X67050838Y-71266900D01*
X66895437Y-71081685D01*
X66652923Y-70887031D01*
X66377094Y-70743429D01*
X66158980Y-70672437D01*
X65913000Y-70792406D01*
X65659000Y-70792406D01*
X65413020Y-70672437D01*
X65194906Y-70743429D01*
X64919077Y-70887031D01*
X64778059Y-71000219D01*
X64729037Y-70908506D01*
X64649685Y-70811815D01*
X64552994Y-70732463D01*
X64442680Y-70673498D01*
X64322982Y-70637188D01*
X64198500Y-70624928D01*
X62293500Y-70624928D01*
X62169018Y-70637188D01*
X62049320Y-70673498D01*
X61939006Y-70732463D01*
X61842315Y-70811815D01*
X61762963Y-70908506D01*
X61703998Y-71018820D01*
X61667688Y-71138518D01*
X61655428Y-71263000D01*
X29864959Y-71263000D01*
X29745566Y-71183225D01*
X29393419Y-71037361D01*
X29019581Y-70963000D01*
X28638419Y-70963000D01*
X28264581Y-71037361D01*
X27912434Y-71183225D01*
X27595509Y-71394987D01*
X27325987Y-71664509D01*
X27114225Y-71981434D01*
X26968361Y-72333581D01*
X26894000Y-72707419D01*
X20472000Y-72707419D01*
X20472000Y-64922061D01*
X43415000Y-64922061D01*
X43415000Y-65125939D01*
X43454774Y-65325898D01*
X43532795Y-65514256D01*
X43646063Y-65683774D01*
X43690001Y-65727712D01*
X43690001Y-66002668D01*
X43686324Y-66040000D01*
X43700998Y-66188985D01*
X43744454Y-66332246D01*
X43815026Y-66464276D01*
X43886201Y-66551002D01*
X43910000Y-66580001D01*
X43938998Y-66603799D01*
X45664201Y-68329003D01*
X45687999Y-68358001D01*
X45803724Y-68452974D01*
X45935753Y-68523546D01*
X46079014Y-68567003D01*
X46190667Y-68578000D01*
X46190675Y-68578000D01*
X46228000Y-68581676D01*
X46265325Y-68578000D01*
X70162289Y-68578000D01*
X70206226Y-68621937D01*
X70375744Y-68735205D01*
X70564102Y-68813226D01*
X70764061Y-68853000D01*
X70967939Y-68853000D01*
X71167898Y-68813226D01*
X71356256Y-68735205D01*
X71525774Y-68621937D01*
X71669937Y-68477774D01*
X71783205Y-68308256D01*
X71861226Y-68119898D01*
X71901000Y-67919939D01*
X71901000Y-67716061D01*
X71861226Y-67516102D01*
X71783205Y-67327744D01*
X71669937Y-67158226D01*
X71525774Y-67014063D01*
X71356256Y-66900795D01*
X71167898Y-66822774D01*
X70967939Y-66783000D01*
X70764061Y-66783000D01*
X70564102Y-66822774D01*
X70375744Y-66900795D01*
X70206226Y-67014063D01*
X70162289Y-67058000D01*
X50332413Y-67058000D01*
X50345605Y-67038256D01*
X50423626Y-66849898D01*
X50463400Y-66649939D01*
X50463400Y-66446061D01*
X50423626Y-66246102D01*
X50345605Y-66057744D01*
X50232337Y-65888226D01*
X50088174Y-65744063D01*
X49918656Y-65630795D01*
X49730298Y-65552774D01*
X49530339Y-65513000D01*
X49468203Y-65513000D01*
X47699200Y-63743999D01*
X47699200Y-60306553D01*
X47754902Y-60329626D01*
X47954861Y-60369400D01*
X48158739Y-60369400D01*
X48358698Y-60329626D01*
X48547056Y-60251605D01*
X48716574Y-60138337D01*
X48760511Y-60094400D01*
X52072001Y-60094400D01*
X52072000Y-61272289D01*
X52028063Y-61316226D01*
X51914795Y-61485744D01*
X51836774Y-61674102D01*
X51797000Y-61874061D01*
X51797000Y-62077939D01*
X51836774Y-62277898D01*
X51914795Y-62466256D01*
X52028063Y-62635774D01*
X52172226Y-62779937D01*
X52341744Y-62893205D01*
X52530102Y-62971226D01*
X52730061Y-63011000D01*
X52933939Y-63011000D01*
X53133898Y-62971226D01*
X53322256Y-62893205D01*
X53491774Y-62779937D01*
X53635937Y-62635774D01*
X53749205Y-62466256D01*
X53827226Y-62277898D01*
X53867000Y-62077939D01*
X53867000Y-61874061D01*
X53827226Y-61674102D01*
X53749205Y-61485744D01*
X53635937Y-61316226D01*
X53592000Y-61272289D01*
X53592000Y-60553261D01*
X61855400Y-60553261D01*
X61855400Y-60757139D01*
X61895174Y-60957098D01*
X61973195Y-61145456D01*
X62086463Y-61314974D01*
X62230626Y-61459137D01*
X62400144Y-61572405D01*
X62588502Y-61650426D01*
X62788461Y-61690200D01*
X62992339Y-61690200D01*
X63192298Y-61650426D01*
X63380656Y-61572405D01*
X63550174Y-61459137D01*
X63594111Y-61415200D01*
X66942478Y-61415200D01*
X66979800Y-61418876D01*
X67017122Y-61415200D01*
X67017133Y-61415200D01*
X67128786Y-61404203D01*
X67272047Y-61360746D01*
X67404076Y-61290174D01*
X67519801Y-61195201D01*
X67543604Y-61166197D01*
X69402802Y-59307000D01*
X72448289Y-59307000D01*
X72492226Y-59350937D01*
X72661744Y-59464205D01*
X72850102Y-59542226D01*
X73050061Y-59582000D01*
X73253939Y-59582000D01*
X73453898Y-59542226D01*
X73642256Y-59464205D01*
X73811774Y-59350937D01*
X73955937Y-59206774D01*
X74069205Y-59037256D01*
X74147226Y-58848898D01*
X74187000Y-58648939D01*
X74187000Y-58445061D01*
X74147226Y-58245102D01*
X74069205Y-58056744D01*
X73955937Y-57887226D01*
X73811774Y-57743063D01*
X73642256Y-57629795D01*
X73453898Y-57551774D01*
X73253939Y-57512000D01*
X73050061Y-57512000D01*
X72850102Y-57551774D01*
X72661744Y-57629795D01*
X72492226Y-57743063D01*
X72448289Y-57787000D01*
X69125322Y-57787000D01*
X69087999Y-57783324D01*
X69050676Y-57787000D01*
X69050667Y-57787000D01*
X68939014Y-57797997D01*
X68795753Y-57841454D01*
X68663723Y-57912026D01*
X68580083Y-57980668D01*
X68547999Y-58006999D01*
X68524201Y-58035997D01*
X66664999Y-59895200D01*
X63594111Y-59895200D01*
X63550174Y-59851263D01*
X63380656Y-59737995D01*
X63192298Y-59659974D01*
X62992339Y-59620200D01*
X62788461Y-59620200D01*
X62588502Y-59659974D01*
X62400144Y-59737995D01*
X62230626Y-59851263D01*
X62086463Y-59995426D01*
X61973195Y-60164944D01*
X61895174Y-60353302D01*
X61855400Y-60553261D01*
X53592000Y-60553261D01*
X53592000Y-59983903D01*
X53698405Y-59824656D01*
X53776426Y-59636298D01*
X53816200Y-59436339D01*
X53816200Y-59232461D01*
X53776426Y-59032502D01*
X53698405Y-58844144D01*
X53585137Y-58674626D01*
X53440974Y-58530463D01*
X53271456Y-58417195D01*
X53083098Y-58339174D01*
X52883139Y-58299400D01*
X52679261Y-58299400D01*
X52479302Y-58339174D01*
X52290944Y-58417195D01*
X52121426Y-58530463D01*
X52077489Y-58574400D01*
X48760511Y-58574400D01*
X48716574Y-58530463D01*
X48547056Y-58417195D01*
X48358698Y-58339174D01*
X48158739Y-58299400D01*
X47954861Y-58299400D01*
X47754902Y-58339174D01*
X47699200Y-58362247D01*
X47699200Y-57316358D01*
X47749195Y-57437056D01*
X47862463Y-57606574D01*
X48006626Y-57750737D01*
X48176144Y-57864005D01*
X48364502Y-57942026D01*
X48564461Y-57981800D01*
X48768339Y-57981800D01*
X48968298Y-57942026D01*
X49156656Y-57864005D01*
X49326174Y-57750737D01*
X49370111Y-57706800D01*
X50553489Y-57706800D01*
X50597426Y-57750737D01*
X50766944Y-57864005D01*
X50955302Y-57942026D01*
X51155261Y-57981800D01*
X51359139Y-57981800D01*
X51559098Y-57942026D01*
X51747456Y-57864005D01*
X51916974Y-57750737D01*
X52061137Y-57606574D01*
X52174405Y-57437056D01*
X52252426Y-57248698D01*
X52292200Y-57048739D01*
X52292200Y-56844861D01*
X52252426Y-56644902D01*
X52174405Y-56456544D01*
X52061137Y-56287026D01*
X51916974Y-56142863D01*
X51747456Y-56029595D01*
X51559098Y-55951574D01*
X51359139Y-55911800D01*
X51155261Y-55911800D01*
X50955302Y-55951574D01*
X50766944Y-56029595D01*
X50597426Y-56142863D01*
X50553489Y-56186800D01*
X49370111Y-56186800D01*
X49326174Y-56142863D01*
X49156656Y-56029595D01*
X48968298Y-55951574D01*
X48768339Y-55911800D01*
X48564461Y-55911800D01*
X48364502Y-55951574D01*
X48176144Y-56029595D01*
X48006626Y-56142863D01*
X47974200Y-56175289D01*
X47974200Y-56032061D01*
X47934426Y-55832102D01*
X47856405Y-55643744D01*
X47743137Y-55474226D01*
X47598974Y-55330063D01*
X47429456Y-55216795D01*
X47241098Y-55138774D01*
X47041139Y-55099000D01*
X46837261Y-55099000D01*
X46637302Y-55138774D01*
X46448944Y-55216795D01*
X46279426Y-55330063D01*
X46135263Y-55474226D01*
X46021995Y-55643744D01*
X45943974Y-55832102D01*
X45904200Y-56032061D01*
X45904200Y-56235939D01*
X45943974Y-56435898D01*
X46021995Y-56624256D01*
X46135263Y-56793774D01*
X46179200Y-56837711D01*
X46179201Y-64021468D01*
X46175524Y-64058800D01*
X46190198Y-64207785D01*
X46233654Y-64351046D01*
X46304226Y-64483076D01*
X46345809Y-64533744D01*
X46399200Y-64598801D01*
X46428198Y-64622599D01*
X48393400Y-66587803D01*
X48393400Y-66649939D01*
X48433174Y-66849898D01*
X48511195Y-67038256D01*
X48524387Y-67058000D01*
X46542802Y-67058000D01*
X45211256Y-65726455D01*
X45253937Y-65683774D01*
X45367205Y-65514256D01*
X45445226Y-65325898D01*
X45485000Y-65125939D01*
X45485000Y-64922061D01*
X45445226Y-64722102D01*
X45367205Y-64533744D01*
X45253937Y-64364226D01*
X45109774Y-64220063D01*
X44940256Y-64106795D01*
X44751898Y-64028774D01*
X44551939Y-63989000D01*
X44348061Y-63989000D01*
X44148102Y-64028774D01*
X43959744Y-64106795D01*
X43790226Y-64220063D01*
X43646063Y-64364226D01*
X43532795Y-64533744D01*
X43454774Y-64722102D01*
X43415000Y-64922061D01*
X20472000Y-64922061D01*
X20472000Y-55320861D01*
X32086600Y-55320861D01*
X32086600Y-55524739D01*
X32126374Y-55724698D01*
X32204395Y-55913056D01*
X32317663Y-56082574D01*
X32461826Y-56226737D01*
X32631344Y-56340005D01*
X32819702Y-56418026D01*
X33019661Y-56457800D01*
X33223539Y-56457800D01*
X33423498Y-56418026D01*
X33611856Y-56340005D01*
X33781374Y-56226737D01*
X33825311Y-56182800D01*
X42974878Y-56182800D01*
X43012200Y-56186476D01*
X43049522Y-56182800D01*
X43049533Y-56182800D01*
X43161186Y-56171803D01*
X43304447Y-56128346D01*
X43436476Y-56057774D01*
X43552201Y-55962801D01*
X43576004Y-55933797D01*
X60678430Y-38831372D01*
X60832408Y-38862000D01*
X61107592Y-38862000D01*
X61377490Y-38808314D01*
X61631727Y-38703005D01*
X61860535Y-38550120D01*
X62055120Y-38355535D01*
X62208005Y-38126727D01*
X62313314Y-37872490D01*
X62367000Y-37602592D01*
X62367000Y-37327408D01*
X62313314Y-37057510D01*
X62208005Y-36803273D01*
X62141005Y-36703000D01*
X67169928Y-36703000D01*
X67169928Y-38227000D01*
X67182188Y-38351482D01*
X67218498Y-38471180D01*
X67277463Y-38581494D01*
X67356815Y-38678185D01*
X67453506Y-38757537D01*
X67563820Y-38816502D01*
X67683518Y-38852812D01*
X67808000Y-38865072D01*
X69332000Y-38865072D01*
X69456482Y-38852812D01*
X69576180Y-38816502D01*
X69686494Y-38757537D01*
X69783185Y-38678185D01*
X69862537Y-38581494D01*
X69921502Y-38471180D01*
X69957812Y-38351482D01*
X69970072Y-38227000D01*
X69970072Y-36703000D01*
X69957812Y-36578518D01*
X69921502Y-36458820D01*
X69862537Y-36348506D01*
X69783185Y-36251815D01*
X69686494Y-36172463D01*
X69576180Y-36113498D01*
X69456482Y-36077188D01*
X69332000Y-36064928D01*
X67808000Y-36064928D01*
X67683518Y-36077188D01*
X67563820Y-36113498D01*
X67453506Y-36172463D01*
X67356815Y-36251815D01*
X67277463Y-36348506D01*
X67218498Y-36458820D01*
X67182188Y-36578518D01*
X67169928Y-36703000D01*
X62141005Y-36703000D01*
X62055120Y-36574465D01*
X61860535Y-36379880D01*
X61631727Y-36226995D01*
X61377490Y-36121686D01*
X61107592Y-36068000D01*
X60832408Y-36068000D01*
X60562510Y-36121686D01*
X60308273Y-36226995D01*
X60079465Y-36379880D01*
X59884880Y-36574465D01*
X59731995Y-36803273D01*
X59626686Y-37057510D01*
X59573000Y-37327408D01*
X59573000Y-37602592D01*
X59603628Y-37756570D01*
X57205030Y-40155168D01*
X57205030Y-28864401D01*
X63346003Y-22723429D01*
X63375001Y-22699631D01*
X63469974Y-22583906D01*
X63540546Y-22451877D01*
X63584003Y-22308616D01*
X63588951Y-22258383D01*
X63725535Y-22167120D01*
X63845090Y-22047565D01*
X64589040Y-22047565D01*
X64656020Y-22287656D01*
X64905048Y-22404756D01*
X65172135Y-22471023D01*
X65447017Y-22483910D01*
X65719133Y-22442922D01*
X65978023Y-22349636D01*
X66093980Y-22287656D01*
X66160960Y-22047565D01*
X65375000Y-21261605D01*
X64589040Y-22047565D01*
X63845090Y-22047565D01*
X63920120Y-21972535D01*
X64073005Y-21743727D01*
X64102692Y-21672057D01*
X64107364Y-21685023D01*
X64169344Y-21800980D01*
X64409435Y-21867960D01*
X65195395Y-21082000D01*
X65554605Y-21082000D01*
X66340565Y-21867960D01*
X66580656Y-21800980D01*
X66697756Y-21551952D01*
X66764023Y-21284865D01*
X66776910Y-21009983D01*
X66735922Y-20737867D01*
X66642636Y-20478977D01*
X66580656Y-20363020D01*
X66340565Y-20296040D01*
X65554605Y-21082000D01*
X65195395Y-21082000D01*
X64409435Y-20296040D01*
X64169344Y-20363020D01*
X64105515Y-20498760D01*
X64073005Y-20420273D01*
X63920120Y-20191465D01*
X63845090Y-20116435D01*
X64589040Y-20116435D01*
X65375000Y-20902395D01*
X66160960Y-20116435D01*
X66093980Y-19876344D01*
X65844952Y-19759244D01*
X65577865Y-19692977D01*
X65302983Y-19680090D01*
X65030867Y-19721078D01*
X64771977Y-19814364D01*
X64656020Y-19876344D01*
X64589040Y-20116435D01*
X63845090Y-20116435D01*
X63725535Y-19996880D01*
X63496727Y-19843995D01*
X63242490Y-19738686D01*
X62972592Y-19685000D01*
X62697408Y-19685000D01*
X62427510Y-19738686D01*
X62173273Y-19843995D01*
X61944465Y-19996880D01*
X61749880Y-20191465D01*
X61596995Y-20420273D01*
X61565000Y-20497515D01*
X61533005Y-20420273D01*
X61380120Y-20191465D01*
X61185535Y-19996880D01*
X60956727Y-19843995D01*
X60702490Y-19738686D01*
X60432592Y-19685000D01*
X60157408Y-19685000D01*
X59887510Y-19738686D01*
X59633273Y-19843995D01*
X59404465Y-19996880D01*
X59209880Y-20191465D01*
X59151080Y-20279465D01*
X59142812Y-20195518D01*
X59106502Y-20075820D01*
X59047537Y-19965506D01*
X58968185Y-19868815D01*
X58871494Y-19789463D01*
X58761180Y-19730498D01*
X58641482Y-19694188D01*
X58517000Y-19681928D01*
X56993000Y-19681928D01*
X56868518Y-19694188D01*
X56748820Y-19730498D01*
X56638506Y-19789463D01*
X56541815Y-19868815D01*
X56462463Y-19965506D01*
X56403498Y-20075820D01*
X56367188Y-20195518D01*
X56354928Y-20320000D01*
X56354928Y-21844000D01*
X56367188Y-21968482D01*
X56403498Y-22088180D01*
X56462463Y-22198494D01*
X56541815Y-22295185D01*
X56638506Y-22374537D01*
X56748820Y-22433502D01*
X56868518Y-22469812D01*
X56993000Y-22482072D01*
X58517000Y-22482072D01*
X58641482Y-22469812D01*
X58761180Y-22433502D01*
X58871494Y-22374537D01*
X58968185Y-22295185D01*
X59047537Y-22198494D01*
X59106502Y-22088180D01*
X59142812Y-21968482D01*
X59151080Y-21884535D01*
X59209880Y-21972535D01*
X59404465Y-22167120D01*
X59535001Y-22254341D01*
X59535000Y-23616598D01*
X55419798Y-27731801D01*
X55390800Y-27755599D01*
X55367002Y-27784597D01*
X55367001Y-27784598D01*
X55295826Y-27871324D01*
X55225254Y-28003354D01*
X55181798Y-28146615D01*
X55167124Y-28295600D01*
X55170801Y-28332932D01*
X55170800Y-40071198D01*
X54679800Y-40562198D01*
X54679800Y-40560861D01*
X54640026Y-40360902D01*
X54562005Y-40172544D01*
X54448737Y-40003026D01*
X54304574Y-39858863D01*
X54135056Y-39745595D01*
X53946698Y-39667574D01*
X53746739Y-39627800D01*
X53542861Y-39627800D01*
X53342902Y-39667574D01*
X53154544Y-39745595D01*
X52985026Y-39858863D01*
X52941089Y-39902800D01*
X52388696Y-39902800D01*
X52354026Y-39728502D01*
X52276005Y-39540144D01*
X52162737Y-39370626D01*
X52018574Y-39226463D01*
X51849056Y-39113195D01*
X51660698Y-39035174D01*
X51460739Y-38995400D01*
X51256861Y-38995400D01*
X51056902Y-39035174D01*
X50868544Y-39113195D01*
X50699026Y-39226463D01*
X50554863Y-39370626D01*
X50441595Y-39540144D01*
X50363574Y-39728502D01*
X50323800Y-39928461D01*
X50323800Y-40132339D01*
X50363574Y-40332298D01*
X50441595Y-40520656D01*
X50554863Y-40690174D01*
X50699026Y-40834337D01*
X50868544Y-40947605D01*
X51056902Y-41025626D01*
X51256861Y-41065400D01*
X51318998Y-41065400D01*
X51427400Y-41173802D01*
X51451199Y-41202801D01*
X51566924Y-41297774D01*
X51698953Y-41368346D01*
X51842214Y-41411803D01*
X51953867Y-41422800D01*
X51953875Y-41422800D01*
X51991200Y-41426476D01*
X52028525Y-41422800D01*
X52941089Y-41422800D01*
X52985026Y-41466737D01*
X53154544Y-41580005D01*
X53342902Y-41658026D01*
X53542861Y-41697800D01*
X53544198Y-41697800D01*
X45957598Y-49284401D01*
X39858121Y-49284401D01*
X39820798Y-49280725D01*
X39783476Y-49284401D01*
X39783466Y-49284401D01*
X39671813Y-49295398D01*
X39528552Y-49338855D01*
X39396574Y-49409400D01*
X39318861Y-49409400D01*
X39118902Y-49449174D01*
X38930544Y-49527195D01*
X38761026Y-49640463D01*
X38616863Y-49784626D01*
X38503595Y-49954144D01*
X38425574Y-50142502D01*
X38385800Y-50342461D01*
X38385800Y-50546339D01*
X38409984Y-50667920D01*
X38407702Y-50668374D01*
X38219344Y-50746395D01*
X38049826Y-50859663D01*
X38005889Y-50903600D01*
X37381311Y-50903600D01*
X37337374Y-50859663D01*
X37167856Y-50746395D01*
X36979498Y-50668374D01*
X36779539Y-50628600D01*
X36575661Y-50628600D01*
X36375702Y-50668374D01*
X36187344Y-50746395D01*
X36017826Y-50859663D01*
X35873663Y-51003826D01*
X35760395Y-51173344D01*
X35682374Y-51361702D01*
X35642600Y-51561661D01*
X35642600Y-51765539D01*
X35682374Y-51965498D01*
X35760395Y-52153856D01*
X35873663Y-52323374D01*
X36017826Y-52467537D01*
X36187344Y-52580805D01*
X36375702Y-52658826D01*
X36575661Y-52698600D01*
X36779539Y-52698600D01*
X36979498Y-52658826D01*
X37167856Y-52580805D01*
X37337374Y-52467537D01*
X37381311Y-52423600D01*
X38005889Y-52423600D01*
X38049826Y-52467537D01*
X38219344Y-52580805D01*
X38407702Y-52658826D01*
X38607661Y-52698600D01*
X38811539Y-52698600D01*
X39011498Y-52658826D01*
X39199856Y-52580805D01*
X39369374Y-52467537D01*
X39513537Y-52323374D01*
X39561332Y-52251843D01*
X39573826Y-52264337D01*
X39743344Y-52377605D01*
X39931702Y-52455626D01*
X40131661Y-52495400D01*
X40335539Y-52495400D01*
X40535498Y-52455626D01*
X40723856Y-52377605D01*
X40893374Y-52264337D01*
X40937311Y-52220400D01*
X45139799Y-52220400D01*
X42697399Y-54662800D01*
X33825311Y-54662800D01*
X33781374Y-54618863D01*
X33611856Y-54505595D01*
X33423498Y-54427574D01*
X33223539Y-54387800D01*
X33019661Y-54387800D01*
X32819702Y-54427574D01*
X32631344Y-54505595D01*
X32461826Y-54618863D01*
X32317663Y-54763026D01*
X32204395Y-54932544D01*
X32126374Y-55120902D01*
X32086600Y-55320861D01*
X20472000Y-55320861D01*
X20472000Y-38239000D01*
X23757928Y-38239000D01*
X23757928Y-39739000D01*
X23770188Y-39863482D01*
X23806498Y-39983180D01*
X23865463Y-40093494D01*
X23944815Y-40190185D01*
X24041506Y-40269537D01*
X24151820Y-40328502D01*
X24271518Y-40364812D01*
X24396000Y-40377072D01*
X25896000Y-40377072D01*
X26020482Y-40364812D01*
X26140180Y-40328502D01*
X26250494Y-40269537D01*
X26347185Y-40190185D01*
X26426537Y-40093494D01*
X26485502Y-39983180D01*
X26521812Y-39863482D01*
X26532445Y-39755517D01*
X26610201Y-39871886D01*
X26803114Y-40064799D01*
X27029957Y-40216371D01*
X27282011Y-40320775D01*
X27549589Y-40374000D01*
X27822411Y-40374000D01*
X28089989Y-40320775D01*
X28342043Y-40216371D01*
X28568886Y-40064799D01*
X28761799Y-39871886D01*
X28913371Y-39645043D01*
X28956000Y-39542127D01*
X28998629Y-39645043D01*
X29150201Y-39871886D01*
X29343114Y-40064799D01*
X29569957Y-40216371D01*
X29822011Y-40320775D01*
X30089589Y-40374000D01*
X30362411Y-40374000D01*
X30629989Y-40320775D01*
X30882043Y-40216371D01*
X31108886Y-40064799D01*
X31301799Y-39871886D01*
X31453371Y-39645043D01*
X31496000Y-39542127D01*
X31538629Y-39645043D01*
X31690201Y-39871886D01*
X31883114Y-40064799D01*
X32109957Y-40216371D01*
X32362011Y-40320775D01*
X32629589Y-40374000D01*
X32902411Y-40374000D01*
X33169989Y-40320775D01*
X33422043Y-40216371D01*
X33470999Y-40183659D01*
X33471000Y-45006998D01*
X30236999Y-48241000D01*
X30174861Y-48241000D01*
X29974902Y-48280774D01*
X29786544Y-48358795D01*
X29617026Y-48472063D01*
X29472863Y-48616226D01*
X29359595Y-48785744D01*
X29281574Y-48974102D01*
X29241800Y-49174061D01*
X29241800Y-49377939D01*
X29281574Y-49577898D01*
X29359595Y-49766256D01*
X29472863Y-49935774D01*
X29617026Y-50079937D01*
X29786544Y-50193205D01*
X29974902Y-50271226D01*
X30174861Y-50311000D01*
X30378739Y-50311000D01*
X30578698Y-50271226D01*
X30767056Y-50193205D01*
X30936574Y-50079937D01*
X31080737Y-49935774D01*
X31194005Y-49766256D01*
X31272026Y-49577898D01*
X31311800Y-49377939D01*
X31311800Y-49315801D01*
X34742002Y-45885600D01*
X34771000Y-45861802D01*
X34865973Y-45746077D01*
X34936545Y-45614048D01*
X34980002Y-45470787D01*
X34990999Y-45359134D01*
X34990999Y-45359124D01*
X34994675Y-45321801D01*
X34990999Y-45284478D01*
X34990999Y-40338476D01*
X35169589Y-40374000D01*
X35442411Y-40374000D01*
X35709989Y-40320775D01*
X35962043Y-40216371D01*
X36188886Y-40064799D01*
X36381799Y-39871886D01*
X36533371Y-39645043D01*
X36576000Y-39542127D01*
X36618629Y-39645043D01*
X36770201Y-39871886D01*
X36963114Y-40064799D01*
X37189957Y-40216371D01*
X37442011Y-40320775D01*
X37709589Y-40374000D01*
X37982411Y-40374000D01*
X38070776Y-40356423D01*
X37552199Y-40875000D01*
X37490061Y-40875000D01*
X37290102Y-40914774D01*
X37101744Y-40992795D01*
X36932226Y-41106063D01*
X36788063Y-41250226D01*
X36674795Y-41419744D01*
X36596774Y-41608102D01*
X36557000Y-41808061D01*
X36557000Y-42011939D01*
X36596774Y-42211898D01*
X36674795Y-42400256D01*
X36788063Y-42569774D01*
X36932226Y-42713937D01*
X37101744Y-42827205D01*
X37290102Y-42905226D01*
X37490061Y-42945000D01*
X37693939Y-42945000D01*
X37893898Y-42905226D01*
X38082256Y-42827205D01*
X38251774Y-42713937D01*
X38395937Y-42569774D01*
X38509205Y-42400256D01*
X38587226Y-42211898D01*
X38627000Y-42011939D01*
X38627000Y-41949801D01*
X38639800Y-41937001D01*
X38639800Y-41961139D01*
X38679574Y-42161098D01*
X38757595Y-42349456D01*
X38870863Y-42518974D01*
X39015026Y-42663137D01*
X39184544Y-42776405D01*
X39372902Y-42854426D01*
X39572861Y-42894200D01*
X39776739Y-42894200D01*
X39976698Y-42854426D01*
X40165056Y-42776405D01*
X40334574Y-42663137D01*
X40478737Y-42518974D01*
X40592005Y-42349456D01*
X40670026Y-42161098D01*
X40709800Y-41961139D01*
X40709800Y-41899001D01*
X42167003Y-40441799D01*
X42196001Y-40418001D01*
X42274257Y-40322646D01*
X42290974Y-40302277D01*
X42324759Y-40239071D01*
X42522011Y-40320775D01*
X42789589Y-40374000D01*
X43062411Y-40374000D01*
X43329989Y-40320775D01*
X43582043Y-40216371D01*
X43808886Y-40064799D01*
X44001799Y-39871886D01*
X44153371Y-39645043D01*
X44196000Y-39542127D01*
X44238629Y-39645043D01*
X44390201Y-39871886D01*
X44583114Y-40064799D01*
X44809957Y-40216371D01*
X45062011Y-40320775D01*
X45329589Y-40374000D01*
X45602411Y-40374000D01*
X45869989Y-40320775D01*
X46122043Y-40216371D01*
X46348886Y-40064799D01*
X46541799Y-39871886D01*
X46693371Y-39645043D01*
X46797775Y-39392989D01*
X46851000Y-39125411D01*
X46851000Y-38852589D01*
X46797775Y-38585011D01*
X46693371Y-38332957D01*
X46541799Y-38106114D01*
X46348886Y-37913201D01*
X46122043Y-37761629D01*
X45869989Y-37657225D01*
X45602411Y-37604000D01*
X45329589Y-37604000D01*
X45062011Y-37657225D01*
X44809957Y-37761629D01*
X44583114Y-37913201D01*
X44390201Y-38106114D01*
X44238629Y-38332957D01*
X44196000Y-38435873D01*
X44153371Y-38332957D01*
X44001799Y-38106114D01*
X43808886Y-37913201D01*
X43582043Y-37761629D01*
X43329989Y-37657225D01*
X43062411Y-37604000D01*
X42789589Y-37604000D01*
X42522011Y-37657225D01*
X42416000Y-37701136D01*
X42416000Y-26116982D01*
X42419676Y-26079659D01*
X42416000Y-26042336D01*
X42416000Y-26042327D01*
X42405003Y-25930674D01*
X42361546Y-25787413D01*
X42290974Y-25655384D01*
X42196001Y-25539659D01*
X42167004Y-25515862D01*
X41372413Y-24721272D01*
X41461799Y-24631886D01*
X41613371Y-24405043D01*
X41656000Y-24302127D01*
X41698629Y-24405043D01*
X41850201Y-24631886D01*
X42043114Y-24824799D01*
X42269957Y-24976371D01*
X42522011Y-25080775D01*
X42789589Y-25134000D01*
X43062411Y-25134000D01*
X43329989Y-25080775D01*
X43582043Y-24976371D01*
X43808886Y-24824799D01*
X44001799Y-24631886D01*
X44153371Y-24405043D01*
X44196000Y-24302127D01*
X44238629Y-24405043D01*
X44390201Y-24631886D01*
X44583114Y-24824799D01*
X44809957Y-24976371D01*
X45062011Y-25080775D01*
X45329589Y-25134000D01*
X45602411Y-25134000D01*
X45869989Y-25080775D01*
X46122043Y-24976371D01*
X46348886Y-24824799D01*
X46541799Y-24631886D01*
X46693371Y-24405043D01*
X46797775Y-24152989D01*
X46851000Y-23885411D01*
X46851000Y-23612589D01*
X46797775Y-23345011D01*
X46693371Y-23092957D01*
X46541799Y-22866114D01*
X46348886Y-22673201D01*
X46122043Y-22521629D01*
X45869989Y-22417225D01*
X45602411Y-22364000D01*
X45329589Y-22364000D01*
X45062011Y-22417225D01*
X44809957Y-22521629D01*
X44583114Y-22673201D01*
X44390201Y-22866114D01*
X44238629Y-23092957D01*
X44196000Y-23195873D01*
X44153371Y-23092957D01*
X44001799Y-22866114D01*
X43808886Y-22673201D01*
X43582043Y-22521629D01*
X43329989Y-22417225D01*
X43062411Y-22364000D01*
X42789589Y-22364000D01*
X42674003Y-22386992D01*
X42691000Y-22301539D01*
X42691000Y-22097661D01*
X42651226Y-21897702D01*
X42573205Y-21709344D01*
X42459937Y-21539826D01*
X42315774Y-21395663D01*
X42146256Y-21282395D01*
X41957898Y-21204374D01*
X41757939Y-21164600D01*
X41554061Y-21164600D01*
X41354102Y-21204374D01*
X41165744Y-21282395D01*
X40996226Y-21395663D01*
X40952289Y-21439600D01*
X38549711Y-21439600D01*
X38505774Y-21395663D01*
X38336256Y-21282395D01*
X38147898Y-21204374D01*
X37947939Y-21164600D01*
X37744061Y-21164600D01*
X37544102Y-21204374D01*
X37355744Y-21282395D01*
X37186226Y-21395663D01*
X37042063Y-21539826D01*
X36928795Y-21709344D01*
X36850774Y-21897702D01*
X36811000Y-22097661D01*
X36811000Y-22301539D01*
X36850774Y-22501498D01*
X36928795Y-22689856D01*
X36935870Y-22700445D01*
X36770201Y-22866114D01*
X36618629Y-23092957D01*
X36576000Y-23195873D01*
X36533371Y-23092957D01*
X36381799Y-22866114D01*
X36188886Y-22673201D01*
X35962043Y-22521629D01*
X35709989Y-22417225D01*
X35442411Y-22364000D01*
X35169589Y-22364000D01*
X34902011Y-22417225D01*
X34649957Y-22521629D01*
X34423114Y-22673201D01*
X34230201Y-22866114D01*
X34078629Y-23092957D01*
X34036000Y-23195873D01*
X33993371Y-23092957D01*
X33841799Y-22866114D01*
X33648886Y-22673201D01*
X33422043Y-22521629D01*
X33169989Y-22417225D01*
X32902411Y-22364000D01*
X32629589Y-22364000D01*
X32362011Y-22417225D01*
X32109957Y-22521629D01*
X31883114Y-22673201D01*
X31690201Y-22866114D01*
X31538629Y-23092957D01*
X31496000Y-23195873D01*
X31453371Y-23092957D01*
X31301799Y-22866114D01*
X31108886Y-22673201D01*
X30882043Y-22521629D01*
X30629989Y-22417225D01*
X30362411Y-22364000D01*
X30089589Y-22364000D01*
X29822011Y-22417225D01*
X29569957Y-22521629D01*
X29343114Y-22673201D01*
X29150201Y-22866114D01*
X28998629Y-23092957D01*
X28956000Y-23195873D01*
X28913371Y-23092957D01*
X28761799Y-22866114D01*
X28568886Y-22673201D01*
X28342043Y-22521629D01*
X28089989Y-22417225D01*
X27822411Y-22364000D01*
X27549589Y-22364000D01*
X27282011Y-22417225D01*
X27029957Y-22521629D01*
X26803114Y-22673201D01*
X26610201Y-22866114D01*
X26458629Y-23092957D01*
X26416000Y-23195873D01*
X26373371Y-23092957D01*
X26221799Y-22866114D01*
X26028886Y-22673201D01*
X25802043Y-22521629D01*
X25549989Y-22417225D01*
X25282411Y-22364000D01*
X25009589Y-22364000D01*
X24742011Y-22417225D01*
X24489957Y-22521629D01*
X24263114Y-22673201D01*
X24070201Y-22866114D01*
X23918629Y-23092957D01*
X23814225Y-23345011D01*
X23761000Y-23612589D01*
X23761000Y-23885411D01*
X23814225Y-24152989D01*
X23918629Y-24405043D01*
X24070201Y-24631886D01*
X24263114Y-24824799D01*
X24489957Y-24976371D01*
X24742011Y-25080775D01*
X25009589Y-25134000D01*
X25282411Y-25134000D01*
X25549989Y-25080775D01*
X25802043Y-24976371D01*
X26028886Y-24824799D01*
X26221799Y-24631886D01*
X26373371Y-24405043D01*
X26416000Y-24302127D01*
X26458629Y-24405043D01*
X26610201Y-24631886D01*
X26803114Y-24824799D01*
X27029957Y-24976371D01*
X27282011Y-25080775D01*
X27549589Y-25134000D01*
X27822411Y-25134000D01*
X28089989Y-25080775D01*
X28342043Y-24976371D01*
X28568886Y-24824799D01*
X28761799Y-24631886D01*
X28913371Y-24405043D01*
X28956000Y-24302127D01*
X28998629Y-24405043D01*
X29150201Y-24631886D01*
X29343114Y-24824799D01*
X29569957Y-24976371D01*
X29822011Y-25080775D01*
X30089589Y-25134000D01*
X30362411Y-25134000D01*
X30629989Y-25080775D01*
X30882043Y-24976371D01*
X31108886Y-24824799D01*
X31301799Y-24631886D01*
X31453371Y-24405043D01*
X31496000Y-24302127D01*
X31538629Y-24405043D01*
X31690201Y-24631886D01*
X31883114Y-24824799D01*
X32109957Y-24976371D01*
X32362011Y-25080775D01*
X32629589Y-25134000D01*
X32902411Y-25134000D01*
X33169989Y-25080775D01*
X33422043Y-24976371D01*
X33648886Y-24824799D01*
X33841799Y-24631886D01*
X33993371Y-24405043D01*
X34036000Y-24302127D01*
X34078629Y-24405043D01*
X34230201Y-24631886D01*
X34423114Y-24824799D01*
X34546000Y-24906909D01*
X34546000Y-25309889D01*
X34492574Y-25256463D01*
X34323056Y-25143195D01*
X34134698Y-25065174D01*
X33934739Y-25025400D01*
X33730861Y-25025400D01*
X33530902Y-25065174D01*
X33342544Y-25143195D01*
X33173026Y-25256463D01*
X33028863Y-25400626D01*
X32915595Y-25570144D01*
X32837574Y-25758502D01*
X32797800Y-25958461D01*
X32797800Y-26011600D01*
X25849711Y-26011600D01*
X25805774Y-25967663D01*
X25636256Y-25854395D01*
X25447898Y-25776374D01*
X25247939Y-25736600D01*
X25044061Y-25736600D01*
X24844102Y-25776374D01*
X24655744Y-25854395D01*
X24486226Y-25967663D01*
X24342063Y-26111826D01*
X24228795Y-26281344D01*
X24150774Y-26469702D01*
X24111000Y-26669661D01*
X24111000Y-26873539D01*
X24150774Y-27073498D01*
X24228795Y-27261856D01*
X24342063Y-27431374D01*
X24486226Y-27575537D01*
X24655744Y-27688805D01*
X24844102Y-27766826D01*
X25044061Y-27806600D01*
X25247939Y-27806600D01*
X25447898Y-27766826D01*
X25636256Y-27688805D01*
X25805774Y-27575537D01*
X25849711Y-27531600D01*
X33084278Y-27531600D01*
X33121600Y-27535276D01*
X33158922Y-27531600D01*
X33158933Y-27531600D01*
X33270586Y-27520603D01*
X33413847Y-27477146D01*
X33545876Y-27406574D01*
X33661601Y-27311601D01*
X33685403Y-27282598D01*
X33872601Y-27095400D01*
X33934739Y-27095400D01*
X34134698Y-27055626D01*
X34323056Y-26977605D01*
X34492574Y-26864337D01*
X34546000Y-26810911D01*
X34546001Y-36300527D01*
X34458937Y-36170226D01*
X34314774Y-36026063D01*
X34145256Y-35912795D01*
X33956898Y-35834774D01*
X33756939Y-35795000D01*
X33553061Y-35795000D01*
X33353102Y-35834774D01*
X33164744Y-35912795D01*
X32995226Y-36026063D01*
X32951289Y-36070000D01*
X29882322Y-36070000D01*
X29844999Y-36066324D01*
X29807676Y-36070000D01*
X29807667Y-36070000D01*
X29696014Y-36080997D01*
X29588871Y-36113498D01*
X29552753Y-36124454D01*
X29420723Y-36195026D01*
X29351526Y-36251815D01*
X29304999Y-36289999D01*
X29281201Y-36318997D01*
X27967365Y-37632833D01*
X27822411Y-37604000D01*
X27549589Y-37604000D01*
X27282011Y-37657225D01*
X27029957Y-37761629D01*
X26803114Y-37913201D01*
X26610201Y-38106114D01*
X26532445Y-38222483D01*
X26521812Y-38114518D01*
X26485502Y-37994820D01*
X26426537Y-37884506D01*
X26347185Y-37787815D01*
X26250494Y-37708463D01*
X26140180Y-37649498D01*
X26020482Y-37613188D01*
X25896000Y-37600928D01*
X24396000Y-37600928D01*
X24271518Y-37613188D01*
X24151820Y-37649498D01*
X24041506Y-37708463D01*
X23944815Y-37787815D01*
X23865463Y-37884506D01*
X23806498Y-37994820D01*
X23770188Y-38114518D01*
X23757928Y-38239000D01*
X20472000Y-38239000D01*
X20472000Y-17932000D01*
X83668001Y-17932000D01*
X83668000Y-88748000D01*
G37*
X83668000Y-88748000D02*
X20472000Y-88748000D01*
X20472000Y-81758000D01*
X26890928Y-81758000D01*
X26890928Y-84358000D01*
X26903188Y-84482482D01*
X26939498Y-84602180D01*
X26998463Y-84712494D01*
X27077815Y-84809185D01*
X27174506Y-84888537D01*
X27284820Y-84947502D01*
X27404518Y-84983812D01*
X27529000Y-84996072D01*
X30129000Y-84996072D01*
X30253482Y-84983812D01*
X30373180Y-84947502D01*
X30483494Y-84888537D01*
X30580185Y-84809185D01*
X30659537Y-84712494D01*
X30718502Y-84602180D01*
X30754812Y-84482482D01*
X30767072Y-84358000D01*
X30767072Y-84284117D01*
X41191000Y-84284117D01*
X41191000Y-84625883D01*
X41257675Y-84961081D01*
X41388463Y-85276831D01*
X41578337Y-85560998D01*
X41820002Y-85802663D01*
X42104169Y-85992537D01*
X42419919Y-86123325D01*
X42755117Y-86190000D01*
X43096883Y-86190000D01*
X43432081Y-86123325D01*
X43747831Y-85992537D01*
X44031998Y-85802663D01*
X44273663Y-85560998D01*
X44463537Y-85276831D01*
X44594325Y-84961081D01*
X44661000Y-84625883D01*
X44661000Y-84284117D01*
X44594325Y-83948919D01*
X44463537Y-83633169D01*
X44277671Y-83355000D01*
X51347928Y-83355000D01*
X51347928Y-85555000D01*
X51360188Y-85679482D01*
X51396498Y-85799180D01*
X51455463Y-85909494D01*
X51534815Y-86006185D01*
X51631506Y-86085537D01*
X51741820Y-86144502D01*
X51861518Y-86180812D01*
X51986000Y-86193072D01*
X54186000Y-86193072D01*
X54310482Y-86180812D01*
X54430180Y-86144502D01*
X54540494Y-86085537D01*
X54637185Y-86006185D01*
X54716537Y-85909494D01*
X54775502Y-85799180D01*
X54811812Y-85679482D01*
X54824072Y-85555000D01*
X54824072Y-83355000D01*
X54811812Y-83230518D01*
X54775502Y-83110820D01*
X54716537Y-83000506D01*
X54637185Y-82903815D01*
X54540494Y-82824463D01*
X54430180Y-82765498D01*
X54310482Y-82729188D01*
X54186000Y-82716928D01*
X51986000Y-82716928D01*
X51861518Y-82729188D01*
X51741820Y-82765498D01*
X51631506Y-82824463D01*
X51534815Y-82903815D01*
X51455463Y-83000506D01*
X51396498Y-83110820D01*
X51360188Y-83230518D01*
X51347928Y-83355000D01*
X44277671Y-83355000D01*
X44273663Y-83349002D01*
X44031998Y-83107337D01*
X43747831Y-82917463D01*
X43432081Y-82786675D01*
X43096883Y-82720000D01*
X42755117Y-82720000D01*
X42419919Y-82786675D01*
X42104169Y-82917463D01*
X41820002Y-83107337D01*
X41578337Y-83349002D01*
X41388463Y-83633169D01*
X41257675Y-83948919D01*
X41191000Y-84284117D01*
X30767072Y-84284117D01*
X30767072Y-81758000D01*
X30754812Y-81633518D01*
X30718502Y-81513820D01*
X30659537Y-81403506D01*
X30580185Y-81306815D01*
X30483494Y-81227463D01*
X30373180Y-81168498D01*
X30253482Y-81132188D01*
X30129000Y-81119928D01*
X27529000Y-81119928D01*
X27404518Y-81132188D01*
X27284820Y-81168498D01*
X27174506Y-81227463D01*
X27077815Y-81306815D01*
X26998463Y-81403506D01*
X26939498Y-81513820D01*
X26903188Y-81633518D01*
X26890928Y-81758000D01*
X20472000Y-81758000D01*
X20472000Y-80249665D01*
X36411000Y-80249665D01*
X36411000Y-80532335D01*
X36466147Y-80809574D01*
X36574320Y-81070727D01*
X36731363Y-81305759D01*
X36931241Y-81505637D01*
X37166273Y-81662680D01*
X37427426Y-81770853D01*
X37704665Y-81826000D01*
X37987335Y-81826000D01*
X38264574Y-81770853D01*
X38525727Y-81662680D01*
X38760759Y-81505637D01*
X38960637Y-81305759D01*
X39117680Y-81070727D01*
X39225853Y-80809574D01*
X39281000Y-80532335D01*
X39281000Y-80249665D01*
X41491000Y-80249665D01*
X41491000Y-80532335D01*
X41546147Y-80809574D01*
X41654320Y-81070727D01*
X41811363Y-81305759D01*
X42011241Y-81505637D01*
X42246273Y-81662680D01*
X42507426Y-81770853D01*
X42784665Y-81826000D01*
X43067335Y-81826000D01*
X43344574Y-81770853D01*
X43605727Y-81662680D01*
X43840759Y-81505637D01*
X43875694Y-81470702D01*
X74624903Y-81470702D01*
X74696486Y-81714671D01*
X74951996Y-81835571D01*
X75226184Y-81904300D01*
X75508512Y-81918217D01*
X75788130Y-81876787D01*
X76054292Y-81781603D01*
X76179514Y-81714671D01*
X76251097Y-81470702D01*
X75438000Y-80657605D01*
X74624903Y-81470702D01*
X43875694Y-81470702D01*
X44040637Y-81305759D01*
X44197680Y-81070727D01*
X44291716Y-80843702D01*
X61162903Y-80843702D01*
X61234486Y-81087671D01*
X61489996Y-81208571D01*
X61764184Y-81277300D01*
X62046512Y-81291217D01*
X62326130Y-81249787D01*
X62592292Y-81154603D01*
X62717514Y-81087671D01*
X62789097Y-80843702D01*
X61976000Y-80030605D01*
X61162903Y-80843702D01*
X44291716Y-80843702D01*
X44305853Y-80809574D01*
X44361000Y-80532335D01*
X44361000Y-80249665D01*
X44305853Y-79972426D01*
X44284764Y-79921512D01*
X60535783Y-79921512D01*
X60577213Y-80201130D01*
X60672397Y-80467292D01*
X60739329Y-80592514D01*
X60983298Y-80664097D01*
X61796395Y-79851000D01*
X61782253Y-79836858D01*
X61961858Y-79657253D01*
X61976000Y-79671395D01*
X61990143Y-79657253D01*
X62169748Y-79836858D01*
X62155605Y-79851000D01*
X62968702Y-80664097D01*
X63212671Y-80592514D01*
X63233491Y-80548512D01*
X73997783Y-80548512D01*
X74039213Y-80828130D01*
X74134397Y-81094292D01*
X74201329Y-81219514D01*
X74445298Y-81291097D01*
X75258395Y-80478000D01*
X75617605Y-80478000D01*
X76430702Y-81291097D01*
X76674671Y-81219514D01*
X76795571Y-80964004D01*
X76864300Y-80689816D01*
X76878217Y-80407488D01*
X76836787Y-80127870D01*
X76741603Y-79861708D01*
X76674671Y-79736486D01*
X76430702Y-79664903D01*
X75617605Y-80478000D01*
X75258395Y-80478000D01*
X74445298Y-79664903D01*
X74201329Y-79736486D01*
X74080429Y-79991996D01*
X74011700Y-80266184D01*
X73997783Y-80548512D01*
X63233491Y-80548512D01*
X63333571Y-80337004D01*
X63402300Y-80062816D01*
X63416217Y-79780488D01*
X63374787Y-79500870D01*
X63279603Y-79234708D01*
X63214384Y-79112691D01*
X63227185Y-79102185D01*
X63306537Y-79005494D01*
X63365502Y-78895180D01*
X63401812Y-78775482D01*
X63414072Y-78651000D01*
X63414072Y-77178000D01*
X73999928Y-77178000D01*
X73999928Y-78778000D01*
X74012188Y-78902482D01*
X74048498Y-79022180D01*
X74107463Y-79132494D01*
X74186815Y-79229185D01*
X74283506Y-79308537D01*
X74393820Y-79367502D01*
X74513518Y-79403812D01*
X74638000Y-79416072D01*
X74645215Y-79416072D01*
X74624903Y-79485298D01*
X75438000Y-80298395D01*
X76251097Y-79485298D01*
X76230785Y-79416072D01*
X76238000Y-79416072D01*
X76362482Y-79403812D01*
X76482180Y-79367502D01*
X76592494Y-79308537D01*
X76689185Y-79229185D01*
X76768537Y-79132494D01*
X76827502Y-79022180D01*
X76863812Y-78902482D01*
X76876072Y-78778000D01*
X76876072Y-77178000D01*
X76863812Y-77053518D01*
X76827502Y-76933820D01*
X76768537Y-76823506D01*
X76689185Y-76726815D01*
X76592494Y-76647463D01*
X76482180Y-76588498D01*
X76362482Y-76552188D01*
X76238000Y-76539928D01*
X74638000Y-76539928D01*
X74513518Y-76552188D01*
X74393820Y-76588498D01*
X74283506Y-76647463D01*
X74186815Y-76726815D01*
X74107463Y-76823506D01*
X74048498Y-76933820D01*
X74012188Y-77053518D01*
X73999928Y-77178000D01*
X63414072Y-77178000D01*
X63414072Y-77051000D01*
X63401812Y-76926518D01*
X63365502Y-76806820D01*
X63306537Y-76696506D01*
X63227185Y-76599815D01*
X63130494Y-76520463D01*
X63020180Y-76461498D01*
X62900482Y-76425188D01*
X62776000Y-76412928D01*
X61176000Y-76412928D01*
X61051518Y-76425188D01*
X60931820Y-76461498D01*
X60821506Y-76520463D01*
X60724815Y-76599815D01*
X60645463Y-76696506D01*
X60586498Y-76806820D01*
X60550188Y-76926518D01*
X60537928Y-77051000D01*
X60537928Y-78651000D01*
X60550188Y-78775482D01*
X60586498Y-78895180D01*
X60645463Y-79005494D01*
X60724815Y-79102185D01*
X60737758Y-79112807D01*
X60618429Y-79364996D01*
X60549700Y-79639184D01*
X60535783Y-79921512D01*
X44284764Y-79921512D01*
X44197680Y-79711273D01*
X44040637Y-79476241D01*
X43840759Y-79276363D01*
X43605727Y-79119320D01*
X43344574Y-79011147D01*
X43067335Y-78956000D01*
X42784665Y-78956000D01*
X42507426Y-79011147D01*
X42246273Y-79119320D01*
X42011241Y-79276363D01*
X41811363Y-79476241D01*
X41654320Y-79711273D01*
X41546147Y-79972426D01*
X41491000Y-80249665D01*
X39281000Y-80249665D01*
X39225853Y-79972426D01*
X39117680Y-79711273D01*
X38960637Y-79476241D01*
X38760759Y-79276363D01*
X38525727Y-79119320D01*
X38264574Y-79011147D01*
X37987335Y-78956000D01*
X37704665Y-78956000D01*
X37427426Y-79011147D01*
X37166273Y-79119320D01*
X36931241Y-79276363D01*
X36731363Y-79476241D01*
X36574320Y-79711273D01*
X36466147Y-79972426D01*
X36411000Y-80249665D01*
X20472000Y-80249665D01*
X20472000Y-79327224D01*
X27659381Y-79327224D01*
X27791317Y-79622312D01*
X28132045Y-79793159D01*
X28499557Y-79894250D01*
X28879729Y-79921701D01*
X29257951Y-79874457D01*
X29619690Y-79754333D01*
X29866683Y-79622312D01*
X29998619Y-79327224D01*
X28829000Y-78157605D01*
X27659381Y-79327224D01*
X20472000Y-79327224D01*
X20472000Y-78028729D01*
X26885299Y-78028729D01*
X26932543Y-78406951D01*
X27052667Y-78768690D01*
X27184688Y-79015683D01*
X27479776Y-79147619D01*
X28649395Y-77978000D01*
X29008605Y-77978000D01*
X30178224Y-79147619D01*
X30473312Y-79015683D01*
X30644159Y-78674955D01*
X30745250Y-78307443D01*
X30772701Y-77927271D01*
X30725457Y-77549049D01*
X30605333Y-77187310D01*
X30473312Y-76940317D01*
X30178224Y-76808381D01*
X29008605Y-77978000D01*
X28649395Y-77978000D01*
X27479776Y-76808381D01*
X27184688Y-76940317D01*
X27013841Y-77281045D01*
X26912750Y-77648557D01*
X26885299Y-78028729D01*
X20472000Y-78028729D01*
X20472000Y-76628776D01*
X27659381Y-76628776D01*
X28829000Y-77798395D01*
X29998619Y-76628776D01*
X29866683Y-76333688D01*
X29525955Y-76162841D01*
X29158443Y-76061750D01*
X28778271Y-76034299D01*
X28400049Y-76081543D01*
X28038310Y-76201667D01*
X27791317Y-76333688D01*
X27659381Y-76628776D01*
X20472000Y-76628776D01*
X20472000Y-72707419D01*
X26894000Y-72707419D01*
X26894000Y-73088581D01*
X26968361Y-73462419D01*
X27114225Y-73814566D01*
X27325987Y-74131491D01*
X27595509Y-74401013D01*
X27912434Y-74612775D01*
X28264581Y-74758639D01*
X28638419Y-74833000D01*
X29019581Y-74833000D01*
X29393419Y-74758639D01*
X29745566Y-74612775D01*
X30062491Y-74401013D01*
X30332013Y-74131491D01*
X30543775Y-73814566D01*
X30689639Y-73462419D01*
X30764000Y-73088581D01*
X30764000Y-72707419D01*
X30689639Y-72333581D01*
X30543775Y-71981434D01*
X30332013Y-71664509D01*
X30062491Y-71394987D01*
X29864959Y-71263000D01*
X61655428Y-71263000D01*
X61655428Y-73263000D01*
X61667688Y-73387482D01*
X61703998Y-73507180D01*
X61762963Y-73617494D01*
X61842315Y-73714185D01*
X61939006Y-73793537D01*
X62049320Y-73852502D01*
X62169018Y-73888812D01*
X62293500Y-73901072D01*
X64198500Y-73901072D01*
X64322982Y-73888812D01*
X64442680Y-73852502D01*
X64552994Y-73793537D01*
X64649685Y-73714185D01*
X64729037Y-73617494D01*
X64778059Y-73525781D01*
X64919077Y-73638969D01*
X65194906Y-73782571D01*
X65413020Y-73853563D01*
X65659000Y-73733594D01*
X65659000Y-72390000D01*
X65639000Y-72390000D01*
X65639000Y-72136000D01*
X65659000Y-72136000D01*
X65659000Y-70792406D01*
X65913000Y-70792406D01*
X65913000Y-72136000D01*
X65933000Y-72136000D01*
X65933000Y-72390000D01*
X65913000Y-72390000D01*
X65913000Y-73733594D01*
X66158980Y-73853563D01*
X66377094Y-73782571D01*
X66652923Y-73638969D01*
X66895437Y-73444315D01*
X67050837Y-73259101D01*
X67198037Y-73438463D01*
X67439766Y-73636845D01*
X67715552Y-73784255D01*
X68014797Y-73875030D01*
X68326000Y-73905681D01*
X68637204Y-73875030D01*
X68936449Y-73784255D01*
X69212235Y-73636845D01*
X69453963Y-73438463D01*
X69652345Y-73196734D01*
X69799755Y-72920948D01*
X69890530Y-72621703D01*
X69913500Y-72388485D01*
X69913500Y-72137514D01*
X69890530Y-71904296D01*
X69799755Y-71605051D01*
X69652345Y-71329265D01*
X69453963Y-71087537D01*
X69212234Y-70889155D01*
X68936448Y-70741745D01*
X68637203Y-70650970D01*
X68326000Y-70620319D01*
X68014796Y-70650970D01*
X67715551Y-70741745D01*
X67439765Y-70889155D01*
X67198037Y-71087537D01*
X67050838Y-71266900D01*
X66895437Y-71081685D01*
X66652923Y-70887031D01*
X66377094Y-70743429D01*
X66158980Y-70672437D01*
X65913000Y-70792406D01*
X65659000Y-70792406D01*
X65413020Y-70672437D01*
X65194906Y-70743429D01*
X64919077Y-70887031D01*
X64778059Y-71000219D01*
X64729037Y-70908506D01*
X64649685Y-70811815D01*
X64552994Y-70732463D01*
X64442680Y-70673498D01*
X64322982Y-70637188D01*
X64198500Y-70624928D01*
X62293500Y-70624928D01*
X62169018Y-70637188D01*
X62049320Y-70673498D01*
X61939006Y-70732463D01*
X61842315Y-70811815D01*
X61762963Y-70908506D01*
X61703998Y-71018820D01*
X61667688Y-71138518D01*
X61655428Y-71263000D01*
X29864959Y-71263000D01*
X29745566Y-71183225D01*
X29393419Y-71037361D01*
X29019581Y-70963000D01*
X28638419Y-70963000D01*
X28264581Y-71037361D01*
X27912434Y-71183225D01*
X27595509Y-71394987D01*
X27325987Y-71664509D01*
X27114225Y-71981434D01*
X26968361Y-72333581D01*
X26894000Y-72707419D01*
X20472000Y-72707419D01*
X20472000Y-64922061D01*
X43415000Y-64922061D01*
X43415000Y-65125939D01*
X43454774Y-65325898D01*
X43532795Y-65514256D01*
X43646063Y-65683774D01*
X43690001Y-65727712D01*
X43690001Y-66002668D01*
X43686324Y-66040000D01*
X43700998Y-66188985D01*
X43744454Y-66332246D01*
X43815026Y-66464276D01*
X43886201Y-66551002D01*
X43910000Y-66580001D01*
X43938998Y-66603799D01*
X45664201Y-68329003D01*
X45687999Y-68358001D01*
X45803724Y-68452974D01*
X45935753Y-68523546D01*
X46079014Y-68567003D01*
X46190667Y-68578000D01*
X46190675Y-68578000D01*
X46228000Y-68581676D01*
X46265325Y-68578000D01*
X70162289Y-68578000D01*
X70206226Y-68621937D01*
X70375744Y-68735205D01*
X70564102Y-68813226D01*
X70764061Y-68853000D01*
X70967939Y-68853000D01*
X71167898Y-68813226D01*
X71356256Y-68735205D01*
X71525774Y-68621937D01*
X71669937Y-68477774D01*
X71783205Y-68308256D01*
X71861226Y-68119898D01*
X71901000Y-67919939D01*
X71901000Y-67716061D01*
X71861226Y-67516102D01*
X71783205Y-67327744D01*
X71669937Y-67158226D01*
X71525774Y-67014063D01*
X71356256Y-66900795D01*
X71167898Y-66822774D01*
X70967939Y-66783000D01*
X70764061Y-66783000D01*
X70564102Y-66822774D01*
X70375744Y-66900795D01*
X70206226Y-67014063D01*
X70162289Y-67058000D01*
X50332413Y-67058000D01*
X50345605Y-67038256D01*
X50423626Y-66849898D01*
X50463400Y-66649939D01*
X50463400Y-66446061D01*
X50423626Y-66246102D01*
X50345605Y-66057744D01*
X50232337Y-65888226D01*
X50088174Y-65744063D01*
X49918656Y-65630795D01*
X49730298Y-65552774D01*
X49530339Y-65513000D01*
X49468203Y-65513000D01*
X47699200Y-63743999D01*
X47699200Y-60306553D01*
X47754902Y-60329626D01*
X47954861Y-60369400D01*
X48158739Y-60369400D01*
X48358698Y-60329626D01*
X48547056Y-60251605D01*
X48716574Y-60138337D01*
X48760511Y-60094400D01*
X52072001Y-60094400D01*
X52072000Y-61272289D01*
X52028063Y-61316226D01*
X51914795Y-61485744D01*
X51836774Y-61674102D01*
X51797000Y-61874061D01*
X51797000Y-62077939D01*
X51836774Y-62277898D01*
X51914795Y-62466256D01*
X52028063Y-62635774D01*
X52172226Y-62779937D01*
X52341744Y-62893205D01*
X52530102Y-62971226D01*
X52730061Y-63011000D01*
X52933939Y-63011000D01*
X53133898Y-62971226D01*
X53322256Y-62893205D01*
X53491774Y-62779937D01*
X53635937Y-62635774D01*
X53749205Y-62466256D01*
X53827226Y-62277898D01*
X53867000Y-62077939D01*
X53867000Y-61874061D01*
X53827226Y-61674102D01*
X53749205Y-61485744D01*
X53635937Y-61316226D01*
X53592000Y-61272289D01*
X53592000Y-60553261D01*
X61855400Y-60553261D01*
X61855400Y-60757139D01*
X61895174Y-60957098D01*
X61973195Y-61145456D01*
X62086463Y-61314974D01*
X62230626Y-61459137D01*
X62400144Y-61572405D01*
X62588502Y-61650426D01*
X62788461Y-61690200D01*
X62992339Y-61690200D01*
X63192298Y-61650426D01*
X63380656Y-61572405D01*
X63550174Y-61459137D01*
X63594111Y-61415200D01*
X66942478Y-61415200D01*
X66979800Y-61418876D01*
X67017122Y-61415200D01*
X67017133Y-61415200D01*
X67128786Y-61404203D01*
X67272047Y-61360746D01*
X67404076Y-61290174D01*
X67519801Y-61195201D01*
X67543604Y-61166197D01*
X69402802Y-59307000D01*
X72448289Y-59307000D01*
X72492226Y-59350937D01*
X72661744Y-59464205D01*
X72850102Y-59542226D01*
X73050061Y-59582000D01*
X73253939Y-59582000D01*
X73453898Y-59542226D01*
X73642256Y-59464205D01*
X73811774Y-59350937D01*
X73955937Y-59206774D01*
X74069205Y-59037256D01*
X74147226Y-58848898D01*
X74187000Y-58648939D01*
X74187000Y-58445061D01*
X74147226Y-58245102D01*
X74069205Y-58056744D01*
X73955937Y-57887226D01*
X73811774Y-57743063D01*
X73642256Y-57629795D01*
X73453898Y-57551774D01*
X73253939Y-57512000D01*
X73050061Y-57512000D01*
X72850102Y-57551774D01*
X72661744Y-57629795D01*
X72492226Y-57743063D01*
X72448289Y-57787000D01*
X69125322Y-57787000D01*
X69087999Y-57783324D01*
X69050676Y-57787000D01*
X69050667Y-57787000D01*
X68939014Y-57797997D01*
X68795753Y-57841454D01*
X68663723Y-57912026D01*
X68580083Y-57980668D01*
X68547999Y-58006999D01*
X68524201Y-58035997D01*
X66664999Y-59895200D01*
X63594111Y-59895200D01*
X63550174Y-59851263D01*
X63380656Y-59737995D01*
X63192298Y-59659974D01*
X62992339Y-59620200D01*
X62788461Y-59620200D01*
X62588502Y-59659974D01*
X62400144Y-59737995D01*
X62230626Y-59851263D01*
X62086463Y-59995426D01*
X61973195Y-60164944D01*
X61895174Y-60353302D01*
X61855400Y-60553261D01*
X53592000Y-60553261D01*
X53592000Y-59983903D01*
X53698405Y-59824656D01*
X53776426Y-59636298D01*
X53816200Y-59436339D01*
X53816200Y-59232461D01*
X53776426Y-59032502D01*
X53698405Y-58844144D01*
X53585137Y-58674626D01*
X53440974Y-58530463D01*
X53271456Y-58417195D01*
X53083098Y-58339174D01*
X52883139Y-58299400D01*
X52679261Y-58299400D01*
X52479302Y-58339174D01*
X52290944Y-58417195D01*
X52121426Y-58530463D01*
X52077489Y-58574400D01*
X48760511Y-58574400D01*
X48716574Y-58530463D01*
X48547056Y-58417195D01*
X48358698Y-58339174D01*
X48158739Y-58299400D01*
X47954861Y-58299400D01*
X47754902Y-58339174D01*
X47699200Y-58362247D01*
X47699200Y-57316358D01*
X47749195Y-57437056D01*
X47862463Y-57606574D01*
X48006626Y-57750737D01*
X48176144Y-57864005D01*
X48364502Y-57942026D01*
X48564461Y-57981800D01*
X48768339Y-57981800D01*
X48968298Y-57942026D01*
X49156656Y-57864005D01*
X49326174Y-57750737D01*
X49370111Y-57706800D01*
X50553489Y-57706800D01*
X50597426Y-57750737D01*
X50766944Y-57864005D01*
X50955302Y-57942026D01*
X51155261Y-57981800D01*
X51359139Y-57981800D01*
X51559098Y-57942026D01*
X51747456Y-57864005D01*
X51916974Y-57750737D01*
X52061137Y-57606574D01*
X52174405Y-57437056D01*
X52252426Y-57248698D01*
X52292200Y-57048739D01*
X52292200Y-56844861D01*
X52252426Y-56644902D01*
X52174405Y-56456544D01*
X52061137Y-56287026D01*
X51916974Y-56142863D01*
X51747456Y-56029595D01*
X51559098Y-55951574D01*
X51359139Y-55911800D01*
X51155261Y-55911800D01*
X50955302Y-55951574D01*
X50766944Y-56029595D01*
X50597426Y-56142863D01*
X50553489Y-56186800D01*
X49370111Y-56186800D01*
X49326174Y-56142863D01*
X49156656Y-56029595D01*
X48968298Y-55951574D01*
X48768339Y-55911800D01*
X48564461Y-55911800D01*
X48364502Y-55951574D01*
X48176144Y-56029595D01*
X48006626Y-56142863D01*
X47974200Y-56175289D01*
X47974200Y-56032061D01*
X47934426Y-55832102D01*
X47856405Y-55643744D01*
X47743137Y-55474226D01*
X47598974Y-55330063D01*
X47429456Y-55216795D01*
X47241098Y-55138774D01*
X47041139Y-55099000D01*
X46837261Y-55099000D01*
X46637302Y-55138774D01*
X46448944Y-55216795D01*
X46279426Y-55330063D01*
X46135263Y-55474226D01*
X46021995Y-55643744D01*
X45943974Y-55832102D01*
X45904200Y-56032061D01*
X45904200Y-56235939D01*
X45943974Y-56435898D01*
X46021995Y-56624256D01*
X46135263Y-56793774D01*
X46179200Y-56837711D01*
X46179201Y-64021468D01*
X46175524Y-64058800D01*
X46190198Y-64207785D01*
X46233654Y-64351046D01*
X46304226Y-64483076D01*
X46345809Y-64533744D01*
X46399200Y-64598801D01*
X46428198Y-64622599D01*
X48393400Y-66587803D01*
X48393400Y-66649939D01*
X48433174Y-66849898D01*
X48511195Y-67038256D01*
X48524387Y-67058000D01*
X46542802Y-67058000D01*
X45211256Y-65726455D01*
X45253937Y-65683774D01*
X45367205Y-65514256D01*
X45445226Y-65325898D01*
X45485000Y-65125939D01*
X45485000Y-64922061D01*
X45445226Y-64722102D01*
X45367205Y-64533744D01*
X45253937Y-64364226D01*
X45109774Y-64220063D01*
X44940256Y-64106795D01*
X44751898Y-64028774D01*
X44551939Y-63989000D01*
X44348061Y-63989000D01*
X44148102Y-64028774D01*
X43959744Y-64106795D01*
X43790226Y-64220063D01*
X43646063Y-64364226D01*
X43532795Y-64533744D01*
X43454774Y-64722102D01*
X43415000Y-64922061D01*
X20472000Y-64922061D01*
X20472000Y-55320861D01*
X32086600Y-55320861D01*
X32086600Y-55524739D01*
X32126374Y-55724698D01*
X32204395Y-55913056D01*
X32317663Y-56082574D01*
X32461826Y-56226737D01*
X32631344Y-56340005D01*
X32819702Y-56418026D01*
X33019661Y-56457800D01*
X33223539Y-56457800D01*
X33423498Y-56418026D01*
X33611856Y-56340005D01*
X33781374Y-56226737D01*
X33825311Y-56182800D01*
X42974878Y-56182800D01*
X43012200Y-56186476D01*
X43049522Y-56182800D01*
X43049533Y-56182800D01*
X43161186Y-56171803D01*
X43304447Y-56128346D01*
X43436476Y-56057774D01*
X43552201Y-55962801D01*
X43576004Y-55933797D01*
X60678430Y-38831372D01*
X60832408Y-38862000D01*
X61107592Y-38862000D01*
X61377490Y-38808314D01*
X61631727Y-38703005D01*
X61860535Y-38550120D01*
X62055120Y-38355535D01*
X62208005Y-38126727D01*
X62313314Y-37872490D01*
X62367000Y-37602592D01*
X62367000Y-37327408D01*
X62313314Y-37057510D01*
X62208005Y-36803273D01*
X62141005Y-36703000D01*
X67169928Y-36703000D01*
X67169928Y-38227000D01*
X67182188Y-38351482D01*
X67218498Y-38471180D01*
X67277463Y-38581494D01*
X67356815Y-38678185D01*
X67453506Y-38757537D01*
X67563820Y-38816502D01*
X67683518Y-38852812D01*
X67808000Y-38865072D01*
X69332000Y-38865072D01*
X69456482Y-38852812D01*
X69576180Y-38816502D01*
X69686494Y-38757537D01*
X69783185Y-38678185D01*
X69862537Y-38581494D01*
X69921502Y-38471180D01*
X69957812Y-38351482D01*
X69970072Y-38227000D01*
X69970072Y-36703000D01*
X69957812Y-36578518D01*
X69921502Y-36458820D01*
X69862537Y-36348506D01*
X69783185Y-36251815D01*
X69686494Y-36172463D01*
X69576180Y-36113498D01*
X69456482Y-36077188D01*
X69332000Y-36064928D01*
X67808000Y-36064928D01*
X67683518Y-36077188D01*
X67563820Y-36113498D01*
X67453506Y-36172463D01*
X67356815Y-36251815D01*
X67277463Y-36348506D01*
X67218498Y-36458820D01*
X67182188Y-36578518D01*
X67169928Y-36703000D01*
X62141005Y-36703000D01*
X62055120Y-36574465D01*
X61860535Y-36379880D01*
X61631727Y-36226995D01*
X61377490Y-36121686D01*
X61107592Y-36068000D01*
X60832408Y-36068000D01*
X60562510Y-36121686D01*
X60308273Y-36226995D01*
X60079465Y-36379880D01*
X59884880Y-36574465D01*
X59731995Y-36803273D01*
X59626686Y-37057510D01*
X59573000Y-37327408D01*
X59573000Y-37602592D01*
X59603628Y-37756570D01*
X57205030Y-40155168D01*
X57205030Y-28864401D01*
X63346003Y-22723429D01*
X63375001Y-22699631D01*
X63469974Y-22583906D01*
X63540546Y-22451877D01*
X63584003Y-22308616D01*
X63588951Y-22258383D01*
X63725535Y-22167120D01*
X63845090Y-22047565D01*
X64589040Y-22047565D01*
X64656020Y-22287656D01*
X64905048Y-22404756D01*
X65172135Y-22471023D01*
X65447017Y-22483910D01*
X65719133Y-22442922D01*
X65978023Y-22349636D01*
X66093980Y-22287656D01*
X66160960Y-22047565D01*
X65375000Y-21261605D01*
X64589040Y-22047565D01*
X63845090Y-22047565D01*
X63920120Y-21972535D01*
X64073005Y-21743727D01*
X64102692Y-21672057D01*
X64107364Y-21685023D01*
X64169344Y-21800980D01*
X64409435Y-21867960D01*
X65195395Y-21082000D01*
X65554605Y-21082000D01*
X66340565Y-21867960D01*
X66580656Y-21800980D01*
X66697756Y-21551952D01*
X66764023Y-21284865D01*
X66776910Y-21009983D01*
X66735922Y-20737867D01*
X66642636Y-20478977D01*
X66580656Y-20363020D01*
X66340565Y-20296040D01*
X65554605Y-21082000D01*
X65195395Y-21082000D01*
X64409435Y-20296040D01*
X64169344Y-20363020D01*
X64105515Y-20498760D01*
X64073005Y-20420273D01*
X63920120Y-20191465D01*
X63845090Y-20116435D01*
X64589040Y-20116435D01*
X65375000Y-20902395D01*
X66160960Y-20116435D01*
X66093980Y-19876344D01*
X65844952Y-19759244D01*
X65577865Y-19692977D01*
X65302983Y-19680090D01*
X65030867Y-19721078D01*
X64771977Y-19814364D01*
X64656020Y-19876344D01*
X64589040Y-20116435D01*
X63845090Y-20116435D01*
X63725535Y-19996880D01*
X63496727Y-19843995D01*
X63242490Y-19738686D01*
X62972592Y-19685000D01*
X62697408Y-19685000D01*
X62427510Y-19738686D01*
X62173273Y-19843995D01*
X61944465Y-19996880D01*
X61749880Y-20191465D01*
X61596995Y-20420273D01*
X61565000Y-20497515D01*
X61533005Y-20420273D01*
X61380120Y-20191465D01*
X61185535Y-19996880D01*
X60956727Y-19843995D01*
X60702490Y-19738686D01*
X60432592Y-19685000D01*
X60157408Y-19685000D01*
X59887510Y-19738686D01*
X59633273Y-19843995D01*
X59404465Y-19996880D01*
X59209880Y-20191465D01*
X59151080Y-20279465D01*
X59142812Y-20195518D01*
X59106502Y-20075820D01*
X59047537Y-19965506D01*
X58968185Y-19868815D01*
X58871494Y-19789463D01*
X58761180Y-19730498D01*
X58641482Y-19694188D01*
X58517000Y-19681928D01*
X56993000Y-19681928D01*
X56868518Y-19694188D01*
X56748820Y-19730498D01*
X56638506Y-19789463D01*
X56541815Y-19868815D01*
X56462463Y-19965506D01*
X56403498Y-20075820D01*
X56367188Y-20195518D01*
X56354928Y-20320000D01*
X56354928Y-21844000D01*
X56367188Y-21968482D01*
X56403498Y-22088180D01*
X56462463Y-22198494D01*
X56541815Y-22295185D01*
X56638506Y-22374537D01*
X56748820Y-22433502D01*
X56868518Y-22469812D01*
X56993000Y-22482072D01*
X58517000Y-22482072D01*
X58641482Y-22469812D01*
X58761180Y-22433502D01*
X58871494Y-22374537D01*
X58968185Y-22295185D01*
X59047537Y-22198494D01*
X59106502Y-22088180D01*
X59142812Y-21968482D01*
X59151080Y-21884535D01*
X59209880Y-21972535D01*
X59404465Y-22167120D01*
X59535001Y-22254341D01*
X59535000Y-23616598D01*
X55419798Y-27731801D01*
X55390800Y-27755599D01*
X55367002Y-27784597D01*
X55367001Y-27784598D01*
X55295826Y-27871324D01*
X55225254Y-28003354D01*
X55181798Y-28146615D01*
X55167124Y-28295600D01*
X55170801Y-28332932D01*
X55170800Y-40071198D01*
X54679800Y-40562198D01*
X54679800Y-40560861D01*
X54640026Y-40360902D01*
X54562005Y-40172544D01*
X54448737Y-40003026D01*
X54304574Y-39858863D01*
X54135056Y-39745595D01*
X53946698Y-39667574D01*
X53746739Y-39627800D01*
X53542861Y-39627800D01*
X53342902Y-39667574D01*
X53154544Y-39745595D01*
X52985026Y-39858863D01*
X52941089Y-39902800D01*
X52388696Y-39902800D01*
X52354026Y-39728502D01*
X52276005Y-39540144D01*
X52162737Y-39370626D01*
X52018574Y-39226463D01*
X51849056Y-39113195D01*
X51660698Y-39035174D01*
X51460739Y-38995400D01*
X51256861Y-38995400D01*
X51056902Y-39035174D01*
X50868544Y-39113195D01*
X50699026Y-39226463D01*
X50554863Y-39370626D01*
X50441595Y-39540144D01*
X50363574Y-39728502D01*
X50323800Y-39928461D01*
X50323800Y-40132339D01*
X50363574Y-40332298D01*
X50441595Y-40520656D01*
X50554863Y-40690174D01*
X50699026Y-40834337D01*
X50868544Y-40947605D01*
X51056902Y-41025626D01*
X51256861Y-41065400D01*
X51318998Y-41065400D01*
X51427400Y-41173802D01*
X51451199Y-41202801D01*
X51566924Y-41297774D01*
X51698953Y-41368346D01*
X51842214Y-41411803D01*
X51953867Y-41422800D01*
X51953875Y-41422800D01*
X51991200Y-41426476D01*
X52028525Y-41422800D01*
X52941089Y-41422800D01*
X52985026Y-41466737D01*
X53154544Y-41580005D01*
X53342902Y-41658026D01*
X53542861Y-41697800D01*
X53544198Y-41697800D01*
X45957598Y-49284401D01*
X39858121Y-49284401D01*
X39820798Y-49280725D01*
X39783476Y-49284401D01*
X39783466Y-49284401D01*
X39671813Y-49295398D01*
X39528552Y-49338855D01*
X39396574Y-49409400D01*
X39318861Y-49409400D01*
X39118902Y-49449174D01*
X38930544Y-49527195D01*
X38761026Y-49640463D01*
X38616863Y-49784626D01*
X38503595Y-49954144D01*
X38425574Y-50142502D01*
X38385800Y-50342461D01*
X38385800Y-50546339D01*
X38409984Y-50667920D01*
X38407702Y-50668374D01*
X38219344Y-50746395D01*
X38049826Y-50859663D01*
X38005889Y-50903600D01*
X37381311Y-50903600D01*
X37337374Y-50859663D01*
X37167856Y-50746395D01*
X36979498Y-50668374D01*
X36779539Y-50628600D01*
X36575661Y-50628600D01*
X36375702Y-50668374D01*
X36187344Y-50746395D01*
X36017826Y-50859663D01*
X35873663Y-51003826D01*
X35760395Y-51173344D01*
X35682374Y-51361702D01*
X35642600Y-51561661D01*
X35642600Y-51765539D01*
X35682374Y-51965498D01*
X35760395Y-52153856D01*
X35873663Y-52323374D01*
X36017826Y-52467537D01*
X36187344Y-52580805D01*
X36375702Y-52658826D01*
X36575661Y-52698600D01*
X36779539Y-52698600D01*
X36979498Y-52658826D01*
X37167856Y-52580805D01*
X37337374Y-52467537D01*
X37381311Y-52423600D01*
X38005889Y-52423600D01*
X38049826Y-52467537D01*
X38219344Y-52580805D01*
X38407702Y-52658826D01*
X38607661Y-52698600D01*
X38811539Y-52698600D01*
X39011498Y-52658826D01*
X39199856Y-52580805D01*
X39369374Y-52467537D01*
X39513537Y-52323374D01*
X39561332Y-52251843D01*
X39573826Y-52264337D01*
X39743344Y-52377605D01*
X39931702Y-52455626D01*
X40131661Y-52495400D01*
X40335539Y-52495400D01*
X40535498Y-52455626D01*
X40723856Y-52377605D01*
X40893374Y-52264337D01*
X40937311Y-52220400D01*
X45139799Y-52220400D01*
X42697399Y-54662800D01*
X33825311Y-54662800D01*
X33781374Y-54618863D01*
X33611856Y-54505595D01*
X33423498Y-54427574D01*
X33223539Y-54387800D01*
X33019661Y-54387800D01*
X32819702Y-54427574D01*
X32631344Y-54505595D01*
X32461826Y-54618863D01*
X32317663Y-54763026D01*
X32204395Y-54932544D01*
X32126374Y-55120902D01*
X32086600Y-55320861D01*
X20472000Y-55320861D01*
X20472000Y-38239000D01*
X23757928Y-38239000D01*
X23757928Y-39739000D01*
X23770188Y-39863482D01*
X23806498Y-39983180D01*
X23865463Y-40093494D01*
X23944815Y-40190185D01*
X24041506Y-40269537D01*
X24151820Y-40328502D01*
X24271518Y-40364812D01*
X24396000Y-40377072D01*
X25896000Y-40377072D01*
X26020482Y-40364812D01*
X26140180Y-40328502D01*
X26250494Y-40269537D01*
X26347185Y-40190185D01*
X26426537Y-40093494D01*
X26485502Y-39983180D01*
X26521812Y-39863482D01*
X26532445Y-39755517D01*
X26610201Y-39871886D01*
X26803114Y-40064799D01*
X27029957Y-40216371D01*
X27282011Y-40320775D01*
X27549589Y-40374000D01*
X27822411Y-40374000D01*
X28089989Y-40320775D01*
X28342043Y-40216371D01*
X28568886Y-40064799D01*
X28761799Y-39871886D01*
X28913371Y-39645043D01*
X28956000Y-39542127D01*
X28998629Y-39645043D01*
X29150201Y-39871886D01*
X29343114Y-40064799D01*
X29569957Y-40216371D01*
X29822011Y-40320775D01*
X30089589Y-40374000D01*
X30362411Y-40374000D01*
X30629989Y-40320775D01*
X30882043Y-40216371D01*
X31108886Y-40064799D01*
X31301799Y-39871886D01*
X31453371Y-39645043D01*
X31496000Y-39542127D01*
X31538629Y-39645043D01*
X31690201Y-39871886D01*
X31883114Y-40064799D01*
X32109957Y-40216371D01*
X32362011Y-40320775D01*
X32629589Y-40374000D01*
X32902411Y-40374000D01*
X33169989Y-40320775D01*
X33422043Y-40216371D01*
X33470999Y-40183659D01*
X33471000Y-45006998D01*
X30236999Y-48241000D01*
X30174861Y-48241000D01*
X29974902Y-48280774D01*
X29786544Y-48358795D01*
X29617026Y-48472063D01*
X29472863Y-48616226D01*
X29359595Y-48785744D01*
X29281574Y-48974102D01*
X29241800Y-49174061D01*
X29241800Y-49377939D01*
X29281574Y-49577898D01*
X29359595Y-49766256D01*
X29472863Y-49935774D01*
X29617026Y-50079937D01*
X29786544Y-50193205D01*
X29974902Y-50271226D01*
X30174861Y-50311000D01*
X30378739Y-50311000D01*
X30578698Y-50271226D01*
X30767056Y-50193205D01*
X30936574Y-50079937D01*
X31080737Y-49935774D01*
X31194005Y-49766256D01*
X31272026Y-49577898D01*
X31311800Y-49377939D01*
X31311800Y-49315801D01*
X34742002Y-45885600D01*
X34771000Y-45861802D01*
X34865973Y-45746077D01*
X34936545Y-45614048D01*
X34980002Y-45470787D01*
X34990999Y-45359134D01*
X34990999Y-45359124D01*
X34994675Y-45321801D01*
X34990999Y-45284478D01*
X34990999Y-40338476D01*
X35169589Y-40374000D01*
X35442411Y-40374000D01*
X35709989Y-40320775D01*
X35962043Y-40216371D01*
X36188886Y-40064799D01*
X36381799Y-39871886D01*
X36533371Y-39645043D01*
X36576000Y-39542127D01*
X36618629Y-39645043D01*
X36770201Y-39871886D01*
X36963114Y-40064799D01*
X37189957Y-40216371D01*
X37442011Y-40320775D01*
X37709589Y-40374000D01*
X37982411Y-40374000D01*
X38070776Y-40356423D01*
X37552199Y-40875000D01*
X37490061Y-40875000D01*
X37290102Y-40914774D01*
X37101744Y-40992795D01*
X36932226Y-41106063D01*
X36788063Y-41250226D01*
X36674795Y-41419744D01*
X36596774Y-41608102D01*
X36557000Y-41808061D01*
X36557000Y-42011939D01*
X36596774Y-42211898D01*
X36674795Y-42400256D01*
X36788063Y-42569774D01*
X36932226Y-42713937D01*
X37101744Y-42827205D01*
X37290102Y-42905226D01*
X37490061Y-42945000D01*
X37693939Y-42945000D01*
X37893898Y-42905226D01*
X38082256Y-42827205D01*
X38251774Y-42713937D01*
X38395937Y-42569774D01*
X38509205Y-42400256D01*
X38587226Y-42211898D01*
X38627000Y-42011939D01*
X38627000Y-41949801D01*
X38639800Y-41937001D01*
X38639800Y-41961139D01*
X38679574Y-42161098D01*
X38757595Y-42349456D01*
X38870863Y-42518974D01*
X39015026Y-42663137D01*
X39184544Y-42776405D01*
X39372902Y-42854426D01*
X39572861Y-42894200D01*
X39776739Y-42894200D01*
X39976698Y-42854426D01*
X40165056Y-42776405D01*
X40334574Y-42663137D01*
X40478737Y-42518974D01*
X40592005Y-42349456D01*
X40670026Y-42161098D01*
X40709800Y-41961139D01*
X40709800Y-41899001D01*
X42167003Y-40441799D01*
X42196001Y-40418001D01*
X42274257Y-40322646D01*
X42290974Y-40302277D01*
X42324759Y-40239071D01*
X42522011Y-40320775D01*
X42789589Y-40374000D01*
X43062411Y-40374000D01*
X43329989Y-40320775D01*
X43582043Y-40216371D01*
X43808886Y-40064799D01*
X44001799Y-39871886D01*
X44153371Y-39645043D01*
X44196000Y-39542127D01*
X44238629Y-39645043D01*
X44390201Y-39871886D01*
X44583114Y-40064799D01*
X44809957Y-40216371D01*
X45062011Y-40320775D01*
X45329589Y-40374000D01*
X45602411Y-40374000D01*
X45869989Y-40320775D01*
X46122043Y-40216371D01*
X46348886Y-40064799D01*
X46541799Y-39871886D01*
X46693371Y-39645043D01*
X46797775Y-39392989D01*
X46851000Y-39125411D01*
X46851000Y-38852589D01*
X46797775Y-38585011D01*
X46693371Y-38332957D01*
X46541799Y-38106114D01*
X46348886Y-37913201D01*
X46122043Y-37761629D01*
X45869989Y-37657225D01*
X45602411Y-37604000D01*
X45329589Y-37604000D01*
X45062011Y-37657225D01*
X44809957Y-37761629D01*
X44583114Y-37913201D01*
X44390201Y-38106114D01*
X44238629Y-38332957D01*
X44196000Y-38435873D01*
X44153371Y-38332957D01*
X44001799Y-38106114D01*
X43808886Y-37913201D01*
X43582043Y-37761629D01*
X43329989Y-37657225D01*
X43062411Y-37604000D01*
X42789589Y-37604000D01*
X42522011Y-37657225D01*
X42416000Y-37701136D01*
X42416000Y-26116982D01*
X42419676Y-26079659D01*
X42416000Y-26042336D01*
X42416000Y-26042327D01*
X42405003Y-25930674D01*
X42361546Y-25787413D01*
X42290974Y-25655384D01*
X42196001Y-25539659D01*
X42167004Y-25515862D01*
X41372413Y-24721272D01*
X41461799Y-24631886D01*
X41613371Y-24405043D01*
X41656000Y-24302127D01*
X41698629Y-24405043D01*
X41850201Y-24631886D01*
X42043114Y-24824799D01*
X42269957Y-24976371D01*
X42522011Y-25080775D01*
X42789589Y-25134000D01*
X43062411Y-25134000D01*
X43329989Y-25080775D01*
X43582043Y-24976371D01*
X43808886Y-24824799D01*
X44001799Y-24631886D01*
X44153371Y-24405043D01*
X44196000Y-24302127D01*
X44238629Y-24405043D01*
X44390201Y-24631886D01*
X44583114Y-24824799D01*
X44809957Y-24976371D01*
X45062011Y-25080775D01*
X45329589Y-25134000D01*
X45602411Y-25134000D01*
X45869989Y-25080775D01*
X46122043Y-24976371D01*
X46348886Y-24824799D01*
X46541799Y-24631886D01*
X46693371Y-24405043D01*
X46797775Y-24152989D01*
X46851000Y-23885411D01*
X46851000Y-23612589D01*
X46797775Y-23345011D01*
X46693371Y-23092957D01*
X46541799Y-22866114D01*
X46348886Y-22673201D01*
X46122043Y-22521629D01*
X45869989Y-22417225D01*
X45602411Y-22364000D01*
X45329589Y-22364000D01*
X45062011Y-22417225D01*
X44809957Y-22521629D01*
X44583114Y-22673201D01*
X44390201Y-22866114D01*
X44238629Y-23092957D01*
X44196000Y-23195873D01*
X44153371Y-23092957D01*
X44001799Y-22866114D01*
X43808886Y-22673201D01*
X43582043Y-22521629D01*
X43329989Y-22417225D01*
X43062411Y-22364000D01*
X42789589Y-22364000D01*
X42674003Y-22386992D01*
X42691000Y-22301539D01*
X42691000Y-22097661D01*
X42651226Y-21897702D01*
X42573205Y-21709344D01*
X42459937Y-21539826D01*
X42315774Y-21395663D01*
X42146256Y-21282395D01*
X41957898Y-21204374D01*
X41757939Y-21164600D01*
X41554061Y-21164600D01*
X41354102Y-21204374D01*
X41165744Y-21282395D01*
X40996226Y-21395663D01*
X40952289Y-21439600D01*
X38549711Y-21439600D01*
X38505774Y-21395663D01*
X38336256Y-21282395D01*
X38147898Y-21204374D01*
X37947939Y-21164600D01*
X37744061Y-21164600D01*
X37544102Y-21204374D01*
X37355744Y-21282395D01*
X37186226Y-21395663D01*
X37042063Y-21539826D01*
X36928795Y-21709344D01*
X36850774Y-21897702D01*
X36811000Y-22097661D01*
X36811000Y-22301539D01*
X36850774Y-22501498D01*
X36928795Y-22689856D01*
X36935870Y-22700445D01*
X36770201Y-22866114D01*
X36618629Y-23092957D01*
X36576000Y-23195873D01*
X36533371Y-23092957D01*
X36381799Y-22866114D01*
X36188886Y-22673201D01*
X35962043Y-22521629D01*
X35709989Y-22417225D01*
X35442411Y-22364000D01*
X35169589Y-22364000D01*
X34902011Y-22417225D01*
X34649957Y-22521629D01*
X34423114Y-22673201D01*
X34230201Y-22866114D01*
X34078629Y-23092957D01*
X34036000Y-23195873D01*
X33993371Y-23092957D01*
X33841799Y-22866114D01*
X33648886Y-22673201D01*
X33422043Y-22521629D01*
X33169989Y-22417225D01*
X32902411Y-22364000D01*
X32629589Y-22364000D01*
X32362011Y-22417225D01*
X32109957Y-22521629D01*
X31883114Y-22673201D01*
X31690201Y-22866114D01*
X31538629Y-23092957D01*
X31496000Y-23195873D01*
X31453371Y-23092957D01*
X31301799Y-22866114D01*
X31108886Y-22673201D01*
X30882043Y-22521629D01*
X30629989Y-22417225D01*
X30362411Y-22364000D01*
X30089589Y-22364000D01*
X29822011Y-22417225D01*
X29569957Y-22521629D01*
X29343114Y-22673201D01*
X29150201Y-22866114D01*
X28998629Y-23092957D01*
X28956000Y-23195873D01*
X28913371Y-23092957D01*
X28761799Y-22866114D01*
X28568886Y-22673201D01*
X28342043Y-22521629D01*
X28089989Y-22417225D01*
X27822411Y-22364000D01*
X27549589Y-22364000D01*
X27282011Y-22417225D01*
X27029957Y-22521629D01*
X26803114Y-22673201D01*
X26610201Y-22866114D01*
X26458629Y-23092957D01*
X26416000Y-23195873D01*
X26373371Y-23092957D01*
X26221799Y-22866114D01*
X26028886Y-22673201D01*
X25802043Y-22521629D01*
X25549989Y-22417225D01*
X25282411Y-22364000D01*
X25009589Y-22364000D01*
X24742011Y-22417225D01*
X24489957Y-22521629D01*
X24263114Y-22673201D01*
X24070201Y-22866114D01*
X23918629Y-23092957D01*
X23814225Y-23345011D01*
X23761000Y-23612589D01*
X23761000Y-23885411D01*
X23814225Y-24152989D01*
X23918629Y-24405043D01*
X24070201Y-24631886D01*
X24263114Y-24824799D01*
X24489957Y-24976371D01*
X24742011Y-25080775D01*
X25009589Y-25134000D01*
X25282411Y-25134000D01*
X25549989Y-25080775D01*
X25802043Y-24976371D01*
X26028886Y-24824799D01*
X26221799Y-24631886D01*
X26373371Y-24405043D01*
X26416000Y-24302127D01*
X26458629Y-24405043D01*
X26610201Y-24631886D01*
X26803114Y-24824799D01*
X27029957Y-24976371D01*
X27282011Y-25080775D01*
X27549589Y-25134000D01*
X27822411Y-25134000D01*
X28089989Y-25080775D01*
X28342043Y-24976371D01*
X28568886Y-24824799D01*
X28761799Y-24631886D01*
X28913371Y-24405043D01*
X28956000Y-24302127D01*
X28998629Y-24405043D01*
X29150201Y-24631886D01*
X29343114Y-24824799D01*
X29569957Y-24976371D01*
X29822011Y-25080775D01*
X30089589Y-25134000D01*
X30362411Y-25134000D01*
X30629989Y-25080775D01*
X30882043Y-24976371D01*
X31108886Y-24824799D01*
X31301799Y-24631886D01*
X31453371Y-24405043D01*
X31496000Y-24302127D01*
X31538629Y-24405043D01*
X31690201Y-24631886D01*
X31883114Y-24824799D01*
X32109957Y-24976371D01*
X32362011Y-25080775D01*
X32629589Y-25134000D01*
X32902411Y-25134000D01*
X33169989Y-25080775D01*
X33422043Y-24976371D01*
X33648886Y-24824799D01*
X33841799Y-24631886D01*
X33993371Y-24405043D01*
X34036000Y-24302127D01*
X34078629Y-24405043D01*
X34230201Y-24631886D01*
X34423114Y-24824799D01*
X34546000Y-24906909D01*
X34546000Y-25309889D01*
X34492574Y-25256463D01*
X34323056Y-25143195D01*
X34134698Y-25065174D01*
X33934739Y-25025400D01*
X33730861Y-25025400D01*
X33530902Y-25065174D01*
X33342544Y-25143195D01*
X33173026Y-25256463D01*
X33028863Y-25400626D01*
X32915595Y-25570144D01*
X32837574Y-25758502D01*
X32797800Y-25958461D01*
X32797800Y-26011600D01*
X25849711Y-26011600D01*
X25805774Y-25967663D01*
X25636256Y-25854395D01*
X25447898Y-25776374D01*
X25247939Y-25736600D01*
X25044061Y-25736600D01*
X24844102Y-25776374D01*
X24655744Y-25854395D01*
X24486226Y-25967663D01*
X24342063Y-26111826D01*
X24228795Y-26281344D01*
X24150774Y-26469702D01*
X24111000Y-26669661D01*
X24111000Y-26873539D01*
X24150774Y-27073498D01*
X24228795Y-27261856D01*
X24342063Y-27431374D01*
X24486226Y-27575537D01*
X24655744Y-27688805D01*
X24844102Y-27766826D01*
X25044061Y-27806600D01*
X25247939Y-27806600D01*
X25447898Y-27766826D01*
X25636256Y-27688805D01*
X25805774Y-27575537D01*
X25849711Y-27531600D01*
X33084278Y-27531600D01*
X33121600Y-27535276D01*
X33158922Y-27531600D01*
X33158933Y-27531600D01*
X33270586Y-27520603D01*
X33413847Y-27477146D01*
X33545876Y-27406574D01*
X33661601Y-27311601D01*
X33685403Y-27282598D01*
X33872601Y-27095400D01*
X33934739Y-27095400D01*
X34134698Y-27055626D01*
X34323056Y-26977605D01*
X34492574Y-26864337D01*
X34546000Y-26810911D01*
X34546001Y-36300527D01*
X34458937Y-36170226D01*
X34314774Y-36026063D01*
X34145256Y-35912795D01*
X33956898Y-35834774D01*
X33756939Y-35795000D01*
X33553061Y-35795000D01*
X33353102Y-35834774D01*
X33164744Y-35912795D01*
X32995226Y-36026063D01*
X32951289Y-36070000D01*
X29882322Y-36070000D01*
X29844999Y-36066324D01*
X29807676Y-36070000D01*
X29807667Y-36070000D01*
X29696014Y-36080997D01*
X29588871Y-36113498D01*
X29552753Y-36124454D01*
X29420723Y-36195026D01*
X29351526Y-36251815D01*
X29304999Y-36289999D01*
X29281201Y-36318997D01*
X27967365Y-37632833D01*
X27822411Y-37604000D01*
X27549589Y-37604000D01*
X27282011Y-37657225D01*
X27029957Y-37761629D01*
X26803114Y-37913201D01*
X26610201Y-38106114D01*
X26532445Y-38222483D01*
X26521812Y-38114518D01*
X26485502Y-37994820D01*
X26426537Y-37884506D01*
X26347185Y-37787815D01*
X26250494Y-37708463D01*
X26140180Y-37649498D01*
X26020482Y-37613188D01*
X25896000Y-37600928D01*
X24396000Y-37600928D01*
X24271518Y-37613188D01*
X24151820Y-37649498D01*
X24041506Y-37708463D01*
X23944815Y-37787815D01*
X23865463Y-37884506D01*
X23806498Y-37994820D01*
X23770188Y-38114518D01*
X23757928Y-38239000D01*
X20472000Y-38239000D01*
X20472000Y-17932000D01*
X83668001Y-17932000D01*
X83668000Y-88748000D01*
M02*
